<svg xmlns="http://www.w3.org/2000/svg" xmlns:xlink="http://www.w3.org/1999/xlink" viewBox="0 0 177 127.3" enable-background="new 0 0 177 127.3"><rect y="18.8" fill="#D8505C" width="28.7" height="50.1"/><rect fill="#D8505C" width="27.1" height="18.9"/><polygon fill="#AEB0B3" points="26.2,0 26.2,18.8 0,18.8 0,19.1 26.2,19.1 26.2,0"/><rect y="69.2" fill="#D8505C" width="36.8" height="50.2"/><polygon fill="#AEB0B3" points="0,69 0,69.3 35.1,69.3 35.1,119.2 0,119.2 0,119.5 35.2,119.5 35.2,69"/><defs><rect id="a" width="177" height="127.3"/></defs><clipPath id="b"><use xlink:href="#a" overflow="visible"/></clipPath><path clip-path="url(#b)" fill="#fff" d="M-26.6 47.3c2-2.6 5.5-5.5 5.7-9 .2-3.4 1-11.4 1-11.4h5.3s.9 7.9 1 11.4c.1 1.4.7 2.7 1.5 4h.1v.1c.6.9 1.3 1.7 2 2.5 0-.3.1-.5.1-.6.5-.7 1.4-1.7 2.9-2.3 1.5-.6.7-10.2.7-10.2h-1.2l.9-5.2h5.1l.9 5.2h-1.2s-.9 9.6.7 10.2c1.5.6 2.4 1.6 2.9 2.3v-5c.1-.6 1.3-.6 1.5-.6.2 0 1.5.1 1.5.6v7.7c.2 0 .5 0 .7.1 0-3 .1-5 .2-5 .5 0 3.1-1 3.1-1.8v-7.7l-.7-1v-5h6.3v5l-.7 1v7.7c0 .8 2.6 1.8 3.1 1.8s0 28.1 0 28.1h-23.5v.1h-1v.1h-18.8c-1.3-4.5-2.1-20.5-.1-23.1"/><polygon clip-path="url(#b)" fill="#CBCDCF" points="3.5,38.7 3.4,38.7 3.4,38.7"/><path clip-path="url(#b)" fill="#fff" d="M-15.1 97.4v-7.7c.1-.6 1.3-.6 1.5-.6.2 0 1.5.1 1.5.6v7.7c.2 0 .5 0 .7.1 0-3 .1-5 .2-5 .5 0 3.1-1 3.1-1.8v-7.7l-.7-1v-5h6.3v5l-.5 1v7.7c0 .8 2.6 1.8 3.1 1.8.1 0 .2 2.2.2 5.3.4-.3.8-.4 1.2-.4v-7.7c.1-.6 1.3-.6 1.5-.6.2 0 1.5.1 1.5.6v7.7c.6-.1 1.2.3 1.7.9.5-2.7 1.3-4.4 2.7-4.2v-6.5c-.8-1.8-.3-3.6 2.3-3.6 2.5 0 3.1 1.7 2.2 3.4v6.6c5.5-.7 2.4 26.5 2.4 26.5h-33.699999999999996v-20.4c.1-.6 1.5-2.9 2.8-2.7"/><path clip-path="url(#b)" fill="#CBCDCF" d="M3 89.1z"/><polygon clip-path="url(#b)" fill="#CBCDCF" points="11.2,84 11.2,84 11.1,84"/><path clip-path="url(#b)" fill="#fff" d="M9.8 20.1h-7.9v-.1h-15.7s-.4-31.2 0-31.2 2.4-1.1 2.4-2v-8.5l-.5-1.1 6.5-5.5h5l-6.6 5.5-.5 1.1v8.5c0 .9 2 2 2.4 2 .2 0 .2 4.7.2 10.4 1.1-.2 2-.5 2-.7v-2.1l-1.1-.7v-3.6h7c.4-.4.8-.6 1.3-.6v-10c-.8-1.7-.3-3.4 2.2-3.4s3.1 1.7 2.2 3.4v10c1.6-.2 2.5 2.2 2.9 5.6.3-.1.6-.2.9-.1v-7.7c.1-.6 1.3-.6 1.5-.6.2 0 1.5.1 1.5.6v7.7c1.3-.2 2.7 2.1 2.7 2.7v20.4h-8.4z"/><path clip-path="url(#b)" fill="#CCC9C7" d="M-25.6 46.1c1.4-1.8 3.1-3.4 4.4-5.4.7-1 1.1-2.1 1.3-3.3l.2-2.7c.2-3 .5-6 .9-8.9 0-.1.1-.1.2-.1h5.3c.1 0 .2 0 .2.1l.6 5.8.4 4.3c0 .7.1 1.4.2 2.1.1.6.4 1.1.6 1.7.1.2.6 1.3.7 1.3 0 0 .2 0 .2.1 0 .3.6.9.8 1.1.4.5.8 1 1.3 1.5h-.4c.1-.8.6-1.3 1.2-1.8.4-.4.9-.7 1.3-.9.3-.2.6-.2.9-.5.7-1.1.6-2.9.6-4.1 0-1.5 0-3.1-.1-4.6 0-.4-.1-.8-.1-1.1v-.1c.2.1.2.1.1.1h-1.2s-.2 0-.2-.1c.3-1.7.6-3.4.9-5.2 0-.1.1-.1.2-.1h5.1c.1 0 .2 0 .2.1.3 1.7.6 3.4.9 5.2 0 .1-.1.1-.2.1h-1.3c-.2 0 .1-.1.1 0 0 .3 0 .6-.1.9-.1 1.4-.2 2.9-.2 4.3s0 2.9.4 4.3c.2.7.7.7 1.3 1 .9.5 1.5 1.2 2.1 2h-.4v-4.7c0-1.2 2.4-1.2 3.1-.6.4.3.3.8.3 1.2v6.7h.1c.2 0 .4.1.6.2-.1 0-.2 0-.3.1 0-1.6-.1-3.2.1-4.8 0-.1 0-.3.2-.3.6 0 1.2-.3 1.7-.6.4-.2 1.3-.6 1.3-1.2v-7.4c0-.5-.7-.9-.7-1.3v-5c0-.1.1-.1.2-.1h6.3s.2 0 .2.1v4.800000000000001c0 .4-.3.6-.5.9-.4.7-.2 1.8-.2 2.6v4.4c0 .4-.1.9 0 1.2.3.7 1.5 1.1 2.1 1.3.5.2.9 0 1 .6.2 1.6.1 3.3.1 5 0 7.6-.1 15.2-.2 22.8 0 .1-.1.1-.2.1h-23.400000000000002c0 .1-.1.1-.2.1h-.7999999999999999c0 .1-.1.1-.2.1h-18.8c-.1 0-.2 0-.2-.1-1-4-1.1-8.3-1.2-12.3 0-2.3 0-4.5.2-6.8.1-1.4.2-3 1-4.1.1-.1.4 0 .3 0-.6.8-.7 1.9-.9 2.8-.2 1.5-.3 3-.3 4.5 0 3.6.1 7.1.5 10.6.1 1.4.3 2.8.6 4.1 0 .2.1.5.2.7 0 .2 0 .2-.1.2h18.599999999999998c0-.1.1-.1.2-.1h.7999999999999999c0-.1.1-.1.2-.1h23.8c-.2 0-.2.1-.2-.1v-3.0999999999999996l.1-7.7c.1-5.1.2-10.3 0-15.5 0-.5 0-1-.1-1.5 0-.1-.4-.1-.7-.2-.7-.2-1.3-.5-1.9-.9-.8-.6-.6-1.6-.6-2.5v-5.8c0-.3.3-.6.5-.9.5-.7.2-2.1.2-3v-2.2h-5.800000000000001v4.6c0 .4.1.6.4.9.4.6.3 1.2.3 1.9v4.2c0 .7.3 2-.2 2.5-.6.8-2 1.3-3 1.4-.3 0-.2 4.6-.2 5 0 .1-.2.1-.3.1l-.6-.1s-.2 0-.2-.1v-7.6c0-.7-1.2-.7-1.8-.6-1.1.1-.9.7-.9 1.5v4c0 .1-.3.1-.4 0-.6-.8-1.4-1.5-2.3-2-.4-.2-.7-.3-1-.7-.5-1-.5-2.3-.5-3.3-.1-2.2 0-4.4.2-6.5 0-.1.1-.1.2-.1h1.1c.2 0-.1.1-.1 0s0-.3-.1-.4l-.5-3c-.1-.4-.1-.8-.2-1.3 0-.1 0-.2-.1-.3 0-.2.1 0 .1 0h-4.9l.1-.1v.3l-.2 1.3c-.2 1-.3 2-.5 3.1l-.2.3c0 .2 0 .1-.2.1h1.2c.1 0 .2 0 .2.1.2 2.2.3 4.3.2 6.5 0 1.1 0 2.3-.5 3.3-.3.6-1 .7-1.4 1-.8.5-1.9 1.4-2 2.4 0 .1-.3.1-.4 0l-1.3-1.5c-.2-.2-.8-.8-.8-1.1 0-.1.2.2-.1 0-.4-.3-.7-1.2-1-1.7-.8-1.7-.7-3.6-.8-5.4-.2-2.8-.5-5.5-.8-8.3 0 .1.3.1-.1.1h-5.1000000000000005l.1.1-.9 9.2-.2 2.5c-.1 1-.6 2-1.1 2.9-1.2 2.1-3.1 3.7-4.5 5.6.2 0-.1 0-.1-.1"/><path clip-path="url(#b)" fill="#9C9EA1" d="M4.7 37.6c-.3 0-.3-.2-.1-.2h.1c.2 0 .2.2 0 .2l-.1-.2h.1c.2 0 .2.2 0 .2"/><path clip-path="url(#b)" fill="#CCC9C7" d="M-14.1 96.2v-7.699999999999999c0-.7 1.4-.7 1.9-.7s1.5.1 1.5.8v7.6000000000000005c0-.2.6 0 .7.1-.1 0-.2 0-.3.1 0-1.6-.1-3.2.1-4.8 0-.1 0-.3.2-.3.6 0 1.2-.3 1.7-.6.4-.3 1.3-.7 1.3-1.3v-7.300000000000001c0-.5-.7-.9-.7-1.3v-5c0-.1.1-.1.2-.1h6.3s.2 0 .2.1v5l-.7 1.3v7.4c0 .6.9 1 1.3 1.2.5.3 1.1.5 1.7.6.2 0 .2.2.2.3.3 1.6.1 3.4.2 5h-.3c.3-.2.6-.3.9-.4.1 0 .2.2.2 0v-7.5c0-.7 1.3-.8 1.8-.8s1.6.1 1.6.8v7.5c0-.4 1.6.8 1.7.8h-.3c.3-1.6.8-4.5 3-4.3-.1 0-.2.1-.2.1v-6.5c0-.2-.2-.6-.3-.8-.1-.4-.1-.7 0-1.1.2-1.3 1.6-1.6 2.7-1.6 1 0 2.4.3 2.7 1.5.3 1-.3 1.8-.3 2.7v5.9c-.1 0-.2-.1-.2-.1 1.4-.1 2.1 1.2 2.5 2.3.7 2.2.8 4.6.9 6.9.2 5.1-.1 10.3-.6 15.4-.1.7-.1 1.4-.2 2 0 .1-.1.1-.2.1h-33.7s-.2 0-.2-.1v-19.700000000000003c0-.6 0-1 .3-1.5.5-1 1.5-2.1 2.7-2 .2 0 .1.2-.1.2-1.2-.1-2.5 1.8-2.5 2.9v20.099999999999998h33.3c-.1 0-.1.2-.1-.1 0-.2 0-.4.1-.6l.2-2.3c.5-5.3.8-10.6.5-15.9-.1-1.8-.3-3.6-.8-5.2-.3-.9-.9-2.4-2.1-2.3-.1 0-.2 0-.2-.1v-4.9c0-.4-.2-1.3 0-1.7.8-1.8 0-3.3-2.1-3.3-2-.1-2.8 1.4-2.2 3.1.2.5.1 1.2.1 1.7v5.1c0 .1-.2.1-.2.1-1.8-.1-2.3 2.9-2.5 4.1 0 .1-.3.1-.3 0-.4-.4-.9-.8-1.5-.8 0 0-.2 0-.2-.1v-7.7c0-.5-1-.6-1.3-.6-.3 0-1.3.1-1.3.6v7.700000000000001c0 .1-.1.1-.2.1l-1 .3c-.1 0-.3.1-.3 0 0-.5.2-5.1-.3-5.2-.9-.1-2.7-.8-3-1.7-.1-.3 0-.7 0-1v-6.199999999999999c0-.1-.1-.5 0-.6.2-.3.7-.8.7-1.1v-4.700000000000001h-5.9c-.2 0 .1-.1.1 0v4.9c0 .2.5.8.7 1 .1.1 0 .4 0 .6v5.5c0 .7.2 1.6-.3 2.2-.9.2-1.5.4-2.1.7-.2.1-1.2.3-1.2.4-.2.4-.1 1.2-.1 1.7 0 1.1 0 2.2-.1 3.3 0 .1-.2.1-.3.1l-.6-.1s-.2 0-.2-.1v-7.7c0-.5-1-.6-1.3-.6-.4 0-1.3.1-1.3.6v7.700000000000001s-.4 0-.4-.1"/><path clip-path="url(#b)" fill="#9C9EA1" d="M4.2 88c-.3 0-.3-.2-.1-.2h.1c.2 0 .2.2 0 .2l-.1-.2h.1c.2 0 .2.2 0 .2"/><path clip-path="url(#b)" fill="#9C9EA1" d="M12.4 82.9h-.1c-.2 0-.1-.2 0-.2.3 0 .3.2.1.2v-.2h-.1c.2 0 .4.2.1.2"/><path clip-path="url(#b)" fill="#CCC9C7" d="M11 19h-7.9s-.1 0-.1-.1h-10.9s-.2 0-.2-.1v.1h-4.5s-.2 0-.2-.1c-.1-9-.2-18-.2-27 0-1.3-.1-2.7.1-4.1 0-.1 0-.2.1-.2.7-.3 1.3-.5 1.8-1 .9-.8.6-2.2.6-3.3v-5.9c0-.4-.2-.7-.4-1-.4-.7 6.3-1.7 6.3-2.5v-3.4c0-.1.1-.1.2-.1h5s.2 0 .2.1l-6.5 5.5-.5 1.2v8.299999999999999c0 .7.5 1.1 1 1.5.3.2.7.5 1.1.6.1 0 .2 0 .3.1.1.2.1.6.1.8 0 .7 0 1.5.1 2.2v7.3c-.1.1-.2.1-.3.1.4-.1 1.9-.2 1.9-.8v-1.6c0-.7-.8-.6-1.1-1.1-.2-.3 0-1.3 0-1.6v-2c0-.1.1-.1.2-.1h6.5c.5 0 .5-.2.9-.4.1 0 .7-.3.7 0v-10l-.3-1c-.1-.4 0-.7.1-1.1.2-.6.7-1 1.3-1.3 1.2-.5 3-.3 3.8.8.7 1 0 1.9 0 2.9v9.7l-.2-.1c2.5-.2 2.9 4 3.1 5.7-.1 0-.2 0-.3-.1.2-.1.4-.2.7-.2h.1v-7.5c0-.7.9-.8 1.5-.9.4 0 1.9 0 1.9.7v7.6c-.1 0-.2-.1-.2-.1 1.8-.1 3 1.9 3 3.5v19.8c0 .1-.1.1-.2.1h-8.6c-.2 0-.2-.2 0-.2h8.4c.2 0-.1.1-.1-.1v-20.099999999999998c0-1.1-1.4-2.8-2.5-2.7-.1 0-.2 0-.2-.1v-7.7c0-.5-1-.6-1.3-.6-.3 0-1.3.1-1.3.5v7.700000000000001c0 .1-.1.1-.2.1-.3.2-.6.2-.8.3-.1 0-.3.1-.3-.1-.2-1.3-.5-5.7-2.7-5.5-.1 0-.2 0-.2-.1v-9.7c0-.3 0-.4.2-.7.4-.9.2-1.9-.6-2.5-1.1-.8-3.1-.5-3.8.6-.2.3-.2.8-.2 1.2l.3 1.2v10.100000000000001c0 .1-.1.1-.2.1-1-.2-.8.4-1.4.4h-6.9c-.2 0 .1-.1.1 0v3.4c0 .3.3.4.6.6.2 0 .5.1.5.3v1.5c0 .4.1.6-.2.8-.5.3-1.2.4-1.8.5-.1 0-.3 0-.3-.1v-7.6c0-.7 0-1.4-.1-2.1 0-.5.1-.6-.3-.7-1-.4-2.2-1.1-2.2-2.3v-7.8l.5-1.7 6.5-3.7v-1.5c0-.2 0-.1.1-.1h-4.800000000000001c.1 0 .1-.1.1.1v1.6l-6.5 3.6c0 .4.3.8.5 1.1.1.2.1.4.1.6v7.8c0 1.1-1.3 1.9-2.2 2.2-.3.1-.2 0-.2.2v.6c-.2 4.6-.1 9.3-.1 13.9 0 5 .1 10 .1 14.9v1.5c0 .2-.2 0-.1 0h4.6c.1 0 .2 0 .2.1 0-.1-.3-.1-.1-.1h10.9c.1 0 .2 0 .2.1h7.699999999999999c.2.1.2.3 0 .3"/><rect x="-12.6" y="18.9" clip-path="url(#b)" fill="#231F20" width="34.6" height=".7"/><rect x="-12.7" y="18.8" clip-path="url(#b)" fill="#231F20" width="35.5" height="1"/><rect x="-12.6" y="68.8" clip-path="url(#b)" fill="#231F20" width="40.4" height=".7"/><rect x="-12.7" y="68.6" clip-path="url(#b)" fill="#231F20" width="41.4" height="1"/><rect x="-12.6" y="119.2" clip-path="url(#b)" fill="#231F20" width="35.8" height=".7"/><rect x="-12.7" y="119.1" clip-path="url(#b)" fill="#231F20" width="36.7" height="1"/><rect x="20.1" y="-15.4" clip-path="url(#b)" fill="#fff" width="16.3" height="175"/><path clip-path="url(#b)" fill="#fff" d="M20.1-15.4h16.3v179.8h-16.3v-179.8zm-.4-1.8v183.40000000000003h17.099999999999998v-183.40000000000003h-17.099999999999998z"/><line clip-path="url(#b)" stroke="#231F20" stroke-width="2" stroke-miterlimit="10" x1="20.1" y1="-18.6" x2="20.1" y2="162.3" fill="none"/><rect x="140.5" y="118.9" clip-path="url(#b)" fill="#D8505C" width="36.6" height="39.3"/><rect x="135.8" y="18.4" clip-path="url(#b)" fill="#D8505C" width="41.2" height="50.1"/><rect x="137.4" y="-15.8" clip-path="url(#b)" fill="#D8505C" width="39.7" height="34.3"/><path clip-path="url(#b)" fill="#AEB0B3" d="M177.2 18.7h-38.9v-34.6h38.9v34.6zm-38.8-.3h38.8v-34h-38.8v34z"/><rect x="127.7" y="68.8" clip-path="url(#b)" fill="#D8505C" width="49.5" height="50.2"/><path clip-path="url(#b)" fill="#AEB0B3" d="M177.2 119.1h-47.9v-50.5h47.9v50.5zm-47.8-.3h47.7v-49.9h-47.7v49.9z"/><path clip-path="url(#b)" fill="#fff" d="M191.1 46.9c-2-2.6-5.5-5.5-5.7-9-.2-3.4-1-11.4-1-11.4h-5.3s-.9 7.9-1 11.4c-.1 1.4-.7 2.7-1.5 4h-.1v.1c-.6.9-1.3 1.7-2 2.5 0-.3-.1-.5-.1-.6-.5-.7-1.4-1.7-2.9-2.3-1.5-.6-.7-10.2-.7-10.2h1.2l-.9-5.2h-5.1l-.9 5.2h1.2s.9 9.6-.7 10.2c-1.5.6-2.4 1.6-2.9 2.3v-5c-.1-.6-1.3-.6-1.5-.6-.2 0-1.5.1-1.5.6v7.7c-.2 0-.5 0-.7.1 0-3-.1-5-.2-5-.5 0-3.1-1-3.1-1.8v-7.7l.7-1v-5h-6.3v5l.7 1v7.7c0 .8-2.6 1.8-3.1 1.8s0 28.1 0 28.1h23.800000000000004v.1h1v.1h18.8c1-4.5 1.9-20.5-.2-23.1"/><polygon clip-path="url(#b)" fill="#CBCDCF" points="161.1,38.3 161.1,38.3 161.1,38.3"/><path clip-path="url(#b)" fill="#fff" d="M179.6 97v-7.7c-.1-.6-1.3-.6-1.5-.6-.2 0-1.5.1-1.5.6v7.7c-.2 0-.5 0-.7.1 0-3-.1-5-.2-5-.5 0-3.1-1-3.1-1.8v-7.7l.7-1v-5h-6.3v5l.7 1v7.7c0 .8-2.6 1.8-3.1 1.8-.1 0-.2 2.2-.2 5.3-.4-.3-.8-.4-1.2-.4v-7.7c-.1-.6-1.3-.6-1.5-.6-.2 0-1.5.1-1.5.6v7.7c-.6-.1-1.2.3-1.7.9-.5-2.7-1.3-4.4-2.7-4.2v-6.5c.8-1.7.3-3.4-2.2-3.4s-3.1 1.7-2.2 3.4v6.5c-5.5-.7-2.4 26.5-2.4 26.5h33.8v-20.5c-.4-.6-1.8-2.9-3.2-2.7"/><path clip-path="url(#b)" fill="#CBCDCF" d="M161.5 88.7z"/><polygon clip-path="url(#b)" fill="#CBCDCF" points="153.4,83.6 153.4,83.6 153.4,83.6"/><path clip-path="url(#b)" fill="#fff" d="M154.8 19.7h7.8v-.1h15.8s.4-31.2 0-31.2-2.4-1.1-2.4-2v-8.5l.5-1.1-6.5-5.5h-5l6.5 5.5.5 1.1v8.5c0 .9-2 2-2.4 2-.2 0-.2 4.7-.2 10.4-1.1-.2-2-.5-2-.7v-2.1l1.1-.7v-3.6h-7c-.4-.4-.8-.6-1.3-.6v-10c.8-1.7.3-3.4-2.2-3.4s-3.1 1.7-2.2 3.4v10c-1.6-.2-2.5 2.2-2.9 5.6-.3-.1-.5-.2-.8-.2v-7.7c-.1-.6-1.3-.6-1.5-.6-.2 0-1.5.1-1.5.6v7.7c-1.3-.2-2.7 2.1-2.7 2.7v20.4h8.4z"/><path clip-path="url(#b)" fill="#CCC9C7" d="M190.1 45.7c-1.4-1.8-3.1-3.4-4.4-5.4-.7-1-1.1-2.1-1.3-3.3l-.2-2.7c-.2-3-.5-6-.9-8.9 0-.1-.1-.1-.2-.1h-5.3c-.1 0-.2 0-.2.1l-.6 5.8-.4 4.3c0 .7-.1 1.4-.2 2.1-.1.6-.4 1.2-.6 1.7-.1.2-.6 1.3-.7 1.3 0 0-.2 0-.2.1 0 .3-.6.9-.8 1.1-.4.5-.8 1-1.3 1.5h.4c-.1-.8-.6-1.3-1.2-1.8-.4-.4-.9-.7-1.3-.9-.3-.2-.6-.2-.9-.5-.7-1.1-.6-2.9-.6-4.1 0-1.5 0-3.1.1-4.6 0-.4.1-.8.1-1.1v-.1c-.2.1-.2.1-.1.1h1.2s.2 0 .2-.1c-.3-1.7-.6-3.4-.9-5.2 0-.1-.1-.1-.2-.1h-5.1c-.1 0-.2 0-.2.1-.3 1.7-.6 3.4-.9 5.2 0 .1.1.1.2.1h1.1c.2 0-.1-.1-.1 0 0 .3 0 .6.1.9.1 1.4.2 2.9.2 4.3s0 2.9-.4 4.3c-.2.7-.7.7-1.3 1-.9.5-1.5 1.2-2.1 2h.4v-4.8c0-1.2-2.4-1.2-3.1-.6-.4.3-.3.8-.3 1.2v6.7h-.1c-.2 0-.4.1-.6.2.1 0 .2 0 .3.1 0-1.6.1-3.2-.1-4.8 0-.1 0-.3-.2-.3-.6 0-1.2-.3-1.7-.6-.4-.2-1.3-.6-1.3-1.2v-7.4c0-.5.7-.9.7-1.3v-5c0-.1-.1-.1-.2-.1h-6.3s-.2 0-.2.1v4.800000000000001c0 .4.3.6.5.9.4.7.2 1.8.2 2.6v4.4c0 .4.1.9 0 1.2-.3.7-1.5 1.1-2.1 1.3-.5.2-.9 0-1 .6-.2 1.6-.1 3.3-.1 5 0 7.6.1 15.2.2 22.8 0 .1.1.1.2.1h23.6c0 .1.1.1.2.1h.7999999999999999c0 .1.1.1.2.1h18.8c.1 0 .2 0 .2-.1 1-4 1.1-8.3 1.2-12.3 0-2.3 0-4.5-.2-6.8-.1-1.3-.2-2.9-1-4-.1-.1-.4 0-.3 0 .6.8.7 1.9.9 2.8.2 1.5.3 3 .3 4.5.1 3.5-.1 7.1-.4 10.6-.1 1.4-.3 2.8-.6 4.1 0 .2-.1.5-.2.7 0 .2 0 .2.1.2h-18.599999999999998c0-.1-.1-.1-.2-.1h-.7999999999999999c0-.1-.1-.1-.2-.1h-23.8c.2 0 .2.1.2-.1v-3.0999999999999996l-.1-7.7c-.1-5.1-.2-10.3 0-15.5 0-.5 0-1 .1-1.5 0-.1.4-.1.7-.2.7-.2 1.3-.5 1.9-.9.8-.6.6-1.6.6-2.5v-5.8c0-.3-.3-.6-.5-.9-.5-.7-.2-2.1-.2-3v-2.2h5.9v4.5c0 .4-.1.6-.4.9-.4.6-.3 1.2-.3 1.9v4.1c0 .7-.3 2 .2 2.5.6.8 2 1.3 3 1.4.3 0 .2 4.6.2 5 0 .1.2.1.3.1l.6-.1s.2 0 .2-.1v-7.6c0-.7 1.2-.7 1.8-.6 1.1.1.9.7.9 1.5v4c0 .1.3.1.4 0 .6-.8 1.4-1.5 2.3-2 .4-.2.7-.3 1-.7.5-1 .5-2.3.5-3.3.1-2.2 0-4.4-.2-6.5 0-.1-.1-.1-.2-.1h-1.1c-.2 0 .1.1.1 0s0-.3.1-.4l.5-3c.1-.4.1-.8.2-1.3 0-.1 0-.2.1-.3 0-.2-.1 0-.1 0h4.9l-.1-.1v.3l.2 1.3c.2 1 .3 2 .5 3.1l.1.4c0 .2 0 .1.2.1h-1.2c-.1 0-.2 0-.2.1-.2 2.2-.3 4.3-.2 6.5 0 1.1 0 2.3.5 3.3.3.6 1 .7 1.4 1 .8.5 1.9 1.4 2 2.4 0 .1.3.1.4 0l1.3-1.5c.2-.2.8-.8.8-1.1 0-.1-.2.2.1 0 .4-.3.7-1.2 1-1.7.8-1.7.7-3.6.8-5.4.2-2.8.5-5.5.8-8.3 0 .1-.3.1.1.1h5.1000000000000005l-.1.1.9 9.2.2 2.5c.1 1 .6 2 1.1 2.9 1.2 2.1 3.1 3.7 4.5 5.6-.3.1.1.1 0 0"/><path clip-path="url(#b)" fill="#9C9EA1" d="M159.9 37.2c.3 0 .3-.2.1-.2h-.1c-.2 0-.2.2 0 .2l.1-.2h-.1c-.2 0-.2.2 0 .2"/><path clip-path="url(#b)" fill="#9C9EA1" d="M176.9 87.6c.3 0 .3-.2.1-.2h-.1c-.2 0-.2.2 0 .2l.1-.2h-.1c-.2 0-.2.2 0 .2"/><path clip-path="url(#b)" fill="#CCC9C7" d="M178.6 95.8v-7.699999999999999c0-.7-1.4-.7-1.9-.7s-1.5.1-1.5.8v7.500000000000001c0-.2-.6 0-.7.1.1 0 .2 0 .3.1 0-1.6.1-3.2-.1-4.8 0-.1 0-.3-.2-.3-.6 0-1.2-.3-1.7-.6-.4-.2-1.3-.6-1.3-1.2v-7.4c0-.5.7-.9.7-1.3v-5c0-.1-.1-.1-.2-.1h-6.3s-.2 0-.2.1v5l.7 1.3v7.4c0 .6-.9 1-1.3 1.2-.5.3-1.1.5-1.7.6-.2 0-.2.2-.2.3-.3 1.6-.1 3.4-.2 5h.3c-.3-.2-.6-.3-.9-.4-.1 0-.2.2-.2 0v-7.5c0-.7-1.3-.8-1.8-.8s-1.6.1-1.6.8v7.5c0-.4-1.6.8-1.7.8h.3c-.3-1.6-.8-4.5-3-4.3.1 0 .2.1.2.1v-6.5c0-.2.2-.6.3-.8.1-.4.1-.7 0-1.1-.2-1.3-1.6-1.6-2.7-1.6-1 0-2.4.3-2.7 1.5-.3 1 .3 1.8.3 2.7v5.9l.2-.1c-1.4-.1-2.1 1.2-2.5 2.3-.7 2.2-.8 4.6-.9 6.9-.2 5.1.1 10.3.6 15.4.1.7.1 1.4.2 2 0 .1.1.1.2.1h33.8s.2 0 .2-.1v-19.700000000000003c0-.6 0-1-.3-1.5-.5-1-1.5-2.1-2.7-2-.2 0-.1.2.1.2 1.2-.1 2.5 1.8 2.5 2.9v20.099999999999998h-33.3c.1 0 .1.2.1-.1 0-.2 0-.4-.1-.6l-.2-2.3c-.5-5.3-.8-10.6-.5-15.9.1-1.8.3-3.6.8-5.2.3-.9.9-2.4 2.1-2.3.1 0 .2 0 .2-.1v-4.9c0-.4.2-1.3 0-1.7-.8-1.8 0-3.3 2.1-3.3 2-.1 2.8 1.4 2.2 3.1-.2.5-.1 1.2-.1 1.7v5.1c0 .1.2.1.2.1 1.8-.1 2.3 2.9 2.5 4.1 0 .1.3.1.3 0 .4-.4.9-.8 1.5-.8 0 0 .2 0 .2-.1v-7.7c0-.5 1-.6 1.3-.6.3 0 1.3.1 1.3.6v7.700000000000001c0 .1.1.1.2.1l1 .3c.1 0 .3.1.3 0 0-.5-.2-5.1.3-5.2.9-.1 2.7-.8 3-1.7.1-.3 0-.7 0-1v-6.199999999999999c0-.1.1-.5 0-.6-.2-.3-.7-.8-.7-1.1v-4.700000000000001h5.9c.2 0-.1-.1-.1 0v4.9c0 .2-.5.8-.7 1-.1.1 0 .4 0 .6v5.5c0 .7-.2 1.6.3 2.2.4.4 1.1.7 1.6.9.2.1 1.2.3 1.2.4.2.4.1 1.2.1 1.7 0 1.1 0 2.2.1 3.3 0 .1.2.1.3.1l.6-.1s.2 0 .2-.1v-7.7c0-.5 1-.6 1.3-.6.4 0 1.3.1 1.3.6v7.700000000000001c.5-.1.8-.1.8-.2"/><path clip-path="url(#b)" fill="#9C9EA1" d="M160.3 87.6c.3 0 .3-.2.1-.2h-.1c-.2 0-.2.2 0 .2l.1-.2h-.1c-.2 0-.2.2 0 .2"/><path clip-path="url(#b)" fill="#9C9EA1" d="M152.1 82.5h.1c.2 0 .1-.2 0-.2-.2 0-.2.2-.1.2v-.2h.1c-.1 0-.3.2-.1.2"/><path clip-path="url(#b)" fill="#CCC9C7" d="M153.6 18.6h7.8c.1 0 .2 0 .2-.1h10.8s.2 0 .2-.1v.1h4.5s.2 0 .2-.1c.1-9 .2-18 .2-27 0-1.3.1-2.7-.1-4.1 0-.1 0-.2-.1-.2-.7-.3-1.3-.5-1.8-1-.9-.8-.6-2.2-.6-3.3v-5.8c0-.4.2-.7.4-1 .3-.7-6.3-1.7-6.3-2.5v-3.4c0-.1-.1-.1-.2-.1h-5s-.2 0-.2.1l6.5 5.5.5 1.2v8.299999999999999c0 .7-.5 1.1-1 1.5-.3.2-.7.5-1.1.6-.1 0-.2 0-.3.1-.1.2-.1.6-.1.8 0 .7 0 1.5-.1 2.2v7.3c.1 0 .2 0 .3-.1-.4-.1-1.9-.2-1.9-.8v-1.6c0-.7.7-.6 1.1-1.1.2-.3 0-1.3 0-1.6v-2c0-.1-.1-.1-.2-.1h-6.5c-.5 0-.5-.2-.9-.4-.1 0-.7-.3-.7 0v-10l.3-1c.1-.4 0-.7-.1-1.1-.2-.6-.7-1-1.3-1.3-1.2-.5-3-.3-3.8.8-.7 1 0 1.9 0 2.9v9.7l.2-.1c-2.5-.2-2.9 4-3.1 5.7.1 0 .2 0 .3-.1-.2-.1-.4-.2-.7-.2h-.1v-7.3999999999999995c0-.7-.9-.8-1.5-.9-.4 0-1.9 0-1.9.7v7.6c.1 0 .2-.1.2-.1-1.8-.1-3 1.9-3 3.5v19.8c0 .1.1.1.2.1h8.7c.2 0 .2-.2 0-.2h-8.4c-.2 0 .1.1.1-.1v-20.099999999999998c0-1.1 1.4-2.8 2.5-2.7.1 0 .2 0 .2-.1v-7.6000000000000005c0-.5 1-.6 1.3-.6.3 0 1.3.1 1.3.5v7.800000000000001c0 .1.1.1.2.1.2.1.5.1.7.1.1 0 .3.1.3-.1.2-1.3.5-5.7 2.7-5.5.1 0 .2 0 .2-.1v-9.7c0-.3 0-.4-.2-.7-.4-.9-.2-1.9.6-2.5 1.1-.8 3.1-.5 3.8.6.2.3.2.8.2 1.2l-.4 1.2v10.100000000000001c0 .1.1.1.2.1 1 0 .8.6 1.4.6h6.9c.2 0-.1-.1-.1 0v3.4c0 .3-.3.4-.6.6-.1.1-.5.2-.5.4v1.5c0 .4-.1.6.2.8.5.3 1.2.4 1.8.5.1 0 .3 0 .3-.1v-7.6c0-.7 0-1.4.1-2.1 0-.5-.1-.6.3-.7 1-.4 2.2-1.1 2.2-2.3v-7.8l-.5-1.7-6.5-3.7v-1.5c0-.2 0-.1-.1-.1h4.800000000000001c-.1 0-.1-.1-.1.1v1.6l6.5 3.6c0 .4-.3.8-.5 1.1-.1.2-.1.4-.1.6v7.8c0 1.1 1.3 1.9 2.2 2.2.3.1.2 0 .2.2v.6c.2 4.6.1 9.3.1 13.9 0 5-.1 10-.1 14.9v1.5c0 .2.2 0 .1 0h-4.6c-.1 0-.2 0-.2.1 0-.1.3-.1.1-.1h-10.8c-.1 0-.2 0-.2.1h-7.6c-.2-.2-.2 0 0 0"/><rect x="142.5" y="18.5" clip-path="url(#b)" fill="#231F20" width="34.6" height=".7"/><rect x="141.7" y="18.4" clip-path="url(#b)" fill="#231F20" width="35.5" height="1"/><rect x="136.8" y="68.4" clip-path="url(#b)" fill="#231F20" width="40.4" height=".7"/><rect x="135.8" y="68.2" clip-path="url(#b)" fill="#231F20" width="41.4" height="1"/><rect x="141.3" y="118.8" clip-path="url(#b)" fill="#231F20" width="35.8" height=".7"/><rect x="140.5" y="118.7" clip-path="url(#b)" fill="#231F20" width="36.7" height="1"/><rect x="128.1" y="-15.8" clip-path="url(#b)" fill="#fff" width="16.3" height="175"/><path clip-path="url(#b)" fill="#fff" d="M144.4 164h-16.3v-179.8h16.3v179.8zm.5-181.6h-17.099999999999998v183.40000000000003h17.099999999999998v-183.40000000000003z"/><line clip-path="url(#b)" stroke="#231F20" stroke-width="2" stroke-miterlimit="10" x1="144.4" y1="-19" x2="144.4" y2="161.9" fill="none"/><path clip-path="url(#b)" fill="#231F20" d="M29.7 19.7c-2.2 0-4 .5-5.2 1.4-1.1-.2-2.1-.4-3.1-.4-11.1 0-16 14-16.4 18-.4 3.7.5 7.6 2.1 9.3.2.2.3.3.5.4-.6 4.5-.8 8.7-.6 12.7v.4l.2.4c.3.5.7.8 1.1 1 0 2.8.4 6.3 1.3 9 .7 2.1 2.9 6.1 4.9 9.7l-32 14.8-1.2.6.3 1.3 7.2 37.1.3 1.3h84.9l.3-1.3 9.3-41.9.3-1.4-1.3-.6-29-13.5-5.9-6.4c.1-.6.3-1.6.5-2.4 2.1-.4 3.9-1.9 5-4.2 1.1-2.3 3.4-11.8 1.7-15.1-.4-.8-1.1-1.4-2-1.5h-.4c-.5 0-1.1.1-2 .6-.6-5.7-2.3-14.7-2.9-16.3l-.3-1c-.5-1.6-1.1-3.6-3.9-6.2-4.3-4.3-9.9-5.8-13.7-5.8"/><path clip-path="url(#b)" stroke="#fff" stroke-width="2" d="M29.7 19.7c-2.2 0-4 .5-5.2 1.4-1.1-.2-2.1-.4-3.1-.4-11.1 0-16 14-16.4 18-.4 3.7.5 7.6 2.1 9.3.2.2.3.3.5.4-.6 4.5-.8 8.7-.6 12.7v.4l.2.4c.3.5.7.8 1.1 1 0 2.8.4 6.3 1.3 9 .7 2.1 2.9 6.1 4.9 9.7l-32 14.8-1.2.6.3 1.3 7.2 37.1.3 1.3h84.9l.3-1.3 9.3-41.9.3-1.4-1.3-.6-29-13.5-5.9-6.4c.1-.6.3-1.6.5-2.4 2.1-.4 3.9-1.9 5-4.2 1.1-2.3 3.4-11.8 1.7-15.1-.4-.8-1.1-1.4-2-1.5h-.4c-.5 0-1.1.1-2 .6-.6-5.7-2.3-14.7-2.9-16.3l-.3-1c-.5-1.6-1.1-3.6-3.9-6.2-4.3-4.3-9.9-5.8-13.7-5.8z" fill="none"/><polygon clip-path="url(#b)" fill="#231F20" points="45.8,71.5 52.4,78.7 81.8,92.3 72.2,136.1 -9.1,136.1 -17.1,97.1 16.6,81.5"/><path clip-path="url(#b)" fill="#fff" d="M45.6 72.1l6.4 6.9.1.1h.1l28.9 13.4-9.4 42.9h-80.4l-7.8-38.1 33.3-15.3 28.8-9.9zm.2-.6l-29.2 10-33.7 15.5 8 39h81.3l9.6-43.7-29.4-13.6-6.6-7.2z"/><polygon clip-path="url(#b)" fill="#fff" points="44.9,81.1 18.2,90.8 14.3,136.1 42,136.1"/><polygon clip-path="url(#b)" fill="#fff" points="10.1,99.6 9.5,100 11.9,83.5 12.5,83.6"/><rect x="51.2" y="78.6" transform="matrix(.995 .1 -.1 .995 9.063 -4.697)" clip-path="url(#b)" fill="#fff" width=".6" height="19.1"/><polygon clip-path="url(#b)" fill="#fff" points="39,80.6 45.6,74.5 44.9,85.7 38.1,91.6"/><polygon clip-path="url(#b)" fill="#CCC9C7" points="18.9,92 15.7,133.8 0.7,133.8 -9.9,96.3 5.5,105"/><polygon clip-path="url(#b)" fill="#CCC9C7" points="45.8,90.4 58.7,105.6 72.3,95.7 60.4,133.8 43.5,133.8"/><rect x="41.7" y="84.3" transform="matrix(.648 .762 -.762 .648 81.996 -.887)" clip-path="url(#b)" fill="#231F20" width=".6" height="7.9"/><path clip-path="url(#b)" fill="#fff" d="M17.8 92.3l-3.2 41.9h-15l-10.6-37.5 15.3 8.7 13.5-13.1zm.7-1.5l-1.1 1.1-13.2 12.8-15-8.5-1.3-.7.4 1.4 10.7 37.4.1.4h15.9v-.5l3.2-41.8.3-1.6z"/><rect x="44.9" y="71.5" transform="matrix(.998 .06 -.06 .998 4.977 -2.579)" clip-path="url(#b)" fill="#fff" width=".6" height="19.3"/><path clip-path="url(#b)" fill="#fff" d="M18.2 84.4l-1.1 6.8 2.7.6c1 .3 11.8 2.3 11.8 2.3l7.9-11.7-21.3 2-1.1 6.8"/><path clip-path="url(#b)" fill="#fff" d="M44.6 90.8l12.9 15.2 13.6-9.8-11.9 38.1h-16.8l2.2-43.5zm-.4-1.4l-.1 1.4-2.3 43.4v.6h17.9l.1-.4 11.9-38.1.6-1.7-1.5 1.1-13.2 9.5-12.5-14.8-.9-1z"/><polygon clip-path="url(#b)" fill="#231F20" points="26.2,135.2 25.6,135.1 28.8,98.5 29.4,98.6"/><polygon clip-path="url(#b)" fill="#231F20" points="44.6,92.3 39,93.8 39,97.7 30.3,94.4 29.1,94.1 19.8,91.8 19.8,109 29.1,100.1 32.2,100.4 39,111.3"/><path clip-path="url(#b)" fill="#fff" d="M19.8 91.8l9.3 2.3 1.1.3 8.7 3.3v-3.8l5.6-1.5-5.5 18.9-6.8-10.9-3.1-.3-9.3 8.9v-17.2zm-.5-.7v19.2l1-.9 9.1-8.7 2.5.3 6.6 10.6.7 1.1.4-1.2 5.6-18.9.3-1-1 .3-5.6 1.5-.4.1v3.4l-7.9-3-1.1-.3-9.5-2.3-.7-.2z"/><rect x="31.9" y="93.6" transform="matrix(1 .01 -.01 1 .999 -.324)" clip-path="url(#b)" fill="#fff" width=".6" height="7.6"/><path clip-path="url(#b)" fill="#CCC9C7" d="M30.1 118.6c-1 0-1.8-.8-1.8-1.9 0-1 .8-1.9 1.8-1.9s1.8.8 1.8 1.9c0 1-.8 1.9-1.8 1.9m0-3.3c-.7 0-1.3.6-1.3 1.3 0 .7.6 1.3 1.3 1.3.7 0 1.3-.6 1.3-1.3 0-.7-.6-1.3-1.3-1.3"/><polyline clip-path="url(#b)" fill="#fff" points="39,93.8 39,97.7 30.3,94.4 39,81.9"/><rect x="38.7" y="81.9" clip-path="url(#b)" fill="#231F20" width=".6" height="11.9"/><polygon clip-path="url(#b)" fill="#231F20" points="39.3,98.1 29.8,94.5 38.7,81.7 39.2,82.1 30.7,94.3 38.7,97.2 38.7,93.8 39.3,93.8"/><path clip-path="url(#b)" fill="#fff" d="M10.9 44.4c-.1.7-.3 1.6-.5 2.7-.5 3.3-1.1 8.2-.8 13.6.4.6 1.3.8 1.3.8-.1 3 .3 7 1.2 9.7.9 2.7 4.7 9.3 5.6 11 .3.6.9 1.7 1.6 2.9 1.1 1.9 2.2 4.2 2.3 5 .1.9 3.7 1.6 6.7 1.8 1.8.1 3.5 0 4-.4l7.8-8.9 6.6-7.4.2-3c0-1.2.9-4.6.9-4.6 1.4.1 3.5-.6 4.8-3.3 1.3-2.7 3.5-13.8 1-14.2-.9-.2-2.2 1-3.6 2.7-2.5 3.1-5 8.1-4.9 10.6-.4.7-2.2.9-2.2.9 0-1.3-.2-2.4 0-3.4s1.2-17-2.8-19.3c-2.7-.2-14.8 7.8-19.1 4-1.2 1.8-6.1.7-10.1-1.2"/><path clip-path="url(#b)" fill="#CCC9C7" d="M34.2 62.5c.1 3.1-1.4 5.8-3.4 5.9l-2.1.2c-2 .1-3.7-2.3-3.8-5.4"/><path clip-path="url(#b)" fill="#CCC9C7" d="M17.8 63.2c-.3 2.8-1.5 5.1-3 4.7l-1.6-.5c-1.5-.4-2.7-2.7-2.3-5.9"/><path clip-path="url(#b)" fill="#231F20" d="M32.3 62.5c0 .7-.5 1.3-1.2 1.3h-.7c-.7 0-1.3-.5-1.3-1.2"/><path clip-path="url(#b)" fill="#231F20" d="M15 62.5c-.2.7-.7 1.1-1.2 1l-.5-.1c-.5-.1-.7-.8-.6-1.4"/><path clip-path="url(#b)" fill="#231F20" d="M43.9 62.7v-.7c0-.4.2-1.1.4-1.9.5-1.6 1.5-3.9 3.3-6.7.5-.7.9-1.4 1.5-2.1.6-.7 1.2-1.4 2.1-2l.7-.3h.4c.2 0 .3.1.4.2.3.2.4.4.5.7.1.3.2.5.2.8.2 1.1.2 2.2.1 3.4-.2 2.3-.6 4.8-1.3 7.4-.2.6-.4 1.3-.7 1.9-.1.3-.3.6-.5.9l-.6.9c-.2.3-.5.5-.8.8-.3.2-.6.4-1 .6-.7.3-1.5.5-2.3.4.1 0 .2-.1.4-.3-.2.7-.4 1.8-.6 3.1-.2 1.3-.2 2.9-.3 4.5v.1l-.1.1c-1.4 1.6-3.3 3.7-5.4 6-2.1 2.3-4.4 5-6.7 7.6-.8 1-1.7 1.9-2.3 2.7l-.5.3c-.2.1-.3.1-.5.1-.3.1-.6.1-.9.1h-1.7c-1.1 0-2.2-.1-3.2-.3-1.1-.2-2.1-.4-3.1-.7-.3-.1-.5-.2-.8-.4l-.2-.1-.1-.1-.1-.1c-.1-.1-.2-.2-.2-.3v-.2c-.1-.4-.3-.9-.5-1.3-.8-1.8-1.8-3.5-2.7-5.2-.9-1.7-1.8-3.3-2.7-4.9-.9-1.6-1.7-3.1-2.4-4.6l-1-2.3-.2-.6-.1-.6c-.1-.4-.2-.8-.3-1.1-.6-3-.7-5.7-.7-8 .3.5.3.5.4.6-.4-.1-.7-.2-.9-.4-.2-.1-.4-.3-.5-.5-.2-5.5.4-9.5.8-12.2.2-1.4.4-2.4.5-3 .1-.7.2-1 .2-1s-.1.3-.2 1-.3 1.7-.5 3c-.3 2.7-.8 6.8-.5 12.2v-.1c.2.3.5.5 1.2.7h.2v.2c0 2.3.2 4.9.8 7.8l.3 1.1.1.6c0 .2.1.4.2.5.3.8.6 1.5 1 2.2.7 1.5 1.6 3 2.4 4.6.9 1.6 1.8 3.2 2.7 4.9.9 1.7 1.9 3.4 2.8 5.3.2.5.4.9.5 1.6 0 .1.5.4.9.6.9.3 2 .5 3 .7 1 .1 2.1.2 3.2.3h1.6c.3 0 .5 0 .8-.1.2 0 .5-.1.6-.2.7-.8 1.5-1.7 2.3-2.7 2.4-2.7 4.6-5.3 6.8-7.6 2.1-2.3 4-4.4 5.4-6 0 .1-.1.2-.1.2.1-1.6.2-3.2.4-4.5.3-1.4.5-2.5.7-3.2l.1-.3h.3c.7.1 1.3-.1 1.9-.4.3-.1.6-.3.8-.5.3-.2.5-.4.7-.7l.6-.8.5-.9c.3-.6.5-1.2.6-1.9.7-2.5 1.2-4.9 1.4-7.2.1-1.1.1-2.3 0-3.3-.1-.5-.2-1-.6-1.3-.1-.1-.2-.1-.3-.1h-.3c-.2 0-.4.1-.6.3-.8.5-1.5 1.2-2 1.8-.6.7-1.1 1.4-1.5 2-1.8 2.7-2.9 4.9-3.4 6.5-.5.7-.7 1.4-.7 1.8v.5l-.1.1"/><path clip-path="url(#b)" fill="#231F20" d="M36.2 62.2s-.1 0-.3.1c-.2.1-.5.1-.8.1-.7.1-1.7.2-3 .3-2.5.2-6.1.6-10 .8-1.6.1-3.2.1-4.6-.2-.7-.1-1.4-.3-2-.5-.6-.2-1.2-.3-1.7-.5-2.1-.7-3.6-1-4-1.3-.1.2 0-.1 0-.1-.7-.1-1-.4-1.1-.6-.1-.2-.2-.2-.2-.2l.2.2c.2.1.5.4 1.1.5l.2-.1c.8.1 1.8.5 4 1.1.5.1 1.1.3 1.8.4.6.1 1.3.3 2 .4 1.3.3 2.9.2 4.4.1 3.9-.2 7.4-.4 10-.4h3.8c.1-.1.2-.1.2-.1"/><path clip-path="url(#b)" fill="#231F20" d="M33.4 56.4s-.3-.1-.8-.2-1.3-.2-2.2-.1c-1.8.1-4.4.7-7.2 1-2.8.3-5.5.5-7.4.1-.2 0-.5-.1-.7-.2l-.6-.2c-.3-.2-.6-.4-.8-.5-.4-.3-.6-.5-.6-.5s.3.1.7.4c.2.1.5.3.8.4l.6.2c.2.1.4.1.6.1 1.8.2 4.4-.1 7.2-.5 2.8-.3 5.4-.7 7.3-.6 1 .1 1.7.2 2.2.4.7 0 .9.2.9.2"/><path clip-path="url(#b)" fill="#231F20" d="M27.5 74.7s0-.1-.2-.2-.7-.2-1.4-.1l.1-.1c0 .3 0 .7-.2 1.3 0 .2-.1.3-.3.5l-.2.2-.1.1-.1.1h-.1c-.3.2-.7.4-1.1.6-.4.2-.8.4-1.3.5-.2.1-.5.1-.8.2-.3 0-.5.1-.9.1-.1 0-.3-.1-.3-.1h-.1l-.1-.1-.3-.4c-.2-.3-.3-.5-.4-.8-.3-.5-.5-1.1-.7-1.6-.3-.8-.5-1.5-.7-2.3-.2-.9-.3-1.6-.3-2.4 0-1.4.1-2.7.3-3.7.1-1 .3-1.9.4-2.5.1-.6.2-.9.2-.9s0 .3-.1.9c0 .6-.1 1.4-.1 2.5 0 1-.1 2.3 0 3.7 0 .7.1 1.4.3 2.1.2.7.4 1.4.7 2.2.2.5.4 1.1.7 1.6.1.2.2.5.4.7l.2.3c-.2.1-.1 0-.1 0h.7999999999999999l.7-.1c.5-.1.9-.2 1.3-.4.4-.1.8-.3 1.1-.5h.1l.1-.1c.1-.1.2-.1.2-.2.1-.1.2-.2.2-.3.3-.5.3-1 .4-1.2v-.1h.1c.7 0 1.2.1 1.4.2.2.1.2.3.2.3"/><path clip-path="url(#b)" fill="#231F20" d="M48.6 60.1s.1 0 .1-.1c.1-.1.2-.2.3-.4.2-.3.5-.9.7-1.6.3-.7.5-1.5.8-2.5.1-.5.3-1 .4-1.6.1-.5.2-1.1.1-1.6.1.1.3.2.5.3-.3.1-.9.5-1.3 1.1-.9 1.1-1.5 2.3-2.1 3.4-.6 1.1-1 2.1-1.4 3-.4.9-.6 1.6-.7 2.1-.1.5-.2.8-.2.8s0-.3.1-.8.2-1.3.5-2.2c.3-.9.6-2 1.1-3.2.5-1.2 1.1-2.4 2.1-3.6.5-.6 1.2-1.2 1.8-1.4l.4-.1v.4c.1.8-.1 1.3-.2 1.9-.1.6-.3 1.1-.5 1.6-.4 1-.7 1.8-1.1 2.5-.3.7-.7 1.2-.9 1.5-.1.2-.3.3-.4.3 0 .2-.1.2-.1.2"/><path clip-path="url(#b)" fill="#231F20" d="M33.4 70.3s0-.3.4-.6c.1-.1.2-.1.4-.2h.2c.1 0 .2 0 .3.1.2.1.2.4.2.6 0 .2-.1.4-.2.6-.2.4-.5.8-1.1.9h-1.6c-1.1-.1-2.2-.5-3.2-1.2s-1.8-1.6-2.4-2.5c-.6-.9-.9-1.7-1.2-2.5-.2-.7-.4-1.4-.4-1.8v-.7s.1 1 .8 2.3c.7 1.3 1.8 3.1 3.6 4.4.9.6 1.9 1 2.8 1.2.2.1.5.1.7.1h.6c.3 0 .6-.3.8-.6.2-.3.3-.6.2-.7l-.1-.1h-.2c-.1 0-.2 0-.3.1l-.3.6"/><path clip-path="url(#b)" fill="#231F20" d="M14.1 68.7l-.1-.1-.3-.1h-.2c-.1 0-.2 0-.2.1-.1.1-.2.3-.2.5s.1.4.3.6c.2.2.4.2.8.3.5.1 1.1-.4 1.5-1.1.4-.7.7-1.4 1-2.1.3-.7.5-1.3.6-1.8.3-1.1.5-1.8.5-1.8s0 .7-.1 1.8c-.1.6-.2 1.2-.4 2-.2.7-.5 1.5-.9 2.3-.2.4-.5.8-1 1-.4.3-.9.4-1.4.3-.3-.1-.8-.3-1.1-.5-.3-.3-.4-.7-.4-1.1.1-.3.3-.6.5-.7.1-.1.3-.1.4-.1.1 0 .2 0 .3.1.2.2.3.2.4.4"/><path clip-path="url(#b)" fill="#231F20" d="M33.4 77.5s-.9.6-2.4 1.5c-.7.4-1.7.9-2.7 1.4-1.1.4-2.3.9-3.6 1.2l-1.2.2c-.4.1-.8.1-1.2.1-.4 0-.8-.1-1.1-.1l-.2-.1h-.2l-.1-.1-.5-.3c-.5-.4-.9-.9-1.2-1.3-.3-.4-.6-.7-.8-1h.2c-.2.3-.3.6-.2.9 0 .3 0 .5.1.7 0 .4.1.5.1.5s0-.2-.1-.5c0-.2-.1-.4-.2-.7-.1-.3 0-.7.2-1.1l.1-.2.2.1c.3.2.6.5.9.9l1.2 1.1c.4.3 1 .3 1.7.3.3 0 .7 0 1-.1l1.1-.2c1.3-.3 2.4-.7 3.5-1 1-.4 2-.7 2.8-1.1 1.6-.7 2.6-1.1 2.6-1.1"/><path clip-path="url(#b)" fill="#231F20" d="M27.5 83.6s-.1 0-.3.1c-.2.1-.5.1-.8.2-.4 0-.8.1-1.3.1s-1 .1-1.6 0c-.6 0-1.2-.3-1.6-.6-.4-.3-.7-.8-.8-1.1-.1-.4-.2-.7-.1-.9v-.3s0 .1.1.3c.1.2.2.4.4.7.2.3.5.5.8.7.4.2.8.3 1.3.3.5.1 1 .1 1.5.1s.9.1 1.2.1c.4.1.6.1.8.1.3.2.4.2.4.2"/><path clip-path="url(#b)" fill="#fff" d="M50 52.7c-2.5 3.1-5 8.1-4.9 10.6-.4.7-2.2.9-2.2.9 0-1.3-.2-2.4 0-3.4s1.2-17-2.8-19.3c-2.7-.2-14.8 7.8-19.1 4-1.1 2-6.1.9-10-1-.1.7-.3 1.6-.5 2.7-1.7.1-3.1-4.3-2.7-8.5.4-4.4 6-19.7 18.2-16 1.7-2.7 10.9-2.4 17.1 3.8 3.1 3 3.1 4.8 3.8 6.7.7 1.8 3.3 16 3.1 19.5"/><path clip-path="url(#b)" fill="#231F20" d="M33.4 81.1s0-.2.1-.4c0-.3.1-.7 0-1.2-.1-1-.5-2.3-1.4-3.3-.5-.5-1-1-1.5-1.4-.3-.2-.5-.4-.7-.5-.2-.1-.5-.2-.7-.2-.5-.1-.9-.2-1.2-.4-.3-.1-.4-.2-.4-.2s.2 0 .4.1c.3.1.7.1 1.2.1.3 0 .6 0 .9.1l.9.4c.6.3 1.2.8 1.8 1.4.5.6.9 1.3 1.1 2 .2.7.2 1.4.1 1.9s-.2.9-.3 1.2c-.2.3-.3.4-.3.4"/><path clip-path="url(#b)" fill="#231F20" d="M35.6 79.4s-.1-.2-.3-.4c-.2-.3-.3-.6-.5-1-.1-.4-.1-.8-.1-1.1v-.5l.1.1c.1 0 .2.1.3.2.2.3.5.6.6 1.1.1.4.1.9 0 1.2 0 .2-.1.4-.1.4"/><path clip-path="url(#b)" fill="#231F20" d="M29.5 20.5c3.7 0 8.6 1.6 12.4 5.5 3.1 3 3.1 4.8 3.8 6.7.7 1.8 3.3 16 3 19.5 1.3-1.6 2.5-2.7 3.4-2.7h.2c2.5.4.3 11.5-1 14.2-1.2 2.5-3.1 3.3-4.5 3.3h-.3s-.9 3.4-.9 4.6l6.6 7.2 29.3 13.6-9.3 41.9h-82.1l-7.2-37.1 33.7-15.5c-.9-1.7-4.8-8.3-5.6-11-.9-2.7-1.3-6.7-1.2-9.7 0 0-.9-.1-1.3-.8-.3-5.4.3-10.3.8-13.6h-.1c-1.7 0-3.1-4.3-2.6-8.5.4-3.8 5-16.5 14.7-16.5 1.1 0 2.4.2 3.7.6.6-1.1 2.3-1.7 4.5-1.7m0-1.7c-2.2 0-4 .5-5.2 1.4-1.1-.2-2.1-.4-3.1-.4-11.1 0-16 14-16.4 18-.4 3.7.5 7.6 2.1 9.3.2.2.3.3.5.4-.6 4.5-.8 8.7-.6 12.7v.4l.2.4c.3.5.7.8 1.1 1 0 2.8.4 6.3 1.3 9 .7 2.1 2.9 6.1 4.9 9.7l-32 14.8-1.2.6.3 1.3 7.2 37.1.3 1.3h85.10000000000001l.3-1.3 9.3-41.9.3-1.4-1.3-.6-29-13.5-5.9-6.4c.1-.6.3-1.6.5-2.4 2.1-.4 3.9-1.9 5-4.2 1.1-2.3 3.4-11.8 1.7-15.1-.4-.8-1.1-1.4-2-1.5h-.4c-.5 0-1.1.1-2 .6-.8-5.5-2.5-14.5-3.1-16.1l-.3-1c-.5-1.6-1.1-3.6-3.9-6.2-4.3-4.4-9.9-6-13.7-6"/><path clip-path="url(#b)" fill="#231F20" d="M48.8 51.7v-1.8c0-.4-.1-.9-.2-1.4-.2-2.1-.7-5.2-1.4-9.2-.4-2-.8-4.2-1.4-6.5l-.1-.4-.1-.4-.3-.9c-.2-.6-.4-1.2-.7-1.8-.3-.6-.6-1.1-1-1.7l-.6-.8c-.2-.2-.5-.5-.7-.8-1.9-2-4.5-3.8-7.6-4.7-1.5-.5-3.1-.8-4.8-.8-.8 0-1.7.1-2.5.3-.8.2-1.6.6-2 1.2l-.1.2-.5-.2c-1.7-.5-3.8-.8-6-.2-2.2.5-4.3 1.9-6 3.8-1.8 1.9-3.2 4.3-4.3 6.9-.5 1.3-1 2.7-1.3 4.1-.2.8-.2 1.5-.2 2.2 0 .7 0 1.5.1 2.2.1 1 .3 2 .7 2.9.2.4.4.9.7 1.2.3.4.6.6.9.6-.3.2-.4.3-.5.4l.5-2.7.1-.5.5.2c1.6.8 3.3 1.4 5.1 1.8.9.2 1.7.3 2.5.3.4 0 .8-.1 1.2-.2.3-.1.6-.4.8-.6l.3-.4.3.3c.6.5 1.4.8 2.3.9.9.1 1.7 0 2.6-.1 1.7-.3 3.3-.9 4.9-1.4 1.6-.6 3.1-1.2 4.5-1.9l2.2-.9 1.1-.4c.4-.1.8-.2 1.2-.2h.2c.7.4 1.1 1.1 1.4 1.7.3.6.5 1.3.7 2 .4 1.3.5 2.6.7 3.8.3 2.5.3 4.7.3 6.7s-.1 3.7-.3 5.2c0 .4-.1.7-.1 1v2.5l-.1-.1c.8-.1 1.3-.2 1.6-.4.3-.1.4-.3.5-.4 0-1.2.4-2.2.7-3.2.3-.9.7-1.7 1.1-2.4.7-1.4 1.3-2.4 1.8-3.1.5-.7.8-1.2 1.1-1.5.1-.3.2-.4.2-.4s-.1.1-.3.4c-.2.3-.6.8-1 1.5-.5.8-1.1 1.8-1.8 3.2-.3.7-.7 1.5-1 2.4-.3.9-.7 1.9-.7 3.1-.2.3-.6.7-2.2.9h-.1v-.1c0-.5 0-1-.1-1.6v-1c0-.3 0-.7.1-1.1.1-1.5.2-3.2.2-5.2s-.1-4.2-.4-6.6c-.1-1.2-.3-2.5-.7-3.7-.2-.6-.4-1.3-.7-1.8-.3-.6-.7-1.1-1.2-1.4h.1c-.6 0-1.4.3-2.1.5-.7.3-1.4.6-2.2.9-1.5.6-3 1.3-4.6 1.9-1.6.6-3.2 1.2-5 1.5-.9.2-1.8.3-2.8.2-1-.1-2-.4-2.7-1.1l.6-.1c-.3.5-.7.8-1.2 1-.5.2-.9.3-1.4.3-.9 0-1.9-.1-2.7-.3-1.8-.4-3.5-1-5.2-1.8l.6-.3-.5 2.7-.1.4h-.3c-.2 0-.4 0-.5-.1l-.4-.2c-.3-.2-.5-.4-.6-.6-.4-.5-.6-.9-.8-1.4-.4-1-.6-2.1-.7-3.1-.1-.8-.1-1.5-.1-2.3 0-.8.1-1.5.2-2.3.3-1.5.8-2.9 1.4-4.3 1.1-2.7 2.6-5.2 4.5-7.2 1.8-2 4.1-3.4 6.5-4 2.3-.6 4.6-.2 6.4.3-.2.1-.3.1-.4.1.6-.9 1.6-1.3 2.4-1.5.9-.2 1.8-.3 2.7-.3 1.8 0 3.4.4 5 .9 3.1 1.1 5.8 2.9 7.7 5l.7.8c.2.3.4.6.7.8.4.6.8 1.2 1.1 1.8.3.6.5 1.2.7 1.9l.3.9.1.4.1.4c.6 2.4 1 4.6 1.3 6.6.7 4 1.1 7.1 1.3 9.2 0 .5.1 1 .1 1.4v1c-.3.7-.3 1-.3 1"/><path clip-path="url(#b)" fill="#231F20" d="M29.1 62.7s0 .3.3.6c.1.1.3.3.5.4.1 0 .2.1.4 0h.4c.3 0 .6 0 .8-.1.2-.1.4-.3.5-.4.2-.3.2-.6.2-.6s.1.3-.1.7c-.1.2-.2.5-.5.6-.3.2-.7.2-1 .2h-.5c-.1 0-.3-.1-.5-.1-.3-.1-.5-.4-.6-.6 0-.5.1-.8.1-.7"/><path clip-path="url(#b)" fill="#231F20" d="M12.7 61.8v.2c0 .1 0 .2.1.4 0 .2.1.3.2.5l.2.2h.30000000000000004c.3.1.4.1.6.1l.5-.3c.2-.2.3-.5.3-.5s0 .2-.2.6c-.1.2-.2.4-.5.5-.1.1-.3.1-.4.1-.2 0-.3 0-.4-.1l-.2-.1h-.1c-.1-.1-.3-.2-.3-.3-.1-.2-.2-.5-.2-.7 0-.2.1-.3.1-.4v-.2"/><polygon clip-path="url(#b)" fill="#fff" points="29,100.2 28.8,92.6 29.4,92.6 29.6,100.2"/><line clip-path="url(#b)" fill="#fff" x1="18.2" y1="84.4" x2="17.1" y2="91.2"/><polygon clip-path="url(#b)" fill="#231F20" points="29.8,94.6 19.8,92.1 16.8,91.4 17.9,84.3 18.5,84.4 17.4,91 19.9,91.5 28.5,93.7 27,91.4 27.4,91.1"/><rect x="29.1" y="94" transform="matrix(.971 .24 -.24 .971 23.543 -4.374)" clip-path="url(#b)" fill="#231F20" width="1.2" height=".6"/><path clip-path="url(#b)" fill="#231F20" d="M148.3 16c-2.2 0-4 .5-5.2 1.4-1.1-.2-2.1-.4-3.1-.4-11.1 0-16 14-16.4 18-.4 3.7.5 7.6 2.1 9.3.2.2.3.3.5.4-.6 4.4-.8 8.6-.6 12.6v.4l.2.4c.3.5.7.8 1.1 1 0 2.8.4 6.3 1.3 9 .7 2.1 2.9 6.1 4.9 9.7l-32 14.8-1.2.6.3 1.3 7.2 37.1.3 1.3h85.10000000000001l.3-1.3 9.3-41.8.3-1.4-1.3-.6-29-13.5-5.9-6.4c.1-.6.3-1.6.5-2.4 2.1-.4 3.9-1.9 5-4.2 1.1-2.3 3.4-11.8 1.7-15.1-.4-.8-1.1-1.4-2-1.5h-.4c-.5 0-1.1.1-2 .6-.6-5.7-2.3-14.7-2.9-16.3l-.3-1c-.5-1.6-1.1-3.6-3.9-6.2-4.6-4.2-10.1-5.8-13.9-5.8"/><path clip-path="url(#b)" stroke="#fff" stroke-width="2" d="M148.3 16c-2.2 0-4 .5-5.2 1.4-1.1-.2-2.1-.4-3.1-.4-11.1 0-16 14-16.4 18-.4 3.7.5 7.6 2.1 9.3.2.2.3.3.5.4-.6 4.4-.8 8.6-.6 12.6v.4l.2.4c.3.5.7.8 1.1 1 0 2.8.4 6.3 1.3 9 .7 2.1 2.9 6.1 4.9 9.7l-32 14.8-1.2.6.3 1.3 7.2 37.1.3 1.3h85.10000000000001l.3-1.3 9.3-41.8.3-1.4-1.3-.6-29-13.5-5.9-6.4c.1-.6.3-1.6.5-2.4 2.1-.4 3.9-1.9 5-4.2 1.1-2.3 3.4-11.8 1.7-15.1-.4-.8-1.1-1.4-2-1.5h-.4c-.5 0-1.1.1-2 .6-.6-5.7-2.3-14.7-2.9-16.3l-.3-1c-.5-1.6-1.1-3.6-3.9-6.2-4.6-4.2-10.1-5.8-13.9-5.8z" fill="none"/><polygon clip-path="url(#b)" fill="#231F20" points="164.3,67.9 171,75.1 200.3,88.7 190.7,132.4 109.4,132.4 101.5,93.4 135.2,77.9"/><path clip-path="url(#b)" fill="#fff" d="M164.2 68.5l6.4 6.9.1.1h.1l28.9 13.5-9.4 42.9h-80.4l-7.7-38.1 33.3-15.3 28.7-10zm.1-.6l-29.2 10-33.7 15.5 8 39h81.3l9.6-43.7-29.3-13.6-6.7-7.2z"/><polygon clip-path="url(#b)" fill="#fff" points="163.5,77.5 136.8,87.2 132.8,132.4 160.5,132.4"/><polygon clip-path="url(#b)" fill="#fff" points="128.6,96 128.1,96.4 130.5,79.9 131,80"/><rect x="169.7" y="75" transform="matrix(.995 .098 -.098 .995 9.098 -16.246)" clip-path="url(#b)" fill="#fff" width=".6" height="19.1"/><polygon clip-path="url(#b)" fill="#fff" points="157.5,76.9 164.2,70.9 163.5,82.1 156.7,87.9"/><polygon clip-path="url(#b)" fill="#CCC9C7" points="137.5,88.3 134.2,130.2 119.3,130.2 108.7,92.7 124,101.4"/><polygon clip-path="url(#b)" fill="#CCC9C7" points="164.3,86.8 177.2,102 190.9,92.1 178.9,130.2 162.1,130.2"/><rect x="160.2" y="80.7" transform="matrix(.647 .762 -.762 .647 121.155 -92.52)" clip-path="url(#b)" fill="#231F20" width=".6" height="7.9"/><path clip-path="url(#b)" fill="#fff" d="M136.3 88.7l-3.2 41.8h-15l-10.6-37.5 15.3 8.7 13.5-13zm.7-1.5l-1.1 1.1-13.1 12.7-15-8.5-1.3-.7.4 1.4 10.6 37.5.1.4h15.9v-.5l3.2-41.8.3-1.6z"/><rect x="163.5" y="67.8" transform="matrix(.998 .059 -.059 .998 4.821 -9.459)" clip-path="url(#b)" fill="#fff" width=".6" height="19.3"/><path clip-path="url(#b)" fill="#fff" d="M136.8 80.8l-1.1 6.8 2.7.6c1 .3 11.8 2.3 11.8 2.3l7.9-11.7-21.3 2-1.1 6.8"/><path clip-path="url(#b)" fill="#fff" d="M163.2 87.2l12.9 15.1 13.6-9.8-11.9 38.1h-16.9l2.3-43.4zm-.5-1.5l-.1 1.4-2.3 43.4v.6h17.9l.1-.4 11.9-38.1.6-1.7-1.5 1.1-13.2 9.5-12.5-14.7-.9-1.1z"/><polygon clip-path="url(#b)" fill="#231F20" points="144.8,131.6 144.2,131.5 147.4,94.9 148,95"/><polygon clip-path="url(#b)" fill="#231F20" points="163.1,88.7 157.5,90.2 157.5,94 148.8,90.8 147.7,90.5 138.4,88.2 138.4,105.3 147.7,96.4 150.8,96.8 157.5,107.6"/><path clip-path="url(#b)" fill="#fff" d="M138.4 88.2l9.3 2.3 1.1.3 8.7 3.3v-3.8l5.6-1.5-5.6 18.9-6.8-10.9-3.1-.3-9.3 8.9v-17.2zm-.6-.7v19.2l1-.9 9.1-8.7 2.5.3 6.6 10.6.7 1.1.4-1.2 5.6-18.9.3-1-1 .3-5.6 1.5-.4.1v3.4l-7.9-3-1.1-.3-9.3-2.3-.9-.2z"/><rect x="150.4" y="90" transform="matrix(1 .012 -.012 1 1.135 -1.8)" clip-path="url(#b)" fill="#fff" width=".6" height="7.6"/><path clip-path="url(#b)" fill="#CCC9C7" d="M148.7 114.9c-1 0-1.8-.8-1.8-1.9 0-1 .8-1.9 1.8-1.9s1.8.8 1.8 1.9c0 1.1-.8 1.9-1.8 1.9m0-3.2c-.7 0-1.3.6-1.3 1.3 0 .7.6 1.3 1.3 1.3.7 0 1.3-.6 1.3-1.3-.1-.7-.6-1.3-1.3-1.3"/><polyline clip-path="url(#b)" fill="#fff" points="157.5,90.2 157.5,94 148.8,90.8 157.5,78.3"/><rect x="157.2" y="78.3" clip-path="url(#b)" fill="#231F20" width=".6" height="11.9"/><polygon clip-path="url(#b)" fill="#231F20" points="157.8,94.4 148.4,90.9 157.3,78.1 157.8,78.4 149.3,90.6 157.2,93.6 157.2,90.2 157.8,90.2"/><path clip-path="url(#b)" fill="#fff" d="M129.5 40.8c-.1.7-.3 1.6-.5 2.7-.5 3.3-1.1 8.2-.8 13.6.4.6 1.3.8 1.3.8-.1 3 .3 7 1.2 9.7.9 2.7 4.7 9.3 5.6 11 .3.6 1 1.7 1.6 2.9 1.1 1.9 2.2 4.2 2.3 5 .1.9 3.7 1.6 6.7 1.8 1.8.1 3.5 0 4-.4l7.8-8.9 6.6-7.4.2-3c0-1.2.9-4.6.9-4.6 1.4.1 3.5-.6 4.8-3.3 1.3-2.7 3.5-13.8 1-14.2-.9-.2-2.2 1-3.6 2.7-2.5 3.1-5 8.1-4.9 10.6-.4.7-2.2.9-2.2.9 0-1.3-.2-2.4 0-3.4s1.2-17-2.8-19.3c-2.7-.2-14.8 7.8-19.1 4-1.2 1.8-6.1.7-10.1-1.2"/><path clip-path="url(#b)" fill="#CCC9C7" d="M152.8 58.8c.1 3.1-1.4 5.8-3.4 5.9l-2.1.2c-2 .1-3.7-2.3-3.8-5.4"/><path clip-path="url(#b)" fill="#CCC9C7" d="M136.3 59.5c-.3 2.8-1.5 5.1-3 4.6l-1.6-.5c-1.5-.4-2.7-2.7-2.3-5.9"/><path clip-path="url(#b)" fill="#231F20" d="M150.9 58.9c0 .7-.5 1.3-1.2 1.3h-.7c-.7 0-1.3-.5-1.3-1.2"/><path clip-path="url(#b)" fill="#231F20" d="M133.6 58.8c-.2.7-.7 1.1-1.2 1l-.5-.1c-.5-.1-.7-.8-.6-1.4"/><path clip-path="url(#b)" fill="#231F20" d="M162.5 59.1v-.7c0-.4.2-1.1.4-1.9.5-1.6 1.5-3.9 3.3-6.7.5-.7.9-1.4 1.5-2.1.6-.7 1.2-1.4 2.1-2l.7-.3h.4c.2 0 .3.1.4.2.3.2.4.4.5.7.1.3.2.5.2.8.2 1.1.2 2.2.1 3.4-.2 2.3-.6 4.8-1.3 7.4-.2.6-.4 1.3-.7 1.9-.1.3-.3.6-.5.9l-.6.9c-.2.3-.5.5-.8.8-.3.2-.6.5-1 .6-.7.3-1.5.5-2.3.5.1 0 .2-.1.4-.3-.2.7-.4 1.8-.6 3.1-.2 1.3-.2 2.9-.3 4.5v.1l-.1.1c-1.4 1.6-3.3 3.7-5.4 6-2.1 2.3-4.4 5-6.7 7.6-.8 1-1.7 1.9-2.3 2.7l-.5.3c-.2.1-.3.1-.5.1-.3.1-.6.1-.9.1h-1.7c-1.1 0-2.2-.1-3.2-.3-1.1-.2-2.1-.4-3.1-.7-.3-.1-.5-.2-.8-.4l-.2-.1-.1-.1-.1-.1c-.1-.1-.2-.2-.2-.3v-.2c-.1-.4-.3-.9-.5-1.3-.8-1.8-1.8-3.5-2.7-5.2-.9-1.7-1.8-3.3-2.7-4.9-.9-1.6-1.7-3.1-2.4-4.6l-1-2.3-.2-.6-.1-.6c-.1-.4-.2-.8-.3-1.1-.6-3-.7-5.7-.7-8l.2.2c-.4-.1-.7-.2-.9-.4-.2-.1-.4-.3-.5-.5-.2-5.5.4-9.5.8-12.2.2-1.4.4-2.4.5-3 .1-.7.2-1 .2-1s-.1.3-.2 1-.3 1.7-.5 3c-.3 2.7-.8 6.8-.5 12.2v-.1c.2.3.5.5 1.2.7h.2v.2c0 2.3.2 4.9.8 7.8l.3 1.1.1.6c0 .2.1.4.2.5.3.8.6 1.5 1 2.2.7 1.5 1.6 3 2.4 4.6.9 1.6 1.8 3.2 2.7 4.9.9 1.7 1.9 3.4 2.8 5.3.2.5.4.9.5 1.6 0 .1.5.4.9.6.9.3 2 .5 3 .7 1 .1 2.1.2 3.2.3h1.6c.3 0 .5 0 .8-.1.2 0 .5-.1.6-.2.7-.8 1.5-1.7 2.3-2.7 2.4-2.7 4.6-5.3 6.8-7.6 2.1-2.3 4-4.4 5.4-6 0 .1-.1.2-.1.2.1-1.6.2-3.2.4-4.5.3-1.4.5-2.5.7-3.2l.1-.3h.3c.7.1 1.3-.1 1.9-.4.3-.1.6-.3.8-.5.3-.2.5-.4.7-.7l.6-.8.5-.9c.3-.6.5-1.2.6-1.9.7-2.5 1.2-5 1.4-7.2.1-1.1.1-2.3 0-3.3-.1-.5-.2-1-.6-1.3-.1-.1-.2-.1-.3-.1h-.3c-.2 0-.4.1-.6.3-.8.5-1.5 1.2-2 1.8-.6.7-1.1 1.4-1.5 2-1.8 2.7-2.9 4.9-3.4 6.5-.3.8-.4 1.4-.5 1.9v.5c-.1.2-.1.3-.1.3"/><path clip-path="url(#b)" fill="#231F20" d="M154.8 58.6s-.1 0-.3.1c-.2.1-.5.1-.8.1-.7.1-1.7.2-3 .3-2.5.2-6.1.6-10 .8-1.6.1-3.2.1-4.6-.2-.7-.1-1.4-.3-2-.5-.6-.2-1.2-.3-1.7-.5-2.1-.7-3.6-1-4-1.3-.1.2 0-.1 0-.1-.7-.1-1-.4-1.1-.6-.1-.2-.2-.2-.2-.2l.2.2c.2.1.5.4 1.1.5l.2-.1c.8.1 1.8.5 4 1.1.5.1 1.1.3 1.8.4.6.1 1.3.3 2 .4 1.3.3 2.9.2 4.4.1 3.9-.2 7.4-.4 10-.4h3.8c.1-.1.2-.1.2-.1"/><path clip-path="url(#b)" fill="#231F20" d="M152 52.7s-.3-.1-.8-.2-1.3-.2-2.2-.1c-1.8.1-4.4.7-7.2 1-2.8.3-5.5.5-7.4.1-.2 0-.5-.1-.7-.2l-.6-.2c-.3-.2-.6-.4-.8-.5-.4-.3-.6-.5-.6-.5s.3.1.7.4c.2.1.5.3.8.4l.6.2c.2.1.4.1.6.1 1.8.2 4.4-.1 7.2-.5 2.8-.3 5.4-.7 7.3-.6 1 .1 1.7.2 2.2.4.6.1.9.2.9.2"/><path clip-path="url(#b)" fill="#231F20" d="M146.1 71s0-.1-.2-.2-.7-.2-1.4-.1l.1-.1c0 .3 0 .7-.2 1.3 0 .2-.1.3-.3.5l-.2.2-.1.1-.1.1h-.1c-.3.2-.7.4-1.1.6-.4.2-.8.4-1.3.5-.2.1-.5.1-.8.2-.3 0-.5.1-.9.1-.1 0-.3-.1-.3-.1h-.1l-.1-.1-.3-.4c-.2-.3-.3-.5-.4-.8-.3-.5-.5-1.1-.7-1.6-.3-.8-.5-1.5-.7-2.3-.2-.8-.2-1.5-.2-2.2 0-1.4.1-2.7.3-3.7.1-1 .3-1.9.4-2.5.1-.6.2-.9.2-.9s0 .3-.1.9c0 .6-.1 1.4-.1 2.5 0 1-.1 2.3 0 3.7 0 .7.1 1.4.3 2.1.2.7.4 1.4.7 2.2.2.5.4 1.1.7 1.6.1.2.2.5.4.7l.2.3c-.2.1-.1 0-.1 0h.7999999999999999l.7-.1c.5-.1.9-.2 1.3-.4.4-.1.8-.3 1.1-.5h.1l.1-.1c.1-.1.2-.1.2-.2.1-.1.2-.2.2-.3.3-.5.3-.9.4-1.2v-.1h.1c.7 0 1.2.1 1.4.2.1 0 .1.1.1.1"/><path clip-path="url(#b)" fill="#231F20" d="M167.2 56.5s.1 0 .1-.1c.1-.1.2-.2.3-.4.2-.3.5-.9.7-1.6.3-.7.5-1.5.8-2.5.1-.5.3-1 .4-1.6.1-.5.2-1.1.1-1.6.1.1.3.2.5.3-.3.1-.9.5-1.3 1.1-.9 1.1-1.5 2.3-2.1 3.4-.6 1.1-1 2.1-1.4 3-.4.9-.6 1.6-.7 2.1-.1.5-.2.8-.2.8s0-.3.1-.8.2-1.3.5-2.2c.3-.9.6-2 1.1-3.2.5-1.2 1.1-2.4 2.1-3.6.5-.6 1.2-1.2 1.8-1.4l.4-.1v.4c.1.8-.1 1.3-.2 1.9-.1.6-.3 1.1-.5 1.6-.4 1-.7 1.8-1.1 2.5-.3.7-.7 1.2-.9 1.5-.1.2-.3.3-.4.3l-.1.2"/><path clip-path="url(#b)" fill="#231F20" d="M152 66.7s0-.3.4-.6c.1-.1.2-.1.4-.2h.2c.1 0 .2 0 .3.1.2.1.2.4.2.6 0 .2-.1.4-.2.6-.2.4-.5.8-1.1.9h-1.6c-1.1-.1-2.2-.5-3.2-1.2s-1.8-1.6-2.4-2.5c-.6-.9-.9-1.7-1.2-2.5-.2-.7-.4-1.4-.4-1.8v-.7s.1 1 .8 2.3c.7 1.3 1.8 3.1 3.6 4.4.9.6 1.9 1 2.8 1.2.2.1.5.1.7.1h.6c.3 0 .6-.3.8-.6.2-.3.3-.6.2-.7l-.1-.1h-.2c-.1 0-.2 0-.3.1-.2.3-.3.6-.3.6"/><path clip-path="url(#b)" fill="#231F20" d="M132.7 65.1l-.1-.1-.3-.1h-.2c-.1 0-.2 0-.2.1-.1.1-.2.3-.2.5s.1.4.3.6c.2.2.4.2.8.3.5.1 1.1-.4 1.5-1.1.4-.7.7-1.4 1-2.1.3-.7.5-1.3.6-1.8.3-1.1.5-1.8.5-1.8s0 .7-.1 1.8c-.1.6-.2 1.2-.4 2-.2.7-.5 1.5-.9 2.3-.2.4-.5.8-1 1-.4.3-.9.4-1.4.3-.3-.1-.8-.3-1.1-.5-.3-.3-.4-.7-.4-1.1.1-.3.3-.6.5-.7.1-.1.3-.1.4-.1.1 0 .2 0 .3.1l.4.4"/><path clip-path="url(#b)" fill="#231F20" d="M152 73.8s-.9.6-2.4 1.5c-.7.4-1.7.9-2.7 1.4-1.1.4-2.3.9-3.6 1.2l-1.2.2c-.4.1-.8.1-1.2.1-.4 0-.8-.1-1.1-.1l-.2-.1h-.2l-.1-.1-.5-.3c-.5-.4-.9-.9-1.2-1.3-.3-.4-.6-.7-.8-1h.2c-.2.3-.3.6-.2.9 0 .3 0 .5.1.7 0 .4.1.5.1.5s0-.2-.1-.5c0-.2-.1-.4-.2-.7-.1-.3 0-.7.2-1.1l.1-.2.2.1c.3.2.6.5.9.9l1.2 1.1c.4.3 1 .3 1.7.3.3 0 .7 0 1-.1l1.1-.2c1.3-.3 2.4-.7 3.5-1 1-.4 2-.7 2.8-1.1 1.6-.7 2.6-1.1 2.6-1.1"/><path clip-path="url(#b)" fill="#231F20" d="M146.1 79.9s-.1 0-.3.1c-.2.1-.5.1-.8.2-.4.1-.8.1-1.3.2-.5 0-1 .1-1.6 0-.6 0-1.2-.3-1.6-.6-.4-.3-.7-.8-.8-1.1-.1-.4-.2-.7-.1-.9v-.3s0 .1.1.3c.1.2.2.4.4.7.2.3.5.5.8.7.4.2.8.3 1.3.3.5.1 1 .1 1.5.1s.9.1 1.2.1c.4.1.6.1.8.1.3.1.4.1.4.1"/><path clip-path="url(#b)" fill="#fff" d="M168.5 49.1c-2.5 3.1-5 8.1-4.9 10.6-.4.7-2.2.9-2.2.9 0-1.3-.2-2.4 0-3.4s1.2-17-2.8-19.3c-2.7-.2-14.8 7.8-19.1 4-1.1 2-6.1.9-10-1-.1.7-.3 1.6-.5 2.7-1.7.1-3.1-4.3-2.7-8.5.4-4.3 6.1-19.6 18.3-15.9 1.7-2.7 10.9-2.4 17.1 3.8 3.1 3 3.1 4.8 3.8 6.7.7 1.7 3.2 15.9 3 19.4"/><path clip-path="url(#b)" fill="#231F20" d="M152 77.5s0-.2.1-.4c0-.3.1-.7 0-1.2-.1-1-.5-2.3-1.4-3.3-.5-.5-1-1-1.5-1.4-.3-.2-.5-.4-.7-.5-.2-.1-.5-.2-.7-.2-.5-.1-.9-.2-1.2-.4-.3-.1-.4-.2-.4-.2s.2 0 .4.1c.3.1.7.1 1.2.1.3 0 .6 0 .9.1l.9.4c.6.3 1.2.8 1.8 1.4.5.6.9 1.3 1.1 2 .2.7.2 1.4.1 1.9s-.2.9-.3 1.2c-.2.3-.3.4-.3.4"/><path clip-path="url(#b)" fill="#231F20" d="M154.2 75.8s-.1-.2-.3-.4c-.2-.3-.3-.6-.5-1-.1-.4-.1-.8-.1-1.1v-.5l.1.1c.1 0 .2.1.3.2.2.3.5.6.6 1.1.1.4.1.9 0 1.2 0 .2-.1.4-.1.4"/><path clip-path="url(#b)" fill="#231F20" d="M148.1 16.9c3.7 0 8.6 1.6 12.4 5.5 3.1 3 3.1 4.8 3.8 6.7.7 1.8 3.3 16 3 19.5 1.3-1.6 2.5-2.8 3.4-2.8h.2c2.5.4.3 11.5-1 14.2-1.2 2.5-3.1 3.3-4.5 3.3h-.3s-.9 3.4-.9 4.6l6.6 7.2 29.3 13.6-9.3 41.8h-82.4l-7.2-37.1 33.7-15.5c-.9-1.7-4.8-8.3-5.6-11-.9-2.7-1.3-6.7-1.2-9.7 0 0-.9-.1-1.3-.8-.3-5.4.3-10.3.8-13.6h-.1c-1.7 0-3.1-4.3-2.6-8.5.4-3.8 5-16.5 14.7-16.5 1.1 0 2.4.2 3.7.6.8-.9 2.6-1.5 4.8-1.5m0-1.7c-2.2 0-4 .5-5.2 1.4-1.1-.2-2.1-.4-3.1-.4-11.1 0-16 14-16.4 18-.4 3.7.5 7.6 2.1 9.3.2.2.3.3.5.4-.6 4.4-.8 8.6-.6 12.6v.4l.2.4c.3.5.7.8 1.1 1 0 2.8.4 6.3 1.3 9 .7 2.1 2.9 6.1 4.9 9.7l-32 14.8-1.2.6.3 1.3 7.2 37.1.3 1.3h84.8l.3-1.3 9.3-41.8.3-1.4-1.3-.6-29-13.5-5.9-6.4c.1-.6.3-1.6.5-2.4 2.1-.4 3.9-1.9 5-4.2 1.1-2.3 3.4-11.8 1.7-15.1-.4-.8-1.1-1.4-2-1.5h-.4c-.5 0-1.1.1-2 .6-.6-5.7-2.3-14.7-2.9-16.3l-.3-1c-.5-1.6-1.1-3.6-3.9-6.2-4.3-4.3-9.8-5.8-13.6-5.8"/><path clip-path="url(#b)" fill="#231F20" d="M167.4 48.1v-1.8c0-.4-.1-.9-.2-1.4-.2-2.1-.7-5.2-1.4-9.2-.4-2-.8-4.2-1.4-6.5l-.1-.4-.1-.4-.3-.9c-.2-.6-.4-1.2-.7-1.8-.3-.6-.6-1.1-1-1.7l-.6-.8c-.2-.2-.5-.5-.7-.8-1.9-2-4.5-3.8-7.6-4.7-1.5-.5-3.1-.8-4.8-.8-.8 0-1.7.1-2.5.3-.8.2-1.6.6-2 1.2l-.1.2-.2-.1c-1.7-.5-3.8-.8-6-.2-2.2.5-4.3 1.9-6 3.8-1.8 1.9-3.2 4.3-4.3 6.9-.5 1.3-1 2.7-1.3 4.1-.2.7-.2 1.4-.2 2.2 0 .7 0 1.5.1 2.2.1 1 .3 2 .7 2.9.2.4.4.9.7 1.2.3.4.6.6.9.6-.1.1-.3.2-.4.4l.5-2.7.1-.5.5.2c1.6.8 3.3 1.4 5.1 1.8.9.2 1.7.3 2.5.3.4 0 .8-.1 1.2-.2.3-.1.6-.4.8-.6l.3-.4.3.3c.6.5 1.4.8 2.3.9.9.1 1.7 0 2.6-.1 1.7-.3 3.4-.9 4.9-1.4 1.6-.6 3.1-1.2 4.5-1.9l2.2-.9 1.1-.4c.4-.1.8-.2 1.2-.2h.2c.7.4 1.1 1.1 1.4 1.7.3.6.5 1.3.7 2 .4 1.3.5 2.6.7 3.8.3 2.5.3 4.7.3 6.7s-.1 3.7-.3 5.2c0 .4-.1.7-.1 1v2.5l-.1-.1c.8-.1 1.3-.2 1.6-.4.3-.2.4-.3.5-.4 0-1.2.4-2.2.7-3.2.3-.9.7-1.7 1.1-2.4.7-1.4 1.3-2.4 1.8-3.1.5-.7.8-1.2 1.1-1.5-.3-.4-.2-.5-.2-.5s-.1.1-.3.4c-.2.3-.6.8-1 1.5-.5.7-1.1 1.8-1.8 3.2-.3.7-.7 1.5-1 2.4-.3.9-.7 1.9-.7 3.1-.2.3-.6.7-2.2.9h-.1v-.1c0-.5 0-1-.1-1.6v-1c0-.3 0-.7.1-1.1.1-1.5.2-3.2.2-5.2s-.1-4.2-.4-6.6c-.1-1.2-.3-2.5-.7-3.7-.2-.6-.4-1.3-.7-1.8-.3-.6-.7-1.1-1.2-1.4h.1c-.6 0-1.4.3-2.1.5-.7.3-1.4.6-2.2.9-1.5.6-3 1.3-4.6 1.9-1.6.6-3.2 1.2-5 1.5-.9.2-1.8.3-2.8.2-1-.1-2-.4-2.7-1.1l.6-.1c-.3.5-.7.8-1.2 1-.5.2-.9.3-1.4.3-.9 0-1.9-.1-2.7-.3-1.8-.4-3.5-1-5.2-1.8l.6-.3-.5 2.7-.1.4h-.3c-.2 0-.4 0-.5-.1l-.4-.2c-.3-.2-.5-.4-.6-.6-.4-.5-.6-.9-.8-1.4-.4-1-.6-2.1-.7-3.1-.1-.8-.1-1.5-.1-2.3 0-.8.1-1.5.2-2.3.3-1.5.8-2.9 1.4-4.3 1.1-2.7 2.6-5.2 4.5-7.2 1.8-2 4.1-3.4 6.5-4 2.3-.6 4.6-.2 6.4.3-.2.1-.3.1-.4.1.6-.9 1.6-1.3 2.4-1.5.9-.2 1.8-.3 2.7-.3 1.8 0 3.4.4 5 .9 3.1 1 5.8 2.9 7.7 5l.7.8c.2.3.4.6.7.8.4.6.8 1.2 1.1 1.8.3.6.5 1.2.7 1.9l.3.9.1.4.1.4c.6 2.4 1 4.6 1.3 6.6.7 4 1.1 7.1 1.3 9.2 0 .5.1 1 .1 1.4v1c-.3.7-.3 1-.3 1"/><path clip-path="url(#b)" fill="#231F20" d="M147.7 59s0 .3.3.6c.1.1.3.3.5.4.1 0 .2.1.4 0h.4c.3 0 .6 0 .8-.1.2-.1.4-.3.5-.4.2-.3.2-.6.2-.6s.1.3-.1.7c-.1.2-.2.5-.5.6-.3.2-.7.2-1 .2h-.5c-.1 0-.3-.1-.5-.1-.3-.1-.5-.4-.6-.6 0-.4.1-.7.1-.7"/><path clip-path="url(#b)" fill="#231F20" d="M131.3 58.2v.2c0 .1 0 .2.1.4 0 .2.1.3.2.5l.2.2h.30000000000000004c.3.1.4.1.6.1l.5-.3c.2-.2.3-.5.3-.5s0 .2-.2.6c-.1.2-.2.4-.5.5-.1.1-.3.1-.4.1-.2 0-.3 0-.4-.1l-.2-.1h-.1c-.1-.1-.3-.2-.3-.3-.1-.2-.2-.5-.2-.7 0-.2.1-.3.1-.4v-.2"/><polygon clip-path="url(#b)" fill="#fff" points="147.6,96.6 147.4,89 148,89 148.2,96.6"/><line clip-path="url(#b)" fill="#fff" x1="136.8" y1="80.8" x2="135.7" y2="87.6"/><polygon clip-path="url(#b)" fill="#231F20" points="148.3,90.9 138.3,88.5 135.3,87.8 136.5,80.7 137.1,80.8 136,87.4 138.5,87.9 147,90 145.5,87.7 146,87.4"/><rect x="147.7" y="90.3" transform="matrix(.971 .24 -.24 .971 26.15 -32.998)" clip-path="url(#b)" fill="#231F20" width="1.2" height=".6"/><path clip-path="url(#b)" fill="#fff" d="M73.6 79.7l.1-3.1c-.2-3.8-.5-10.1-.5-10.1-.7.3-3.8-.8-4.2-2.6-.5-1.9-1-10.9-.1-12.9l-.1-.2c-.6-2.3-1.5-17.5 3.5-22.1 5.2-4.8 7.6-5.2 18.1-4.3h2.6c10.6-.9 12.9-.5 18.1 4.3 5.1 4.7 2.9 20.7 2.2 22.3l.1.8c.5 1.8 0 10.9-.6 12.1-.6 1.2-1.6 3-3.8 2.7.2 1.4-1.2 10.3-1.2 10.3l-.7.9v6.199999999999999l-18.5 19.8-15-19.7v-4.4z"/><path clip-path="url(#b)" fill="#231F20" d="M113.4 50.9c.6-1.6 2.9-17.6-2.2-22.3-5.2-4.8-7.6-5.2-18.1-4.3h-2.5c-10.6-.9-12.9-.5-18.1 4.3-5 4.6-4.1 19.8-3.5 22.1v.3c.4-.8 1.4-2.2 3.4-1.8 0 .8.7 6.4.4 8.6h1.8s-.2-4.1-.2-7.1l1.9-3.8s-1.4-4.4-1.9-6.3c-.5-1.9.5-3.8.5-3.8s2-3.9 7.7-4.4c3.4-.1 6.4 2.2 9.3 1.9h.1c2.9.2 5.9-2 9.3-1.9 5.7.5 7.7 4.4 7.7 4.4s1.1 1.9.5 3.8c-.5 1.9-1.9 6.3-1.9 6.3l-.1.3 1.9 4-.1 6.7h1.3s.8-7.5.8-8.3c-.2-.9 1.7-.2 2 1.3"/><path clip-path="url(#b)" d="M98.6 23.9c5.2 0 7.5 1.2 11.4 4.7 5.1 4.7 2.9 20.7 2.2 22.3l.1.8c.5 1.8 0 10.9-.6 12.1-.6 1.1-1.5 2.7-3.3 2.7h-.5c.2 1.4-1.2 10.3-1.2 10.3l-.7.9v2.9h1.6l4.9 5.7c9.4 3.4 29.4 14 29.4 14l8.5 26.5h-125.80000000000001l13.2-29.6 32.7-15.7 1.9-2 .1-3.1c-.2-3.8-.5-10.1-.5-10.1l-.3.1c-1 0-3.5-1-3.9-2.7-.5-1.7-1-10.7-.1-12.7l-.1-.2c-.6-2.3-1.5-17.5 3.5-22.1 3.8-3.5 6.1-4.7 11.3-4.7 1.8 0 4 .1 6.8.4h2.5c2.8-.4 5-.5 6.9-.5m0-1c-1.7 0-3.7.1-6.8.4h-2.4c-3.1-.3-5.2-.4-6.8-.4-5.7 0-8.2 1.5-12 5-5.3 4.9-4.5 20.3-3.8 23.1-.9 2.8-.3 11.5.1 13.2.5 1.9 2.8 3.1 4.2 3.4.1 1.9.4 6.2.5 9.1l-.1 2.7-1.5 1.6-32.6 15.5-.2.1-.1.1-13.2 29.6-1.5 1.7h130.00000000000003l-1.1-1.6-8.5-26.5-.1-.2-.2-.1c-.8-.4-19.8-10.6-29.3-14l-4.8-5.5-.3-.3h-1.1v-1.6l.5-.7.1-.2v-.2c.2-1.3 1-6.9 1.2-9.5 2.2-.3 3.2-2.3 3.7-3.2.8-1.6 1.2-10.7.7-12.7l-.1-.6c.7-2.7 2.8-18.1-2.6-23.1-3.7-3.6-6.2-5.1-11.9-5.1"/><polygon clip-path="url(#b)" fill="#231F20" points="24.6,126.9 37.8,97.3 72.6,80.7 69.9,126.9"/><path clip-path="url(#b)" fill="#fff" d="M72.6 80.7l-2.7 46.2h-45.3l13.3-29.6 34.7-16.6zm.3-.4l-.4.2-34.8 16.6-13.3 29.6-.4.4h46.1v-.2l2.7-46.2.1-.4z"/><path clip-path="url(#b)" fill="#231F20" d="M109.2 85.4l-7 41.5h48.4l-8.5-26.5c-.1 0-26.6-14.2-32.9-15"/><path clip-path="url(#b)" fill="#fff" d="M109.2 85.4c6.4.8 32.9 15 32.9 15l8.5 26.5h-48.4l7-41.5m-.2-.2v.2l-7 41.5-.1.3h49.199999999999996l-.3-.4-8.5-26.5c-1.1-.6-26.6-14.2-33-15l-.3-.1z"/><polygon clip-path="url(#b)" fill="#fff" points="66,126.9 71.2,91.2 71.7,87.9 72.4,83 80.1,92.9 87.4,102.1 95.6,93.7 106.1,83 106.1,88.9 106.1,91.8 103.8,126.9"/><polygon clip-path="url(#b)" fill="#231F20" points="69.9,126.9 72.6,79.5 50,103.8 57.8,126.9"/><path clip-path="url(#b)" fill="#fff" d="M72.6 79.5l-2.7 47.5h-12.1l-7.8-23.2 22.6-24.3zm.3-.7l-.5.5-22.6 24.4-.1.1v.1l7.8 23.1.1.2h12.499999999999998v-.2l2.7-47.5.1-.7z"/><polygon clip-path="url(#b)" fill="#231F20" points="106.1,80.7 106.1,91.8 102.2,126.9 111.8,126.9 126.2,102.1 107.7,80.7"/><path clip-path="url(#b)" fill="#fff" d="M107.7 80.7l18.5 21.4-14.4 24.9h-9.7l3.9-35.2v-11.1h1.7zm.1-.2h-1.9000000000000001v11.299999999999999l-3.9 35.1v.3h10.1l.1-.1 14.4-24.9.1-.2-.1-.1-18.8-21.4z"/><polygon clip-path="url(#b)" fill="#231F20" points="106.1,91.8 106.1,88.9 91.5,103.2 95.4,103.2"/><path clip-path="url(#b)" fill="#231F20" d="M71.2 91.2l.5-3.3c.9 1.2 12.2 15.9 12.2 15.9h-4.1l-8.6-12.6z"/><path clip-path="url(#b)" fill="#231F20" d="M84.7 103.2s-9.7-4.7-12.1-4.8c-1.2 1.6-1.4 14.4 2.1 18.5 1-.2 10.1-7.2 10.1-7.2 1.6 1 4.5.6 5.3 0 0 0 4.1 7 9.9 8.4 1.4-1.4 3.9-16.4 3.7-17.9-.2-1.4-10.7 1.9-13.2 3.6 0 0-.5-2.5-5.8-.6"/><path clip-path="url(#b)" fill="#231F20" d="M90 109.7c-.8.6-3.7 1-5.3 0v-6.5c5.3-2 5.8.6 5.8.6l-.5 5.9z"/><polygon clip-path="url(#b)" fill="#fff" points="87.4,102.1 80.1,92.9 77.5,108.2"/><path clip-path="url(#b)" fill="#231F20" d="M87.4 102.1s-3.7 2.5-9.7 6.4l-.5.4.1-.7c.3-1.9.7-4.7 1.2-7.8.5-3 1-5.8 1.4-7.6l.1-.7.4.5c4.4 5.8 7 9.5 7 9.5s-2.9-3.4-7.5-9c.1 0 .3-.1.5-.1-.3 1.8-.7 4.7-1.2 7.7s-1 5.9-1.4 7.7c-.2-.1-.4-.2-.4-.3 6.1-3.8 10-6 10-6"/><polygon clip-path="url(#b)" fill="#fff" points="95.6,93.7 87.4,102.1 96.6,108.2"/><path clip-path="url(#b)" fill="#231F20" d="M95.6 93.7s.7 5.9 1.3 14.6l.1.7-.6-.4c-.8-.5-2.1-1.4-3.4-2.3-2.3-1.5-4.4-3-5.7-3.9l-.3-.2.3-.3c5-5.1 8.3-8.2 8.3-8.2s-3 3.4-8 8.6v-.5c1.4.9 3.6 2.3 5.8 3.8 1.3.9 2.6 1.8 3.4 2.3-.2.1-.4.3-.5.3-.6-8.6-.7-14.5-.7-14.5"/><path clip-path="url(#b)" fill="#231F20" d="M72.5 76.6s.2 1.1.3 2.9c0 1 0 2.5-.1 4-.2 3.8-.8 6.9-.8 6.9s-.2-3.1 0-6.9c.1-1.6.2-3 .4-4 .1-1.8.2-2.9.2-2.9"/><path clip-path="url(#b)" fill="#231F20" d="M106.1 91.8s-.4-3.1-.4-7 .4-7 .4-7 .4 3.1.4 7-.4 7-.4 7"/><path clip-path="url(#b)" fill="#231F20" d="M108.5 59.7s-.2 2.1-.5 6.8c0 2.2-.5 5.9-1 10.4v.1c-.1.1-.4.5-.7.9-2.7 3.2-6.9 8.1-11.6 13.5l-.1.1h-8.6l-.1-.1c-1.3-1.5-2.5-3-3.7-4.4l-1.8-2.1-.9-1-.9-.9c-2.4-2.4-4.6-4.4-6.3-6.3v-.2c-.2-5.3-.4-9.5-.5-12.4 0-1.4 0-2.6.1-3.3 0-.4.1-.7.1-.8v0c0 .2-.1.5-.1.9-.1.7 0 1.9.1 3.3.2 2.9.5 7.1.8 12.4v-.1c1.7 1.8 4 3.8 6.4 6.2l.9.9.9 1 1.8 2.1c1.2 1.4 2.5 2.9 3.8 4.4l-.3-.1h8.3c-.1.1-.2.1-.3.1 4.7-5.4 9-10.2 11.8-13.3.3-.4.6-.8.7-.9v.1c.7-4.5 1.2-8.1 1.3-10.3.2-4.8.4-7 .4-7"/><path clip-path="url(#b)" fill="#231F20" d="M88.2 67.5s-.2-4-.3-9.9c0 0 .1.2.1.3-.6-.5-1.7-1.3-2.7-2.1-1.5-1.1-2.8-2.2-4.1-3.1-.6-.5-1.2-.9-1.8-1.3-.3-.2-.6-.4-.8-.5l-.2-.1h-.2s-.2.1-.3.2c-.9.8-1.5 1.6-1.9 2.1-.4.5-.7.8-.7.8l.6-.9c.4-.6.9-1.4 1.8-2.3.1-.1.2-.2.5-.3h.30000000000000004c.1 0 .2 0 .2.1.4.1.7.3 1 .5l1.9 1.2c1.3.9 2.8 1.9 4.2 3 1.1.8 2.1 1.6 2.7 2.1l.1.1v.2c-.2 6-.4 9.9-.4 9.9"/><path clip-path="url(#b)" fill="#fff" d="M94.1 80.7c1.7-1.6 1.7-5.8 1.7-7h-10.5c-.2 1.7 0 4.7 1.6 7h7.2z"/><path clip-path="url(#b)" fill="#231F20" d="M88.2 70.4s.1.1.4.2l.4.2c.2.1.4.1.6.1.5.1 1.1.1 1.7-.1.6-.2 1.3-.7 1.6-1.4v.1c-.1-2.7-.2-6.6-.2-10.8v-1.1l.2-.1c4.4-2.6 8.2-4.7 10.2-5.8l.1-.1.1.1c1.6 2.2 2.3 3.2 2.3 3.2s-.8-.9-2.6-3h.2c-1.9 1.2-5.6 3.6-10 6.2l.2-.3v.9c0 4.2-.1 8.1-.2 10.8-.4.9-1.2 1.3-1.9 1.6-.7.2-1.3.2-1.8 0-.2-.1-.5-.1-.6-.2-.2-.1-.3-.2-.4-.2l-.3-.3"/><path clip-path="url(#b)" fill="#231F20" d="M87.3 70l-.1.1c-.1.1-.2.2-.4.3-.2.1-.5.2-.8.2-.4 0-.7-.4-.8-.8-.2-.8 0-1.3.2-1.7l.3-.6s-.1 1.1.2 2.1c.1.2.2.3.3.4.2.1.4.1.6.1.2 0 .4 0 .5-.1"/><path clip-path="url(#b)" fill="#231F20" d="M87 80.7l-6.2-7h4.5c-.2 1.8 0 4.7 1.7 7"/><path clip-path="url(#b)" fill="#231F20" d="M95.8 73.7h3.9l-5.6 7c1.7-1.6 1.7-5.8 1.7-7"/><path clip-path="url(#b)" fill="#231F20" d="M93.1 69.4s.1 0 .2.1.3.2.6.2c.2.1.5.1.7.1.1 0 .2-.3.1-.7 0-.7-.2-1.4-.4-1.8-.1-.2-.2-.4-.2-.6-.1-.1-.1-.2-.1-.2s.1.1.2.1c.1.1.3.2.5.4.4.4.8 1.1.8 2 0 .2 0 .5-.1.7-.1.2-.3.5-.6.6-.1.1-.3 0-.4 0-.1 0-.2 0-.3-.1-.2-.1-.3-.2-.4-.3-.2-.2-.4-.3-.5-.5 0 .1-.1 0-.1 0"/><path clip-path="url(#b)" fill="#231F20" d="M80.8 73.7s2.2 2.4 6.3 6.8c0 0-.1 0-.2-.1 1.5 0 4.2-.1 7.1-.1 0 0-.2.1-.3.1.8-1 2.2-2.7 3.5-4.5l2-2.5c.1.3.2.4.3.6-10.7 0-18.7-.3-18.7-.3s8-.3 18.9-.4h.7l-.5.6c-.5.6-1.2 1.5-2 2.5-1.4 1.7-2.8 3.4-3.6 4.4v.2h-.2c-2.9 0-5.6-.1-7.1-.1h-.1l-.1-.1c-3.9-4.6-6-7.1-6-7.1"/><path clip-path="url(#b)" fill="#231F20" d="M101.8 75.5s0-.3-.1-.7c-.1-.4-.2-.9-.4-1.5-.1-.6-.2-1.2-.3-1.5-.1-.4-.2-.7-.2-.7s.3.1.5.5c.3.4.6.9.7 1.6.1.7.1 1.3 0 1.7l-.2.6"/><path clip-path="url(#b)" fill="#231F20" d="M78.5 77.2s-.3-.3-.6-.7c-.2-.3-.3-.6-.5-1-.1-.4-.2-.8-.2-1.3 0-1 .3-1.8.7-2.3.2-.3.3-.5.5-.6l.2-.2s0 .1-.1.2c-.1.2-.2.4-.2.7-.1.5-.3 1.3-.3 2.2 0 .4 0 .8.1 1.2l.2 1 .2.8"/><path clip-path="url(#b)" fill="#231F20" d="M101.8 58.5c-.4-.2-3.8 0-4.4 0-.1 1.3.3 2.9 2.2 2.9 1.9 0 2.2-2 2.2-2.9"/><path clip-path="url(#b)" fill="#231F20" d="M80.4 58.5c.4-.2 3.8 0 4.4 0 .1 1.3-.3 2.9-2.2 2.9-1.8 0-2.2-2-2.2-2.9"/><path clip-path="url(#b)" fill="#231F20" d="M103.3 60.8v-.5c0-.1 0-.3-.1-.5-.1-.1-.3-.3-.5-.4-.4-.3-.9-.7-1.5-1.1-.2-.1-.5-.1-.9-.1h-3.6c-.6.3-1.1.7-1.5 1v-.1c-.1 1.1-.2 1.6-.2 1.6s-.1-.6-.2-1.6v-.1h.2c.4-.4.8-.9 1.5-1.3.1-.1.2-.1.4-.1h.8999999999999999c.4 0 .8 0 1.3-.1h1.7999999999999998c.2 0 .5.1.7.2.6.4 1 1 1.4 1.4l.5.6v.6c-.1.3-.2.5-.2.5"/><path clip-path="url(#b)" fill="#231F20" d="M101.3 57.9v.5c0 .3 0 .8-.3 1.4-.1.1-.2.3-.2.4-.1.1-.2.3-.4.4-.3.2-.8.4-1.1.5h-.6c-.2 0-.4-.1-.7-.2-.5-.2-.9-.5-1.1-1-.4-.8-.4-1.6-.3-2.1v-.3h.3c2.6 0 4.4.3 4.4.4 0-.1-1.7.1-4.4.3l.3-.3c0 .4 0 1.1.3 1.7.3.7 1.1.9 1.7.9.4 0 .6-.1.9-.3l.3-.3.3-.3c.3-.5.4-.9.5-1.2.1-.3.1-.5.1-.5"/><path clip-path="url(#b)" fill="#231F20" d="M77.9 60.8s0-.2-.1-.5v-.6c.1-.2.3-.4.5-.6.4-.4.8-.9 1.4-1.4.2-.2.5-.2.7-.2h1.7999999999999998c.4 0 .9 0 1.3.1h.8999999999999999l.4.1c.7.4 1.1.9 1.5 1.3l.1.1v.1c-.1 1.1-.2 1.6-.2 1.6s-.1-.6-.2-1.6v.1c-.4-.3-.9-.7-1.5-1h-3.6000000000000005c-.4 0-.8 0-.9.1-.6.4-1 .8-1.5 1.1-.2.2-.4.3-.5.4-.1.2-.1.4-.1.5v.4"/><path clip-path="url(#b)" fill="#231F20" d="M79.9 57.9s0 .2.1.5.2.7.5 1.2l.3.3.3.3c.2.1.5.2.9.3.6 0 1.4-.2 1.7-.9.3-.6.3-1.2.3-1.7.2.1.2.2.3.3-2.7-.2-4.4-.4-4.4-.3 0-.1 1.8-.3 4.4-.3h.3v.3c0 .5.1 1.3-.3 2.1-.2.4-.6.8-1.1 1-.2.1-.4.2-.7.2h-.6c-.3 0-.8-.2-1.1-.5l-.4-.4c-.1-.1-.2-.3-.2-.4-.2-.6-.3-1-.3-1.4v-.6"/><path clip-path="url(#b)" fill="#231F20" d="M109.9 28.6l.2.2c.2.2.4.4.7.8.5.8 1.2 2 1.7 3.9.5 1.8.8 4.2.8 7.2 0 1.5 0 3.1-.2 4.8l-.3 2.7c-.1.9-.2 1.9-.6 2.9l-.2.6v-.7c-.1-.4-.4-1-1-1.4-.2-.1-.3-.2-.5-.2s-.3 0-.3.1c0 .4-.1.9-.1 1.4-.2 2-.4 4.4-.7 6.9v.2h-1.7v-.2c0-1.1 0-3.8.1-6.7v.1c-.3-.7-1.1-2.3-1.9-4l-.1-.1.1-.1s.1-.2.1-.3c.5-1.7 1.1-3.6 1.7-5.6.8-2 0-4.4-1.8-6-.9-.8-2-1.4-3.2-1.9-.6-.2-1.2-.4-1.9-.4-.7-.1-1.3-.1-1.9 0-1.3.2-2.6.6-4 1-1.3.4-2.8.9-4.3.8h-.8c-1.4-.1-2.6-.6-3.8-1-1.2-.4-2.4-.8-3.6-.9h-.9l-.9.1c-.6.1-1.2.2-1.8.4-1.1.4-2.2.9-3.1 1.7-.9.7-1.7 1.6-2 2.6-.4 1-.5 2.1-.2 3.1.6 2.1 1.3 4.2 1.9 6.1v.1l-.2.2c-.7 1.5-1.3 2.7-1.9 3.8v-.1c.1 2.8.1 5 .2 7.1v.3h-2.4v-.3c.2-1.7 0-3.2 0-4.6-.1-1.4-.2-2.7-.3-3.9.1.1.1.2.2.2-.8-.2-1.5-.1-2.1.3-.5.3-.9.8-1.1 1.3l-.2.4v-.5c-.3-1-.3-1.8-.4-2.7-.1-.9-.1-1.7-.1-2.5 0-1.6 0-3.2.1-4.6.2-2.9.6-5.3 1.1-7.2.5-1.9 1.2-3.4 1.9-4.2.3-.4.6-.7.8-.9l.3-.3-.3.3c-.2.2-.4.5-.7.9-.6.9-1.3 2.3-1.8 4.2-.5 1.9-.9 4.4-1 7.2-.1 1.4-.1 2.9 0 4.6 0 .8.1 1.6.2 2.5.1.8.1 1.8.4 2.5h-.3c.3-.6.6-1.1 1.2-1.5.6-.4 1.5-.6 2.4-.4h.2v.2c.1 1.2.2 2.5.3 3.9.1 1.4.3 2.9.1 4.8-.1-.1-.1-.2-.3-.3h1.8l-.3.3c-.1-2.1-.2-4.3-.3-7.1v-.2c.6-1.1 1.1-2.3 1.8-3.8v.2c-.6-1.9-1.3-4-1.9-6.1-.4-1.2-.2-2.4.2-3.6.4-1.2 1.3-2.1 2.2-2.9 1-.8 2.1-1.4 3.3-1.8.6-.2 1.2-.3 1.9-.4.3 0 .6-.1 1-.1h1c2.6.2 5 1.6 7.4 1.9h.8c1.3.1 2.7-.4 4-.8 1.3-.4 2.7-.9 4.1-1.1.7-.1 1.4-.1 2.1 0 .7.1 1.4.3 2 .5 1.3.4 2.5 1.1 3.4 2 2 1.7 2.9 4.6 2 6.7-.6 2.1-1.2 4-1.8 5.6-.1.1-.1.2-.1.3v-.1c.8 1.7 1.6 3.3 1.9 4v.2c-.1 2.8-.1 5.6-.2 6.7l-.2-.2h1.3l-.2.2c.3-2.5.5-4.9.7-6.9 0-.5.1-1 .1-1.4 0-.2.2-.4.3-.4h.4c.2 0 .4.1.6.3.7.4 1.1 1.1 1.1 1.7h-.3c.3-.9.4-1.9.6-2.8l.3-2.7c.2-1.7.2-3.3.2-4.8 0-2.9-.3-5.3-.7-7.2-.4-1.8-1.1-3.1-1.6-3.9-.3-.4-.5-.6-.6-.8 0-.3-.1-.4-.1-.4"/><path clip-path="url(#b)" fill="#231F20" d="M107.9 66.5h.7c.4-.1 1.1-.3 1.6-.8.1-.1.3-.3.4-.5.1-.2.2-.4.4-.6.2-.4.5-.9.6-1.3.2-1 .3-2.2.4-3.4.2-2.5.3-4.7.3-6.3v-2.5999999999999996s.1.2.2.7c.1.4.2 1.1.3 1.9.2 1.6.2 3.9 0 6.4-.1 1.2-.2 2.4-.5 3.5-.1.6-.5 1-.7 1.4l-.4.6-.5.5c-.7.6-1.4.7-1.8.7-.8-.2-1-.2-1-.2"/><path clip-path="url(#b)" fill="#231F20" d="M67.7 50.9v.2c0 .1-.1.3-.1.5-.1.5-.1 1.1-.1 1.9 0 1.6.1 3.9.2 6.4.1 1.2.1 2.5.3 3.5.1 1 .9 1.7 1.5 2.1 1.4.9 2.5.9 2.4.8 0 .1-1.1.3-2.6-.5-.4-.2-.8-.5-1.1-.8-.4-.3-.7-.9-.8-1.5-.2-1.1-.3-2.3-.4-3.6-.1-2.5-.1-4.9.1-6.5.1-.8.2-1.5.4-1.9.1-.2.1-.4.2-.5v-.1"/><path clip-path="url(#b)" fill="#231F20" d="M106.1 83s-2.1 2.7-5 5.6c-2.9 3-5.5 5.1-5.5 5.1s2.1-2.7 5-5.6c2.9-3 5.5-5.1 5.5-5.1"/><path clip-path="url(#b)" fill="#231F20" d="M80.1 92.9s-2-2-4.2-4.7c-2.1-2.7-3.6-5.2-3.6-5.2s2 2 4.2 4.7 3.6 5.2 3.6 5.2"/><rect x="90.1" y="103.8" transform="matrix(.998 .071 -.071 .998 7.783 -6.122)" clip-path="url(#b)" fill="#fff" width=".2" height="5.9"/><rect x="84.6" y="103.2" clip-path="url(#b)" fill="#fff" width=".2" height="6.5"/><path clip-path="url(#b)" fill="#231F20" d="M88.2 57.7s-.8-.4-2.2-1.2c-1.3-.8-3.1-1.9-4.9-3.2-.9-.6-1.8-1.3-2.6-1.8l-.2-.1-.2-.1h0c-.1 0-.2.1-.2.2l-.9.8c-1.1 1-1.8 1.7-1.8 1.7s.4-.9 1.2-2.2c.2-.3.4-.7.7-1.1l.3-.3.2-.2.1-.1.3-.1h.5c.1 0 .3.1.5.2 1.1.5 1.9 1 2.9 1.7 1.9 1.3 3.5 2.8 4.5 3.8 1.2 1.3 1.8 2 1.8 2"/><path clip-path="url(#b)" fill="#231F20" d="M93.1 57.7s2.6-2.4 6.4-4.6c1.3-.8 2.6-1.4 3.5-1.8l.5-.2.2.3c1.4 2.1 2 3.4 2 3.4s-1.2-1-2.9-2.8c.2 0 .4.1.7.1-.8.6-1.9 1.4-3.2 2.2-3.8 2.2-7.2 3.4-7.2 3.4"/></svg>