<svg xmlns="http://www.w3.org/2000/svg" xmlns:xlink="http://www.w3.org/1999/xlink" viewBox="0 0 178.5 131.1" enable-background="new 0 0 178.5 131.1"><defs><rect id="a" x="2.4" y="2.2" width="176.1" height="128.7"/></defs><clipPath id="b"><use xlink:href="#a" overflow="visible"/></clipPath><path clip-path="url(#b)" fill="#D8505C" d="M184.4 131.7h-194.5v-1.7l1.9-.2c3.5-.2 6.5-.2 7.1 0 .6-.4 3.7-.9 7.1-1.3 3.5-.2 6.3 0 7.1.4.6-.7 3.5-1.5 6.9-1.7 3.5-.2 6.5 0 7.1.9.9-.9 3.7-1.9 7.1-2.2 3.5-.4 6.5.2 7.1 1.3.6-1.3 3.7-2.4 7.1-2.6 3.5-.4 6.3.4 7.1 1.7.6-1.5 3.5-2.8 7.1-3 3.5-.4 6.3.6 6.9 2.2.9-1.7 3.7-3.2 7.1-3.5 3.5-.4 6.5.7 7.1 2.4.6-1.7 3.7-3.5 7.1-3.7 3.5-.4 6.3.9 7.1 2.8.6-2.2 3.7-3.9 7.1-4.1 3.5-.4 6.3 1.1 6.9 3.2.9-2.4 3.7-4.3 7.1-4.5 3.5-.4 6.5 1.1 7.1 3.7.6-2.6 3.7-4.8 7.1-5 3.5-.4 6.5 1.3 7.1 4.1.6-2.8 3.7-5.2 7.1-5.6 3.5-.2 6.3 1.7 7.1 4.8.6-3.2 3.5-5.6 6.9-6 3.5-.2 6.5 1.9 7.1 5 .7-3.2 3.7-5.8 7.1-6.3 3.5-.2 6.5 2.2 7.1 5.4.2-.9.4-1.7.9-2.6v8.4c-.4-.9-.6-1.7-.9-2.6-.2 1.1-.7 2.2-1.3 3 .6-.2 1.1-.2 1.7-.2h.4v7.5z"/><path clip-path="url(#b)" fill="#D8505C" d="M-10.2 16.3c.4-.6.6-1.3.6-1.9.9 3.5 3.7 5.6 7.1 5.4 3.5-.2 6.5-3 7.1-6.3.6 3.2 3.7 5.2 7.1 5 3.5-.4 6.3-2.8 7.1-5.8.6 2.8 3.7 4.8 7.1 4.5 3.5-.4 6.3-2.6 6.9-5.4.9 2.6 3.7 4.3 7.1 4.1 3.5-.4 6.5-2.6 7.1-5 .6 2.4 3.7 3.9 7.1 3.7 3.5-.4 6.3-2.4 7.1-4.8.6 2.4 3.7 3.7 7.1 3.5 3.5-.4 6.3-2.2 6.9-4.3.9 1.9 3.7 3.2 7.1 3 3.5-.4 6.5-1.9 7.1-3.9.7 1.7 3.7 2.8 7.1 2.6 3.5-.4 6.5-1.9 7.1-3.5.6 1.5 3.7 2.4 7.1 2.2 3.5-.4 6.3-1.7 7.1-3 .6 1.3 3.5 1.9 6.9 1.5 3.5-.2 6.5-1.3 7.1-2.6.9 1.1 3.7 1.7 7.1 1.3 3.5-.2 6.5-1.1 7.1-2.2.6.9 3.7 1.3 7.1.9 3.5-.2 6.3-1.1 7.1-1.7.7.6 3.5.9 6.9.4 3.7-.2 6.5-.9 7.1-1.3.9.4 3.7.4 7.1 0 .9 0 1.5 0 2.2-.2v-.5h-8c-.6 0-1.1.2-1.3.2-.2 0-.4-.2-1.1-.2h-183.3v6.5h.4l1.5-.2c-.6.9-1.1 1.7-1.3 2.8 0-.6-.2-1.3-.6-1.7v6.9z"/><path clip-path="url(#b)" fill="#D8505C" d="M184.4 3.5v.6l-1.3.4c-3 .6-5.6.9-5.6.4 0-.2 2.6-.9 5.6-1.5h1.3z"/><path clip-path="url(#b)" fill="#D8505C" d="M184.4 76.4v8.6c-.4.4-1.3.9-1.9 1.1-2.6.4-4.8-1.1-4.8-3.7s2.2-5.4 4.8-6.1c.6-.1 1.5-.1 1.9.1"/><path clip-path="url(#b)" fill="#D8505C" d="M184.4 100.1h-1.3c-3.5.4-6.3 3.9-6.3 7.6 0 3.5 2.8 6.3 6.3 5.8.4 0 .9 0 1.3-.2v-13.2z"/><path clip-path="url(#b)" fill="#D8505C" d="M11.5 3.7c.2.4.4.6.6.9h-.2c-.4 0-.9 0-1.1.2.2-.4.4-.6.7-1.1"/><path clip-path="url(#b)" fill="#D8505C" d="M6.1 7.6c-.7.9-1.1 1.8-1.3 2.8-.3-.8-.7-1.7-1.1-2.5h.6c.7 0 1.1 0 1.8-.3"/><path clip-path="url(#b)" fill="#D8505C" d="M25.7 3.5c.2.2.4.6.6.9h-1.5c.5-.2.7-.4.9-.9"/><path clip-path="url(#b)" fill="#D8505C" d="M20.1 7.2c-.4.9-.9 1.7-1.1 2.6-.2-.9-.6-1.7-1.3-2.4h.9c.4 0 1.1 0 1.5-.2"/><path clip-path="url(#b)" fill="#D8505C" d="M40 3.3c0 .2.2.6.6.9h-1.5c.3-.2.7-.5.9-.9"/><path clip-path="url(#b)" fill="#D8505C" d="M34.4 6.8c-.6.6-1.1 1.5-1.3 2.4-.2-.9-.5-1.6-1.1-2.2h.9c.4 0 1-.2 1.5-.2"/><path clip-path="url(#b)" fill="#D8505C" d="M54 3.1c.2.2.4.6.6.9h-1.3c.3-.3.5-.5.7-.9"/><path clip-path="url(#b)" fill="#D8505C" d="M48.6 6.3c-.6.7-1 1.3-1.3 2.2-.2-.9-.6-1.5-1.1-2.2.2.2.4.2.6.2.8-.2 1.2-.2 1.8-.2"/><path clip-path="url(#b)" fill="#D8505C" d="M68.3 2.9c.2.2.4.4.6.7h-.2c-.4 0-.9 0-1.1.2.3-.3.5-.7.7-.9"/><path clip-path="url(#b)" fill="#D8505C" d="M62.7 5.7c-.4.6-.9 1.3-1.1 1.9-.2-.6-.6-1-1.1-1.7h.6c.7 0 1.2 0 1.6-.2"/><path clip-path="url(#b)" fill="#D8505C" d="M82.6 2.7c0 .2.2.4.6.6h-1.5l.9-.6"/><path clip-path="url(#b)" fill="#D8505C" d="M77 5.3c-.6.6-1.1 1.1-1.3 1.7 0-.4-.4-1.1-1.1-1.5h.9c.4 0 1 0 1.5-.2"/><path clip-path="url(#b)" fill="#D8505C" d="M96.6 2.4c.2.2.4.4.6.7h-1.2c.2-.2.4-.4.6-.7"/><path clip-path="url(#b)" fill="#D8505C" d="M91.2 4.8c-.6.4-1.1.9-1.3 1.5-.2-.4-.6-1.1-1.1-1.3h.6c.7-.2 1.2-.2 1.8-.2"/><path clip-path="url(#b)" fill="#D8505C" d="M110.9 2.4c.2 0 .4.2.6.4h-1.3c.3-.1.5-.4.7-.4"/><path clip-path="url(#b)" fill="#D8505C" d="M105.3 4.4c-.4.4-.9.9-1.1 1.3-.2-.4-.6-.9-1.1-1.3h2.2z"/><path clip-path="url(#b)" fill="#D8505C" d="M125.2 2.2l.6.2h-.4c-.2 0-.7 0-1.1.2.4-.2.6-.4.9-.4"/><path clip-path="url(#b)" fill="#D8505C" d="M119.5 3.7c-.6.4-.9.9-1.1 1.3-.2-.4-.6-.9-1.3-1.1h.9c.5.1 1.1.1 1.5-.2"/><path clip-path="url(#b)" fill="#D8505C" d="M139.2 2l.6.2h-1.3c.3 0 .5-.2.7-.2"/><path clip-path="url(#b)" fill="#D8505C" d="M133.8 3.3c-.6.4-1.1.6-1.3 1.1-.2-.4-.6-.6-1.1-.9h.6c.7 0 1.2-.2 1.8-.2"/><path clip-path="url(#b)" fill="#D8505C" d="M148.1 2.9c-.6.2-1.1.4-1.3.7-.2-.2-.6-.4-1.1-.7h2.4z"/><path clip-path="url(#b)" fill="#D8505C" d="M162.1 2.4c-.4 0-.9.2-1.1.4-.2 0-.6-.2-1.3-.4h2.4z"/><path clip-path="url(#b)" fill="#D8505C" d="M-1.3 24.7c0-3.5 2.8-6.7 6.5-6.9 3.5-.4 6.3 2.2 6.3 5.4s-2.8 6.5-6.3 6.9c-3.7.7-6.5-1.9-6.5-5.4"/><path clip-path="url(#b)" fill="#D8505C" d="M13 23c0-3.2 2.8-6.3 6.3-6.5 3.7-.2 6.5 1.9 6.5 5 0 3.2-2.8 6.1-6.5 6.7-3.5.4-6.3-1.8-6.3-5.2"/><path clip-path="url(#b)" fill="#D8505C" d="M27.2 21.5c0-3.2 2.8-5.8 6.3-6.3 3.5-.2 6.5 1.7 6.5 4.8 0 2.8-3 5.4-6.5 6.1-3.4.3-6.3-1.6-6.3-4.6"/><path clip-path="url(#b)" fill="#D8505C" d="M41.3 19.7c0-2.8 3-5.4 6.5-5.6 3.5-.4 6.3 1.5 6.3 4.1 0 2.6-2.8 5.2-6.3 5.6-3.5.5-6.5-1.2-6.5-4.1"/><path clip-path="url(#b)" fill="#D8505C" d="M55.6 18c0-2.6 2.8-4.8 6.3-5.2 3.7-.2 6.5 1.3 6.5 3.7 0 2.4-2.8 4.8-6.5 5.2-3.5.6-6.3-1.1-6.3-3.7"/><path clip-path="url(#b)" fill="#D8505C" d="M69.8 16.3c0-2.2 2.8-4.3 6.3-4.5 3.5-.4 6.5 1.1 6.5 3 0 2.2-3 4.3-6.5 4.8-3.5.6-6.3-.9-6.3-3.3"/><path clip-path="url(#b)" fill="#D8505C" d="M83.9 14.8c0-2.2 3-4.1 6.5-4.3 3.5-.4 6.3.9 6.3 2.8 0 1.7-2.8 3.7-6.3 4.1-3.5.6-6.5-.7-6.5-2.6"/><path clip-path="url(#b)" fill="#D8505C" d="M98.1 13c0-1.7 2.8-3.5 6.5-3.9 3.5-.2 6.3.9 6.3 2.4s-2.8 3.2-6.3 3.9c-3.7.4-6.5-.6-6.5-2.4"/><path clip-path="url(#b)" fill="#D8505C" d="M112.4 11.3c0-1.5 2.8-3 6.3-3.2 3.7-.4 6.5.4 6.5 1.7 0 1.3-2.8 2.8-6.5 3.5-3.5.4-6.3-.5-6.3-2"/><path clip-path="url(#b)" fill="#D8505C" d="M126.5 9.8c0-1.3 3-2.6 6.5-3 3.5-.2 6.5.4 6.5 1.5s-3 2.4-6.5 2.8c-3.5.4-6.5-.2-6.5-1.3"/><path clip-path="url(#b)" fill="#D8505C" d="M140.7 8.1c0-1.1 2.8-2.2 6.5-2.6 3.5-.2 6.3.2 6.3 1.1 0 .9-2.8 1.9-6.3 2.4-3.7.6-6.5.1-6.5-.9"/><path clip-path="url(#b)" fill="#D8505C" d="M155 6.3c0-.9 2.8-1.7 6.3-1.9 3.7-.2 6.5-.2 6.5.4 0 .7-2.8 1.5-6.5 1.9-3.5.7-6.3.5-6.3-.4"/><path clip-path="url(#b)" fill="#D8505C" d="M169.2 4.6c0-.4 2.8-1.1 6.3-1.5 3.5-.2 6.5-.2 6.5 0 0 .4-3 1.1-6.5 1.5-3.4.7-6.3.7-6.3 0"/><path clip-path="url(#b)" fill="#D8505C" d="M-7.1 38.1c0 3.2 2.6 5.2 5.6 4.5 3-.4 5.4-3.5 5.4-6.5s-2.4-5-5.4-4.5c-3 .5-5.6 3.5-5.6 6.5"/><path clip-path="url(#b)" fill="#D8505C" d="M7.1 35.5c0 3 2.4 5 5.4 4.3 3-.6 5.6-3.5 5.6-6.3 0-2.6-2.6-4.5-5.6-4.1-3 .5-5.4 3.3-5.4 6.1"/><path clip-path="url(#b)" fill="#D8505C" d="M21.4 33.1c0 2.6 2.4 4.3 5.4 3.7 3-.6 5.4-3.2 5.4-5.6 0-2.6-2.4-4.3-5.4-3.9-3 .4-5.4 3-5.4 5.8"/><path clip-path="url(#b)" fill="#D8505C" d="M35.5 30.5c0 2.4 2.6 4.1 5.6 3.5 3-.6 5.4-3 5.4-5.4 0-2.4-2.4-3.9-5.4-3.5-3 .5-5.6 2.9-5.6 5.4"/><path clip-path="url(#b)" fill="#D8505C" d="M49.7 28c0 2.4 2.6 3.7 5.4 3 3-.6 5.6-2.8 5.6-5s-2.6-3.5-5.6-3c-2.8.4-5.4 2.8-5.4 5"/><path clip-path="url(#b)" fill="#D8505C" d="M64 25.4c0 2.2 2.4 3.2 5.4 2.6 3-.4 5.6-2.6 5.6-4.5 0-1.7-2.6-3-5.6-2.6-3 .4-5.4 2.5-5.4 4.5"/><path clip-path="url(#b)" fill="#D8505C" d="M78 23c0-1.9 2.6-3.9 5.6-4.3 3-.4 5.4.6 5.4 2.2 0 1.7-2.4 3.7-5.4 4.3-3 .6-5.6-.5-5.6-2.2"/><path clip-path="url(#b)" fill="#D8505C" d="M92.3 20.4c0-1.7 2.6-3.5 5.6-3.9 2.8-.4 5.4.4 5.4 1.9s-2.6 3-5.6 3.7c-3 .7-5.4-.2-5.4-1.7"/><path clip-path="url(#b)" fill="#D8505C" d="M106.6 17.8c0-1.5 2.4-3 5.4-3.5 3-.4 5.6.2 5.4 1.5 0 1.3-2.4 2.8-5.4 3.5-3.1.7-5.4 0-5.4-1.5"/><path clip-path="url(#b)" fill="#D8505C" d="M120.6 15.2c.2-1.1 2.6-2.6 5.6-3 3-.4 5.4 0 5.4 1.1s-2.4 2.4-5.4 3c-3 .6-5.6.2-5.6-1.1"/><path clip-path="url(#b)" fill="#D8505C" d="M134.9 12.8c0-1.1 2.6-2.4 5.6-2.8 3-.4 5.4 0 5.4.6 0 .9-2.6 2.2-5.6 2.8-2.8.5-5.4.3-5.4-.6"/><path clip-path="url(#b)" fill="#D8505C" d="M149.1 10.2c0-.9 2.4-1.7 5.4-2.4 3-.4 5.6-.2 5.6.4 0 .4-2.6 1.5-5.6 2.2-3 .7-5.4.5-5.4-.2"/><path clip-path="url(#b)" fill="#D8505C" d="M163.2 7.6c.2-.6 2.6-1.3 5.6-1.9 3-.4 5.4-.4 5.4 0s-2.4 1.1-5.4 1.7c-3 .7-5.6.7-5.6.2"/><path clip-path="url(#b)" fill="#D8505C" d="M1.3 48.9c0-2.6 2.2-5 4.5-5.6 2.6-.4 4.8 1.1 4.8 3.5s-2.2 5-4.8 5.6c-2.3.6-4.5-.9-4.5-3.5"/><path clip-path="url(#b)" fill="#D8505C" d="M15.6 45.5c0-2.4 1.9-4.8 4.5-5.2 2.6-.6 4.5.9 4.5 3 0 2.2-1.9 4.5-4.5 5.2-2.6.6-4.5-.7-4.5-3"/><path clip-path="url(#b)" fill="#D8505C" d="M29.6 42c0-2.2 2.2-4.3 4.8-4.8 2.4-.6 4.5.6 4.5 2.6 0 2.2-2.2 4.3-4.5 5-2.6.7-4.8-.6-4.8-2.8"/><path clip-path="url(#b)" fill="#D8505C" d="M43.9 38.8c0-2.2 2.2-4.1 4.5-4.8 2.6-.4 4.8.6 4.8 2.4 0 1.9-2.2 4.1-4.8 4.8-2.3.6-4.5-.5-4.5-2.4"/><path clip-path="url(#b)" fill="#D8505C" d="M58.2 35.3c0-1.9 1.9-3.9 4.5-4.3 2.6-.6 4.5.4 4.5 1.9 0 1.7-1.9 3.7-4.5 4.3-2.6.7-4.5-.2-4.5-1.9"/><path clip-path="url(#b)" fill="#D8505C" d="M72.4 31.8c0-1.7 1.9-3.5 4.5-3.9 2.4-.6 4.5.2 4.5 1.7s-2.2 3.2-4.5 3.9c-2.5.7-4.5-.1-4.5-1.7"/><path clip-path="url(#b)" fill="#D8505C" d="M86.5 28.4c0 1.5 2.2 2.2 4.5 1.5 2.6-.6 4.8-2.4 4.8-3.7 0-1.3-2.2-1.9-4.8-1.5-2.4.7-4.5 2.2-4.5 3.7"/><path clip-path="url(#b)" fill="#D8505C" d="M100.7 24.9c0 1.3 1.9 1.7 4.5 1.1 2.6-.6 4.5-2.2 4.5-3.2 0-1.1-1.9-1.7-4.5-1.1-2.5.4-4.5 1.9-4.5 3.2"/><path clip-path="url(#b)" fill="#D8505C" d="M114.8 21.5c0-1.1 2.2-2.4 4.8-2.8 2.4-.6 4.5-.2 4.5.6 0 1.1-2.2 2.4-4.5 3-2.7.7-4.8.3-4.8-.8"/><path clip-path="url(#b)" fill="#D8505C" d="M129 18.2c0-1.1 2.2-2.2 4.5-2.8 2.6-.4 4.8-.2 4.8.4 0 .9-2.2 1.9-4.8 2.6-2.3.9-4.5.7-4.5-.2"/><path clip-path="url(#b)" fill="#D8505C" d="M143.3 14.8c0-.9 1.9-1.7 4.5-2.4 2.6-.6 4.5-.4 4.5 0 0 .6-1.9 1.7-4.5 2.4-2.5.6-4.5.6-4.5 0"/><path clip-path="url(#b)" fill="#D8505C" d="M157.6 11.3c0-.6 1.9-1.5 4.5-1.9 2.6-.6 4.5-.6 4.5-.2 0 .4-1.9 1.3-4.5 1.9-2.6.6-4.5.6-4.5.2"/><path clip-path="url(#b)" fill="#D8505C" d="M171.6 7.9c0-.4 2.2-1.1 4.8-1.7 2.4-.4 4.5-.6 4.5-.4 0 .2-2.2.9-4.5 1.5-2.6.8-4.8 1-4.8.6"/><path clip-path="url(#b)" fill="#D8505C" d="M-4.5 63c0-2.2 1.7-4.3 3.7-5 2.2-.4 3.7.6 3.7 2.8 0 1.9-1.5 4.1-3.7 4.8-2 .6-3.7-.5-3.7-2.6"/><path clip-path="url(#b)" fill="#D8505C" d="M9.7 58.6c0-1.9 1.5-4.1 3.7-4.5 1.9-.6 3.7.4 3.7 2.4 0 1.7-1.7 3.9-3.7 4.5-2.2.7-3.7-.4-3.7-2.4"/><path clip-path="url(#b)" fill="#D8505C" d="M23.8 54.3c0-1.7 1.7-3.7 3.9-4.3 1.9-.6 3.7.4 3.7 2.2 0 1.7-1.7 3.7-3.7 4.3-2.2.6-3.9-.4-3.9-2.2"/><path clip-path="url(#b)" fill="#D8505C" d="M38.1 50c0 1.7 1.7 2.6 3.7 1.9 2.2-.6 3.7-2.6 3.7-4.1 0-1.5-1.5-2.4-3.7-1.9-2 .6-3.7 2.6-3.7 4.1"/><path clip-path="url(#b)" fill="#D8505C" d="M52.3 45.7c0 1.5 1.7 2.4 3.7 1.7 1.9-.6 3.7-2.4 3.7-3.9s-1.7-2.2-3.7-1.5c-2 .4-3.7 2.2-3.7 3.7"/><path clip-path="url(#b)" fill="#D8505C" d="M66.6 41.4c0 1.5 1.5 2.2 3.7 1.3 1.9-.6 3.7-2.2 3.7-3.5 0-1.3-1.7-1.9-3.7-1.3-2.2.6-3.7 2.2-3.7 3.5"/><path clip-path="url(#b)" fill="#D8505C" d="M80.6 37.2c0 1.1 1.7 1.5 3.7.9 2.2-.7 3.7-1.9 3.7-3.2 0-1.1-1.5-1.5-3.7-1.1-1.9.6-3.7 2.1-3.7 3.4"/><path clip-path="url(#b)" fill="#D8505C" d="M94.9 32.9c0-1.1 1.5-2.6 3.7-3 1.9-.6 3.7-.2 3.7.6 0 1.1-1.7 2.4-3.7 3-2.2.7-3.7.5-3.7-.6"/><path clip-path="url(#b)" fill="#D8505C" d="M108.9 28.6c0-1.1 1.7-2.2 3.9-2.8 1.9-.6 3.7-.4 3.7.4 0 .9-1.7 2.2-3.7 2.8-2.1.7-3.9.5-3.9-.4"/><path clip-path="url(#b)" fill="#D8505C" d="M123.2 24.3c0 .9 1.7.9 3.7.2 2.2-.7 3.7-1.7 3.7-2.6 0-.6-1.5-.6-3.7-.2-2 .6-3.7 1.7-3.7 2.6"/><path clip-path="url(#b)" fill="#D8505C" d="M137.5 20c0-.6 1.7-1.7 3.7-2.2 1.9-.6 3.7-.6 3.7 0 0 .4-1.7 1.5-3.7 2.2-2 .6-3.7.6-3.7 0"/><path clip-path="url(#b)" fill="#D8505C" d="M151.7 15.6c0-.4 1.5-1.3 3.7-1.9 1.9-.6 3.7-.6 3.7-.2 0 .4-1.7 1.3-3.7 1.9-2.1.7-3.7.7-3.7.2"/><path clip-path="url(#b)" fill="#D8505C" d="M165.8 11.3c0-.2 1.7-1.1 3.7-1.7 2.2-.4 3.7-.6 3.7-.4 0 .2-1.5 1.1-3.7 1.7-2 .6-3.7.8-3.7.4"/><path clip-path="url(#b)" fill="#D8505C" d="M3.9 72.5c0-1.5 1.3-3.2 2.8-3.7 1.5-.6 2.8.2 2.8 1.7s-1.3 3-2.8 3.7c-1.5.7-2.8-.2-2.8-1.7"/><path clip-path="url(#b)" fill="#D8505C" d="M18.2 67.3c0-1.3 1.1-3 2.6-3.5 1.7-.6 2.8 0 2.8 1.5 0 1.3-1.1 3-2.8 3.5-1.6.7-2.6 0-2.6-1.5"/><path clip-path="url(#b)" fill="#D8505C" d="M32.2 62.1c0-1.3 1.3-2.8 2.8-3.2 1.5-.6 2.8 0 2.8 1.3s-1.3 2.8-2.8 3.2c-1.5.6-2.8 0-2.8-1.3"/><path clip-path="url(#b)" fill="#D8505C" d="M46.5 56.9c0-1.1 1.3-2.6 2.8-3 1.5-.6 2.8 0 2.8 1.1s-1.3 2.6-2.8 3c-1.5.6-2.8.2-2.8-1.1"/><path clip-path="url(#b)" fill="#D8505C" d="M60.5 51.7c.2-1.1 1.3-2.4 3-2.8 1.5-.6 2.8-.2 2.6.9 0 1.1-1.1 2.4-2.8 3-1.5.4-2.8 0-2.8-1.1"/><path clip-path="url(#b)" fill="#D8505C" d="M74.8 46.5c0-.9 1.3-2.2 2.8-2.6 1.5-.6 2.8-.2 2.8.6 0 .9-1.3 2.2-2.8 2.8-1.5.5-2.8.3-2.8-.8"/><path clip-path="url(#b)" fill="#D8505C" d="M89.1 41.4c0-.6 1.3-1.9 2.8-2.4 1.5-.6 2.8-.4 2.8.4 0 .9-1.3 1.9-2.8 2.6-1.5.6-2.8.2-2.8-.6"/><path clip-path="url(#b)" fill="#D8505C" d="M103.3 36.4c0-.9 1.1-1.9 2.8-2.4 1.5-.6 2.6-.4 2.6.2 0 .6-1.1 1.7-2.6 2.4-1.7.6-2.8.4-2.8-.2"/><path clip-path="url(#b)" fill="#D8505C" d="M117.4 31.2c0-.6 1.3-1.7 2.8-2.2 1.5-.6 2.8-.6 2.8 0 0 .7-1.3 1.5-2.8 2.2-1.5.6-2.8.6-2.8 0"/><path clip-path="url(#b)" fill="#D8505C" d="M131.6 26c0-.6 1.3-1.5 2.8-1.9 1.5-.6 2.8-.6 2.8-.2 0 .4-1.3 1.3-2.8 1.9-1.5.6-2.8.6-2.8.2"/><path clip-path="url(#b)" fill="#D8505C" d="M145.9 20.8c0-.4 1.1-1.3 2.8-1.7 1.5-.6 2.8-.9 2.8-.4 0 .4-1.3 1.3-3 1.7-1.5.6-2.6.9-2.6.4"/><path clip-path="url(#b)" fill="#D8505C" d="M160 15.6c0-.4 1.3-1.1 2.8-1.5 1.5-.6 2.8-.9 2.8-.6 0 .2-1.3 1.1-2.8 1.5-1.5.6-2.8.8-2.8.6"/><path clip-path="url(#b)" fill="#D8505C" d="M174.2 10.4c0-.2 1.3-.9 2.8-1.3 1.5-.6 2.8-.9 2.8-.9 0 .2-1.3.9-2.8 1.5-1.5.5-2.8 1-2.8.7"/><path clip-path="url(#b)" fill="#D8505C" d="M12.1 81.1c0-1.1 1.1-2.2 1.9-2.6 1.1-.4 1.9 0 1.9.9 0 1.1-.9 2.2-1.9 2.6-.8.4-1.9 0-1.9-.9"/><path clip-path="url(#b)" fill="#D8505C" d="M26.4 75.1c0-1.1.9-2.2 1.9-2.6 1.1-.4 1.9 0 1.9.9s-.9 1.9-1.9 2.6c-1.1.4-1.9-.1-1.9-.9"/><path clip-path="url(#b)" fill="#D8505C" d="M40.6 69c0-.9.9-1.9 1.9-2.4 1.1-.4 1.9-.2 1.9.6 0 .9-.9 1.9-1.9 2.4-1 .5-1.9.3-1.9-.6"/><path clip-path="url(#b)" fill="#D8505C" d="M54.9 63c0-.9.9-1.7 1.7-2.2 1.1-.7 1.9-.2 1.9.4 0 .9-.9 1.7-1.9 2.2-.8.4-1.7.2-1.7-.4"/><path clip-path="url(#b)" fill="#D8505C" d="M69 56.9c0-.9.9-1.7 1.9-2.2 1.1-.4 1.9-.2 1.9.4 0 .6-.9 1.7-1.9 2.2-1.1.5-1.9.3-1.9-.4"/><path clip-path="url(#b)" fill="#D8505C" d="M83.2 50.9c0-.6.9-1.5 1.9-1.9 1.1-.4 1.9-.4 1.9.2 0 .7-.9 1.5-1.9 1.9-1 .4-1.9.4-1.9-.2"/><path clip-path="url(#b)" fill="#D8505C" d="M97.5 44.8c0-.6.9-1.5 1.7-1.9 1.1-.4 1.9-.2 1.9.2 0 .6-.9 1.3-1.9 1.7-.8.4-1.7.4-1.7 0"/><path clip-path="url(#b)" fill="#D8505C" d="M111.5 38.8c0-.6.9-1.3 1.9-1.7 1.1-.4 1.9-.4 1.9 0s-.9 1.3-1.9 1.7c-1 .4-1.9.4-1.9 0"/><path clip-path="url(#b)" fill="#D8505C" d="M125.8 32.7c0-.4.9-1.1 1.9-1.5 1.1-.4 1.9-.6 1.9-.2 0 .4-.9 1.1-1.9 1.5-1 .4-1.9.4-1.9.2"/><path clip-path="url(#b)" fill="#D8505C" d="M140.1 26.7c0-.4.9-1.1 1.7-1.5 1.1-.4 1.9-.4 1.9-.2s-.9.9-1.9 1.3c-.9.6-1.7.6-1.7.4"/><path clip-path="url(#b)" fill="#D8505C" d="M154.1 20.6c0-.4.9-.9 1.9-1.3 1.1-.4 1.9-.6 1.9-.4 0 .2-.9.9-1.9 1.3-1 .4-1.9.6-1.9.4"/><path clip-path="url(#b)" fill="#D8505C" d="M168.4 14.6c0-.2.9-.9 1.9-1.3 1.1-.4 1.9-.6 1.9-.4 0 .2-.9.6-1.9 1.1-1.1.3-1.9.6-1.9.6"/><path clip-path="url(#b)" fill="#D8505C" d="M6.5 95.4c0-.4.4-1.1.9-1.3.6-.4 1.1-.2 1.1.4-.1.5-.5 1.1-1.1 1.5-.5.3-.9 0-.9-.6"/><path clip-path="url(#b)" fill="#D8505C" d="M20.5 88.5c0-.4.4-1.1 1.1-1.3.6-.2 1.1-.2 1.1.4 0 .4-.4 1.1-1.1 1.3-.6.4-1.1.2-1.1-.4"/><path clip-path="url(#b)" fill="#D8505C" d="M34.8 81.6c0-.4.4-1.1 1.1-1.3.4-.2.9 0 .9.4s-.4 1.1-.9 1.3c-.7.2-1.1 0-1.1-.4"/><path clip-path="url(#b)" fill="#D8505C" d="M49.1 74.6c0-.4.4-.9.9-1.3.7-.2 1.1 0 1.1.4s-.4.9-1.1 1.1c-.5.5-.9.3-.9-.2"/><path clip-path="url(#b)" fill="#D8505C" d="M63.1 67.7c0-.4.4-.9 1.1-1.1.7-.4 1.1-.2 1.1.2 0 .2-.4.9-1.1 1.1-.6.3-1.1.3-1.1-.2"/><path clip-path="url(#b)" fill="#D8505C" d="M77.4 60.8c0-.4.4-.9 1.1-1.1.4-.2.9-.2.9 0 0 .4-.4.9-.9 1.3-.7.2-1.1.2-1.1-.2"/><path clip-path="url(#b)" fill="#D8505C" d="M91.7 53.9c0-.2.4-.9.9-1.1.7-.2 1.1-.2 1.1 0 0 .4-.4.9-1.1 1.1-.5.4-.9.2-.9 0"/><path clip-path="url(#b)" fill="#D8505C" d="M105.7 47c0-.2.4-.6 1.1-1.1.6-.2 1.1-.2 1.1 0 0 .4-.4.9-1.1 1.1-.7.2-1.1.2-1.1 0"/><path clip-path="url(#b)" fill="#D8505C" d="M120 40.1c0-.2.4-.6 1.1-.9.4-.4.9-.4.9-.2.2.2-.4.6-.9.9-.7.4-1.1.4-1.1.2"/><path clip-path="url(#b)" fill="#D8505C" d="M134.2 33.1c0-.2.4-.6.9-.9.6-.2 1.1-.4 1.1-.2s-.4.6-1.1.9c-.4.2-.9.5-.9.2"/><path clip-path="url(#b)" fill="#D8505C" d="M148.3 26.2c0-.2.4-.4 1.1-.9.6-.2 1.1-.2 1.1-.2 0 .2-.4.4-1.1.9-.7.2-1.1.2-1.1.2"/><path clip-path="url(#b)" fill="#D8505C" d="M162.5 19.3c0-.2.4-.4 1.1-.6.4-.4.9-.4 1.1-.4 0 .2-.6.4-1.1.6-.6.4-1.1.4-1.1.4"/><path clip-path="url(#b)" fill="#D8505C" d="M176.8 12.4c0-.2.4-.4 1.1-.6.4-.4.9-.4.9-.4s-.4.4-1.1.6c-.5.2-.9.4-.9.4"/><path clip-path="url(#b)" fill="#D8505C" d="M14.3 103.2c0-.4.2-.9.6-.9.2-.2.6-.2.6.2 0 .2-.4.6-.6.9-.4 0-.6 0-.6-.2"/><path clip-path="url(#b)" fill="#D8505C" d="M28.5 95.2c0-.2.2-.6.6-.6.2-.2.4-.2.4.2 0 .2-.2.4-.4.6-.3.2-.6.2-.6-.2"/><path clip-path="url(#b)" fill="#D8505C" d="M42.8 87.4c0-.2.2-.4.4-.7.4-.2.6-.2.6 0s-.2.7-.6.9c-.2.2-.4 0-.4-.2"/><path clip-path="url(#b)" fill="#D8505C" d="M56.9 79.6c0-.2.2-.4.6-.6.2-.2.6-.2.6 0s-.4.6-.6.9c-.4-.1-.6-.1-.6-.3"/><path clip-path="url(#b)" fill="#D8505C" d="M71.1 71.8c0-.2.2-.4.6-.6.2-.2.4-.2.4 0s-.2.4-.4.6c-.4.2-.6.2-.6 0"/><path clip-path="url(#b)" fill="#D8505C" d="M85.4 64c0-.2.2-.4.4-.6.4-.2.6-.2.6 0s-.2.4-.6.6c-.2.3-.4.3-.4 0"/><path clip-path="url(#b)" fill="#D8505C" d="M99.4 56.3c0-.2.4-.4.6-.6.2-.2.6-.2.6 0s-.4.4-.6.6c-.1 0-.6.2-.6 0"/><path clip-path="url(#b)" fill="#D8505C" d="M113.7 48.5c0-.2.2-.4.6-.6.2-.2.4-.2.4 0 0 0-.2.4-.4.4-.4.2-.6.2-.6.2"/><path clip-path="url(#b)" fill="#D8505C" d="M128 40.7c0-.2.2-.4.4-.6.4-.2.6-.2.6 0 0 0-.2.2-.6.4-.2.2-.4.2-.4.2"/><path clip-path="url(#b)" fill="#D8505C" d="M142 32.7s.2-.2.6-.4c.2-.2.6-.2.6-.2 0 .2-.4.4-.6.6-.4 0-.6.2-.6 0"/><path clip-path="url(#b)" fill="#D8505C" d="M156.3 24.9s.2-.2.6-.4c.2-.2.4-.2.4-.2 0 .2-.2.4-.4.4-.4.2-.6.4-.6.2"/><path clip-path="url(#b)" fill="#D8505C" d="M170.5 17.1l.4-.4c.4 0 .6-.2.6-.2s-.2.2-.6.4c-.1.2-.4.2-.4.2"/><path clip-path="url(#b)" fill="#D8505C" d="M176.8 128.5c.2-.2.4-.7.6-1.1-.4.2-.6.2-1.1.2h-.2c.3.2.5.6.7.9"/><path clip-path="url(#b)" fill="#D8505C" d="M162.5 128.7l.6-.9h-1.3c.3.2.5.7.7.9"/><path clip-path="url(#b)" fill="#D8505C" d="M168.2 124.8c.4-.2.9-.2 1.5-.2h.6c-.4-.7-.9-1.5-1.1-2.6-.2 1.1-.6 1.9-1 2.8"/><path clip-path="url(#b)" fill="#D8505C" d="M148.3 128.9c.2-.2.4-.7.9-.9h-1.5l.6.9"/><path clip-path="url(#b)" fill="#D8505C" d="M153.9 125.2l1.5-.2h.9c-.6-.7-1.1-1.5-1.1-2.2-.2.9-.6 1.8-1.3 2.4"/><path clip-path="url(#b)" fill="#D8505C" d="M134.2 129.1l.6-.9c-.4 0-.6 0-1.1.2h-.2l.7.7z"/><path clip-path="url(#b)" fill="#D8505C" d="M139.6 125.6h1.7c.2-.2.4 0 .6 0-.4-.6-.9-1.5-1.1-2.2-.1 1-.5 1.6-1.2 2.2"/><path clip-path="url(#b)" fill="#D8505C" d="M120 129.3c.2-.2.4-.4.6-.9-.2.2-.6.2-1.1.2h-.2c.2.3.5.5.7.7"/><path clip-path="url(#b)" fill="#D8505C" d="M125.4 126.3c.6-.2 1.1-.2 1.7-.2h.6c-.4-.6-.9-1.3-1.1-1.9-.1.6-.6 1.4-1.2 2.1"/><path clip-path="url(#b)" fill="#D8505C" d="M105.7 129.5c.2-.2.4-.4.9-.6h-1.5l.6.6"/><path clip-path="url(#b)" fill="#D8505C" d="M111.3 126.7l1.5-.2h.9c-.6-.4-1.1-1.1-1.3-1.7-.2.6-.4 1.3-1.1 1.9"/><path clip-path="url(#b)" fill="#D8505C" d="M91.7 129.8l.6-.6h-1.3c.2.1.4.3.7.6"/><path clip-path="url(#b)" fill="#D8505C" d="M97.1 127.2h1.5c.4-.2.6-.2.9-.2-.6-.4-.9-.9-1.1-1.5-.3.6-.7 1.2-1.3 1.7"/><path clip-path="url(#b)" fill="#D8505C" d="M77.4 130l.6-.6c-.2 0-.6.2-1.1.2h-.2c.3-.1.5.2.7.4"/><path clip-path="url(#b)" fill="#D8505C" d="M82.8 127.6h2.3c-.4-.4-.9-.9-1.1-1.5-.1.6-.6 1.1-1.2 1.5"/><path clip-path="url(#b)" fill="#D8505C" d="M63.1 130.2c.2-.2.4-.4.9-.4h-1.5c.2 0 .4.2.6.4"/><path clip-path="url(#b)" fill="#D8505C" d="M68.7 128.2c.4-.2 1.1-.2 1.5-.2h.9c-.6-.4-1.1-.9-1.3-1.3-.2.7-.6 1.1-1.1 1.5"/><path clip-path="url(#b)" fill="#D8505C" d="M49.1 130.4c.2-.2.4-.4.6-.4h-1.3l.7.4"/><path clip-path="url(#b)" fill="#D8505C" d="M54.5 128.7l1.5-.2h.9c-.6-.2-.9-.7-1.1-.9-.2.4-.7.6-1.3 1.1"/><path clip-path="url(#b)" fill="#D8505C" d="M34.8 130.6l.6-.4h-1.3c.3.2.5.2.7.4"/><path clip-path="url(#b)" fill="#D8505C" d="M40.2 129.1h2.3c-.4-.4-.9-.7-1.1-.9-.1.3-.5.7-1.2.9"/><path clip-path="url(#b)" fill="#D8505C" d="M20.5 130.8c.2-.2.4-.2.9-.4-.4.2-.9.2-1.3.2h-.2c.2 0 .4 0 .6.2"/><path clip-path="url(#b)" fill="#D8505C" d="M26.2 129.5h2.4c-.6-.2-1.1-.4-1.3-.6-.3.2-.7.4-1.1.6"/><path clip-path="url(#b)" fill="#D8505C" d="M6.3 131.1c.2-.2.6-.2.9-.2h-1.6c.5-.1.7-.1.7.2"/><path clip-path="url(#b)" fill="#D8505C" d="M11.9 130.2l1.5-.2h.9c-.6 0-.9-.2-1.1-.4-.2.2-.7.4-1.3.6"/><path clip-path="url(#b)" fill="#D8505C" d="M175.3 107.7c0-3.5-2.8-6.1-6.5-5.4-3.5.4-6.3 3.7-6.3 6.9 0 3.5 2.8 5.8 6.3 5.6 3.7-.4 6.5-3.4 6.5-7.1"/><path clip-path="url(#b)" fill="#D8505C" d="M161 109.4c0-3.2-2.8-5.6-6.3-5-3.7.4-6.5 3.5-6.5 6.5s2.8 5.4 6.5 5c3.5-.2 6.3-3.2 6.3-6.5"/><path clip-path="url(#b)" fill="#D8505C" d="M147 111.2c0-3-3-5.2-6.5-4.5-3.5.4-6.3 3.2-6.3 6.1 0 2.8 2.8 4.8 6.3 4.5 3.5-.3 6.5-3.1 6.5-6.1"/><path clip-path="url(#b)" fill="#D8505C" d="M132.7 112.9c0-2.8-2.8-4.8-6.5-4.3-3.5.7-6.3 3.2-6.3 5.6 0 2.6 2.8 4.5 6.3 4.3 3.7-.4 6.5-3 6.5-5.6"/><path clip-path="url(#b)" fill="#D8505C" d="M118.5 114.4c0-2.6-2.8-4.1-6.3-3.7-3.7.7-6.5 2.8-6.5 5.2 0 2.4 2.8 4.1 6.5 3.7 3.4-.2 6.3-2.6 6.3-5.2"/><path clip-path="url(#b)" fill="#D8505C" d="M104.4 116.1c0-2.4-3-3.7-6.5-3.2-3.5.4-6.5 2.6-6.5 4.8 0 1.9 3 3.5 6.5 3.2 3.5-.4 6.5-2.4 6.5-4.8"/><path clip-path="url(#b)" fill="#D8505C" d="M90.1 117.9c0-2.2-2.8-3.5-6.5-2.8-3.5.4-6.3 2.4-6.3 4.3 0 1.7 2.8 3 6.3 2.6 3.7-.2 6.5-2.2 6.5-4.1"/><path clip-path="url(#b)" fill="#D8505C" d="M75.9 119.4c0-1.7-2.8-2.8-6.3-2.2-3.7.4-6.5 2.2-6.5 3.7 0 1.7 2.8 2.6 6.5 2.4 3.5-.2 6.3-2 6.3-3.9"/><path clip-path="url(#b)" fill="#D8505C" d="M61.6 121.1c0-1.5-2.8-2.4-6.3-1.7-3.5.4-6.5 1.9-6.5 3.2 0 1.3 3 2.2 6.5 1.9 3.5-.4 6.3-1.9 6.3-3.4"/><path clip-path="url(#b)" fill="#D8505C" d="M47.6 122.8c0-1.3-2.8-1.9-6.5-1.5-3.5.6-6.3 1.9-6.3 3s2.8 1.7 6.3 1.3c3.7-.2 6.5-1.5 6.5-2.8"/><path clip-path="url(#b)" fill="#D8505C" d="M33.3 124.6c0-1.1-2.8-1.5-6.5-1.1-3.5.6-6.3 1.7-6.3 2.4 0 .9 2.8 1.3 6.3 1.1 3.7-.5 6.5-1.6 6.5-2.4"/><path clip-path="url(#b)" fill="#D8505C" d="M19 126.1c0-.6-2.8-.9-6.3-.4-3.5.4-6.5 1.5-6.5 1.9 0 .7 3 .9 6.5.4 3.5-.2 6.3-1.1 6.3-1.9"/><path clip-path="url(#b)" fill="#D8505C" d="M5 127.8c0-.6-3-.6-6.5 0-3.5.4-6.3 1.1-6.3 1.5 0 .2 2.8.2 6.3 0s6.5-1.1 6.5-1.5"/><path clip-path="url(#b)" fill="#D8505C" d="M181.1 94.3c0 3.2-2.6 6.1-5.4 6.5-3 .4-5.6-1.5-5.6-4.5s2.6-5.8 5.6-6.5c2.8-.7 5.4 1.5 5.4 4.5"/><path clip-path="url(#b)" fill="#D8505C" d="M166.9 96.9c0 2.8-2.4 5.6-5.4 6.1-3 .4-5.6-1.3-5.6-4.1s2.6-5.6 5.6-6.3c3-.5 5.4 1.3 5.4 4.3"/><path clip-path="url(#b)" fill="#D8505C" d="M152.8 99.5c0 2.6-2.6 5.2-5.6 5.6-3 .4-5.4-1.1-5.4-3.7s2.4-5.2 5.4-5.8c3-.6 5.6 1.1 5.6 3.9"/><path clip-path="url(#b)" fill="#D8505C" d="M138.6 101.9c0 2.6-2.6 5-5.6 5.4-3 .4-5.4-1.1-5.4-3.5 0-2.2 2.4-4.5 5.4-5.2 3-.6 5.6.9 5.6 3.3"/><path clip-path="url(#b)" fill="#D8505C" d="M124.3 104.5c0 2.4-2.4 4.5-5.4 5-3 .4-5.6-.9-5.6-3 0-1.9 2.6-4.3 5.6-5 3-.7 5.4.8 5.4 3"/><path clip-path="url(#b)" fill="#D8505C" d="M110 107.1c0 2.2-2.4 4.1-5.4 4.5-3 .4-5.4-.7-5.4-2.6 0-1.9 2.4-3.9 5.4-4.5 3.1-.7 5.4.4 5.4 2.6"/><path clip-path="url(#b)" fill="#D8505C" d="M96 109.7c0-1.9-2.6-2.8-5.6-2.4-3 .6-5.4 2.6-5.4 4.3 0 1.7 2.4 2.6 5.4 2.2 3-.5 5.6-2.4 5.6-4.1"/><path clip-path="url(#b)" fill="#D8505C" d="M81.7 112c0-1.5-2.4-2.4-5.4-1.7-3 .7-5.6 2.4-5.6 3.9 0 1.3 2.6 2.2 5.6 1.7 3-.4 5.4-2.1 5.4-3.9"/><path clip-path="url(#b)" fill="#D8505C" d="M67.4 114.6c0-1.3-2.4-1.9-5.4-1.3-3 .7-5.4 2.2-5.4 3.2 0 1.3 2.4 1.9 5.4 1.5 3.1-.4 5.4-1.9 5.4-3.4"/><path clip-path="url(#b)" fill="#D8505C" d="M53.4 117.2c0-1.1-2.6-1.7-5.6-1.1-3 .7-5.4 1.9-5.4 3s2.4 1.5 5.4 1.1c3-.4 5.6-1.7 5.6-3"/><path clip-path="url(#b)" fill="#D8505C" d="M39.1 119.8c0-1.1-2.4-1.3-5.4-.6-3 .6-5.6 1.7-5.6 2.6 0 .9 2.6 1.1 5.6.7 3.1-.5 5.4-1.8 5.4-2.7"/><path clip-path="url(#b)" fill="#D8505C" d="M24.9 122.4c0-.9-2.4-.9-5.4-.4-3 .7-5.4 1.7-5.4 2.4 0 .4 2.4.7 5.4.2 3-.5 5.4-1.5 5.4-2.2"/><path clip-path="url(#b)" fill="#D8505C" d="M10.8 124.8c0-.4-2.6-.4-5.6.2-3 .6-5.4 1.5-5.4 1.7 0 .4 2.4.4 5.4 0 3-.4 5.6-1.3 5.6-1.9"/><path clip-path="url(#b)" fill="#D8505C" d="M172.7 83.5c0-2.4-1.9-4.1-4.5-3.2-2.6.6-4.5 3-4.5 5.6 0 2.4 1.9 3.9 4.5 3.2 2.6-.4 4.5-3 4.5-5.6"/><path clip-path="url(#b)" fill="#D8505C" d="M158.4 87c0-2.4-1.9-3.7-4.5-3-2.6.6-4.5 3-4.5 5.2 0 2.4 1.9 3.7 4.5 3 2.6-.5 4.5-2.9 4.5-5.2"/><path clip-path="url(#b)" fill="#D8505C" d="M144.4 90.4c0-2.2-2.2-3.5-4.5-2.8-2.6.6-4.8 3-4.8 5 0 2.2 2.2 3.2 4.8 2.8 2.3-.7 4.5-2.8 4.5-5"/><path clip-path="url(#b)" fill="#D8505C" d="M130.1 93.9c0-1.9-1.9-3-4.5-2.4-2.6.6-4.5 2.6-4.5 4.5s1.9 3 4.5 2.4c2.6-.4 4.5-2.6 4.5-4.5"/><path clip-path="url(#b)" fill="#D8505C" d="M115.9 97.3c0-1.9-1.9-2.8-4.5-2.2-2.6.6-4.5 2.6-4.5 4.3 0 1.7 1.9 2.6 4.5 1.9 2.5-.3 4.5-2.2 4.5-4"/><path clip-path="url(#b)" fill="#D8505C" d="M101.8 100.6c0-1.5-2.2-2.4-4.8-1.7-2.4.9-4.5 2.6-4.5 4.1 0 1.5 2.2 2.2 4.5 1.7 2.7-.7 4.8-2.4 4.8-4.1"/><path clip-path="url(#b)" fill="#D8505C" d="M87.5 104c0 1.5-1.9 3.2-4.5 3.7-2.6.6-4.5 0-4.5-1.3 0-1.5 1.9-3 4.5-3.7 2.6-.6 4.5 0 4.5 1.3"/><path clip-path="url(#b)" fill="#D8505C" d="M73.3 107.5c0 1.3-1.9 2.8-4.5 3.2-2.6.7-4.5.2-4.5-1.1 0-1.1 1.9-2.6 4.5-3.2 2.5-.6 4.5-.2 4.5 1.1"/><path clip-path="url(#b)" fill="#D8505C" d="M59.2 111c0-1.1-2.2-1.5-4.8-.9-2.4.9-4.5 2.2-4.5 3 0 1.1 2.2 1.3 4.5.9 2.7-.7 4.8-2 4.8-3"/><path clip-path="url(#b)" fill="#D8505C" d="M45 114.4c0-.9-1.9-1.1-4.5-.4-2.6.6-4.5 1.7-4.5 2.6 0 .9 1.9 1.1 4.5.4 2.5-.6 4.5-1.7 4.5-2.6"/><path clip-path="url(#b)" fill="#D8505C" d="M30.7 117.9c0-.9-1.9-.9-4.5-.2s-4.5 1.7-4.5 2.4 1.9.7 4.5 0c2.6-.5 4.5-1.6 4.5-2.2"/><path clip-path="url(#b)" fill="#D8505C" d="M16.7 121.1c0-.4-2.2-.4-4.8.4-2.4.6-4.5 1.5-4.5 1.9 0 .4 2.2.2 4.5-.2 2.6-.6 4.8-1.4 4.8-2.1"/><path clip-path="url(#b)" fill="#D8505C" d="M178.5 69.5c0 2.2-1.7 4.3-3.7 5-1.9.6-3.7-.6-3.7-2.6 0-2.2 1.7-4.3 3.7-5 2-.7 3.7.6 3.7 2.6"/><path clip-path="url(#b)" fill="#D8505C" d="M164.3 73.8c0 1.9-1.5 4.1-3.7 4.8-1.9.4-3.7-.6-3.7-2.4 0-1.9 1.7-4.1 3.7-4.8 2.2-.6 3.7.4 3.7 2.4"/><path clip-path="url(#b)" fill="#D8505C" d="M150.2 78.1c0 1.9-1.7 3.9-3.7 4.3-2.2.6-3.7-.2-3.7-1.9s1.5-3.7 3.7-4.3c2-.9 3.7.2 3.7 1.9"/><path clip-path="url(#b)" fill="#D8505C" d="M136 82.4c0 1.7-1.7 3.5-3.7 4.1-1.9.7-3.7-.2-3.7-1.9 0-1.5 1.7-3.2 3.7-3.9 1.9-.7 3.7 0 3.7 1.7"/><path clip-path="url(#b)" fill="#D8505C" d="M121.7 86.7c0 1.5-1.5 3.2-3.7 3.9-1.9.4-3.7-.2-3.7-1.7 0-1.3 1.7-3 3.7-3.7 2.2-.6 3.7 0 3.7 1.5"/><path clip-path="url(#b)" fill="#D8505C" d="M107.7 91.1c0 1.3-1.7 3-3.7 3.5-2.2.6-3.9 0-3.9-1.3s1.7-2.8 3.9-3.5c1.9-.7 3.7 0 3.7 1.3"/><path clip-path="url(#b)" fill="#D8505C" d="M93.4 95.4c0 1.1-1.7 2.6-3.7 3.2-2.2.6-3.7 0-3.7-1.1s1.5-2.6 3.7-3.2c2-.6 3.7-.2 3.7 1.1"/><path clip-path="url(#b)" fill="#D8505C" d="M79.1 99.7c0-1.1-1.5-1.5-3.7-.9-1.9.6-3.7 1.9-3.7 3s1.7 1.3 3.7.9c2.2-.6 3.7-1.9 3.7-3"/><path clip-path="url(#b)" fill="#D8505C" d="M65.1 104c0-1.1-1.7-1.3-3.7-.6-2.2.6-3.9 1.9-3.9 2.8 0 .9 1.7 1.1 3.9.4 1.9-.4 3.7-1.7 3.7-2.6"/><path clip-path="url(#b)" fill="#D8505C" d="M50.8 108.1c0 .9-1.7 1.9-3.7 2.6-2.2.7-3.7.4-3.7-.2 0-.6 1.5-1.9 3.7-2.6 2-.6 3.7-.4 3.7.2"/><path clip-path="url(#b)" fill="#D8505C" d="M36.5 112.5c0-.6-1.5-.6-3.7 0-1.9.7-3.7 1.7-3.7 2.4 0 .4 1.7.4 3.7 0 2.2-.7 3.7-1.8 3.7-2.4"/><path clip-path="url(#b)" fill="#D8505C" d="M22.5 116.8c0-.4-1.7-.2-3.9.4-1.9.6-3.7 1.5-3.7 1.9 0 .4 1.7.2 3.7-.4 2.2-.4 3.9-1.3 3.9-1.9"/><path clip-path="url(#b)" fill="#D8505C" d="M8.2 121.1c0-.2-1.7 0-3.7.6-2.2.6-3.7 1.3-3.7 1.5 0 .4 1.5.2 3.7-.4 2-.6 3.7-1.3 3.7-1.7"/><path clip-path="url(#b)" fill="#D8505C" d="M170.1 59.9c0 1.5-1.1 3.2-2.8 3.7-1.5.6-2.8-.2-2.8-1.5 0-1.5 1.3-3.2 2.8-3.9 1.7-.6 2.8.2 2.8 1.7"/><path clip-path="url(#b)" fill="#D8505C" d="M156.1 65.1c0 1.5-1.3 3-2.8 3.7-1.5.4-2.8-.2-2.8-1.5 0-1.5 1.3-3 2.8-3.7 1.5-.6 2.8.2 2.8 1.5"/><path clip-path="url(#b)" fill="#D8505C" d="M141.8 70.3c0 1.3-1.3 2.8-2.8 3.5-1.5.4-2.8-.2-2.8-1.5 0-1.1 1.3-2.6 2.8-3.2 1.5-.7 2.8-.1 2.8 1.2"/><path clip-path="url(#b)" fill="#D8505C" d="M127.5 75.5c0 1.1-1.3 2.6-2.8 3.2-1.5.4-2.8 0-2.8-1.3 0-1.1 1.3-2.4 2.8-3 1.5-.6 2.8-.2 2.8 1.1"/><path clip-path="url(#b)" fill="#D8505C" d="M113.5 80.7c0 1.1-1.3 2.4-2.8 3-1.7.4-2.8 0-2.8-1.1 0-.9 1.3-2.4 2.8-2.8 1.5-.6 2.8-.2 2.8.9"/><path clip-path="url(#b)" fill="#D8505C" d="M99.2 85.9c0 .9-1.3 2.2-2.8 2.8-1.5.4-2.8.2-2.8-.9 0-.9 1.3-2.2 2.8-2.6 1.5-.6 2.8-.4 2.8.7"/><path clip-path="url(#b)" fill="#D8505C" d="M85 91.1c0 .9-1.3 1.9-2.8 2.6-1.5.4-2.8.2-2.8-.7 0-.9 1.3-1.9 2.8-2.4 1.5-.6 2.8-.4 2.8.5"/><path clip-path="url(#b)" fill="#D8505C" d="M70.9 96.3c0 .7-1.3 1.7-2.8 2.4-1.7.4-2.8.4-2.8-.4 0-.6 1.1-1.7 2.8-2.4 1.5-.5 2.8-.5 2.8.4"/><path clip-path="url(#b)" fill="#D8505C" d="M56.6 101.4c0 .6-1.3 1.5-2.8 2.2-1.5.4-2.8.4-2.8-.2 0-.7 1.3-1.5 2.8-2.2 1.5-.4 2.8-.4 2.8.2"/><path clip-path="url(#b)" fill="#D8505C" d="M42.4 106.6c0 .4-1.3 1.3-2.8 1.9-1.5.4-2.8.4-2.8 0s1.3-1.3 2.8-1.9c1.7-.6 2.8-.6 2.8 0"/><path clip-path="url(#b)" fill="#D8505C" d="M28.3 111.8c0-.4-1.3-.4-2.8.2-1.5.6-2.8 1.3-2.8 1.7 0 .4 1.1.2 2.8-.2 1.5-.6 2.8-1.3 2.8-1.7"/><path clip-path="url(#b)" fill="#D8505C" d="M14.1 117c0-.4-1.3-.2-2.8.4-1.5.6-2.8 1.3-2.8 1.5 0 .2 1.3 0 2.8-.4 1.5-.6 2.8-1.3 2.8-1.5"/><path clip-path="url(#b)" fill="#D8505C" d="M175.9 45.5c0 1.1-.9 2.2-1.7 2.6-1.1.4-1.9 0-1.9-1.1s.9-2.2 1.9-2.8c.9-.5 1.7.2 1.7 1.3"/><path clip-path="url(#b)" fill="#D8505C" d="M161.9 51.5c0 .9-.9 2.2-1.9 2.6-1.1.4-1.9 0-1.9-1.1 0-.9.9-2.2 1.9-2.6 1-.4 1.9 0 1.9 1.1"/><path clip-path="url(#b)" fill="#D8505C" d="M147.6 57.6c0 .9-.9 1.9-1.9 2.4-1.1.4-1.9 0-1.9-.9s.9-1.9 1.9-2.4c1.1-.4 1.9-.2 1.9.9"/><path clip-path="url(#b)" fill="#D8505C" d="M133.4 63.6c0 .9-.9 1.7-1.9 2.2-.9.4-1.7.2-1.7-.6 0-.9.9-1.7 1.7-2.4 1-.5 1.9 0 1.9.8"/><path clip-path="url(#b)" fill="#D8505C" d="M119.3 69.7c0 .6-.9 1.7-1.9 2.2-1.1.4-1.9.2-1.9-.6 0-.6.9-1.7 1.9-2.2 1.1-.5 1.9-.3 1.9.6"/><path clip-path="url(#b)" fill="#D8505C" d="M105.1 75.7c0 .6-.9 1.5-1.9 1.9-1.1.4-1.9.2-1.9-.4 0-.6.9-1.5 1.9-1.9 1-.4 1.9-.4 1.9.4"/><path clip-path="url(#b)" fill="#D8505C" d="M90.8 81.8c0 .6-.9 1.5-1.9 1.9-.9.4-1.7.2-1.7-.4 0-.6.9-1.5 1.7-1.9 1-.5 1.9-.3 1.9.4"/><path clip-path="url(#b)" fill="#D8505C" d="M76.7 87.8c0 .4-.9 1.3-1.9 1.7-1.1.4-1.9.4-1.9-.2 0-.4.9-1.3 1.9-1.7 1.1-.4 1.7-.4 1.9.2"/><path clip-path="url(#b)" fill="#D8505C" d="M62.5 93.9c0 .4-.9 1.1-1.9 1.5-1.1.4-1.9.4-1.9 0s.9-1.1 1.9-1.5c1-.5 1.9-.5 1.9 0"/><path clip-path="url(#b)" fill="#D8505C" d="M48.2 99.9c0 .4-.9 1.1-1.9 1.5-.9.4-1.7.4-1.7 0 0-.2.9-1.1 1.7-1.5 1-.4 1.9-.4 1.9 0"/><path clip-path="url(#b)" fill="#D8505C" d="M33.9 106c.2.2-.6.9-1.7 1.3s-1.9.6-1.9.2c0-.2.9-.9 1.9-1.3 1.1-.4 1.7-.6 1.7-.2"/><path clip-path="url(#b)" fill="#D8505C" d="M19.9 112c0-.2-.9-.2-1.9.4-1.1.4-1.9.9-1.9 1.1 0 .2.9 0 1.9-.4 1-.4 1.9-.9 1.9-1.1"/><path clip-path="url(#b)" fill="#D8505C" d="M5.6 118.1c0-.2-.9 0-1.9.4-1.1.5-1.7 1.1-1.7 1.1 0 .2.9 0 1.7-.4 1.1-.5 1.9-.9 1.9-1.1"/><path clip-path="url(#b)" fill="#D8505C" d="M167.7 37c0 .4-.4 1.3-1.1 1.5-.6.2-1.1 0-1.1-.7 0-.4.4-1.1 1.1-1.3.7-.3 1.1-.1 1.1.5"/><path clip-path="url(#b)" fill="#D8505C" d="M153.5 43.9c0 .4-.4 1.1-1.1 1.5-.4.2-1.1 0-1.1-.4 0-.6.6-1.3 1.1-1.5.6-.2 1.1 0 1.1.4"/><path clip-path="url(#b)" fill="#D8505C" d="M139.2 50.9c0 .4-.4 1.1-1.1 1.3-.4.4-.9.2-.9-.2 0-.6.4-1.1.9-1.5.7-.3 1.1-.1 1.1.4"/><path clip-path="url(#b)" fill="#D8505C" d="M125.2 57.8c0 .4-.6 1.1-1.1 1.3-.6.2-1.1.2-1.1-.2s.4-1.1 1.1-1.3c.4-.3 1.1-.3 1.1.2"/><path clip-path="url(#b)" fill="#D8505C" d="M110.9 64.7c0 .4-.4.9-1.1 1.3-.4.2-1.1 0-1.1-.2 0-.4.6-.9 1.1-1.3.7-.2 1.1-.2 1.1.2"/><path clip-path="url(#b)" fill="#D8505C" d="M96.6 71.6c0 .4-.4.9-.9 1.1-.6.4-1.1.2-1.1 0 0-.4.4-.9 1.1-1.1.5-.4.9-.2.9 0"/><path clip-path="url(#b)" fill="#D8505C" d="M82.6 78.5c0 .4-.6.9-1.1 1.1-.6.2-1.1.2-1.1 0s.4-.9 1.1-1.1c.4-.2 1.1-.2 1.1 0"/><path clip-path="url(#b)" fill="#D8505C" d="M68.3 85.4c0 .4-.4.9-1.1 1.1-.6.2-1.1.2-1.1 0s.4-.6 1.1-1.1c.7-.2 1.1-.2 1.1 0"/><path clip-path="url(#b)" fill="#D8505C" d="M54 92.4c0 .2-.4.6-.9 1.1-.6.2-1.1.2-1.1 0s.4-.6 1.1-.9c.5-.2.9-.5.9-.2"/><path clip-path="url(#b)" fill="#D8505C" d="M40 99.3c0 .2-.6.6-1.1.9-.6.4-1.1.4-1.1.2s.4-.4 1.1-.9c.5-.2 1.1-.2 1.1-.2"/><path clip-path="url(#b)" fill="#D8505C" d="M25.7 106.4s-.4.4-1.1.7c-.4.2-1.1.4-1.1.2 0 0 .6-.4 1.1-.7.7-.4 1.1-.4 1.1-.2"/><path clip-path="url(#b)" fill="#D8505C" d="M11.5 113.3c0-.2-.4 0-1.1.2-.4.2-.9.6-.9.6 0 .2.4 0 .9-.2.6-.1 1.1-.6 1.1-.6"/><path clip-path="url(#b)" fill="#D8505C" d="M174 21.7c0 .2-.4.6-.6.9-.4.2-.6 0-.6-.2 0-.4.2-.9.6-1.1.2 0 .6 0 .6.4"/><path clip-path="url(#b)" fill="#D8505C" d="M159.7 29.5c0 .2-.2.6-.6.9-.2.2-.4 0-.4-.2 0-.4.2-.6.4-.9.4-.3.6-.3.6.2"/><path clip-path="url(#b)" fill="#D8505C" d="M145.5 37.2c0 .2-.2.6-.4.9-.4 0-.6 0-.6-.2s.2-.6.6-.9c.2-.2.4 0 .4.2"/><path clip-path="url(#b)" fill="#D8505C" d="M131.4 45c0 .2-.4.6-.6.9-.4 0-.7 0-.7-.2s.2-.6.7-.9c.2 0 .6 0 .6.2"/><path clip-path="url(#b)" fill="#D8505C" d="M117.2 52.8c0 .2-.2.6-.6.9-.2 0-.4 0-.4-.2s.2-.4.4-.6c.3-.3.6-.3.6-.1"/><path clip-path="url(#b)" fill="#D8505C" d="M102.9 60.6c0 .2-.2.6-.4.6-.4.2-.6.2-.6 0s.2-.4.6-.6c.2-.2.4-.2.4 0"/><path clip-path="url(#b)" fill="#D8505C" d="M88.8 68.4c0 .2-.4.6-.6.6-.4.2-.6.2-.6 0s.2-.4.6-.6h.6z"/><path clip-path="url(#b)" fill="#D8505C" d="M74.6 76.4s-.2.4-.6.4c-.2.2-.4.2-.4 0l.4-.4c.4-.2.6-.2.6 0"/><path clip-path="url(#b)" fill="#D8505C" d="M60.3 84.1l-.4.4c-.4.2-.6.2-.6.2 0-.2.2-.4.6-.7.2-.1.4-.1.4.1"/><path clip-path="url(#b)" fill="#D8505C" d="M46.3 91.9s-.4.2-.6.4c-.4.2-.7.2-.7.2 0-.2.2-.4.7-.7.1.1.6-.1.6.1"/><path clip-path="url(#b)" fill="#D8505C" d="M32 99.7s-.2.2-.6.4c-.2.2-.4.2-.4.2 0-.2.2-.4.4-.4.4-.2.6-.4.6-.2"/><path clip-path="url(#b)" fill="#D8505C" d="M17.7 107.5l-.4.4c-.4.2-.6.2-.6.2s.2-.2.6-.4c.2-.2.4-.2.4-.2"/><path clip-path="url(#b)" fill="#D8505C" d="M3.7 115.3s-.4 0-.6.2c-.4.2-.7.4-.7.4s.2 0 .7-.2c.1-.2.6-.4.6-.4"/><defs><polyline id="c" points="-233.3,-499.9 630.7,-497.9 651.4,657.8 -255.8,655.7"/></defs><clipPath id="d"><use xlink:href="#c" overflow="visible"/></clipPath><path clip-path="url(#d)" fill="#231F20" d="M147.1 31.2c.6 0 1.1.5 1.1 1.1 0 .6-.5 1.1-1.1 1.1h-.4v2.2l.2.2c1.2-1 2.8-1.6 4.6-1.6 4 0 7.3 3.2 7.3 7.3 0 4-3.2 7.2-7.3 7.2-1.6 0-3.1-.5-4.4-1.5l-.4.5v3.8h.4c.6 0 1.1.5 1.1 1.1 0 .6-.5 1.1-1.1 1.1h-.4c0 1.8 0 3.9-.1 6.3h.5c.6 0 1.1.2 1.1.4s-.5.4-1.1.4h-.5c-.1 9.2-.2 21.4-.4 29.7h8.9v2.3l-4.3.7v2.3l4.3.8v3.9h-10.9c-.7 0-1.3-.2-1.5-.7v-39.2h-.7c-.6 0-1.1-.2-1.1-.4s.5-.4 1.1-.4h.6v-6.3h-.6c-.6 0-1.1-.5-1.1-1.1 0-.6.5-1.1 1.1-1.1h.6v-3.8l-.6-.6c-1.2 1-2.8 1.5-4.5 1.5-4 0-7.3-3.2-7.3-7.2s3.2-7.3 7.3-7.3c1.7 0 3.3.6 4.6 1.6l.5-.5v-1.9h-.6c-.6 0-1.1-.5-1.1-1.1 0-.6.5-1.1 1.1-1.1h5.1m-2.6 8.4c.3-.9.7-1.8 1.3-2.5l-1.2-1.2-1.3 1.4c.6.6 1 1.4 1.2 2.3m6.8 7.8c3.1 0 5.7-2.5 5.7-5.7 0-3.1-2.5-5.7-5.7-5.7-1.2 0-2.3.4-3.2 1l4.7 4.5-4.6 4.8c.8.7 1.9 1.1 3.1 1.1m-13.8 0c1.3 0 2.5-.5 3.4-1.2l-4.5-4.3 4.5-4.6c-1-.7-2.1-1.2-3.4-1.2-3.1 0-5.7 2.5-5.7 5.7 0 3.1 2.6 5.6 5.7 5.6m9.5-2l3.6-3.8-3.6-3.5c-.8 1-1.3 2.2-1.3 3.6s.5 2.7 1.3 3.7m-4.8-.4c.6-.9 1-2 1-3.2 0-1.2-.4-2.3-1.1-3.3l-3.2 3.3 3.3 3.2m2.7 2.6l1.1-1.3c-.7-.8-1.2-1.7-1.5-2.7-.3.9-.7 1.7-1.2 2.4l1.6 1.6m2.2-16.9h-5.1c-1 0-1.9.8-1.9 1.9 0 1 .7 1.8 1.7 1.9v.4c-1.3-.8-2.7-1.2-4.2-1.2-4.4 0-8.1 3.6-8.1 8.1 0 4.4 3.6 8 8.1 8 1.5 0 3-.4 4.2-1.2v2.5c-.9.1-1.7.9-1.7 1.9 0 1 .7 1.8 1.7 1.9v4.4c-1 0-1.7.5-1.7 1.2s.7 1.1 1.7 1.2v38.2l.1.2c.3.8 1.2 1.2 2.3 1.2h11.700000000000001v-5.4l-.7-.1-3.6-.7v-.9l3.6-.6.7-.1v-3.8h-8.9c.1-6.5.3-15.9.4-28.1 1-.1 1.6-.5 1.6-1.2s-.6-1.1-1.5-1.2v-4.7c.9-.2 1.5-.9 1.5-1.8s-.6-1.6-1.5-1.8v-2.3c1.2.7 2.6 1.1 4 1.1 4.4 0 8.1-3.6 8.1-8s-3.6-8.1-8.1-8.1c-1.4 0-2.8.4-4 1.1v-.4c.8-.2 1.4-.9 1.4-1.8 0-1-.8-1.8-1.8-1.8m2.3 6.6c.6-.3 1.3-.4 1.9-.4 2.7 0 4.9 2.2 4.9 4.9s-2.2 4.9-4.9 4.9c-.7 0-1.3-.1-1.9-.4l3.9-4.1.6-.6-.6-.6-3.9-3.7zm-11.9 9.3c-2.7 0-4.9-2.2-4.9-4.9s2.2-4.9 4.9-4.9c.8 0 1.5.2 2.2.5l-3.8 3.9-.6.6.6.6 3.8 3.6c-.7.4-1.5.6-2.2.6m6.9-9.3l.3-.3.2.1-.3.4c-.1 0-.2-.1-.2-.2m2.7 6.8c-.4-.7-.6-1.5-.6-2.4 0-.9.2-1.7.7-2.4l2.4 2.3-2.5 2.5zm-7.1-2.3l1.9-2c.3.6.4 1.3.4 1.9 0 .7-.1 1.3-.4 1.9l-1.9-1.8zm4.3 4.2l.2-.3c.1.2.3.4.4.7l-.1.1-.5-.5z"/><path clip-path="url(#d)" fill="#CCC9C7" d="M137.6 34c-4 0-7.3 3.2-7.3 7.3 0 4 3.2 7.2 7.3 7.2 4 0 7.3-3.2 7.3-7.2-.1-4-3.3-7.3-7.3-7.3m-.1 13.1c-3.1 0-5.7-2.5-5.7-5.7 0-3.1 2.5-5.7 5.7-5.7s5.7 2.5 5.7 5.7-2.6 5.7-5.7 5.7"/><path clip-path="url(#d)" fill="#CCC9C7" d="M151.5 34c-4 0-7.3 3.2-7.3 7.3 0 4 3.2 7.2 7.3 7.2 4 0 7.3-3.2 7.3-7.2s-3.3-7.3-7.3-7.3m-.2 13.1c-3.1 0-5.7-2.5-5.7-5.7 0-3.1 2.5-5.7 5.7-5.7 3.1 0 5.7 2.5 5.7 5.7s-2.5 5.7-5.7 5.7"/><path clip-path="url(#d)" fill="#CCC9C7" d="M146.7 47.6l-2 2-2.1-2v51.8c.5 1.1 2.8.9 3.2 0 .5-.9.9-51.8.9-51.8"/><path clip-path="url(#d)" fill="#CCC9C7" d="M144.4 33.3l-8 8.3 6.2 6 2.1 2 2-2 6-6.3-8.3-8zm1.9 12.5l-1.4 1.5-1.5-1.5-4.5-4.3 5.8-6 6 5.8-4.4 4.5z"/><polygon clip-path="url(#d)" fill="#CCC9C7" points="155.1,100.1 144.5,100.1 144.5,90.2 155.1,90.2 155.1,92.5 150.8,93.1 150.8,95.4 155.1,96.2"/><path clip-path="url(#d)" fill="#231F20" d="M155.1 100.1s0-1.1-.1-3.9c0 0 0 .1.1.1-.8-.1-2.4-.4-4.3-.7h-.2v-2.7h.2c.8-.1 2.4-.4 4.2-.7l-.3.3v-2.3l.4.4h-10.5l.4-.4c0 3.9-.1 7.4-.1 9.9l-.3-.3c6.6.2 10.5.3 10.5.3s-3.9.1-10.5.3h-.3v-.3c-.1-2.6-.1-6-.1-9.9v-.4h11.3v2.9999999999999996h-.3c-1.8.2-3.5.5-4.3.6l.2-.2c0 1 0 1.9-.1 2.3-.1-.1-.1-.2-.2-.2 1.9.4 3.5.7 4.2.9h.1v3.9"/><polygon clip-path="url(#d)" fill="#CCC9C7" points="146.7,35.8 144.7,34.7 142.6,35.9 142.6,32.2 146.7,32.2"/><path clip-path="url(#d)" fill="#CCC9C7" d="M148.1 52.4c0 .6-.5 1.1-1.1 1.1h-5c-.6 0-1.1-.5-1.1-1.1 0-.6.5-1.1 1.1-1.1h5.1c.6.1 1 .6 1 1.1"/><path clip-path="url(#d)" fill="#231F20" d="M148.1 52.4s0-.3-.2-.6c-.1-.2-.3-.3-.6-.4h-1c-.8 0-1.7.1-2.7.1h-1.6c-.4 0-.9.3-.8.9 0 .4.4.8.8.8h1.6c1 0 1.9.1 2.7.1.4 0 .7.1 1 0 .3-.1.5-.2.6-.4.3-.2.2-.5.2-.5s.1.3-.2.6c-.1.2-.3.4-.6.5l-1 .1c-.8 0-1.7 0-2.7.1h-1.6c-.7 0-1.4-.5-1.3-1.3 0-.7.7-1.3 1.3-1.3h1.6c1 0 1.9.1 2.7.1.4 0 .7 0 1 .1.3.1.5.3.6.5.3.4.2.6.2.6"/><path clip-path="url(#d)" fill="#CCC9C7" d="M148.1 60.2c0 .2-.5.4-1.1.4h-5c-.6 0-1.1-.2-1.1-.4s.5-.4 1.1-.4h5.1c.6 0 1 .1 1 .4"/><path clip-path="url(#d)" fill="#CCC9C7" d="M148.1 32.2c0 .6-.5 1.1-1.1 1.1h-5c-.6 0-1.1-.5-1.1-1.1 0-.6.5-1.1 1.1-1.1h5.1c.6.1 1 .5 1 1.1"/><path clip-path="url(#d)" fill="#231F20" d="M148.1 32.2s0-.3-.2-.6c-.1-.2-.3-.3-.6-.4h-1c-.8 0-1.7.1-2.7.1h-1.6c-.4 0-.9.3-.8.9 0 .4.4.8.8.8h1.6c1 0 1.9.1 2.7.1.4 0 .7.1 1 0 .3-.1.5-.2.6-.4.3-.2.2-.5.2-.5s.1.3-.2.6c-.1.2-.3.4-.6.5l-1 .1c-.8 0-1.7.1-2.7.1h-1.6c-.7 0-1.4-.5-1.3-1.3 0-.7.7-1.3 1.3-1.3h1.6c1 0 1.9.1 2.7.1.4 0 .7 0 1 .1.3.1.5.3.6.5.3.4.2.6.2.6"/><path clip-path="url(#d)" fill="#fff" d="M61.3 82.9l.1-3.1c-.2-3.8-.5-10.1-.5-10.1-.7.3-3.8-.8-4.2-2.6-.5-1.8-.9-10.9 0-12.9l-.1-.2c-.6-2.3-1.5-17.5 3.5-22.1 5.2-4.8 7.6-5.2 18.1-4.3h2.5c10.6-.9 12.9-.5 18.1 4.3 5.1 4.7 2.9 20.7 2.2 22.3l.1.8c.5 1.8 0 10.9-.6 12.1-.6 1.2-1.6 3-3.8 2.7.3 1.3-1 10.2-1 10.2l-.7 1v6.199999999999999l-18.4 19.8-15.2-19.7-.1-4.4z"/><path clip-path="url(#d)" fill="#231F20" d="M101.1 54.1c.6-1.6 2.9-17.6-2.2-22.3-5.2-4.8-7.6-5.2-18.1-4.3h-2.5c-10.6-.9-12.9-.5-18.1 4.3-5 4.6-4.1 19.8-3.5 22.1l.1.2c.4-.8 1.4-2.2 3.4-1.8 0 .9.7 6.4.4 8.6h1.8s-.2-4.1-.2-7.1l1.9-3.8s-1.4-4.4-1.9-6.3c-.5-1.9.5-3.8.5-3.8s2-3.9 7.7-4.4c3.4-.1 6.4 2.2 9.3 1.9h.1c2.9.2 5.9-2 9.3-1.9 5.7.5 7.7 4.4 7.7 4.4s1.1 1.9.5 3.8c-.5 1.9-1.9 6.3-1.9 6.3l-.1.3 1.9 4-.3 6.7h1.3s.8-7.5.8-8.3c0-.8 1.9-.1 2.1 1.4"/><path clip-path="url(#d)" d="M86.3 27.1c5.2 0 7.5 1.2 11.4 4.7 5.1 4.7 2.9 20.7 2.2 22.3l.1.8c.5 1.8 0 10.9-.6 12.1-.6 1.1-1.5 2.7-3.3 2.7h-.5c.2 1.4-1.2 10.3-1.2 10.3l-.6 1v2.9h1.6l4.9 5.7c9.4 3.4 29.4 14 29.4 14l8.5 26.5h-125.9l13.3-29.6 32.7-15.7 1.9-2 .1-3.1c-.2-3.8-.5-10.1-.5-10.1l-.3.1c-1 0-3.5-1-3.9-2.7-.5-1.8-.9-10.9 0-12.9l-.1-.2c-.6-2.3-1.5-17.5 3.5-22.1 3.8-3.5 6.1-4.7 11.3-4.7 1.8 0 4 .1 6.8.4h2.5c2.7-.3 4.9-.4 6.7-.4m0-1c-1.7 0-3.7.1-6.8.4h-2.4c-3.1-.3-5.2-.4-6.8-.4-5.7 0-8.2 1.5-12 5-5.3 4.9-4.5 20.3-3.8 23.1-.9 2.9-.3 11.5.1 13.2.5 1.9 2.8 3.1 4.2 3.4.1 1.9.4 6.2.5 9.1l-.1 2.7-1.5 1.6-32.6 15.5h-.1l-.1.1-13.2 29.6-1.5 1.7h130.00000000000003l-1.1-1.6-8.5-26.5-.1-.2-.2-.1c-.8-.4-19.8-10.6-29.3-14l-4.8-5.5-.3-.3h-1.2v-1.6l.5-.7.1-.2v-.2c.2-1.3 1-6.9 1.2-9.5 2.2-.3 3.2-2.3 3.7-3.2.8-1.6 1.2-10.7.7-12.7l-.1-.6c.7-2.7 2.8-18.1-2.6-23.1-3.7-3.5-6.2-5-11.9-5"/><polygon clip-path="url(#d)" fill="#231F20" points="12.3,130.1 25.6,100.5 60.3,83.9 57.7,130.1"/><path clip-path="url(#d)" fill="#fff" d="M60.3 83.9l-2.7 46.2h-45.3l13.3-29.6 34.7-16.6zm.3-.4l-.4.2-34.7 16.6-13.3 29.7-.4.4h46.1v-.2l2.7-46.2v-.5z"/><path clip-path="url(#d)" fill="#231F20" d="M96.9 88.6l-7 41.5h48.4l-8.5-26.5s-26.5-14.2-32.9-15"/><path clip-path="url(#d)" fill="#fff" d="M96.9 88.6c6.4.8 32.9 15 32.9 15l8.5 26.5h-48.4l7-41.5m-.2-.2v.2l-7 41.5-.1.3h49.199999999999996l-.3-.4-8.5-26.5c-1.1-.6-26.6-14.2-33-15l-.3-.1z"/><polygon clip-path="url(#d)" fill="#fff" points="53.8,130.1 58.9,94.4 59.4,91.1 60.1,86.2 67.9,96.1 75.1,105.3 83.4,96.9 93.8,86.2 93.8,92.1 93.8,95 91.6,130.1"/><polygon clip-path="url(#d)" fill="#231F20" points="57.7,130.1 60.3,82.7 37.7,107 45.5,130.1"/><path clip-path="url(#d)" fill="#fff" d="M60.3 82.7l-2.7 47.5h-12.1l-7.8-23.2 22.6-24.3zm.3-.7l-.5.5-22.6 24.4-.1.1v.1l7.8 23.1.1.2h12.499999999999998v-.2l2.7-47.5.1-.7z"/><polygon clip-path="url(#d)" fill="#231F20" points="93.8,83.9 93.8,95 89.9,130.1 99.6,130.1 114,105.3 95.5,83.9"/><path clip-path="url(#d)" fill="#fff" d="M95.5 83.9l18.5 21.4-14.4 24.9h-9.7l3.9-35.2v-11.1h1.7zm.1-.2h-1.9000000000000001v11.299999999999999l-3.9 35.1v.3h10.1l.1-.1 14.4-24.9.1-.2-.1-.1-18.8-21.4z"/><polygon clip-path="url(#d)" fill="#231F20" points="93.8,95 93.8,92.1 79.2,106.4 83.1,106.4"/><path clip-path="url(#d)" fill="#231F20" d="M58.9 94.4l.5-3.3c.9 1.2 12.2 15.9 12.2 15.9h-4.1l-8.6-12.6z"/><path clip-path="url(#d)" fill="#231F20" d="M72.5 106.4s-9.7-4.7-12.1-4.8c-1.2 1.6-1.4 14.4 2.1 18.5 1-.2 10.1-7.2 10.1-7.2 1.6 1 4.5.6 5.3 0 0 0 4.1 7 9.9 8.4 1.4-1.4 3.9-16.4 3.7-17.9-.2-1.4-10.7 1.9-13.2 3.6-.1 0-.5-2.5-5.8-.6"/><path clip-path="url(#d)" fill="#231F20" d="M77.8 112.9c-.8.6-3.7 1-5.3 0v-6.5c5.3-2 5.8.6 5.8.6l-.5 5.9z"/><polygon clip-path="url(#d)" fill="#fff" points="75.1,105.3 67.9,96.1 65.3,111.4"/><path clip-path="url(#d)" fill="#231F20" d="M75.1 105.3s-3.7 2.5-9.7 6.4l-.5.4.1-.7c.3-1.9.7-4.7 1.2-7.8.5-3 1-5.8 1.4-7.6l.1-.7.4.5c4.4 5.8 7 9.5 7 9.5s-2.9-3.4-7.5-9c.1 0 .3-.1.5-.1-.3 1.8-.7 4.7-1.2 7.7s-1 5.9-1.4 7.7c-.2-.1-.4-.2-.4-.3 6.2-3.8 10-6 10-6"/><polygon clip-path="url(#d)" fill="#fff" points="83.4,96.9 75.1,105.3 84.3,111.4"/><path clip-path="url(#d)" fill="#231F20" d="M83.4 96.9s.7 5.9 1.3 14.6l.1.7-.6-.4c-.8-.5-2.1-1.4-3.4-2.3-2.3-1.5-4.4-3-5.7-3.9l-.3-.2.3-.3c4.9-5.1 8.3-8.2 8.3-8.2s-3 3.4-8 8.6v-.5c1.4.9 3.6 2.3 5.8 3.8 1.3.9 2.6 1.8 3.4 2.3-.2.1-.4.3-.5.3-.6-8.6-.7-14.5-.7-14.5"/><path clip-path="url(#d)" fill="#231F20" d="M60.3 79.8s.2 1.1.3 2.9c0 1 0 2.5-.1 4-.2 3.8-.8 6.9-.8 6.9s-.2-3.1 0-6.9c.1-1.6.2-3 .4-4 .1-1.8.2-2.9.2-2.9"/><path clip-path="url(#d)" fill="#231F20" d="M93.8 95s-.4-3.1-.4-7 .4-7 .4-7 .4 3.1.4 7-.4 7-.4 7"/><path clip-path="url(#d)" fill="#231F20" d="M96.3 62.9s-.2 2.1-.5 6.8c0 2.2-.5 5.9-1 10.4v.1c-.1.1-.4.5-.7.9-2.7 3.2-6.9 8.1-11.6 13.5l-.1.1h-8.7l-.1-.1c-1.3-1.5-2.5-3-3.7-4.4l-1.8-2.1-.9-1-.9-.9c-2.4-2.4-4.6-4.4-6.3-6.3v-.2c-.2-5.3-.4-9.5-.5-12.4 0-1.4 0-2.6.1-3.3 0-.4.1-.7.1-.8v0c0 .2-.1.5-.1.9-.1.7 0 1.9.1 3.3.2 2.9.5 7.1.8 12.4v-.1c1.7 1.8 4 3.8 6.4 6.2l.9.9.9 1 1.8 2.1c1.2 1.4 2.5 2.9 3.8 4.4l-.3-.1h8.3c-.1.1-.2.1-.3.1 4.7-5.4 9-10.2 11.8-13.3.3-.4.6-.8.7-.9v.1c.7-4.5 1.2-8.1 1.3-10.3.3-4.8.5-7 .5-7"/><path clip-path="url(#d)" fill="#231F20" d="M76 70.7s-.2-4-.3-9.9c0 0 .1.2.1.3-.6-.5-1.7-1.3-2.7-2.1-1.5-1.1-2.8-2.2-4.1-3.1-.6-.5-1.2-.9-1.8-1.3-.3-.2-.6-.4-.8-.5l-.2-.1h-.2s-.2.1-.3.2c-.9.8-1.5 1.6-1.9 2.1-.4.5-.7.8-.7.8l.6-.9c.4-.6.9-1.4 1.8-2.3.1-.1.2-.2.5-.3h.30000000000000004c.1 0 .2 0 .2.1.4.1.7.3 1 .5l1.9 1.2c1.3.9 2.8 1.9 4.2 3 1.1.8 2.1 1.6 2.7 2.1l.1.1v.2c-.2 6-.4 9.9-.4 9.9"/><path clip-path="url(#d)" fill="#fff" d="M81.9 83.9c1.7-1.6 1.7-5.8 1.7-7h-10.5c-.2 1.7 0 4.7 1.6 7h7.2z"/><path clip-path="url(#d)" fill="#231F20" d="M76 73.6s.1.1.4.2l.4.2c.2.1.4.1.6.1.5.1 1.1.1 1.7-.1.6-.2 1.3-.7 1.6-1.4v.1c-.1-2.7-.2-6.6-.2-10.8v-1.1l.2-.1c4.4-2.6 8.2-4.7 10.2-5.8l.1-.1.1.1c1.6 2.2 2.3 3.2 2.3 3.2s-.8-.9-2.6-3h.2c-1.9 1.2-5.6 3.6-10 6.2 0-.1.1-.2.2-.3v.9c0 4.2-.1 8.1-.2 10.8-.4.9-1.2 1.3-1.9 1.6-.7.2-1.3.2-1.8 0-.2-.1-.5-.1-.6-.2-.2-.1-.3-.2-.4-.2l-.3-.3"/><path clip-path="url(#d)" fill="#231F20" d="M75.1 73.2l-.1.1c-.1.1-.2.2-.4.3-.2.1-.5.2-.8.2-.4 0-.7-.4-.8-.8-.2-.8 0-1.3.2-1.7.2-.4.4-.6.4-.6s-.1 1.1.2 2.1c.1.2.2.3.3.4.2.1.4.1.6.1.2 0 .4 0 .5-.1h-.1"/><path clip-path="url(#d)" fill="#231F20" d="M74.7 83.9l-6.2-7h4.5c-.1 1.8.1 4.7 1.7 7"/><path clip-path="url(#d)" fill="#231F20" d="M83.6 76.9h3.9l-5.6 7c1.7-1.6 1.7-5.8 1.7-7"/><path clip-path="url(#d)" fill="#231F20" d="M80.9 72.6s.1 0 .2.1.3.2.6.2c.2.1.5.1.7.1.1 0 .2-.3.1-.7 0-.7-.2-1.4-.4-1.8-.1-.2-.2-.4-.2-.6-.1-.1-.1-.2-.1-.2s.1.1.2.1c.1.1.3.2.5.4.4.4.8 1.1.8 2 0 .2 0 .5-.1.7-.1.2-.3.5-.6.6-.1.1-.3 0-.4 0-.1 0-.2 0-.3-.1-.2-.1-.3-.2-.4-.3-.2-.2-.4-.3-.5-.5-.1.1-.1 0-.1 0"/><path clip-path="url(#d)" fill="#231F20" d="M68.6 76.9s2.2 2.4 6.3 6.8c0 0-.1 0-.2-.1 1.5 0 4.2-.1 7.1-.1 0 0-.2.1-.3.1.8-1 2.2-2.7 3.5-4.5l2-2.5c.1.3.2.4.3.6-10.8 0-18.7-.3-18.7-.3s8-.3 18.9-.4h.7l-.5.6c-.5.6-1.2 1.5-2 2.5-1.4 1.7-2.8 3.4-3.6 4.4l-.1.2h-.2c-2.9 0-5.6-.1-7.1-.1h-.1v-.1c-4-4.6-6-7.1-6-7.1"/><path clip-path="url(#d)" fill="#231F20" d="M89.5 78.7s0-.3-.1-.7c-.1-.4-.2-.9-.4-1.5-.1-.6-.2-1.2-.3-1.5-.1-.4-.2-.7-.2-.7s.3.1.5.5c.3.4.6.9.7 1.6.1.6.1 1.3 0 1.7 0 .3-.2.6-.2.6"/><path clip-path="url(#d)" fill="#231F20" d="M66.3 80.4s-.3-.3-.6-.7c-.2-.3-.3-.6-.5-1-.1-.4-.2-.8-.2-1.3 0-1 .3-1.8.7-2.3.2-.3.3-.5.5-.6l.2-.2s0 .1-.1.2c-.1.2-.2.4-.2.7-.1.5-.3 1.3-.3 2.2 0 .4 0 .8.1 1.2l.2 1 .2.8"/><path clip-path="url(#d)" fill="#231F20" d="M89.6 61.7c-.4-.2-3.8 0-4.4 0-.1 1.3.3 2.9 2.2 2.9 1.8 0 2.2-2 2.2-2.9"/><path clip-path="url(#d)" fill="#231F20" d="M68.2 61.7c.4-.2 3.8 0 4.4 0 .1 1.3-.3 2.9-2.2 2.9-1.9 0-2.2-2-2.2-2.9"/><path clip-path="url(#d)" fill="#231F20" d="M91.1 64v-.5c0-.1 0-.3-.1-.5-.1-.1-.3-.3-.5-.4-.4-.3-.9-.7-1.5-1.1-.2-.1-.5-.1-.9-.1h-3.6c-.6.3-1.1.7-1.5 1v-.1c-.1 1.1-.2 1.6-.2 1.6s-.1-.6-.2-1.6v-.1l.1-.1c.4-.4.8-.9 1.5-1.3.1-.1.2-.1.4-.1h.8999999999999999c.4 0 .8 0 1.3-.1h1.7999999999999998c.2 0 .5.1.7.2.6.4 1 1 1.4 1.4l.5.6v.6c-.1.4-.1.6-.1.6"/><path clip-path="url(#d)" fill="#231F20" d="M89 61.1v.5c0 .3 0 .8-.3 1.4-.1.1-.2.3-.2.4-.1.1-.2.3-.4.4-.3.2-.8.4-1.1.5h-.6c-.2 0-.4-.1-.7-.2-.5-.2-.9-.5-1.1-1-.4-.8-.4-1.6-.3-2.1v-.3h.3c2.7 0 4.5.3 4.4.4 0-.1-1.7.1-4.4.3l.3-.3c0 .4 0 1.1.3 1.7.3.7 1.1.9 1.7.9.4 0 .6-.1.9-.3l.3-.3.3-.3c.3-.5.4-.9.5-1.2.1-.3.1-.5.1-.5"/><path clip-path="url(#d)" fill="#231F20" d="M65.6 64s0-.2-.1-.5v-.6c.1-.2.3-.4.5-.6.4-.4.8-.9 1.4-1.4.2-.2.5-.2.7-.2h1.7999999999999998c.4 0 .9 0 1.3.1h.8999999999999999l.4.1c.7.4 1.1.9 1.5 1.3l.1.1v.1c-.1 1.1-.2 1.6-.2 1.6s-.1-.6-.2-1.6c0 0 0 .1.1.1-.4-.3-.9-.7-1.5-1h-3.6000000000000005c-.4 0-.8 0-.9.1-.6.4-1 .8-1.5 1.1-.2.2-.4.3-.5.4-.1.2-.1.4-.1.5-.1.2-.1.4-.1.4"/><path clip-path="url(#d)" fill="#231F20" d="M67.6 61.1s0 .2.1.5.2.7.5 1.2l.3.3.3.3c.2.1.5.2.9.3.6 0 1.4-.2 1.7-.9.3-.6.3-1.2.3-1.7.2.1.2.2.3.3-2.6-.2-4.3-.4-4.4-.3 0-.1 1.8-.3 4.4-.3h.3v.3c0 .5.1 1.3-.3 2.1-.2.4-.6.8-1.1 1-.2.1-.4.2-.7.2h-.6c-.3 0-.8-.2-1.1-.5l-.4-.4c-.1-.3-.1-.4-.2-.5-.2-.6-.3-1-.3-1.4v-.5"/><path clip-path="url(#d)" fill="#231F20" d="M97.7 31.8l.2.2c.2.2.4.4.7.8.5.8 1.2 2 1.7 3.9.5 1.8.8 4.2.8 7.2 0 1.5 0 3.1-.2 4.8l-.3 2.7c-.1.9-.2 1.9-.6 2.9l-.2.6-.1-.6c-.1-.4-.4-1-1-1.4-.2-.1-.3-.2-.5-.2s-.3 0-.3.1c0 .4-.1.9-.1 1.4-.2 2-.4 4.4-.7 6.9v.2h-1.7v-.2c0-1.1 0-3.8.1-6.7v.1c-.3-.7-1.1-2.3-1.9-4l-.1-.1.1-.1s.1-.2.1-.3c.5-1.7 1.1-3.6 1.7-5.6.8-2 0-4.4-1.8-6-.9-.8-2-1.4-3.2-1.9-.6-.2-1.2-.4-1.9-.4-.7-.1-1.3-.1-1.9 0-1.3.2-2.6.6-4 1-1.3.4-2.8.9-4.3.8h-.8c-1.4-.1-2.6-.6-3.8-1-1.2-.4-2.4-.8-3.6-.9h-.9c-.3 0-.6 0-.9.1-.6.1-1.2.2-1.8.4-1.1.4-2.2.9-3.1 1.7-.9.7-1.7 1.6-2 2.6-.4 1-.5 2.1-.2 3.1.5 2.1 1.2 4.1 1.8 6.1v.2c-.7 1.5-1.3 2.7-1.9 3.8v-.1c.1 2.8.1 5 .2 7.1v.3h-2.4v-.3c.2-1.7 0-3.2 0-4.6-.1-1.4-.2-2.7-.3-3.9l.2.2c-.8-.2-1.5-.1-2.1.3-.5.3-.9.8-1.1 1.3l-.2.4-.1-.4c-.3-1-.3-1.8-.4-2.7-.1-.9-.1-1.7-.1-2.5 0-1.6 0-3.2.1-4.6.2-2.9.6-5.3 1.1-7.2.5-1.9 1.2-3.4 1.9-4.2.3-.4.6-.7.8-.9l.3-.3-.3.3c-.2.2-.4.5-.7.9-.6.9-1.3 2.3-1.8 4.2-.5 1.9-.9 4.4-1 7.2-.1 1.4-.1 2.9 0 4.6 0 .8.1 1.6.2 2.5.1.8.1 1.8.4 2.5h-.3c.3-.6.6-1.1 1.2-1.5.6-.4 1.5-.6 2.4-.4h.2v.2c.1 1.2.2 2.5.3 3.9.1 1.4.3 2.9.1 4.8-.1-.1-.1-.2-.3-.3h1.8l-.3.3c-.1-2.1-.2-4.3-.3-7.1v-.2c.5-1.1 1.1-2.3 1.8-3.8v.2c-.6-1.9-1.3-4-1.9-6.1-.4-1.2-.2-2.4.2-3.6.4-1.2 1.3-2.1 2.2-2.9 1-.8 2.1-1.4 3.3-1.8.6-.2 1.2-.3 1.9-.4.3-.1.6-.1 1-.1h1c2.6.2 5 1.6 7.4 1.9h.8c1.3.1 2.7-.4 4-.8 1.3-.4 2.7-.9 4.1-1.1.7-.1 1.4-.1 2.1 0 .7.1 1.4.3 2 .5 1.3.4 2.5 1.1 3.4 2 2 1.7 2.9 4.6 2 6.7-.6 2.1-1.2 4-1.8 5.6-.1.1-.1.2-.1.3v-.3c.8 1.7 1.6 3.3 1.9 4v.2c-.1 2.8-.1 5.6-.2 6.7l-.2-.2h1.3l-.2.2c.3-2.5.5-4.9.7-6.9 0-.5.1-1 .1-1.4 0-.2.2-.4.3-.4h.4c.2 0 .4.1.6.3.7.4 1.1 1.1 1.1 1.7h-.3c.3-.9.4-1.9.6-2.8l.3-2.7c.2-1.7.2-3.3.2-4.8 0-2.9-.3-5.3-.7-7.2-.4-1.8-1.1-3.1-1.6-3.9-.3-.4-.5-.6-.6-.8.1-.2 0-.3 0-.3"/><path clip-path="url(#d)" fill="#231F20" d="M95.6 69.7h.7c.4-.1 1.1-.3 1.6-.8.1-.1.3-.3.4-.5.1-.2.2-.4.4-.6.2-.4.5-.9.6-1.3.2-1 .3-2.2.4-3.4.2-2.5.3-4.7.3-6.3v-2.5999999999999996s.1.2.2.7c.1.4.2 1.1.3 1.9.2 1.6.2 3.9 0 6.4-.1 1.2-.2 2.4-.5 3.5-.1.6-.5 1-.7 1.4l-.4.6-.5.5c-.7.6-1.4.7-1.8.7-.7-.2-1-.2-1-.2"/><path clip-path="url(#d)" fill="#231F20" d="M55.5 54.1v.2c0 .1-.1.3-.1.5-.1.5-.1 1.1-.1 1.9 0 1.6.1 3.9.2 6.4.1 1.2.1 2.5.3 3.5.1 1 .9 1.7 1.5 2.1 1.4.9 2.5.9 2.4.8 0 .1-1.1.3-2.6-.5-.4-.2-.8-.5-1.1-.8-.4-.3-.7-.9-.8-1.5-.2-1.1-.3-2.3-.4-3.6-.1-2.5-.1-4.9.1-6.5.1-.8.2-1.5.4-1.9.1-.2.1-.4.2-.5v-.1"/><path clip-path="url(#d)" fill="#231F20" d="M93.8 86.2s-2.1 2.7-5 5.6c-2.9 3-5.5 5.1-5.5 5.1s2.1-2.7 5-5.6c2.9-3 5.5-5.1 5.5-5.1"/><path clip-path="url(#d)" fill="#231F20" d="M67.9 96.1s-2-2-4.2-4.7c-2.1-2.7-3.6-5.2-3.6-5.2s2 2 4.2 4.7 3.6 5.2 3.6 5.2"/><rect x="77.9" y="107" transform="matrix(.998 .071 -.071 .998 7.979 -5.247)" clip-path="url(#d)" fill="#fff" width=".2" height="5.9"/><rect x="72.3" y="106.4" clip-path="url(#d)" fill="#fff" width=".2" height="6.5"/><path clip-path="url(#d)" fill="#231F20" d="M76 60.9s-.8-.4-2.2-1.2c-1.3-.8-3.1-1.9-4.9-3.2-.9-.6-1.8-1.3-2.6-1.8l-.2-.1-.2-.1h0c-.1 0-.2.1-.2.2l-.9.8c-1.1 1-1.8 1.7-1.8 1.7s.4-.9 1.2-2.2c.2-.3.4-.7.7-1.1l.3-.3.2-.2.1-.1.3-.1h.5c.1 0 .3.1.5.2 1.1.5 1.9 1 2.9 1.7 1.9 1.3 3.5 2.8 4.5 3.8 1.1 1.3 1.8 2 1.8 2"/><path clip-path="url(#d)" fill="#231F20" d="M80.9 60.9s2.6-2.4 6.4-4.6c1.3-.8 2.6-1.4 3.5-1.8l.5-.2.2.3c1.4 2.1 2 3.4 2 3.4s-1.2-1-2.9-2.8c.2 0 .4.1.7.1-.8.6-1.9 1.4-3.2 2.2-3.8 2.2-7.2 3.4-7.2 3.4"/></svg>