<svg xmlns="http://www.w3.org/2000/svg" xmlns:xlink="http://www.w3.org/1999/xlink" viewBox="0 0 178.1 131.4" enable-background="new 0 0 178.1 131.4"><rect x="2.8" y="108.6" fill="#D8505C" width="175.3" height="22.8"/><rect x="2.8" y="8.1" fill="#D8505C" width="175.3" height="50.1"/><rect x="2.8" y="58.4" fill="#D8505C" width="175.3" height="50.2"/><polygon fill="#AEB0B3" points="5.6,58.3 5.6,108.7 178.1,108.7 178.1,108.4 5.9,108.4 5.9,58.6 178.1,58.6 178.1,58.3"/><defs><rect id="a" x="2.8" y="1.7" width="175.3" height="129.6"/></defs><clipPath id="b"><use xlink:href="#a" overflow="visible"/></clipPath><path clip-path="url(#b)" fill="#fff" d="M27.8 27.1v7.9h-1.3v-6.5c-.1-.5-1.3-.5-1.5-.5-.2 0-1.5.1-1.5.6v7.7c-.4-.1-.8.1-1.2.4-.4-.3-.8-.5-1.2-.4v-7.7c-.2-.6-1.4-.6-1.6-.6-.2 0-1.5 0-1.5.6v7.7c-1.3-.2-2.7 2.1-2.7 2.7v20.4h22.1c.3-2.9 1.1-24.3-1.5-24.3h-3.4v-7.9c.3-.9-1.7-1.3-2.2-1.3h-.3c-.5 0-2.6.3-2.2 1.2"/><polygon clip-path="url(#b)" fill="#CBCDCF" points="61.8,28 61.8,28 61.9,28"/><path clip-path="url(#b)" fill="#fff" d="M60.3 28.6v7.7c-.3 0-.6 0-.8.2-.4-3.4-1.3-5.8-2.9-5.6v-10c.8-1.7.3-3.4-2.2-3.4s-3.1 1.7-2.2 3.4v9.6h-7.3l.1 2.6h2v2.5h-3c-10.7.8-1.7 22 .9 23.8h21.1v-20.4c0-.6-1.4-2.9-2.7-2.7v-7.7c0-.6-1.3-.6-1.5-.6-.2 0-1.4 0-1.5.6"/><polygon clip-path="url(#b)" fill="#CBCDCF" points="6.9,19.8 7,19.8 7,19.8"/><path clip-path="url(#b)" fill="#fff" d="M13.2 36.2c0-.7-2.1-3.3-4-3.1v-12.6c-.1-.6-1.9-.7-2.2-.7-.3 0-2.1.1-2.2.7v12.6c-2-.2-4 2.4-4 3.1v23.2h12.5v-23.2z"/><polygon clip-path="url(#b)" fill="#CBCDCF" points="19.5,28 19.5,28 19.5,28"/><polygon clip-path="url(#b)" fill="#CBCDCF" points="24.9,28 25,28 25,28"/><path clip-path="url(#b)" fill="#fff" d="M192.8 36.5c-2-2.6-5.5-5.5-5.7-9-.2-3.4-1-11.4-1-11.4h-5.3s-.9 7.9-1 11.4c-.1 1.4-.7 2.7-1.5 4h-.1v.1c-.6.9-1.3 1.7-2 2.5 0-.3-.1-.5-.1-.6-.5-.7-1.4-1.7-2.9-2.3-1.5-.6-.7-10.2-.7-10.2h1.2l-.9-5.2h-5.1l-.9 5.2h1.2s.9 9.6-.7 10.2c-1.5.6-2.4 1.6-2.9 2.3v-5c-.1-.6-1.3-.6-1.5-.6-.2 0-1.5.1-1.5.6v7.7c-.2 0-.5 0-.7.1 0-3-.1-5-.2-5-.5 0-3.1-1-3.1-1.8v-7.7l.7-1v-5h-6.3v5l.7 1v7.7c0 .8-2.6 1.8-3.1 1.8s0 28.1 0 28.1h23.800000000000004v.1h1v.1h18.8c1-4.4 1.8-20.5-.2-23.1"/><polygon clip-path="url(#b)" fill="#CBCDCF" points="162.7,28 162.8,28 162.8,28"/><path clip-path="url(#b)" fill="#CBCDCF" d="M46.6 70h0z"/><path clip-path="url(#b)" fill="#CBCDCF" d="M66 70h0z"/><path clip-path="url(#b)" fill="#fff" d="M68.3 83.3v-12.6c-.1-.6-2-.7-2.3-.7-.3 0-2.1.1-2.2.7v8.6c-.9-1-2.3-1.8-3.6-1.7v-15.3c-.1-.8-2.3-.8-2.7-.8-.4 0-2.6.1-2.7.8v15.4c-2.4-.3-4.9 2.9-4.9 3.8v2c-.3-.1-.7-.2-1-.1v-12.7c-.1-.6-1.9-.7-2.3-.7-.3 0-2.1.1-2.2.7v12.6c-2-.2-4 2.4-4 3.1v23.2h31.9v-23.2c0-.7-2.1-3.3-4-3.1"/><path clip-path="url(#b)" fill="#CBCDCF" d="M57.4 61.5h0z"/><path clip-path="url(#b)" fill="#fff" d="M3.8 109.8h30.1s.1-19.6 0-20.7c-.1-1 .1-3.7-2.1-3.7v-9.9h1.1v-3.2s-2.4-.1-2.8 0h-.3c-.3-.1-2.8 0-2.8 0v3.2h1.1v9.9c-.6 0-1 .2-1.3.5-.3-.3-.7-.5-1.3-.5v-9.9h1.1v-3.2s-2.4-.1-2.8 0h-.3c-.3-.1-2.8 0-2.8 0v3.2h1.1v9.9h-.3c-2-2.3-4.5-4.8-4.6-7.7-.2-3.4-1-11.4-1-11.4h-5.3s-.9 7.9-1 11.4c-.2 3.4-3.7 6.4-5.7 9-.3.3-.5.9-.6 1.6v-2.2l1.1-.7v-3.6h-7v3.6l1.1.7v2.1c0 .6-5.4 1.3-6.2 1.3-.8 0 0 20.2 0 20.2l11.5.1"/><path clip-path="url(#b)" fill="#CBCDCF" d="M45.4 137.2v-12.6c-.1-.6-1.9-.7-2.2-.7-.3 0-2.1.1-2.2.7v12.6c-2-.2-4 2.4-4 3.1v23.2h12.5v-23.2c-.1-.7-2.1-3.4-4.1-3.1"/><polygon clip-path="url(#b)" fill="#CBCDCF" points="43.1,123.8 43.2,123.8 43.2,123.8"/><path clip-path="url(#b)" fill="#fff" d="M34.2 140.4c-.1-1.8-.4-3.3-.6-4.3v-3.5c-.1-.6-1.3-.6-1.5-.6-.2 0-1.5.1-1.5.6v2.1h-1.3v-9.4c.3-1.1-1.7-1.5-2.2-1.5h-.1c-.5 0-2.5.4-2.2 1.5v9.4h-3.4c-.3 0-.6.4-.9 1.2 0-2.4-.1-3.9-.2-3.9-.4 0-2.4-1.1-2.4-2v-8.5l.5-1.1v-5.5h-5v5.5l.5 1.1v8.5c0 .9-2 2-2.4 2-.2 0-.2 4.8-.2 10.6-1.1-.2-2-.5-2-.7v-2.1l1.1-.7v-3.6h-7v3.6l1.1.7v2.1c0 .6-5.4 1.3-6.2 1.3-.8 0 0 20.2 0 20.2h17.3v-.2h4.2v.3h16.6v-20.5c-.1-.5-1.1-2.2-2.2-2.6"/><path clip-path="url(#b)" fill="#fff" d="M181.3 86.6v-7.7c-.1-.6-1.3-.6-1.5-.6-.2 0-1.5.1-1.5.6v7.7c-.2 0-.5 0-.7.1 0-3-.1-5-.2-5-.5 0-3.1-1-3.1-1.8v-7.7l.7-1v-5h-6.3v5l.7 1v7.7c0 .8-2.6 1.8-3.1 1.8-.1 0-.2 2.2-.2 5.3-.4-.3-.8-.4-1.2-.4v-7.7c-.1-.6-1.3-.6-1.5-.6-.2 0-1.5.1-1.5.6v7.7c-.6-.1-1.2.3-1.7.9-.5-2.7-1.3-4.4-2.7-4.2v-6.5c.8-1.7.3-3.4-2.2-3.4s-3.1 1.7-2.2 3.4v6.5c-5.5-.7-2.4 26.5-2.4 26.5h33.8v-20.5c-.4-.6-1.8-2.9-3.2-2.7"/><path clip-path="url(#b)" fill="#CBCDCF" d="M163.2 78.3z"/><polygon clip-path="url(#b)" fill="#CBCDCF" points="155,73.3 155.1,73.3 155.1,73.3"/><polygon clip-path="url(#b)" fill="#CBCDCF" points="173,123.6 173.1,123.6 173.1,123.6"/><path clip-path="url(#b)" fill="#fff" d="M175.3 137v-12.6c-.1-.6-1.9-.7-2.2-.7-.3 0-2.1.1-2.2.7v12.6c-.5-.1-1 .1-1.5.3v-8.3h1.1v-3.2s-2.4-.1-2.8 0h-.3c-.3-.1-2.8 0-2.8 0v3.2h1.1v9.1c-.8-.7-1.8-1.3-2.8-1.2v-12.6c-.1-.6-1.9-.7-2.2-.7-.3 0-2.1.1-2.2.7v12.7c-2-.2-4 2.4-4 3.1v23.2h25v-23.2c-.2-.7-2.2-3.4-4.2-3.1"/><polygon clip-path="url(#b)" fill="#CBCDCF" points="160.5,123.6 160.6,123.6 160.6,123.6"/><path clip-path="url(#b)" fill="#fff" d="M15.9 9.3h12.5v-23.2c0-.7-2.1-3.3-4-3.1v-12.6c-.1-.6-1.9-.7-2.2-.7-.3 0-2.1.1-2.2.7v12.6c-.5-.1-1 .1-1.5.3v-8.3h1.1v-3.2s-2.4-.1-2.8 0h-.3c-.3-.1-2.8 0-2.8 0v3.2h1.1v9.1c-.8-.7-1.8-1.3-2.8-1.2v-12.6c-.1-.6-1.9-.7-2.2-.7-.3 0-2.1.1-2.2.7v12.7c-2-.2-4 2.4-4 3.1v23.2h12.299999999999999z"/><path clip-path="url(#b)" fill="#fff" d="M42.3 9.3l15.2.1v-.1h4.4s.4-31.2 0-31.2-2.4-1.1-2.4-2v-8.5l.5-1.1-6.5-5.5h-5l6.5 5.5.5 1.1v8.5c0 .5-.7 1.1-1.4 1.5-.5-.2-1-.3-1.5-.3l-6.4-15.3c-.1-.8-2.3-.8-2.7-.8-.4 0-2.6.1-2.7.8l6.5 15.4c-2.4-.3-4.9 2.9-4.9 3.8v.2h-5.4v3.6l1.1.7v2.1c0 .6-5.4 1.3-6.2 1.3-.8 0 0 20.2 0 20.2h10.4z"/><path clip-path="url(#b)" fill="#fff" d="M74.8-13.8v-7.7c-.1-.6-1.3-.6-1.5-.6-.2 0-1.5.1-1.5.6v7.7c-.4-.1-.8.1-1.2.4-.4-.3-.8-.5-1.2-.4v-7.7c-.1-.6-1.3-.6-1.5-.6-.2 0-1.5.1-1.5.6v7.7c-1.3-.2-2.7 2.1-2.7 2.7v20.4h13.9v-20.4c-.1-.6-1.5-2.9-2.8-2.7"/><path clip-path="url(#b)" fill="#fff" d="M156.4 9.3h7.8v-.1h15.7s.4-31.2 0-31.2-2.4-1.1-2.4-2v-8.5l.5-1.1-6.5-5.5h-5l6.5 5.5.5 1.1v8.5c0 .9-2 2-2.4 2-.2 0-.2 4.7-.2 10.4-1.1-.2-2-.5-2-.7v-2.1l1.1-.7v-3.6h-7c-.4-.4-.8-.6-1.3-.6v-10c.8-1.7.3-3.4-2.2-3.4s-3.1 1.7-2.2 3.4v10c-1.6-.2-2.5 2.2-2.9 5.6-.3-.1-.5-.2-.8-.2v-7.7c-.1-.6-1.3-.6-1.5-.6-.2 0-1.5.1-1.5.6v7.7c-1.3-.2-2.7 2.1-2.7 2.7v20.5h8.5z"/><path clip-path="url(#b)" fill="#9C9EA1" d="M53.1 16.3c.2 0 .2-.2 0-.2s-.2.2 0 .2v-.2c-.2 0-.2.2 0 .2"/><path clip-path="url(#b)" fill="#CCC9C7" d="M26.4 25.9v7.9c0 .2.3 0 .1 0-.2 0-1 0-1 .1v-6.4c0-.8-1.6-.8-2.1-.7-.5 0-1 .1-1.3.5-.1.2 0 .6 0 .8v6.8999999999999995c0-.3-1.1.3-1.2.4h.3c-.1-.1-1.2-.7-1.2-.4v-7.4c0-.8-.6-.9-1.3-1-.6-.1-1.8-.1-2.1.6-.2.5 0 1.4 0 2v5.8c.1 0 .2-.1.2-.1-1.8-.1-3 1.9-3 3.5v19.8c0 .1.1.1.2.1h22c.1 0 .2 0 .2-.1.2-1.9.3-3.9.3-5.8.1-3.1.1-6.2 0-9.2-.1-2.5-.1-5.2-.8-7.6-.1-.6-.3-1.3-.7-1.6-.1-.1-.3-.2-.5-.2h-3.5c.2 0 .2.1.2-.2v-7.1c0-.2.1-.8 0-1-.3-.6-1.2-.8-1.8-.9-.8-.1-3.3.1-3 1.3 0 .1.4.1.4 0-.2-.8 1.1-1.1 1.7-1.2.6-.1 1.3.1 1.9.3.8.3.5 1.7.5 2.4v6.3c0 .1.1.1.2.1h2.2c.4 0 1.1-.2 1.4.1.5.3.7 1.3.8 1.9.6 2.6.6 5.3.7 7.9.1 3.1 0 6.1-.1 9.2 0 1.2-.1 2.3-.2 3.5 0 .4 0 .8-.1 1.2v.4c0 .2.2.1.1.1h-21.700000000000003v-20.3c0-1 1.5-2.8 2.5-2.7.1 0 .2 0 .2-.1v-7.7c0-.5 1-.6 1.3-.6.4 0 1.3.1 1.3.5v7.8c0 .1.1.1.2.1.4 0 .8.1 1 .4.1.1.2.1.3 0 .3-.3.6-.4 1.1-.4 0 0 .2 0 .2-.1v-6.4c0-.5-.2-1.3.3-1.5.5-.3 2.4-.4 2.4.5v6.300000000000001c0 .1.1.1.2.1h1.3s.2 0 .2-.1v-7.9c.1-.2-.3-.2-.3-.1"/><path clip-path="url(#b)" fill="#9C9EA1" d="M60.6 26.8c.3 0 .3-.2.1-.2h-.1c-.2.1-.2.2 0 .2l.1-.2h-.1c-.2.1-.2.2 0 .2"/><path clip-path="url(#b)" fill="#CCC9C7" d="M58.9 27.4v7.6000000000000005h-.1c-.2 0-.5.1-.7.2.1 0 .2 0 .3.1-.2-1.7-.6-5.9-3.1-5.7.1 0 .2.1.2.1v-9.7c0-.4.1-.6.2-.9.2-.7.2-1.5-.3-2.1-.8-1.1-2.8-1-3.9-.6-.5.2-1 .7-1.1 1.2-.1.4-.1.7-.1 1.1l.3 1v9.4c0 .3.2.1 0 .1h-7.199999999999999s-.2 0-.2.1c0 .9.1 1.8.1 2.6 0 .1.1.1.2.1h1.9v2.3h-1.2000000000000002c-2.1 0-4.1.1-5.5 1.9-1.5 1.8-1.5 4.5-1.3 6.7.3 2.8 1.1 5.6 2 8.2.8 2.1 1.7 4.3 3 6.1.2.3.6 1 1.1 1h21.2s.2 0 .2-.1v-19.6c0-.6 0-1-.3-1.5-.5-1-1.5-2.1-2.7-2 .1 0 .2 0 .2.1v-6.6c0-.8.2-1.4-.8-1.6-.4-.3-2.1-.4-2.4.5 0 .1.3.1.4 0 .3-.8 2.7-.8 2.7.2v7.4c0 .1.2.1.2.1 1.2-.1 2.5 1.8 2.5 2.9v20.099999999999998h-20.8c-.3 0 0 .1-.2-.1-.6-.5-1-1.2-1.3-1.8-.6-1-1.1-2-1.6-3.1-1.8-4-3.3-8.8-2.9-13.3.2-1.8.8-3.6 2.4-4.7 1.6-1.1 3.7-.8 5.5-.8 0 0 .2 0 .2-.1v-2.5c0-.1-.1-.1-.2-.1h-1.9v-.6l-.1-1.8c0-.2-.3 0-.1 0h7.2s.2 0 .2-.1v-9.5l-.3-1.3c-.2-1.2.8-2 1.9-2.2 1.2-.2 2.7.3 2.9 1.6.1.4 0 .9-.2 1.3-.1.2-.2.3-.2.5v9.9c0 .1.2.1.2.1 2.1-.2 2.5 4.2 2.7 5.5 0 .1.2.1.3.1l.7-.1s.2 0 .2-.1v-7.7s-.4 0-.4.2"/><path clip-path="url(#b)" fill="#9C9EA1" d="M5.7 18.7h.1c.2 0 .2-.2 0-.2h-.1c-.2 0-.2.2 0 .2h.1v-.2h-.1c-.2 0-.2.2 0 .2"/><path clip-path="url(#b)" fill="#CCC9C7" d="M12.2 35c-.1-.8-.9-1.6-1.5-2.1-.7-.7-1.7-1.1-2.8-1.1.1 0 .2.1.2.1v-12.5c0-1.3-4.8-1.2-4.8-.1v12.7c.1 0 .2-.1.2-.1-2-.1-4.2 1.8-4.2 3.8v22.5c0 .1.1.1.2.1h12.5s.2 0 .2-.1v-23.2c0-.1-.4-.1-.4 0v23c0 .2 0 .2.2.2h-12.5c.2 0 .1-.1.1-.4v-22.2c0-.3 0-.7.1-1 .6-1.3 2.3-2.7 3.8-2.6.1 0 .2 0 .2-.1v-12.5c0-1.1 3.2-.7 3.8-.4.5.2.3 1.5.3 2v11h.2c1.1-.1 2 .6 2.7 1.3.4.4 1 1.1 1.1 1.7 0 .1.4.1.4 0"/><path clip-path="url(#b)" fill="#9C9EA1" d="M18.3 26.8c.3 0 .3-.2.1-.2h-.1c-.3.1-.3.2 0 .2l.1-.2h-.1c-.3.1-.3.2 0 .2"/><path clip-path="url(#b)" fill="#9C9EA1" d="M23.7 26.8c.3 0 .3-.2.1-.2h-.1c-.2.1-.2.2 0 .2l.1-.2h-.1c-.2.1-.2.2 0 .2"/><path clip-path="url(#b)" fill="#CCC9C7" d="M191.8 35.3c-1.4-1.8-3.1-3.4-4.4-5.4-.7-1-1.1-2.1-1.3-3.3l-.2-2.7c-.2-3-.5-6-.9-8.9 0-.1-.1-.1-.2-.1h-5.3c-.1 0-.2 0-.2.1l-.6 5.8-.4 4.3c0 .7-.1 1.4-.2 2.1-.1.6-.4 1.1-.6 1.7-.1.2-.6 1.3-.7 1.3 0 0-.2 0-.2.1 0 .3-.6.9-.8 1.1-.4.5-.8 1-1.3 1.5h.4c-.1-.8-.6-1.3-1.2-1.8-.4-.4-.9-.7-1.3-.9-.3-.2-.6-.2-.8-.5-.7-1.1-.6-2.9-.6-4.1 0-1.5 0-3.1.1-4.6 0-.4.1-.8.1-1.1v-.1c-.2.1-.2.1-.1.1h1.2s.2 0 .2-.1c-.3-1.7-.6-3.4-.9-5.2 0-.1-.1-.1-.2-.1h-5.1c-.1 0-.2 0-.2.1-.3 1.7-.6 3.4-.9 5.2 0 .1.1.1.2.1h1.1c.2 0-.1-.1-.1 0 0 .3 0 .6.1.9.1 1.4.2 2.9.2 4.3s0 2.9-.4 4.3c-.2.7-.7.7-1.3 1-.9.5-1.5 1.2-2.1 2h.4v-4.7c0-1.2-2.4-1.2-3.1-.6-.4.3-.3.8-.3 1.2v6.7h-.1c-.2 0-.4.1-.6.2.1 0 .2 0 .3.1 0-1.6.1-3.2-.1-4.8 0-.1 0-.3-.2-.3-.6 0-1.2-.3-1.7-.6-.4-.2-1.3-.6-1.3-1.2v-7.4c0-.5.7-.9.7-1.3v-5c0-.1-.1-.1-.2-.1h-6.3s-.2 0-.2.1v4.800000000000001c0 .4.3.6.5.9.4.7.2 1.8.2 2.6v4.4c0 .4.1.9 0 1.2-.3.7-1.5 1.1-2.1 1.3-.5.2-.9 0-1 .6-.2 1.6-.1 3.3-.1 5 0 7.6.1 15.2.2 22.8 0 .1.1.1.2.1h23.6c0 .1.1.1.2.1h.7999999999999999c0 .1.1.1.2.1h18.8c.1 0 .2 0 .2-.1 1-4 1.1-8.3 1.2-12.3 0-2.3 0-4.5-.2-6.8-.2-1.4-.3-3-1.1-4.1-.1-.1-.4 0-.3 0 .6.8.7 1.9.9 2.8.2 1.5.3 3 .3 4.5.1 3.5-.1 7.1-.4 10.6-.1 1.4-.3 2.8-.6 4.1 0 .2-.1.5-.2.7 0 .2 0 .2.1.2h-18.599999999999998c0-.1-.1-.1-.2-.1h-.7999999999999999c0-.1-.1-.1-.2-.1h-23.8c.2 0 .2.1.2-.1v-3.0999999999999996l-.1-7.7c-.1-5.1-.2-10.3 0-15.5 0-.5 0-1 .1-1.5 0-.1.4-.1.7-.2.7-.2 1.3-.5 1.9-.9.8-.6.6-1.6.6-2.5v-5.8c0-.3-.3-.6-.5-.9-.5-.7-.2-2.1-.2-3v-2.2h5.9v4.5c0 .4-.1.6-.4.9-.4.6-.3 1.2-.3 1.9v4.1c0 .7-.3 2 .2 2.5.6.8 2 1.3 3 1.4.3 0 .2 4.6.2 5 0 .1.2.1.3.1l.6-.1s.2 0 .2-.1v-7.6c0-.7 1.2-.7 1.8-.6 1.1.1.9.7.9 1.5v4c0 .1.3.1.4 0 .6-.8 1.4-1.5 2.3-2 .4-.2.7-.3 1-.7.5-1 .5-2.3.5-3.3.1-2.2 0-4.4-.2-6.5 0-.1-.1-.1-.2-.1h-1.1c-.2 0 .1.1.1 0s0-.3.1-.4l.5-3c.1-.4.1-.8.2-1.3 0-.1 0-.2.1-.3 0-.2-.1 0-.1 0h4.9l-.1-.1v.3l.2 1.3c.2 1 .3 2 .5 3.1l.1.4c0 .2 0 .1.2.1h-1.2c-.1 0-.2 0-.2.1-.2 2.2-.3 4.3-.2 6.5 0 1.1 0 2.3.5 3.3.3.6 1 .7 1.4 1 .8.5 1.9 1.4 2 2.4 0 .1.3.1.4 0l1.3-1.5c.2-.2.8-.8.8-1.1 0-.1-.2.2.1 0 .4-.3.7-1.2 1-1.7.8-1.7.7-3.6.8-5.4.2-2.8.5-5.5.8-8.3 0 .1-.3.1.1.1h5.1000000000000005l-.1.1.9 9.2.2 2.5c.1 1 .6 2 1.1 2.9 1.2 2.1 3.1 3.7 4.5 5.6-.3.2.1.1 0 0"/><path clip-path="url(#b)" fill="#9C9EA1" d="M161.5 26.8c.3 0 .3-.2.1-.2h-.1c-.2.1-.2.2 0 .2l.1-.2h-.1c-.2.1-.2.2 0 .2"/><path clip-path="url(#b)" fill="#9C9EA1" d="M45.4 68.9h.1c.2 0 .2-.2 0-.2h-.1c-.2 0-.2.2 0 .2h.1v-.2h-.1c-.2 0-.2.2 0 .2"/><path clip-path="url(#b)" fill="#9C9EA1" d="M64.8 68.9h.1c.2 0 .2-.2 0-.2h-.1c-.3 0-.3.2 0 .2h.1v-.2h-.1c-.3 0-.3.2 0 .2"/><path clip-path="url(#b)" fill="#CCC9C7" d="M67.2 82.1v-12.5c0-1.3-4.8-1.2-4.8-.1v8.6h.3c-1-1-2.3-1.8-3.8-1.7.1 0 .2.1.2.1v-15.4c0-.8-2-.9-2.5-.9-1-.1-2.3 0-3.1.6-.4.3-.2 1-.2 1.3v14.3c.1 0 .2-.1.2-.1-1.5-.1-2.9.8-3.9 1.8-.5.5-1 1.1-1.2 1.8-.2.6 0 1.6 0 2.2.1 0 .2 0 .3-.1-.3-.1-.9 0-.9-.2v-12.100000000000001c0-.8-.6-.9-1.4-1.1-.9-.1-2.5-.3-3.2.4-.4.3-.2 1-.2 1.5v11.4c.1 0 .2-.1.2-.1-2-.1-4.2 1.8-4.2 3.8v22.599999999999998c0 .1.1.1.2.1h31.9s.2 0 .2-.1v-21.700000000000003c0-.5.1-1 0-1.4-.3-1.2-1.9-2.5-3-2.9-.5-.1-.9-.2-1.3-.2-.2 0-.1.2.1.2 1.3-.1 2.3.9 3.1 1.8.3.4.7.8.7 1.3v23.1c0-.1.3 0-.1 0h-31.599999999999998c-.2 0 .1.1.1 0v-23.099999999999998c0-.4.2-.7.4-1.1.7-1 2-2.2 3.3-2.1.1 0 .2 0 .2-.1v-12.4c0-1.1 3.2-.7 3.8-.4.6.2.3 1.5.3 2v11c0 .1.1.1.2.1.3 0 .6 0 .9.1.1 0 .3 0 .3-.1 0-1.1-.2-2.1.5-3.1.9-1.3 2.5-2.8 4.2-2.7.1 0 .2 0 .2-.1v-15.3c0-1 3.1-.8 3.8-.7.4.1 1.3.2 1.3.8v15.299999999999999c0 .1.2.1.2.1 1.3-.1 2.5.8 3.4 1.7.1.1.3.1.3 0v-8.299999999999999c0-.5-.1-.8.6-1 .7-.2 3.5-.5 3.5.6v12.5c.2.1.5.1.5 0"/><path clip-path="url(#b)" fill="#9C9EA1" d="M56.2 60.3h.1c.2 0 .2-.2 0-.2h-.1c-.2.1-.2.2 0 .2h.1v-.2h-.1c-.2.1-.2.2 0 .2"/><path clip-path="url(#b)" fill="#CCC9C7" d="M2.6 108.6h30.1s.2 0 .2-.1c0-4.4 0-8.8.1-13.2v-6.8c0-.8-.1-1.5-.2-2.3-.1-.5-.2-1.2-.6-1.6-.1-.1-1.3-.8-1.3-.5v-9.8c0-.1-.3 0 .1 0h.8s.2 0 .2-.1v-3.2c0-.1-.1-.1-.2-.1-1.9-.1-3.9-.1-5.9 0 0 0-.2 0-.2.1v3.2c0 .1.1.1.2.1h.8c.4 0 .1-.1.1 0v9.8c0-.1-1.1.4-1.2.5h.3c-.1-.1-1.2-.7-1.2-.5v-9.8c0-.2-.2 0 0 0h.9s.2 0 .2-.1v-3.2c0-.1-.1-.1-.2-.1-1.9-.1-3.9-.1-5.9 0 0 0-.2 0-.2.1v3.2c0 .1.1.1.2.1h1c-.2 0-.1-.1-.1 0v9.8c0-.1-.6-.7-.7-.8-1.5-1.7-3.1-3.5-3.7-5.8-.2-.8-.2-1.7-.2-2.5l-.2-2.5-.7-7.4c0-.1-.1-.1-.2-.1h-5.6c-.1 0-.2 0-.2.1-.3 3.2-.7 6.4-.9 9.6-.1.9-.1 1.9-.3 2.8-.3 1.4-1.1 2.6-1.9 3.7-1.4 1.9-3.7 3.5-4.3 5.9h.4c-.1-.2-.2-2 0-2.1.2-.1 1.1-.6 1.1-.8v-3.6c0-.1-.1-.1-.2-.1h-7s-.2 0-.2.1v3.3c0 .4.1.4.5.6.1 0 .6.3.6.4v1.1c0 .8.1 1-.7 1.3-.8.2-1.6.4-2.3.5l-2.1.3c-.3 0-.7 0-1 .1-.3.1-.3.9-.3 1.2-.1 1-.1 2-.1 3 0 2.9 0 5.7.1 8.6l.2 7.5c0 .1.1.1.2.1h11.5c0 .1.4.1.4 0s-.1-.1-.2-.1h-11.7c-.2 0 .1.1.1.1-.2-4.5-.3-8.9-.3-13.4 0-2.1-.1-4.3.2-6.3 0-.2.1-.4.1-.4.5 0 1-.1 1.5-.2 1.4-.2 2.8-.4 4.1-.8.2-.1.6-.2.6-.4.1-.6 0-1.4 0-2.1 0-.2-.8-.6-1-.7-.2-.1-.1-1-.1-1.3v-2c0-.3.1-.3-.2-.3h6.8c.3 0 0-.2 0 .2v3.0999999999999996c0 .3-.5.5-.7.7-.3.2-.3.2-.3.6 0 .5-.2 1.4.1 1.8.1.1.3.1.4 0 .6-2.2 2.5-3.7 3.9-5.4 1.3-1.6 2.3-3.4 2.4-5.5.2-3.3.6-6.7.9-10l.1-1c0-.1-.3 0-.1 0h5.2c.1 0-.1-.2-.1 0l.1 1.2.5 5 .3 3.5c.1 1.1.1 2.2.4 3.2.5 1.5 1.4 2.7 2.4 3.9.5.6 1 1.2 1.6 1.8.4.5.4.5.9.5 0 0 .1 0 .1-.1v-9.9c0-.1-.1-.1-.2-.1h-.9c-.2 0 0 .1 0 0v-2.6999999999999997c0-.3.1-.5-.2-.5h2.8c.7 0 1.3-.1 2 0h.9c.2 0-.1-.1-.1 0v2.9999999999999996c0 .2 0 .1.1.1h-1s-.2 0-.2.1v9.9c0 .1.1.1.2.1.4 0 .8.1 1.1.4.1.1.2.1.3 0 .3-.3.7-.4 1.1-.4 0 0 .2 0 .2-.1v-9.9c0-.1-.1-.1-.2-.1h-.7c-.2 0 0 .1 0 0v-2.6999999999999997c0-.3.1-.5-.2-.5h2.8c.7 0 1.3-.1 2 0h.9c.2 0-.1-.1-.1 0v2.9999999999999996c0 .2 0 .1.1.1h-1s-.2 0-.2.1v9.9c0 .1.1.1.2.1 2.3.1 1.9 3.8 1.9 5.4v18.500000000000004c0 .3-.1.2.2.2h-30c-.2.3-.2.4 0 .4"/><path clip-path="url(#b)" fill="#9C9EA1" d="M44.4 136v-12.5c0-1.3-4.8-1.2-4.8-.1v12.6c.1 0 .2-.1.2-.1-2-.1-4.2 1.8-4.2 3.8v22.599999999999998c0 .1.1.1.2.1h12.5s.2 0 .2-.1v-21.9c0-.5.1-1 0-1.4-.3-1.2-1.9-2.5-3-2.9-.4-.1-.8-.2-1.2-.1-.2 0-.1.2.1.2 1.3-.1 2.3.9 3.1 1.8.3.4.7.8.7 1.3v23.1c0-.1.3 0 0 0h-12.3c-.2 0 .1.1.1 0v-23.099999999999998c0-.5.4-.9.7-1.3.7-.9 1.9-1.9 3.1-1.8.1 0 .2 0 .2-.1v-12.5c0-1.1 3.2-.7 3.8-.4.5.2.3 1.5.3 2v11c-.1-.1.3-.1.3-.2"/><path clip-path="url(#b)" fill="#9C9EA1" d="M41.9 122.7h.1c.2 0 .2-.2 0-.2h-.1c-.2.1-.2.2 0 .2h.1v-.2h-.1c-.2.1-.2.2 0 .2"/><path clip-path="url(#b)" fill="#9C9EA1" d="M30.8 130.9c.3 0 .3-.2.1-.2h-.1c-.2 0-.2.2 0 .2l.1-.2h-.1c-.2 0-.2.2 0 .2"/><path clip-path="url(#b)" fill="#CCC9C7" d="M33.2 139.2c-.1-1.2-.2-2.3-.4-3.5-.1-.6-.2-1-.2-1.6v-2c0-.4.1-.7-.3-1-.7-.5-2.2-.4-2.9 0-.4.2-.3.6-.3.9v1c0 .5.1.5-.4.5h-.7c.2 0 .2.1.2-.1v-8.8c0-.3.1-.5 0-.8-.1-.5-.8-.8-1.2-.9-1-.3-3.6-.4-3.6 1.2v9.399999999999999c0 .2.3 0 0 0h-1.3c-.7 0-1.5-.1-2.2 0-.5.1-.7.8-.8 1.2h.4c0-.9 0-1.9-.1-2.8 0-.3 0-.8-.1-1.1 0-.1-.9-.4-1.1-.5-.5-.3-1.3-.8-1.4-1.5-.1-.8 0-1.6 0-2.4v-6.1l.5-1.4v-5.3c0-.1-.1-.1-.2-.1h-5s-.2 0-.2.1v5.5l.5 1.2v8.399999999999999c0 .7-.6 1.2-1.2 1.6-.3.2-.7.5-1.1.5-.1 0-.1 0-.1.1-.1.2-.1.7-.1.9 0 .8 0 1.5-.1 2.3v7.4c.1 0 .2 0 .3-.1-.4-.1-1.9-.2-1.9-.8v-1.6c0-.7.7-.6 1.1-1.1.2-.3 0-1.3 0-1.6v-2c0-.1-.1-.1-.2-.1h-7s-.2 0-.2.1v3.3c0 .4.1.4.5.6.1 0 .6.3.6.4v1.1c0 .8.1 1-.7 1.3-.8.2-1.6.4-2.3.5l-2.1.3c-.3 0-.7 0-1 .1-.3.1-.3.9-.3 1.2-.1 1-.1 2-.1 3 0 2.9 0 5.7.1 8.6l.2 7.5c0 .1.1.1.2.1h17.3s.2 0 .2-.1-.3-.2-.1-.2h4l.1.2c0 .1.1.1.2.1h16.5s.2 0 .2-.1v-20.4c-.1-1-1.4-2.3-2.2-2.6-.1-.1-.5 0-.3.1 1.1.5 2 1.8 2 3v19.9c0 .2.1.1.1.1h-16.200000000000003c-.4 0-.1 0-.1-.2 0-.1-.1-.1-.2-.1h-4.2s-.2 0-.2.1c0 .2.3.2-.1.2h-16.799999999999997c-.3 0 0 .1 0 0l-.2-5.1c-.1-2.9-.2-5.8-.2-8.7 0-2-.2-4.1.2-6 .1-.3 0-.3.2-.3.6 0 1.2-.1 1.9-.2 1.3-.2 2.6-.3 3.8-.8.4-.1.4-.3.4-.6 0-.2.2-1.7 0-1.8-.2-.1-1-.6-1-.8v-3.6999999999999997c0-.2-.2 0-.1 0h6.9c.1 0-.1-.1-.1 0v3.0999999999999996c0 .4 0 .3-.3.6-.1.1-.8.4-.8.6v1.4c0 .4-.1.8.2 1 .5.3 1.2.4 1.8.5.1 0 .3 0 .3-.1v-7.6c0-.7 0-1.5.1-2.2 0-.5-.1-.7.3-.8.9-.3 2.2-1.1 2.2-2.2v-7.8c0-.2.1-.4 0-.6-.2-.3-.5-.8-.5-1.2v-5.2c0-.3.1-.2-.2-.2h4.8999999999999995c.2 0-.1-.1-.1 0v5.1l-.5 1.7v7.7c0 .4 0 .7.1 1 .3.6 1.1 1 1.7 1.4.2.1.4.2.7.3.1 0 .1.4.1.5.1 1.1.1 2.3.1 3.4 0 .1.3.1.4 0l.3-.8c.2-.4.9-.3 1.3-.3h2.5s.2 0 .2-.1v-9c0-.3-.1-.6 0-.9.3-.6 1.4-.9 2-.9.6 0 1.5.3 1.9.7.2.3.1.6.1.9v9.1c0 .1.1.1.2.1h1.3s.2 0 .2-.1c0-.7-.2-1.6 0-2.2.2-.5 1.3-.4 1.7-.4.8.1.9.4.9 1v2.8c0 .5.2 1 .3 1.4.2 1 .3 2 .4 3 0 .3.4.3.4.2"/><path clip-path="url(#b)" fill="#CCC9C7" d="M180.3 85.4v-7.699999999999999c0-.7-1.4-.7-1.9-.7s-1.5.1-1.5.8v7.500000000000001c0-.2-.6 0-.7.1.1 0 .2 0 .3.1 0-1.6.1-3.2-.1-4.8 0-.1 0-.3-.2-.3-.6 0-1.2-.3-1.7-.6-.4-.2-1.3-.6-1.3-1.2v-7.4c0-.5.7-.9.7-1.3v-5c0-.1-.1-.1-.2-.1h-6.3s-.2 0-.2.1v5l.7 1.3v7.4c0 .6-.9 1-1.3 1.2-.5.3-1.1.5-1.7.6-.2 0-.2.2-.2.3-.3 1.6-.1 3.4-.2 5h.3c-.3-.2-.6-.3-.9-.4-.1 0-.2.2-.2 0v-7.5c0-.7-1.3-.8-1.8-.8s-1.6.1-1.6.8v7.5c0-.4-1.6.8-1.7.8h.3c-.3-1.6-.8-4.5-3-4.3.1 0 .2.1.2.1v-6.5c0-.2.2-.6.3-.8.1-.4.1-.7 0-1.1-.2-1.3-1.6-1.6-2.7-1.6-1 0-2.4.3-2.7 1.5-.3 1 .3 1.8.3 2.7v5.9c.1 0 .2-.1.2-.1-1.4-.1-2.1 1.2-2.5 2.3-.7 2.2-.8 4.6-.9 6.9-.2 5.1.1 10.3.6 15.4.1.7.1 1.4.2 2 0 .1.1.1.2.1h33.599999999999994s.2 0 .2-.1v-19.6c0-.6 0-1-.3-1.5-.5-1-1.5-2.1-2.7-2-.2 0-.1.2.1.2 1.2-.1 2.5 1.8 2.5 2.9v20.099999999999998h-33.2c.1 0 .1.2.1-.1 0-.2 0-.4-.1-.6l-.2-2.3c-.5-5.3-.8-10.6-.5-15.9.1-1.8.3-3.6.8-5.2.3-.9.9-2.4 2.1-2.3.1 0 .2 0 .2-.1v-4.9c0-.4.2-1.3 0-1.7-.8-1.8 0-3.3 2.1-3.3 2-.1 2.8 1.4 2.2 3.1-.2.5-.1 1.2-.1 1.7v5c0 .1.2.1.2.1 1.8-.1 2.3 2.9 2.5 4.1 0 .1.3.1.3 0 .4-.4.9-.8 1.5-.8 0 0 .2 0 .2-.1v-7.6000000000000005c0-.5 1-.6 1.3-.6.3 0 1.3.1 1.3.6v7.700000000000001c0 .1.1.1.2.1l1 .3c.1 0 .3.1.3 0 0-.5-.2-5.1.3-5.2.9-.1 2.7-.8 3-1.7.1-.3 0-.7 0-1v-6.199999999999999c0-.1.1-.5 0-.6-.2-.3-.7-.8-.7-1.1v-4.9h5.9c.2 0-.1-.1-.1 0v4.9c0 .2-.5.8-.7 1-.1.1 0 .4 0 .6v5.5c0 .7-.2 1.6.3 2.2.4.4 1.1.7 1.6.9.2.1 1.2.3 1.2.4.2.4.1 1.2.1 1.7 0 1.1 0 2.2.1 3.3 0 .1.3.1.3.1l.6-.1s.2 0 .2-.1v-7.8c0-.5 1-.6 1.3-.6.4 0 1.3.1 1.3.6v7.700000000000001c.5.1.9.1.9 0"/><path clip-path="url(#b)" fill="#9C9EA1" d="M162 77.2c.3 0 .3-.2.1-.2h-.1c-.2 0-.2.2 0 .2l.1-.2h-.1c-.2 0-.2.2 0 .2"/><path clip-path="url(#b)" fill="#9C9EA1" d="M153.8 72.1h.1c.2 0 .1-.2 0-.2-.3.1-.3.2-.1.2v-.2h.1c-.2.1-.3.2-.1.2"/><path clip-path="url(#b)" fill="#9C9EA1" d="M171.8 122.5h.1c.2 0 .2-.2 0-.2h-.1c-.2.1-.2.2 0 .2h.1v-.2h-.1c-.2.1-.2.2 0 .2"/><path clip-path="url(#b)" fill="#CCC9C7" d="M174.3 135.8v-12.5c0-1.3-4.8-1.2-4.8-.1v12.7c0-.3-1.4.3-1.5.3.1 0 .2 0 .3.1v-8.2l-.1.1h1s.2 0 .2-.1v-3.2c0-.1-.1-.1-.2-.1-1.9-.1-3.9-.1-5.9 0 0 0-.2 0-.2.1v3.2c0 .1.1.1.2.1h.8999999999999999v9.100000000000001h.3c-.7-.6-1.4-1.1-2.3-1.2-.5-.1-.4.2-.4-.3v-11.1c0-.5.2-1.2-.2-1.5-.8-.6-2.3-.5-3.2-.4-.8.1-1.4.3-1.4 1.1v12.3c.1 0 .2-.1.2-.1-2-.1-4.2 1.8-4.2 3.8v22.599999999999998c0 .1.1.1.2.1h25.1s.2 0 .2-.1v-21.9c0-.5.1-1 0-1.4-.3-1.2-1.9-2.5-3-2.9-.4-.1-.8-.2-1.2-.1-.2 0-.1.2.1.2 1.3-.1 2.3.9 3.1 1.8.3.4.7.8.7 1.3v23.1c0-.1.3 0-.1 0h-24.7c-.2 0 .1.1.1 0v-23c0-.4.3-.8.6-1.2.7-1 1.9-2 3.2-1.9.1 0 .2 0 .2-.1v-12.5c0-1.1 3.2-.7 3.8-.4.5.2.3 1.5.3 2v11c0 .1.1.1.2.1 1-.1 1.9.5 2.6 1.2.1.1.3.1.3 0v-9.1c0-.1-.1-.1-.2-.1h-.9c-.2 0 0 .1 0 0v-2.6999999999999997c0-.3.1-.5-.2-.5h2.8c.7 0 1.3-.1 2 0h.9c.1 0-.1-.1-.1 0v2.9999999999999996c0 .2 0 .1.1.1h-1s-.2 0-.2.1v8.3c0 .1.3.1.3.1.4-.2.9-.3 1.4-.3 0 0 .2 0 .2-.1v-12.5c0-1.1 3.2-.7 3.8-.4.5.2.3 1.5.3 2v11c0-.8.4-.8.4-.9"/><path clip-path="url(#b)" fill="#9C9EA1" d="M159.3 122.5h.1c.2 0 .2-.2 0-.2h-.1c-.2.1-.2.2 0 .2h.1v-.2h-.1c-.2.1-.2.2 0 .2"/><path clip-path="url(#b)" fill="#CCC9C7" d="M14.7 8.1h12.5s.2 0 .2-.1v-21.9c0-.5.1-1 0-1.4-.3-1.2-1.9-2.5-3-2.9-.4-.1-.8-.2-1.2-.1.1 0 .2.1.2.1v-12.5c0-1.3-4.8-1.2-4.8-.1v12.7c0-.3-1.4.3-1.5.3.1 0 .2 0 .3.1v-8.2l-.1.1h1s.2 0 .2-.1v-3.2c0-.1-.1-.1-.2-.1-1.9-.1-3.9-.1-5.9 0 0 0-.2 0-.2.1v3.2c0 .1.1.1.2.1h.8999999999999999v9.100000000000001h.3c-.7-.6-1.4-1.1-2.3-1.3-.5-.1-.4.2-.4-.3v-11.1c0-.5.2-1.2-.2-1.5-.8-.6-2.3-.5-3.2-.3-.8.1-1.4.3-1.4 1.1v12.3c.1 0 .2-.1.2-.1-2-.1-4.2 1.8-4.2 3.8v22.199999999999996c0 .1.1.1.2.1h12.4c.2 0 .2-.2 0-.2h-12.3v-23.099999999999998c0-.4.3-.8.6-1.2.7-1 1.9-2 3.2-1.9 0 0 .2 0 .2-.1v-12.5c0-1.1 3.2-.7 3.8-.4.6.2.3 1.5.3 2v11c0 .1.1.1.2.1 1-.1 1.9.5 2.6 1.2.1.1.3.1.3 0v-9.1c0-.1-.1-.1-.2-.1h-.9c-.2 0 0 .1 0 0v-2.6999999999999997c0-.3.1-.5-.2-.5h2.8c.7 0 1.3-.1 2 0h.9c.2 0-.1-.1-.1 0v2.9999999999999996c0 .2 0 .1.1.1h-1s-.2 0-.2.1v8.3c0 .1.3.1.3.1.4-.2.9-.3 1.4-.3 0 0 .2 0 .2-.1v-12.5c0-1.1 3.2-.7 3.8-.4.5.2.3 1.5.3 2v11c0 .1.2.1.2.1 1.3-.1 2.3.9 3.1 1.8.3.4.7.8.7 1.3v22.8c0-.1.3 0-.1 0h-12c-.2 0-.2.1 0 .1"/><path clip-path="url(#b)" fill="#CCC9C7" d="M41 8.1c0 .2.1.2.2.2h15.2s.2 0 .2-.1h4.1s.2 0 .2-.1c.1-9 .2-18 .2-27 0-1.3.1-2.7-.1-4.1 0-.1 0-.2-.1-.2-.7-.3-1.3-.5-1.8-1-.9-.8-.6-2.2-.6-3.3v-5.9c0-.4.2-.7.4-1 .4-.7-6.3-1.7-6.3-2.5v-3.4c0-.1-.1-.1-.2-.1h-5s-.2 0-.2.1v3c0 .6 6.5 1.2 6.5 1.9 0 .2-.1.5.1.8.1.3.5.8.5 1.1v7.699999999999999c0 .8 0 1.2-.6 1.8-.4.4-.6.4-1.1.3-.1 0-.8-.2-.8 0v-8l-6.5-6.9c0-1.7-3.3-1.4-4.5-1.2-.7.1-1.3.3-1.3 1.1v2.6l6.5 8.5v3.9c.1 0 .2 0 .2-.1-1.3-.1-2.4.5-3.4 1.3-.5.5-1 1-1.4 1.6-.1.2-.6 1-.2 1h-5.4s-.2 0-.2.1v3.3c0 .4.1.4.5.6.1 0 .6.3.6.4v1.1c0 .8.1 1-.7 1.3-.8.2-1.6.4-2.3.5l-2.1.3c-.3 0-.8 0-1 .1-.3.1-.3.9-.3 1.2-.1 1-.1 2-.1 3 0 2.9 0 5.7.1 8.6l.2 7.5c0 .1.1.1.2.1h10.5c.2 0 .2-.2 0-.2h-10.5c.3 0 .2.1.2-.3-.3-4.9-.5-9.8-.5-14.7 0-1.1 0-2.3.1-3.4 0-.5 0-1.3.2-1.7h.2c.3 0 .5 0 .8-.1l2.3-.3c.6-.1 1.3-.2 1.9-.4.3-.1.8-.2 1-.4.2-.4 0-1.4 0-1.8 0-.6-.3-.6-.8-.9-.4-.3-.3-.4-.3-1v-2.8000000000000003h5.3s.2 0 .2-.1c0-.8.6-1.4 1.1-2 .9-1 2.2-2 3.6-1.9.1 0 .2 0 .2-.1l-6.5-13.5v-1.9c0-1 3.1-.8 3.8-.7.4.1 1.3.2 1.3.8v.8l6.5 3.3v11.2c0 .1.1.1.2.1.6 0 1.1.3 1.6.3.3 0 .6-.4.8-.6.5-.4.7-.8.7-1.5v-7.8l-.5-1.7-6.5-3.8v-1.4c0-.2-.2 0-.1 0h4.9c-.2 0-.2-.1-.2.2v1.7l6.5 3.5c0 .4-.4.8-.5 1.2-.1.2 0 .5 0 .7v7.8c0 1.1 1.4 1.9 2.4 2.2.1 0 .1 0 .1.2v.6c.1 1.9.1 3.7.1 5.6 0 5.7 0 11.4-.1 17.1 0 2.1 0 4.1-.1 6.2v1.3c0 .2.3 0 0 0h-4.2s-.2 0-.2.1h-14.899999999999999c0-.2-.3-.2-.3 0"/><path clip-path="url(#b)" fill="#CCC9C7" d="M73.8-15v-7.6c0-.7-1.6-.7-2.1-.7-.6.1-1.3.2-1.3.9v7.300000000000001c0-.2-1 .3-1.2.4h.3c-.1-.1-1.2-.7-1.2-.4v-7.4c0-.8-.6-.9-1.3-1-.6-.1-1.8-.1-2.1.6-.2.5 0 1.4 0 2v5.7c.1 0 .2-.1.2-.1-1.7-.1-3 1.9-3 3.5v19.9c0 .1.1.1.2.1h14s.2 0 .2-.1v-19.6c0-.6 0-1-.3-1.5-.5-1-1.5-2.1-2.7-2-.2 0-.1.2.1.2 1.2-.1 2.5 1.8 2.5 2.9v20.099999999999998h-13.7v-20.099999999999998c0-1.2 1.2-3.1 2.5-3 .1 0 .2 0 .2-.1v-7.7c0-.5 1-.6 1.3-.6.4 0 1.3.1 1.3.5v7.700000000000001c0 .1.1.1.2.1.4 0 .8.1 1.1.4.1.1.2.1.3 0 .3-.3.6-.4 1-.4 0 0 .2 0 .2-.1v-7.6000000000000005c0-.5 1-.6 1.3-.6.3 0 1.3.1 1.3.5v7.700000000000001c.3.2.7.2.7.1"/><path clip-path="url(#b)" fill="#CCC9C7" d="M155.2 8.2h7.8c.1 0 .2 0 .2-.1h10.8s.2 0 .2-.1v.1h4.5s.2 0 .2-.1c.1-9 .2-18 .2-27 0-1.3.1-2.7-.1-4.1 0-.1 0-.2-.1-.2-.7-.3-1.3-.5-1.8-1-.9-.8-.6-2.2-.6-3.3v-5.800000000000001c0-.4.2-.7.4-1 .4-.7-6.3-1.7-6.3-2.5v-3.4c0-.1-.1-.1-.2-.1h-5s-.2 0-.2.1l6.5 5.5.5 1.2v8.299999999999999c0 .7-.5 1.1-1 1.5-.3.2-.7.5-1.1.6-.1 0-.2 0-.3.1-.1.2-.1.6-.1.8 0 .7 0 1.5-.1 2.2v7.3c.1 0 .2 0 .3-.1-.4-.1-1.9-.2-1.9-.8v-1.6c0-.7.7-.6 1.1-1.1.2-.3 0-1.3 0-1.6v-2c0-.1-.1-.1-.2-.1h-6.5c-.5 0-.5-.2-.9-.4-.1 0-.7-.3-.7 0v-10l.3-1c.1-.4 0-.7-.1-1.1-.2-.6-.7-1-1.3-1.3-1.2-.5-3-.3-3.8.8-.7 1 0 1.9 0 2.9v9.7c.1 0 .2-.1.2-.1-2.5-.2-2.9 4-3.1 5.7.1 0 .2 0 .3-.1-.2-.1-.4-.2-.7-.2h-.1v-7.3999999999999995c0-.7-.9-.8-1.5-.9-.4 0-1.9 0-1.9.7v7.6c.1 0 .2-.1.2-.1-1.8-.1-3 1.9-3 3.5v19.9c0 .1.1.1.2.1h8.7c.2 0 .2-.2 0-.2h-8.3c-.2 0 .1.1.1-.1v-20.099999999999998c0-1.1 1.4-2.8 2.5-2.7.1 0 .2 0 .2-.1v-7.7c0-.5 1-.6 1.3-.6.3 0 1.3.1 1.3.5v7.700000000000001c0 .1.1.1.2.1.2.1.5.1.7.1.1 0 .3.1.3-.1.2-1.3.5-5.7 2.7-5.5.1 0 .2 0 .2-.1v-9.7c0-.3 0-.4-.2-.7-.4-.9-.2-1.9.6-2.5 1.1-.8 3.1-.5 3.8.6.2.3.2.8.2 1.2l-.3 1.2v10.100000000000001c0 .1.1.1.2.1 1 0 .8.6 1.4.6h6.9c.2 0-.1-.1-.1 0v3.4c0 .3-.3.4-.6.6-.1.1-.5.2-.5.4v1.5c0 .4-.1.6.2.8.5.3 1.2.4 1.8.5.1 0 .3 0 .3-.1v-7.6c0-.7 0-1.4.1-2.1 0-.5-.1-.6.3-.7 1-.4 2.2-1.1 2.2-2.3v-7.8l-.5-1.7-6.5-3.7v-1.5c0-.2 0-.1-.1-.1h4.800000000000001c-.1 0-.1-.1-.1.1v1.6l6.5 3.6c0 .4-.3.8-.5 1.1-.1.2-.1.4-.1.6v7.8c0 1.1 1.3 1.9 2.2 2.2.3.1.2 0 .2.2v.6c.2 4.6.1 9.3.1 13.9 0 5-.1 10-.1 14.9v1.5c0 .2.2 0 .1 0h-4.6s-.2 0-.2.1l.1-.1h-10.9c-.1 0-.2 0-.2.1h-7.6c-.3 0-.3.1-.1.1"/><rect x="5.7" y="8.1" clip-path="url(#b)" fill="#231F20" width="173" height=".7"/><rect x="1.6" y="8" clip-path="url(#b)" fill="#231F20" width="177.3" height="1"/><rect x="5.7" y="58" clip-path="url(#b)" fill="#231F20" width="173" height=".7"/><rect x="1.6" y="57.9" clip-path="url(#b)" fill="#231F20" width="177.3" height="1"/><rect x="5.7" y="108.5" clip-path="url(#b)" fill="#231F20" width="173" height=".7"/><rect x="1.6" y="108.3" clip-path="url(#b)" fill="#58595B" width="177.3" height="1"/><rect x="78.8" y="-26.2" clip-path="url(#b)" fill="#fff" width="66" height="175"/><path clip-path="url(#b)" fill="#231F20" d="M144.8 153.6h-66v-179.8h66v179.8zm1.8-181.6h-69.6v183.40000000000003h69.6v-183.40000000000003z"/><polygon clip-path="url(#b)" fill="#231F20" points="111.9,70.9 120.1,79.8 156.4,96.6 144.5,150.6 44.1,150.6 34.3,102.5 75.9,83.3"/><path clip-path="url(#b)" fill="#fff" d="M111.7 71.7l7.9 8.5.1.1.1.1 35.7 16.6-11.5 52.9h-99.3l-9.6-47.1 41.1-18.9 35.5-12.2zm.2-.8l-36 12.4-41.6 19.2 9.8 48.2h100.4l11.8-54-36.2-16.8-8.2-9z"/><polygon clip-path="url(#b)" fill="#fff" points="110.9,82.8 77.9,94.7 73,150.6 107.2,150.6"/><polygon clip-path="url(#b)" fill="#fff" points="67.9,105.6 67.2,106.1 70.1,85.8 70.8,85.9"/><rect x="118.6" y="79.7" transform="matrix(.995 .1 -.1 .995 9.763 -11.452)" clip-path="url(#b)" fill="#fff" width=".7" height="23.5"/><polygon clip-path="url(#b)" fill="#fff" points="103.5,82.1 111.7,74.6 110.9,88.4 102.5,95.7"/><polygon clip-path="url(#b)" fill="#CCC9C7" points="78.7,96.2 74.8,147.8 56.3,147.8 43.2,101.6 62.1,112.3"/><polygon clip-path="url(#b)" fill="#CCC9C7" points="111.9,94.3 127.8,113 144.7,100.9 129.9,147.8 109.1,147.8"/><rect x="106.9" y="86.7" transform="matrix(.647 .762 -.762 .647 107.587 -49.415)" clip-path="url(#b)" fill="#231F20" width=".7" height="9.7"/><path clip-path="url(#b)" fill="#fff" d="M77.3 96.6l-4 51.7h-18.4l-13.1-46.3 18.9 10.8 16.6-16.2zm.9-1.8l-1.3 1.3-16.2 15.8-18.5-10.5-1.6-.9.5 1.7 13.1 46.3.2.5h19.6l.1-.6 4-51.7.1-1.9z"/><rect x="110.9" y="70.9" transform="matrix(.998 .059 -.059 .998 5.039 -6.37)" clip-path="url(#b)" fill="#fff" width=".7" height="23.9"/><path clip-path="url(#b)" fill="#fff" d="M77.9 86.8l-1.4 8.4 3.4.7c1.2.3 14.6 2.8 14.6 2.8l9.8-14.4-26.4 2.5-1.4 8.4"/><path clip-path="url(#b)" fill="#fff" d="M110.5 94.7l15.9 18.7 16.8-12.2-14.7 47h-20.8l2.8-53.5zm-.6-1.7l-.1 1.7-2.8 53.5v.7h22l.2-.5 14.7-47 .7-2.1-1.8 1.3-16.3 11.8-15.5-18.2-1.1-1.2z"/><polygon clip-path="url(#b)" fill="#231F20" points="87.7,149.5 87,149.5 91,104.3 91.7,104.4"/><polygon clip-path="url(#b)" fill="#231F20" points="110.4,96.6 103.5,98.5 103.5,103.2 92.8,99.2 91.4,98.8 79.9,96 79.9,117.2 91.4,106.2 95.2,106.6 103.5,120"/><path clip-path="url(#b)" fill="#fff" d="M79.9 96l11.5 2.8 1.4.3 10.8 4v-4.7l6.9-1.9-6.9 23.4-8.4-13.4-3.8-.4-11.5 11v-21.1zm-.7-.9v23.7l1.2-1.1 11.2-10.8 3.1.3 8.2 13.1.8 1.3.4-1.5 6.9-23.4.4-1.2-1.2.3-6.9 1.9-.5.1v4.2l-9.8-3.5-1.4-.3-11.5-2.8-.9-.3z"/><rect x="94.8" y="98.2" transform="matrix(1 .011 -.011 1 1.152 -1.053)" clip-path="url(#b)" fill="#fff" width=".7" height="9.3"/><path clip-path="url(#b)" fill="#CCC9C7" d="M92.6 129c-1.2 0-2.3-1-2.3-2.3 0-1.3 1-2.3 2.3-2.3 1.2 0 2.3 1 2.3 2.3-.1 1.3-1.1 2.3-2.3 2.3m0-4c-.9 0-1.5.7-1.5 1.6 0 .9.7 1.6 1.5 1.6.9 0 1.6-.7 1.6-1.6-.1-.8-.8-1.6-1.6-1.6"/><polyline clip-path="url(#b)" fill="#fff" points="103.5,98.5 103.5,103.2 92.8,99.2 103.5,83.8"/><rect x="103.2" y="83.8" clip-path="url(#b)" fill="#231F20" width=".7" height="14.7"/><polygon clip-path="url(#b)" fill="#231F20" points="103.9,103.7 92.2,99.4 103.2,83.6 103.8,84 93.3,99 103.2,102.7 103.2,98.5 103.9,98.5"/><path clip-path="url(#b)" fill="#fff" d="M68.9 37.5c-.2.9-.4 2-.6 3.4-.7 4.1-1.4 10.1-1 16.7.5.8 1.6.9 1.6.9-.1 3.7.4 8.6 1.5 11.9 1.1 3.3 5.9 11.5 7 13.6.4.8 1.2 2.1 2 3.5 1.3 2.4 2.7 5.1 2.8 6.2.1 1.1 4.5 2 8.3 2.2 2.3.1 4.3 0 4.9-.5l9.6-11 8.2-9.1.2-3.7c0-1.5 1.1-5.7 1.1-5.7 1.8.2 4.3-.7 5.9-4 1.6-3.3 4.3-17 1.2-17.5-1.1-.2-2.8 1.2-4.4 3.4-3 3.9-6.1 10.1-6 13.1-.5.9-2.7 1.1-2.7 1.1.1-1.6-.2-3 0-4.2.2-1.2 1.5-21-3.5-23.8-3.4-.2-18.3 9.6-23.6 4.9-1.5 2.3-7.6.9-12.5-1.4"/><path clip-path="url(#b)" fill="#CCC9C7" d="M97.6 59.8c.1 3.9-1.7 7.2-4.2 7.3l-2.6.2c-2.4.2-4.5-2.8-4.7-6.7"/><path clip-path="url(#b)" fill="#CCC9C7" d="M77.3 60.6c-.4 3.4-1.8 6.3-3.7 5.7l-2-.6c-1.9-.5-3.4-3.3-2.8-7.3"/><path clip-path="url(#b)" fill="#231F20" d="M95.3 59.8c0 .8-.6 1.6-1.5 1.6h-.9c-.8 0-1.6-.6-1.6-1.5"/><path clip-path="url(#b)" fill="#231F20" d="M74 59.8c-.2.8-.9 1.4-1.5 1.2l-.6-.2c-.6-.2-.9-1-.7-1.8"/><path clip-path="url(#b)" fill="#231F20" d="M109.7 60.1v-.8c0-.5.2-1.3.5-2.3.6-2 1.8-4.9 4-8.2.6-.8 1.2-1.7 1.9-2.6.7-.8 1.5-1.7 2.6-2.4.3-.2.6-.3.9-.4h.5c.2.1.4.1.5.2.3.2.5.5.7.9l.3 1c.2 1.3.2 2.7.1 4.2-.2 2.9-.7 5.9-1.6 9.1-.2.8-.5 1.6-.8 2.4l-.6 1.2c-.2.4-.5.7-.8 1.1-.3.3-.6.7-1 1-.4.3-.8.6-1.2.7-.8.4-1.8.6-2.8.6.1 0 .3-.2.4-.3-.2.9-.5 2.2-.8 3.8-.3 1.6-.3 3.6-.4 5.6v.2l-.1.1-6.6 7.4c-2.6 2.9-5.4 6.1-8.3 9.4-1 1.2-2.1 2.4-2.9 3.3-.2.1-.4.3-.6.3l-.6.2c-.4.1-.7.1-1.1.1-.7.1-1.4.1-2.1 0-1.3 0-2.7-.2-4-.4-1.3-.2-2.6-.4-3.9-.9-.3-.1-.6-.2-1-.4-.1 0-.2-.1-.2-.2l-.1-.1-.1-.1c-.1-.1-.2-.3-.2-.4v-.2c-.1-.5-.3-1.1-.6-1.7-1-2.3-2.2-4.4-3.3-6.5-1.1-2.1-2.3-4.1-3.3-6-1.1-1.9-2.1-3.8-3-5.7-.4-.9-.9-1.9-1.2-2.8-.1-.2-.2-.4-.2-.7l-.2-.7-.3-1.4c-.7-3.7-.9-7-.8-9.8.1.1.1.2.2.2-.5-.1-.9-.3-1.1-.4-.3-.2-.5-.4-.6-.6v-.1c-.3-6.7.4-11.8.9-15.1.2-1.7.5-2.9.7-3.7.2-.8.2-1.2.2-1.2s-.1.4-.2 1.3c-.1.8-.4 2.1-.6 3.8-.4 3.3-1 8.4-.6 15.1v-.1c.2.3.6.6 1.5.8h.2v.2c0 2.8.2 6.1 1 9.7l.3 1.3.2.7c0 .2.2.4.2.7.3.9.8 1.8 1.2 2.7.9 1.8 1.9 3.7 3 5.6 1.1 1.9 2.2 3.9 3.4 6 1.2 2.1 2.4 4.2 3.4 6.5.2.6.5 1.2.6 1.9 0 .2.6.5 1.1.7 1.1.4 2.4.6 3.7.8 1.3.2 2.6.3 3.9.3h1.9l.9-.1c.3 0 .6-.2.7-.3l-.1.1c.8-.9 1.8-2.1 2.9-3.3 2.9-3.3 5.7-6.6 8.3-9.4 2.6-2.9 4.9-5.4 6.7-7.4l-.1.3c.1-2 .2-3.9.5-5.6.3-1.7.6-3.1.9-3.9l.1-.3h.4c.8.1 1.7-.1 2.4-.5.4-.1.7-.4 1-.6l.9-.8c.2-.3.5-.6.7-1l.6-1.1c.3-.7.6-1.5.8-2.3.9-3.1 1.4-6.1 1.7-8.9.1-1.4.2-2.8-.1-4-.1-.6-.3-1.3-.7-1.6-.1-.1-.2-.1-.3-.1h-.4c-.3 0-.5.2-.8.3-1 .6-1.8 1.5-2.5 2.3-.7.8-1.3 1.7-1.9 2.5-2.2 3.3-3.5 6.1-4.2 8.1-.3 1-.5 1.8-.6 2.3v.39999999999999997"/><path clip-path="url(#b)" fill="#231F20" d="M100.1 59.5s-.1 0-.3.1c-.2.1-.6.1-1 .2-.9.1-2.2.2-3.7.4-3.1.3-7.5.8-12.3 1-2 .1-3.9.2-5.7-.3-.9-.1-1.7-.4-2.4-.6-.8-.2-1.5-.4-2.1-.6-2.7-.8-4.5-1.2-5-1.5-.1.3 0-.2 0-.2-.8-.2-1.2-.5-1.4-.7-.2-.2-.2-.3-.2-.3s0 .1.2.3c.2.2.6.5 1.4.6l.2-.2c1 .2 2.2.7 4.9 1.3.7.2 1.4.3 2.2.5.8.2 1.6.4 2.4.5 1.7.4 3.5.2 5.5.2 4.8-.2 9.2-.4 12.3-.5h3.7c.4 0 .8 0 1-.1.2-.1.3-.1.3-.1"/><path clip-path="url(#b)" fill="#231F20" d="M96.7 52.2s-.4-.1-1-.2-1.6-.2-2.7-.2c-2.3.2-5.4.8-8.9 1.2-3.5.4-6.8.6-9.1.1-.3-.1-.6-.1-.8-.2l-.7-.3c-.4-.2-.8-.5-1-.7-.5-.4-.8-.6-.8-.6s.3.2.9.5c.3.2.6.3 1 .5l.7.2c.2.1.5.1.8.1 2.3.3 5.4-.2 8.9-.6 3.5-.4 6.7-.8 9.1-.7 1.2.1 2.1.3 2.7.5.5.3.9.4.9.4"/><path clip-path="url(#b)" fill="#231F20" d="M89.4 74.8s0-.2-.3-.3c-.3-.1-.8-.2-1.7-.1l.1-.1c0 .3 0 .9-.2 1.7l-.3.6-.2.3-.1.1-.1.1-.2-.1c-.4.3-.9.5-1.4.7-.5.2-1 .4-1.6.6-.3.1-.6.2-.9.2-.3.1-.7.1-1.1.1l-.4-.1h-.2l-.1-.1c-.2-.2-.3-.3-.4-.5-.2-.3-.4-.6-.5-1-.3-.6-.6-1.3-.9-2-.4-.9-.7-1.9-.9-2.8-.2-1-.3-1.9-.3-2.8 0-1.8.1-3.3.3-4.6.2-1.3.4-2.3.5-3 .2-.7.3-1.1.3-1.1s0 .4-.1 1.1c0 .7-.1 1.8-.2 3.1 0 1.3-.1 2.8 0 4.5.1.8.2 1.7.4 2.6.2.9.5 1.8.9 2.7.3.7.5 1.3.8 1.9.1.3.3.6.5.9.1.1.2.3.2.3l-.1.1h.2c.1.1.1 0 .1 0h.8c.3 0 .6-.1.9-.2.6-.1 1.1-.3 1.6-.5s1-.4 1.3-.6h.1l.1-.1c.1-.1.2-.1.2-.2l.3-.4c.3-.6.4-1.2.5-1.5v-.1h.1c.9 0 1.5.1 1.7.3.3.2.3.3.3.3"/><path clip-path="url(#b)" fill="#231F20" d="M115.4 56.9s.1 0 .2-.1l.4-.4c.3-.4.6-1.1.9-1.9.3-.9.7-1.9 1-3.1.2-.6.3-1.2.4-1.9.1-.7.2-1.4.1-2 .1.1.4.2.6.4-.4.1-1.1.6-1.6 1.4-1.1 1.3-1.9 2.8-2.6 4.2-.7 1.4-1.3 2.6-1.7 3.7-.4 1.1-.7 2-.9 2.6-.2.6-.2 1-.2 1s0-.4.1-1c.1-.7.3-1.6.6-2.7s.8-2.5 1.4-3.9c.6-1.4 1.4-3 2.6-4.5.6-.8 1.4-1.5 2.2-1.7l.5-.1.1.5c.1.9-.1 1.7-.3 2.4-.2.7-.4 1.4-.6 2-.4 1.2-.9 2.2-1.3 3.1-.4.8-.8 1.5-1.2 1.8l-.4.4c-.2-.2-.3-.2-.3-.2"/><path clip-path="url(#b)" fill="#231F20" d="M96.7 69.4s0-.3.5-.7c.1-.1.3-.2.5-.2h.3c.1 0 .2 0 .3.1.2.2.3.5.3.7 0 .3-.1.5-.2.7-.2.5-.6.9-1.3 1.2h-2c-1.3-.1-2.7-.6-4-1.5-1.3-.9-2.2-2-2.9-3-.7-1.1-1.1-2.2-1.5-3.1-.3-.9-.4-1.7-.5-2.2v-.8s.2 1.2 1 2.8c.8 1.7 2.2 3.9 4.5 5.4 1.1.8 2.3 1.3 3.5 1.4.3.1.6.1.9.1h.7000000000000001c.4-.1.8-.4 1-.7.2-.3.4-.8.2-.9 0 0-.1-.1-.2-.1h-.2c-.1 0-.2 0-.4.1-.4.4-.5.8-.5.7"/><path clip-path="url(#b)" fill="#231F20" d="M72.8 67.5l-.1-.1c-.1-.1-.2-.1-.4-.2h-.3c-.1 0-.2 0-.3.1-.2.1-.3.4-.3.6 0 .3.2.5.4.7.3.2.5.3 1 .3.6.1 1.3-.5 1.8-1.3s.9-1.8 1.2-2.6c.3-.8.6-1.6.8-2.3.4-1.3.6-2.2.6-2.2s.1.9-.1 2.3c-.1.7-.2 1.5-.4 2.4-.2.9-.6 1.9-1.2 2.9-.3.5-.7.9-1.2 1.3s-1.1.5-1.8.4c-.4-.1-1-.3-1.3-.7-.4-.4-.5-.9-.5-1.3.1-.4.3-.8.7-.9.2-.1.3-.1.5-.1.1 0 .3.1.3.1.2.1.3.2.4.3.2.2.2.3.2.3"/><path clip-path="url(#b)" fill="#231F20" d="M96.7 78.3s-1.1.7-2.9 1.8c-.9.6-2.1 1.1-3.4 1.7-1.3.5-2.8 1.1-4.4 1.4-.5.1-1 .2-1.4.2-.5.1-1 .1-1.4.1-.5 0-1-.1-1.4-.1l-.3-.1h-.2l-.2-.1c-.3-.1-.4-.3-.6-.4-.6-.6-1.1-1.1-1.5-1.6-.4-.5-.7-.9-1-1.2h.3c-.2.4-.3.8-.3 1.1 0 .3 0 .6.1.9 0 .5.1.7.1.7s-.1-.2-.2-.6c-.1-.2-.1-.5-.2-.9s0-.8.2-1.3l.1-.2.2.2 1.1 1.1c.4.4.9.9 1.5 1.4.5.4 1.3.4 2.1.4.4 0 .8 0 1.3-.1l1.3-.2c1.5-.3 3-.8 4.3-1.2 1.3-.5 2.5-.9 3.5-1.3 2.1-1.2 3.3-1.7 3.3-1.7"/><path clip-path="url(#b)" fill="#231F20" d="M89.4 85.8s-.1 0-.4.1c-.2.1-.6.2-1 .2-.4.1-.9.2-1.6.2-.6 0-1.3.1-1.9 0-.7 0-1.4-.3-1.9-.7-.5-.4-.8-.9-1-1.4-.1-.5-.2-.8-.2-1.1v-.4s.1.1.1.4c.1.2.2.6.5.9.3.3.6.6 1 .9.5.2 1 .4 1.6.4.7.1 1.3.1 1.8.2.6.1 1.1.1 1.5.2.4.1.8.1 1 .1h.5"/><path clip-path="url(#b)" fill="#fff" d="M117.1 47.7c-3 3.9-6.1 10.1-6 13.1-.5.9-2.7 1.1-2.7 1.1.1-1.6-.2-3 0-4.2.2-1.2 1.5-21-3.5-23.8-3.4-.2-18.3 9.6-23.6 4.9-1.4 2.5-7.5 1.1-12.4-1.2-.2.9-.4 2-.6 3.4-2.1.1-3.9-5.3-3.3-10.6.5-5.3 7.5-24.2 22.6-19.6 2.1-3.3 13.5-3 21 4.7 3.8 3.7 3.8 6 4.7 8.2.9 2.2 4.1 19.7 3.8 24"/><path clip-path="url(#b)" fill="#231F20" d="M96.7 82.8s0-.2.1-.5c0-.3.1-.8 0-1.5-.1-1.2-.6-2.8-1.8-4.1-.6-.7-1.2-1.2-1.9-1.7l-.9-.6-.9-.3c-.6-.1-1.2-.3-1.5-.4-.3-.2-.5-.2-.5-.2s.2 0 .5.1c.4.1.8.1 1.5.1.3 0 .7 0 1.1.1.4.1.8.3 1.1.5.7.4 1.5 1 2.2 1.8.7.8 1.1 1.7 1.4 2.5.2.9.2 1.7.1 2.3-.1.6-.3 1.1-.4 1.5 0 .2-.1.4-.1.4"/><path clip-path="url(#b)" fill="#231F20" d="M99.4 80.7s-.2-.2-.4-.5-.4-.8-.6-1.3c-.1-.5-.2-1-.2-1.3v-.6000000000000001s.1 0 .2.1c.1 0 .2.1.4.3.3.3.6.8.7 1.3.1.5.1 1.1.1 1.4l-.2.6"/><path clip-path="url(#b)" fill="#231F20" d="M91.9 7.9c4.5 0 10.7 2 15.3 6.7 3.8 3.7 3.8 6 4.7 8.2.9 2.3 4 19.8 3.7 24.1 1.6-2 3.1-3.4 4.2-3.4h.2c3.1.5.4 14.2-1.2 17.5-1.5 3.1-3.8 4.1-5.5 4.1h-.4s-1.1 4.2-1.1 5.7l8.2 8.9 36.2 16.8-11.5 51.7h-101.5l-8.9-45.8 41.6-19.2c-1.1-2-5.9-10.2-7-13.6-1.1-3.3-1.6-8.2-1.5-11.9 0 0-1.2-.2-1.6-.9-.4-6.7.4-12.7 1-16.7h-.1c-2.1 0-3.8-5.4-3.3-10.6.6-4.6 6.3-20.3 18.2-20.3 1.4 0 2.9.2 4.5.7.9-1.2 3-2 5.8-2m0-2.1c-2.7 0-4.9.6-6.4 1.8-1.3-.3-2.6-.5-3.9-.5-13.6 0-19.7 17.4-20.1 22.3-.5 4.5.6 9.4 2.5 11.5.2.2.4.4.6.5-.8 5.4-1 10.6-.8 15.6v.5l.3.5c.4.6.8 1 1.3 1.3 0 3.4.5 7.8 1.6 11.1.8 2.6 3.5 7.5 6 12l-39.5 18.2-1.5.7.4 1.7 8.9 45.8.4 1.7h105.10000000000001l.4-1.6 11.5-51.7.4-1.7-1.6-.7-35.9-16.7-7.3-7.9c.1-.8.3-1.9.6-3 2.5-.5 4.8-2.3 6.1-5.1 1.4-2.8 4.2-14.6 2.1-18.7-.5-1-1.4-1.7-2.4-1.9h-.6c-.6 0-1.4.1-2.4.8-.8-7.1-2.8-18.1-3.6-20.1-.2-.4-.3-.8-.4-1.3-.6-2-1.3-4.4-4.8-7.7-5.5-5.4-12.4-7.4-17-7.4"/><path clip-path="url(#b)" fill="#231F20" d="M115.7 46.5v-2.2c-.1-.5-.1-1.1-.2-1.7-.3-2.6-.9-6.4-1.8-11.3-.5-2.4-1-5.2-1.7-8.1l-.2-.5c0-.2-.1-.4-.2-.5l-.4-1.1c-.2-.7-.5-1.5-.9-2.2-.3-.7-.8-1.4-1.3-2.1-.3-.3-.5-.6-.8-1l-.9-.9c-2.4-2.5-5.6-4.6-9.3-5.9-1.9-.6-3.9-1-5.9-1-1 0-2.1.1-3.1.3-1 .3-2 .7-2.5 1.5l-.2.3-.3-.2c-2.1-.6-4.7-.9-7.4-.3-2.7.7-5.3 2.3-7.5 4.7-2.2 2.4-3.9 5.3-5.3 8.6-.7 1.6-1.2 3.3-1.6 5.1-.2.8-.3 1.8-.3 2.7 0 .9 0 1.8.1 2.7.1 1.2.4 2.5.8 3.6.2.5.5 1.1.8 1.5.3.4.7.7 1.1.7-.2.2-.3.3-.5.4l.6-3.4.1-.7.6.3c2 1 4.1 1.7 6.2 2.2 1 .2 2.1.4 3.1.3.5 0 1-.1 1.4-.3.4-.2.7-.4 1-.8l.3-.5.4.4c.8.7 1.8 1 2.8 1.1 1.1.1 2.1 0 3.2-.2 2.1-.4 4.1-1.1 6.1-1.8 1.9-.7 3.8-1.5 5.6-2.3.9-.4 1.8-.8 2.7-1.1l1.4-.5c.5-.1.9-.3 1.5-.2h.2c.9.5 1.4 1.3 1.8 2.1.4.8.7 1.6.9 2.4.4 1.6.7 3.2.8 4.7.3 3 .3 5.8.3 8.3 0 2.5-.1 4.6-.3 6.5-.1.5-.1.9-.1 1.3v3.2l-.1-.1c1-.1 1.6-.3 2-.5.4-.2.5-.3.6-.5 0-1.5.5-2.8.9-3.9s.9-2.1 1.3-3c.9-1.7 1.6-3 2.2-3.9.6-.9 1-1.5 1.3-1.9.6-.2.7-.3.7-.3s-.1.1-.4.5c-.3.4-.7 1-1.3 1.9-.6.9-1.3 2.2-2.2 3.9-.4.9-.9 1.8-1.3 3-.4 1.1-.8 2.4-.8 3.8-.3.4-.7.9-2.7 1.1h-.1v-.1c0-.6 0-1.2-.1-1.9 0-.4 0-.8-.1-1.2l.1-1.3c.1-1.8.2-4 .2-6.4 0-2.5-.1-5.2-.5-8.2-.2-1.5-.4-3-.9-4.6-.2-.8-.5-1.6-.9-2.3-.4-.7-.9-1.4-1.5-1.8h.2c-.8 0-1.7.4-2.6.7-.9.3-1.8.7-2.7 1.1-1.8.8-3.7 1.6-5.6 2.4-2 .8-4 1.5-6.2 1.9-1.1.2-2.3.3-3.4.2-1.2-.1-2.4-.5-3.4-1.4.2 0 .5-.1.8-.1-.3.6-.9 1-1.5 1.2-.6.2-1.2.3-1.7.3-1.2.1-2.3-.1-3.4-.3-2.2-.5-4.4-1.3-6.5-2.3.2-.1.5-.2.7-.4l-.6 3.3-.1.5h-.4c-.2 0-.5 0-.6-.1-.2-.1-.4-.1-.6-.3-.3-.2-.6-.5-.8-.8-.4-.6-.7-1.2-1-1.8-.5-1.2-.7-2.5-.9-3.8-.1-1-.2-1.9-.1-2.9 0-1 .1-1.9.3-2.8.4-1.8 1-3.6 1.7-5.3 1.4-3.3 3.2-6.4 5.5-8.9s5.1-4.2 8-4.9c3-.4 5.8 0 8 .6-.2.1-.4.2-.5.2.7-1.1 1.9-1.5 3-1.8 1.1-.3 2.2-.4 3.3-.3 2.2 0 4.2.5 6.1 1.1 3.8 1.3 7.1 3.5 9.5 6.1l.9.9c.3.3.6.7.8 1 .5.7 1 1.4 1.3 2.2.4.8.6 1.5.8 2.3.1.4.2.8.3 1.1.1.2.1.3.2.6l.1.5c.7 2.9 1.2 5.7 1.6 8.1.8 4.9 1.3 8.7 1.6 11.4.1.7.1 1.2.1 1.7v1.3c.3.7.3 1.1.3 1.1"/><path clip-path="url(#b)" fill="#231F20" d="M91.4 60s.1.3.4.7c.2.2.4.4.7.4.1 0 .2.1.5.1h.5c.4 0 .7 0 1-.1.3-.1.5-.3.6-.5.3-.4.3-.8.3-.7 0 0 .1.3-.1.9-.1.3-.3.6-.7.8-.3.2-.8.2-1.2.3h-.6c-.2 0-.4-.1-.6-.2-.4-.2-.6-.5-.7-.7-.2-.7-.1-1-.1-1"/><path clip-path="url(#b)" fill="#231F20" d="M71.1 59v.2c0 .1 0 .3.1.5 0 .2.2.4.3.6.1.1.1.1.3.2h.2l.2.1c.4.1.5.2.8.1.2-.1.4-.2.6-.4.3-.3.4-.6.4-.6s0 .3-.2.7c-.1.2-.3.4-.6.6-.2.1-.3.1-.6.1-.2 0-.4-.1-.5-.1h-.4l-.1-.1c-.2-.1-.4-.3-.4-.4-.2-.2-.3-.5-.2-.8 0-.2.1-.4.1-.5v-.2"/><polygon clip-path="url(#b)" fill="#fff" points="91.2,106.4 91,97 91.7,97 92,106.3"/><line clip-path="url(#b)" fill="#fff" x1="77.9" y1="86.8" x2="76.5" y2="95.3"/><polygon clip-path="url(#b)" fill="#231F20" points="92.2,99.4 79.8,96.3 76.1,95.5 77.6,86.8 78.2,86.9 76.9,95 80,95.7 90.6,98.3 88.7,95.5 89.3,95.1"/><rect x="91.3" y="98.7" transform="matrix(.971 .241 -.241 .971 26.553 -19.256)" clip-path="url(#b)" fill="#231F20" width="1.4" height=".7"/></svg>