<?xml version="1.0" encoding="utf-8"?>
<!-- Generator: Adobe Illustrator 18.1.1, SVG Export Plug-In . SVG Version: 6.00 Build 0)  -->
<!DOCTYPE svg PUBLIC "-//W3C//DTD SVG 1.1//EN" "http://www.w3.org/Graphics/SVG/1.1/DTD/svg11.dtd">
<svg version="1.1" id="Layer_1" xmlns="http://www.w3.org/2000/svg" xmlns:xlink="http://www.w3.org/1999/xlink" x="0px" y="0px"
	 viewBox="0 0 178.5 131.1" enable-background="new 0 0 178.5 131.1" xml:space="preserve">
<g>
	<defs>
		<rect id="SVGID_5_" x="2.4" y="2.2" width="176.1" height="128.7"/>
	</defs>
	<clipPath id="SVGID_2_">
		<use xlink:href="#SVGID_5_"  overflow="visible"/>
	</clipPath>
	<path clip-path="url(#SVGID_2_)" fill="#D8505C" d="M184.4,131.7H-10.1V130c0.6,0,1.3-0.2,1.9-0.2c3.5-0.2,6.5-0.2,7.1,0
		c0.6-0.4,3.7-0.9,7.1-1.3c3.5-0.2,6.3,0,7.1,0.4c0.6-0.7,3.5-1.5,6.9-1.7c3.5-0.2,6.5,0,7.1,0.9c0.9-0.9,3.7-1.9,7.1-2.2
		c3.5-0.4,6.5,0.2,7.1,1.3c0.6-1.3,3.7-2.4,7.1-2.6c3.5-0.4,6.3,0.4,7.1,1.7c0.6-1.5,3.5-2.8,7.1-3c3.5-0.4,6.3,0.6,6.9,2.2
		c0.9-1.7,3.7-3.2,7.1-3.5c3.5-0.4,6.5,0.7,7.1,2.4c0.6-1.7,3.7-3.5,7.1-3.7c3.5-0.4,6.3,0.9,7.1,2.8c0.6-2.2,3.7-3.9,7.1-4.1
		c3.5-0.4,6.3,1.1,6.9,3.2c0.9-2.4,3.7-4.3,7.1-4.5c3.5-0.4,6.5,1.1,7.1,3.7c0.6-2.6,3.7-4.8,7.1-5c3.5-0.4,6.5,1.3,7.1,4.1
		c0.6-2.8,3.7-5.2,7.1-5.6c3.5-0.2,6.3,1.7,7.1,4.8c0.6-3.2,3.5-5.6,6.9-6c3.5-0.2,6.5,1.9,7.1,5c0.7-3.2,3.7-5.8,7.1-6.3
		c3.5-0.2,6.5,2.2,7.1,5.4c0.2-0.9,0.4-1.7,0.9-2.6v8.4c-0.4-0.9-0.6-1.7-0.9-2.6c-0.2,1.1-0.7,2.2-1.3,3c0.6-0.2,1.1-0.2,1.7-0.2
		h0.4V131.7z"/>
	<path clip-path="url(#SVGID_2_)" fill="#D8505C" d="M-10.2,16.3c0.4-0.6,0.6-1.3,0.6-1.9c0.9,3.5,3.7,5.6,7.1,5.4
		c3.5-0.2,6.5-3,7.1-6.3c0.6,3.2,3.7,5.2,7.1,5c3.5-0.4,6.3-2.8,7.1-5.8c0.6,2.8,3.7,4.8,7.1,4.5c3.5-0.4,6.3-2.6,6.9-5.4
		c0.9,2.6,3.7,4.3,7.1,4.1c3.5-0.4,6.5-2.6,7.1-5c0.6,2.4,3.7,3.9,7.1,3.7c3.5-0.4,6.3-2.4,7.1-4.8c0.6,2.4,3.7,3.7,7.1,3.5
		c3.5-0.4,6.3-2.2,6.9-4.3c0.9,1.9,3.7,3.2,7.1,3c3.5-0.4,6.5-1.9,7.1-3.9c0.7,1.7,3.7,2.8,7.1,2.6c3.5-0.4,6.5-1.9,7.1-3.5
		c0.6,1.5,3.7,2.4,7.1,2.2c3.5-0.4,6.3-1.7,7.1-3c0.6,1.3,3.5,1.9,6.9,1.5c3.5-0.2,6.5-1.3,7.1-2.6c0.9,1.1,3.7,1.7,7.1,1.3
		c3.5-0.2,6.5-1.1,7.1-2.2c0.6,0.9,3.7,1.3,7.1,0.9c3.5-0.2,6.3-1.1,7.1-1.7c0.7,0.6,3.5,0.9,6.9,0.4c3.7-0.2,6.5-0.9,7.1-1.3
		c0.9,0.4,3.7,0.4,7.1,0c0.9,0,1.5,0,2.2-0.2V2h-8c-0.6,0-1.1,0.2-1.3,0.2c-0.2,0-0.4-0.2-1.1-0.2h0.9h1.3h-22.3h0.2h-0.2h-1.1h0.2
		H-10.2v6.5h0.4c0.4,0,1.1-0.2,1.5-0.2c-0.6,0.9-1.1,1.7-1.3,2.8c0-0.6-0.2-1.3-0.6-1.7V16.3z"/>
	<path clip-path="url(#SVGID_2_)" fill="#D8505C" d="M184.4,3.5v0.6c-0.4,0.2-0.9,0.2-1.3,0.4c-3,0.6-5.6,0.9-5.6,0.4
		c0-0.2,2.6-0.9,5.6-1.5H184.4z"/>
	<path clip-path="url(#SVGID_2_)" fill="#D8505C" d="M184.4,76.4V85c-0.4,0.4-1.3,0.9-1.9,1.1c-2.6,0.4-4.8-1.1-4.8-3.7
		c0-2.6,2.2-5.4,4.8-6.1C183.1,76.2,184,76.2,184.4,76.4"/>
	<path clip-path="url(#SVGID_2_)" fill="#D8505C" d="M184.4,100.1h-1.3c-3.5,0.4-6.3,3.9-6.3,7.6c0,3.5,2.8,6.3,6.3,5.8
		c0.4,0,0.9,0,1.3-0.2V100.1z"/>
	<path clip-path="url(#SVGID_2_)" fill="#D8505C" d="M11.5,3.7c0.2,0.4,0.4,0.6,0.6,0.9h-0.2c-0.4,0-0.9,0-1.1,0.2
		C11,4.4,11.2,4.2,11.5,3.7"/>
	<path clip-path="url(#SVGID_2_)" fill="#D8505C" d="M6.1,7.6C5.4,8.5,5,9.4,4.8,10.4C4.5,9.6,4.1,8.7,3.7,7.9h0.6
		C5,7.9,5.4,7.9,6.1,7.6"/>
	<path clip-path="url(#SVGID_2_)" fill="#D8505C" d="M25.7,3.5c0.2,0.2,0.4,0.6,0.6,0.9h-0.2h-1.3C25.3,4.2,25.5,4,25.7,3.5"/>
	<path clip-path="url(#SVGID_2_)" fill="#D8505C" d="M20.1,7.2c-0.4,0.9-0.9,1.7-1.1,2.6c-0.2-0.9-0.6-1.7-1.3-2.4h0.9
		C19,7.4,19.7,7.4,20.1,7.2"/>
	<path clip-path="url(#SVGID_2_)" fill="#D8505C" d="M40,3.3c0,0.2,0.2,0.6,0.6,0.9h-0.4h-1.1C39.4,4,39.8,3.7,40,3.3"/>
	<path clip-path="url(#SVGID_2_)" fill="#D8505C" d="M34.4,6.8c-0.6,0.6-1.1,1.5-1.3,2.4C32.9,8.3,32.6,7.6,32,7h0.9
		C33.3,7,33.9,6.8,34.4,6.8"/>
	<path clip-path="url(#SVGID_2_)" fill="#D8505C" d="M54,3.1c0.2,0.2,0.4,0.6,0.6,0.9h-0.2h-1.1C53.6,3.7,53.8,3.5,54,3.1"/>
	<path clip-path="url(#SVGID_2_)" fill="#D8505C" d="M48.6,6.3C48,7,47.6,7.6,47.3,8.5c-0.2-0.9-0.6-1.5-1.1-2.2
		c0.2,0.2,0.4,0.2,0.6,0.2C47.6,6.3,48,6.3,48.6,6.3"/>
	<path clip-path="url(#SVGID_2_)" fill="#D8505C" d="M68.3,2.9c0.2,0.2,0.4,0.4,0.6,0.7h-0.2c-0.4,0-0.9,0-1.1,0.2
		C67.9,3.5,68.1,3.1,68.3,2.9"/>
	<path clip-path="url(#SVGID_2_)" fill="#D8505C" d="M62.7,5.7c-0.4,0.6-0.9,1.3-1.1,1.9C61.4,7,61,6.6,60.5,5.9h0.6
		C61.8,5.9,62.3,5.9,62.7,5.7"/>
	<path clip-path="url(#SVGID_2_)" fill="#D8505C" d="M82.6,2.7c0,0.2,0.2,0.4,0.6,0.6h-0.4h-1.1C81.9,3.1,82.4,2.9,82.6,2.7"/>
	<path clip-path="url(#SVGID_2_)" fill="#D8505C" d="M77,5.3c-0.6,0.6-1.1,1.1-1.3,1.7c0-0.4-0.4-1.1-1.1-1.5h0.9
		C75.9,5.5,76.5,5.5,77,5.3"/>
	<path clip-path="url(#SVGID_2_)" fill="#D8505C" d="M96.6,2.4c0.2,0.2,0.4,0.4,0.6,0.7h-0.2H96C96.2,2.9,96.4,2.7,96.6,2.4"/>
	<path clip-path="url(#SVGID_2_)" fill="#D8505C" d="M91.2,4.8c-0.6,0.4-1.1,0.9-1.3,1.5c-0.2-0.4-0.6-1.1-1.1-1.3h0.6
		C90.1,4.8,90.6,4.8,91.2,4.8"/>
	<path clip-path="url(#SVGID_2_)" fill="#D8505C" d="M110.9,2.4c0.2,0,0.4,0.2,0.6,0.4h-0.2h-1.1C110.5,2.7,110.7,2.4,110.9,2.4"/>
	<path clip-path="url(#SVGID_2_)" fill="#D8505C" d="M105.3,4.4c-0.4,0.4-0.9,0.9-1.1,1.3c-0.2-0.4-0.6-0.9-1.1-1.3h0.6H105.3z"/>
	<path clip-path="url(#SVGID_2_)" fill="#D8505C" d="M125.2,2.2c0.2,0,0.4,0.2,0.6,0.2h-0.4c-0.2,0-0.7,0-1.1,0.2
		C124.7,2.4,124.9,2.2,125.2,2.2"/>
	<path clip-path="url(#SVGID_2_)" fill="#D8505C" d="M119.5,3.7c-0.6,0.4-0.9,0.9-1.1,1.3c-0.2-0.4-0.6-0.9-1.3-1.1h0.9
		C118.5,4,119.1,4,119.5,3.7"/>
	<path clip-path="url(#SVGID_2_)" fill="#D8505C" d="M139.2,2c0.2,0,0.4,0.2,0.6,0.2h-0.2h-1.1C138.8,2.2,139,2,139.2,2"/>
	<path clip-path="url(#SVGID_2_)" fill="#D8505C" d="M133.8,3.3c-0.6,0.4-1.1,0.6-1.3,1.1c-0.2-0.4-0.6-0.6-1.1-0.9h0.6
		C132.7,3.5,133.2,3.3,133.8,3.3"/>
	<path clip-path="url(#SVGID_2_)" fill="#D8505C" d="M148.1,2.9c-0.6,0.2-1.1,0.4-1.3,0.7c-0.2-0.2-0.6-0.4-1.1-0.7h0.7H148.1z"/>
	<path clip-path="url(#SVGID_2_)" fill="#D8505C" d="M162.1,2.4c-0.4,0-0.9,0.2-1.1,0.4c-0.2,0-0.6-0.2-1.3-0.4h0.9H162.1z"/>
	<path clip-path="url(#SVGID_2_)" fill="#D8505C" d="M-1.3,24.7c0-3.5,2.8-6.7,6.5-6.9c3.5-0.4,6.3,2.2,6.3,5.4
		c0,3.2-2.8,6.5-6.3,6.9C1.5,30.8-1.3,28.2-1.3,24.7"/>
	<path clip-path="url(#SVGID_2_)" fill="#D8505C" d="M13,23c0-3.2,2.8-6.3,6.3-6.5c3.7-0.2,6.5,1.9,6.5,5c0,3.2-2.8,6.1-6.5,6.7
		C15.8,28.6,13,26.4,13,23"/>
	<path clip-path="url(#SVGID_2_)" fill="#D8505C" d="M27.2,21.5c0-3.2,2.8-5.8,6.3-6.3C37,15,40,16.9,40,20c0,2.8-3,5.4-6.5,6.1
		C30.1,26.4,27.2,24.5,27.2,21.5"/>
	<path clip-path="url(#SVGID_2_)" fill="#D8505C" d="M41.3,19.7c0-2.8,3-5.4,6.5-5.6c3.5-0.4,6.3,1.5,6.3,4.1c0,2.6-2.8,5.2-6.3,5.6
		C44.3,24.3,41.3,22.6,41.3,19.7"/>
	<path clip-path="url(#SVGID_2_)" fill="#D8505C" d="M55.6,18c0-2.6,2.8-4.8,6.3-5.2c3.7-0.2,6.5,1.3,6.5,3.7c0,2.4-2.8,4.8-6.5,5.2
		C58.4,22.3,55.6,20.6,55.6,18"/>
	<path clip-path="url(#SVGID_2_)" fill="#D8505C" d="M69.8,16.3c0-2.2,2.8-4.3,6.3-4.5c3.5-0.4,6.5,1.1,6.5,3c0,2.2-3,4.3-6.5,4.8
		C72.6,20.2,69.8,18.7,69.8,16.3"/>
	<path clip-path="url(#SVGID_2_)" fill="#D8505C" d="M83.9,14.8c0-2.2,3-4.1,6.5-4.3c3.5-0.4,6.3,0.9,6.3,2.8c0,1.7-2.8,3.7-6.3,4.1
		C86.9,18,83.9,16.7,83.9,14.8"/>
	<path clip-path="url(#SVGID_2_)" fill="#D8505C" d="M98.1,13c0-1.7,2.8-3.5,6.5-3.9c3.5-0.2,6.3,0.9,6.3,2.4c0,1.5-2.8,3.2-6.3,3.9
		C100.9,15.8,98.1,14.8,98.1,13"/>
	<path clip-path="url(#SVGID_2_)" fill="#D8505C" d="M112.4,11.3c0-1.5,2.8-3,6.3-3.2c3.7-0.4,6.5,0.4,6.5,1.7
		c0,1.3-2.8,2.8-6.5,3.5C115.2,13.7,112.4,12.8,112.4,11.3"/>
	<path clip-path="url(#SVGID_2_)" fill="#D8505C" d="M126.5,9.8c0-1.3,3-2.6,6.5-3c3.5-0.2,6.5,0.4,6.5,1.5c0,1.1-3,2.4-6.5,2.8
		C129.5,11.5,126.5,10.9,126.5,9.8"/>
	<path clip-path="url(#SVGID_2_)" fill="#D8505C" d="M140.7,8.1c0-1.1,2.8-2.2,6.5-2.6c3.5-0.2,6.3,0.2,6.3,1.1
		c0,0.9-2.8,1.9-6.3,2.4C143.5,9.6,140.7,9.1,140.7,8.1"/>
	<path clip-path="url(#SVGID_2_)" fill="#D8505C" d="M155,6.3c0-0.9,2.8-1.7,6.3-1.9c3.7-0.2,6.5-0.2,6.5,0.4c0,0.7-2.8,1.5-6.5,1.9
		C157.8,7.4,155,7.2,155,6.3"/>
	<path clip-path="url(#SVGID_2_)" fill="#D8505C" d="M169.2,4.6c0-0.4,2.8-1.1,6.3-1.5c3.5-0.2,6.5-0.2,6.5,0c0,0.4-3,1.1-6.5,1.5
		C172.1,5.3,169.2,5.3,169.2,4.6"/>
	<path clip-path="url(#SVGID_2_)" fill="#D8505C" d="M-7.1,38.1c0,3.2,2.6,5.2,5.6,4.5c3-0.4,5.4-3.5,5.4-6.5c0-3-2.4-5-5.4-4.5
		C-4.5,32.1-7.1,35.1-7.1,38.1"/>
	<path clip-path="url(#SVGID_2_)" fill="#D8505C" d="M7.1,35.5c0,3,2.4,5,5.4,4.3c3-0.6,5.6-3.5,5.6-6.3c0-2.6-2.6-4.5-5.6-4.1
		C9.5,29.9,7.1,32.7,7.1,35.5"/>
	<path clip-path="url(#SVGID_2_)" fill="#D8505C" d="M21.4,33.1c0,2.6,2.4,4.3,5.4,3.7c3-0.6,5.4-3.2,5.4-5.6c0-2.6-2.4-4.3-5.4-3.9
		C23.8,27.7,21.4,30.3,21.4,33.1"/>
	<path clip-path="url(#SVGID_2_)" fill="#D8505C" d="M35.5,30.5c0,2.4,2.6,4.1,5.6,3.5c3-0.6,5.4-3,5.4-5.4c0-2.4-2.4-3.9-5.4-3.5
		C38.1,25.6,35.5,28,35.5,30.5"/>
	<path clip-path="url(#SVGID_2_)" fill="#D8505C" d="M49.7,28c0,2.4,2.6,3.7,5.4,3c3-0.6,5.6-2.8,5.6-5c0-2.2-2.6-3.5-5.6-3
		C52.3,23.4,49.7,25.8,49.7,28"/>
	<path clip-path="url(#SVGID_2_)" fill="#D8505C" d="M64,25.4c0,2.2,2.4,3.2,5.4,2.6c3-0.4,5.6-2.6,5.6-4.5c0-1.7-2.6-3-5.6-2.6
		C66.4,21.3,64,23.4,64,25.4"/>
	<path clip-path="url(#SVGID_2_)" fill="#D8505C" d="M78,23c0-1.9,2.6-3.9,5.6-4.3c3-0.4,5.4,0.6,5.4,2.2c0,1.7-2.4,3.7-5.4,4.3
		C80.6,25.8,78,24.7,78,23"/>
	<path clip-path="url(#SVGID_2_)" fill="#D8505C" d="M92.3,20.4c0-1.7,2.6-3.5,5.6-3.9c2.8-0.4,5.4,0.4,5.4,1.9c0,1.5-2.6,3-5.6,3.7
		C94.7,22.8,92.3,21.9,92.3,20.4"/>
	<path clip-path="url(#SVGID_2_)" fill="#D8505C" d="M106.6,17.8c0-1.5,2.4-3,5.4-3.5c3-0.4,5.6,0.2,5.4,1.5c0,1.3-2.4,2.8-5.4,3.5
		C108.9,20,106.6,19.3,106.6,17.8"/>
	<path clip-path="url(#SVGID_2_)" fill="#D8505C" d="M120.6,15.2c0.2-1.1,2.6-2.6,5.6-3c3-0.4,5.4,0,5.4,1.1c0,1.1-2.4,2.4-5.4,3
		C123.2,16.9,120.6,16.5,120.6,15.2"/>
	<path clip-path="url(#SVGID_2_)" fill="#D8505C" d="M134.9,12.8c0-1.1,2.6-2.4,5.6-2.8c3-0.4,5.4,0,5.4,0.6c0,0.9-2.6,2.2-5.6,2.8
		C137.5,13.9,134.9,13.7,134.9,12.8"/>
	<path clip-path="url(#SVGID_2_)" fill="#D8505C" d="M149.1,10.2c0-0.9,2.4-1.7,5.4-2.4c3-0.4,5.6-0.2,5.6,0.4
		c0,0.4-2.6,1.5-5.6,2.2C151.5,11.1,149.1,10.9,149.1,10.2"/>
	<path clip-path="url(#SVGID_2_)" fill="#D8505C" d="M163.2,7.6c0.2-0.6,2.6-1.3,5.6-1.9c3-0.4,5.4-0.4,5.4,0c0,0.4-2.4,1.1-5.4,1.7
		C165.8,8.1,163.2,8.1,163.2,7.6"/>
	<path clip-path="url(#SVGID_2_)" fill="#D8505C" d="M1.3,48.9c0-2.6,2.2-5,4.5-5.6c2.6-0.4,4.8,1.1,4.8,3.5c0,2.4-2.2,5-4.8,5.6
		C3.5,53,1.3,51.5,1.3,48.9"/>
	<path clip-path="url(#SVGID_2_)" fill="#D8505C" d="M15.6,45.5c0-2.4,1.9-4.8,4.5-5.2c2.6-0.6,4.5,0.9,4.5,3c0,2.2-1.9,4.5-4.5,5.2
		C17.5,49.1,15.6,47.8,15.6,45.5"/>
	<path clip-path="url(#SVGID_2_)" fill="#D8505C" d="M29.6,42c0-2.2,2.2-4.3,4.8-4.8c2.4-0.6,4.5,0.6,4.5,2.6c0,2.2-2.2,4.3-4.5,5
		C31.8,45.5,29.6,44.2,29.6,42"/>
	<path clip-path="url(#SVGID_2_)" fill="#D8505C" d="M43.9,38.8c0-2.2,2.2-4.1,4.5-4.8c2.6-0.4,4.8,0.6,4.8,2.4
		c0,1.9-2.2,4.1-4.8,4.8C46.1,41.8,43.9,40.7,43.9,38.8"/>
	<path clip-path="url(#SVGID_2_)" fill="#D8505C" d="M58.2,35.3c0-1.9,1.9-3.9,4.5-4.3c2.6-0.6,4.5,0.4,4.5,1.9
		c0,1.7-1.9,3.7-4.5,4.3C60.1,37.9,58.2,37,58.2,35.3"/>
	<path clip-path="url(#SVGID_2_)" fill="#D8505C" d="M72.4,31.8c0-1.7,1.9-3.5,4.5-3.9c2.4-0.6,4.5,0.2,4.5,1.7
		c0,1.5-2.2,3.2-4.5,3.9C74.4,34.2,72.4,33.4,72.4,31.8"/>
	<path clip-path="url(#SVGID_2_)" fill="#D8505C" d="M86.5,28.4c0,1.5,2.2,2.2,4.5,1.5c2.6-0.6,4.8-2.4,4.8-3.7
		c0-1.3-2.2-1.9-4.8-1.5C88.6,25.4,86.5,26.9,86.5,28.4"/>
	<path clip-path="url(#SVGID_2_)" fill="#D8505C" d="M100.7,24.9c0,1.3,1.9,1.7,4.5,1.1c2.6-0.6,4.5-2.2,4.5-3.2
		c0-1.1-1.9-1.7-4.5-1.1C102.7,22.1,100.7,23.6,100.7,24.9"/>
	<path clip-path="url(#SVGID_2_)" fill="#D8505C" d="M114.8,21.5c0-1.1,2.2-2.4,4.8-2.8c2.4-0.6,4.5-0.2,4.5,0.6
		c0,1.1-2.2,2.4-4.5,3C116.9,23,114.8,22.6,114.8,21.5"/>
	<path clip-path="url(#SVGID_2_)" fill="#D8505C" d="M129,18.2c0-1.1,2.2-2.2,4.5-2.8c2.6-0.4,4.8-0.2,4.8,0.4
		c0,0.9-2.2,1.9-4.8,2.6C131.2,19.3,129,19.1,129,18.2"/>
	<path clip-path="url(#SVGID_2_)" fill="#D8505C" d="M143.3,14.8c0-0.9,1.9-1.7,4.5-2.4c2.6-0.6,4.5-0.4,4.5,0
		c0,0.6-1.9,1.7-4.5,2.4C145.3,15.4,143.3,15.4,143.3,14.8"/>
	<path clip-path="url(#SVGID_2_)" fill="#D8505C" d="M157.6,11.3c0-0.6,1.9-1.5,4.5-1.9c2.6-0.6,4.5-0.6,4.5-0.2
		c0,0.4-1.9,1.3-4.5,1.9C159.5,11.7,157.6,11.7,157.6,11.3"/>
	<path clip-path="url(#SVGID_2_)" fill="#D8505C" d="M171.6,7.9c0-0.4,2.2-1.1,4.8-1.7c2.4-0.4,4.5-0.6,4.5-0.4
		c0,0.2-2.2,0.9-4.5,1.5C173.8,8.1,171.6,8.3,171.6,7.9"/>
	<path clip-path="url(#SVGID_2_)" fill="#D8505C" d="M-4.5,63c0-2.2,1.7-4.3,3.7-5c2.2-0.4,3.7,0.6,3.7,2.8c0,1.9-1.5,4.1-3.7,4.8
		C-2.8,66.2-4.5,65.1-4.5,63"/>
	<path clip-path="url(#SVGID_2_)" fill="#D8505C" d="M9.7,58.6c0-1.9,1.5-4.1,3.7-4.5c1.9-0.6,3.7,0.4,3.7,2.4
		c0,1.7-1.7,3.9-3.7,4.5C11.2,61.7,9.7,60.6,9.7,58.6"/>
	<path clip-path="url(#SVGID_2_)" fill="#D8505C" d="M23.8,54.3c0-1.7,1.7-3.7,3.9-4.3c1.9-0.6,3.7,0.4,3.7,2.2
		c0,1.7-1.7,3.7-3.7,4.3C25.5,57.1,23.8,56.1,23.8,54.3"/>
	<path clip-path="url(#SVGID_2_)" fill="#D8505C" d="M38.1,50c0,1.7,1.7,2.6,3.7,1.9c2.2-0.6,3.7-2.6,3.7-4.1c0-1.5-1.5-2.4-3.7-1.9
		C39.8,46.5,38.1,48.5,38.1,50"/>
	<path clip-path="url(#SVGID_2_)" fill="#D8505C" d="M52.3,45.7c0,1.5,1.7,2.4,3.7,1.7c1.9-0.6,3.7-2.4,3.7-3.9
		c0-1.5-1.7-2.2-3.7-1.5C54,42.4,52.3,44.2,52.3,45.7"/>
	<path clip-path="url(#SVGID_2_)" fill="#D8505C" d="M66.6,41.4c0,1.5,1.5,2.2,3.7,1.3c1.9-0.6,3.7-2.2,3.7-3.5
		c0-1.3-1.7-1.9-3.7-1.3C68.1,38.5,66.6,40.1,66.6,41.4"/>
	<path clip-path="url(#SVGID_2_)" fill="#D8505C" d="M80.6,37.2c0,1.1,1.7,1.5,3.7,0.9c2.2-0.7,3.7-1.9,3.7-3.2
		c0-1.1-1.5-1.5-3.7-1.1C82.4,34.4,80.6,35.9,80.6,37.2"/>
	<path clip-path="url(#SVGID_2_)" fill="#D8505C" d="M94.9,32.9c0-1.1,1.5-2.6,3.7-3c1.9-0.6,3.7-0.2,3.7,0.6c0,1.1-1.7,2.4-3.7,3
		C96.4,34.2,94.9,34,94.9,32.9"/>
	<path clip-path="url(#SVGID_2_)" fill="#D8505C" d="M108.9,28.6c0-1.1,1.7-2.2,3.9-2.8c1.9-0.6,3.7-0.4,3.7,0.4
		c0,0.9-1.7,2.2-3.7,2.8C110.7,29.7,108.9,29.5,108.9,28.6"/>
	<path clip-path="url(#SVGID_2_)" fill="#D8505C" d="M123.2,24.3c0,0.9,1.7,0.9,3.7,0.2c2.2-0.7,3.7-1.7,3.7-2.6
		c0-0.6-1.5-0.6-3.7-0.2C124.9,22.3,123.2,23.4,123.2,24.3"/>
	<path clip-path="url(#SVGID_2_)" fill="#D8505C" d="M137.5,20c0-0.6,1.7-1.7,3.7-2.2c1.9-0.6,3.7-0.6,3.7,0c0,0.4-1.7,1.5-3.7,2.2
		C139.2,20.6,137.5,20.6,137.5,20"/>
	<path clip-path="url(#SVGID_2_)" fill="#D8505C" d="M151.7,15.6c0-0.4,1.5-1.3,3.7-1.9c1.9-0.6,3.7-0.6,3.7-0.2
		c0,0.4-1.7,1.3-3.7,1.9C153.3,16.1,151.7,16.1,151.7,15.6"/>
	<path clip-path="url(#SVGID_2_)" fill="#D8505C" d="M165.8,11.3c0-0.2,1.7-1.1,3.7-1.7c2.2-0.4,3.7-0.6,3.7-0.4
		c0,0.2-1.5,1.1-3.7,1.7C167.5,11.5,165.8,11.7,165.8,11.3"/>
	<path clip-path="url(#SVGID_2_)" fill="#D8505C" d="M3.9,72.5c0-1.5,1.3-3.2,2.8-3.7c1.5-0.6,2.8,0.2,2.8,1.7c0,1.5-1.3,3-2.8,3.7
		C5.2,74.9,3.9,74,3.9,72.5"/>
	<path clip-path="url(#SVGID_2_)" fill="#D8505C" d="M18.2,67.3c0-1.3,1.1-3,2.6-3.5c1.7-0.6,2.8,0,2.8,1.5c0,1.3-1.1,3-2.8,3.5
		C19.2,69.5,18.2,68.8,18.2,67.3"/>
	<path clip-path="url(#SVGID_2_)" fill="#D8505C" d="M32.2,62.1c0-1.3,1.3-2.8,2.8-3.2c1.5-0.6,2.8,0,2.8,1.3c0,1.3-1.3,2.8-2.8,3.2
		C33.5,64,32.2,63.4,32.2,62.1"/>
	<path clip-path="url(#SVGID_2_)" fill="#D8505C" d="M46.5,56.9c0-1.1,1.3-2.6,2.8-3c1.5-0.6,2.8,0,2.8,1.1c0,1.1-1.3,2.6-2.8,3
		C47.8,58.6,46.5,58.2,46.5,56.9"/>
	<path clip-path="url(#SVGID_2_)" fill="#D8505C" d="M60.5,51.7c0.2-1.1,1.3-2.4,3-2.8c1.5-0.6,2.8-0.2,2.6,0.9c0,1.1-1.1,2.4-2.8,3
		C61.8,53.2,60.5,52.8,60.5,51.7"/>
	<path clip-path="url(#SVGID_2_)" fill="#D8505C" d="M74.8,46.5c0-0.9,1.3-2.2,2.8-2.6c1.5-0.6,2.8-0.2,2.8,0.6
		c0,0.9-1.3,2.2-2.8,2.8C76.1,47.8,74.8,47.6,74.8,46.5"/>
	<path clip-path="url(#SVGID_2_)" fill="#D8505C" d="M89.1,41.4c0-0.6,1.3-1.9,2.8-2.4c1.5-0.6,2.8-0.4,2.8,0.4
		c0,0.9-1.3,1.9-2.8,2.6C90.4,42.6,89.1,42.2,89.1,41.4"/>
	<path clip-path="url(#SVGID_2_)" fill="#D8505C" d="M103.3,36.4c0-0.9,1.1-1.9,2.8-2.4c1.5-0.6,2.6-0.4,2.6,0.2
		c0,0.6-1.1,1.7-2.6,2.4C104.4,37.2,103.3,37,103.3,36.4"/>
	<path clip-path="url(#SVGID_2_)" fill="#D8505C" d="M117.4,31.2c0-0.6,1.3-1.7,2.8-2.2c1.5-0.6,2.8-0.6,2.8,0
		c0,0.7-1.3,1.5-2.8,2.2C118.7,31.8,117.4,31.8,117.4,31.2"/>
	<path clip-path="url(#SVGID_2_)" fill="#D8505C" d="M131.6,26c0-0.6,1.3-1.5,2.8-1.9c1.5-0.6,2.8-0.6,2.8-0.2
		c0,0.4-1.3,1.3-2.8,1.9C132.9,26.4,131.6,26.4,131.6,26"/>
	<path clip-path="url(#SVGID_2_)" fill="#D8505C" d="M145.9,20.8c0-0.4,1.1-1.3,2.8-1.7c1.5-0.6,2.8-0.9,2.8-0.4
		c0,0.4-1.3,1.3-3,1.7C147,21,145.9,21.3,145.9,20.8"/>
	<path clip-path="url(#SVGID_2_)" fill="#D8505C" d="M160,15.6c0-0.4,1.3-1.1,2.8-1.5c1.5-0.6,2.8-0.9,2.8-0.6
		c0,0.2-1.3,1.1-2.8,1.5C161.3,15.6,160,15.8,160,15.6"/>
	<path clip-path="url(#SVGID_2_)" fill="#D8505C" d="M174.2,10.4c0-0.2,1.3-0.9,2.8-1.3c1.5-0.6,2.8-0.9,2.8-0.9
		c0,0.2-1.3,0.9-2.8,1.5C175.5,10.2,174.2,10.7,174.2,10.4"/>
	<path clip-path="url(#SVGID_2_)" fill="#D8505C" d="M12.1,81.1c0-1.1,1.1-2.2,1.9-2.6c1.1-0.4,1.9,0,1.9,0.9c0,1.1-0.9,2.2-1.9,2.6
		C13.2,82.4,12.1,82,12.1,81.1"/>
	<path clip-path="url(#SVGID_2_)" fill="#D8505C" d="M26.4,75.1c0-1.1,0.9-2.2,1.9-2.6c1.1-0.4,1.9,0,1.9,0.9c0,0.9-0.9,1.9-1.9,2.6
		C27.2,76.4,26.4,75.9,26.4,75.1"/>
	<path clip-path="url(#SVGID_2_)" fill="#D8505C" d="M40.6,69c0-0.9,0.9-1.9,1.9-2.4c1.1-0.4,1.9-0.2,1.9,0.6c0,0.9-0.9,1.9-1.9,2.4
		C41.5,70.1,40.6,69.9,40.6,69"/>
	<path clip-path="url(#SVGID_2_)" fill="#D8505C" d="M54.9,63c0-0.9,0.9-1.7,1.7-2.2c1.1-0.7,1.9-0.2,1.9,0.4c0,0.9-0.9,1.7-1.9,2.2
		C55.8,63.8,54.9,63.6,54.9,63"/>
	<path clip-path="url(#SVGID_2_)" fill="#D8505C" d="M69,56.9c0-0.9,0.9-1.7,1.9-2.2c1.1-0.4,1.9-0.2,1.9,0.4c0,0.6-0.9,1.7-1.9,2.2
		C69.8,57.8,69,57.6,69,56.9"/>
	<path clip-path="url(#SVGID_2_)" fill="#D8505C" d="M83.2,50.9c0-0.6,0.9-1.5,1.9-1.9c1.1-0.4,1.9-0.4,1.9,0.2
		c0,0.7-0.9,1.5-1.9,1.9C84.1,51.5,83.2,51.5,83.2,50.9"/>
	<path clip-path="url(#SVGID_2_)" fill="#D8505C" d="M97.5,44.8c0-0.6,0.9-1.5,1.7-1.9c1.1-0.4,1.9-0.2,1.9,0.2
		c0,0.6-0.9,1.3-1.9,1.7C98.4,45.2,97.5,45.2,97.5,44.8"/>
	<path clip-path="url(#SVGID_2_)" fill="#D8505C" d="M111.5,38.8c0-0.6,0.9-1.3,1.9-1.7c1.1-0.4,1.9-0.4,1.9,0
		c0,0.4-0.9,1.3-1.9,1.7C112.4,39.2,111.5,39.2,111.5,38.8"/>
	<path clip-path="url(#SVGID_2_)" fill="#D8505C" d="M125.8,32.7c0-0.4,0.9-1.1,1.9-1.5c1.1-0.4,1.9-0.6,1.9-0.2
		c0,0.4-0.9,1.1-1.9,1.5C126.7,32.9,125.8,32.9,125.8,32.7"/>
	<path clip-path="url(#SVGID_2_)" fill="#D8505C" d="M140.1,26.7c0-0.4,0.9-1.1,1.7-1.5c1.1-0.4,1.9-0.4,1.9-0.2
		c0,0.2-0.9,0.9-1.9,1.3C140.9,26.9,140.1,26.9,140.1,26.7"/>
	<path clip-path="url(#SVGID_2_)" fill="#D8505C" d="M154.1,20.6c0-0.4,0.9-0.9,1.9-1.3c1.1-0.4,1.9-0.6,1.9-0.4
		c0,0.2-0.9,0.9-1.9,1.3C155,20.6,154.1,20.8,154.1,20.6"/>
	<path clip-path="url(#SVGID_2_)" fill="#D8505C" d="M168.4,14.6c0-0.2,0.9-0.9,1.9-1.3c1.1-0.4,1.9-0.6,1.9-0.4
		c0,0.2-0.9,0.6-1.9,1.1C169.2,14.3,168.4,14.6,168.4,14.6"/>
	<path clip-path="url(#SVGID_2_)" fill="#D8505C" d="M6.5,95.4c0-0.4,0.4-1.1,0.9-1.3c0.6-0.4,1.1-0.2,1.1,0.4C8.4,95,8,95.6,7.4,96
		C6.9,96.3,6.5,96,6.5,95.4"/>
	<path clip-path="url(#SVGID_2_)" fill="#D8505C" d="M20.5,88.5c0-0.4,0.4-1.1,1.1-1.3c0.6-0.2,1.1-0.2,1.1,0.4
		c0,0.4-0.4,1.1-1.1,1.3C21,89.3,20.5,89.1,20.5,88.5"/>
	<path clip-path="url(#SVGID_2_)" fill="#D8505C" d="M34.8,81.6c0-0.4,0.4-1.1,1.1-1.3c0.4-0.2,0.9,0,0.9,0.4c0,0.4-0.4,1.1-0.9,1.3
		C35.2,82.2,34.8,82,34.8,81.6"/>
	<path clip-path="url(#SVGID_2_)" fill="#D8505C" d="M49.1,74.6c0-0.4,0.4-0.9,0.9-1.3c0.7-0.2,1.1,0,1.1,0.4c0,0.4-0.4,0.9-1.1,1.1
		C49.5,75.3,49.1,75.1,49.1,74.6"/>
	<path clip-path="url(#SVGID_2_)" fill="#D8505C" d="M63.1,67.7c0-0.4,0.4-0.9,1.1-1.1c0.7-0.4,1.1-0.2,1.1,0.2
		c0,0.2-0.4,0.9-1.1,1.1C63.6,68.2,63.1,68.2,63.1,67.7"/>
	<path clip-path="url(#SVGID_2_)" fill="#D8505C" d="M77.4,60.8c0-0.4,0.4-0.9,1.1-1.1c0.4-0.2,0.9-0.2,0.9,0c0,0.4-0.4,0.9-0.9,1.3
		C77.8,61.2,77.4,61.2,77.4,60.8"/>
	<path clip-path="url(#SVGID_2_)" fill="#D8505C" d="M91.7,53.9c0-0.2,0.4-0.9,0.9-1.1c0.7-0.2,1.1-0.2,1.1,0c0,0.4-0.4,0.9-1.1,1.1
		C92.1,54.3,91.7,54.1,91.7,53.9"/>
	<path clip-path="url(#SVGID_2_)" fill="#D8505C" d="M105.7,47c0-0.2,0.4-0.6,1.1-1.1c0.6-0.2,1.1-0.2,1.1,0c0,0.4-0.4,0.9-1.1,1.1
		C106.1,47.2,105.7,47.2,105.7,47"/>
	<path clip-path="url(#SVGID_2_)" fill="#D8505C" d="M120,40.1c0-0.2,0.4-0.6,1.1-0.9c0.4-0.4,0.9-0.4,0.9-0.2
		c0.2,0.2-0.4,0.6-0.9,0.9C120.4,40.3,120,40.3,120,40.1"/>
	<path clip-path="url(#SVGID_2_)" fill="#D8505C" d="M134.2,33.1c0-0.2,0.4-0.6,0.9-0.9c0.6-0.2,1.1-0.4,1.1-0.2
		c0,0.2-0.4,0.6-1.1,0.9C134.7,33.1,134.2,33.4,134.2,33.1"/>
	<path clip-path="url(#SVGID_2_)" fill="#D8505C" d="M148.3,26.2c0-0.2,0.4-0.4,1.1-0.9c0.6-0.2,1.1-0.2,1.1-0.2
		c0,0.2-0.4,0.4-1.1,0.9C148.7,26.2,148.3,26.2,148.3,26.2"/>
	<path clip-path="url(#SVGID_2_)" fill="#D8505C" d="M162.5,19.3c0-0.2,0.4-0.4,1.1-0.6c0.4-0.4,0.9-0.4,1.1-0.4
		c0,0.2-0.6,0.4-1.1,0.6C163,19.3,162.5,19.3,162.5,19.3"/>
	<path clip-path="url(#SVGID_2_)" fill="#D8505C" d="M176.8,12.4c0-0.2,0.4-0.4,1.1-0.6c0.4-0.4,0.9-0.4,0.9-0.4s-0.4,0.4-1.1,0.6
		C177.2,12.2,176.8,12.4,176.8,12.4"/>
	<path clip-path="url(#SVGID_2_)" fill="#D8505C" d="M14.3,103.2c0-0.4,0.2-0.9,0.6-0.9c0.2-0.2,0.6-0.2,0.6,0.2
		c0,0.2-0.4,0.6-0.6,0.9C14.5,103.4,14.3,103.4,14.3,103.2"/>
	<path clip-path="url(#SVGID_2_)" fill="#D8505C" d="M28.5,95.2c0-0.2,0.2-0.6,0.6-0.6c0.2-0.2,0.4-0.2,0.4,0.2
		c0,0.2-0.2,0.4-0.4,0.6C28.8,95.6,28.5,95.6,28.5,95.2"/>
	<path clip-path="url(#SVGID_2_)" fill="#D8505C" d="M42.8,87.4c0-0.2,0.2-0.4,0.4-0.7c0.4-0.2,0.6-0.2,0.6,0c0,0.2-0.2,0.7-0.6,0.9
		C43,87.8,42.8,87.6,42.8,87.4"/>
	<path clip-path="url(#SVGID_2_)" fill="#D8505C" d="M56.9,79.6c0-0.2,0.2-0.4,0.6-0.6c0.2-0.2,0.6-0.2,0.6,0c0,0.2-0.4,0.6-0.6,0.9
		C57.1,79.8,56.9,79.8,56.9,79.6"/>
	<path clip-path="url(#SVGID_2_)" fill="#D8505C" d="M71.1,71.8c0-0.2,0.2-0.4,0.6-0.6c0.2-0.2,0.4-0.2,0.4,0c0,0.2-0.2,0.4-0.4,0.6
		C71.3,72,71.1,72,71.1,71.8"/>
	<path clip-path="url(#SVGID_2_)" fill="#D8505C" d="M85.4,64c0-0.2,0.2-0.4,0.4-0.6c0.4-0.2,0.6-0.2,0.6,0c0,0.2-0.2,0.4-0.6,0.6
		C85.6,64.3,85.4,64.3,85.4,64"/>
	<path clip-path="url(#SVGID_2_)" fill="#D8505C" d="M99.4,56.3c0-0.2,0.4-0.4,0.6-0.6c0.2-0.2,0.6-0.2,0.6,0c0,0.2-0.4,0.4-0.6,0.6
		C99.9,56.3,99.4,56.5,99.4,56.3"/>
	<path clip-path="url(#SVGID_2_)" fill="#D8505C" d="M113.7,48.5c0-0.2,0.2-0.4,0.6-0.6c0.2-0.2,0.4-0.2,0.4,0c0,0-0.2,0.4-0.4,0.4
		C113.9,48.5,113.7,48.5,113.7,48.5"/>
	<path clip-path="url(#SVGID_2_)" fill="#D8505C" d="M128,40.7c0-0.2,0.2-0.4,0.4-0.6c0.4-0.2,0.6-0.2,0.6,0c0,0-0.2,0.2-0.6,0.4
		C128.2,40.7,128,40.7,128,40.7"/>
	<path clip-path="url(#SVGID_2_)" fill="#D8505C" d="M142,32.7c0,0,0.2-0.2,0.6-0.4c0.2-0.2,0.6-0.2,0.6-0.2c0,0.2-0.4,0.4-0.6,0.6
		C142.2,32.7,142,32.9,142,32.7"/>
	<path clip-path="url(#SVGID_2_)" fill="#D8505C" d="M156.3,24.9c0,0,0.2-0.2,0.6-0.4c0.2-0.2,0.4-0.2,0.4-0.2
		c0,0.2-0.2,0.4-0.4,0.4C156.5,24.9,156.3,25.1,156.3,24.9"/>
	<path clip-path="url(#SVGID_2_)" fill="#D8505C" d="M170.5,17.1l0.4-0.4c0.4,0,0.6-0.2,0.6-0.2s-0.2,0.2-0.6,0.4
		C170.8,17.1,170.5,17.1,170.5,17.1"/>
	<path clip-path="url(#SVGID_2_)" fill="#D8505C" d="M176.8,128.5c0.2-0.2,0.4-0.7,0.6-1.1c-0.4,0.2-0.6,0.2-1.1,0.2h-0.2
		C176.4,127.8,176.6,128.2,176.8,128.5"/>
	<path clip-path="url(#SVGID_2_)" fill="#D8505C" d="M162.5,128.7c0.2-0.2,0.4-0.7,0.6-0.9h-1.1h-0.2
		C162.1,128,162.3,128.5,162.5,128.7"/>
	<path clip-path="url(#SVGID_2_)" fill="#D8505C" d="M168.2,124.8c0.4-0.2,0.9-0.2,1.5-0.2h0.6c-0.4-0.7-0.9-1.5-1.1-2.6
		C169,123.1,168.6,123.9,168.2,124.8"/>
	<path clip-path="url(#SVGID_2_)" fill="#D8505C" d="M148.3,128.9c0.2-0.2,0.4-0.7,0.9-0.9h-1.1h-0.4
		C147.9,128.2,148.1,128.7,148.3,128.9"/>
	<path clip-path="url(#SVGID_2_)" fill="#D8505C" d="M153.9,125.2c0.4,0,1.1-0.2,1.5-0.2h0.9c-0.6-0.7-1.1-1.5-1.1-2.2
		C155,123.7,154.6,124.6,153.9,125.2"/>
	<path clip-path="url(#SVGID_2_)" fill="#D8505C" d="M134.2,129.1c0.2-0.2,0.4-0.7,0.6-0.9c-0.4,0-0.6,0-1.1,0.2h-0.2L134.2,129.1z"
		/>
	<path clip-path="url(#SVGID_2_)" fill="#D8505C" d="M139.6,125.6h1.7c0.2-0.2,0.4,0,0.6,0c-0.4-0.6-0.9-1.5-1.1-2.2
		C140.7,124.4,140.3,125,139.6,125.6"/>
	<path clip-path="url(#SVGID_2_)" fill="#D8505C" d="M120,129.3c0.2-0.2,0.4-0.4,0.6-0.9c-0.2,0.2-0.6,0.2-1.1,0.2h-0.2
		C119.5,128.9,119.8,129.1,120,129.3"/>
	<path clip-path="url(#SVGID_2_)" fill="#D8505C" d="M125.4,126.3c0.6-0.2,1.1-0.2,1.7-0.2h0.6c-0.4-0.6-0.9-1.3-1.1-1.9
		C126.5,124.8,126,125.6,125.4,126.3"/>
	<path clip-path="url(#SVGID_2_)" fill="#D8505C" d="M105.7,129.5c0.2-0.2,0.4-0.4,0.9-0.6h-1.1h-0.4
		C105.3,129.1,105.5,129.3,105.7,129.5"/>
	<path clip-path="url(#SVGID_2_)" fill="#D8505C" d="M111.3,126.7c0.4,0,1.1-0.2,1.5-0.2h0.9c-0.6-0.4-1.1-1.1-1.3-1.7
		C112.2,125.4,112,126.1,111.3,126.7"/>
	<path clip-path="url(#SVGID_2_)" fill="#D8505C" d="M91.7,129.8c0.2-0.2,0.4-0.4,0.6-0.6h-1.1H91C91.2,129.3,91.4,129.5,91.7,129.8
		"/>
	<path clip-path="url(#SVGID_2_)" fill="#D8505C" d="M97.1,127.2h1.5c0.4-0.2,0.6-0.2,0.9-0.2c-0.6-0.4-0.9-0.9-1.1-1.5
		C98.1,126.1,97.7,126.7,97.1,127.2"/>
	<path clip-path="url(#SVGID_2_)" fill="#D8505C" d="M77.4,130l0.6-0.6c-0.2,0-0.6,0.2-1.1,0.2h-0.2C77,129.5,77.2,129.8,77.4,130"
		/>
	<path clip-path="url(#SVGID_2_)" fill="#D8505C" d="M82.8,127.6h1.7h0.6c-0.4-0.4-0.9-0.9-1.1-1.5
		C83.9,126.7,83.4,127.2,82.8,127.6"/>
	<path clip-path="url(#SVGID_2_)" fill="#D8505C" d="M63.1,130.2c0.2-0.2,0.4-0.4,0.9-0.4h-1.1h-0.4C62.7,129.8,62.9,130,63.1,130.2
		"/>
	<path clip-path="url(#SVGID_2_)" fill="#D8505C" d="M68.7,128.2c0.4-0.2,1.1-0.2,1.5-0.2h0.9c-0.6-0.4-1.1-0.9-1.3-1.3
		C69.6,127.4,69.2,127.8,68.7,128.2"/>
	<path clip-path="url(#SVGID_2_)" fill="#D8505C" d="M49.1,130.4c0.2-0.2,0.4-0.4,0.6-0.4h-1.1h-0.2
		C48.6,130.2,48.9,130.2,49.1,130.4"/>
	<path clip-path="url(#SVGID_2_)" fill="#D8505C" d="M54.5,128.7c0.4,0,1.1-0.2,1.5-0.2h0.9c-0.6-0.2-0.9-0.7-1.1-0.9
		C55.6,128,55.1,128.2,54.5,128.7"/>
	<path clip-path="url(#SVGID_2_)" fill="#D8505C" d="M34.8,130.6c0.2-0.2,0.4-0.2,0.6-0.4h-1.1h-0.2
		C34.4,130.4,34.6,130.4,34.8,130.6"/>
	<path clip-path="url(#SVGID_2_)" fill="#D8505C" d="M40.2,129.1h1.7h0.6c-0.4-0.4-0.9-0.7-1.1-0.9
		C41.3,128.5,40.9,128.9,40.2,129.1"/>
	<path clip-path="url(#SVGID_2_)" fill="#D8505C" d="M20.5,130.8c0.2-0.2,0.4-0.2,0.9-0.4c-0.4,0.2-0.9,0.2-1.3,0.2h-0.2
		C20.1,130.6,20.3,130.6,20.5,130.8"/>
	<path clip-path="url(#SVGID_2_)" fill="#D8505C" d="M26.2,129.5h1.5h0.9c-0.6-0.2-1.1-0.4-1.3-0.6C27,129.1,26.6,129.3,26.2,129.5"
		/>
	<path clip-path="url(#SVGID_2_)" fill="#D8505C" d="M6.3,131.1c0.2-0.2,0.6-0.2,0.9-0.2H6.1H5.6C6.1,130.8,6.3,130.8,6.3,131.1"/>
	<path clip-path="url(#SVGID_2_)" fill="#D8505C" d="M11.9,130.2c0.4,0,1.1-0.2,1.5-0.2h0.9c-0.6,0-0.9-0.2-1.1-0.4
		C13,129.8,12.5,130,11.9,130.2"/>
	<path clip-path="url(#SVGID_2_)" fill="#D8505C" d="M175.3,107.7c0-3.5-2.8-6.1-6.5-5.4c-3.5,0.4-6.3,3.7-6.3,6.9
		c0,3.5,2.8,5.8,6.3,5.6C172.5,114.4,175.3,111.4,175.3,107.7"/>
	<path clip-path="url(#SVGID_2_)" fill="#D8505C" d="M161,109.4c0-3.2-2.8-5.6-6.3-5c-3.7,0.4-6.5,3.5-6.5,6.5c0,3,2.8,5.4,6.5,5
		C158.2,115.7,161,112.7,161,109.4"/>
	<path clip-path="url(#SVGID_2_)" fill="#D8505C" d="M147,111.2c0-3-3-5.2-6.5-4.5c-3.5,0.4-6.3,3.2-6.3,6.1c0,2.8,2.8,4.8,6.3,4.5
		C144,117,147,114.2,147,111.2"/>
	<path clip-path="url(#SVGID_2_)" fill="#D8505C" d="M132.7,112.9c0-2.8-2.8-4.8-6.5-4.3c-3.5,0.7-6.3,3.2-6.3,5.6
		c0,2.6,2.8,4.5,6.3,4.3C129.9,118.1,132.7,115.5,132.7,112.9"/>
	<path clip-path="url(#SVGID_2_)" fill="#D8505C" d="M118.5,114.4c0-2.6-2.8-4.1-6.3-3.7c-3.7,0.7-6.5,2.8-6.5,5.2
		c0,2.4,2.8,4.1,6.5,3.7C115.6,119.4,118.5,117,118.5,114.4"/>
	<path clip-path="url(#SVGID_2_)" fill="#D8505C" d="M104.4,116.1c0-2.4-3-3.7-6.5-3.2c-3.5,0.4-6.5,2.6-6.5,4.8
		c0,1.9,3,3.5,6.5,3.2C101.4,120.5,104.4,118.5,104.4,116.1"/>
	<path clip-path="url(#SVGID_2_)" fill="#D8505C" d="M90.1,117.9c0-2.2-2.8-3.5-6.5-2.8c-3.5,0.4-6.3,2.4-6.3,4.3
		c0,1.7,2.8,3,6.3,2.6C87.3,121.8,90.1,119.8,90.1,117.9"/>
	<path clip-path="url(#SVGID_2_)" fill="#D8505C" d="M75.9,119.4c0-1.7-2.8-2.8-6.3-2.2c-3.7,0.4-6.5,2.2-6.5,3.7
		c0,1.7,2.8,2.6,6.5,2.4C73.1,123.1,75.9,121.3,75.9,119.4"/>
	<path clip-path="url(#SVGID_2_)" fill="#D8505C" d="M61.6,121.1c0-1.5-2.8-2.4-6.3-1.7c-3.5,0.4-6.5,1.9-6.5,3.2
		c0,1.3,3,2.2,6.5,1.9C58.8,124.1,61.6,122.6,61.6,121.1"/>
	<path clip-path="url(#SVGID_2_)" fill="#D8505C" d="M47.6,122.8c0-1.3-2.8-1.9-6.5-1.5c-3.5,0.6-6.3,1.9-6.3,3
		c0,1.1,2.8,1.7,6.3,1.3C44.8,125.4,47.6,124.1,47.6,122.8"/>
	<path clip-path="url(#SVGID_2_)" fill="#D8505C" d="M33.3,124.6c0-1.1-2.8-1.5-6.5-1.1c-3.5,0.6-6.3,1.7-6.3,2.4
		c0,0.9,2.8,1.3,6.3,1.1C30.5,126.5,33.3,125.4,33.3,124.6"/>
	<path clip-path="url(#SVGID_2_)" fill="#D8505C" d="M19,126.1c0-0.6-2.8-0.9-6.3-0.4c-3.5,0.4-6.5,1.5-6.5,1.9c0,0.7,3,0.9,6.5,0.4
		C16.2,127.8,19,126.9,19,126.1"/>
	<path clip-path="url(#SVGID_2_)" fill="#D8505C" d="M5,127.8c0-0.6-3-0.6-6.5,0c-3.5,0.4-6.3,1.1-6.3,1.5c0,0.2,2.8,0.2,6.3,0
		C2,129.1,5,128.2,5,127.8"/>
	<path clip-path="url(#SVGID_2_)" fill="#D8505C" d="M181.1,94.3c0,3.2-2.6,6.1-5.4,6.5c-3,0.4-5.6-1.5-5.6-4.5c0-3,2.6-5.8,5.6-6.5
		C178.5,89.1,181.1,91.3,181.1,94.3"/>
	<path clip-path="url(#SVGID_2_)" fill="#D8505C" d="M166.9,96.9c0,2.8-2.4,5.6-5.4,6.1c-3,0.4-5.6-1.3-5.6-4.1
		c0-2.8,2.6-5.6,5.6-6.3C164.5,92.1,166.9,93.9,166.9,96.9"/>
	<path clip-path="url(#SVGID_2_)" fill="#D8505C" d="M152.8,99.5c0,2.6-2.6,5.2-5.6,5.6c-3,0.4-5.4-1.1-5.4-3.7
		c0-2.6,2.4-5.2,5.4-5.8C150.2,95,152.8,96.7,152.8,99.5"/>
	<path clip-path="url(#SVGID_2_)" fill="#D8505C" d="M138.6,101.9c0,2.6-2.6,5-5.6,5.4c-3,0.4-5.4-1.1-5.4-3.5
		c0-2.2,2.4-4.5,5.4-5.2C136,98,138.6,99.5,138.6,101.9"/>
	<path clip-path="url(#SVGID_2_)" fill="#D8505C" d="M124.3,104.5c0,2.4-2.4,4.5-5.4,5c-3,0.4-5.6-0.9-5.6-3c0-1.9,2.6-4.3,5.6-5
		C121.9,100.8,124.3,102.3,124.3,104.5"/>
	<path clip-path="url(#SVGID_2_)" fill="#D8505C" d="M110,107.1c0,2.2-2.4,4.1-5.4,4.5c-3,0.4-5.4-0.7-5.4-2.6
		c0-1.9,2.4-3.9,5.4-4.5C107.7,103.8,110,104.9,110,107.1"/>
	<path clip-path="url(#SVGID_2_)" fill="#D8505C" d="M96,109.7c0-1.9-2.6-2.8-5.6-2.4c-3,0.6-5.4,2.6-5.4,4.3c0,1.7,2.4,2.6,5.4,2.2
		C93.4,113.3,96,111.4,96,109.7"/>
	<path clip-path="url(#SVGID_2_)" fill="#D8505C" d="M81.7,112c0-1.5-2.4-2.4-5.4-1.7c-3,0.7-5.6,2.4-5.6,3.9c0,1.3,2.6,2.2,5.6,1.7
		C79.3,115.5,81.7,113.8,81.7,112"/>
	<path clip-path="url(#SVGID_2_)" fill="#D8505C" d="M67.4,114.6c0-1.3-2.4-1.9-5.4-1.3c-3,0.7-5.4,2.2-5.4,3.2
		c0,1.3,2.4,1.9,5.4,1.5C65.1,117.6,67.4,116.1,67.4,114.6"/>
	<path clip-path="url(#SVGID_2_)" fill="#D8505C" d="M53.4,117.2c0-1.1-2.6-1.7-5.6-1.1c-3,0.7-5.4,1.9-5.4,3c0,1.1,2.4,1.5,5.4,1.1
		C50.8,119.8,53.4,118.5,53.4,117.2"/>
	<path clip-path="url(#SVGID_2_)" fill="#D8505C" d="M39.1,119.8c0-1.1-2.4-1.3-5.4-0.6c-3,0.6-5.6,1.7-5.6,2.6
		c0,0.9,2.6,1.1,5.6,0.7C36.8,122,39.1,120.7,39.1,119.8"/>
	<path clip-path="url(#SVGID_2_)" fill="#D8505C" d="M24.9,122.4c0-0.9-2.4-0.9-5.4-0.4c-3,0.7-5.4,1.7-5.4,2.4
		c0,0.4,2.4,0.7,5.4,0.2C22.5,124.1,24.9,123.1,24.9,122.4"/>
	<path clip-path="url(#SVGID_2_)" fill="#D8505C" d="M10.8,124.8c0-0.4-2.6-0.4-5.6,0.2c-3,0.6-5.4,1.5-5.4,1.7c0,0.4,2.4,0.4,5.4,0
		C8.2,126.3,10.8,125.4,10.8,124.8"/>
	<path clip-path="url(#SVGID_2_)" fill="#D8505C" d="M172.7,83.5c0-2.4-1.9-4.1-4.5-3.2c-2.6,0.6-4.5,3-4.5,5.6
		c0,2.4,1.9,3.9,4.5,3.2C170.8,88.7,172.7,86.1,172.7,83.5"/>
	<path clip-path="url(#SVGID_2_)" fill="#D8505C" d="M158.4,87c0-2.4-1.9-3.7-4.5-3c-2.6,0.6-4.5,3-4.5,5.2c0,2.4,1.9,3.7,4.5,3
		C156.5,91.7,158.4,89.3,158.4,87"/>
	<path clip-path="url(#SVGID_2_)" fill="#D8505C" d="M144.4,90.4c0-2.2-2.2-3.5-4.5-2.8c-2.6,0.6-4.8,3-4.8,5c0,2.2,2.2,3.2,4.8,2.8
		C142.2,94.7,144.4,92.6,144.4,90.4"/>
	<path clip-path="url(#SVGID_2_)" fill="#D8505C" d="M130.1,93.9c0-1.9-1.9-3-4.5-2.4c-2.6,0.6-4.5,2.6-4.5,4.5c0,1.9,1.9,3,4.5,2.4
		C128.2,98,130.1,95.8,130.1,93.9"/>
	<path clip-path="url(#SVGID_2_)" fill="#D8505C" d="M115.9,97.3c0-1.9-1.9-2.8-4.5-2.2c-2.6,0.6-4.5,2.6-4.5,4.3
		c0,1.7,1.9,2.6,4.5,1.9C113.9,101,115.9,99.1,115.9,97.3"/>
	<path clip-path="url(#SVGID_2_)" fill="#D8505C" d="M101.8,100.6c0-1.5-2.2-2.4-4.8-1.7c-2.4,0.9-4.5,2.6-4.5,4.1
		c0,1.5,2.2,2.2,4.5,1.7C99.7,104,101.8,102.3,101.8,100.6"/>
	<path clip-path="url(#SVGID_2_)" fill="#D8505C" d="M87.5,104c0,1.5-1.9,3.2-4.5,3.7c-2.6,0.6-4.5,0-4.5-1.3c0-1.5,1.9-3,4.5-3.7
		C85.6,102.1,87.5,102.7,87.5,104"/>
	<path clip-path="url(#SVGID_2_)" fill="#D8505C" d="M73.3,107.5c0,1.3-1.9,2.8-4.5,3.2c-2.6,0.7-4.5,0.2-4.5-1.1
		c0-1.1,1.9-2.6,4.5-3.2C71.3,105.8,73.3,106.2,73.3,107.5"/>
	<path clip-path="url(#SVGID_2_)" fill="#D8505C" d="M59.2,111c0-1.1-2.2-1.5-4.8-0.9c-2.4,0.9-4.5,2.2-4.5,3c0,1.1,2.2,1.3,4.5,0.9
		C57.1,113.3,59.2,112,59.2,111"/>
	<path clip-path="url(#SVGID_2_)" fill="#D8505C" d="M45,114.4c0-0.9-1.9-1.1-4.5-0.4c-2.6,0.6-4.5,1.7-4.5,2.6
		c0,0.9,1.9,1.1,4.5,0.4C43,116.4,45,115.3,45,114.4"/>
	<path clip-path="url(#SVGID_2_)" fill="#D8505C" d="M30.7,117.9c0-0.9-1.9-0.9-4.5-0.2c-2.6,0.7-4.5,1.7-4.5,2.4
		c0,0.7,1.9,0.7,4.5,0C28.8,119.6,30.7,118.5,30.7,117.9"/>
	<path clip-path="url(#SVGID_2_)" fill="#D8505C" d="M16.7,121.1c0-0.4-2.2-0.4-4.8,0.4c-2.4,0.6-4.5,1.5-4.5,1.9
		c0,0.4,2.2,0.2,4.5-0.2C14.5,122.6,16.7,121.8,16.7,121.1"/>
	<path clip-path="url(#SVGID_2_)" fill="#D8505C" d="M178.5,69.5c0,2.2-1.7,4.3-3.7,5c-1.9,0.6-3.7-0.6-3.7-2.6c0-2.2,1.7-4.3,3.7-5
		C176.8,66.2,178.5,67.5,178.5,69.5"/>
	<path clip-path="url(#SVGID_2_)" fill="#D8505C" d="M164.3,73.8c0,1.9-1.5,4.1-3.7,4.8c-1.9,0.4-3.7-0.6-3.7-2.4
		c0-1.9,1.7-4.1,3.7-4.8C162.8,70.8,164.3,71.8,164.3,73.8"/>
	<path clip-path="url(#SVGID_2_)" fill="#D8505C" d="M150.2,78.1c0,1.9-1.7,3.9-3.7,4.3c-2.2,0.6-3.7-0.2-3.7-1.9
		c0-1.7,1.5-3.7,3.7-4.3C148.5,75.3,150.2,76.4,150.2,78.1"/>
	<path clip-path="url(#SVGID_2_)" fill="#D8505C" d="M136,82.4c0,1.7-1.7,3.5-3.7,4.1c-1.9,0.7-3.7-0.2-3.7-1.9
		c0-1.5,1.7-3.2,3.7-3.9C134.2,80,136,80.7,136,82.4"/>
	<path clip-path="url(#SVGID_2_)" fill="#D8505C" d="M121.7,86.7c0,1.5-1.5,3.2-3.7,3.9c-1.9,0.4-3.7-0.2-3.7-1.7
		c0-1.3,1.7-3,3.7-3.7C120.2,84.6,121.7,85.2,121.7,86.7"/>
	<path clip-path="url(#SVGID_2_)" fill="#D8505C" d="M107.7,91.1c0,1.3-1.7,3-3.7,3.5c-2.2,0.6-3.9,0-3.9-1.3c0-1.3,1.7-2.8,3.9-3.5
		C105.9,89.1,107.7,89.8,107.7,91.1"/>
	<path clip-path="url(#SVGID_2_)" fill="#D8505C" d="M93.4,95.4c0,1.1-1.7,2.6-3.7,3.2c-2.2,0.6-3.7,0-3.7-1.1
		c0-1.1,1.5-2.6,3.7-3.2C91.7,93.7,93.4,94.1,93.4,95.4"/>
	<path clip-path="url(#SVGID_2_)" fill="#D8505C" d="M79.1,99.7c0-1.1-1.5-1.5-3.7-0.9c-1.9,0.6-3.7,1.9-3.7,3s1.7,1.3,3.7,0.9
		C77.6,102.1,79.1,100.8,79.1,99.7"/>
	<path clip-path="url(#SVGID_2_)" fill="#D8505C" d="M65.1,104c0-1.1-1.7-1.3-3.7-0.6c-2.2,0.6-3.9,1.9-3.9,2.8
		c0,0.9,1.7,1.1,3.9,0.4C63.3,106.2,65.1,104.9,65.1,104"/>
	<path clip-path="url(#SVGID_2_)" fill="#D8505C" d="M50.8,108.1c0,0.9-1.7,1.9-3.7,2.6c-2.2,0.7-3.7,0.4-3.7-0.2
		c0-0.6,1.5-1.9,3.7-2.6C49.1,107.3,50.8,107.5,50.8,108.1"/>
	<path clip-path="url(#SVGID_2_)" fill="#D8505C" d="M36.5,112.5c0-0.6-1.5-0.6-3.7,0c-1.9,0.7-3.7,1.7-3.7,2.4c0,0.4,1.7,0.4,3.7,0
		C35,114.2,36.5,113.1,36.5,112.5"/>
	<path clip-path="url(#SVGID_2_)" fill="#D8505C" d="M22.5,116.8c0-0.4-1.7-0.2-3.9,0.4c-1.9,0.6-3.7,1.5-3.7,1.9
		c0,0.4,1.7,0.2,3.7-0.4C20.8,118.3,22.5,117.4,22.5,116.8"/>
	<path clip-path="url(#SVGID_2_)" fill="#D8505C" d="M8.2,121.1c0-0.2-1.7,0-3.7,0.6c-2.2,0.6-3.7,1.3-3.7,1.5
		c0,0.4,1.5,0.2,3.7-0.4C6.5,122.2,8.2,121.5,8.2,121.1"/>
	<path clip-path="url(#SVGID_2_)" fill="#D8505C" d="M170.1,59.9c0,1.5-1.1,3.2-2.8,3.7c-1.5,0.6-2.8-0.2-2.8-1.5
		c0-1.5,1.3-3.2,2.8-3.9C169,57.6,170.1,58.4,170.1,59.9"/>
	<path clip-path="url(#SVGID_2_)" fill="#D8505C" d="M156.1,65.1c0,1.5-1.3,3-2.8,3.7c-1.5,0.4-2.8-0.2-2.8-1.5c0-1.5,1.3-3,2.8-3.7
		C154.8,63,156.1,63.8,156.1,65.1"/>
	<path clip-path="url(#SVGID_2_)" fill="#D8505C" d="M141.8,70.3c0,1.3-1.3,2.8-2.8,3.5c-1.5,0.4-2.8-0.2-2.8-1.5
		c0-1.1,1.3-2.6,2.8-3.2C140.5,68.4,141.8,69,141.8,70.3"/>
	<path clip-path="url(#SVGID_2_)" fill="#D8505C" d="M127.5,75.5c0,1.1-1.3,2.6-2.8,3.2c-1.5,0.4-2.8,0-2.8-1.3c0-1.1,1.3-2.4,2.8-3
		C126.2,73.8,127.5,74.2,127.5,75.5"/>
	<path clip-path="url(#SVGID_2_)" fill="#D8505C" d="M113.5,80.7c0,1.1-1.3,2.4-2.8,3c-1.7,0.4-2.8,0-2.8-1.1c0-0.9,1.3-2.4,2.8-2.8
		C112.2,79.2,113.5,79.6,113.5,80.7"/>
	<path clip-path="url(#SVGID_2_)" fill="#D8505C" d="M99.2,85.9c0,0.9-1.3,2.2-2.8,2.8c-1.5,0.4-2.8,0.2-2.8-0.9
		c0-0.9,1.3-2.2,2.8-2.6C97.9,84.6,99.2,84.8,99.2,85.9"/>
	<path clip-path="url(#SVGID_2_)" fill="#D8505C" d="M85,91.1c0,0.9-1.3,1.9-2.8,2.6c-1.5,0.4-2.8,0.2-2.8-0.7
		c0-0.9,1.3-1.9,2.8-2.4C83.7,90,85,90.2,85,91.1"/>
	<path clip-path="url(#SVGID_2_)" fill="#D8505C" d="M70.9,96.3c0,0.7-1.3,1.7-2.8,2.4c-1.7,0.4-2.8,0.4-2.8-0.4
		c0-0.6,1.1-1.7,2.8-2.4C69.6,95.4,70.9,95.4,70.9,96.3"/>
	<path clip-path="url(#SVGID_2_)" fill="#D8505C" d="M56.6,101.4c0,0.6-1.3,1.5-2.8,2.2c-1.5,0.4-2.8,0.4-2.8-0.2
		c0-0.7,1.3-1.5,2.8-2.2C55.3,100.8,56.6,100.8,56.6,101.4"/>
	<path clip-path="url(#SVGID_2_)" fill="#D8505C" d="M42.4,106.6c0,0.4-1.3,1.3-2.8,1.9c-1.5,0.4-2.8,0.4-2.8,0
		c0-0.4,1.3-1.3,2.8-1.9C41.3,106,42.4,106,42.4,106.6"/>
	<path clip-path="url(#SVGID_2_)" fill="#D8505C" d="M28.3,111.8c0-0.4-1.3-0.4-2.8,0.2c-1.5,0.6-2.8,1.3-2.8,1.7
		c0,0.4,1.1,0.2,2.8-0.2C27,112.9,28.3,112.2,28.3,111.8"/>
	<path clip-path="url(#SVGID_2_)" fill="#D8505C" d="M14.1,117c0-0.4-1.3-0.2-2.8,0.4c-1.5,0.6-2.8,1.3-2.8,1.5c0,0.2,1.3,0,2.8-0.4
		C12.8,117.9,14.1,117.2,14.1,117"/>
	<path clip-path="url(#SVGID_2_)" fill="#D8505C" d="M175.9,45.5c0,1.1-0.9,2.2-1.7,2.6c-1.1,0.4-1.9,0-1.9-1.1
		c0-1.1,0.9-2.2,1.9-2.8C175.1,43.7,175.9,44.4,175.9,45.5"/>
	<path clip-path="url(#SVGID_2_)" fill="#D8505C" d="M161.9,51.5c0,0.9-0.9,2.2-1.9,2.6c-1.1,0.4-1.9,0-1.9-1.1
		c0-0.9,0.9-2.2,1.9-2.6C161,50,161.9,50.4,161.9,51.5"/>
	<path clip-path="url(#SVGID_2_)" fill="#D8505C" d="M147.6,57.6c0,0.9-0.9,1.9-1.9,2.4c-1.1,0.4-1.9,0-1.9-0.9
		c0-0.9,0.9-1.9,1.9-2.4C146.8,56.3,147.6,56.5,147.6,57.6"/>
	<path clip-path="url(#SVGID_2_)" fill="#D8505C" d="M133.4,63.6c0,0.9-0.9,1.7-1.9,2.2c-0.9,0.4-1.7,0.2-1.7-0.6
		c0-0.9,0.9-1.7,1.7-2.4C132.5,62.3,133.4,62.8,133.4,63.6"/>
	<path clip-path="url(#SVGID_2_)" fill="#D8505C" d="M119.3,69.7c0,0.6-0.9,1.7-1.9,2.2c-1.1,0.4-1.9,0.2-1.9-0.6
		c0-0.6,0.9-1.7,1.9-2.2C118.5,68.6,119.3,68.8,119.3,69.7"/>
	<path clip-path="url(#SVGID_2_)" fill="#D8505C" d="M105.1,75.7c0,0.6-0.9,1.5-1.9,1.9c-1.1,0.4-1.9,0.2-1.9-0.4
		c0-0.6,0.9-1.5,1.9-1.9C104.2,74.9,105.1,74.9,105.1,75.7"/>
	<path clip-path="url(#SVGID_2_)" fill="#D8505C" d="M90.8,81.8c0,0.6-0.9,1.5-1.9,1.9c-0.9,0.4-1.7,0.2-1.7-0.4
		c0-0.6,0.9-1.5,1.7-1.9C89.9,80.9,90.8,81.1,90.8,81.8"/>
	<path clip-path="url(#SVGID_2_)" fill="#D8505C" d="M76.7,87.8c0,0.4-0.9,1.3-1.9,1.7c-1.1,0.4-1.9,0.4-1.9-0.2
		c0-0.4,0.9-1.3,1.9-1.7C75.9,87.2,76.5,87.2,76.7,87.8"/>
	<path clip-path="url(#SVGID_2_)" fill="#D8505C" d="M62.5,93.9c0,0.4-0.9,1.1-1.9,1.5c-1.1,0.4-1.9,0.4-1.9,0
		c0-0.4,0.9-1.1,1.9-1.5C61.6,93.4,62.5,93.4,62.5,93.9"/>
	<path clip-path="url(#SVGID_2_)" fill="#D8505C" d="M48.2,99.9c0,0.4-0.9,1.1-1.9,1.5c-0.9,0.4-1.7,0.4-1.7,0
		c0-0.2,0.9-1.1,1.7-1.5C47.3,99.5,48.2,99.5,48.2,99.9"/>
	<path clip-path="url(#SVGID_2_)" fill="#D8505C" d="M33.9,106c0.2,0.2-0.6,0.9-1.7,1.3c-1.1,0.4-1.9,0.6-1.9,0.2
		c0-0.2,0.9-0.9,1.9-1.3C33.3,105.8,33.9,105.6,33.9,106"/>
	<path clip-path="url(#SVGID_2_)" fill="#D8505C" d="M19.9,112c0-0.2-0.9-0.2-1.9,0.4c-1.1,0.4-1.9,0.9-1.9,1.1c0,0.2,0.9,0,1.9-0.4
		C19,112.7,19.9,112.2,19.9,112"/>
	<path clip-path="url(#SVGID_2_)" fill="#D8505C" d="M5.6,118.1c0-0.2-0.9,0-1.9,0.4C2.6,119,2,119.6,2,119.6c0,0.2,0.9,0,1.7-0.4
		C4.8,118.7,5.6,118.3,5.6,118.1"/>
	<path clip-path="url(#SVGID_2_)" fill="#D8505C" d="M167.7,37c0,0.4-0.4,1.3-1.1,1.5c-0.6,0.2-1.1,0-1.1-0.7c0-0.4,0.4-1.1,1.1-1.3
		C167.3,36.2,167.7,36.4,167.7,37"/>
	<path clip-path="url(#SVGID_2_)" fill="#D8505C" d="M153.5,43.9c0,0.4-0.4,1.1-1.1,1.5c-0.4,0.2-1.1,0-1.1-0.4
		c0-0.6,0.6-1.3,1.1-1.5C153,43.3,153.5,43.5,153.5,43.9"/>
	<path clip-path="url(#SVGID_2_)" fill="#D8505C" d="M139.2,50.9c0,0.4-0.4,1.1-1.1,1.3c-0.4,0.4-0.9,0.2-0.9-0.2
		c0-0.6,0.4-1.1,0.9-1.5C138.8,50.2,139.2,50.4,139.2,50.9"/>
	<path clip-path="url(#SVGID_2_)" fill="#D8505C" d="M125.2,57.8c0,0.4-0.6,1.1-1.1,1.3c-0.6,0.2-1.1,0.2-1.1-0.2
		c0-0.4,0.4-1.1,1.1-1.3C124.5,57.3,125.2,57.3,125.2,57.8"/>
	<path clip-path="url(#SVGID_2_)" fill="#D8505C" d="M110.9,64.7c0,0.4-0.4,0.9-1.1,1.3c-0.4,0.2-1.1,0-1.1-0.2
		c0-0.4,0.6-0.9,1.1-1.3C110.5,64.3,110.9,64.3,110.9,64.7"/>
	<path clip-path="url(#SVGID_2_)" fill="#D8505C" d="M96.6,71.6c0,0.4-0.4,0.9-0.9,1.1c-0.6,0.4-1.1,0.2-1.1,0
		c0-0.4,0.4-0.9,1.1-1.1C96.2,71.2,96.6,71.4,96.6,71.6"/>
	<path clip-path="url(#SVGID_2_)" fill="#D8505C" d="M82.6,78.5c0,0.4-0.6,0.9-1.1,1.1c-0.6,0.2-1.1,0.2-1.1,0
		c0-0.2,0.4-0.9,1.1-1.1C81.9,78.3,82.6,78.3,82.6,78.5"/>
	<path clip-path="url(#SVGID_2_)" fill="#D8505C" d="M68.3,85.4c0,0.4-0.4,0.9-1.1,1.1c-0.6,0.2-1.1,0.2-1.1,0
		c0-0.2,0.4-0.6,1.1-1.1C67.9,85.2,68.3,85.2,68.3,85.4"/>
	<path clip-path="url(#SVGID_2_)" fill="#D8505C" d="M54,92.4c0,0.2-0.4,0.6-0.9,1.1c-0.6,0.2-1.1,0.2-1.1,0c0-0.2,0.4-0.6,1.1-0.9
		C53.6,92.4,54,92.1,54,92.4"/>
	<path clip-path="url(#SVGID_2_)" fill="#D8505C" d="M40,99.3c0,0.2-0.6,0.6-1.1,0.9c-0.6,0.4-1.1,0.4-1.1,0.2
		c0-0.2,0.4-0.4,1.1-0.9C39.4,99.3,40,99.3,40,99.3"/>
	<path clip-path="url(#SVGID_2_)" fill="#D8505C" d="M25.7,106.4c0,0-0.4,0.4-1.1,0.7c-0.4,0.2-1.1,0.4-1.1,0.2c0,0,0.6-0.4,1.1-0.7
		C25.3,106.2,25.7,106.2,25.7,106.4"/>
	<path clip-path="url(#SVGID_2_)" fill="#D8505C" d="M11.5,113.3c0-0.2-0.4,0-1.1,0.2c-0.4,0.2-0.9,0.6-0.9,0.6c0,0.2,0.4,0,0.9-0.2
		C11,113.8,11.5,113.3,11.5,113.3"/>
	<path clip-path="url(#SVGID_2_)" fill="#D8505C" d="M174,21.7c0,0.2-0.4,0.6-0.6,0.9c-0.4,0.2-0.6,0-0.6-0.2c0-0.4,0.2-0.9,0.6-1.1
		C173.6,21.3,174,21.3,174,21.7"/>
	<path clip-path="url(#SVGID_2_)" fill="#D8505C" d="M159.7,29.5c0,0.2-0.2,0.6-0.6,0.9c-0.2,0.2-0.4,0-0.4-0.2
		c0-0.4,0.2-0.6,0.4-0.9C159.5,29,159.7,29,159.7,29.5"/>
	<path clip-path="url(#SVGID_2_)" fill="#D8505C" d="M145.5,37.2c0,0.2-0.2,0.6-0.4,0.9c-0.4,0-0.6,0-0.6-0.2c0-0.2,0.2-0.6,0.6-0.9
		C145.3,36.8,145.5,37,145.5,37.2"/>
	<path clip-path="url(#SVGID_2_)" fill="#D8505C" d="M131.4,45c0,0.2-0.4,0.6-0.6,0.9c-0.4,0-0.7,0-0.7-0.2c0-0.2,0.2-0.6,0.7-0.9
		C131,44.8,131.4,44.8,131.4,45"/>
	<path clip-path="url(#SVGID_2_)" fill="#D8505C" d="M117.2,52.8c0,0.2-0.2,0.6-0.6,0.9c-0.2,0-0.4,0-0.4-0.2c0-0.2,0.2-0.4,0.4-0.6
		C116.9,52.6,117.2,52.6,117.2,52.8"/>
	<path clip-path="url(#SVGID_2_)" fill="#D8505C" d="M102.9,60.6c0,0.2-0.2,0.6-0.4,0.6c-0.4,0.2-0.6,0.2-0.6,0
		c0-0.2,0.2-0.4,0.6-0.6C102.7,60.4,102.9,60.4,102.9,60.6"/>
	<path clip-path="url(#SVGID_2_)" fill="#D8505C" d="M88.8,68.4c0,0.2-0.4,0.6-0.6,0.6c-0.4,0.2-0.6,0.2-0.6,0
		c0-0.2,0.2-0.4,0.6-0.6H88.8z"/>
	<path clip-path="url(#SVGID_2_)" fill="#D8505C" d="M74.6,76.4c0,0-0.2,0.4-0.6,0.4c-0.2,0.2-0.4,0.2-0.4,0c0,0,0.2-0.2,0.4-0.4
		C74.4,76.2,74.6,76.2,74.6,76.4"/>
	<path clip-path="url(#SVGID_2_)" fill="#D8505C" d="M60.3,84.1c0,0-0.2,0.2-0.4,0.4c-0.4,0.2-0.6,0.2-0.6,0.2
		c0-0.2,0.2-0.4,0.6-0.7C60.1,83.9,60.3,83.9,60.3,84.1"/>
	<path clip-path="url(#SVGID_2_)" fill="#D8505C" d="M46.3,91.9c0,0-0.4,0.2-0.6,0.4c-0.4,0.2-0.7,0.2-0.7,0.2
		c0-0.2,0.2-0.4,0.7-0.7C45.8,91.9,46.3,91.7,46.3,91.9"/>
	<path clip-path="url(#SVGID_2_)" fill="#D8505C" d="M32,99.7c0,0-0.2,0.2-0.6,0.4c-0.2,0.2-0.4,0.2-0.4,0.2c0-0.2,0.2-0.4,0.4-0.4
		C31.8,99.7,32,99.5,32,99.7"/>
	<path clip-path="url(#SVGID_2_)" fill="#D8505C" d="M17.7,107.5c0,0-0.2,0.2-0.4,0.4c-0.4,0.2-0.6,0.2-0.6,0.2s0.2-0.2,0.6-0.4
		C17.5,107.5,17.7,107.5,17.7,107.5"/>
	<path clip-path="url(#SVGID_2_)" fill="#D8505C" d="M3.7,115.3c0,0-0.4,0-0.6,0.2c-0.4,0.2-0.7,0.4-0.7,0.4s0.2,0,0.7-0.2
		C3.2,115.5,3.7,115.3,3.7,115.3"/>
</g>
<g>
	<defs>
		<polyline id="SVGID_1_" points="-233.3,-499.9 630.7,-497.9 651.4,657.8 -255.8,655.7 		"/>
	</defs>
	<clipPath id="SVGID_3_">
		<use xlink:href="#SVGID_1_"  overflow="visible"/>
	</clipPath>
	<path clip-path="url(#SVGID_3_)" fill="#231F20" d="M147.1,31.2c0.6,0,1.1,0.5,1.1,1.1c0,0.6-0.5,1.1-1.1,1.1h-0.4v2.2l0.2,0.2
		c1.2-1,2.8-1.6,4.6-1.6c4,0,7.3,3.2,7.3,7.3c0,4-3.2,7.2-7.3,7.2c-1.6,0-3.1-0.5-4.4-1.5l-0.4,0.5c0,0,0,1.4,0,3.8h0.4
		c0.6,0,1.1,0.5,1.1,1.1c0,0.6-0.5,1.1-1.1,1.1h-0.4c0,1.8,0,3.9-0.1,6.3h0.5c0.6,0,1.1,0.2,1.1,0.4c0,0.2-0.5,0.4-1.1,0.4h-0.5
		c-0.1,9.2-0.2,21.4-0.4,29.7h8.9v2.3l-4.3,0.7v2.3l4.3,0.8v3.9h-10.5v0c-0.1,0-0.3,0-0.4,0c-0.7,0-1.3-0.2-1.5-0.7V60.6H142
		c-0.6,0-1.1-0.2-1.1-0.4c0-0.2,0.5-0.4,1.1-0.4h0.6v-6.3H142c-0.6,0-1.1-0.5-1.1-1.1c0-0.6,0.5-1.1,1.1-1.1h0.6v-3.8l-0.6-0.6
		c-1.2,1-2.8,1.5-4.5,1.5c-4,0-7.3-3.2-7.3-7.2c0-4,3.2-7.3,7.3-7.3c1.7,0,3.3,0.6,4.6,1.6l0.5-0.5v-1.9H142c-0.6,0-1.1-0.5-1.1-1.1
		c0-0.6,0.5-1.1,1.1-1.1H147.1 M144.5,39.3c0.3-0.9,0.7-1.8,1.3-2.5l-1.2-1.2l-1.3,1.4C143.9,37.6,144.3,38.4,144.5,39.3
		 M151.3,47.1c3.1,0,5.7-2.5,5.7-5.7c0-3.1-2.5-5.7-5.7-5.7c-1.2,0-2.3,0.4-3.2,1l4.7,4.5l-4.6,4.8C149,46.7,150.1,47.1,151.3,47.1
		 M137.5,47.1c1.3,0,2.5-0.5,3.4-1.2l-4.5-4.3l4.5-4.6c-1-0.7-2.1-1.2-3.4-1.2c-3.1,0-5.7,2.5-5.7,5.7
		C131.8,44.6,134.4,47.1,137.5,47.1 M147,45.1l3.6-3.8l-3.6-3.5c-0.8,1-1.3,2.2-1.3,3.6C145.7,42.8,146.2,44.1,147,45.1 M142.2,44.7
		c0.6-0.9,1-2,1-3.2c0-1.2-0.4-2.3-1.1-3.3l-3.2,3.3L142.2,44.7 M144.9,47.3L146,46c-0.7-0.8-1.2-1.7-1.5-2.7
		c-0.3,0.9-0.7,1.7-1.2,2.4l0,0L144.9,47.3 M147.1,30.4H142c-1,0-1.9,0.8-1.9,1.9c0,1,0.7,1.8,1.7,1.9v0.4c-1.3-0.8-2.7-1.2-4.2-1.2
		c-4.4,0-8.1,3.6-8.1,8.1c0,4.4,3.6,8,8.1,8c1.5,0,3-0.4,4.2-1.2v2.5c-0.9,0.1-1.7,0.9-1.7,1.9c0,1,0.7,1.8,1.7,1.9V59
		c-1,0-1.7,0.5-1.7,1.2c0,0.7,0.7,1.1,1.7,1.2v38v0.2l0.1,0.2c0.3,0.8,1.2,1.2,2.3,1.2c0,0,0.1,0,0.1,0l0.3,0h10.5h0.8v-0.8v-3.9
		v-0.7l-0.7-0.1l-3.6-0.7v-0.9l3.6-0.6l0.7-0.1v-0.7v-2.3v-0.8h-0.8H147c0.1-6.5,0.3-15.9,0.4-28.1c1-0.1,1.6-0.5,1.6-1.2
		c0-0.7-0.6-1.1-1.5-1.2l0-4.7c0.9-0.2,1.5-0.9,1.5-1.8c0-0.9-0.6-1.6-1.5-1.8l0-2.3c1.2,0.7,2.6,1.1,4,1.1c4.4,0,8.1-3.6,8.1-8
		c0-4.4-3.6-8.1-8.1-8.1c-1.4,0-2.8,0.4-4,1.1V34c0.8-0.2,1.4-0.9,1.4-1.8C148.9,31.2,148.1,30.4,147.1,30.4 M149.4,37
		c0.6-0.3,1.3-0.4,1.9-0.4c2.7,0,4.9,2.2,4.9,4.9c0,2.7-2.2,4.9-4.9,4.9c-0.7,0-1.3-0.1-1.9-0.4l3.9-4.1l0.6-0.6l-0.6-0.6L149.4,37z
		 M137.5,46.3c-2.7,0-4.9-2.2-4.9-4.9c0-2.7,2.2-4.9,4.9-4.9c0.8,0,1.5,0.2,2.2,0.5l-3.8,3.9l-0.6,0.6l0.6,0.6l3.8,3.6
		C139,46.1,138.2,46.3,137.5,46.3 M144.4,37l0.3-0.3l0.2,0.1c-0.1,0.1-0.2,0.3-0.3,0.4C144.5,37.2,144.4,37.1,144.4,37 M147.1,43.8
		c-0.4-0.7-0.6-1.5-0.6-2.4c0-0.9,0.2-1.7,0.7-2.4l2.4,2.3L147.1,43.8z M140,41.5l1.9-2c0.3,0.6,0.4,1.3,0.4,1.9
		c0,0.7-0.1,1.3-0.4,1.9L140,41.5z M144.3,45.7c0.1-0.1,0.1-0.2,0.2-0.3c0.1,0.2,0.3,0.4,0.4,0.7l-0.1,0.1L144.3,45.7z"/>
	<path clip-path="url(#SVGID_3_)" fill="#CCC9C7" d="M137.6,34c-4,0-7.3,3.2-7.3,7.3c0,4,3.2,7.2,7.3,7.2c4,0,7.3-3.2,7.3-7.2
		C144.8,37.3,141.6,34,137.6,34 M137.5,47.1c-3.1,0-5.7-2.5-5.7-5.7c0-3.1,2.5-5.7,5.7-5.7s5.7,2.5,5.7,5.7
		C143.2,44.6,140.6,47.1,137.5,47.1"/>
	<path clip-path="url(#SVGID_3_)" fill="#CCC9C7" d="M151.5,34c-4,0-7.3,3.2-7.3,7.3c0,4,3.2,7.2,7.3,7.2c4,0,7.3-3.2,7.3-7.2
		C158.8,37.3,155.5,34,151.5,34 M151.3,47.1c-3.1,0-5.7-2.5-5.7-5.7c0-3.1,2.5-5.7,5.7-5.7c3.1,0,5.7,2.5,5.7,5.7
		C157,44.6,154.5,47.1,151.3,47.1"/>
	<path clip-path="url(#SVGID_3_)" fill="#CCC9C7" d="M146.7,47.6l-2,2l-2.1-2v51.8c0.5,1.1,2.8,0.9,3.2,0
		C146.3,98.5,146.7,47.6,146.7,47.6"/>
	<path clip-path="url(#SVGID_3_)" fill="#CCC9C7" d="M144.4,33.3l-8,8.3l6.2,6l2.1,2l2-2l6-6.3L144.4,33.3z M146.3,45.8l-1.4,1.5
		l-1.5-1.5l-4.5-4.3l5.8-6l6,5.8L146.3,45.8z"/>
	<polygon clip-path="url(#SVGID_3_)" fill="#CCC9C7" points="155.1,100.1 144.5,100.1 144.5,90.2 155.1,90.2 155.1,92.5 150.8,93.1 
		150.8,95.4 155.1,96.2 	"/>
	<path clip-path="url(#SVGID_3_)" fill="#231F20" d="M155.1,100.1c0,0,0-1.1-0.1-3.9c0,0,0,0.1,0.1,0.1c-0.8-0.1-2.4-0.4-4.3-0.7
		l-0.2,0l0-0.2c0-0.3,0-1.3,0-2.3l0-0.2l0.2,0c0.8-0.1,2.4-0.4,4.2-0.7c0,0-0.2,0.2-0.3,0.3c0-0.4,0-1.3,0-2.3
		c0.1,0.1,0.2,0.2,0.4,0.4c-1.6,0-4.2,0-6.9,0c-1.3,0-2.5,0-3.6,0c0.1-0.1,0.3-0.3,0.4-0.4c0,3.9-0.1,7.4-0.1,9.9
		c-0.1-0.1-0.2-0.2-0.3-0.3C151.2,100,155.1,100.1,155.1,100.1s-3.9,0.1-10.5,0.3l-0.3,0l0-0.3c-0.1-2.6-0.1-6-0.1-9.9l0-0.4h0.4
		c1.1,0,2.3,0,3.6,0c2.7,0,5.3,0,6.9,0l0.4,0l0,0.4c0,0.9,0,1.8,0,2.3l0,0.3l-0.3,0c-1.8,0.2-3.5,0.5-4.3,0.6
		c0.1-0.1,0.2-0.2,0.2-0.2c0,1,0,1.9-0.1,2.3c-0.1-0.1-0.1-0.2-0.2-0.2c1.9,0.4,3.5,0.7,4.2,0.9l0.1,0l0,0.1
		C155.1,99,155.1,100.1,155.1,100.1"/>
	<polygon clip-path="url(#SVGID_3_)" fill="#CCC9C7" points="146.7,35.8 144.7,34.7 142.6,35.9 142.6,32.2 146.7,32.2 	"/>
	<path clip-path="url(#SVGID_3_)" fill="#CCC9C7" d="M148.1,52.4c0,0.6-0.5,1.1-1.1,1.1H142c-0.6,0-1.1-0.5-1.1-1.1
		c0-0.6,0.5-1.1,1.1-1.1h5.1C147.7,51.4,148.1,51.9,148.1,52.4"/>
	<path clip-path="url(#SVGID_3_)" fill="#231F20" d="M148.1,52.4c0,0,0-0.3-0.2-0.6c-0.1-0.2-0.3-0.3-0.6-0.4c-0.3,0-0.6,0-1,0
		c-0.8,0-1.7,0.1-2.7,0.1c-0.5,0-1,0-1.6,0c-0.4,0-0.9,0.3-0.8,0.9c0,0.4,0.4,0.8,0.8,0.8c0.5,0,1.1,0,1.6,0c1,0,1.9,0.1,2.7,0.1
		c0.4,0,0.7,0.1,1,0c0.3-0.1,0.5-0.2,0.6-0.4C148.2,52.7,148.1,52.4,148.1,52.4c0,0,0.1,0.3-0.2,0.6c-0.1,0.2-0.3,0.4-0.6,0.5
		c-0.3,0.1-0.7,0-1,0.1c-0.8,0-1.7,0-2.7,0.1c-0.5,0-1,0-1.6,0c-0.7,0-1.4-0.5-1.3-1.3c0-0.7,0.7-1.3,1.3-1.3c0.5,0,1.1,0,1.6,0
		c1,0,1.9,0.1,2.7,0.1c0.4,0,0.7,0,1,0.1c0.3,0.1,0.5,0.3,0.6,0.5C148.2,52.2,148.1,52.4,148.1,52.4"/>
	<path clip-path="url(#SVGID_3_)" fill="#CCC9C7" d="M148.1,60.2c0,0.2-0.5,0.4-1.1,0.4H142c-0.6,0-1.1-0.2-1.1-0.4
		c0-0.2,0.5-0.4,1.1-0.4h5.1C147.7,59.8,148.1,59.9,148.1,60.2"/>
	<path clip-path="url(#SVGID_3_)" fill="#CCC9C7" d="M148.1,32.2c0,0.6-0.5,1.1-1.1,1.1H142c-0.6,0-1.1-0.5-1.1-1.1
		c0-0.6,0.5-1.1,1.1-1.1h5.1C147.7,31.2,148.1,31.6,148.1,32.2"/>
	<path clip-path="url(#SVGID_3_)" fill="#231F20" d="M148.1,32.2c0,0,0-0.3-0.2-0.6c-0.1-0.2-0.3-0.3-0.6-0.4c-0.3,0-0.6,0-1,0
		c-0.8,0-1.7,0.1-2.7,0.1c-0.5,0-1,0-1.6,0c-0.4,0-0.9,0.3-0.8,0.9c0,0.4,0.4,0.8,0.8,0.8c0.5,0,1.1,0,1.6,0c1,0,1.9,0.1,2.7,0.1
		c0.4,0,0.7,0.1,1,0c0.3-0.1,0.5-0.2,0.6-0.4C148.2,32.5,148.1,32.2,148.1,32.2c0,0,0.1,0.3-0.2,0.6c-0.1,0.2-0.3,0.4-0.6,0.5
		c-0.3,0.1-0.7,0-1,0.1c-0.8,0-1.7,0.1-2.7,0.1c-0.5,0-1,0-1.6,0c-0.7,0-1.4-0.5-1.3-1.3c0-0.7,0.7-1.3,1.3-1.3c0.5,0,1.1,0,1.6,0
		c1,0,1.9,0.1,2.7,0.1c0.4,0,0.7,0,1,0.1c0.3,0.1,0.5,0.3,0.6,0.5C148.2,32,148.1,32.2,148.1,32.2"/>
	<path clip-path="url(#SVGID_3_)" fill="#FFFFFF" d="M61.3,82.9l0.1-3.1c-0.2-3.8-0.5-10.1-0.5-10.1c-0.7,0.3-3.8-0.8-4.2-2.6
		c-0.5-1.8-0.9-10.9,0-12.9l-0.1-0.2c-0.6-2.3-1.5-17.5,3.5-22.1c5.2-4.8,7.6-5.2,18.1-4.3h2.5c10.6-0.9,12.9-0.5,18.1,4.3
		c5.1,4.7,2.9,20.7,2.2,22.3l0.1,0.8c0.5,1.8,0,10.9-0.6,12.1c-0.6,1.2-1.6,3-3.8,2.7C97,71.1,95.7,80,95.7,80L95,81v2.9
		c0,1,0,3.3,0,3.3L76.6,107L61.4,87.3L61.3,82.9z"/>
	<path clip-path="url(#SVGID_3_)" fill="#231F20" d="M101.1,54.1c0.6-1.6,2.9-17.6-2.2-22.3c-5.2-4.8-7.6-5.2-18.1-4.3h-2.5
		c-10.6-0.9-12.9-0.5-18.1,4.3c-5,4.6-4.1,19.8-3.5,22.1l0.1,0.2l0,0c0.4-0.8,1.4-2.2,3.4-1.8c0,0.9,0.7,6.4,0.4,8.6h1.8
		c0,0-0.2-4.1-0.2-7.1l1.9-3.8c0,0-1.4-4.4-1.9-6.3c-0.5-1.9,0.5-3.8,0.5-3.8s2-3.9,7.7-4.4c3.4-0.1,6.4,2.2,9.3,1.9h0.1
		c2.9,0.2,5.9-2,9.3-1.9c5.7,0.5,7.7,4.4,7.7,4.4s1.1,1.9,0.5,3.8c-0.5,1.9-1.9,6.3-1.9,6.3l-0.1,0.3l1.9,4L96.9,61h1.3
		c0,0,0.8-7.5,0.8-8.3C99,51.9,100.9,52.6,101.1,54.1"/>
	<path clip-path="url(#SVGID_3_)" d="M86.3,27.1c5.2,0,7.5,1.2,11.4,4.7c5.1,4.7,2.9,20.7,2.2,22.3l0.1,0.8c0.5,1.8,0,10.9-0.6,12.1
		c-0.6,1.1-1.5,2.7-3.3,2.7c-0.2,0-0.3,0-0.5,0c0.2,1.4-1.2,10.3-1.2,10.3L93.8,81v2.9h1.6l4.9,5.7c9.4,3.4,29.4,14,29.4,14
		l8.5,26.5H99.6h-8h-1.6H57.6h-3.9h-8.2H12.3l13.3-29.6l32.7-15.7l1.9-2l0.1-3.1c-0.2-3.8-0.5-10.1-0.5-10.1c-0.1,0-0.2,0.1-0.3,0.1
		c-1,0-3.5-1-3.9-2.7c-0.5-1.8-0.9-10.9,0-12.9l-0.1-0.2c-0.6-2.3-1.5-17.5,3.5-22.1c3.8-3.5,6.1-4.7,11.3-4.7c1.8,0,4,0.1,6.8,0.4
		h2.5C82.3,27.2,84.5,27.1,86.3,27.1 M86.3,26.1L86.3,26.1c-1.7,0-3.7,0.1-6.8,0.4h-2.4c-3.1-0.3-5.2-0.4-6.8-0.4
		c-5.7,0-8.2,1.5-12,5c-5.3,4.9-4.5,20.3-3.8,23.1c-0.9,2.9-0.3,11.5,0.1,13.2c0.5,1.9,2.8,3.1,4.2,3.4c0.1,1.9,0.4,6.2,0.5,9.1
		l-0.1,2.7l-1.5,1.6L25.1,99.7L25,99.7l-0.1,0.1l-13.2,29.6l-1.5,1.7h2.2h33.2h8.2h3.9h32.3h1.6h8h38.7h1.9l-1.1-1.6l-8.5-26.5
		l-0.1-0.2l-0.2-0.1c-0.8-0.4-19.8-10.6-29.3-14l-4.8-5.5l-0.3-0.3h-0.5h-0.7v-1.6l0.5-0.7l0.1-0.2l0-0.2c0.2-1.3,1-6.9,1.2-9.5
		c2.2-0.3,3.2-2.3,3.7-3.2c0.8-1.6,1.2-10.7,0.7-12.7l-0.1-0.6c0.7-2.7,2.8-18.1-2.6-23.1C94.5,27.6,92,26.1,86.3,26.1"/>
	<polygon clip-path="url(#SVGID_3_)" fill="#231F20" points="12.3,130.1 25.6,100.5 60.3,83.9 57.7,130.1 	"/>
	<path clip-path="url(#SVGID_3_)" fill="#FFFFFF" d="M60.3,83.9l-2.7,46.2H12.3l13.3-29.6L60.3,83.9z M60.6,83.5l-0.4,0.2
		l-34.7,16.6l0,0l0,0L12.2,130l-0.4,0.4h0.6h45.3h0.2l0-0.2l2.7-46.2L60.6,83.5z"/>
	<path clip-path="url(#SVGID_3_)" fill="#231F20" d="M96.9,88.6l-7,41.5h48.4l-8.5-26.5C129.8,103.6,103.3,89.4,96.9,88.6"/>
	<path clip-path="url(#SVGID_3_)" fill="#FFFFFF" d="M96.9,88.6c6.4,0.8,32.9,15,32.9,15l8.5,26.5H89.9L96.9,88.6 M96.7,88.4l0,0.2
		l-7,41.5l-0.1,0.3h0.3h48.4h0.5l-0.3-0.4l-8.5-26.5l0,0l0,0c-1.1-0.6-26.6-14.2-33-15L96.7,88.4z"/>
	<polygon clip-path="url(#SVGID_3_)" fill="#FFFFFF" points="53.8,130.1 58.9,94.4 59.4,91.1 60.1,86.2 67.9,96.1 75.1,105.3 
		83.4,96.9 93.8,86.2 93.8,92.1 93.8,95 91.6,130.1 	"/>
	<polygon clip-path="url(#SVGID_3_)" fill="#231F20" points="57.7,130.1 60.3,82.7 37.7,107 45.5,130.1 	"/>
	<path clip-path="url(#SVGID_3_)" fill="#FFFFFF" d="M60.3,82.7l-2.7,47.5H45.5L37.7,107L60.3,82.7z M60.6,82l-0.5,0.5l-22.6,24.4
		l-0.1,0.1l0,0.1l7.8,23.1l0.1,0.2h0.2h12.1h0.2l0-0.2l2.7-47.5L60.6,82z"/>
	<polygon clip-path="url(#SVGID_3_)" fill="#231F20" points="93.8,83.9 93.8,95 89.9,130.1 99.6,130.1 114,105.3 95.5,83.9 	"/>
	<path clip-path="url(#SVGID_3_)" fill="#FFFFFF" d="M95.5,83.9l18.5,21.4l-14.4,24.9h-9.7L93.8,95V83.9H95.5z M95.6,83.7h-0.1h-1.6
		h-0.2v0.2V95l-3.9,35.1l0,0.3h0.3h9.7h0.1l0.1-0.1l14.4-24.9l0.1-0.2l-0.1-0.1L95.6,83.7L95.6,83.7z"/>
	<polygon clip-path="url(#SVGID_3_)" fill="#231F20" points="93.8,95 93.8,92.1 79.2,106.4 83.1,106.4 	"/>
	<path clip-path="url(#SVGID_3_)" fill="#231F20" d="M58.9,94.4l0.5-3.3c0.9,1.2,12.2,15.9,12.2,15.9h-4.1L58.9,94.4z"/>
	<path clip-path="url(#SVGID_3_)" fill="#231F20" d="M72.5,106.4c0,0-9.7-4.7-12.1-4.8c-1.2,1.6-1.4,14.4,2.1,18.5
		c1-0.2,10.1-7.2,10.1-7.2c1.6,1,4.5,0.6,5.3,0c0,0,4.1,7,9.9,8.4c1.4-1.4,3.9-16.4,3.7-17.9c-0.2-1.4-10.7,1.9-13.2,3.6
		C78.2,107,77.8,104.5,72.5,106.4"/>
	<path clip-path="url(#SVGID_3_)" fill="#231F20" d="M77.8,112.9c-0.8,0.6-3.7,1-5.3,0v-6.5c5.3-2,5.8,0.6,5.8,0.6L77.8,112.9z"/>
	<polygon clip-path="url(#SVGID_3_)" fill="#FFFFFF" points="75.1,105.3 67.9,96.1 65.3,111.4 	"/>
	<path clip-path="url(#SVGID_3_)" fill="#231F20" d="M75.1,105.3c0,0-3.7,2.5-9.7,6.4l-0.5,0.4l0.1-0.7c0.3-1.9,0.7-4.7,1.2-7.8
		c0.5-3,1-5.8,1.4-7.6l0.1-0.7l0.4,0.5C72.5,101.6,75.1,105.3,75.1,105.3s-2.9-3.4-7.5-9c0.1,0,0.3-0.1,0.5-0.1
		c-0.3,1.8-0.7,4.7-1.2,7.7c-0.5,3-1,5.9-1.4,7.7c-0.2-0.1-0.4-0.2-0.4-0.3C71.3,107.5,75.1,105.3,75.1,105.3"/>
	<polygon clip-path="url(#SVGID_3_)" fill="#FFFFFF" points="83.4,96.9 75.1,105.3 84.3,111.4 	"/>
	<path clip-path="url(#SVGID_3_)" fill="#231F20" d="M83.4,96.9c0,0,0.7,5.9,1.3,14.6l0.1,0.7l-0.6-0.4c-0.8-0.5-2.1-1.4-3.4-2.3
		c-2.3-1.5-4.4-3-5.7-3.9l-0.3-0.2l0.3-0.3C80,100,83.4,96.9,83.4,96.9s-3,3.4-8,8.6c0-0.1,0-0.3,0-0.5c1.4,0.9,3.6,2.3,5.8,3.8
		c1.3,0.9,2.6,1.8,3.4,2.3c-0.2,0.1-0.4,0.3-0.5,0.3C83.5,102.8,83.4,96.9,83.4,96.9"/>
	<path clip-path="url(#SVGID_3_)" fill="#231F20" d="M60.3,79.8c0,0,0.2,1.1,0.3,2.9c0,0,0,0,0,0c0,1,0,2.5-0.1,4
		c-0.2,3.8-0.8,6.9-0.8,6.9s-0.2-3.1,0-6.9c0.1-1.6,0.2-3,0.4-4l0,0v0C60.2,80.9,60.3,79.8,60.3,79.8"/>
	<path clip-path="url(#SVGID_3_)" fill="#231F20" d="M93.8,95c0,0-0.4-3.1-0.4-7c0-3.9,0.4-7,0.4-7s0.4,3.1,0.4,7
		C94.2,91.9,93.8,95,93.8,95"/>
	<path clip-path="url(#SVGID_3_)" fill="#231F20" d="M96.3,62.9c0,0-0.2,2.1-0.5,6.8v0c0,2.2-0.5,5.9-1,10.4l0,0.1l0,0
		c-0.1,0.1-0.4,0.5-0.7,0.9l0,0l0,0c-2.7,3.2-6.9,8.1-11.6,13.5l-0.1,0.1h-0.2c-1,0-2.7,0-4.5,0c-1.3,0-2.6,0-3.8,0h-0.2l-0.1-0.1
		c-1.3-1.5-2.5-3-3.7-4.4c-0.6-0.7-1.2-1.4-1.8-2.1c-0.3-0.3-0.6-0.7-0.9-1c-0.3-0.3-0.6-0.6-0.9-0.9c-2.4-2.4-4.6-4.4-6.3-6.3
		l0-0.1l0-0.1c-0.2-5.3-0.4-9.5-0.5-12.4c0-1.4,0-2.6,0.1-3.3c0-0.4,0.1-0.7,0.1-0.8c0-0.2,0-0.3,0-0.3s0,0.1,0,0.3
		c0,0.2-0.1,0.5-0.1,0.9c-0.1,0.7,0,1.9,0.1,3.3c0.2,2.9,0.5,7.1,0.8,12.4c0,0,0-0.1,0-0.1c1.7,1.8,4,3.8,6.4,6.2
		c0.3,0.3,0.6,0.6,0.9,0.9c0.3,0.3,0.6,0.7,0.9,1c0.6,0.7,1.2,1.4,1.8,2.1c1.2,1.4,2.5,2.9,3.8,4.4c-0.1,0-0.2-0.1-0.3-0.1
		c1.1,0,2.4,0,3.8,0c1.7,0,3.5,0,4.5,0c-0.1,0.1-0.2,0.1-0.3,0.1c4.7-5.4,9-10.2,11.8-13.3c0,0,0,0,0,0c0.3-0.4,0.6-0.8,0.7-0.9
		c0,0,0,0.1,0,0.1c0.7-4.5,1.2-8.1,1.3-10.3v0C96.1,65.1,96.3,62.9,96.3,62.9"/>
	<path clip-path="url(#SVGID_3_)" fill="#231F20" d="M76,70.7c0,0-0.2-4-0.3-9.9c0,0,0.1,0.2,0.1,0.3c-0.6-0.5-1.7-1.3-2.7-2.1
		c-1.5-1.1-2.8-2.2-4.1-3.1c-0.6-0.5-1.2-0.9-1.8-1.3c-0.3-0.2-0.6-0.4-0.8-0.5c-0.1,0-0.1-0.1-0.2-0.1l-0.1,0l-0.1,0c0.1,0,0,0,0,0
		c0,0-0.2,0.1-0.3,0.2c-0.9,0.8-1.5,1.6-1.9,2.1c-0.4,0.5-0.7,0.8-0.7,0.8s0.2-0.3,0.6-0.9c0.4-0.6,0.9-1.4,1.8-2.3
		c0.1-0.1,0.2-0.2,0.5-0.3c0,0,0,0,0.1,0l0.1,0l0.1,0c0.1,0,0.2,0,0.2,0.1c0.4,0.1,0.7,0.3,1,0.5c0.6,0.4,1.3,0.8,1.9,1.2
		c1.3,0.9,2.8,1.9,4.2,3c1.1,0.8,2.1,1.6,2.7,2.1l0.1,0.1l0,0.2C76.2,66.8,76,70.7,76,70.7"/>
	<path clip-path="url(#SVGID_3_)" fill="#FFFFFF" d="M81.9,83.9c1.7-1.6,1.7-5.8,1.7-7H73.1c-0.2,1.7,0,4.7,1.6,7H81.9z"/>
	<path clip-path="url(#SVGID_3_)" fill="#231F20" d="M76,73.6c0,0,0.1,0.1,0.4,0.2c0.1,0.1,0.3,0.1,0.4,0.2c0.2,0.1,0.4,0.1,0.6,0.1
		c0.5,0.1,1.1,0.1,1.7-0.1c0.6-0.2,1.3-0.7,1.6-1.4c0,0,0,0,0,0.1c-0.1-2.7-0.2-6.6-0.2-10.8v-0.9v-0.2l0.2-0.1
		c4.4-2.6,8.2-4.7,10.2-5.8l0.1-0.1l0.1,0.1c1.6,2.2,2.3,3.2,2.3,3.2s-0.8-0.9-2.6-3c0,0,0.1,0,0.2,0c-1.9,1.2-5.6,3.6-10,6.2
		c0-0.1,0.1-0.2,0.2-0.3v0.9c0,4.2-0.1,8.1-0.2,10.8v0l0,0c-0.4,0.9-1.2,1.3-1.9,1.6c-0.7,0.2-1.3,0.2-1.8,0
		c-0.2-0.1-0.5-0.1-0.6-0.2c-0.2-0.1-0.3-0.2-0.4-0.2C76.1,73.7,76,73.6,76,73.6"/>
	<path clip-path="url(#SVGID_3_)" fill="#231F20" d="M75.1,73.2c0,0,0,0-0.1,0.1c-0.1,0.1-0.2,0.2-0.4,0.3c-0.2,0.1-0.5,0.2-0.8,0.2
		c-0.4,0-0.7-0.4-0.8-0.8c-0.2-0.8,0-1.3,0.2-1.7c0.2-0.4,0.4-0.6,0.4-0.6c0,0-0.1,1.1,0.2,2.1c0.1,0.2,0.2,0.3,0.3,0.4
		c0.2,0.1,0.4,0.1,0.6,0.1c0.2,0,0.4,0,0.5-0.1C75,73.2,75.1,73.2,75.1,73.2"/>
	<path clip-path="url(#SVGID_3_)" fill="#231F20" d="M74.7,83.9l-6.2-7h4.5C72.9,78.7,73.1,81.6,74.7,83.9"/>
	<path clip-path="url(#SVGID_3_)" fill="#231F20" d="M83.6,76.9h3.9l-5.6,7C83.6,82.3,83.6,78.1,83.6,76.9"/>
	<path clip-path="url(#SVGID_3_)" fill="#231F20" d="M80.9,72.6c0,0,0.1,0,0.2,0.1c0.1,0.1,0.3,0.2,0.6,0.2c0.2,0.1,0.5,0.1,0.7,0.1
		c0.1,0,0.2-0.3,0.1-0.7c0-0.7-0.2-1.4-0.4-1.8c-0.1-0.2-0.2-0.4-0.2-0.6c-0.1-0.1-0.1-0.2-0.1-0.2s0.1,0.1,0.2,0.1
		c0.1,0.1,0.3,0.2,0.5,0.4c0.4,0.4,0.8,1.1,0.8,2c0,0.2,0,0.5-0.1,0.7c-0.1,0.2-0.3,0.5-0.6,0.6c-0.1,0.1-0.3,0-0.4,0
		c-0.1,0-0.2,0-0.3-0.1c-0.2-0.1-0.3-0.2-0.4-0.3c-0.2-0.2-0.4-0.3-0.5-0.5C80.9,72.7,80.9,72.6,80.9,72.6"/>
	<path clip-path="url(#SVGID_3_)" fill="#231F20" d="M68.6,76.9c0,0,2.2,2.4,6.3,6.8c0,0-0.1,0-0.2-0.1c1.5,0,4.2-0.1,7.1-0.1
		c0,0-0.2,0.1-0.3,0.1c0.8-1,2.2-2.7,3.5-4.5c0.8-1,1.6-2,2-2.5c0.1,0.3,0.2,0.4,0.3,0.6C76.5,77.2,68.6,76.9,68.6,76.9
		s8-0.3,18.9-0.4l0.7,0l-0.5,0.6c-0.5,0.6-1.2,1.5-2,2.5c-1.4,1.7-2.8,3.4-3.6,4.4L82,84.2l-0.2,0c-2.9,0-5.6-0.1-7.1-0.1l-0.1,0
		L74.6,84C70.6,79.4,68.6,76.9,68.6,76.9"/>
	<path clip-path="url(#SVGID_3_)" fill="#231F20" d="M89.5,78.7c0,0,0-0.3-0.1-0.7c-0.1-0.4-0.2-0.9-0.4-1.5
		c-0.1-0.6-0.2-1.2-0.3-1.5c-0.1-0.4-0.2-0.7-0.2-0.7c0,0,0.3,0.1,0.5,0.5c0.3,0.4,0.6,0.9,0.7,1.6c0.1,0.6,0.1,1.3,0,1.7
		C89.7,78.4,89.5,78.7,89.5,78.7"/>
	<path clip-path="url(#SVGID_3_)" fill="#231F20" d="M66.3,80.4c0,0-0.3-0.3-0.6-0.7c-0.2-0.3-0.3-0.6-0.5-1
		c-0.1-0.4-0.2-0.8-0.2-1.3c0-1,0.3-1.8,0.7-2.3c0.2-0.3,0.3-0.5,0.5-0.6c0.1-0.1,0.2-0.2,0.2-0.2s0,0.1-0.1,0.2
		c-0.1,0.2-0.2,0.4-0.2,0.7c-0.1,0.5-0.3,1.3-0.3,2.2c0,0.4,0,0.8,0.1,1.2c0.1,0.3,0.1,0.7,0.2,1C66.2,80,66.3,80.4,66.3,80.4"/>
	<path clip-path="url(#SVGID_3_)" fill="#231F20" d="M89.6,61.7c-0.4-0.2-3.8,0-4.4,0c-0.1,1.3,0.3,2.9,2.2,2.9
		C89.2,64.6,89.6,62.6,89.6,61.7"/>
	<path clip-path="url(#SVGID_3_)" fill="#231F20" d="M68.2,61.7c0.4-0.2,3.8,0,4.4,0c0.1,1.3-0.3,2.9-2.2,2.9
		C68.5,64.6,68.2,62.6,68.2,61.7"/>
	<path clip-path="url(#SVGID_3_)" fill="#231F20" d="M91.1,64c0,0,0-0.2,0-0.5c0-0.1,0-0.3-0.1-0.5c-0.1-0.1-0.3-0.3-0.5-0.4
		c-0.4-0.3-0.9-0.7-1.5-1.1c-0.2-0.1-0.5-0.1-0.9-0.1c-0.4,0-0.8,0-1.2,0c-0.4,0-0.9,0-1.3,0c-0.2,0-0.4,0-0.6,0c-0.1,0-0.2,0-0.3,0
		c-0.1,0-0.1,0-0.2,0c-0.6,0.3-1.1,0.7-1.5,1c0-0.1,0-0.1,0-0.1c-0.1,1.1-0.2,1.6-0.2,1.6s-0.1-0.6-0.2-1.6l0-0.1l0.1-0.1
		c0.4-0.4,0.8-0.9,1.5-1.3c0.1-0.1,0.2-0.1,0.4-0.1c0.1,0,0.2,0,0.3,0c0.2,0,0.4,0,0.6,0c0.4,0,0.8,0,1.3-0.1c0.4,0,0.8,0,1.2,0
		c0.2,0,0.4,0,0.6,0c0.2,0,0.5,0.1,0.7,0.2c0.6,0.4,1,1,1.4,1.4c0.2,0.2,0.3,0.4,0.5,0.6c0,0.2,0,0.4,0,0.6
		C91.1,63.8,91.1,64,91.1,64"/>
	<path clip-path="url(#SVGID_3_)" fill="#231F20" d="M89,61.1c0,0,0,0.2,0,0.5c0,0.3,0,0.8-0.3,1.4c-0.1,0.1-0.2,0.3-0.2,0.4
		c-0.1,0.1-0.2,0.3-0.4,0.4c-0.3,0.2-0.8,0.4-1.1,0.5c-0.1,0-0.1,0-0.3,0l-0.3,0c-0.2,0-0.4-0.1-0.7-0.2c-0.5-0.2-0.9-0.5-1.1-1
		c-0.4-0.8-0.4-1.6-0.3-2.1l0-0.3h0.3C87.3,60.7,89.1,61,89,61.1c0-0.1-1.7,0.1-4.4,0.3c0.1-0.1,0.2-0.2,0.3-0.3
		c0,0.4,0,1.1,0.3,1.7c0.3,0.7,1.1,0.9,1.7,0.9c0.4,0,0.6-0.1,0.9-0.3c0.1-0.1,0.2-0.2,0.3-0.3c0.1-0.1,0.2-0.2,0.3-0.3
		c0.3-0.5,0.4-0.9,0.5-1.2C89,61.3,89,61.1,89,61.1"/>
	<path clip-path="url(#SVGID_3_)" fill="#231F20" d="M65.6,64c0,0,0-0.2-0.1-0.5c0-0.2,0-0.4,0-0.6c0.1-0.2,0.3-0.4,0.5-0.6
		c0.4-0.4,0.8-0.9,1.4-1.4c0.2-0.2,0.5-0.2,0.7-0.2c0.2,0,0.4,0,0.6,0c0.4,0,0.8,0,1.2,0c0.4,0,0.9,0,1.3,0.1c0.2,0,0.4,0,0.6,0
		c0.1,0,0.2,0,0.3,0c0.1,0,0.3,0.1,0.4,0.1c0.7,0.4,1.1,0.9,1.5,1.3l0.1,0.1l0,0.1c-0.1,1.1-0.2,1.6-0.2,1.6s-0.1-0.6-0.2-1.6
		c0,0,0,0.1,0.1,0.1c-0.4-0.3-0.9-0.7-1.5-1c-0.1,0-0.1,0-0.2,0c-0.1,0-0.2,0-0.3,0c-0.2,0-0.4,0-0.6,0c-0.4,0-0.8,0-1.3,0
		c-0.4,0-0.8,0-1.2,0c-0.4,0-0.8,0-0.9,0.1c-0.6,0.4-1,0.8-1.5,1.1c-0.2,0.2-0.4,0.3-0.5,0.4c-0.1,0.2-0.1,0.4-0.1,0.5
		C65.6,63.8,65.6,64,65.6,64"/>
	<path clip-path="url(#SVGID_3_)" fill="#231F20" d="M67.6,61.1c0,0,0,0.2,0.1,0.5c0.1,0.3,0.2,0.7,0.5,1.2c0.1,0.1,0.2,0.2,0.3,0.3
		c0.1,0.1,0.2,0.2,0.3,0.3c0.2,0.1,0.5,0.2,0.9,0.3c0.6,0,1.4-0.2,1.7-0.9c0.3-0.6,0.3-1.2,0.3-1.7c0.2,0.1,0.2,0.2,0.3,0.3
		C69.4,61.2,67.7,61,67.6,61.1c0-0.1,1.8-0.3,4.4-0.3h0.3l0,0.3c0,0.5,0.1,1.3-0.3,2.1c-0.2,0.4-0.6,0.8-1.1,1
		c-0.2,0.1-0.4,0.2-0.7,0.2l-0.3,0c-0.2,0-0.2,0-0.3,0c-0.3,0-0.8-0.2-1.1-0.5c-0.1-0.1-0.3-0.3-0.4-0.4C68,63.2,68,63.1,67.9,63
		c-0.2-0.6-0.3-1-0.3-1.4C67.6,61.3,67.6,61.1,67.6,61.1"/>
	<path clip-path="url(#SVGID_3_)" fill="#231F20" d="M97.7,31.8c0,0,0.1,0.1,0.2,0.2c0.2,0.2,0.4,0.4,0.7,0.8c0.5,0.8,1.2,2,1.7,3.9
		c0.5,1.8,0.8,4.2,0.8,7.2c0,1.5,0,3.1-0.2,4.8c-0.1,0.9-0.2,1.8-0.3,2.7c-0.1,0.9-0.2,1.9-0.6,2.9l-0.2,0.6l-0.1-0.6
		c-0.1-0.4-0.4-1-1-1.4c-0.2-0.1-0.3-0.2-0.5-0.2c-0.2,0-0.3,0-0.3,0.1c0,0.4-0.1,0.9-0.1,1.4c-0.2,2-0.4,4.4-0.7,6.9l0,0.2l-0.2,0
		c-0.2,0-0.8,0-1.3,0l-0.2,0l0-0.2c0-1.1,0-3.8,0.1-6.7c0,0,0,0.1,0,0.1c-0.3-0.7-1.1-2.3-1.9-4l-0.1-0.1l0.1-0.1
		c0,0,0.1-0.2,0.1-0.3c0,0,0,0,0,0c0.5-1.7,1.1-3.6,1.7-5.6c0.8-2,0-4.4-1.8-6c-0.9-0.8-2-1.4-3.2-1.9c-0.6-0.2-1.2-0.4-1.9-0.4
		c-0.7-0.1-1.3-0.1-1.9,0c-1.3,0.2-2.6,0.6-4,1c-1.3,0.4-2.8,0.9-4.3,0.8h0.1c-0.2,0-0.6,0-0.9,0c-1.4-0.1-2.6-0.6-3.8-1
		c-1.2-0.4-2.4-0.8-3.6-0.9c-0.3,0-0.6,0-0.9,0c-0.3,0-0.6,0-0.9,0.1c-0.6,0.1-1.2,0.2-1.8,0.4c-1.1,0.4-2.2,0.9-3.1,1.7
		c-0.9,0.7-1.7,1.6-2,2.6c-0.4,1-0.5,2.1-0.2,3.1C61.7,46,62.4,48,63,50l0,0.1L63,50.2c-0.7,1.5-1.3,2.7-1.9,3.8c0-0.1,0-0.1,0-0.1
		c0.1,2.8,0.1,5,0.2,7.1l0,0.3l-0.3,0c-0.7,0-1.3,0-1.8,0l-0.3,0l0-0.3c0.2-1.7,0-3.2,0-4.6c-0.1-1.4-0.2-2.7-0.3-3.9
		c0.1,0.1,0.1,0.1,0.2,0.2c-0.8-0.2-1.5-0.1-2.1,0.3c-0.5,0.3-0.9,0.8-1.1,1.3l-0.2,0.4l-0.1-0.4c-0.3-1-0.3-1.8-0.4-2.7
		c-0.1-0.9-0.1-1.7-0.1-2.5c0-1.6,0-3.2,0.1-4.6c0.2-2.9,0.6-5.3,1.1-7.2c0.5-1.9,1.2-3.4,1.9-4.2c0.3-0.4,0.6-0.7,0.8-0.9
		c0.2-0.2,0.3-0.3,0.3-0.3s-0.1,0.1-0.3,0.3c-0.2,0.2-0.4,0.5-0.7,0.9c-0.6,0.9-1.3,2.3-1.8,4.2c-0.5,1.9-0.9,4.4-1,7.2
		c-0.1,1.4-0.1,2.9,0,4.6c0,0.8,0.1,1.6,0.2,2.5c0.1,0.8,0.1,1.8,0.4,2.5c-0.1,0-0.2,0-0.3,0c0.3-0.6,0.6-1.1,1.2-1.5
		c0.6-0.4,1.5-0.6,2.4-0.4l0.2,0l0,0.2c0.1,1.2,0.2,2.5,0.3,3.9c0.1,1.4,0.3,2.9,0.1,4.8c-0.1-0.1-0.1-0.2-0.3-0.3c0.5,0,1,0,1.8,0
		c-0.1,0.1-0.2,0.2-0.3,0.3c-0.1-2.1-0.2-4.3-0.3-7.1l0-0.1l0-0.1c0.5-1.1,1.1-2.3,1.8-3.8c0,0.1,0,0.1,0,0.2
		c-0.6-1.9-1.3-4-1.9-6.1c-0.4-1.2-0.2-2.4,0.2-3.6c0.4-1.2,1.3-2.1,2.2-2.9c1-0.8,2.1-1.4,3.3-1.8c0.6-0.2,1.2-0.3,1.9-0.4
		c0.3-0.1,0.6-0.1,1-0.1c0.3,0,0.7,0,1,0c2.6,0.2,5,1.6,7.4,1.9c0.3,0,0.6,0,0.8,0l0,0l0,0c1.3,0.1,2.7-0.4,4-0.8
		c1.3-0.4,2.7-0.9,4.1-1.1c0.7-0.1,1.4-0.1,2.1,0c0.7,0.1,1.4,0.3,2,0.5c1.3,0.4,2.5,1.1,3.4,2c2,1.7,2.9,4.6,2,6.7
		c-0.6,2.1-1.2,4-1.8,5.6l0,0l0,0c-0.1,0.1-0.1,0.2-0.1,0.3v-0.3c0.8,1.7,1.6,3.3,1.9,4l0,0.1l0,0.1c-0.1,2.8-0.1,5.6-0.2,6.7
		c-0.1-0.1-0.2-0.2-0.2-0.2c0.6,0,1.2,0,1.3,0c-0.1,0.1-0.2,0.2-0.2,0.2c0.3-2.5,0.5-4.9,0.7-6.9c0-0.5,0.1-1,0.1-1.4
		c0-0.2,0.2-0.4,0.3-0.4c0.2,0,0.3,0,0.4,0c0.2,0,0.4,0.1,0.6,0.3c0.7,0.4,1.1,1.1,1.1,1.7c-0.1,0-0.3,0-0.3,0
		c0.3-0.9,0.4-1.9,0.6-2.8c0.1-0.9,0.2-1.8,0.3-2.7c0.2-1.7,0.2-3.3,0.2-4.8c0-2.9-0.3-5.3-0.7-7.2c-0.4-1.8-1.1-3.1-1.6-3.9
		c-0.3-0.4-0.5-0.6-0.6-0.8C97.8,31.9,97.7,31.8,97.7,31.8"/>
	<path clip-path="url(#SVGID_3_)" fill="#231F20" d="M95.6,69.7c0,0,0.2,0,0.7,0c0.4-0.1,1.1-0.3,1.6-0.8c0.1-0.1,0.3-0.3,0.4-0.5
		c0.1-0.2,0.2-0.4,0.4-0.6c0.2-0.4,0.5-0.9,0.6-1.3c0.2-1,0.3-2.2,0.4-3.4c0.2-2.5,0.3-4.7,0.3-6.3c0-0.8,0-1.5,0-1.9
		c0-0.5,0-0.7,0-0.7s0.1,0.2,0.2,0.7c0.1,0.4,0.2,1.1,0.3,1.9c0.2,1.6,0.2,3.9,0,6.4c-0.1,1.2-0.2,2.4-0.5,3.5
		c-0.1,0.6-0.5,1-0.7,1.4c-0.1,0.2-0.3,0.4-0.4,0.6c-0.2,0.2-0.3,0.3-0.5,0.5c-0.7,0.6-1.4,0.7-1.8,0.7
		C95.9,69.7,95.6,69.7,95.6,69.7"/>
	<path clip-path="url(#SVGID_3_)" fill="#231F20" d="M55.5,54.1c0,0,0,0.1,0,0.2c0,0.1-0.1,0.3-0.1,0.5c-0.1,0.5-0.1,1.1-0.1,1.9
		c0,1.6,0.1,3.9,0.2,6.4c0.1,1.2,0.1,2.5,0.3,3.5c0.1,1,0.9,1.7,1.5,2.1c1.4,0.9,2.5,0.9,2.4,0.8c0,0.1-1.1,0.3-2.6-0.5
		c-0.4-0.2-0.8-0.5-1.1-0.8c-0.4-0.3-0.7-0.9-0.8-1.5c-0.2-1.1-0.3-2.3-0.4-3.6c-0.1-2.5-0.1-4.9,0.1-6.5c0.1-0.8,0.2-1.5,0.4-1.9
		c0.1-0.2,0.1-0.4,0.2-0.5C55.5,54.2,55.5,54.1,55.5,54.1"/>
	<path clip-path="url(#SVGID_3_)" fill="#231F20" d="M93.8,86.2c0,0-2.1,2.7-5,5.6c-2.9,3-5.5,5.1-5.5,5.1s2.1-2.7,5-5.6
		C91.2,88.3,93.8,86.2,93.8,86.2"/>
	<path clip-path="url(#SVGID_3_)" fill="#231F20" d="M67.9,96.1c0,0-2-2-4.2-4.7c-2.1-2.7-3.6-5.2-3.6-5.2s2,2,4.2,4.7
		C66.5,93.6,67.9,96.1,67.9,96.1"/>
	
		<rect x="77.9" y="107" transform="matrix(0.9975 7.078970e-02 -7.078970e-02 0.9975 7.9789 -5.2465)" clip-path="url(#SVGID_3_)" fill="#FFFFFF" width="0.2" height="5.9"/>
	<rect x="72.3" y="106.4" clip-path="url(#SVGID_3_)" fill="#FFFFFF" width="0.2" height="6.5"/>
	<path clip-path="url(#SVGID_3_)" fill="#231F20" d="M76,60.9c0,0-0.8-0.4-2.2-1.2c-1.3-0.8-3.1-1.9-4.9-3.2
		c-0.9-0.6-1.8-1.3-2.6-1.8l-0.2-0.1l-0.2-0.1l-0.1,0l0,0l0,0h0c0,0,0.2,0,0.1,0l0,0h0c0,0,0.1,0,0.1,0l0,0c0,0,0,0-0.1,0
		c-0.1,0-0.2,0.1-0.2,0.2c-0.3,0.3-0.6,0.5-0.9,0.8c-1.1,1-1.8,1.7-1.8,1.7s0.4-0.9,1.2-2.2c0.2-0.3,0.4-0.7,0.7-1.1
		c0.1-0.1,0.2-0.2,0.3-0.3c0,0,0.1-0.1,0.2-0.2l0.1-0.1c0.1,0,0.2-0.1,0.3-0.1l0.1,0l0,0l0.1,0l0,0l0.1,0l0.2,0
		c0.1,0,0.3,0.1,0.5,0.2c1.1,0.5,1.9,1,2.9,1.7c1.9,1.3,3.5,2.8,4.5,3.8C75.3,60.2,76,60.9,76,60.9"/>
	<path clip-path="url(#SVGID_3_)" fill="#231F20" d="M80.9,60.9c0,0,2.6-2.4,6.4-4.6c1.3-0.8,2.6-1.4,3.5-1.8l0.5-0.2l0.2,0.3
		c1.4,2.1,2,3.4,2,3.4s-1.2-1-2.9-2.8c0.2,0,0.4,0.1,0.7,0.1c-0.8,0.6-1.9,1.4-3.2,2.2C84.3,59.7,80.9,60.9,80.9,60.9"/>
</g>
</svg>
