<svg xmlns="http://www.w3.org/2000/svg" xmlns:xlink="http://www.w3.org/1999/xlink" viewBox="0 0 178.7 132.2" enable-background="new 0 0 178.7 132.2"><rect x="2.3" y="2.3" fill="#D8505C" width="176.4" height="129.3"/><defs><rect id="a" x="2.1" y="22.2" width="176.6" height="110.1"/></defs><clipPath id="b"><use xlink:href="#a" overflow="visible"/></clipPath><path clip-path="url(#b)" fill="#fff" d="M151.3 62.9c-.4-.2-3.8 0-4.4 0-.1 1.3.3 2.9 2.2 2.9 1.8 0 2.2-2 2.2-2.9"/><path clip-path="url(#b)" fill="#231F20" d="M151.3 62.9s.5.7.3 2.1l-.2.6-.4.6c-.2.2-.5.4-.8.5l-.2.1h-.1l-.3.1h-1.4l-.5-.1c-.3-.1-.7-.3-1-.6-.3-.2-.5-.6-.7-.9-.6-1.1-.4-2.1-.3-2.7l.3-1.4 1 .1c1.2.2 2.4.4 3.2.7.4.1.7.3.9.4.1.4.2.5.2.5-.1-.1-1.6.8-4.4 1.3l1.3-1.2c.1.3.2.9.3 1.1 0 .2 1 .9 1.7.3.3-.3.6-.7.8-1 .2-.3.3-.5.3-.5"/><path clip-path="url(#b)" fill="#fff" d="M129.4 62.3s0 .2.1.5.2.7.5 1.2l.3.3.3.3c.2.1.5.2.9.3.6 0 1.4-.2 1.7-.9.3-.6.3-1.2.3-1.7.2.1.2.2.3.3-2.7-.2-4.4-.4-4.4-.3 0-.1 1.8-.3 4.4-.3h.3v.3c0 .5.1 1.3-.3 2.1-.2.4-.6.8-1.1 1-.2.1-.5.2-.7.2h-.6c-.3 0-.8-.2-1.1-.5l-.4-.4c-.1-.1-.2-.3-.2-.4-.2-.6-.3-1-.3-1.4-.1-.5 0-.6 0-.6"/><path clip-path="url(#b)" stroke="#fff" stroke-miterlimit="10" d="M129.4 62.3s0 .2.1.5.2.7.5 1.2l.3.3.3.3c.2.1.5.2.9.3.6 0 1.4-.2 1.7-.9.3-.6.3-1.2.3-1.7.2.1.2.2.3.3-2.7-.2-4.4-.4-4.4-.3 0-.1 1.8-.3 4.4-.3h.3v.3c0 .5.1 1.3-.3 2.1-.2.4-.6.8-1.1 1-.2.1-.5.2-.7.2h-.6c-.3 0-.8-.2-1.1-.5l-.4-.4c-.1-.1-.2-.3-.2-.4-.2-.6-.3-1-.3-1.4-.1-.5 0-.6 0-.6z" fill="none"/><path clip-path="url(#b)" fill="#fff" d="M162.8 55.3c.6-1.6 2.9-17.6-2.2-22.3-5.2-4.8-7.6-5.2-18.1-4.3h-2.5c-10.6-.9-13-.5-18.1 4.3-5 4.6-4.1 19.8-3.5 22.1l.1.2c.4-.8 1.4-2.2 3.4-1.8 0 .9.7 6.4.4 8.6h1.8s-.2-4.1-.2-7.1l1.9-3.8s-1.4-4.4-1.9-6.3c-.5-1.9.5-3.8.5-3.8s2-3.9 7.7-4.4c3.4-.1 6.4 2.2 9.3 1.9h.1c2.9.2 5.9-2 9.3-1.9 5.7.5 7.7 4.4 7.7 4.4s1.1 1.9.5 3.8c-.5 1.9-1.9 6.3-1.9 6.3l-.1.3 1.9 4-.1 6.7h1.3s.8-7.5.8-8.3c-.2-.8 1.7-.1 1.9 1.4"/><path clip-path="url(#b)" fill="#231F20" d="M162.8 55.3s0-.2-.2-.6c-.2-.3-.6-1-1.5-1.2-.1 0-.2 0-.3.1-.1.1-.1.2-.1.3 0 .3 0 .5-.1.8-.1.6-.1 1.3-.2 2-.1 1.5-.3 3.2-.5 5.4v.1h-1.5000000000000002v-.1c0-.9 0-3.6.1-6.7v.1c-.2-.5-1.1-2.2-1.9-4v-.2s.1-.2.1-.3c.4-1.5 1-3.2 1.6-5.2l.4-1.5c.1-.5.1-1.1 0-1.6s-.3-1.1-.5-1.6c-.3-.5-.6-1-1-1.4-1.7-1.8-4.3-2.9-7.1-2.9-1.4.1-2.8.5-4.2 1-1.4.5-2.9 1-4.6.9-1.7.2-3.6-.6-5.6-1.2-1-.3-2.1-.6-3.2-.7-1.1 0-2.3.2-3.4.6-1.1.4-2.3 1-3.2 1.9-.5.4-.9.9-1.2 1.5-.3.5-.5 1.2-.7 1.8-.1.6-.1 1.3.1 2l.6 2.1 1.3 4.2v.1l-.1.1c-.4.8-1.1 2.3-1.8 3.8v-.2c.1 1.5.1 4.3.2 7.1v.4h-2.6l.1-.4c.1-.5.1-1.3.1-2.2-.1-2.2-.3-4.3-.4-6.3.1.1.2.2.3.4-.7-.2-1.3-.1-1.8.2-.5.3-.9.8-1.2 1.3l-.1.2h-.2l-.4.1-.1-.3c-.4-2.2-.5-4.2-.5-6.3 0-2.1.1-4.1.3-6 .2-2 .6-3.9 1.1-5.7.6-1.8 1.4-3.6 2.9-4.8 1.3-1.2 2.7-2.4 4.3-3.2 1.6-.8 3.3-1.2 4.9-1.3 3.2-.2 6.2.1 9 .3h2.5c3.3-.3 6.5-.5 9.6-.2 1.5.2 3 .6 4.2 1.3 1.3.7 2.4 1.5 3.4 2.4.5.4 1 .9 1.4 1.3.4.5.8 1 1.1 1.5.6 1.1.9 2.2 1.2 3.3.5 2.2.6 4.2.7 6.1.1 3.7-.3 6.5-.5 8.3-.1.9-.3 1.7-.4 2.1-.3.7-.4 1-.4 1 0-.1.1-.3.2-.8s.2-1.2.4-2.1c.2-1.9.5-4.7.4-8.3-.1-1.8-.2-3.9-.7-6-.3-1.1-.6-2.2-1.2-3.2-.3-.5-.6-1-1.1-1.5-.4-.4-.9-.9-1.4-1.3-1-.8-2.1-1.7-3.3-2.3-1.2-.6-2.6-1-4.1-1.2-3-.3-6.1 0-9.5.3h-2.5c-2.7-.2-5.7-.5-8.9-.3-1.6.1-3.2.5-4.6 1.3-1.5.8-2.8 1.9-4.1 3.1-1.3 1.1-2.1 2.8-2.7 4.6-.6 1.8-.9 3.7-1.1 5.6-.2 1.9-.3 3.9-.3 6 0 2 .1 4.1.5 6.1l-.4-.3-.3.2c.3-.6.8-1.3 1.5-1.7.7-.4 1.6-.5 2.4-.3l.3.1v.3c.1 1.9.4 4.1.5 6.3 0 .9 0 1.8-.1 2.4-.1-.2-.3-.3-.4-.4h1.8c-.1.2-.3.3-.4.4-.1-2.8-.2-5.6-.2-7.1v-.2c.7-1.5 1.5-3.1 1.9-3.8v.3l-1.3-4.2-.6-2.1c-.2-.7-.2-1.5-.1-2.3.1-.7.4-1.4.8-2.1.4-.6.9-1.2 1.4-1.6 1-1 2.2-1.6 3.4-2.1 1.2-.4 2.5-.7 3.7-.6 1.2.1 2.3.4 3.3.7 2 .7 3.8 1.4 5.3 1.2 1.5.1 3-.4 4.4-.9 1.4-.5 2.9-.9 4.3-1 3 0 5.7 1.2 7.4 3.1.4.5.8 1 1.1 1.5.3.6.5 1.1.6 1.7.1.6.1 1.2 0 1.7-.1.6-.3 1-.4 1.5-.6 2-1.2 3.7-1.6 5.1-.1.1-.1.2-.1.3v-.1c.8 1.8 1.6 3.5 1.9 4-.1 3-.1 5.7-.2 6.7l-.1-.1h1.3l-.1.1c.2-2.1.4-3.9.6-5.3.1-.7.1-1.4.2-2 0-.3 0-.6.1-.8 0-.1 0-.3.1-.4.1-.1.2-.1.4-.1.9.2 1.3.9 1.5 1.2.1.5.1.7.1.7"/><path clip-path="url(#b)" fill="#fff" d="M123 84.1l.1-3.1c-.2-3.8-.5-10.1-.5-10.1-.7.3-3.8-.8-4.2-2.6-.5-1.8-.9-10.9 0-12.9l-.1-.2c-.6-2.3-1.5-17.5 3.5-22.1 5.2-4.8 7.6-5.2 18.1-4.3h2.5c10.6-.9 12.9-.5 18.1 4.3 5.1 4.7 2.9 20.7 2.2 22.3l.1.8c.5 1.9 0 10.9-.6 12.1-.6 1.2-1.6 3-3.8 2.7.2 1.4-1.2 10.3-1.2 10.3l-.7.9v6.199999999999999l-18.5 19.8-15.2-19.7.2-4.4z"/><path clip-path="url(#b)" stroke="#fff" stroke-width="2" stroke-miterlimit="10" d="M123 84.1l.1-3.1c-.2-3.8-.5-10.1-.5-10.1-.7.3-3.8-.8-4.2-2.6-.5-1.8-.9-10.9 0-12.9l-.1-.2c-.6-2.3-1.5-17.5 3.5-22.1 5.2-4.8 7.6-5.2 18.1-4.3h2.5c10.6-.9 12.9-.5 18.1 4.3 5.1 4.7 2.9 20.7 2.2 22.3l.1.8c.5 1.9 0 10.9-.6 12.1-.6 1.2-1.6 3-3.8 2.7.2 1.4-1.2 10.3-1.2 10.3l-.7.9v6.199999999999999l-18.5 19.8-15.2-19.7.2-4.4z" fill="none"/><path clip-path="url(#b)" fill="#fff" d="M148 28.3c5.2 0 7.5 1.2 11.4 4.7 5.1 4.7 2.9 20.7 2.2 22.3l.1.8c.5 1.9 0 10.9-.6 12.1-.6 1.1-1.5 2.7-3.3 2.7h-.5c.2 1.4-1.2 10.3-1.2 10.3l-.7.9v2.9h1.6l4.9 5.7c9.4 3.4 29.4 14 29.4 14l8.5 26.5h-125.80000000000001l13.2-29.6 32.8-15.5 1.9-2 .1-3.1c-.2-3.8-.5-10.1-.5-10.1l-.3.1c-1 0-3.5-1-3.9-2.7-.5-1.8-.9-10.9 0-12.9l-.1-.2c-.6-2.3-1.5-17.5 3.5-22.1 3.8-3.5 6.1-4.7 11.3-4.7 1.8 0 4 .1 6.8.4h2.5c2.7-.4 4.9-.5 6.7-.5m0-1c-1.7 0-3.7.1-6.8.4h-2.4c-3.1-.3-5.2-.4-6.8-.4-5.7 0-8.2 1.5-12 5-5.3 4.9-4.5 20.3-3.8 23.1-.9 2.9-.3 11.5.1 13.2.5 1.9 2.8 3.1 4.2 3.4.1 1.9.4 6.2.5 9.1l-.1 2.7-1.5 1.6-32.5 15.6-.2.1-.1.1-13.2 29.6-1.5 1.7h129.99999999999997l-1.1-1.6-8.5-26.5-.1-.2-.2-.1c-.8-.4-19.8-10.6-29.3-14l-4.8-5.5-.3-.3h-1.2v-1.6l.5-.7.1-.2v-.2c.2-1.3 1-6.9 1.2-9.5 2.2-.3 3.2-2.3 3.7-3.2.8-1.6 1.2-10.7.7-12.7l-.1-.6c.7-2.7 2.8-18.1-2.6-23.1-3.7-3.7-6.2-5.2-11.9-5.2"/><path clip-path="url(#b)" stroke="#fff" stroke-width="2" stroke-miterlimit="10" d="M148 28.3c5.2 0 7.5 1.2 11.4 4.7 5.1 4.7 2.9 20.7 2.2 22.3l.1.8c.5 1.9 0 10.9-.6 12.1-.6 1.1-1.5 2.7-3.3 2.7h-.5c.2 1.4-1.2 10.3-1.2 10.3l-.7.9v2.9h1.6l4.9 5.7c9.4 3.4 29.4 14 29.4 14l8.5 26.5h-125.80000000000001l13.2-29.6 32.8-15.5 1.9-2 .1-3.1c-.2-3.8-.5-10.1-.5-10.1l-.3.1c-1 0-3.5-1-3.9-2.7-.5-1.8-.9-10.9 0-12.9l-.1-.2c-.6-2.3-1.5-17.5 3.5-22.1 3.8-3.5 6.1-4.7 11.3-4.7 1.8 0 4 .1 6.8.4h2.5c2.7-.4 4.9-.5 6.7-.5m0-1c-1.7 0-3.7.1-6.8.4h-2.4c-3.1-.3-5.2-.4-6.8-.4-5.7 0-8.2 1.5-12 5-5.3 4.9-4.5 20.3-3.8 23.1-.9 2.9-.3 11.5.1 13.2.5 1.9 2.8 3.1 4.2 3.4.1 1.9.4 6.2.5 9.1l-.1 2.7-1.5 1.6-32.5 15.6-.2.1-.1.1-13.2 29.6-1.5 1.7h129.99999999999997l-1.1-1.6-8.5-26.5-.1-.2-.2-.1c-.8-.4-19.8-10.6-29.3-14l-4.8-5.5-.3-.3h-1.2v-1.6l.5-.7.1-.2v-.2c.2-1.3 1-6.9 1.2-9.5 2.2-.3 3.2-2.3 3.7-3.2.8-1.6 1.2-10.7.7-12.7l-.1-.6c.7-2.7 2.8-18.1-2.6-23.1-3.7-3.7-6.2-5.2-11.9-5.2z" fill="none"/><polygon clip-path="url(#b)" fill="#fff" points="74.1,131.3 87.3,101.7 122,85.1 119.4,131.3"/><polygon clip-path="url(#b)" stroke="#fff" stroke-miterlimit="10" points="74.1,131.3 87.3,101.7 122,85.1 119.4,131.3" fill="none"/><path clip-path="url(#b)" fill="#fff" d="M122 85.1l-2.7 46.2h-45.2l13.3-29.6 34.6-16.6zm.3-.4l-.4.2-34.7 16.6-13.2 29.6-.4.4h46.1v-.2l2.7-46.2-.1-.4z"/><path clip-path="url(#b)" stroke="#fff" stroke-miterlimit="10" d="M122 85.1l-2.7 46.2h-45.2l13.3-29.6 34.6-16.6m.3-.4l-.4.2-34.7 16.6-13.2 29.6-.4.4h46.1v-.2l2.7-46.2-.1-.4z" fill="none"/><path clip-path="url(#b)" fill="#fff" d="M158.6 89.8l-7 41.5h48.4l-8.5-26.5s-26.5-14.2-32.9-15"/><path clip-path="url(#b)" stroke="#fff" stroke-miterlimit="10" d="M158.6 89.8l-7 41.5h48.4l-8.5-26.5s-26.5-14.2-32.9-15z" fill="none"/><path clip-path="url(#b)" fill="#fff" d="M158.6 89.8c6.4.8 32.9 15 32.9 15l8.5 26.5h-48.4l7-41.5m-.2-.3v.2l-7 41.5-.1.3h49.199999999999996l-.3-.4-8.5-26.5c-1.1-.6-26.6-14.2-33-15l-.3-.1z"/><path clip-path="url(#b)" stroke="#fff" stroke-miterlimit="10" d="M158.6 89.8c6.4.8 32.9 15 32.9 15l8.5 26.5h-48.4l7-41.5m-.2-.3v.2l-7 41.5-.1.3h49.199999999999996l-.3-.4-8.5-26.5c-1.1-.6-26.6-14.2-33-15l-.3-.1z" fill="none"/><polygon clip-path="url(#b)" fill="#fff" points="115.5,131.3 120.6,95.6 121.1,92.3 121.8,87.4 129.6,97.2 136.8,106.5 145.1,98 155.5,87.4 155.5,93.3 155.5,96.2 153.3,131.3"/><polygon clip-path="url(#b)" stroke="#fff" stroke-miterlimit="10" points="115.5,131.3 120.6,95.6 121.1,92.3 121.8,87.4 129.6,97.2 136.8,106.5 145.1,98 155.5,87.4 155.5,93.3 155.5,96.2 153.3,131.3" fill="none"/><polygon clip-path="url(#b)" fill="#fff" points="119.4,131.3 122,83.8 99.4,108.2 107.2,131.3"/><polygon clip-path="url(#b)" stroke="#fff" stroke-miterlimit="10" points="119.4,131.3 122,83.8 99.4,108.2 107.2,131.3" fill="none"/><path clip-path="url(#b)" fill="#fff" d="M122 83.8l-2.7 47.5h-12.1l-7.8-23.1 22.6-24.4zm.3-.6l-.5.5-22.5 24.3-.1.1v.1l7.8 23.1.1.2h12.499999999999998v-.2l2.7-47.5v-.6z"/><path clip-path="url(#b)" stroke="#fff" stroke-miterlimit="10" d="M122 83.8l-2.7 47.5h-12.1l-7.8-23.1 22.6-24.4m.3-.6l-.5.5-22.5 24.3-.1.1v.1l7.8 23.1.1.2h12.499999999999998v-.2l2.7-47.5v-.6z" fill="none"/><polygon clip-path="url(#b)" fill="#fff" points="155.5,85.1 155.5,96.2 151.6,131.3 161.3,131.3 175.7,106.5 157.2,85.1"/><polygon clip-path="url(#b)" stroke="#fff" stroke-miterlimit="10" points="155.5,85.1 155.5,96.2 151.6,131.3 161.3,131.3 175.7,106.5 157.2,85.1" fill="none"/><path clip-path="url(#b)" fill="#fff" d="M157.2 85.1l18.5 21.4-14.4 24.9h-9.7l3.9-35.1v-11.2h1.7zm.1-.3h-1.9000000000000001v11.299999999999999l-3.9 35.1v.3h10.1l.1-.1 14.4-24.9.1-.2-.1-.1-18.8-21.4z"/><path clip-path="url(#b)" stroke="#fff" stroke-miterlimit="10" d="M157.2 85.1l18.5 21.4-14.4 24.9h-9.7l3.9-35.1v-11.2h1.7m.1-.3h-1.9000000000000001v11.299999999999999l-3.9 35.1v.3h10.1l.1-.1 14.4-24.9.1-.2-.1-.1-18.8-21.4z" fill="none"/><polygon clip-path="url(#b)" fill="#fff" points="155.5,96.2 155.5,93.3 141,107.6 144.9,107.6"/><polygon clip-path="url(#b)" stroke="#fff" stroke-miterlimit="10" points="155.5,96.2 155.5,93.3 141,107.6 144.9,107.6" fill="none"/><path clip-path="url(#b)" fill="#fff" d="M120.6 95.6l.5-3.3c.9 1.2 12.2 15.9 12.2 15.9h-4.1l-8.6-12.6z"/><path clip-path="url(#b)" stroke="#fff" stroke-miterlimit="10" d="M120.6 95.6l.5-3.3c.9 1.2 12.2 15.9 12.2 15.9h-4.1l-8.6-12.6z" fill="none"/><path clip-path="url(#b)" fill="#fff" d="M134.2 107.6s-9.7-4.7-12.1-4.8c-1.2 1.6-1.4 14.4 2.1 18.5 1-.2 10.1-7.2 10.1-7.2 1.6 1 4.5.6 5.3 0 0 0 4.1 7 9.9 8.4 1.4-1.4 3.9-16.4 3.7-17.9-.2-1.4-10.7 1.9-13.2 3.6-.1 0-.5-2.6-5.8-.6"/><path clip-path="url(#b)" stroke="#fff" stroke-miterlimit="10" d="M134.2 107.6s-9.7-4.7-12.1-4.8c-1.2 1.6-1.4 14.4 2.1 18.5 1-.2 10.1-7.2 10.1-7.2 1.6 1 4.5.6 5.3 0 0 0 4.1 7 9.9 8.4 1.4-1.4 3.9-16.4 3.7-17.9-.2-1.4-10.7 1.9-13.2 3.6-.1 0-.5-2.6-5.8-.6z" fill="none"/><path clip-path="url(#b)" fill="#fff" d="M139.5 114.1c-.8.6-3.7 1-5.3 0v-6.5c5.3-2 5.8.6 5.8.6l-.5 5.9z"/><path clip-path="url(#b)" stroke="#fff" stroke-miterlimit="10" d="M139.5 114.1c-.8.6-3.7 1-5.3 0v-6.5c5.3-2 5.8.6 5.8.6l-.5 5.9z" fill="none"/><polygon clip-path="url(#b)" fill="#fff" points="136.8,106.5 129.6,97.2 127,112.6"/><polygon clip-path="url(#b)" stroke="#fff" stroke-miterlimit="10" points="136.8,106.5 129.6,97.2 127,112.6" fill="none"/><path clip-path="url(#b)" fill="#fff" d="M136.8 106.5s-3.7 2.5-9.7 6.4l-.5.4.1-.7c.3-1.9.7-4.7 1.2-7.8.5-3 1-5.8 1.4-7.6l.1-.7.4.5c4.4 5.8 7 9.5 7 9.5s-2.9-3.4-7.5-9c.1 0 .3-.1.5-.1-.3 1.8-.7 4.7-1.2 7.7s-1 5.9-1.4 7.7c-.2-.1-.4-.3-.4-.3 6.2-3.8 10-6 10-6"/><path clip-path="url(#b)" stroke="#fff" d="M136.8 106.5s-3.7 2.5-9.7 6.4l-.5.4.1-.7c.3-1.9.7-4.7 1.2-7.8.5-3 1-5.8 1.4-7.6l.1-.7.4.5c4.4 5.8 7 9.5 7 9.5s-2.9-3.4-7.5-9c.1 0 .3-.1.5-.1-.3 1.8-.7 4.7-1.2 7.7s-1 5.9-1.4 7.7c-.2-.1-.4-.3-.4-.3 6.2-3.8 10-6 10-6z" fill="none"/><polygon clip-path="url(#b)" fill="#fff" points="145.1,98 136.8,106.5 146,112.6"/><polygon clip-path="url(#b)" stroke="#fff" stroke-miterlimit="10" points="145.1,98 136.8,106.5 146,112.6" fill="none"/><path clip-path="url(#b)" fill="#fff" d="M145.1 98s.7 5.9 1.3 14.6l.1.7-.6-.4c-.8-.5-2.1-1.4-3.4-2.3-2.3-1.5-4.4-3-5.7-3.9l-.3-.2.3-.3c4.9-5 8.3-8.2 8.3-8.2s-3 3.4-8 8.6v-.5c1.4.9 3.6 2.3 5.8 3.8 1.3.9 2.6 1.8 3.4 2.3-.2.1-.4.3-.5.3-.6-8.5-.7-14.5-.7-14.5"/><path clip-path="url(#b)" stroke="#fff" d="M145.1 98s.7 5.9 1.3 14.6l.1.7-.6-.4c-.8-.5-2.1-1.4-3.4-2.3-2.3-1.5-4.4-3-5.7-3.9l-.3-.2.3-.3c4.9-5 8.3-8.2 8.3-8.2s-3 3.4-8 8.6v-.5c1.4.9 3.6 2.3 5.8 3.8 1.3.9 2.6 1.8 3.4 2.3-.2.1-.4.3-.5.3-.6-8.5-.7-14.5-.7-14.5z" fill="none"/><path clip-path="url(#b)" fill="#fff" d="M122 81s.2 1.1.3 2.9c0 1 0 2.5-.1 4-.2 3.8-.8 6.9-.8 6.9s-.2-3.1 0-6.9c.1-1.6.2-3 .4-4 .1-1.9.2-2.9.2-2.9"/><path clip-path="url(#b)" stroke="#fff" stroke-miterlimit="10" d="M122 81s.2 1.1.3 2.9c0 1 0 2.5-.1 4-.2 3.8-.8 6.9-.8 6.9s-.2-3.1 0-6.9c.1-1.6.2-3 .4-4 .1-1.9.2-2.9.2-2.9z" fill="none"/><path clip-path="url(#b)" fill="#fff" d="M155.5 96.2s-.4-3.1-.4-7 .4-7 .4-7 .4 3.1.4 7c0 3.8-.4 7-.4 7"/><path clip-path="url(#b)" stroke="#fff" stroke-miterlimit="10" d="M155.5 96.2s-.4-3.1-.4-7 .4-7 .4-7 .4 3.1.4 7c0 3.8-.4 7-.4 7z" fill="none"/><path clip-path="url(#b)" fill="#fff" d="M158 64.1s-.2 2.1-.5 6.8c0 2.2-.5 5.9-1 10.4v.1c-.1.1-.4.5-.7.9-2.7 3.2-6.9 8.1-11.6 13.5l-.1.1h-8.7l-.1-.1c-1.3-1.5-2.5-3-3.7-4.4l-1.8-2.1-.9-1-.9-.9c-2.4-2.4-4.6-4.4-6.3-6.3v-.2c-.2-5.3-.4-9.5-.5-12.4 0-1.4 0-2.6.1-3.3 0-.4.1-.7.1-.8v0c0 .2-.1.5-.1.9-.1.7 0 1.9.1 3.3.2 2.9.5 7.1.8 12.4v-.1c1.7 1.8 4 3.8 6.4 6.2l.9.9.9 1 1.8 2.1c1.2 1.4 2.5 2.9 3.8 4.4l-.3-.1h8.3c-.1.1-.2.1-.3.1 4.7-5.4 9-10.2 11.8-13.3.3-.4.6-.8.7-.9v.1c.7-4.5 1.2-8.1 1.3-10.3.3-4.8.5-7 .5-7"/><path clip-path="url(#b)" stroke="#fff" stroke-miterlimit="10" d="M158 64.1s-.2 2.1-.5 6.8c0 2.2-.5 5.9-1 10.4v.1c-.1.1-.4.5-.7.9-2.7 3.2-6.9 8.1-11.6 13.5l-.1.1h-8.7l-.1-.1c-1.3-1.5-2.5-3-3.7-4.4l-1.8-2.1-.9-1-.9-.9c-2.4-2.4-4.6-4.4-6.3-6.3v-.2c-.2-5.3-.4-9.5-.5-12.4 0-1.4 0-2.6.1-3.3 0-.4.1-.7.1-.8v0c0 .2-.1.5-.1.9-.1.7 0 1.9.1 3.3.2 2.9.5 7.1.8 12.4v-.1c1.7 1.8 4 3.8 6.4 6.2l.9.9.9 1 1.8 2.1c1.2 1.4 2.5 2.9 3.8 4.4l-.3-.1h8.3c-.1.1-.2.1-.3.1 4.7-5.4 9-10.2 11.8-13.3.3-.4.6-.8.7-.9v.1c.7-4.5 1.2-8.1 1.3-10.3.3-4.8.5-7 .5-7z" fill="none"/><path clip-path="url(#b)" fill="#fff" d="M137.7 71.9s-.2-4-.3-9.9c0 0 .1.2.1.3-.6-.5-1.7-1.3-2.7-2.1-1.5-1.1-2.8-2.2-4.1-3.1-.6-.5-1.2-.9-1.8-1.3-.3-.2-.6-.4-.8-.5l-.2-.1h-.2s-.2.1-.3.2c-.9.8-1.5 1.6-1.9 2.1-.4.5-.7.8-.7.8l.6-.9c.4-.6.9-1.4 1.8-2.3.1-.1.2-.2.5-.3h.30000000000000004c.1 0 .2 0 .2.1.4.1.7.3 1 .5l1.9 1.2c1.3.9 2.8 1.9 4.2 3 1.1.8 2.1 1.6 2.7 2.1l.1.1v.2c-.2 6-.4 9.9-.4 9.9"/><path clip-path="url(#b)" stroke="#fff" stroke-miterlimit="10" d="M137.7 71.9s-.2-4-.3-9.9c0 0 .1.2.1.3-.6-.5-1.7-1.3-2.7-2.1-1.5-1.1-2.8-2.2-4.1-3.1-.6-.5-1.2-.9-1.8-1.3-.3-.2-.6-.4-.8-.5l-.2-.1h-.2s-.2.1-.3.2c-.9.8-1.5 1.6-1.9 2.1-.4.5-.7.8-.7.8l.6-.9c.4-.6.9-1.4 1.8-2.3.1-.1.2-.2.5-.3h.30000000000000004c.1 0 .2 0 .2.1.4.1.7.3 1 .5l1.9 1.2c1.3.9 2.8 1.9 4.2 3 1.1.8 2.1 1.6 2.7 2.1l.1.1v.2c-.2 6-.4 9.9-.4 9.9z" fill="none"/><path clip-path="url(#b)" fill="#fff" d="M143.6 85.1c1.7-1.6 1.7-5.8 1.7-7h-10.5c-.2 1.7 0 4.7 1.6 7h7.2z"/><path clip-path="url(#b)" stroke="#fff" stroke-miterlimit="10" d="M143.6 85.1c1.7-1.6 1.7-5.8 1.7-7h-10.5c-.2 1.7 0 4.7 1.6 7h7.2z" fill="none"/><path clip-path="url(#b)" fill="#fff" d="M137.7 74.8s.1.1.4.2l.4.2c.2.1.4.1.6.1.5.1 1.1.1 1.7-.1.6-.2 1.3-.7 1.6-1.4v.1c-.1-2.7-.2-6.6-.2-10.8v-1.1l.2-.1c4.4-2.6 8.2-4.7 10.2-5.8l.1-.1.1.1c1.6 2.2 2.3 3.2 2.3 3.2s-.8-.9-2.6-3h.2c-1.9 1.2-5.6 3.6-10 6.2l.2-.3v.8c0 4.2-.1 8.1-.2 10.8-.4.9-1.2 1.3-1.9 1.6-.7.2-1.3.2-1.8 0-.2-.1-.5-.1-.6-.2-.2-.1-.3-.2-.4-.2-.2-.1-.3-.2-.3-.2"/><path clip-path="url(#b)" stroke="#fff" stroke-miterlimit="10" d="M137.7 74.8s.1.1.4.2l.4.2c.2.1.4.1.6.1.5.1 1.1.1 1.7-.1.6-.2 1.3-.7 1.6-1.4v.1c-.1-2.7-.2-6.6-.2-10.8v-1.1l.2-.1c4.4-2.6 8.2-4.7 10.2-5.8l.1-.1.1.1c1.6 2.2 2.3 3.2 2.3 3.2s-.8-.9-2.6-3h.2c-1.9 1.2-5.6 3.6-10 6.2l.2-.3v.8c0 4.2-.1 8.1-.2 10.8-.4.9-1.2 1.3-1.9 1.6-.7.2-1.3.2-1.8 0-.2-.1-.5-.1-.6-.2-.2-.1-.3-.2-.4-.2-.2-.1-.3-.2-.3-.2z" fill="none"/><path clip-path="url(#b)" fill="#fff" d="M136.8 74.4l-.1.1c-.1.1-.2.2-.4.3-.2.1-.5.2-.8.2-.4 0-.7-.4-.8-.8-.2-.8 0-1.3.2-1.7.2-.4.4-.6.4-.6s-.1 1.1.2 2.1c.1.2.2.3.3.4.2.1.4.1.6.1.2 0 .4 0 .5-.1h-.1"/><path clip-path="url(#b)" stroke="#fff" stroke-miterlimit="10" d="M136.8 74.4l-.1.1c-.1.1-.2.2-.4.3-.2.1-.5.2-.8.2-.4 0-.7-.4-.8-.8-.2-.8 0-1.3.2-1.7.2-.4.4-.6.4-.6s-.1 1.1.2 2.1c.1.2.2.3.3.4.2.1.4.1.6.1.2 0 .4 0 .5-.1h-.1z" fill="none"/><path clip-path="url(#b)" fill="#fff" d="M136.4 85.1l-6.2-7h4.5c-.1 1.7.1 4.7 1.7 7"/><path clip-path="url(#b)" stroke="#fff" stroke-miterlimit="10" d="M136.4 85.1l-6.2-7h4.5c-.1 1.7.1 4.7 1.7 7z" fill="none"/><path clip-path="url(#b)" fill="#fff" d="M145.3 78.1h3.9l-5.6 7c1.7-1.6 1.7-5.8 1.7-7"/><path clip-path="url(#b)" stroke="#fff" stroke-miterlimit="10" d="M145.3 78.1h3.9l-5.6 7c1.7-1.6 1.7-5.8 1.7-7z" fill="none"/><path clip-path="url(#b)" fill="#fff" d="M142.6 73.8s.1 0 .2.1.3.2.6.2c.2.1.5.1.7.1.1 0 .2-.3.1-.7 0-.7-.2-1.4-.4-1.8-.1-.2-.2-.4-.2-.6-.1-.1-.1-.2-.1-.2s.1.1.2.1c.1.1.3.2.5.4.4.4.8 1.1.8 2 0 .2 0 .5-.1.7-.1.2-.3.5-.6.6-.1.1-.3 0-.4 0-.1 0-.2 0-.3-.1-.2-.1-.3-.2-.4-.3-.2-.2-.4-.3-.5-.5h-.1"/><path clip-path="url(#b)" stroke="#fff" stroke-miterlimit="10" d="M142.6 73.8s.1 0 .2.1.3.2.6.2c.2.1.5.1.7.1.1 0 .2-.3.1-.7 0-.7-.2-1.4-.4-1.8-.1-.2-.2-.4-.2-.6-.1-.1-.1-.2-.1-.2s.1.1.2.1c.1.1.3.2.5.4.4.4.8 1.1.8 2 0 .2 0 .5-.1.7-.1.2-.3.5-.6.6-.1.1-.3 0-.4 0-.1 0-.2 0-.3-.1-.2-.1-.3-.2-.4-.3-.2-.2-.4-.3-.5-.5h-.1z" fill="none"/><path clip-path="url(#b)" fill="#fff" d="M130.3 78.1s2.2 2.4 6.3 6.8c0 0-.1 0-.2-.1 1.5 0 4.2-.1 7.1-.1 0 0-.2.1-.3.1.8-1 2.2-2.7 3.5-4.5l2-2.5c.1.3.2.4.3.6-10.8 0-18.7-.3-18.7-.3s8-.3 18.9-.4h.7l-.5.6c-.5.6-1.2 1.5-2 2.5-1.4 1.7-2.8 3.4-3.6 4.4l-.1.1h-.2c-2.9 0-5.6-.1-7.1-.1h-.1l-.1-.1c-3.9-4.5-5.9-7-5.9-7"/><path clip-path="url(#b)" stroke="#fff" stroke-miterlimit="10" d="M130.3 78.1s2.2 2.4 6.3 6.8c0 0-.1 0-.2-.1 1.5 0 4.2-.1 7.1-.1 0 0-.2.1-.3.1.8-1 2.2-2.7 3.5-4.5l2-2.5c.1.3.2.4.3.6-10.8 0-18.7-.3-18.7-.3s8-.3 18.9-.4h.7l-.5.6c-.5.6-1.2 1.5-2 2.5-1.4 1.7-2.8 3.4-3.6 4.4l-.1.1h-.2c-2.9 0-5.6-.1-7.1-.1h-.1l-.1-.1c-3.9-4.5-5.9-7-5.9-7z" fill="none"/><path clip-path="url(#b)" fill="#fff" d="M151.2 79.8s0-.3-.1-.7c-.1-.4-.2-.9-.4-1.5-.1-.6-.2-1.2-.3-1.5-.1-.4-.2-.7-.2-.7s.3.1.5.5c.3.4.6.9.7 1.6.1.6.1 1.3 0 1.7 0 .4-.2.6-.2.6"/><path clip-path="url(#b)" stroke="#fff" stroke-miterlimit="10" d="M151.2 79.8s0-.3-.1-.7c-.1-.4-.2-.9-.4-1.5-.1-.6-.2-1.2-.3-1.5-.1-.4-.2-.7-.2-.7s.3.1.5.5c.3.4.6.9.7 1.6.1.6.1 1.3 0 1.7 0 .4-.2.6-.2.6z" fill="none"/><path clip-path="url(#b)" fill="#fff" d="M128 81.6s-.3-.3-.6-.7c-.2-.3-.3-.6-.5-1-.1-.4-.2-.9-.2-1.3 0-1 .3-1.8.7-2.3.2-.3.3-.5.5-.6l.2-.2s0 .1-.1.2c-.1.2-.2.4-.2.7-.1.5-.3 1.3-.3 2.2l.1 1.2c.1.4.1.7.2 1l.2.8"/><path clip-path="url(#b)" stroke="#fff" stroke-miterlimit="10" d="M128 81.6s-.3-.3-.6-.7c-.2-.3-.3-.6-.5-1-.1-.4-.2-.9-.2-1.3 0-1 .3-1.8.7-2.3.2-.3.3-.5.5-.6l.2-.2s0 .1-.1.2c-.1.2-.2.4-.2.7-.1.5-.3 1.3-.3 2.2l.1 1.2c.1.4.1.7.2 1l.2.8z" fill="none"/><path clip-path="url(#b)" fill="#fff" d="M152.8 65.1v-.5c0-.1 0-.3-.1-.5-.1-.1-.3-.3-.5-.4-.4-.3-.9-.7-1.5-1.1-.2-.1-.5-.1-.9-.1h-3.6c-.6.3-1.1.7-1.5 1v-.1c-.1 1.1-.2 1.6-.2 1.6s-.1-.6-.2-1.6v-.1l.1-.1c.4-.4.8-.9 1.5-1.3.1-.1.2-.1.4-.1h.8999999999999999c.4 0 .8 0 1.3-.1h1.7999999999999998c.2 0 .5.1.7.2.6.4 1 1 1.4 1.4l.5.6v.6c-.1.5-.1.6-.1.6"/><path clip-path="url(#b)" stroke="#fff" stroke-miterlimit="10" d="M152.8 65.1v-.5c0-.1 0-.3-.1-.5-.1-.1-.3-.3-.5-.4-.4-.3-.9-.7-1.5-1.1-.2-.1-.5-.1-.9-.1h-3.6c-.6.3-1.1.7-1.5 1v-.1c-.1 1.1-.2 1.6-.2 1.6s-.1-.6-.2-1.6v-.1l.1-.1c.4-.4.8-.9 1.5-1.3.1-.1.2-.1.4-.1h.8999999999999999c.4 0 .8 0 1.3-.1h1.7999999999999998c.2 0 .5.1.7.2.6.4 1 1 1.4 1.4l.5.6v.6c-.1.5-.1.6-.1.6z" fill="none"/><path clip-path="url(#b)" fill="#fff" d="M150.7 62.3v.5c0 .3 0 .8-.3 1.4-.1.1-.2.3-.2.4-.1.1-.2.3-.4.4-.3.2-.8.4-1.1.5h-.6c-.2 0-.4-.1-.7-.2-.5-.2-.9-.5-1.1-1-.4-.8-.4-1.6-.3-2.1v-.3h.3c2.7 0 4.5.3 4.4.4 0-.1-1.7.1-4.4.3l.3-.3c0 .4 0 1.1.3 1.7.3.7 1.1.9 1.7.9.4 0 .6-.1.9-.3l.3-.3.3-.3c.3-.5.4-.9.5-1.2.1-.4.1-.5.1-.5"/><path clip-path="url(#b)" stroke="#fff" stroke-miterlimit="10" d="M150.7 62.3v.5c0 .3 0 .8-.3 1.4-.1.1-.2.3-.2.4-.1.1-.2.3-.4.4-.3.2-.8.4-1.1.5h-.6c-.2 0-.4-.1-.7-.2-.5-.2-.9-.5-1.1-1-.4-.8-.4-1.6-.3-2.1v-.3h.3c2.7 0 4.5.3 4.4.4 0-.1-1.7.1-4.4.3l.3-.3c0 .4 0 1.1.3 1.7.3.7 1.1.9 1.7.9.4 0 .6-.1.9-.3l.3-.3.3-.3c.3-.5.4-.9.5-1.2.1-.4.1-.5.1-.5z" fill="none"/><path clip-path="url(#b)" fill="#fff" d="M127.3 65.1s0-.2-.1-.5v-.6c.1-.2.3-.4.5-.6.4-.4.8-.9 1.4-1.4.2-.2.5-.2.7-.2h1.7999999999999998c.4 0 .9 0 1.3.1h.8999999999999999l.4.1c.7.4 1.1.9 1.5 1.3l.1.1v.1c-.1 1.1-.2 1.6-.2 1.6s-.1-.6-.2-1.6c0 0 0 .1.1.1-.4-.3-.9-.7-1.5-1h-3.6000000000000005c-.4 0-.8 0-.9.1-.6.4-1 .8-1.5 1.1-.2.2-.4.3-.5.4-.1.2-.1.4-.1.5-.1.3-.1.4-.1.4"/><path clip-path="url(#b)" stroke="#fff" stroke-miterlimit="10" d="M127.3 65.1s0-.2-.1-.5v-.6c.1-.2.3-.4.5-.6.4-.4.8-.9 1.4-1.4.2-.2.5-.2.7-.2h1.7999999999999998c.4 0 .9 0 1.3.1h.8999999999999999l.4.1c.7.4 1.1.9 1.5 1.3l.1.1v.1c-.1 1.1-.2 1.6-.2 1.6s-.1-.6-.2-1.6c0 0 0 .1.1.1-.4-.3-.9-.7-1.5-1h-3.6000000000000005c-.4 0-.8 0-.9.1-.6.4-1 .8-1.5 1.1-.2.2-.4.3-.5.4-.1.2-.1.4-.1.5-.1.3-.1.4-.1.4z" fill="none"/><path clip-path="url(#b)" fill="#fff" d="M159.4 33l.2.2c.2.2.4.4.7.8.5.8 1.2 2 1.7 3.9s.8 4.2.8 7.2c0 1.5 0 3.1-.2 4.8l-.3 2.7c-.1.9-.2 1.9-.6 2.9l-.2.6-.1-.6c-.1-.4-.4-1-1-1.4-.2-.1-.3-.2-.5-.2s-.3 0-.3.1c0 .4-.1.9-.1 1.4-.2 2-.4 4.4-.7 6.9v.2h-1.7v-.2c0-1.1 0-3.8.1-6.7v.1c-.3-.7-1.1-2.3-1.9-4l-.1-.1.1-.1s.1-.2.1-.3c.5-1.7 1.1-3.6 1.7-5.6.8-2 0-4.4-1.8-6-.9-.8-2-1.4-3.2-1.9-.6-.2-1.2-.4-1.9-.4-.7-.1-1.3-.1-1.9 0-1.3.2-2.6.6-4 1-1.3.4-2.8.9-4.3.8h-.8c-1.4-.1-2.6-.6-3.8-1-1.2-.4-2.4-.8-3.6-.9h-.9l-.9.1c-.6.1-1.2.2-1.8.4-1.1.4-2.2.9-3.1 1.7-.9.7-1.7 1.6-2 2.6-.4 1-.5 2.1-.2 3.1.6 2.1 1.3 4.2 1.9 6.1v.1l-.1.1c-.7 1.5-1.3 2.7-1.9 3.8v-.1c.1 2.8.1 5 .2 7.1v.3h-2.4v-.3c.2-1.7 0-3.2 0-4.6-.1-1.4-.2-2.7-.3-3.9l.2.2c-.8-.2-1.5-.1-2.1.3-.5.3-.9.8-1.1 1.3l-.2.4-.1-.4c-.3-1-.3-1.8-.4-2.7-.1-.9-.1-1.7-.1-2.5 0-1.6 0-3.2.1-4.6.2-2.9.6-5.3 1.1-7.2.5-1.9 1.2-3.4 1.9-4.2.3-.4.6-.7.8-.9l.3-.3-.3.3c-.2.2-.4.5-.7.9-.6.9-1.3 2.3-1.8 4.2-.5 1.9-.9 4.4-1 7.2-.1 1.4-.1 2.9 0 4.6 0 .8.1 1.6.2 2.5.1.8.1 1.8.4 2.5h-.3c.3-.6.6-1.1 1.2-1.5.6-.4 1.5-.6 2.4-.4h.2v.2c.1 1.2.2 2.5.3 3.9.1 1.4.3 2.9.1 4.8-.1-.1-.1-.2-.3-.3h1.8l-.3.3c-.1-2.1-.2-4.3-.3-7.1v-.2c.5-1.1 1.1-2.3 1.8-3.8v.2c-.6-1.9-1.3-4-1.9-6.1-.4-1.2-.2-2.4.2-3.6.4-1.2 1.3-2.1 2.2-2.9 1-.8 2.1-1.4 3.3-1.8.6-.2 1.2-.3 1.9-.4.3-.1.6-.1 1-.1h1c2.6.2 5 1.6 7.4 1.9h.8c1.3.1 2.7-.4 4-.8 1.3-.4 2.7-.9 4.1-1.1.7-.1 1.4-.1 2.1.1.7.1 1.4.3 2 .5 1.3.4 2.5 1.1 3.4 2 2 1.7 2.9 4.6 2 6.7-.6 2.1-1.2 4-1.8 5.6-.1.1-.1.2-.1.3v-.3c.8 1.7 1.6 3.3 1.9 4v.2c-.1 2.8-.1 5.6-.2 6.7l-.2-.2h1.3l-.2.2c.3-2.5.5-4.9.7-6.9 0-.5.1-1 .1-1.4 0-.2.2-.4.3-.4h.4c.2 0 .4.1.6.3.7.5 1.1 1.1 1.1 1.7h-.3c.3-.9.4-1.9.6-2.8l.3-2.7c.2-1.7.2-3.3.2-4.8 0-2.9-.3-5.3-.7-7.2-.4-1.8-1.1-3.1-1.6-3.9-.3-.4-.5-.6-.6-.8.1-.3 0-.4 0-.4"/><path clip-path="url(#b)" stroke="#fff" stroke-miterlimit="10" d="M159.4 33l.2.2c.2.2.4.4.7.8.5.8 1.2 2 1.7 3.9s.8 4.2.8 7.2c0 1.5 0 3.1-.2 4.8l-.3 2.7c-.1.9-.2 1.9-.6 2.9l-.2.6-.1-.6c-.1-.4-.4-1-1-1.4-.2-.1-.3-.2-.5-.2s-.3 0-.3.1c0 .4-.1.9-.1 1.4-.2 2-.4 4.4-.7 6.9v.2h-1.7v-.2c0-1.1 0-3.8.1-6.7v.1c-.3-.7-1.1-2.3-1.9-4l-.1-.1.1-.1s.1-.2.1-.3c.5-1.7 1.1-3.6 1.7-5.6.8-2 0-4.4-1.8-6-.9-.8-2-1.4-3.2-1.9-.6-.2-1.2-.4-1.9-.4-.7-.1-1.3-.1-1.9 0-1.3.2-2.6.6-4 1-1.3.4-2.8.9-4.3.8h-.8c-1.4-.1-2.6-.6-3.8-1-1.2-.4-2.4-.8-3.6-.9h-.9l-.9.1c-.6.1-1.2.2-1.8.4-1.1.4-2.2.9-3.1 1.7-.9.7-1.7 1.6-2 2.6-.4 1-.5 2.1-.2 3.1.6 2.1 1.3 4.2 1.9 6.1v.1l-.1.1c-.7 1.5-1.3 2.7-1.9 3.8v-.1c.1 2.8.1 5 .2 7.1v.3h-2.4v-.3c.2-1.7 0-3.2 0-4.6-.1-1.4-.2-2.7-.3-3.9l.2.2c-.8-.2-1.5-.1-2.1.3-.5.3-.9.8-1.1 1.3l-.2.4-.1-.4c-.3-1-.3-1.8-.4-2.7-.1-.9-.1-1.7-.1-2.5 0-1.6 0-3.2.1-4.6.2-2.9.6-5.3 1.1-7.2.5-1.9 1.2-3.4 1.9-4.2.3-.4.6-.7.8-.9l.3-.3-.3.3c-.2.2-.4.5-.7.9-.6.9-1.3 2.3-1.8 4.2-.5 1.9-.9 4.4-1 7.2-.1 1.4-.1 2.9 0 4.6 0 .8.1 1.6.2 2.5.1.8.1 1.8.4 2.5h-.3c.3-.6.6-1.1 1.2-1.5.6-.4 1.5-.6 2.4-.4h.2v.2c.1 1.2.2 2.5.3 3.9.1 1.4.3 2.9.1 4.8-.1-.1-.1-.2-.3-.3h1.8l-.3.3c-.1-2.1-.2-4.3-.3-7.1v-.2c.5-1.1 1.1-2.3 1.8-3.8v.2c-.6-1.9-1.3-4-1.9-6.1-.4-1.2-.2-2.4.2-3.6.4-1.2 1.3-2.1 2.2-2.9 1-.8 2.1-1.4 3.3-1.8.6-.2 1.2-.3 1.9-.4.3-.1.6-.1 1-.1h1c2.6.2 5 1.6 7.4 1.9h.8c1.3.1 2.7-.4 4-.8 1.3-.4 2.7-.9 4.1-1.1.7-.1 1.4-.1 2.1.1.7.1 1.4.3 2 .5 1.3.4 2.5 1.1 3.4 2 2 1.7 2.9 4.6 2 6.7-.6 2.1-1.2 4-1.8 5.6-.1.1-.1.2-.1.3v-.3c.8 1.7 1.6 3.3 1.9 4v.2c-.1 2.8-.1 5.6-.2 6.7l-.2-.2h1.3l-.2.2c.3-2.5.5-4.9.7-6.9 0-.5.1-1 .1-1.4 0-.2.2-.4.3-.4h.4c.2 0 .4.1.6.3.7.5 1.1 1.1 1.1 1.7h-.3c.3-.9.4-1.9.6-2.8l.3-2.7c.2-1.7.2-3.3.2-4.8 0-2.9-.3-5.3-.7-7.2-.4-1.8-1.1-3.1-1.6-3.9-.3-.4-.5-.6-.6-.8.1-.3 0-.4 0-.4z" fill="none"/><path clip-path="url(#b)" fill="#fff" d="M157.3 70.9h.7c.4-.1 1.1-.3 1.6-.8.1-.1.3-.3.4-.5.1-.2.2-.4.4-.6.2-.4.5-.9.6-1.3.2-1 .3-2.2.4-3.4.2-2.5.3-4.7.3-6.3v-2.5999999999999996s.1.2.2.7c.1.4.2 1.1.3 1.9.2 1.6.2 3.9 0 6.4-.1 1.2-.2 2.4-.5 3.5-.1.6-.5 1-.7 1.4l-.4.6-.5.5c-.7.6-1.4.7-1.8.7-.7-.2-1-.2-1-.2"/><path clip-path="url(#b)" stroke="#fff" stroke-miterlimit="10" d="M157.3 70.9h.7c.4-.1 1.1-.3 1.6-.8.1-.1.3-.3.4-.5.1-.2.2-.4.4-.6.2-.4.5-.9.6-1.3.2-1 .3-2.2.4-3.4.2-2.5.3-4.7.3-6.3v-2.5999999999999996s.1.2.2.7c.1.4.2 1.1.3 1.9.2 1.6.2 3.9 0 6.4-.1 1.2-.2 2.4-.5 3.5-.1.6-.5 1-.7 1.4l-.4.6-.5.5c-.7.6-1.4.7-1.8.7-.7-.2-1-.2-1-.2z" fill="none"/><path clip-path="url(#b)" fill="#fff" d="M117.2 55.3v.2c0 .1-.1.3-.1.5-.1.5-.1 1.1-.1 1.9 0 1.6.1 3.9.2 6.4.1 1.2.1 2.5.3 3.5.1 1 .9 1.7 1.5 2.1 1.4.9 2.5.9 2.4.8 0 .1-1.1.3-2.6-.5-.4-.2-.8-.5-1.1-.8-.4-.3-.7-.9-.8-1.5-.2-1.1-.3-2.3-.4-3.6-.1-2.5-.1-4.9.1-6.5.1-.8.2-1.5.4-1.9.1-.2.1-.4.2-.5v-.1"/><path clip-path="url(#b)" stroke="#fff" stroke-miterlimit="10" d="M117.2 55.3v.2c0 .1-.1.3-.1.5-.1.5-.1 1.1-.1 1.9 0 1.6.1 3.9.2 6.4.1 1.2.1 2.5.3 3.5.1 1 .9 1.7 1.5 2.1 1.4.9 2.5.9 2.4.8 0 .1-1.1.3-2.6-.5-.4-.2-.8-.5-1.1-.8-.4-.3-.7-.9-.8-1.5-.2-1.1-.3-2.3-.4-3.6-.1-2.5-.1-4.9.1-6.5.1-.8.2-1.5.4-1.9.1-.2.1-.4.2-.5v-.1z" fill="none"/><path clip-path="url(#b)" fill="#fff" d="M155.5 87.4s-2.1 2.7-5 5.6c-2.9 3-5.5 5.1-5.5 5.1s2.1-2.7 5-5.6c2.9-3 5.5-5.1 5.5-5.1"/><path clip-path="url(#b)" stroke="#fff" stroke-miterlimit="10" d="M155.5 87.4s-2.1 2.7-5 5.6c-2.9 3-5.5 5.1-5.5 5.1s2.1-2.7 5-5.6c2.9-3 5.5-5.1 5.5-5.1z" fill="none"/><path clip-path="url(#b)" fill="#fff" d="M129.6 97.2s-2-2-4.2-4.7c-2.1-2.7-3.6-5.2-3.6-5.2s2 2 4.2 4.7c2.2 2.8 3.6 5.2 3.6 5.2"/><path clip-path="url(#b)" stroke="#fff" stroke-miterlimit="10" d="M129.6 97.2s-2-2-4.2-4.7c-2.1-2.7-3.6-5.2-3.6-5.2s2 2 4.2 4.7c2.2 2.8 3.6 5.2 3.6 5.2z" fill="none"/><rect x="139.6" y="108.2" transform="matrix(.997 .072 -.072 .997 8.412 -9.823)" clip-path="url(#b)" fill="#fff" width=".2" height="5.9"/><rect x="139.6" y="108.2" transform="matrix(.997 .072 -.072 .997 8.412 -9.823)" clip-path="url(#b)" stroke="#fff" stroke-miterlimit="10" width=".2" height="5.9" fill="none"/><rect x="134" y="107.6" clip-path="url(#b)" fill="#fff" width=".2" height="6.5"/><rect x="134" y="107.6" clip-path="url(#b)" stroke="#fff" stroke-miterlimit="10" width=".2" height="6.5" fill="none"/><path clip-path="url(#b)" fill="#fff" d="M137.7 62.1s-.8-.4-2.2-1.2c-1.3-.8-3.1-1.9-4.9-3.2-.9-.6-1.8-1.3-2.6-1.8l-.2-.1-.2-.1h0c-.1 0-.2.1-.2.2l-.9.8c-1.1 1-1.8 1.7-1.8 1.7s.4-.9 1.2-2.2c.2-.3.4-.7.7-1.1l.3-.3.2-.2.1-.1.3-.1h.5c.1 0 .3.1.5.2 1.1.5 1.9 1 2.9 1.7 1.9 1.3 3.5 2.8 4.5 3.8 1.1 1.2 1.8 2 1.8 2"/><path clip-path="url(#b)" stroke="#fff" stroke-miterlimit="10" d="M137.7 62.1s-.8-.4-2.2-1.2c-1.3-.8-3.1-1.9-4.9-3.2-.9-.6-1.8-1.3-2.6-1.8l-.2-.1-.2-.1h0c-.1 0-.2.1-.2.2l-.9.8c-1.1 1-1.8 1.7-1.8 1.7s.4-.9 1.2-2.2c.2-.3.4-.7.7-1.1l.3-.3.2-.2.1-.1.3-.1h.5c.1 0 .3.1.5.2 1.1.5 1.9 1 2.9 1.7 1.9 1.3 3.5 2.8 4.5 3.8 1.1 1.2 1.8 2 1.8 2z" fill="none"/><path clip-path="url(#b)" fill="#fff" d="M142.6 62.1s2.6-2.4 6.4-4.6c1.3-.8 2.6-1.4 3.5-1.8l.5-.2.2.3c1.4 2.1 2 3.4 2 3.4s-1.2-1-2.9-2.8c.2 0 .4.1.7.1-.8.6-1.9 1.4-3.2 2.2-3.8 2.2-7.2 3.4-7.2 3.4"/><path clip-path="url(#b)" stroke="#fff" stroke-miterlimit="10" d="M142.6 62.1s2.6-2.4 6.4-4.6c1.3-.8 2.6-1.4 3.5-1.8l.5-.2.2.3c1.4 2.1 2 3.4 2 3.4s-1.2-1-2.9-2.8c.2 0 .4.1.7.1-.8.6-1.9 1.4-3.2 2.2-3.8 2.2-7.2 3.4-7.2 3.4z" fill="none"/><path clip-path="url(#b)" fill="#fff" d="M122.5 83.7l.1-3.1c-.2-3.8-.5-10.1-.5-10.1-.7.3-3.8-.8-4.2-2.6-.5-1.8-.9-10.9 0-12.9l-.1-.2c-.6-2.3-1.5-17.5 3.5-22.1 5.2-4.8 7.6-5.2 18.1-4.3h2.5c10.6-.9 12.9-.5 18.1 4.3 5.1 4.7 2.9 20.7 2.2 22.3l.1.8c.5 1.9 0 10.9-.6 12.1-.6 1.2-1.6 3-3.8 2.7.2 1.4-1.2 10.3-1.2 10.3l-.7.9v6.199999999999999l-18.5 19.8-15.2-19.7.2-4.4z"/><path clip-path="url(#b)" fill="#231F20" d="M162.3 54.9c.7-1.6 2.9-17.6-2.2-22.3-5.2-4.8-7.6-5.2-18.1-4.3h-2.5c-10.6-.9-13-.5-18.1 4.3-5 4.6-4.1 19.8-3.5 22.1l.1.2c.4-.8 1.4-2.2 3.4-1.8 0 .9.7 6.4.4 8.6h1.8s-.2-4.1-.2-7.1l1.9-3.8s-1.4-4.4-1.9-6.3c-.5-1.9.5-3.8.5-3.8s2-3.9 7.7-4.4c3.4-.1 6.4 2.2 9.3 1.9h.1c2.9.2 5.9-2 9.3-1.9 5.7.5 7.7 4.4 7.7 4.4s1.1 1.9.5 3.8c-.5 1.9-1.9 6.3-1.9 6.3l-.1.3 1.9 4-.1 6.7h1.3s.8-7.5.8-8.3c-.2-.7 1.7 0 1.9 1.4"/><path clip-path="url(#b)" d="M147.5 27.9c5.2 0 7.5 1.2 11.4 4.7 5.1 4.7 2.9 20.7 2.2 22.3l.1.8c.5 1.9 0 10.9-.6 12.1-.6 1.1-1.5 2.7-3.3 2.7h-.5c.2 1.4-1.2 10.3-1.2 10.3l-.7.9v2.9h1.6l4.9 5.7c9.4 3.4 29.4 14 29.4 14l8.5 26.5h-125.80000000000001l13.2-29.6 32.7-15.7 1.9-2 .1-3.1c-.2-3.8-.5-10.1-.5-10.1l-.3.1c-1 0-3.5-1-3.9-2.7-.5-1.8-.9-10.9 0-12.9l-.1-.2c-.6-2.3-1.5-17.5 3.5-22.1 3.8-3.5 6.1-4.7 11.3-4.7 1.8 0 4 .1 6.8.4h2.5c2.8-.1 5-.3 6.8-.3m0-1c-1.7 0-3.7.1-6.8.4h-2.4c-3.1-.3-5.2-.4-6.8-.4-5.7 0-8.2 1.5-12 5-5.3 4.9-4.5 20.3-3.8 23.1-.9 2.9-.3 11.5.1 13.2.5 1.9 2.8 3.1 4.2 3.4.1 1.9.4 6.2.5 9.1l-.1 2.7-1.5 1.6-32.5 15.6-.2.1-.1.1-13.2 29.6-1.5 1.7h130.00000000000003l-1.1-1.6-8.5-26.5-.1-.2-.2-.1c-.8-.4-19.8-10.6-29.3-14l-4.8-5.5-.3-.3h-1.1v-1.6l.5-.7.1-.2v-.2c.2-1.3 1-6.9 1.2-9.5 2.2-.3 3.2-2.3 3.7-3.2.8-1.6 1.2-10.7.7-12.7l-.1-.6c.7-2.7 2.8-18.1-2.6-23.1-3.8-3.7-6.3-5.2-12-5.2"/><polygon clip-path="url(#b)" fill="#231F20" points="73.6,131 86.8,101.4 121.5,84.7 118.9,131"/><path clip-path="url(#b)" fill="#fff" d="M121.5 84.7l-2.7 46.2h-45.2l13.3-29.6 34.6-16.6zm.3-.4l-.4.2-34.7 16.6-13.2 29.6-.4.4h46.1v-.2l2.7-46.2-.1-.4z"/><path clip-path="url(#b)" fill="#231F20" d="M158.1 89.5l-7 41.5h48.4l-8.5-26.5s-26.5-14.2-32.9-15"/><path clip-path="url(#b)" fill="#fff" d="M158.1 89.5c6.4.8 32.9 15 32.9 15l8.5 26.5h-48.4l7-41.5m-.2-.3v.2l-7 41.5-.1.3h49.199999999999996l-.3-.4-8.5-26.5c-1.1-.6-26.6-14.2-33-15l-.3-.1z"/><polygon clip-path="url(#b)" fill="#fff" points="115,131 120.1,95.3 120.6,91.9 121.3,87 129.1,96.9 136.3,106.1 144.6,97.7 155,87 155,93 155,95.8 152.8,131"/><polygon clip-path="url(#b)" fill="#231F20" points="118.9,131 121.5,83.5 98.9,107.9 106.7,131"/><path clip-path="url(#b)" fill="#fff" d="M121.5 83.5l-2.7 47.5h-12.1l-7.8-23.1 22.6-24.4zm.3-.7l-.5.5-22.6 24.4-.1.1v.1l7.8 23.1.1.2h12.499999999999998v-.2l2.7-47.5.1-.7z"/><polygon clip-path="url(#b)" fill="#231F20" points="155,84.7 155,95.8 151.1,131 160.8,131 175.2,106.1 156.7,84.7"/><path clip-path="url(#b)" fill="#fff" d="M156.7 84.7l18.5 21.4-14.4 24.9h-9.7l3.9-35.1v-11.2h1.7zm.1-.2h-2v11.299999999999999l-3.9 35.1v.3h10.1l.1-.1 14.4-24.9.1-.2-.1-.1-18.7-21.4z"/><polygon clip-path="url(#b)" fill="#231F20" points="155,95.8 155,93 140.4,107.2 144.4,107.2"/><path clip-path="url(#b)" fill="#231F20" d="M120.1 95.3l.5-3.3c.9 1.2 12.2 15.9 12.2 15.9h-4.1l-8.6-12.6z"/><path clip-path="url(#b)" fill="#231F20" d="M133.7 107.2s-9.7-4.7-12.1-4.8c-1.2 1.6-1.4 14.4 2.1 18.5 1-.2 10.1-7.2 10.1-7.2 1.6 1 4.5.6 5.3 0 0 0 4.1 7 9.9 8.4 1.4-1.4 3.9-16.4 3.7-17.9-.2-1.4-10.7 1.9-13.2 3.6-.1.1-.5-2.5-5.8-.6"/><path clip-path="url(#b)" fill="#231F20" d="M139 113.7c-.8.6-3.7 1-5.3 0v-6.5c5.3-2 5.8.6 5.8.6l-.5 5.9z"/><polygon clip-path="url(#b)" fill="#fff" points="136.3,106.1 129.1,96.9 126.5,112.3"/><path clip-path="url(#b)" fill="#231F20" d="M136.3 106.1s-3.7 2.5-9.7 6.4l-.5.4.1-.7c.3-1.9.7-4.7 1.2-7.8.5-3 1-5.8 1.4-7.6l.1-.7.4.5c4.4 5.9 7 9.5 7 9.5s-2.9-3.4-7.5-9c.1 0 .3-.1.5-.1-.3 1.8-.7 4.7-1.2 7.7s-1 5.9-1.4 7.7c-.2-.1-.4-.3-.4-.3 6.2-3.8 10-6 10-6"/><polygon clip-path="url(#b)" fill="#fff" points="144.6,97.7 136.3,106.1 145.5,112.3"/><path clip-path="url(#b)" fill="#231F20" d="M144.6 97.7s.7 5.9 1.3 14.6l.1.7-.6-.4c-.8-.5-2.1-1.4-3.4-2.3-2.3-1.5-4.4-3-5.7-3.9l-.3-.2.3-.3c4.9-5.1 8.3-8.2 8.3-8.2s-3 3.4-8 8.6v-.5c1.4.9 3.6 2.3 5.8 3.8 1.3.9 2.6 1.8 3.4 2.3-.2.1-.4.3-.5.3-.6-8.5-.7-14.5-.7-14.5"/><path clip-path="url(#b)" fill="#231F20" d="M121.5 80.6s.2 1.1.3 2.9c0 1 0 2.5-.1 4-.2 3.8-.8 6.9-.8 6.9s-.2-3.1 0-6.9c.1-1.6.2-3 .4-4 .1-1.8.2-2.9.2-2.9"/><path clip-path="url(#b)" fill="#231F20" d="M155 95.8s-.4-3.1-.4-7 .4-7 .4-7 .4 3.1.4 7-.4 7-.4 7"/><path clip-path="url(#b)" fill="#231F20" d="M157.5 63.8s-.2 2.1-.5 6.8c0 2.2-.5 5.9-1 10.4v.1c-.1.1-.4.5-.7.9-2.7 3.2-6.9 8.1-11.6 13.5l-.1.1h-8.7l-.1-.1c-1.3-1.5-2.5-3-3.7-4.4l-1.8-2.1-.9-1-.9-.9c-2.4-2.4-4.6-4.4-6.3-6.3v-.2c-.2-5.3-.4-9.5-.5-12.4 0-1.4 0-2.6.1-3.3 0-.4.1-.7.1-.8v0c0 .2-.1.5-.1.9-.1.7 0 1.9.1 3.3.2 2.9.5 7.1.8 12.4v-.1c1.7 1.8 4 3.8 6.4 6.2l.9.9.9 1 1.8 2.1c1.2 1.4 2.5 2.9 3.8 4.4l-.3-.1h8.3c-.1.1-.2.1-.3.1 4.7-5.4 9-10.2 11.8-13.3.3-.4.6-.8.7-.9v.1c.7-4.5 1.2-8.1 1.3-10.3.3-4.9.5-7 .5-7"/><path clip-path="url(#b)" fill="#231F20" d="M137.2 71.6s-.2-4-.3-9.9c0 0 .1.2.1.3-.6-.5-1.7-1.3-2.7-2.1-1.5-1.1-2.8-2.2-4.1-3.1-.6-.5-1.2-.9-1.8-1.3-.3-.2-.6-.4-.8-.5l-.2-.1h-.2s-.2.1-.3.2c-.9.8-1.5 1.6-1.9 2.1-.4.5-.7.8-.7.8l.6-.9c.4-.6.9-1.4 1.8-2.3.1-.1.2-.2.5-.3h.30000000000000004c.1 0 .2 0 .2.1.4.1.7.3 1 .5l1.9 1.2c1.3.9 2.8 1.9 4.2 3 1.1.8 2.1 1.6 2.7 2.1l.1.1v.2c-.2 5.9-.4 9.9-.4 9.9"/><path clip-path="url(#b)" fill="#fff" d="M143.1 84.7c1.7-1.6 1.7-5.8 1.7-7h-10.5c-.2 1.7 0 4.7 1.6 7h7.2z"/><path clip-path="url(#b)" fill="#231F20" d="M137.2 74.5s.1.1.4.2l.4.2c.2.1.4.1.6.1.5.1 1.1.1 1.7-.1.6-.2 1.3-.7 1.6-1.4v.1c-.1-2.7-.2-6.6-.2-10.8v-1.1l.2-.1c4.4-2.6 8.2-4.7 10.2-5.8l.1-.1.1.1c1.6 2.2 2.3 3.2 2.3 3.2s-.8-.9-2.6-3h.2c-1.9 1.2-5.6 3.6-10 6.2l.2-.3v.9c0 4.2-.1 8.1-.2 10.8-.4.9-1.2 1.3-1.9 1.6-.7.2-1.3.2-1.8 0-.2-.1-.5-.1-.6-.2-.2-.1-.3-.2-.4-.2-.2-.3-.3-.3-.3-.3"/><path clip-path="url(#b)" fill="#231F20" d="M136.3 74.1l-.1.1c-.1.1-.2.2-.4.3-.2.1-.5.2-.8.2-.4 0-.7-.4-.8-.8-.2-.8 0-1.3.2-1.7.2-.4.4-.6.4-.6s-.1 1.1.2 2.1c.1.2.2.3.3.4.2.1.4.1.6.1.2 0 .4 0 .5-.1h-.1"/><path clip-path="url(#b)" fill="#231F20" d="M135.9 84.7l-6.2-7h4.5c-.1 1.8.1 4.7 1.7 7"/><path clip-path="url(#b)" fill="#231F20" d="M144.8 77.7h3.9l-5.6 7c1.7-1.6 1.7-5.7 1.7-7"/><path clip-path="url(#b)" fill="#231F20" d="M142.1 73.4s.1 0 .2.1.3.2.6.2c.2.1.5.1.7.1.1 0 .2-.3.1-.7 0-.7-.2-1.4-.4-1.8-.1-.2-.2-.4-.2-.6-.1-.1-.1-.2-.1-.2s.1.1.2.1c.1.1.3.2.5.4.4.4.8 1.1.8 2 0 .2 0 .5-.1.7-.1.2-.3.5-.6.6-.1.1-.3 0-.4 0-.1 0-.2 0-.3-.1-.2-.1-.3-.2-.4-.3-.2-.2-.4-.3-.5-.5-.1.1-.1 0-.1 0"/><path clip-path="url(#b)" fill="#231F20" d="M129.8 77.7s2.2 2.4 6.3 6.8c0 0-.1 0-.2-.1 1.5 0 4.2-.1 7.1-.1 0 0-.2.1-.3.1.8-1 2.2-2.7 3.5-4.5l2-2.5c.1.3.2.4.3.6-10.8 0-18.7-.3-18.7-.3s8-.3 18.9-.4h.7l-.5.6c-.5.6-1.2 1.5-2 2.5-1.4 1.7-2.8 3.4-3.6 4.4l-.1.1h-.2c-2.9 0-5.6-.1-7.1-.1h-.1l-.1-.1c-3.9-4.4-5.9-7-5.9-7"/><path clip-path="url(#b)" fill="#231F20" d="M150.7 79.5s0-.3-.1-.7c-.1-.4-.2-.9-.4-1.5-.1-.6-.2-1.2-.3-1.5-.1-.4-.2-.7-.2-.7s.3.1.5.5c.3.4.6.9.7 1.6.1.6.1 1.3 0 1.7 0 .4-.2.6-.2.6"/><path clip-path="url(#b)" fill="#231F20" d="M127.5 81.2s-.3-.3-.6-.7c-.2-.3-.3-.6-.5-1-.1-.4-.2-.9-.2-1.3 0-1 .3-1.8.7-2.3.2-.3.3-.5.5-.6l.2-.2s0 .1-.1.2c-.1.2-.2.4-.2.7-.1.5-.3 1.3-.3 2.2l.1 1.2c.1.4.1.7.2 1 .1.5.2.8.2.8"/><path clip-path="url(#b)" fill="#231F20" d="M150.8 62.6c-.4-.2-3.8 0-4.4 0-.1 1.3.3 2.9 2.2 2.9 1.8-.1 2.2-2 2.2-2.9"/><path clip-path="url(#b)" fill="#231F20" d="M129.4 62.6c.4-.2 3.8 0 4.4 0 .1 1.3-.3 2.9-2.2 2.9-1.9-.1-2.2-2-2.2-2.9"/><path clip-path="url(#b)" fill="#231F20" d="M152.3 64.8v-.5c0-.1 0-.3-.1-.5-.1-.1-.3-.3-.5-.4-.4-.3-.9-.7-1.5-1.1-.2-.1-.5-.1-.9-.1h-3.6c-.6.3-1.1.7-1.5 1v-.1c-.1 1.1-.2 1.6-.2 1.6s-.1-.6-.2-1.6v-.1l.1-.1c.4-.4.8-.9 1.5-1.3.1-.1.2-.1.4-.1h.8999999999999999c.4 0 .8 0 1.3-.1h1.7999999999999998c.2 0 .5.1.7.2.6.4 1 1 1.4 1.4l.5.6v.6c-.1.4-.1.6-.1.6"/><path clip-path="url(#b)" fill="#231F20" d="M150.2 61.9v.5c0 .3 0 .8-.3 1.4-.1.1-.2.3-.2.4-.1.1-.2.3-.4.4-.3.2-.8.4-1.1.5h-.6c-.2 0-.4-.1-.7-.2-.5-.2-.9-.5-1.1-1-.4-.8-.4-1.6-.3-2.1v-.3h.3c2.7.1 4.5.3 4.4.4 0-.1-1.7.1-4.4.3l.3-.3c0 .4 0 1.1.3 1.7.3.7 1.1.9 1.7.9.4 0 .6-.1.9-.3l.3-.3.3-.3c.3-.5.4-.9.5-1.2.1-.3.1-.5.1-.5"/><path clip-path="url(#b)" fill="#231F20" d="M126.8 64.8s0-.2-.1-.5v-.6c.1-.2.3-.4.5-.6.4-.4.8-.9 1.4-1.4.2-.2.5-.2.7-.2h1.7999999999999998c.4 0 .9 0 1.3.1h.8999999999999999l.4.1c.7.4 1.1.9 1.5 1.3l.1.1v.1c-.1 1.1-.2 1.6-.2 1.6s-.1-.6-.2-1.6v.1c-.4-.3-.9-.7-1.5-1h-3.6000000000000005c-.4 0-.8 0-.9.1-.6.4-1 .8-1.5 1.1-.2.2-.4.3-.5.4-.1.2-.1.4-.1.5v.4"/><path clip-path="url(#b)" fill="#231F20" d="M128.9 61.9s0 .2.1.5.2.7.5 1.2l.3.3.3.3c.2.1.5.2.9.3.6 0 1.4-.2 1.7-.9.3-.6.3-1.2.3-1.7.2.1.2.2.3.3-2.7-.2-4.4-.4-4.4-.3 0-.1 1.8-.3 4.4-.3h.3v.3c0 .5.1 1.3-.3 2.1-.2.4-.6.8-1.1 1-.2.1-.5.2-.7.2h-.6c-.3 0-.8-.2-1.1-.5l-.4-.4c-.1-.1-.2-.3-.2-.4-.2-.6-.3-1-.3-1.4-.1-.4 0-.6 0-.6"/><path clip-path="url(#b)" fill="#231F20" d="M158.9 32.6l.2.2c.2.2.4.4.7.8.5.8 1.2 2 1.7 3.9s.8 4.2.8 7.2c0 1.5 0 3.1-.2 4.8l-.3 2.7c-.1.9-.2 1.9-.6 2.9l-.2.6-.1-.6c-.1-.4-.4-1-1-1.4-.2-.1-.3-.2-.5-.2s-.3 0-.3.1c0 .4-.1.9-.1 1.4-.2 2-.4 4.4-.7 6.9v.2h-1.7v-.2c0-1.1 0-3.8.1-6.7v.1c-.3-.7-1.1-2.3-1.9-4l-.1-.1.1-.1s.1-.2.1-.3c.5-1.7 1.1-3.6 1.7-5.6.8-2 0-4.4-1.8-6-.9-.8-2-1.4-3.2-1.9-.6-.2-1.2-.4-1.9-.4-.7-.1-1.3-.1-1.9 0-1.3.2-2.6.6-4 1-1.3.4-2.8.9-4.3.8h-.8c-1.4-.1-2.6-.6-3.8-1-1.2-.4-2.4-.8-3.6-.9h-.9l-.9.1c-.6.1-1.2.2-1.8.4-1.1.4-2.2.9-3.1 1.7-.9.7-1.7 1.6-2 2.6-.4 1-.5 2.1-.2 3.1.6 2.1 1.3 4.2 1.9 6.1v.1l-.1.1c-.7 1.5-1.3 2.7-1.9 3.8v-.1c.1 2.8.1 5 .2 7.1v.3h-2.4v-.3c.2-1.7 0-3.2 0-4.6-.1-1.4-.2-2.7-.3-3.9l.2.2c-.8-.2-1.5-.1-2.1.3-.5.3-.9.8-1.1 1.3l-.2.4-.1-.4c-.3-1-.3-1.8-.4-2.7-.1-.9-.1-1.7-.1-2.5 0-1.6 0-3.2.1-4.6.2-2.9.6-5.3 1.1-7.2.5-1.9 1.2-3.4 1.9-4.2.3-.4.6-.7.8-.9l.3-.3-.3.3c-.2.2-.4.5-.7.9-.6.9-1.3 2.3-1.8 4.2-.5 1.9-.9 4.4-1 7.2-.1 1.4-.1 2.9 0 4.6 0 .8.1 1.6.2 2.5.1.8.1 1.8.4 2.5h-.3c.3-.6.6-1.1 1.2-1.5.6-.4 1.5-.6 2.4-.4h.2v.2c.1 1.2.2 2.5.3 3.9.1 1.4.3 2.9.1 4.8-.1-.1-.1-.2-.3-.3h1.8l-.3.3c-.1-2.1-.2-4.3-.3-7.1v-.2c.5-1.1 1.1-2.3 1.8-3.8v.2c-.6-1.9-1.3-4-1.9-6.1-.4-1.2-.2-2.4.2-3.6.4-1.2 1.3-2.1 2.2-2.9 1-.8 2.1-1.4 3.3-1.8.6-.2 1.2-.3 1.9-.4.3-.1.6-.1 1-.1h1c2.6.2 5 1.6 7.4 1.9h.8c1.3.1 2.7-.4 4-.8 1.3-.4 2.7-.9 4.1-1.1.7-.1 1.4-.1 2.1.1.7.1 1.4.3 2 .5 1.3.4 2.5 1.1 3.4 2 2 1.7 2.9 4.6 2 6.7-.6 2.1-1.2 4-1.8 5.6-.1.1-.1.2-.1.3v-.3c.8 1.7 1.6 3.3 1.9 4v.2c-.1 2.8-.1 5.6-.2 6.7l-.2-.2h1.3l-.2.2c.3-2.5.5-4.9.7-6.9 0-.5.1-1 .1-1.4 0-.2.2-.4.3-.4h.4c.2 0 .4.1.6.3.7.5 1.1 1.1 1.1 1.7h-.3c.3-.9.4-1.9.6-2.8l.3-2.7c.2-1.7.2-3.3.2-4.8 0-2.9-.3-5.3-.7-7.2-.4-1.8-1.1-3.1-1.6-3.9-.3-.4-.5-.6-.6-.8.1-.3 0-.4 0-.4"/><path clip-path="url(#b)" fill="#231F20" d="M156.8 70.6h.7c.4-.1 1.1-.3 1.6-.8.1-.1.3-.3.4-.5.1-.2.2-.4.4-.6.2-.4.5-.9.6-1.3.2-1 .3-2.2.4-3.4.2-2.5.3-4.7.3-6.3v-2.5999999999999996s.1.2.2.7c.1.4.2 1.1.3 1.9.2 1.6.2 3.9 0 6.4-.1 1.2-.2 2.4-.5 3.5-.1.6-.5 1-.7 1.4l-.4.6-.5.5c-.7.6-1.4.7-1.8.7-.7-.2-1-.2-1-.2"/><path clip-path="url(#b)" fill="#231F20" d="M116.7 55v.2c0 .1-.1.3-.1.5-.1.5-.1 1.1-.1 1.9 0 1.6.1 3.9.2 6.4.1 1.2.1 2.5.3 3.5.1 1 .9 1.7 1.5 2.1 1.4.9 2.5.9 2.4.8 0 .1-1.1.3-2.6-.5-.4-.2-.8-.5-1.1-.8-.4-.3-.7-.9-.8-1.5-.2-1.1-.3-2.3-.4-3.6-.1-2.5-.1-4.9.1-6.5.1-.8.2-1.5.4-1.9.1-.2.1-.4.2-.5v-.1"/><path clip-path="url(#b)" fill="#231F20" d="M155 87s-2.1 2.7-5 5.6c-2.9 3-5.5 5.1-5.5 5.1s2.1-2.7 5-5.6c2.9-3 5.5-5.1 5.5-5.1"/><path clip-path="url(#b)" fill="#231F20" d="M129.1 96.9s-2-2-4.2-4.7c-2.1-2.7-3.6-5.2-3.6-5.2s2 2 4.2 4.7c2.2 2.8 3.6 5.2 3.6 5.2"/><rect x="139.1" y="107.9" transform="matrix(.997 .072 -.072 .997 8.382 -9.784)" clip-path="url(#b)" fill="#fff" width=".2" height="5.9"/><rect x="133.5" y="107.2" clip-path="url(#b)" fill="#fff" width=".2" height="6.5"/><path clip-path="url(#b)" fill="#231F20" d="M137.2 61.7s-.8-.4-2.2-1.2c-1.3-.8-3.1-1.9-4.9-3.2-.9-.6-1.8-1.3-2.6-1.8l-.2-.1-.2-.1h0c-.1 0-.2.1-.2.2l-.9.8c-1.1 1-1.8 1.7-1.8 1.7s.4-.9 1.2-2.2c.2-.3.4-.7.7-1.1l.3-.3.2-.2.1-.1.3-.1h.5c.1 0 .3.1.5.2 1.1.5 1.9 1 2.9 1.7 1.9 1.3 3.5 2.8 4.5 3.8 1.1 1.3 1.8 2 1.8 2"/><path clip-path="url(#b)" fill="#231F20" d="M142.1 61.7s2.6-2.4 6.4-4.6c1.3-.8 2.6-1.4 3.5-1.8l.5-.2.2.3c1.4 2.1 2 3.4 2 3.4s-1.2-1-2.9-2.8c.2 0 .4.1.7.1-.8.6-1.9 1.4-3.2 2.2-3.8 2.3-7.2 3.4-7.2 3.4"/><path clip-path="url(#b)" fill="#fff" d="M73.3 61.9c-.4-.2-3.8 0-4.4 0-.1 1.3.3 2.9 2.2 2.9 1.8 0 2.2-2 2.2-2.9"/><path clip-path="url(#b)" fill="#231F20" d="M73.3 61.9s.5.7.3 2.1l-.2.6-.4.6c-.2.2-.5.4-.8.5l-.2.1h-.1l-.4.2h-1.4l-.5-.1c-.3-.1-.7-.3-1-.6-.3-.2-.5-.6-.7-.9-.6-1.1-.4-2.1-.3-2.6l.3-1.4 1 .1c1.2.2 2.4.4 3.2.7.4.1.7.3.9.4l.3.3c-.1-.1-1.6.8-4.4 1.3l1.3-1.2c.1.3.2.9.3 1.1 0 .2 1 .9 1.7.3.3-.3.6-.7.8-1 .2-.3.3-.5.3-.5"/><path clip-path="url(#b)" fill="#fff" d="M51.4 61.3s0 .2.1.5.2.7.5 1.2l.3.3.3.3c.2.1.5.2.9.3.6 0 1.4-.2 1.7-.9.3-.6.3-1.2.3-1.7.2.1.2.2.3.3-2.7-.2-4.4-.4-4.4-.3 0-.1 1.8-.3 4.4-.3h.2v.3c0 .5.1 1.3-.3 2.1-.2.4-.6.8-1.1 1-.2.1-.5.2-.7.2h-.6c-.3 0-.8-.2-1.1-.5l-.4-.4c-.1-.1-.2-.3-.2-.4-.2-.6-.3-1-.3-1.4 0-.5.1-.6.1-.6"/><path clip-path="url(#b)" stroke="#fff" stroke-miterlimit="10" d="M51.4 61.3s0 .2.1.5.2.7.5 1.2l.3.3.3.3c.2.1.5.2.9.3.6 0 1.4-.2 1.7-.9.3-.6.3-1.2.3-1.7.2.1.2.2.3.3-2.7-.2-4.4-.4-4.4-.3 0-.1 1.8-.3 4.4-.3h.2v.3c0 .5.1 1.3-.3 2.1-.2.4-.6.8-1.1 1-.2.1-.5.2-.7.2h-.6c-.3 0-.8-.2-1.1-.5l-.4-.4c-.1-.1-.2-.3-.2-.4-.2-.6-.3-1-.3-1.4 0-.5.1-.6.1-.6z" fill="none"/><path clip-path="url(#b)" fill="#fff" d="M84.8 54.3c.6-1.6 2.9-17.6-2.2-22.3-5.2-4.8-7.6-5.2-18.1-4.3h-2.5c-10.6-.9-13-.5-18.1 4.3-5 4.6-4.1 19.8-3.5 22.1l.1.2c.4-.8 1.4-2.2 3.4-1.8 0 .8.7 6.4.4 8.6h1.7s-.2-4.1-.2-7.1l1.9-3.8s-1.4-4.4-1.9-6.3c-.5-1.9.5-3.8.5-3.8s2-3.9 7.7-4.4c3.4-.1 6.4 2.2 9.3 1.9h.1c2.9.2 5.9-2 9.3-1.9 5.7.5 7.7 4.4 7.7 4.4s1.1 1.9.5 3.8c-.5 1.9-1.9 6.3-1.9 6.3l-.1.3 1.9 4-.1 6.7h1.3s.8-7.5.8-8.3c-.1-.8 1.8-.1 2 1.4"/><path clip-path="url(#b)" fill="#231F20" d="M84.8 54.3s0-.2-.2-.6c-.2-.3-.6-1-1.5-1.2-.1 0-.2 0-.3.1-.1.1-.1.2-.1.3 0 .3 0 .5-.1.8-.1.6-.1 1.3-.2 2-.1 1.5-.3 3.2-.5 5.4v.1h-1.5000000000000002v-.1c0-.9 0-3.6.1-6.7v.1c-.2-.5-1.1-2.2-1.9-4v-.2s.1-.2.1-.3c.4-1.5 1-3.2 1.6-5.2l.4-1.5c.1-.5.1-1.1 0-1.6s-.3-1.1-.5-1.6c-.3-.5-.6-1-1-1.4-1.7-1.8-4.3-2.9-7.1-2.9-1.4.1-2.8.5-4.2 1-1.4.5-2.9 1-4.6.9-1.7.2-3.6-.6-5.6-1.2-1-.3-2.1-.6-3.2-.7-1.1 0-2.3.2-3.4.6-1.1.4-2.3 1-3.2 1.9-.5.4-.9.9-1.2 1.5-.3.5-.5 1.2-.7 1.8-.1.6-.1 1.3.1 2l.6 2.1 1.3 4.2v.5c-.4.8-1.1 2.3-1.8 3.8v-.2c.1 1.5.1 4.3.2 7.1v.4h-2.6l.1-.4c.1-.5.1-1.3.1-2.2-.1-2.2-.3-4.3-.4-6.3.1.1.2.2.3.4-.7-.2-1.3-.1-1.8.2-.5.3-.9.8-1.2 1.3l-.1.2h-.5l-.1-.3c-.4-2.2-.5-4.2-.5-6.3 0-2.1.1-4.1.3-6 .2-2 .6-3.9 1.1-5.7.6-1.8 1.4-3.6 2.9-4.8 1.3-1.2 2.7-2.4 4.3-3.2 1.6-.8 3.3-1.2 4.9-1.3 3.2-.2 6.2.1 9 .3h2.5c3.3-.3 6.5-.5 9.6-.2 1.5.2 3 .6 4.2 1.3 1.3.7 2.4 1.5 3.4 2.4.5.4 1 .9 1.4 1.3.4.5.8 1 1.1 1.5.6 1.1.9 2.2 1.2 3.3.5 2.2.6 4.2.7 6.1.1 3.7-.3 6.5-.5 8.3-.1.9-.3 1.7-.4 2.1-.5.5-.6.8-.6.8 0-.1.1-.3.2-.8s.2-1.2.4-2.1c.2-1.9.5-4.7.4-8.3-.1-1.8-.2-3.9-.7-6-.3-1.1-.6-2.2-1.2-3.2-.3-.5-.6-1-1.1-1.5-.4-.4-.9-.9-1.4-1.3-1-.8-2.1-1.7-3.3-2.3-1.2-.6-2.6-1-4.1-1.2-3-.3-6.1 0-9.5.3h-2.5c-2.7-.2-5.7-.5-8.9-.3-1.6.1-3.2.5-4.6 1.3-1.5.8-2.8 1.9-4.1 3.1-1.3 1.1-2.1 2.8-2.7 4.6-.6 1.8-.9 3.7-1.1 5.6-.2 1.9-.3 3.9-.3 6 0 2 .1 4.1.5 6.1l-.4-.3-.3.2c.3-.6.8-1.3 1.5-1.7.7-.4 1.6-.5 2.4-.3l.3.1v.3c.1 1.9.4 4.1.5 6.3 0 .9 0 1.8-.1 2.4-.1-.2-.3-.3-.4-.4h1.8c-.1.2-.3.3-.4.4-.1-2.8-.2-5.6-.2-7.1v-.2c.7-1.5 1.5-3.1 1.9-3.8v.3l-1.3-4.2-.6-2.1c-.2-.7-.2-1.5-.1-2.3.1-.7.4-1.4.8-2.1.4-.6.9-1.2 1.4-1.6 1-1 2.2-1.6 3.4-2.1 1.2-.4 2.5-.7 3.7-.6 1.2.1 2.3.4 3.3.7 2 .7 3.8 1.4 5.3 1.2 1.5.1 3-.4 4.4-.9 1.4-.5 2.9-.9 4.3-1 3 0 5.7 1.2 7.4 3.1.4.5.8 1 1.1 1.5.3.6.5 1.1.6 1.7.1.6.1 1.2 0 1.7-.1.6-.3 1-.4 1.5-.6 2-1.2 3.7-1.6 5.1-.1.1-.1.2-.1.3v-.1c.8 1.8 1.6 3.5 1.9 4-.1 3.1-.1 5.7-.2 6.7l-.1-.1h1.3l-.1.1c.2-2.1.4-3.9.6-5.3.1-.7.1-1.4.2-2 0-.3 0-.6.1-.8 0-.1 0-.3.1-.4.1-.1.2-.1.4-.1.9.2 1.3.9 1.5 1.2.1.5.1.7.1.7"/><path clip-path="url(#b)" fill="#fff" d="M45 83.1l.1-3.1c-.2-3.8-.5-10.1-.5-10.1-.7.3-3.8-.8-4.2-2.6-.5-1.8-.9-10.9 0-12.9l-.1-.2c-.6-2.3-1.5-17.5 3.5-22.1 5.2-4.8 7.6-5.2 18.1-4.3h2.5c10.6-1.1 13-.6 18.2 4.2 5.1 4.7 2.9 20.7 2.2 22.3l.1.8c.5 1.9 0 10.9-.6 12.1-.6 1.2-1.6 3-3.8 2.7.2 1.4-1.2 10.3-1.2 10.3l-.7.9v6.199999999999999l-18.5 19.8-15-19.6-.1-4.4z"/><path clip-path="url(#b)" stroke="#fff" stroke-width="2" stroke-miterlimit="10" d="M45 83.1l.1-3.1c-.2-3.8-.5-10.1-.5-10.1-.7.3-3.8-.8-4.2-2.6-.5-1.8-.9-10.9 0-12.9l-.1-.2c-.6-2.3-1.5-17.5 3.5-22.1 5.2-4.8 7.6-5.2 18.1-4.3h2.5c10.6-1.1 13-.6 18.2 4.2 5.1 4.7 2.9 20.7 2.2 22.3l.1.8c.5 1.9 0 10.9-.6 12.1-.6 1.2-1.6 3-3.8 2.7.2 1.4-1.2 10.3-1.2 10.3l-.7.9v6.199999999999999l-18.5 19.8-15-19.6-.1-4.4z" fill="none"/><path clip-path="url(#b)" fill="#fff" d="M70 27.3c5.2 0 7.5 1.2 11.4 4.7 5.1 4.7 2.9 20.7 2.2 22.3l.1.8c.5 1.9 0 10.9-.6 12.1-.6 1.1-1.5 2.7-3.3 2.7h-.5c.2 1.4-1.2 10.3-1.2 10.3l-.7.9v2.9h1.6l4.9 5.7c9.4 3.4 29.4 14 29.4 14l8.5 26.5h-125.80000000000001l13.2-29.6 32.8-15.5 1.9-2 .1-3.1c-.2-3.8-.5-10.1-.5-10.1l-.3.1c-1 0-3.5-1-3.9-2.7-.5-1.8-.9-10.9 0-12.9l-.1-.2c-.6-2.3-1.5-17.5 3.5-22.1 3.8-3.5 6.1-4.7 11.3-4.7 1.8 0 4 .1 6.8.4h2.5c2.7-.4 4.9-.5 6.7-.5m0-1c-1.7 0-3.7.1-6.8.4h-2.4c-3.1-.3-5.2-.4-6.8-.4-5.7 0-8.2 1.5-12 5-5.3 4.9-4.5 20.3-3.8 23.1-.9 2.8-.3 11.5.1 13.2.5 1.9 2.8 3.1 4.2 3.4.1 1.9.4 6.2.5 9.1l-.1 2.7-1.5 1.6-32.5 15.4-.2.1-.1.1-13.2 29.6-1.5 1.7h129.99999999999997l-1.1-1.6-8.5-26.5-.1-.2-.2-.1c-.8-.4-19.8-10.6-29.3-14l-4.8-5.5-.3-.3h-1.2v-1.6l.5-.7.1-.2v-.2c.2-1.3 1-6.9 1.2-9.5 2.2-.3 3.2-2.3 3.7-3.2.8-1.6 1.2-10.7.7-12.7l-.1-.6c.7-2.7 2.8-18.1-2.6-23.1-3.7-3.5-6.2-5-11.9-5"/><path clip-path="url(#b)" stroke="#fff" stroke-width="2" stroke-miterlimit="10" d="M70 27.3c5.2 0 7.5 1.2 11.4 4.7 5.1 4.7 2.9 20.7 2.2 22.3l.1.8c.5 1.9 0 10.9-.6 12.1-.6 1.1-1.5 2.7-3.3 2.7h-.5c.2 1.4-1.2 10.3-1.2 10.3l-.7.9v2.9h1.6l4.9 5.7c9.4 3.4 29.4 14 29.4 14l8.5 26.5h-125.80000000000001l13.2-29.6 32.8-15.5 1.9-2 .1-3.1c-.2-3.8-.5-10.1-.5-10.1l-.3.1c-1 0-3.5-1-3.9-2.7-.5-1.8-.9-10.9 0-12.9l-.1-.2c-.6-2.3-1.5-17.5 3.5-22.1 3.8-3.5 6.1-4.7 11.3-4.7 1.8 0 4 .1 6.8.4h2.5c2.7-.4 4.9-.5 6.7-.5m0-1c-1.7 0-3.7.1-6.8.4h-2.4c-3.1-.3-5.2-.4-6.8-.4-5.7 0-8.2 1.5-12 5-5.3 4.9-4.5 20.3-3.8 23.1-.9 2.8-.3 11.5.1 13.2.5 1.9 2.8 3.1 4.2 3.4.1 1.9.4 6.2.5 9.1l-.1 2.7-1.5 1.6-32.5 15.4-.2.1-.1.1-13.2 29.6-1.5 1.7h129.99999999999997l-1.1-1.6-8.5-26.5-.1-.2-.2-.1c-.8-.4-19.8-10.6-29.3-14l-4.8-5.5-.3-.3h-1.2v-1.6l.5-.7.1-.2v-.2c.2-1.3 1-6.9 1.2-9.5 2.2-.3 3.2-2.3 3.7-3.2.8-1.6 1.2-10.7.7-12.7l-.1-.6c.7-2.7 2.8-18.1-2.6-23.1-3.7-3.5-6.2-5-11.9-5z" fill="none"/><polygon clip-path="url(#b)" fill="#fff" points="-3.9,130.3 9.3,100.7 44,84.1 41.4,130.3"/><polygon clip-path="url(#b)" stroke="#fff" stroke-miterlimit="10" points="-3.9,130.3 9.3,100.7 44,84.1 41.4,130.3" fill="none"/><path clip-path="url(#b)" fill="#fff" d="M44 84.1l-2.7 46.2h-45.2l13.3-29.6 34.6-16.6zm.3-.4l-.4.2-34.7 16.6-13.2 29.6-.4.4h46.1v-.2l2.7-46.2-.1-.4z"/><path clip-path="url(#b)" stroke="#fff" stroke-miterlimit="10" d="M44 84.1l-2.7 46.2h-45.2l13.3-29.6 34.6-16.6m.3-.4l-.4.2-34.7 16.6-13.2 29.6-.4.4h46.1v-.2l2.7-46.2-.1-.4z" fill="none"/><path clip-path="url(#b)" fill="#fff" d="M80.6 88.8l-7 41.5h48.4l-8.5-26.5s-26.5-14.2-32.9-15"/><path clip-path="url(#b)" stroke="#fff" stroke-miterlimit="10" d="M80.6 88.8l-7 41.5h48.4l-8.5-26.5s-26.5-14.2-32.9-15z" fill="none"/><path clip-path="url(#b)" fill="#fff" d="M80.6 88.8c6.4.8 32.9 15 32.9 15l8.5 26.5h-48.4l7-41.5m-.2-.3v.2l-7 41.5-.1.3h49.199999999999996l-.3-.4-8.5-26.5c-1.1-.6-26.6-14.2-33-15l-.3-.1z"/><path clip-path="url(#b)" stroke="#fff" stroke-miterlimit="10" d="M80.6 88.8c6.4.8 32.9 15 32.9 15l8.5 26.5h-48.4l7-41.5m-.2-.3v.2l-7 41.5-.1.3h49.199999999999996l-.3-.4-8.5-26.5c-1.1-.6-26.6-14.2-33-15l-.3-.1z" fill="none"/><polygon clip-path="url(#b)" fill="#fff" points="37.5,130.3 42.6,94.6 43.1,91.3 43.8,86.4 51.6,96.2 58.8,105.5 67.1,97 77.5,86.4 77.5,92.3 77.5,95.2 75.3,130.3"/><polygon clip-path="url(#b)" stroke="#fff" stroke-miterlimit="10" points="37.5,130.3 42.6,94.6 43.1,91.3 43.8,86.4 51.6,96.2 58.8,105.5 67.1,97 77.5,86.4 77.5,92.3 77.5,95.2 75.3,130.3" fill="none"/><polygon clip-path="url(#b)" fill="#fff" points="41.4,130.3 44,82.8 21.4,107.2 29.2,130.3"/><polygon clip-path="url(#b)" stroke="#fff" stroke-miterlimit="10" points="41.4,130.3 44,82.8 21.4,107.2 29.2,130.3" fill="none"/><path clip-path="url(#b)" fill="#fff" d="M44 82.8l-2.7 47.5h-12.1l-7.8-23.1 22.6-24.4zm.3-.6l-.5.5-22.5 24.3-.1.1v.1l7.8 23.1.1.2h12.499999999999998v-.2l2.7-47.5v-.6z"/><path clip-path="url(#b)" stroke="#fff" stroke-miterlimit="10" d="M44 82.8l-2.7 47.5h-12.1l-7.8-23.1 22.6-24.4m.3-.6l-.5.5-22.5 24.3-.1.1v.1l7.8 23.1.1.2h12.499999999999998v-.2l2.7-47.5v-.6z" fill="none"/><polygon clip-path="url(#b)" fill="#fff" points="77.5,84.1 77.5,95.2 73.6,130.3 83.3,130.3 97.7,105.5 79.2,84.1"/><polygon clip-path="url(#b)" stroke="#fff" stroke-miterlimit="10" points="77.5,84.1 77.5,95.2 73.6,130.3 83.3,130.3 97.7,105.5 79.2,84.1" fill="none"/><path clip-path="url(#b)" fill="#fff" d="M79.2 84.1l18.5 21.4-14.4 24.9h-9.7l3.9-35.1v-11.2h1.7zm.1-.3h-1.9000000000000001v11.299999999999999l-3.9 35.1v.3h10.1l.1-.1 14.4-24.9.1-.2-.1-.1-18.8-21.4z"/><path clip-path="url(#b)" stroke="#fff" stroke-miterlimit="10" d="M79.2 84.1l18.5 21.4-14.4 24.9h-9.7l3.9-35.1v-11.2h1.7m.1-.3h-1.9000000000000001v11.299999999999999l-3.9 35.1v.3h10.1l.1-.1 14.4-24.9.1-.2-.1-.1-18.8-21.4z" fill="none"/><polygon clip-path="url(#b)" fill="#fff" points="77.5,95.2 77.5,92.3 63,106.6 66.9,106.6"/><polygon clip-path="url(#b)" stroke="#fff" stroke-miterlimit="10" points="77.5,95.2 77.5,92.3 63,106.6 66.9,106.6" fill="none"/><path clip-path="url(#b)" fill="#fff" d="M42.6 94.6l.5-3.3c.9 1.2 12.2 15.9 12.2 15.9h-4.1l-8.6-12.6z"/><path clip-path="url(#b)" stroke="#fff" stroke-miterlimit="10" d="M42.6 94.6l.5-3.3c.9 1.2 12.2 15.9 12.2 15.9h-4.1l-8.6-12.6z" fill="none"/><path clip-path="url(#b)" fill="#fff" d="M56.2 106.6s-9.7-4.7-12.1-4.8c-1.2 1.6-1.4 14.4 2.1 18.5 1-.2 10.1-7.2 10.1-7.2 1.6 1 4.5.6 5.3 0 0 0 4.1 7 9.9 8.4 1.4-1.4 3.9-16.4 3.7-17.9-.2-1.4-10.7 1.9-13.2 3.6-.1 0-.5-2.6-5.8-.6"/><path clip-path="url(#b)" stroke="#fff" stroke-miterlimit="10" d="M56.2 106.6s-9.7-4.7-12.1-4.8c-1.2 1.6-1.4 14.4 2.1 18.5 1-.2 10.1-7.2 10.1-7.2 1.6 1 4.5.6 5.3 0 0 0 4.1 7 9.9 8.4 1.4-1.4 3.9-16.4 3.7-17.9-.2-1.4-10.7 1.9-13.2 3.6-.1 0-.5-2.6-5.8-.6z" fill="none"/><path clip-path="url(#b)" fill="#fff" d="M61.5 113.1c-.8.6-3.7 1-5.3 0v-6.5c5.3-2 5.8.6 5.8.6l-.5 5.9z"/><path clip-path="url(#b)" stroke="#fff" stroke-miterlimit="10" d="M61.5 113.1c-.8.6-3.7 1-5.3 0v-6.5c5.3-2 5.8.6 5.8.6l-.5 5.9z" fill="none"/><polygon clip-path="url(#b)" fill="#fff" points="58.8,105.5 51.6,96.2 49,111.6"/><polygon clip-path="url(#b)" stroke="#fff" stroke-miterlimit="10" points="58.8,105.5 51.6,96.2 49,111.6" fill="none"/><path clip-path="url(#b)" fill="#fff" d="M58.8 105.5s-3.7 2.5-9.7 6.4l-.5.4.1-.7c.3-1.9.7-4.7 1.2-7.8.5-3 1-5.8 1.4-7.6l.1-.7.4.5c4.4 5.8 7 9.5 7 9.5s-2.9-3.4-7.5-9c.1 0 .3-.1.5-.1-.3 1.8-.7 4.7-1.2 7.7s-1 5.9-1.4 7.7c-.2-.1-.4-.3-.4-.3 6.2-3.8 10-6 10-6"/><path clip-path="url(#b)" stroke="#fff" d="M58.8 105.5s-3.7 2.5-9.7 6.4l-.5.4.1-.7c.3-1.9.7-4.7 1.2-7.8.5-3 1-5.8 1.4-7.6l.1-.7.4.5c4.4 5.8 7 9.5 7 9.5s-2.9-3.4-7.5-9c.1 0 .3-.1.5-.1-.3 1.8-.7 4.7-1.2 7.7s-1 5.9-1.4 7.7c-.2-.1-.4-.3-.4-.3 6.2-3.8 10-6 10-6z" fill="none"/><polygon clip-path="url(#b)" fill="#fff" points="67.1,97 58.8,105.5 68,111.6"/><polygon clip-path="url(#b)" stroke="#fff" stroke-miterlimit="10" points="67.1,97 58.8,105.5 68,111.6" fill="none"/><path clip-path="url(#b)" fill="#fff" d="M67.1 97s.7 5.9 1.3 14.6l.1.7-.6-.4c-.8-.5-2.1-1.4-3.4-2.3-2.3-1.5-4.4-3-5.7-3.9l-.3-.2.3-.3c4.9-5 8.3-8.2 8.3-8.2s-3 3.4-8 8.6v-.5c1.4.9 3.6 2.3 5.8 3.8 1.3.9 2.6 1.8 3.4 2.3-.2.1-.4.3-.5.3-.6-8.5-.7-14.5-.7-14.5"/><path clip-path="url(#b)" stroke="#fff" d="M67.1 97s.7 5.9 1.3 14.6l.1.7-.6-.4c-.8-.5-2.1-1.4-3.4-2.3-2.3-1.5-4.4-3-5.7-3.9l-.3-.2.3-.3c4.9-5 8.3-8.2 8.3-8.2s-3 3.4-8 8.6v-.5c1.4.9 3.6 2.3 5.8 3.8 1.3.9 2.6 1.8 3.4 2.3-.2.1-.4.3-.5.3-.6-8.5-.7-14.5-.7-14.5z" fill="none"/><path clip-path="url(#b)" fill="#fff" d="M44 80s.2 1.1.3 2.9c0 1 0 2.5-.1 4-.2 3.8-.8 6.9-.8 6.9s-.2-3.1 0-6.9c.1-1.6.2-3 .4-4 .1-1.9.2-2.9.2-2.9"/><path clip-path="url(#b)" stroke="#fff" stroke-miterlimit="10" d="M44 80s.2 1.1.3 2.9c0 1 0 2.5-.1 4-.2 3.8-.8 6.9-.8 6.9s-.2-3.1 0-6.9c.1-1.6.2-3 .4-4 .1-1.9.2-2.9.2-2.9z" fill="none"/><path clip-path="url(#b)" fill="#fff" d="M77.5 95.2s-.4-3.1-.4-7 .4-7 .4-7 .4 3.1.4 7c0 3.8-.4 7-.4 7"/><path clip-path="url(#b)" stroke="#fff" stroke-miterlimit="10" d="M77.5 95.2s-.4-3.1-.4-7 .4-7 .4-7 .4 3.1.4 7c0 3.8-.4 7-.4 7z" fill="none"/><path clip-path="url(#b)" fill="#fff" d="M80 63.1s-.2 2.1-.5 6.8c0 2.2-.5 5.9-1 10.4v.1c-.1.1-.4.5-.7.9-2.7 3.2-6.9 8.1-11.6 13.5l-.2.1h-8.7l-.1-.1c-1.3-1.5-2.5-3-3.7-4.4l-1.8-2.1-.9-1-.9-.9c-2.4-2.4-4.6-4.4-6.3-6.3v-.2c-.2-5.3-.4-9.5-.5-12.4 0-1.5 0-2.6.1-3.3 0-.4.1-.7.1-.8v0c0 .2-.1.5-.1.9-.1.7 0 1.9.1 3.3.2 2.9.5 7.1.8 12.4v-.1c1.7 1.8 4 3.8 6.4 6.2l.9.9.9 1 1.8 2.1c1.2 1.4 2.5 2.9 3.8 4.4l-.3-.1h8.3l-.3.1c4.7-5.4 9-10.2 11.8-13.3.3-.4.6-.8.7-.9v.1c.7-4.5 1.2-8.1 1.3-10.3.4-4.9.6-7 .6-7"/><path clip-path="url(#b)" stroke="#fff" stroke-miterlimit="10" d="M80 63.1s-.2 2.1-.5 6.8c0 2.2-.5 5.9-1 10.4v.1c-.1.1-.4.5-.7.9-2.7 3.2-6.9 8.1-11.6 13.5l-.2.1h-8.7l-.1-.1c-1.3-1.5-2.5-3-3.7-4.4l-1.8-2.1-.9-1-.9-.9c-2.4-2.4-4.6-4.4-6.3-6.3v-.2c-.2-5.3-.4-9.5-.5-12.4 0-1.5 0-2.6.1-3.3 0-.4.1-.7.1-.8v0c0 .2-.1.5-.1.9-.1.7 0 1.9.1 3.3.2 2.9.5 7.1.8 12.4v-.1c1.7 1.8 4 3.8 6.4 6.2l.9.9.9 1 1.8 2.1c1.2 1.4 2.5 2.9 3.8 4.4l-.3-.1h8.3l-.3.1c4.7-5.4 9-10.2 11.8-13.3.3-.4.6-.8.7-.9v.1c.7-4.5 1.2-8.1 1.3-10.3.4-4.9.6-7 .6-7z" fill="none"/><path clip-path="url(#b)" fill="#fff" d="M59.7 70.9s-.2-4-.3-9.9c0 0 .1.2.1.3-.6-.5-1.7-1.3-2.7-2.1-1.5-1.1-2.8-2.2-4.1-3.1-.6-.5-1.2-.9-1.8-1.3-.3-.2-.6-.4-.8-.5l-.2-.1h-.2s-.2.1-.3.2c-.9.8-1.5 1.6-1.9 2.1-.4.5-.7.8-.7.8l.6-.9c.4-.6.9-1.4 1.8-2.3.1-.1.2-.2.5-.3h.30000000000000004c.1 0 .2 0 .2.1.4.1.7.3 1 .5l1.9 1.2c1.3.9 2.8 1.9 4.2 3 1.1.8 2.1 1.6 2.7 2.1l.1.1v.2c-.2 6-.4 9.9-.4 9.9"/><path clip-path="url(#b)" stroke="#fff" stroke-miterlimit="10" d="M59.7 70.9s-.2-4-.3-9.9c0 0 .1.2.1.3-.6-.5-1.7-1.3-2.7-2.1-1.5-1.1-2.8-2.2-4.1-3.1-.6-.5-1.2-.9-1.8-1.3-.3-.2-.6-.4-.8-.5l-.2-.1h-.2s-.2.1-.3.2c-.9.8-1.5 1.6-1.9 2.1-.4.5-.7.8-.7.8l.6-.9c.4-.6.9-1.4 1.8-2.3.1-.1.2-.2.5-.3h.30000000000000004c.1 0 .2 0 .2.1.4.1.7.3 1 .5l1.9 1.2c1.3.9 2.8 1.9 4.2 3 1.1.8 2.1 1.6 2.7 2.1l.1.1v.2c-.2 6-.4 9.9-.4 9.9z" fill="none"/><path clip-path="url(#b)" fill="#fff" d="M65.6 84.1c1.7-1.6 1.7-5.8 1.7-7h-10.5c-.2 1.7 0 4.7 1.6 7h7.2z"/><path clip-path="url(#b)" stroke="#fff" stroke-miterlimit="10" d="M65.6 84.1c1.7-1.6 1.7-5.8 1.7-7h-10.5c-.2 1.7 0 4.7 1.6 7h7.2z" fill="none"/><path clip-path="url(#b)" fill="#fff" d="M59.7 73.8s.1.1.4.2l.4.2c.2.1.4.1.6.1.5.1 1.1.1 1.7-.1.6-.2 1.3-.7 1.6-1.4v.1c-.1-2.7-.2-6.6-.2-10.8v-1.1l.2-.1c4.4-2.6 8.2-4.7 10.2-5.8l.1-.1.1.1c1.6 2.2 2.3 3.2 2.3 3.2s-.8-.9-2.6-3h.2c-1.9 1.2-5.6 3.6-10 6.2l.2-.3v.9c0 4.2-.1 8.1-.2 10.8-.4.9-1.2 1.3-1.9 1.6-.7.2-1.3.2-1.8 0-.2-.1-.5-.1-.6-.2-.2-.1-.3-.2-.4-.2l-.3-.3"/><path clip-path="url(#b)" stroke="#fff" stroke-miterlimit="10" d="M59.7 73.8s.1.1.4.2l.4.2c.2.1.4.1.6.1.5.1 1.1.1 1.7-.1.6-.2 1.3-.7 1.6-1.4v.1c-.1-2.7-.2-6.6-.2-10.8v-1.1l.2-.1c4.4-2.6 8.2-4.7 10.2-5.8l.1-.1.1.1c1.6 2.2 2.3 3.2 2.3 3.2s-.8-.9-2.6-3h.2c-1.9 1.2-5.6 3.6-10 6.2l.2-.3v.9c0 4.2-.1 8.1-.2 10.8-.4.9-1.2 1.3-1.9 1.6-.7.2-1.3.2-1.8 0-.2-.1-.5-.1-.6-.2-.2-.1-.3-.2-.4-.2l-.3-.3z" fill="none"/><path clip-path="url(#b)" fill="#fff" d="M58.8 73.4l-.1.1c-.1.1-.2.2-.4.3-.2.1-.5.2-.8.2-.4 0-.7-.4-.8-.8-.2-.8 0-1.3.2-1.7.2-.4.4-.6.4-.6s-.1 1.1.2 2.1c.1.2.2.3.3.4.2.1.4.1.6.1.2 0 .4 0 .5-.1h-.1"/><path clip-path="url(#b)" stroke="#fff" stroke-miterlimit="10" d="M58.8 73.4l-.1.1c-.1.1-.2.2-.4.3-.2.1-.5.2-.8.2-.4 0-.7-.4-.8-.8-.2-.8 0-1.3.2-1.7.2-.4.4-.6.4-.6s-.1 1.1.2 2.1c.1.2.2.3.3.4.2.1.4.1.6.1.2 0 .4 0 .5-.1h-.1z" fill="none"/><path clip-path="url(#b)" fill="#fff" d="M58.4 84.1l-6.2-7h4.5c-.1 1.7.1 4.7 1.7 7"/><path clip-path="url(#b)" stroke="#fff" stroke-miterlimit="10" d="M58.4 84.1l-6.2-7h4.5c-.1 1.7.1 4.7 1.7 7z" fill="none"/><path clip-path="url(#b)" fill="#fff" d="M67.3 77.1h3.9l-5.6 7c1.7-1.6 1.7-5.8 1.7-7"/><path clip-path="url(#b)" stroke="#fff" stroke-miterlimit="10" d="M67.3 77.1h3.9l-5.6 7c1.7-1.6 1.7-5.8 1.7-7z" fill="none"/><path clip-path="url(#b)" fill="#fff" d="M64.6 72.8s.1 0 .2.1.3.2.6.2c.2.1.5.1.7.1.1 0 .2-.3.1-.7 0-.7-.2-1.4-.4-1.8-.1-.2-.2-.4-.2-.6-.1-.1-.1-.2-.1-.2s.1.1.2.1c.1.1.3.2.5.4.4.4.8 1.1.8 2 0 .2 0 .5-.1.7-.1.2-.3.5-.6.6-.1.1-.3 0-.4 0-.1 0-.2 0-.3-.1-.2-.1-.3-.2-.4-.3-.2-.2-.4-.3-.5-.5h-.1"/><path clip-path="url(#b)" stroke="#fff" stroke-miterlimit="10" d="M64.6 72.8s.1 0 .2.1.3.2.6.2c.2.1.5.1.7.1.1 0 .2-.3.1-.7 0-.7-.2-1.4-.4-1.8-.1-.2-.2-.4-.2-.6-.1-.1-.1-.2-.1-.2s.1.1.2.1c.1.1.3.2.5.4.4.4.8 1.1.8 2 0 .2 0 .5-.1.7-.1.2-.3.5-.6.6-.1.1-.3 0-.4 0-.1 0-.2 0-.3-.1-.2-.1-.3-.2-.4-.3-.2-.2-.4-.3-.5-.5h-.1z" fill="none"/><path clip-path="url(#b)" fill="#fff" d="M52.3 77.1s2.2 2.4 6.3 6.8c0 0-.1 0-.2-.1 1.5 0 4.2-.1 7.1-.1 0 0-.2.1-.3.1.8-1 2.2-2.7 3.5-4.5l2-2.5c.1.3.2.4.3.6-10.8 0-18.7-.3-18.7-.3s8-.3 18.9-.4h.7l-.5.6c-.5.6-1.2 1.5-2 2.5-1.4 1.7-2.8 3.4-3.6 4.4l-.1.1h-.2c-2.9 0-5.6-.1-7.1-.1h-.1l-.1-.1c-3.9-4.5-5.9-7-5.9-7"/><path clip-path="url(#b)" stroke="#fff" stroke-miterlimit="10" d="M52.3 77.1s2.2 2.4 6.3 6.8c0 0-.1 0-.2-.1 1.5 0 4.2-.1 7.1-.1 0 0-.2.1-.3.1.8-1 2.2-2.7 3.5-4.5l2-2.5c.1.3.2.4.3.6-10.8 0-18.7-.3-18.7-.3s8-.3 18.9-.4h.7l-.5.6c-.5.6-1.2 1.5-2 2.5-1.4 1.7-2.8 3.4-3.6 4.4l-.1.1h-.2c-2.9 0-5.6-.1-7.1-.1h-.1l-.1-.1c-3.9-4.5-5.9-7-5.9-7z" fill="none"/><path clip-path="url(#b)" fill="#fff" d="M73.2 78.8s0-.3-.1-.7c-.1-.4-.2-.9-.4-1.5-.1-.6-.2-1.2-.3-1.5-.1-.4-.2-.7-.2-.7s.3.1.5.5c.3.4.6.9.7 1.6.1.6.1 1.3 0 1.7 0 .4-.2.6-.2.6"/><path clip-path="url(#b)" stroke="#fff" stroke-miterlimit="10" d="M73.2 78.8s0-.3-.1-.7c-.1-.4-.2-.9-.4-1.5-.1-.6-.2-1.2-.3-1.5-.1-.4-.2-.7-.2-.7s.3.1.5.5c.3.4.6.9.7 1.6.1.6.1 1.3 0 1.7 0 .4-.2.6-.2.6z" fill="none"/><path clip-path="url(#b)" fill="#fff" d="M50 80.6s-.3-.3-.6-.7c-.2-.3-.3-.6-.5-1-.1-.4-.2-.9-.2-1.3 0-1 .3-1.8.7-2.3.2-.3.3-.5.5-.6l.2-.2s0 .1-.1.2c-.1.2-.2.4-.2.7-.1.5-.3 1.3-.3 2.2l.1 1.2c.1.4.1.7.2 1l.2.8"/><path clip-path="url(#b)" stroke="#fff" stroke-miterlimit="10" d="M50 80.6s-.3-.3-.6-.7c-.2-.3-.3-.6-.5-1-.1-.4-.2-.9-.2-1.3 0-1 .3-1.8.7-2.3.2-.3.3-.5.5-.6l.2-.2s0 .1-.1.2c-.1.2-.2.4-.2.7-.1.5-.3 1.3-.3 2.2l.1 1.2c.1.4.1.7.2 1l.2.8z" fill="none"/><path clip-path="url(#b)" fill="#fff" d="M74.8 64.1v-.5c0-.1 0-.3-.1-.5-.1-.1-.3-.3-.5-.4-.4-.4-.9-.7-1.5-1.1-.2-.1-.5-.1-.9-.1h-3.6c-.6.3-1.1.7-1.5 1v-.1c-.1 1.1-.2 1.6-.2 1.6s-.1-.6-.2-1.6v-.1l.1-.1c.4-.4.8-.9 1.5-1.3.1.1.3.1.4.1h.8999999999999999c.4 0 .8 0 1.3-.1h1.7999999999999998c.2 0 .5.1.7.2.6.4 1 1 1.4 1.4l.5.6v.6c-.1.3-.1.4-.1.4"/><path clip-path="url(#b)" stroke="#fff" stroke-miterlimit="10" d="M74.8 64.1v-.5c0-.1 0-.3-.1-.5-.1-.1-.3-.3-.5-.4-.4-.4-.9-.7-1.5-1.1-.2-.1-.5-.1-.9-.1h-3.6c-.6.3-1.1.7-1.5 1v-.1c-.1 1.1-.2 1.6-.2 1.6s-.1-.6-.2-1.6v-.1l.1-.1c.4-.4.8-.9 1.5-1.3.1.1.3.1.4.1h.8999999999999999c.4 0 .8 0 1.3-.1h1.7999999999999998c.2 0 .5.1.7.2.6.4 1 1 1.4 1.4l.5.6v.6c-.1.3-.1.4-.1.4z" fill="none"/><path clip-path="url(#b)" fill="#fff" d="M72.7 61.3v.5c0 .3 0 .8-.3 1.4-.1.1-.2.3-.2.4-.1.1-.2.3-.4.4-.3.2-.8.4-1.1.5h-.6c-.2 0-.4-.1-.7-.2-.5-.2-.9-.5-1.1-1-.3-.8-.3-1.6-.3-2.1v-.3h.3c2.7 0 4.5.3 4.4.4 0-.1-1.7.1-4.4.3l.3-.3c0 .4 0 1.1.3 1.7.3.7 1.1.9 1.7.9.4 0 .6-.1.9-.3l.3-.3.3-.3c.3-.5.4-.9.5-1.2.1-.4.1-.5.1-.5"/><path clip-path="url(#b)" stroke="#fff" stroke-miterlimit="10" d="M72.7 61.3v.5c0 .3 0 .8-.3 1.4-.1.1-.2.3-.2.4-.1.1-.2.3-.4.4-.3.2-.8.4-1.1.5h-.6c-.2 0-.4-.1-.7-.2-.5-.2-.9-.5-1.1-1-.3-.8-.3-1.6-.3-2.1v-.3h.3c2.7 0 4.5.3 4.4.4 0-.1-1.7.1-4.4.3l.3-.3c0 .4 0 1.1.3 1.7.3.7 1.1.9 1.7.9.4 0 .6-.1.9-.3l.3-.3.3-.3c.3-.5.4-.9.5-1.2.1-.4.1-.5.1-.5z" fill="none"/><path clip-path="url(#b)" fill="#fff" d="M49.3 64.1s0-.2-.1-.5v-.6c.1-.2.3-.4.5-.6.4-.4.8-.9 1.4-1.4.2-.2.5-.2.7-.2h1.7999999999999998c.4 0 .9 0 1.3.1h.8999999999999999l.4.1c.7.4 1.1.9 1.5 1.3l.1.1v.1c-.1 1.1-.2 1.6-.2 1.6s-.1-.6-.2-1.6c0 0 0 .1.1.1-.4-.3-.9-.7-1.5-1h-3.6000000000000005c-.4 0-.8 0-.9.1-.6.4-1 .8-1.5 1.1-.2.2-.4.3-.5.4-.1.2-.1.4-.1.5-.1.3-.1.4-.1.4"/><path clip-path="url(#b)" stroke="#fff" stroke-miterlimit="10" d="M49.3 64.1s0-.2-.1-.5v-.6c.1-.2.3-.4.5-.6.4-.4.8-.9 1.4-1.4.2-.2.5-.2.7-.2h1.7999999999999998c.4 0 .9 0 1.3.1h.8999999999999999l.4.1c.7.4 1.1.9 1.5 1.3l.1.1v.1c-.1 1.1-.2 1.6-.2 1.6s-.1-.6-.2-1.6c0 0 0 .1.1.1-.4-.3-.9-.7-1.5-1h-3.6000000000000005c-.4 0-.8 0-.9.1-.6.4-1 .8-1.5 1.1-.2.2-.4.3-.5.4-.1.2-.1.4-.1.5-.1.3-.1.4-.1.4z" fill="none"/><path clip-path="url(#b)" fill="#fff" d="M81.4 32l.2.2c.2.2.4.4.7.8.5.8 1.2 2 1.7 3.9s.8 4.2.8 7.2c0 1.5 0 3.1-.2 4.8l-.3 2.7c-.1.9-.2 1.9-.6 2.9l-.2.5-.1-.6c-.1-.4-.4-1-1-1.4-.2-.1-.3-.2-.5-.2s-.3 0-.3.1c0 .4-.1.9-.1 1.4-.2 2-.4 4.4-.7 6.9v.2h-1.7v-.2c0-1.1 0-3.8.1-6.7v.1c-.3-.7-1.1-2.3-1.9-4l-.1-.1.1-.1s.1-.2.1-.3c.5-1.7 1.1-3.6 1.7-5.6.8-2 0-4.4-1.8-6-.9-.8-2-1.4-3.2-1.9-.6-.2-1.2-.4-1.9-.4-.7-.1-1.3-.1-1.9 0-1.3.2-2.6.6-4 1-1.3.5-2.8 1-4.3.8h-.9c-1.4-.1-2.6-.6-3.8-1-1.2-.4-2.4-.8-3.6-.9h-.9l-.9.1c-.6.1-1.2.2-1.8.4-1.1.4-2.1.9-3 1.7-.9.7-1.7 1.6-2 2.6-.4 1-.5 2.1-.2 3.1.6 2.1 1.3 4.2 1.9 6.1v.1l-.1.1c-.7 1.5-1.3 2.7-1.9 3.8v-.1c.1 2.8.1 5 .2 7.1v.3h-2.4v-.3c.2-1.7 0-3.2 0-4.6-.1-1.4-.2-2.7-.3-3.9l.2.2c-.8-.2-1.5-.1-2.1.3-.5.3-.9.8-1.1 1.3l-.2.4-.1-.4c-.3-1-.3-1.8-.4-2.7-.1-.9-.1-1.7-.1-2.5 0-1.6 0-3.2.1-4.6.2-2.9.6-5.3 1.1-7.2.5-1.9 1.2-3.4 1.9-4.2.3-.4.6-.7.8-.9l.3-.3-.3.3c-.2.2-.4.5-.7.9-.6.9-1.3 2.3-1.8 4.2-.5 1.9-.9 4.4-1 7.2-.1 1.4-.1 2.9 0 4.6 0 .8.1 1.6.2 2.5.1.8.1 1.8.4 2.5h-.3c.3-.6.6-1.1 1.2-1.5.6-.4 1.5-.6 2.4-.4h.2v.2c.1 1.2.2 2.5.3 3.9.1 1.4.3 2.9.1 4.8-.1-.1-.1-.2-.3-.3h1.8l-.3.3c-.1-2.1-.2-4.3-.3-7.1v-.2c.5-1.1 1.1-2.3 1.8-3.8v.2c-.6-1.9-1.3-4-1.9-6.1-.4-1.2-.2-2.4.2-3.6.4-1.2 1.3-2.1 2.2-2.9 1-.8 2.1-1.4 3.3-1.8.6-.2 1.2-.3 1.9-.4.3-.1.6-.1 1-.1h1c2.6.2 5 1.6 7.4 1.9h.8c1.3.1 2.7-.4 4-.8 1.3-.4 2.7-.9 4.1-1.1.7-.1 1.4-.1 2.1.1.7.1 1.4.3 2 .5 1.3.4 2.5 1.1 3.4 2 2 1.7 2.9 4.6 2 6.7-.6 2.1-1.2 4-1.8 5.6-.1.1-.1.2-.1.3v-.3c.8 1.7 1.6 3.3 1.9 4v.2c-.1 2.8-.1 5.6-.2 6.7l-.2-.2h1.3l-.2.2c.3-2.5.5-4.9.7-6.9 0-.5.1-1 .1-1.4 0-.2.2-.4.3-.4h.4c.2 0 .4.1.6.3.7.5 1.1 1.1 1.1 1.7h-.3c.3-.9.4-1.9.6-2.8l.3-2.7c.2-1.7.2-3.3.2-4.8 0-2.9-.3-5.3-.7-7.2-.4-1.8-1.1-3.1-1.6-3.9-.3-.4-.5-.6-.6-.8.1-.2 0-.3 0-.3"/><path clip-path="url(#b)" stroke="#fff" stroke-miterlimit="10" d="M81.4 32l.2.2c.2.2.4.4.7.8.5.8 1.2 2 1.7 3.9s.8 4.2.8 7.2c0 1.5 0 3.1-.2 4.8l-.3 2.7c-.1.9-.2 1.9-.6 2.9l-.2.5-.1-.6c-.1-.4-.4-1-1-1.4-.2-.1-.3-.2-.5-.2s-.3 0-.3.1c0 .4-.1.9-.1 1.4-.2 2-.4 4.4-.7 6.9v.2h-1.7v-.2c0-1.1 0-3.8.1-6.7v.1c-.3-.7-1.1-2.3-1.9-4l-.1-.1.1-.1s.1-.2.1-.3c.5-1.7 1.1-3.6 1.7-5.6.8-2 0-4.4-1.8-6-.9-.8-2-1.4-3.2-1.9-.6-.2-1.2-.4-1.9-.4-.7-.1-1.3-.1-1.9 0-1.3.2-2.6.6-4 1-1.3.5-2.8 1-4.3.8h-.9c-1.4-.1-2.6-.6-3.8-1-1.2-.4-2.4-.8-3.6-.9h-.9l-.9.1c-.6.1-1.2.2-1.8.4-1.1.4-2.1.9-3 1.7-.9.7-1.7 1.6-2 2.6-.4 1-.5 2.1-.2 3.1.6 2.1 1.3 4.2 1.9 6.1v.1l-.1.1c-.7 1.5-1.3 2.7-1.9 3.8v-.1c.1 2.8.1 5 .2 7.1v.3h-2.4v-.3c.2-1.7 0-3.2 0-4.6-.1-1.4-.2-2.7-.3-3.9l.2.2c-.8-.2-1.5-.1-2.1.3-.5.3-.9.8-1.1 1.3l-.2.4-.1-.4c-.3-1-.3-1.8-.4-2.7-.1-.9-.1-1.7-.1-2.5 0-1.6 0-3.2.1-4.6.2-2.9.6-5.3 1.1-7.2.5-1.9 1.2-3.4 1.9-4.2.3-.4.6-.7.8-.9l.3-.3-.3.3c-.2.2-.4.5-.7.9-.6.9-1.3 2.3-1.8 4.2-.5 1.9-.9 4.4-1 7.2-.1 1.4-.1 2.9 0 4.6 0 .8.1 1.6.2 2.5.1.8.1 1.8.4 2.5h-.3c.3-.6.6-1.1 1.2-1.5.6-.4 1.5-.6 2.4-.4h.2v.2c.1 1.2.2 2.5.3 3.9.1 1.4.3 2.9.1 4.8-.1-.1-.1-.2-.3-.3h1.8l-.3.3c-.1-2.1-.2-4.3-.3-7.1v-.2c.5-1.1 1.1-2.3 1.8-3.8v.2c-.6-1.9-1.3-4-1.9-6.1-.4-1.2-.2-2.4.2-3.6.4-1.2 1.3-2.1 2.2-2.9 1-.8 2.1-1.4 3.3-1.8.6-.2 1.2-.3 1.9-.4.3-.1.6-.1 1-.1h1c2.6.2 5 1.6 7.4 1.9h.8c1.3.1 2.7-.4 4-.8 1.3-.4 2.7-.9 4.1-1.1.7-.1 1.4-.1 2.1.1.7.1 1.4.3 2 .5 1.3.4 2.5 1.1 3.4 2 2 1.7 2.9 4.6 2 6.7-.6 2.1-1.2 4-1.8 5.6-.1.1-.1.2-.1.3v-.3c.8 1.7 1.6 3.3 1.9 4v.2c-.1 2.8-.1 5.6-.2 6.7l-.2-.2h1.3l-.2.2c.3-2.5.5-4.9.7-6.9 0-.5.1-1 .1-1.4 0-.2.2-.4.3-.4h.4c.2 0 .4.1.6.3.7.5 1.1 1.1 1.1 1.7h-.3c.3-.9.4-1.9.6-2.8l.3-2.7c.2-1.7.2-3.3.2-4.8 0-2.9-.3-5.3-.7-7.2-.4-1.8-1.1-3.1-1.6-3.9-.3-.4-.5-.6-.6-.8.1-.2 0-.3 0-.3z" fill="none"/><path clip-path="url(#b)" fill="#fff" d="M79.3 69.9h.7c.4-.1 1.1-.3 1.6-.8.1-.1.3-.3.4-.5.1-.2.2-.4.4-.6.2-.4.5-.9.6-1.3.2-1 .3-2.2.4-3.4.2-2.5.3-4.7.3-6.3v-2.5999999999999996s.1.2.2.7c.1.4.2 1.1.3 1.9.2 1.6.2 3.9 0 6.4-.1 1.2-.2 2.4-.5 3.5-.1.6-.5 1-.7 1.4l-.4.6-.5.5c-.7.6-1.4.7-1.8.7-.7-.2-1-.2-1-.2"/><path clip-path="url(#b)" stroke="#fff" stroke-miterlimit="10" d="M79.3 69.9h.7c.4-.1 1.1-.3 1.6-.8.1-.1.3-.3.4-.5.1-.2.2-.4.4-.6.2-.4.5-.9.6-1.3.2-1 .3-2.2.4-3.4.2-2.5.3-4.7.3-6.3v-2.5999999999999996s.1.2.2.7c.1.4.2 1.1.3 1.9.2 1.6.2 3.9 0 6.4-.1 1.2-.2 2.4-.5 3.5-.1.6-.5 1-.7 1.4l-.4.6-.5.5c-.7.6-1.4.7-1.8.7-.7-.2-1-.2-1-.2z" fill="none"/><path clip-path="url(#b)" fill="#fff" d="M39.2 54.3v.2c0 .1-.1.3-.1.5-.1.5-.1 1.1-.1 1.9 0 1.6.1 3.9.2 6.4.1 1.2.1 2.5.3 3.5.1 1 .9 1.7 1.5 2.1 1.4.9 2.5.9 2.4.8 0 .1-1.1.3-2.6-.5-.4-.2-.8-.5-1.1-.8-.4-.3-.7-.9-.8-1.5-.2-1.1-.3-2.3-.4-3.6-.1-2.5-.1-4.9.1-6.5.1-.8.2-1.5.4-2 .1-.2.1-.4.2-.5"/><path clip-path="url(#b)" stroke="#fff" stroke-miterlimit="10" d="M39.2 54.3v.2c0 .1-.1.3-.1.5-.1.5-.1 1.1-.1 1.9 0 1.6.1 3.9.2 6.4.1 1.2.1 2.5.3 3.5.1 1 .9 1.7 1.5 2.1 1.4.9 2.5.9 2.4.8 0 .1-1.1.3-2.6-.5-.4-.2-.8-.5-1.1-.8-.4-.3-.7-.9-.8-1.5-.2-1.1-.3-2.3-.4-3.6-.1-2.5-.1-4.9.1-6.5.1-.8.2-1.5.4-2 .1-.2.1-.4.2-.5z" fill="none"/><path clip-path="url(#b)" fill="#fff" d="M77.5 86.4s-2.1 2.7-5 5.6c-2.9 3-5.5 5.1-5.5 5.1s2.1-2.7 5-5.6c2.9-3 5.5-5.1 5.5-5.1"/><path clip-path="url(#b)" stroke="#fff" stroke-miterlimit="10" d="M77.5 86.4s-2.1 2.7-5 5.6c-2.9 3-5.5 5.1-5.5 5.1s2.1-2.7 5-5.6c2.9-3 5.5-5.1 5.5-5.1z" fill="none"/><path clip-path="url(#b)" fill="#fff" d="M51.6 96.2s-2-2-4.2-4.7c-2.1-2.7-3.6-5.2-3.6-5.2s2 2 4.2 4.7c2.2 2.8 3.6 5.2 3.6 5.2"/><path clip-path="url(#b)" stroke="#fff" stroke-miterlimit="10" d="M51.6 96.2s-2-2-4.2-4.7c-2.1-2.7-3.6-5.2-3.6-5.2s2 2 4.2 4.7c2.2 2.8 3.6 5.2 3.6 5.2z" fill="none"/><rect x="61.6" y="107.2" transform="matrix(.997 .072 -.072 .997 8.134 -4.179)" clip-path="url(#b)" fill="#fff" width=".2" height="5.9"/><rect x="61.6" y="107.2" transform="matrix(.997 .072 -.072 .997 8.134 -4.179)" clip-path="url(#b)" stroke="#fff" stroke-miterlimit="10" width=".2" height="5.9" fill="none"/><rect x="56" y="106.6" clip-path="url(#b)" fill="#fff" width=".2" height="6.5"/><rect x="56" y="106.6" clip-path="url(#b)" stroke="#fff" stroke-miterlimit="10" width=".2" height="6.5" fill="none"/><path clip-path="url(#b)" fill="#fff" d="M59.7 61.1s-.8-.4-2.2-1.2c-1.3-.8-3.1-1.9-4.9-3.2-.9-.6-1.8-1.3-2.6-1.8l-.2-.1-.2-.1h0c-.1 0-.2.1-.2.2l-.9.8c-1.1 1-1.8 1.7-1.8 1.7s.4-.9 1.2-2.2c.2-.3.4-.7.7-1.1l.3-.3.2-.2.1-.1.3-.1h.5c.1 0 .3.1.5.2 1.1.5 1.9 1 2.9 1.7 1.9 1.3 3.5 2.8 4.5 3.8 1.1 1.2 1.8 2 1.8 2"/><path clip-path="url(#b)" stroke="#fff" stroke-miterlimit="10" d="M59.7 61.1s-.8-.4-2.2-1.2c-1.3-.8-3.1-1.9-4.9-3.2-.9-.6-1.8-1.3-2.6-1.8l-.2-.1-.2-.1h0c-.1 0-.2.1-.2.2l-.9.8c-1.1 1-1.8 1.7-1.8 1.7s.4-.9 1.2-2.2c.2-.3.4-.7.7-1.1l.3-.3.2-.2.1-.1.3-.1h.5c.1 0 .3.1.5.2 1.1.5 1.9 1 2.9 1.7 1.9 1.3 3.5 2.8 4.5 3.8 1.1 1.2 1.8 2 1.8 2z" fill="none"/><path clip-path="url(#b)" fill="#fff" d="M64.6 61.1s2.6-2.4 6.4-4.6c1.3-.8 2.6-1.4 3.5-1.8l.5-.2.2.3c1.4 2.1 2 3.4 2 3.4s-1.2-1-2.9-2.8c.2 0 .4.1.7.1-.8.6-1.9 1.4-3.2 2.2-3.8 2.2-7.2 3.4-7.2 3.4"/><path clip-path="url(#b)" stroke="#fff" stroke-miterlimit="10" d="M64.6 61.1s2.6-2.4 6.4-4.6c1.3-.8 2.6-1.4 3.5-1.8l.5-.2.2.3c1.4 2.1 2 3.4 2 3.4s-1.2-1-2.9-2.8c.2 0 .4.1.7.1-.8.6-1.9 1.4-3.2 2.2-3.8 2.2-7.2 3.4-7.2 3.4z" fill="none"/><path clip-path="url(#b)" fill="#fff" d="M44.5 82.7l.1-3.1c-.2-3.8-.5-10.1-.5-10.1-.7.3-3.8-.8-4.2-2.6-.5-1.8-.9-10.9 0-12.9l-.1-.2c-.6-2.3-1.5-17.5 3.5-22.1 5.2-4.8 7.6-5.2 18.1-4.3h2.5c10.6-.9 12.9-.5 18.1 4.3 5.1 4.7 2.9 20.7 2.2 22.3l.1.8c.5 1.9 0 10.9-.6 12.1-.6 1.2-1.6 3-3.8 2.7.2 1.4-1.2 10.3-1.2 10.3l-.7.9v6.199999999999999l-18.5 19.8-14.9-19.6-.1-4.5z"/><path clip-path="url(#b)" fill="#231F20" d="M84.3 53.9c.7-1.6 2.9-17.6-2.2-22.3-5.2-4.8-7.6-5.2-18.1-4.3h-2.5c-10.6-.9-13-.5-18.1 4.3-5 4.6-4.1 19.8-3.5 22.1l.1.2c.4-.8 1.4-2.2 3.4-1.8 0 .8.7 6.4.4 8.6h1.8s-.2-4.1-.2-7.1l1.8-3.8s-1.4-4.4-1.9-6.3c-.5-1.9.5-3.8.5-3.8s2-3.9 7.7-4.4c3.4-.1 6.4 2.2 9.3 1.9h.1c2.9.2 5.9-2 9.3-1.9 5.7.5 7.7 4.4 7.7 4.4s1.1 1.9.5 3.8c-.5 1.9-1.9 6.3-1.9 6.3l-.1.3 1.9 4-.1 6.7h1.3s.8-7.5.8-8.3c-.1-.7 1.8 0 2 1.4"/><path clip-path="url(#b)" d="M69.5 26.9c5.2 0 7.5 1.2 11.4 4.7 5.1 4.7 2.9 20.7 2.2 22.3l.1.8c.5 1.9 0 10.9-.6 12.1-.6 1.1-1.5 2.7-3.3 2.7h-.5c.2 1.4-1.2 10.3-1.2 10.3l-.6 1v2.9h1.6l4.9 5.7c9.4 3.4 29.4 14 29.4 14l8.5 26.5h-125.9l13.2-29.6 32.7-15.7 1.9-2 .1-3.1c-.2-3.8-.5-10.1-.5-10.1l-.3.1c-1 0-3.5-1-3.9-2.7-.5-1.8-.9-10.9 0-12.9l-.1-.2c-.6-2.3-1.5-17.5 3.5-22.1 3.8-3.5 6.1-4.7 11.3-4.7 1.8 0 4 .1 6.8.4h2.5c2.8-.2 5-.4 6.8-.4m0-1c-1.7 0-3.7.1-6.8.4h-2.4c-3.1-.3-5.2-.4-6.8-.4-5.7 0-8.2 1.5-12 5-5.3 4.9-4.5 20.3-3.8 23.1-.9 2.8-.3 11.5.1 13.2.5 1.9 2.8 3.1 4.2 3.4.1 1.9.4 6.2.5 9.1l-.1 2.7-1.5 1.6-32.5 15.5-.2.1-.1.1-13.2 29.6-1.5 1.7h130.00000000000003l-1.1-1.6-8.5-26.5-.1-.2-.2-.1c-.8-.4-19.8-10.6-29.3-14l-4.8-5.5-.3-.3h-1.1v-1.6l.5-.7.1-.2v-.2c.2-1.3 1-6.9 1.2-9.5 2.2-.3 3.2-2.3 3.7-3.2.8-1.6 1.2-10.7.7-12.7l-.1-.7c.7-2.7 2.8-18.1-2.6-23.1-3.8-3.5-6.3-5-12-5"/><polygon clip-path="url(#b)" fill="#231F20" points="-4.4,130 8.8,100.4 43.5,83.7 40.9,130"/><path clip-path="url(#b)" fill="#fff" d="M43.5 83.7l-2.6 46.3h-45.3l13.3-29.6 34.6-16.7zm.3-.4l-.4.2-34.7 16.7-13.2 29.6-.4.4h46.1v-.2l2.7-46.2-.1-.5z"/><path clip-path="url(#b)" fill="#231F20" d="M80.1 88.5l-7 41.5h48.4l-8.5-26.5s-26.5-14.2-32.9-15"/><path clip-path="url(#b)" fill="#fff" d="M80.1 88.5c6.4.8 32.9 15 32.9 15l8.5 26.5h-48.4l7-41.5m-.2-.3v.2l-7 41.5-.1.3h49.199999999999996l-.3-.4-8.5-26.5c-1.1-.6-26.6-14.2-33-15l-.3-.1z"/><polygon clip-path="url(#b)" fill="#fff" points="37,130 42.1,94.3 42.6,90.9 43.3,86 51.1,95.9 58.3,105.1 66.6,96.7 77,86 77,92 77,94.8 74.8,130"/><polygon clip-path="url(#b)" fill="#231F20" points="40.9,130 43.5,82.5 20.9,106.9 28.7,130"/><path clip-path="url(#b)" fill="#fff" d="M43.5 82.5l-2.6 47.5h-12.2l-7.8-23.1 22.6-24.4zm.3-.7l-.5.5-22.6 24.4-.1.1v.1l7.8 23.1.1.2h12.499999999999998v-.2l2.7-47.5.1-.7z"/><polygon clip-path="url(#b)" fill="#231F20" points="77,83.7 77,94.8 73.1,130 82.8,130 97.2,105.1 78.7,83.7"/><path clip-path="url(#b)" fill="#fff" d="M78.7 83.7l18.5 21.4-14.4 24.9h-9.7l3.9-35.2v-11.1h1.7zm.1-.2h-2v11.299999999999999l-3.9 35.2v.3h10.1l.1-.1 14.4-24.9.1-.2-.1-.1-18.7-21.5z"/><polygon clip-path="url(#b)" fill="#231F20" points="77,94.8 77,92 62.4,106.2 66.4,106.2"/><path clip-path="url(#b)" fill="#231F20" d="M42.1 94.3l.5-3.3c.9 1.2 12.2 15.9 12.2 15.9h-4.1l-8.6-12.6z"/><path clip-path="url(#b)" fill="#231F20" d="M55.7 106.2s-9.7-4.7-12.1-4.8c-1.2 1.6-1.4 14.4 2.1 18.5 1-.2 10.1-7.2 10.1-7.2 1.6 1 4.5.6 5.3 0 0 0 4.1 7 9.9 8.4 1.4-1.4 3.9-16.4 3.7-17.9-.2-1.4-10.7 1.9-13.2 3.6-.1.1-.5-2.5-5.8-.6"/><path clip-path="url(#b)" fill="#231F20" d="M61 112.7c-.8.6-3.7 1-5.3 0v-6.5c5.3-2 5.8.6 5.8.6l-.5 5.9z"/><polygon clip-path="url(#b)" fill="#fff" points="58.3,105.1 51.1,95.9 48.5,111.3"/><path clip-path="url(#b)" fill="#231F20" d="M58.3 105.1s-3.7 2.5-9.7 6.4l-.5.4.1-.7c.3-1.9.7-4.7 1.2-7.8.5-3 1-5.8 1.4-7.6l.1-.7.4.5c4.4 5.9 7 9.5 7 9.5s-2.9-3.4-7.5-9c.1 0 .3-.1.5-.1-.3 1.8-.7 4.7-1.2 7.7s-1 5.9-1.4 7.7c-.2-.1-.4-.3-.4-.3 6.2-3.8 10-6 10-6"/><polygon clip-path="url(#b)" fill="#fff" points="66.6,96.7 58.3,105.1 67.5,111.3"/><path clip-path="url(#b)" fill="#231F20" d="M66.6 96.7s.7 5.9 1.3 14.6l.1.7-.6-.4c-.8-.5-2.1-1.4-3.4-2.3-2.3-1.5-4.4-3-5.7-3.9l-.3-.2.3-.3c4.9-5.1 8.3-8.2 8.3-8.2s-3 3.4-8 8.6v-.5c1.4.9 3.6 2.3 5.8 3.8 1.3.9 2.6 1.8 3.4 2.3-.2.1-.4.3-.5.3-.6-8.5-.7-14.5-.7-14.5"/><path clip-path="url(#b)" fill="#231F20" d="M43.5 79.6s.2 1.1.3 2.9c0 1 0 2.5-.1 4-.2 3.8-.8 6.9-.8 6.9s-.2-3.1 0-6.9c.1-1.6.2-3 .4-4 .1-1.8.2-2.9.2-2.9"/><path clip-path="url(#b)" fill="#231F20" d="M77 94.8s-.4-3.1-.4-7 .4-7 .4-7 .4 3.1.4 7-.4 7-.4 7"/><path clip-path="url(#b)" fill="#231F20" d="M79.5 62.8s-.2 2.1-.5 6.8c0 2.2-.5 5.9-1 10.4v.1c-.1.1-.4.5-.7.9-2.7 3.2-6.9 8.1-11.6 13.5l-.1.1h-8.7l-.1-.1c-1.3-1.5-2.5-3-3.7-4.4l-1.8-2.1-.9-1-.9-.9c-2.4-2.4-4.6-4.4-6.3-6.3v-.2c-.2-5.3-.4-9.5-.5-12.4 0-1.5 0-2.6.1-3.3 0-.4.1-.7.1-.8v0c0 .2-.1.5-.1.9-.1.7 0 1.9.1 3.3.2 2.9.5 7.1.8 12.4v-.1c1.7 1.8 4 3.8 6.4 6.2l.9.9.9 1 1.8 2.1c1.2 1.4 2.5 2.9 3.8 4.4l-.3-.1h8.3l-.3.1c4.7-5.4 9-10.2 11.8-13.3.3-.4.6-.8.7-.9v.1c.7-4.5 1.2-8.1 1.3-10.3.3-4.9.5-7 .5-7"/><path clip-path="url(#b)" fill="#231F20" d="M59.2 70.6s-.2-4-.3-9.9c0 0 .1.2.1.3-.6-.5-1.7-1.3-2.7-2.1-1.5-1.1-2.8-2.2-4.1-3.1-.6-.5-1.2-.9-1.8-1.3-.3-.2-.6-.4-.8-.5l-.2-.1h-.2s-.2.1-.3.2c-.9.8-1.5 1.6-1.9 2.1-.4.5-.7.8-.7.8l.6-.9c.4-.6.9-1.4 1.8-2.3.1-.1.2-.2.5-.3h.30000000000000004c.1 0 .2 0 .2.1.4.1.7.3 1 .5l1.9 1.2c1.3.9 2.8 1.9 4.2 3 1.1.8 2.1 1.6 2.7 2.1l.1.1v.2c-.2 5.9-.4 9.9-.4 9.9"/><path clip-path="url(#b)" fill="#fff" d="M65.1 83.7c1.7-1.6 1.7-5.8 1.7-7h-10.5c-.2 1.7 0 4.7 1.6 7h7.2z"/><path clip-path="url(#b)" fill="#231F20" d="M59.2 73.5s.1.1.4.2l.4.2c.2.1.4.1.6.1.5.1 1.1.1 1.7-.1.6-.2 1.3-.7 1.6-1.4v.1c-.1-2.7-.2-6.6-.2-10.8v-1.1l.2-.1c4.4-2.6 8.2-4.7 10.2-5.8l.1-.1.1.1c1.6 2.2 2.3 3.2 2.3 3.2s-.8-.9-2.6-3h.2c-1.9 1.2-5.6 3.6-10 6.2l.2-.3v.9c0 4.2-.1 8.1-.2 10.8-.4.9-1.2 1.3-1.9 1.6-.7.2-1.3.2-1.8 0-.2-.1-.5-.1-.6-.2-.2-.1-.3-.2-.4-.2-.2-.3-.3-.3-.3-.3"/><path clip-path="url(#b)" fill="#231F20" d="M58.3 73.1l-.1.1c-.1.1-.2.2-.4.3-.2.1-.5.2-.8.2-.4 0-.7-.4-.8-.8-.2-.8 0-1.3.2-1.7.2-.4.4-.6.4-.6s-.1 1.1.2 2.1c.1.2.2.3.3.4.2.1.4.1.6.1.2 0 .4 0 .5-.1h-.1"/><path clip-path="url(#b)" fill="#231F20" d="M57.9 83.7l-6.2-7h4.5c-.1 1.8.1 4.7 1.7 7"/><path clip-path="url(#b)" fill="#231F20" d="M66.8 76.7h3.9l-5.6 7c1.7-1.6 1.7-5.7 1.7-7"/><path clip-path="url(#b)" fill="#231F20" d="M64.1 72.4s.1 0 .2.1.3.2.6.2c.2.1.5.1.7.1.1 0 .2-.3.1-.7 0-.7-.2-1.4-.4-1.8-.1-.2-.2-.4-.2-.6-.1-.1-.1-.2-.1-.2s.1.1.2.1c.1.1.3.2.5.4.4.4.8 1.1.8 2 0 .2 0 .5-.1.7-.1.2-.3.5-.6.6-.1.1-.3 0-.4 0-.1 0-.2 0-.3-.1-.2-.1-.3-.2-.4-.3-.2-.2-.4-.3-.5-.5-.1.1-.1 0-.1 0"/><path clip-path="url(#b)" fill="#231F20" d="M51.8 76.7s2.2 2.4 6.3 6.8c0 0-.1 0-.2-.1 1.5 0 4.2-.1 7.1-.1 0 0-.2.1-.3.1.8-1 2.2-2.7 3.5-4.5l2-2.5c.1.3.2.4.3.6-10.8 0-18.7-.3-18.7-.3s8-.3 18.9-.4h.7l-.5.7c-.5.6-1.2 1.5-2 2.5-1.4 1.7-2.8 3.4-3.6 4.4l-.1.1h-.2c-2.9 0-5.6-.1-7.1-.1h-.1l-.1-.1c-3.9-4.5-5.9-7.1-5.9-7.1"/><path clip-path="url(#b)" fill="#231F20" d="M72.7 78.5s0-.3-.1-.7c-.1-.4-.2-.9-.4-1.5-.1-.6-.2-1.2-.3-1.5-.1-.4-.2-.7-.2-.7s.3.1.5.5c.3.4.6.9.7 1.6.1.6.1 1.3 0 1.7 0 .4-.2.6-.2.6"/><path clip-path="url(#b)" fill="#231F20" d="M49.5 80.2s-.3-.3-.6-.7c-.2-.3-.3-.6-.5-1-.1-.4-.2-.9-.2-1.3 0-1 .3-1.8.7-2.3.2-.3.3-.5.5-.6l.2-.2s0 .1-.1.2c-.1.2-.2.4-.2.7-.1.5-.3 1.3-.3 2.2l.1 1.2c.1.4.1.7.2 1 .1.5.2.8.2.8"/><path clip-path="url(#b)" fill="#231F20" d="M72.8 61.6c-.4-.2-3.8 0-4.4 0-.1 1.3.3 2.9 2.2 2.9 1.8-.1 2.2-2 2.2-2.9"/><path clip-path="url(#b)" fill="#231F20" d="M51.4 61.6c.4-.2 3.8 0 4.4 0 .1 1.3-.3 2.9-2.2 2.9-1.9-.1-2.2-2-2.2-2.9"/><path clip-path="url(#b)" fill="#231F20" d="M74.3 63.8v-.5c0-.1 0-.3-.1-.5-.1-.1-.3-.3-.5-.4-.4-.4-.9-.7-1.5-1.1-.2-.1-.5-.1-.9-.1h-3.6c-.6.3-1.1.7-1.5 1v-.1c-.1 1.1-.2 1.6-.2 1.6s-.1-.6-.2-1.6v-.1l.1-.1c.4-.4.8-.9 1.5-1.3.1-.1.2-.1.4-.1h.8999999999999999c.4 0 .8 0 1.3-.1h1.7999999999999998c.2 0 .5.1.7.2.6.4 1 1 1.4 1.4l.5.6v.6c-.1.4-.1.6-.1.6"/><path clip-path="url(#b)" fill="#231F20" d="M72.2 60.9v.5c0 .3 0 .8-.3 1.4-.1.1-.2.3-.2.4-.1.1-.2.3-.4.4-.3.2-.8.4-1.1.5h-.6c-.2 0-.4-.1-.7-.2-.5-.2-.9-.5-1.1-1-.4-.8-.4-1.6-.3-2.1v-.3h.3c2.7.1 4.5.3 4.4.4 0-.1-1.7.1-4.4.3l.3-.3c0 .4 0 1.1.3 1.7.3.7 1.1.9 1.7.9.4 0 .6-.1.9-.3l.3-.3.3-.3c.3-.5.4-.9.5-1.2.1-.3.1-.5.1-.5"/><path clip-path="url(#b)" fill="#231F20" d="M48.8 63.8s0-.2-.1-.5v-.6c.1-.2.3-.4.5-.6.4-.4.8-.9 1.4-1.4.2-.2.5-.2.7-.2h1.7999999999999998c.4 0 .9 0 1.3.1h.8999999999999999l.4.1c.7.4 1.1.9 1.5 1.3l.1.1v.1c-.1 1.1-.2 1.6-.2 1.6s-.1-.6-.2-1.6v.1c-.4-.3-.9-.7-1.5-1h-3.6000000000000005c-.4 0-.8 0-.9.1-.6.4-1 .8-1.5 1.1-.2.2-.4.3-.5.4-.1.2-.1.4-.1.5v.4"/><path clip-path="url(#b)" fill="#231F20" d="M50.9 60.9s0 .2.1.5.2.7.5 1.2l.3.3.3.3c.2.1.5.2.9.3.6 0 1.4-.2 1.7-.9.3-.6.3-1.2.3-1.7.2.1.2.2.3.3-2.7-.2-4.4-.4-4.4-.3 0-.1 1.8-.3 4.4-.3h.3v.3c0 .5.1 1.3-.3 2.1-.2.4-.6.8-1.1 1-.2.1-.5.2-.7.2h-.6c-.3 0-.8-.2-1.1-.5l-.4-.4c-.1-.1-.2-.3-.2-.4-.2-.6-.3-1-.3-1.4-.1-.4 0-.6 0-.6"/><path clip-path="url(#b)" fill="#231F20" d="M80.9 31.6l.2.2c.2.2.4.4.7.8.5.8 1.2 2 1.7 3.9s.8 4.2.8 7.2c0 1.5 0 3.1-.2 4.8l-.3 2.7c-.1.9-.2 1.9-.6 2.9l-.2.5-.1-.6c-.1-.4-.4-1-1-1.4-.2-.1-.3-.2-.5-.2s-.3 0-.3.1c0 .4-.1.9-.1 1.4-.2 2-.4 4.4-.7 6.9v.2h-1.7v-.2c0-1.1 0-3.8.1-6.7v.1c-.3-.7-1.1-2.3-1.9-4l-.1-.1.1-.1s.1-.2.1-.3c.5-1.7 1.1-3.6 1.7-5.6.8-2 0-4.4-1.8-6-.9-.8-2-1.4-3.2-1.9-.6-.2-1.2-.4-1.9-.4-.7-.1-1.3-.1-1.9 0-1.3.2-2.6.6-4 1-1.3.4-2.8.9-4.3.8h-.8c-1.4-.1-2.6-.6-3.8-1-1.2-.4-2.4-.8-3.6-.9h-.9l-.9.1c-.6.1-1.2.2-1.8.4-1.1.4-2.2.9-3.1 1.7-.9.7-1.7 1.6-2 2.6-.4 1-.5 2.1-.2 3.1.6 2.1 1.3 4.2 1.9 6.1v.1l-.1.2c-.7 1.5-1.3 2.7-1.9 3.8v-.1c.1 2.8.1 5 .2 7.1v.3h-2.4v-.3c.2-1.7 0-3.2 0-4.6-.1-1.4-.2-2.7-.3-3.9l.2.2c-.8-.2-1.5-.1-2.1.3-.5.3-.9.8-1.1 1.3l-.2.4-.1-.4c-.3-1-.3-1.8-.4-2.7-.1-.9-.1-1.7-.1-2.5 0-1.6 0-3.2.1-4.6.2-2.9.6-5.3 1.1-7.2.5-1.9 1.2-3.4 1.9-4.2.3-.4.6-.7.8-.9l.3-.3-.3.3c-.2.2-.4.5-.7.9-.6.9-1.3 2.3-1.8 4.2-.5 1.9-.9 4.4-1 7.2-.1 1.4-.1 2.9 0 4.6 0 .8.1 1.6.2 2.5.1.8.1 1.8.4 2.5h-.3c.3-.6.6-1.1 1.2-1.5.6-.4 1.5-.6 2.4-.4h.2v.2c.1 1.2.2 2.5.3 3.9.1 1.4.3 2.9.1 4.8-.1-.1-.1-.2-.3-.3h1.8l-.3.3c-.1-2.1-.2-4.3-.3-7.1v-.2c.5-1.1 1.1-2.3 1.8-3.8v.2c-.6-1.9-1.3-4-1.9-6.1-.4-1.2-.2-2.4.2-3.6.4-1.2 1.3-2.1 2.2-2.9 1-.8 2.1-1.4 3.3-1.8.6-.2 1.2-.3 1.9-.4.3-.1.6-.1 1-.1h1c2.6.2 5 1.6 7.4 1.9h.8c1.3.1 2.7-.4 4-.8 1.3-.4 2.7-.9 4.1-1.1.7-.1 1.4-.1 2.1.1.7.1 1.4.3 2 .5 1.3.4 2.5 1.1 3.4 2 2 1.7 2.9 4.6 2 6.7-.6 2.1-1.2 4-1.8 5.6-.1.1-.1.2-.1.3v-.3c.8 1.7 1.6 3.3 1.9 4v.2c-.1 2.8-.1 5.6-.2 6.7l-.2-.2h1.3l-.2.2c.3-2.5.5-4.9.7-6.9 0-.5.1-1 .1-1.4 0-.2.2-.4.3-.4h.4c.2 0 .4.1.6.3.7.5 1.1 1.1 1.1 1.7h-.3c.3-.9.4-1.9.6-2.8l.3-2.7c.2-1.7.2-3.3.2-4.8 0-2.9-.3-5.3-.7-7.2-.4-1.8-1.1-3.1-1.6-3.9-.3-.4-.5-.6-.6-.8.1-.3 0-.4 0-.4"/><path clip-path="url(#b)" fill="#231F20" d="M78.8 69.6h.7c.4-.1 1.1-.3 1.6-.8.1-.1.3-.3.4-.5.1-.2.2-.4.4-.6.2-.4.5-.9.6-1.3.2-1 .3-2.2.4-3.4.2-2.5.3-4.7.3-6.3v-2.5999999999999996s.1.2.2.7c.1.4.2 1.1.3 1.9.2 1.6.2 3.9 0 6.4-.1 1.3-.2 2.4-.5 3.5-.1.6-.5 1-.7 1.4l-.4.6-.5.5c-.7.6-1.4.7-1.8.7-.7-.2-1-.2-1-.2"/><path clip-path="url(#b)" fill="#231F20" d="M38.7 54v.2c0 .1-.1.3-.1.5-.1.5-.1 1.1-.1 1.9 0 1.6.1 3.9.2 6.4.1 1.2.1 2.5.3 3.5.1 1 .9 1.7 1.5 2.1 1.4.9 2.5.9 2.4.8 0 .1-1.1.3-2.6-.5-.4-.2-.8-.5-1.1-.8-.4-.3-.7-.9-.8-1.5-.2-1.1-.3-2.3-.4-3.6-.2-2.5-.1-4.9.1-6.5.1-.8.2-1.5.4-2 .1-.2.1-.4.2-.5"/><path clip-path="url(#b)" fill="#231F20" d="M77 86s-2.1 2.7-5 5.6c-2.9 3-5.5 5.1-5.5 5.1s2.1-2.7 5-5.6c2.9-3 5.5-5.1 5.5-5.1"/><path clip-path="url(#b)" fill="#231F20" d="M51.1 95.9s-2-2-4.2-4.7c-2.1-2.7-3.6-5.2-3.6-5.2s2 2 4.2 4.7c2.2 2.8 3.6 5.2 3.6 5.2"/><rect x="61.1" y="106.9" transform="matrix(.997 .072 -.072 .997 8.105 -4.142)" clip-path="url(#b)" fill="#fff" width=".2" height="5.9"/><rect x="55.5" y="106.2" clip-path="url(#b)" fill="#fff" width=".2" height="6.5"/><path clip-path="url(#b)" fill="#231F20" d="M59.2 60.7s-.8-.4-2.2-1.2c-1.3-.8-3.1-1.9-4.9-3.2-.9-.6-1.8-1.3-2.6-1.8l-.2-.1-.2-.1h0c-.1 0-.2.1-.2.2l-.9.8c-1.1 1-1.8 1.7-1.8 1.7s.4-.9 1.2-2.2c.2-.3.4-.7.7-1.1l.3-.3.2-.2.1-.1.3-.1h.5c.1 0 .3.1.5.2 1.1.5 1.9 1 2.9 1.7 1.9 1.3 3.5 2.8 4.5 3.8 1.1 1.3 1.8 2 1.8 2"/><path clip-path="url(#b)" fill="#231F20" d="M64.1 60.7s2.6-2.4 6.4-4.6c1.3-.8 2.6-1.4 3.5-1.8l.5-.2.2.3c1.4 2.1 2 3.4 2 3.4s-1.2-1-2.9-2.8c.2 0 .4.1.7.1-.8.6-1.9 1.4-3.2 2.2-3.8 2.3-7.2 3.4-7.2 3.4"/></svg>