<?xml version="1.0" encoding="utf-8"?>
<!-- Generator: Adobe Illustrator 18.1.1, SVG Export Plug-In . SVG Version: 6.00 Build 0)  -->
<!DOCTYPE svg PUBLIC "-//W3C//DTD SVG 1.1//EN" "http://www.w3.org/Graphics/SVG/1.1/DTD/svg11.dtd">
<svg version="1.1" id="Layer_1" xmlns="http://www.w3.org/2000/svg" xmlns:xlink="http://www.w3.org/1999/xlink" x="0px" y="0px"
	 viewBox="0 0 178.1 131.4" enable-background="new 0 0 178.1 131.4" xml:space="preserve">
<rect x="2.8" y="108.6" fill="#D8505C" width="175.3" height="22.8"/>
<rect x="2.8" y="8.1" fill="#D8505C" width="175.3" height="50.1"/>
<rect x="2.8" y="58.4" fill="#D8505C" width="175.3" height="50.2"/>
<polygon fill="#AEB0B3" points="5.6,58.3 5.6,108.7 178.1,108.7 178.1,108.4 5.9,108.4 5.9,58.6 178.1,58.6 178.1,58.3 "/>
<g>
	<defs>
		<rect id="SVGID_3_" x="2.8" y="1.7" width="175.3" height="129.6"/>
	</defs>
	<clipPath id="SVGID_1_">
		<use xlink:href="#SVGID_3_"  overflow="visible"/>
	</clipPath>
	<path clip-path="url(#SVGID_1_)" fill="#FFFFFF" d="M27.8,27.1v7.9h-1.3v-6.5C26.4,28,25.2,28,25,28c-0.2,0-1.5,0.1-1.5,0.6v7.7
		c-0.4-0.1-0.8,0.1-1.2,0.4c-0.4-0.3-0.8-0.5-1.2-0.4v-7.7C20.9,28,19.7,28,19.5,28C19.3,28,18,28,18,28.6v7.7
		c-1.3-0.2-2.7,2.1-2.7,2.7v20.4h5.5h2.2h0.9h5.5h8c0.3-2.9,1.1-24.3-1.5-24.3h-3.4v-7.9c0.3-0.9-1.7-1.3-2.2-1.3H30
		C29.5,25.9,27.4,26.2,27.8,27.1"/>
	<polygon clip-path="url(#SVGID_1_)" fill="#CBCDCF" points="61.8,28 61.8,28 61.9,28 	"/>
	<path clip-path="url(#SVGID_1_)" fill="#FFFFFF" d="M60.3,28.6v7.7c-0.3,0-0.6,0-0.8,0.2c-0.4-3.4-1.3-5.8-2.9-5.6v-10
		c0.8-1.7,0.3-3.4-2.2-3.4c-2.5,0-3.1,1.7-2.2,3.4v9.6h-7.3l0.1,2.6H47v2.5h-3c-10.7,0.8-1.7,22,0.9,23.8h4.8h5h2.8h1.4h7.1V39
		c0-0.6-1.4-2.9-2.7-2.7v-7.7C63.3,28,62,28,61.8,28C61.6,28,60.4,28,60.3,28.6"/>
	<polygon clip-path="url(#SVGID_1_)" fill="#CBCDCF" points="6.9,19.8 7,19.8 7,19.8 	"/>
	<path clip-path="url(#SVGID_1_)" fill="#FFFFFF" d="M13.2,36.2c0-0.7-2.1-3.3-4-3.1V20.5c-0.1-0.6-1.9-0.7-2.2-0.7
		c-0.3,0-2.1,0.1-2.2,0.7v12.6c-2-0.2-4,2.4-4,3.1v23.2h12.5V36.2z"/>
	<polygon clip-path="url(#SVGID_1_)" fill="#CBCDCF" points="19.5,28 19.5,28 19.5,28 	"/>
	<polygon clip-path="url(#SVGID_1_)" fill="#CBCDCF" points="24.9,28 25,28 25,28 	"/>
	<path clip-path="url(#SVGID_1_)" fill="#FFFFFF" d="M192.8,36.5c-2-2.6-5.5-5.5-5.7-9c-0.2-3.4-1-11.4-1-11.4h-5.3
		c0,0-0.9,7.9-1,11.4c-0.1,1.4-0.7,2.7-1.5,4h-0.1v0.1c-0.6,0.9-1.3,1.7-2,2.5c0-0.3-0.1-0.5-0.1-0.6c-0.5-0.7-1.4-1.7-2.9-2.3
		c-1.5-0.6-0.7-10.2-0.7-10.2h1.2l-0.9-5.2h-5.1l-0.9,5.2h1.2c0,0,0.9,9.6-0.7,10.2c-1.5,0.6-2.4,1.6-2.9,2.3v-5
		c-0.1-0.6-1.3-0.6-1.5-0.6c-0.2,0-1.5,0.1-1.5,0.6v7.7c-0.2,0-0.5,0-0.7,0.1c0-3-0.1-5-0.2-5c-0.5,0-3.1-1-3.1-1.8v-7.7l0.7-1v-5
		h-6.3v5l0.7,1v7.7c0,0.8-2.6,1.8-3.1,1.8c-0.5,0,0,28.1,0,28.1h9.4h1.8h4h2.7h5.9c0,0.1,0,0.1,0,0.1h1c0,0,0,0.1,0,0.1h18.8
		C194,55.2,194.8,39.1,192.8,36.5"/>
	<polygon clip-path="url(#SVGID_1_)" fill="#CBCDCF" points="162.7,28 162.8,28 162.8,28 	"/>
	<path clip-path="url(#SVGID_1_)" fill="#CBCDCF" d="M46.6,70C46.6,70,46.6,70,46.6,70c0.1,0,0.1,0,0.1,0H46.6z"/>
	<path clip-path="url(#SVGID_1_)" fill="#CBCDCF" d="M66,70C66,70,66,70,66,70c0.1,0,0.1,0,0.1,0H66z"/>
	<path clip-path="url(#SVGID_1_)" fill="#FFFFFF" d="M68.3,83.3V70.7C68.2,70.1,66.3,70,66,70c-0.3,0-2.1,0.1-2.2,0.7v8.6
		c-0.9-1-2.3-1.8-3.6-1.7V62.3c-0.1-0.8-2.3-0.8-2.7-0.8c-0.4,0-2.6,0.1-2.7,0.8v15.4c-2.4-0.3-4.9,2.9-4.9,3.8v2
		c-0.3-0.1-0.7-0.2-1-0.1V70.7C48.8,70.1,47,70,46.6,70c-0.3,0-2.1,0.1-2.2,0.7v12.6c-2-0.2-4,2.4-4,3.1v23.2h9.5h3h6.9h5.3h7.2
		V86.4C72.3,85.7,70.2,83.1,68.3,83.3"/>
	<path clip-path="url(#SVGID_1_)" fill="#CBCDCF" d="M57.4,61.5C57.4,61.5,57.5,61.5,57.4,61.5c0.1,0,0.1,0,0.1,0H57.4z"/>
	<path clip-path="url(#SVGID_1_)" fill="#FFFFFF" d="M3.8,109.8h16h2.8H26h1.6h6.3c0,0,0.1-19.6,0-20.7c-0.1-1,0.1-3.7-2.1-3.7v-9.9
		h1.1v-3.2c0,0-2.4-0.1-2.8,0h-0.3c-0.3-0.1-2.8,0-2.8,0v3.2h1.1v9.9c-0.6,0-1,0.2-1.3,0.5c-0.3-0.3-0.7-0.5-1.3-0.5v-9.9h1.1v-3.2
		c0,0-2.4-0.1-2.8,0h-0.3c-0.3-0.1-2.8,0-2.8,0v3.2h1.1v9.9c-0.1,0-0.2,0-0.3,0c-2-2.3-4.5-4.8-4.6-7.7c-0.2-3.4-1-11.4-1-11.4h-5.3
		c0,0-0.9,7.9-1,11.4c-0.2,3.4-3.7,6.4-5.7,9c-0.3,0.3-0.5,0.9-0.6,1.6c0,0,0-0.1,0-0.1v-2.1l1.1-0.7v-3.6h-7v3.6l1.1,0.7v2.1
		c0,0.6-5.4,1.3-6.2,1.3c-0.8,0,0,20.2,0,20.2L3.8,109.8C3.8,109.7,3.8,109.8,3.8,109.8"/>
	<path clip-path="url(#SVGID_1_)" fill="#CBCDCF" d="M45.4,137.2v-12.6c-0.1-0.6-1.9-0.7-2.2-0.7c-0.3,0-2.1,0.1-2.2,0.7v12.6
		c-2-0.2-4,2.4-4,3.1v23.2h12.5v-23.2C49.4,139.6,47.4,136.9,45.4,137.2"/>
	<polygon clip-path="url(#SVGID_1_)" fill="#CBCDCF" points="43.1,123.8 43.2,123.8 43.2,123.8 	"/>
	<path clip-path="url(#SVGID_1_)" fill="#FFFFFF" d="M34.2,140.4c-0.1-1.8-0.4-3.3-0.6-4.3v-3.5c-0.1-0.6-1.3-0.6-1.5-0.6
		c-0.2,0-1.5,0.1-1.5,0.6v2.1h-1.3v-9.4c0.3-1.1-1.7-1.5-2.2-1.5H27c-0.5,0-2.5,0.4-2.2,1.5v9.4h-3.4c-0.3,0-0.6,0.4-0.9,1.2
		c0-2.4-0.1-3.9-0.2-3.9c-0.4,0-2.4-1.1-2.4-2v-8.5l0.5-1.1v-5.5h-5v5.5l0.5,1.1v8.5c0,0.9-2,2-2.4,2c-0.2,0-0.2,4.8-0.2,10.6
		c-1.1-0.2-2-0.5-2-0.7v-2.1l1.1-0.7v-3.6h-7v3.6l1.1,0.7v2.1c0,0.6-5.4,1.3-6.2,1.3c-0.8,0,0,20.2,0,20.2h17.3c0,0,0-0.1,0-0.2h4.2
		c0,0.1,0,0.2,0,0.3h8h6.4h2.2V143C36.3,142.5,35.3,140.8,34.2,140.4"/>
	<path clip-path="url(#SVGID_1_)" fill="#FFFFFF" d="M181.3,86.6v-7.7c-0.1-0.6-1.3-0.6-1.5-0.6c-0.2,0-1.5,0.1-1.5,0.6v7.7
		c-0.2,0-0.5,0-0.7,0.1c0-3-0.1-5-0.2-5c-0.5,0-3.1-1-3.1-1.8v-7.7l0.7-1v-5h-6.3v5l0.7,1v7.7c0,0.8-2.6,1.8-3.1,1.8
		c-0.1,0-0.2,2.2-0.2,5.3c-0.4-0.3-0.8-0.4-1.2-0.4v-7.7c-0.1-0.6-1.3-0.6-1.5-0.6c-0.2,0-1.5,0.1-1.5,0.6v7.7
		c-0.6-0.1-1.2,0.3-1.7,0.9c-0.5-2.7-1.3-4.4-2.7-4.2v-6.5c0.8-1.7,0.3-3.4-2.2-3.4c-2.5,0-3.1,1.7-2.2,3.4v6.5
		c-5.5-0.7-2.4,26.5-2.4,26.5h8.6h0.7h6.5h1.4h8h1.8h6.8V89.3C184.1,88.7,182.7,86.4,181.3,86.6"/>
	<path clip-path="url(#SVGID_1_)" fill="#CBCDCF" d="M163.2,78.3C163.2,78.3,163.2,78.3,163.2,78.3
		C163.3,78.3,163.3,78.3,163.2,78.3L163.2,78.3z"/>
	<polygon clip-path="url(#SVGID_1_)" fill="#CBCDCF" points="155,73.3 155.1,73.3 155.1,73.3 	"/>
	<polygon clip-path="url(#SVGID_1_)" fill="#CBCDCF" points="173,123.6 173.1,123.6 173.1,123.6 	"/>
	<path clip-path="url(#SVGID_1_)" fill="#FFFFFF" d="M175.3,137v-12.6c-0.1-0.6-1.9-0.7-2.2-0.7c-0.3,0-2.1,0.1-2.2,0.7V137
		c-0.5-0.1-1,0.1-1.5,0.3V129h1.1v-3.2c0,0-2.4-0.1-2.8,0h-0.3c-0.3-0.1-2.8,0-2.8,0v3.2h1.1v9.1c-0.8-0.7-1.8-1.3-2.8-1.2v-12.6
		c-0.1-0.6-1.9-0.7-2.2-0.7c-0.3,0-2.1,0.1-2.2,0.7V137c-2-0.2-4,2.4-4,3.1v23.2h9.2h3.3h0h4.5h8v-23.2
		C179.3,139.4,177.3,136.7,175.3,137"/>
	<polygon clip-path="url(#SVGID_1_)" fill="#CBCDCF" points="160.5,123.6 160.6,123.6 160.6,123.6 	"/>
	<path clip-path="url(#SVGID_1_)" fill="#FFFFFF" d="M15.9,9.3L15.9,9.3h4.5h8v-23.2c0-0.7-2.1-3.3-4-3.1v-12.6
		c-0.1-0.6-1.9-0.7-2.2-0.7c-0.3,0-2.1,0.1-2.2,0.7V-17c-0.5-0.1-1,0.1-1.5,0.3V-25h1.1v-3.2c0,0-2.4-0.1-2.8,0h-0.3
		c-0.3-0.1-2.8,0-2.8,0v3.2h1.1v9.1c-0.8-0.7-1.8-1.3-2.8-1.2v-12.6c-0.1-0.6-1.9-0.7-2.2-0.7c-0.3,0-2.1,0.1-2.2,0.7V-17
		c-2-0.2-4,2.4-4,3.1V9.3h9.2H15.9z"/>
	<path clip-path="url(#SVGID_1_)" fill="#FFFFFF" d="M42.3,9.3L42.3,9.3l15.2,0.1V9.3h4.4c0,0,0.4-31.2,0-31.2c-0.4,0-2.4-1.1-2.4-2
		v-8.5l0.5-1.1l-6.5-5.5h-5l6.5,5.5l0.5,1.1v8.5c0,0.5-0.7,1.1-1.4,1.5c-0.5-0.2-1-0.3-1.5-0.3L46.2-38c-0.1-0.8-2.3-0.8-2.7-0.8
		c-0.4,0-2.6,0.1-2.7,0.8l6.5,15.4c-2.4-0.3-4.9,2.9-4.9,3.8v0.2h-5.4v3.6l1.1,0.7v2.1c0,0.6-5.4,1.3-6.2,1.3c-0.8,0,0,20.2,0,20.2
		H42.3z"/>
	<path clip-path="url(#SVGID_1_)" fill="#FFFFFF" d="M74.8-13.8v-7.7c-0.1-0.6-1.3-0.6-1.5-0.6c-0.2,0-1.5,0.1-1.5,0.6v7.7
		c-0.4-0.1-0.8,0.1-1.2,0.4c-0.4-0.3-0.8-0.5-1.2-0.4v-7.7c-0.1-0.6-1.3-0.6-1.5-0.6c-0.2,0-1.5,0.1-1.5,0.6v7.7
		c-1.3-0.2-2.7,2.1-2.7,2.7V9.3H69h3.1h5.5v-20.4C77.5-11.7,76.1-14,74.8-13.8"/>
	<path clip-path="url(#SVGID_1_)" fill="#FFFFFF" d="M156.4,9.3h7.8c0,0,0,0,0-0.1h11c0,0,0,0,0,0h4.7c0,0,0.4-31.2,0-31.2
		c-0.4,0-2.4-1.1-2.4-2v-8.5l0.5-1.1l-6.5-5.5h-5l6.5,5.5l0.5,1.1v8.5c0,0.9-2,2-2.4,2c-0.2,0-0.2,4.7-0.2,10.4
		c-1.1-0.2-2-0.5-2-0.7v-2.1l1.1-0.7v-3.6h-7c-0.4-0.4-0.8-0.6-1.3-0.6v-10c0.8-1.7,0.3-3.4-2.2-3.4c-2.5,0-3.1,1.7-2.2,3.4v10
		c-1.6-0.2-2.5,2.2-2.9,5.6c-0.3-0.1-0.5-0.2-0.8-0.2v-7.7c-0.1-0.6-1.3-0.6-1.5-0.6c-0.2,0-1.5,0.1-1.5,0.6v7.7
		c-1.3-0.2-2.7,2.1-2.7,2.7V9.3h7.1H156.4z"/>
	<path clip-path="url(#SVGID_1_)" fill="#9C9EA1" d="M53.1,16.3L53.1,16.3c0.2,0,0.2-0.2,0-0.2h0C52.9,16.1,52.9,16.3,53.1,16.3
		L53.1,16.3l0-0.2h0C52.9,16.1,52.9,16.3,53.1,16.3"/>
	<path clip-path="url(#SVGID_1_)" fill="#CCC9C7" d="M26.4,25.9v6.8v1.1c0,0.2,0.3,0,0.1,0c-0.2,0-1,0-1,0.1v-3.1v-3.3
		c0-0.8-1.6-0.8-2.1-0.7c-0.5,0-1,0.1-1.3,0.5c-0.1,0.2,0,0.6,0,0.8v4v2.6V35c0-0.3-1.1,0.3-1.2,0.4h0.3C21.1,35.3,20,34.7,20,35
		v-0.8v-3.6v-3c0-0.8-0.6-0.9-1.3-1c-0.6-0.1-1.8-0.1-2.1,0.6c-0.2,0.5,0,1.4,0,2V35c0.1,0,0.2-0.1,0.2-0.1c-1.8-0.1-3,1.9-3,3.5
		v6.3v13.5c0,0.1,0.1,0.1,0.2,0.1H36c0.1,0,0.2,0,0.2-0.1c0.2-1.9,0.3-3.9,0.3-5.8c0.1-3.1,0.1-6.2,0-9.2c-0.1-2.5-0.1-5.2-0.8-7.6
		C35.6,35,35.4,34.3,35,34c-0.1-0.1-0.3-0.2-0.5-0.2c-1,0-2,0-3,0H31c0.2,0,0.2,0.1,0.2-0.2v-2v-5.1c0-0.2,0.1-0.8,0-1
		c-0.3-0.6-1.2-0.8-1.8-0.9C28.6,24.5,26.1,24.7,26.4,25.9c0,0.1,0.4,0.1,0.4,0c-0.2-0.8,1.1-1.1,1.7-1.2c0.6-0.1,1.3,0.1,1.9,0.3
		c0.8,0.3,0.5,1.7,0.5,2.4v6.3c0,0.1,0.1,0.1,0.2,0.1h0.9h1.3c0.4,0,1.1-0.2,1.4,0.1c0.5,0.3,0.7,1.3,0.8,1.9
		c0.6,2.6,0.6,5.3,0.7,7.9c0.1,3.1,0,6.1-0.1,9.2c0,1.2-0.1,2.3-0.2,3.5c0,0.4,0,0.8-0.1,1.2c0,0.1,0,0.3,0,0.4
		c0,0.2,0.2,0.1,0.1,0.1H23.1h-5h-3.8c-0.4,0-0.1,0-0.1,0v-0.3v-1.1V44.2v-5.3v-1.1c0-1,1.5-2.8,2.5-2.7c0.1,0,0.2,0,0.2-0.1v-4.4
		v-2.6v-0.7c0-0.5,1-0.6,1.3-0.6c0.4,0,1.3,0.1,1.3,0.5V28v2.7V35c0,0.1,0.1,0.1,0.2,0.1c0.4,0,0.8,0.1,1,0.4c0.1,0.1,0.2,0.1,0.3,0
		c0.3-0.3,0.6-0.4,1.1-0.4c0,0,0.2,0,0.2-0.1v-3.8v-2.6c0-0.5-0.2-1.3,0.3-1.5c0.5-0.3,2.4-0.4,2.4,0.5v2.1v4.2
		c0,0.1,0.1,0.1,0.2,0.1h1.3c0,0,0.2,0,0.2-0.1v-7.9C26.8,25.8,26.4,25.8,26.4,25.9"/>
	<path clip-path="url(#SVGID_1_)" fill="#9C9EA1" d="M60.6,26.8C60.6,26.8,60.6,26.8,60.6,26.8c0.3,0,0.3-0.2,0.1-0.2h-0.1
		C60.4,26.7,60.4,26.8,60.6,26.8L60.6,26.8l0.1-0.2c0,0-0.1,0-0.1,0C60.4,26.7,60.4,26.8,60.6,26.8"/>
	<path clip-path="url(#SVGID_1_)" fill="#CCC9C7" d="M58.9,27.4v4.2v2.7V35c0,0.1,0,0-0.1,0c-0.2,0-0.5,0.1-0.7,0.2
		c0.1,0,0.2,0,0.3,0.1c-0.2-1.7-0.6-5.9-3.1-5.7c0.1,0,0.2,0.1,0.2,0.1v-6.4v-3.3c0-0.4,0.1-0.6,0.2-0.9c0.2-0.7,0.2-1.5-0.3-2.1
		c-0.8-1.1-2.8-1-3.9-0.6c-0.5,0.2-1,0.7-1.1,1.2c-0.1,0.4-0.1,0.7-0.1,1.1c0,0.3,0.3,0.7,0.3,1v6.8v2.6c0,0.3,0.2,0.1,0,0.1h-1.1
		h-6.1c0,0-0.2,0-0.2,0.1c0,0.9,0.1,1.8,0.1,2.6c0,0.1,0.1,0.1,0.2,0.1h1.5h0.4c0.3,0,0,0,0-0.1v0.7v1.7c0,0,0.3,0-0.1,0h-1.1
		c-2.1,0-4.1,0.1-5.5,1.9c-1.5,1.8-1.5,4.5-1.3,6.7c0.3,2.8,1.1,5.6,2,8.2c0.8,2.1,1.7,4.3,3,6.1c0.2,0.3,0.6,1,1.1,1h3.5h10.9h6.8
		c0,0,0.2,0,0.2-0.1V44.9v-6.4c0-0.6,0-1-0.3-1.5c-0.5-1-1.5-2.1-2.7-2c0.1,0,0.2,0,0.2,0.1v-6.6c0-0.8,0.2-1.4-0.8-1.6
		C60.9,26.6,59.2,26.5,58.9,27.4c0,0.1,0.3,0.1,0.4,0c0.3-0.8,2.7-0.8,2.7,0.2V30V35c0,0.1,0.2,0.1,0.2,0.1c1.2-0.1,2.5,1.8,2.5,2.9
		v2.3v8.6v7.9v1v0.3c0,0,0.3,0,0,0h-3.5H48.9h-2.3h-2h-0.7c-0.3,0,0,0.1-0.2-0.1c-0.6-0.5-1-1.2-1.3-1.8c-0.6-1-1.1-2-1.6-3.1
		c-1.8-4-3.3-8.8-2.9-13.3c0.2-1.8,0.8-3.6,2.4-4.7c1.6-1.1,3.7-0.8,5.5-0.8c0,0,0.2,0,0.2-0.1v-2.5c0-0.1-0.1-0.1-0.2-0.1h-1.5
		h-0.4c-0.3,0,0,0,0,0.1c0-0.2,0-0.5,0-0.7c0-0.6-0.1-1.2-0.1-1.8c0-0.2-0.3,0-0.1,0h0.5h6.7c0,0,0.2,0,0.2-0.1v-6.5v-3
		c0-0.4-0.3-0.9-0.3-1.3c-0.2-1.2,0.8-2,1.9-2.2c1.2-0.2,2.7,0.3,2.9,1.6c0.1,0.4,0,0.9-0.2,1.3c-0.1,0.2-0.2,0.3-0.2,0.5v2.7v7.1
		v0.1c0,0.1,0.2,0.1,0.2,0.1c2.1-0.2,2.5,4.2,2.7,5.5c0,0.1,0.2,0.1,0.3,0.1c0.2,0,0.5-0.1,0.7-0.1c0,0,0.2,0,0.2-0.1v-7.7
		C59.3,27.2,58.9,27.2,58.9,27.4"/>
	<path clip-path="url(#SVGID_1_)" fill="#9C9EA1" d="M5.7,18.7c0,0,0.1,0,0.1,0c0.2,0,0.2-0.2,0-0.2H5.7C5.5,18.5,5.5,18.7,5.7,18.7
		h0.1v-0.2H5.7C5.5,18.5,5.5,18.7,5.7,18.7"/>
	<path clip-path="url(#SVGID_1_)" fill="#CCC9C7" d="M12.2,35c-0.1-0.8-0.9-1.6-1.5-2.1C10,32.2,9,31.8,7.9,31.8
		c0.1,0,0.2,0.1,0.2,0.1V19.4c0-1.3-4.8-1.2-4.8-0.1v5.8v6.9c0.1,0,0.2-0.1,0.2-0.1c-2-0.1-4.2,1.8-4.2,3.8v6.5v15.6v0.4
		c0,0.1,0.1,0.1,0.2,0.1H12c0,0,0.2,0,0.2-0.1V35c0-0.1-0.4-0.1-0.4,0v13.7v7.8v1.1V58c0,0.2,0,0.2,0.2,0.2h-2H1.7h-2.2
		c0.2,0,0.1-0.1,0.1-0.4v-1.1V39.8v-4.2c0-0.3,0-0.7,0.1-1C0.3,33.3,2,31.9,3.5,32c0.1,0,0.2,0,0.2-0.1V19.4c0-1.1,3.2-0.7,3.8-0.4
		c0.5,0.2,0.3,1.5,0.3,2v8.2v2.8C7.8,32,8,32,8,32c1.1-0.1,2,0.6,2.7,1.3c0.4,0.4,1,1.1,1.1,1.7C11.8,35.1,12.2,35.1,12.2,35"/>
	<path clip-path="url(#SVGID_1_)" fill="#9C9EA1" d="M18.3,26.8C18.3,26.8,18.3,26.8,18.3,26.8c0.3,0,0.3-0.2,0.1-0.2h-0.1
		C18,26.7,18,26.8,18.3,26.8L18.3,26.8l0.1-0.2c0,0-0.1,0-0.1,0C18,26.7,18,26.8,18.3,26.8"/>
	<path clip-path="url(#SVGID_1_)" fill="#9C9EA1" d="M23.7,26.8C23.7,26.8,23.8,26.8,23.7,26.8c0.3,0,0.3-0.2,0.1-0.2h-0.1
		C23.5,26.7,23.5,26.8,23.7,26.8L23.7,26.8l0.1-0.2c0,0-0.1,0-0.1,0C23.5,26.7,23.5,26.8,23.7,26.8"/>
	<path clip-path="url(#SVGID_1_)" fill="#CCC9C7" d="M191.8,35.3c-1.4-1.8-3.1-3.4-4.4-5.4c-0.7-1-1.1-2.1-1.3-3.3
		c-0.1-0.9-0.1-1.8-0.2-2.7c-0.2-3-0.5-6-0.9-8.9c0-0.1-0.1-0.1-0.2-0.1h-5.3c-0.1,0-0.2,0-0.2,0.1c-0.2,1.9-0.4,3.9-0.6,5.8
		c-0.1,1.4-0.3,2.9-0.4,4.3c0,0.7-0.1,1.4-0.2,2.1c-0.1,0.6-0.4,1.1-0.6,1.7c-0.1,0.2-0.6,1.3-0.7,1.3c0,0-0.2,0-0.2,0.1
		c0,0.3-0.6,0.9-0.8,1.1c-0.4,0.5-0.8,1-1.3,1.5c0.1,0,0.2,0,0.4,0c-0.1-0.8-0.6-1.3-1.2-1.8c-0.4-0.4-0.9-0.7-1.3-0.9
		c-0.3-0.2-0.6-0.2-0.8-0.5c-0.7-1.1-0.6-2.9-0.6-4.1c0-1.5,0-3.1,0.1-4.6c0-0.4,0.1-0.8,0.1-1.1c0,0,0,0,0-0.1
		c-0.2,0.1-0.2,0.1-0.1,0.1h0.3h0.9c0,0,0.2,0,0.2-0.1c-0.3-1.7-0.6-3.4-0.9-5.2c0-0.1-0.1-0.1-0.2-0.1h-5.1c-0.1,0-0.2,0-0.2,0.1
		c-0.3,1.7-0.6,3.4-0.9,5.2c0,0.1,0.1,0.1,0.2,0.1h0.7h0.4c0.2,0-0.1-0.1-0.1,0c0,0.3,0,0.6,0.1,0.9c0.1,1.4,0.2,2.9,0.2,4.3
		c0,1.4,0,2.9-0.4,4.3c-0.2,0.7-0.7,0.7-1.3,1c-0.9,0.5-1.5,1.2-2.1,2c0.1,0,0.2,0,0.4,0v-4.7c0-1.2-2.4-1.2-3.1-0.6
		c-0.4,0.3-0.3,0.8-0.3,1.2v3v2.9v0.8c0,0.2,0,0-0.1,0c-0.2,0-0.4,0.1-0.6,0.2c0.1,0,0.2,0,0.3,0.1c0-1.6,0.1-3.2-0.1-4.8
		c0-0.1,0-0.3-0.2-0.3c-0.6,0-1.2-0.3-1.7-0.6c-0.4-0.2-1.3-0.6-1.3-1.2v-1v-3.5v-2.9c0-0.5,0.7-0.9,0.7-1.3v-5
		c0-0.1-0.1-0.1-0.2-0.1h-6.3c0,0-0.2,0-0.2,0.1v3.2v1.6c0,0.4,0.3,0.6,0.5,0.9c0.4,0.7,0.2,1.8,0.2,2.6v4.4c0,0.4,0.1,0.9,0,1.2
		c-0.3,0.7-1.5,1.1-2.1,1.3c-0.5,0.2-0.9,0-1,0.6c-0.2,1.6-0.1,3.3-0.1,5c0,7.6,0.1,15.2,0.2,22.8c0,0.1,0.1,0.1,0.2,0.1h23.8
		c-0.1,0-0.1,0-0.2,0c0,0.1,0.1,0.1,0.2,0.1h0.4h0.3c0.3,0,0.1,0,0.1,0c0,0.1,0.1,0.1,0.2,0.1h18.8c0.1,0,0.2,0,0.2-0.1
		c1-4,1.1-8.3,1.2-12.3c0-2.3,0-4.5-0.2-6.8C192.7,38,192.6,36.4,191.8,35.3c-0.1-0.1-0.4,0-0.3,0c0.6,0.8,0.7,1.9,0.9,2.8
		c0.2,1.5,0.3,3,0.3,4.5c0.1,3.5-0.1,7.1-0.4,10.6c-0.1,1.4-0.3,2.8-0.6,4.1c0,0.2-0.1,0.5-0.2,0.7c0,0.2,0,0.2,0.1,0.2H191h-6.7
		h-7.7h-2.7h-0.8h-0.2c-0.2,0,0.1,0,0.1,0c0-0.1-0.1-0.1-0.2-0.1h-0.4h-0.3c-0.4,0-0.1,0-0.1,0c0-0.1-0.1-0.1-0.2-0.1H148
		c0.2,0,0.2,0.1,0.2-0.1c0-0.2,0-0.5,0-0.7c0-0.8,0-1.6,0-2.4c0-2.6-0.1-5.1-0.1-7.7c-0.1-5.1-0.2-10.3,0-15.5c0-0.5,0-1,0.1-1.5
		c0-0.1,0.4-0.1,0.7-0.2c0.7-0.2,1.3-0.5,1.9-0.9c0.8-0.6,0.6-1.6,0.6-2.5v-4.5v-1.3c0-0.3-0.3-0.6-0.5-0.9c-0.5-0.7-0.2-2.1-0.2-3
		v-1.8v-0.4c0,0-0.3,0,0,0h3.7h1.7h0.5c0.4,0,0,0,0-0.1v3v1.6c0,0.4-0.1,0.6-0.4,0.9c-0.4,0.6-0.3,1.2-0.3,1.9v4.1
		c0,0.7-0.3,2,0.2,2.5c0.6,0.8,2,1.3,3,1.4c0.3,0,0.2,4.6,0.2,5c0,0.1,0.2,0.1,0.3,0.1c0.2,0,0.4-0.1,0.6-0.1c0,0,0.2,0,0.2-0.1
		v-7.6c0-0.7,1.2-0.7,1.8-0.6c1.1,0.1,0.9,0.7,0.9,1.5v4c0,0.1,0.3,0.1,0.4,0c0.6-0.8,1.4-1.5,2.3-2c0.4-0.2,0.7-0.3,1-0.7
		c0.5-1,0.5-2.3,0.5-3.3c0.1-2.2,0-4.4-0.2-6.5c0-0.1-0.1-0.1-0.2-0.1h-1.1c-0.2,0,0.1,0.1,0.1,0c0-0.1,0-0.3,0.1-0.4
		c0.2-1,0.3-2,0.5-3c0.1-0.4,0.1-0.8,0.2-1.3c0-0.1,0-0.2,0.1-0.3c0-0.2-0.1,0-0.1,0h2.4h2.5c0.2,0,0,0-0.1-0.1c0,0.1,0,0.2,0,0.3
		c0.1,0.4,0.1,0.9,0.2,1.3c0.2,1,0.3,2,0.5,3.1l0.1,0.4c0,0.2,0,0.1,0.2,0.1h-1.2c-0.1,0-0.2,0-0.2,0.1c-0.2,2.2-0.3,4.3-0.2,6.5
		c0,1.1,0,2.3,0.5,3.3c0.3,0.6,1,0.7,1.4,1c0.8,0.5,1.9,1.4,2,2.4c0,0.1,0.3,0.1,0.4,0c0.4-0.5,0.9-1,1.3-1.5
		c0.2-0.2,0.8-0.8,0.8-1.1c0-0.1-0.2,0.2,0.1,0c0.4-0.3,0.7-1.2,1-1.7c0.8-1.7,0.7-3.6,0.8-5.4c0.2-2.8,0.5-5.5,0.8-8.3
		c0,0.1-0.3,0.1,0.1,0.1h0.7h2.2h1.8h0.4c-0.2,0-0.2-0.2-0.1,0.1c0.3,3.1,0.6,6.1,0.9,9.2c0.1,0.8,0.1,1.7,0.2,2.5
		c0.1,1,0.6,2,1.1,2.9c1.2,2.1,3.1,3.7,4.5,5.6C191.5,35.5,191.9,35.4,191.8,35.3"/>
	<path clip-path="url(#SVGID_1_)" fill="#9C9EA1" d="M161.5,26.8C161.6,26.8,161.6,26.8,161.5,26.8c0.3,0,0.3-0.2,0.1-0.2h-0.1
		C161.3,26.7,161.3,26.8,161.5,26.8L161.5,26.8l0.1-0.2h-0.1C161.3,26.7,161.3,26.8,161.5,26.8"/>
	<path clip-path="url(#SVGID_1_)" fill="#9C9EA1" d="M45.4,68.9h0.1c0.2,0,0.2-0.2,0-0.2h-0.1C45.2,68.7,45.2,68.9,45.4,68.9h0.1
		v-0.2h-0.1C45.2,68.7,45.2,68.9,45.4,68.9"/>
	<path clip-path="url(#SVGID_1_)" fill="#9C9EA1" d="M64.8,68.9h0.1c0.2,0,0.2-0.2,0-0.2h-0.1C64.5,68.7,64.5,68.9,64.8,68.9h0.1
		v-0.2h-0.1C64.5,68.7,64.5,68.9,64.8,68.9"/>
	<path clip-path="url(#SVGID_1_)" fill="#CCC9C7" d="M67.2,82.1V69.6c0-1.3-4.8-1.2-4.8-0.1v6.7v1.9c0.1,0,0.2,0,0.3,0
		c-1-1-2.3-1.8-3.8-1.7c0.1,0,0.2,0.1,0.2,0.1V63v-1.9c0-0.8-2-0.9-2.5-0.9c-1-0.1-2.3,0-3.1,0.6c-0.4,0.3-0.2,1-0.2,1.3v14.3
		c0.1,0,0.2-0.1,0.2-0.1c-1.5-0.1-2.9,0.8-3.9,1.8c-0.5,0.5-1,1.1-1.2,1.8c-0.2,0.6,0,1.6,0,2.2c0.1,0,0.2,0,0.3-0.1
		c-0.3-0.1-0.9,0-0.9-0.2v-1v-3.7v-7.4c0-0.8-0.6-0.9-1.4-1.1c-0.9-0.1-2.5-0.3-3.2,0.4c-0.4,0.3-0.2,1-0.2,1.5v3.7v7.7
		c0.1,0,0.2-0.1,0.2-0.1c-2-0.1-4.2,1.8-4.2,3.8v6.6v15.6v0.4c0,0.1,0.1,0.1,0.2,0.1h24.3h7.6c0,0,0.2,0,0.2-0.1V93.9v-7.4
		c0-0.5,0.1-1,0-1.4c-0.3-1.2-1.9-2.5-3-2.9C67.8,82.1,67.4,82,67,82c-0.2,0-0.1,0.2,0.1,0.2c1.3-0.1,2.3,0.9,3.1,1.8
		c0.3,0.4,0.7,0.8,0.7,1.3v1.8V95v9v3.2v0.9v0.3c0-0.1,0.3,0-0.1,0H47.3h-7.7h-0.4c-0.2,0,0.1,0.1,0.1,0v-0.8v-2.9V87.5v-2.2
		c0-0.4,0.2-0.7,0.4-1.1c0.7-1,2-2.2,3.3-2.1c0.1,0,0.2,0,0.2-0.1V69.6c0-1.1,3.2-0.7,3.8-0.4c0.6,0.2,0.3,1.5,0.3,2v8.2v2.8
		c0,0.1,0.1,0.1,0.2,0.1c0.3,0,0.6,0,0.9,0.1c0.1,0,0.3,0,0.3-0.1c0-1.1-0.2-2.1,0.5-3.1c0.9-1.3,2.5-2.8,4.2-2.7
		c0.1,0,0.2,0,0.2-0.1V63v-1.9c0-1,3.1-0.8,3.8-0.7c0.4,0.1,1.3,0.2,1.3,0.8V62v3.3v11.2c0,0.1,0.2,0.1,0.2,0.1
		c1.3-0.1,2.5,0.8,3.4,1.7c0.1,0.1,0.3,0.1,0.3,0v-6.6V70c0-0.5-0.1-0.8,0.6-1c0.7-0.2,3.5-0.5,3.5,0.6v12.5
		C66.9,82.2,67.2,82.2,67.2,82.1"/>
	<path clip-path="url(#SVGID_1_)" fill="#9C9EA1" d="M56.2,60.3h0.1c0.2,0,0.2-0.2,0-0.2h-0.1C56,60.2,56,60.3,56.2,60.3h0.1v-0.2
		h-0.1C56,60.2,56,60.3,56.2,60.3"/>
	<path clip-path="url(#SVGID_1_)" fill="#CCC9C7" d="M2.6,108.6h23.8h6.3c0,0,0.2,0,0.2-0.1c0-4.4,0-8.8,0.1-13.2c0-2.3,0-4.5,0-6.8
		c0-0.8-0.1-1.5-0.2-2.3c-0.1-0.5-0.2-1.2-0.6-1.6c-0.1-0.1-1.3-0.8-1.3-0.5v-5.7v-3.3v-0.8c0-0.1-0.3,0,0.1,0h0.8
		c0,0,0.2,0,0.2-0.1v-3.2c0-0.1-0.1-0.1-0.2-0.1c-1.9-0.1-3.9-0.1-5.9,0c0,0-0.2,0-0.2,0.1v3.2c0,0.1,0.1,0.1,0.2,0.1h0.8
		c0.4,0,0.1-0.1,0.1,0v1v4v3.9v0.9c0-0.1-1.1,0.4-1.2,0.5h0.3c-0.1-0.1-1.2-0.7-1.2-0.5v-0.9v-3.9v-4v-1c0-0.2-0.2,0,0,0h0.9
		c0,0,0.2,0,0.2-0.1v-3.2c0-0.1-0.1-0.1-0.2-0.1c-1.9-0.1-3.9-0.1-5.9,0c0,0-0.2,0-0.2,0.1v3.2c0,0.1,0.1,0.1,0.2,0.1h0.6h0.4
		c-0.2,0-0.1-0.1-0.1,0v0.8v3.6v3.8v1.3v0.3c0-0.1-0.6-0.7-0.7-0.8c-1.5-1.7-3.1-3.5-3.7-5.8c-0.2-0.8-0.2-1.7-0.2-2.5
		c-0.1-0.8-0.1-1.7-0.2-2.5c-0.2-2.5-0.5-4.9-0.7-7.4c0-0.1-0.1-0.1-0.2-0.1H9.3c-0.1,0-0.2,0-0.2,0.1c-0.3,3.2-0.7,6.4-0.9,9.6
		c-0.1,0.9-0.1,1.9-0.3,2.8c-0.3,1.4-1.1,2.6-1.9,3.7c-1.4,1.9-3.7,3.5-4.3,5.9c0.1,0,0.2,0,0.4,0c-0.1-0.2-0.2-2,0-2.1
		c0.2-0.1,1.1-0.6,1.1-0.8v-3.6c0-0.1-0.1-0.1-0.2-0.1h-7c0,0-0.2,0-0.2,0.1v3.3c0,0.4,0.1,0.4,0.5,0.6c0.1,0,0.6,0.3,0.6,0.4v1.1
		c0,0.8,0.1,1-0.7,1.3c-0.8,0.2-1.6,0.4-2.3,0.5c-0.7,0.1-1.4,0.2-2.1,0.3c-0.3,0-0.7,0-1,0.1c-0.3,0.1-0.3,0.9-0.3,1.2
		c-0.1,1-0.1,2-0.1,3c0,2.9,0,5.7,0.1,8.6c0.1,2.5,0.1,5,0.2,7.5c0,0.1,0.1,0.1,0.2,0.1h5.9h4H2h0.4c0.3,0,0,0,0,0
		c0,0.1,0.4,0.1,0.4,0c0,0,0,0,0,0c0-0.1-0.1-0.1-0.2-0.1h-6.1h-4.1h-1.2h-0.3c-0.2,0,0.1,0.1,0.1,0.1c-0.2-4.5-0.3-8.9-0.3-13.4
		c0-2.1-0.1-4.3,0.2-6.3c0-0.2,0.1-0.4,0.1-0.4c0.5,0,1-0.1,1.5-0.2c1.4-0.2,2.8-0.4,4.1-0.8c0.2-0.1,0.6-0.2,0.6-0.4
		c0.1-0.6,0-1.4,0-2.1c0-0.2-0.8-0.6-1-0.7c-0.2-0.1-0.1-1-0.1-1.3v-2c0-0.3,0.1-0.3-0.2-0.3h0.3h3.8h2.7c0.3,0,0-0.2,0,0.2v1.7V84
		c0,0.3-0.5,0.5-0.7,0.7c-0.3,0.2-0.3,0.2-0.3,0.6c0,0.5-0.2,1.4,0.1,1.8c0.1,0.1,0.3,0.1,0.4,0c0.6-2.2,2.5-3.7,3.9-5.4
		c1.3-1.6,2.3-3.4,2.4-5.5c0.2-3.3,0.6-6.7,0.9-10c0-0.3,0.1-0.7,0.1-1c0-0.1-0.3,0-0.1,0h0.7h4h0.5c0.1,0-0.1-0.2-0.1,0
		c0,0.4,0.1,0.8,0.1,1.2c0.2,1.7,0.3,3.3,0.5,5c0.1,1.2,0.2,2.3,0.3,3.5c0.1,1.1,0.1,2.2,0.4,3.2c0.5,1.5,1.4,2.7,2.4,3.9
		c0.5,0.6,1,1.2,1.6,1.8c0.4,0.5,0.4,0.5,0.9,0.5c0,0,0.1,0,0.1-0.1v-9.9c0-0.1-0.1-0.1-0.2-0.1h-0.9c-0.2,0,0,0.1,0,0v-0.4v-2.3
		c0-0.3,0.1-0.5-0.2-0.5c0.3,0,0.5,0,0.8,0c0.7,0,1.4,0,2,0c0.7,0,1.3-0.1,2,0c0.3,0,0.6,0,0.9,0c0.2,0-0.1-0.1-0.1,0v0.4v2.3v0.3
		c0,0.2,0,0.1,0.1,0.1h-1c0,0-0.2,0-0.2,0.1v9.9c0,0.1,0.1,0.1,0.2,0.1c0.4,0,0.8,0.1,1.1,0.4c0.1,0.1,0.2,0.1,0.3,0
		c0.3-0.3,0.7-0.4,1.1-0.4c0,0,0.2,0,0.2-0.1v-9.9c0-0.1-0.1-0.1-0.2-0.1H26c-0.2,0,0,0.1,0,0v-0.4v-2.3c0-0.3,0.1-0.5-0.2-0.5
		c0.3,0,0.5,0,0.8,0c0.7,0,1.4,0,2,0c0.7,0,1.3-0.1,2,0c0.3,0,0.6,0,0.9,0c0.2,0-0.1-0.1-0.1,0v0.4v2.3v0.3c0,0.2,0,0.1,0.1,0.1h-1
		c0,0-0.2,0-0.2,0.1v9.9c0,0.1,0.1,0.1,0.2,0.1c2.3,0.1,1.9,3.8,1.9,5.4c0,2.6,0,5.3,0,7.9c0,2.8,0,5.5,0,8.3c0,0.8,0,1.5,0,2.3
		c0,0.3-0.1,0.2,0.2,0.2h-1.1H6H2.6C2.4,108.5,2.4,108.6,2.6,108.6"/>
	<path clip-path="url(#SVGID_1_)" fill="#9C9EA1" d="M44.4,136v-12.5c0-1.3-4.8-1.2-4.8-0.1v5.8v6.8c0.1,0,0.2-0.1,0.2-0.1
		c-2-0.1-4.2,1.8-4.2,3.8v6.6v15.6v0.4c0,0.1,0.1,0.1,0.2,0.1h12.5c0,0,0.2,0,0.2-0.1v-14.5v-7.4c0-0.5,0.1-1,0-1.4
		c-0.3-1.2-1.9-2.5-3-2.9c-0.4-0.1-0.8-0.2-1.2-0.1c-0.2,0-0.1,0.2,0.1,0.2c1.3-0.1,2.3,0.9,3.1,1.8c0.3,0.4,0.7,0.8,0.7,1.3v1.8
		v7.9v9v3.2v0.9v0.3c0-0.1,0.3,0,0,0h-6.9h-3.9h-1.2h-0.3c-0.2,0,0.1,0.1,0.1,0v-15v-6.7v-1.4c0-0.5,0.4-0.9,0.7-1.3
		c0.7-0.9,1.9-1.9,3.1-1.8c0.1,0,0.2,0,0.2-0.1v-12.5c0-1.1,3.2-0.7,3.8-0.4c0.5,0.2,0.3,1.5,0.3,2v8.2v2.8
		C44,136.1,44.4,136.1,44.4,136"/>
	<path clip-path="url(#SVGID_1_)" fill="#9C9EA1" d="M41.9,122.7H42c0.2,0,0.2-0.2,0-0.2h-0.1C41.7,122.6,41.7,122.7,41.9,122.7H42
		v-0.2h-0.1C41.7,122.6,41.7,122.7,41.9,122.7"/>
	<path clip-path="url(#SVGID_1_)" fill="#9C9EA1" d="M30.8,130.9L30.8,130.9c0.3,0,0.3-0.2,0.1-0.2h-0.1
		C30.6,130.7,30.6,130.9,30.8,130.9L30.8,130.9l0.1-0.2h-0.1C30.6,130.7,30.6,130.9,30.8,130.9"/>
	<path clip-path="url(#SVGID_1_)" fill="#CCC9C7" d="M33.2,139.2c-0.1-1.2-0.2-2.3-0.4-3.5c-0.1-0.6-0.2-1-0.2-1.6v-2
		c0-0.4,0.1-0.7-0.3-1c-0.7-0.5-2.2-0.4-2.9,0c-0.4,0.2-0.3,0.6-0.3,0.9v1c0,0.5,0.1,0.5-0.4,0.5H28c0.2,0,0.2,0.1,0.2-0.1v-1.2
		v-4.2v-3.4c0-0.3,0.1-0.5,0-0.8c-0.1-0.5-0.8-0.8-1.2-0.9c-1-0.3-3.6-0.4-3.6,1.2c0,1.4,0,2.9,0,4.3v5.1c0,0.2,0.3,0,0,0h-1.3
		c-0.7,0-1.5-0.1-2.2,0c-0.5,0.1-0.7,0.8-0.8,1.2c0.1,0,0.2,0,0.4,0c0-0.9,0-1.9-0.1-2.8c0-0.3,0-0.8-0.1-1.1c0-0.1-0.9-0.4-1.1-0.5
		c-0.5-0.3-1.3-0.8-1.4-1.5c-0.1-0.8,0-1.6,0-2.4v-3.9v-2.2c0-0.5,0.5-0.9,0.5-1.4v-5.3c0-0.1-0.1-0.1-0.2-0.1h-5c0,0-0.2,0-0.2,0.1
		v5.5c0,0.4,0.5,0.8,0.5,1.2v0.8v4.1v3.5c0,0.7-0.6,1.2-1.2,1.6c-0.3,0.2-0.7,0.5-1.1,0.5c-0.1,0-0.1,0-0.1,0.1
		c-0.1,0.2-0.1,0.7-0.1,0.9c0,0.8,0,1.5-0.1,2.3c0,2.5,0,4.9,0,7.4c0.1,0,0.2,0,0.3-0.1c-0.4-0.1-1.9-0.2-1.9-0.8v-1.6
		c0-0.7,0.7-0.6,1.1-1.1c0.2-0.3,0-1.3,0-1.6v-2c0-0.1-0.1-0.1-0.2-0.1h-7c0,0-0.2,0-0.2,0.1v3.3c0,0.4,0.1,0.4,0.5,0.6
		c0.1,0,0.6,0.3,0.6,0.4v1.1c0,0.8,0.1,1-0.7,1.3c-0.8,0.2-1.6,0.4-2.3,0.5c-0.7,0.1-1.4,0.2-2.1,0.3c-0.3,0-0.7,0-1,0.1
		c-0.3,0.1-0.3,0.9-0.3,1.2c-0.1,1-0.1,2-0.1,3c0,2.9,0,5.7,0.1,8.6c0.1,2.5,0.1,5,0.2,7.5c0,0.1,0.1,0.1,0.2,0.1h17.3
		c0,0,0.2,0,0.2-0.1c0-0.1-0.3-0.2-0.1-0.2h0.5h1.4h1.5h0.6c0.3,0,0,0,0.1,0.2c0,0.1,0.1,0.1,0.2,0.1h16.5c0,0,0.2,0,0.2-0.1v-12.4
		v-6.6v-1.4C35.3,140.8,34,139.5,33.2,139.2c-0.1-0.1-0.5,0-0.3,0.1c1.1,0.5,2,1.8,2,3v2.5v8.8v7.7v0.9c0,0.2,0.1,0.1,0.1,0.1h-1
		h-2.5h-6h-4.3h-1.9h-0.5c-0.4,0-0.1,0-0.1-0.2c0-0.1-0.1-0.1-0.2-0.1h-4.2c0,0-0.2,0-0.2,0.1c0,0.2,0.3,0.2-0.1,0.2h-1H9.7H1.1H-2
		h-0.8c-0.3,0,0,0.1,0,0c-0.1-1.7-0.1-3.4-0.2-5.1c-0.1-2.9-0.2-5.8-0.2-8.7c0-2-0.2-4.1,0.2-6c0.1-0.3,0-0.3,0.2-0.3
		c0.6,0,1.2-0.1,1.9-0.2c1.3-0.2,2.6-0.3,3.8-0.8c0.4-0.1,0.4-0.3,0.4-0.6c0-0.2,0.2-1.7,0-1.8c-0.2-0.1-1-0.6-1-0.8V136v-1.3v-0.4
		c0-0.2-0.2,0-0.1,0h2h4.9c0.1,0-0.1-0.1-0.1,0v0.3v1.4v1.4c0,0.4,0,0.3-0.3,0.6c-0.1,0.1-0.8,0.4-0.8,0.6v1.4c0,0.4-0.1,0.8,0.2,1
		c0.5,0.3,1.2,0.4,1.8,0.5c0.1,0,0.3,0,0.3-0.1c0-2.5,0-5.1,0-7.6c0-0.7,0-1.5,0.1-2.2c0-0.5-0.1-0.7,0.3-0.8
		c0.9-0.3,2.2-1.1,2.2-2.2v-3.8v-4c0-0.2,0.1-0.4,0-0.6c-0.2-0.3-0.5-0.8-0.5-1.2v-3.6v-1.6c0-0.3,0.1-0.2-0.2-0.2h0.5h3.8h0.6
		c0.2,0-0.1-0.1-0.1,0v1.4v3.7c0,0.6-0.5,1.1-0.5,1.7v7.7c0,0.4,0,0.7,0.1,1c0.3,0.6,1.1,1,1.7,1.4c0.2,0.1,0.4,0.2,0.7,0.3
		c0.1,0,0.1,0.4,0.1,0.5c0.1,1.1,0.1,2.3,0.1,3.4c0,0.1,0.3,0.1,0.4,0c0.1-0.3,0.2-0.5,0.3-0.8c0.2-0.4,0.9-0.3,1.3-0.3h1.4h1.1
		c0,0,0.2,0,0.2-0.1v-5.9v-3.1c0-0.3-0.1-0.6,0-0.9c0.3-0.6,1.4-0.9,2-0.9c0.6,0,1.5,0.3,1.9,0.7c0.2,0.3,0.1,0.6,0.1,0.9v3v6.1
		c0,0.1,0.1,0.1,0.2,0.1h1.3c0,0,0.2,0,0.2-0.1c0-0.7-0.2-1.6,0-2.2c0.2-0.5,1.3-0.4,1.7-0.4c0.8,0.1,0.9,0.4,0.9,1v2.8
		c0,0.5,0.2,1,0.3,1.4c0.2,1,0.3,2,0.4,3C32.8,139.3,33.2,139.3,33.2,139.2"/>
	<path clip-path="url(#SVGID_1_)" fill="#CCC9C7" d="M180.3,85.4v-5.6v-2.1c0-0.7-1.4-0.7-1.9-0.7c-0.5,0-1.5,0.1-1.5,0.8v2.6v3.6
		v1.1v0.2c0-0.2-0.6,0-0.7,0.1c0.1,0,0.2,0,0.3,0.1c0-1.6,0.1-3.2-0.1-4.8c0-0.1,0-0.3-0.2-0.3c-0.6,0-1.2-0.3-1.7-0.6
		c-0.4-0.2-1.3-0.6-1.3-1.2v-1v-3.5v-2.9c0-0.5,0.7-0.9,0.7-1.3v-5c0-0.1-0.1-0.1-0.2-0.1h-6.3c0,0-0.2,0-0.2,0.1v5
		c0,0.5,0.7,0.8,0.7,1.3v2.9v3.5v1c0,0.6-0.9,1-1.3,1.2c-0.5,0.3-1.1,0.5-1.7,0.6c-0.2,0-0.2,0.2-0.2,0.3c-0.3,1.6-0.1,3.4-0.2,5
		c0.1,0,0.2,0,0.3,0c-0.3-0.2-0.6-0.3-0.9-0.4c-0.1,0-0.2,0.2-0.2,0v-1v-3.8v-2.7c0-0.7-1.3-0.8-1.8-0.8c-0.5,0-1.6,0.1-1.6,0.8v3
		v3.7v0.8c0-0.4-1.6,0.8-1.7,0.8c0.1,0,0.2,0,0.3,0c-0.3-1.6-0.8-4.5-3-4.3c0.1,0,0.2,0.1,0.2,0.1v-5.7v-0.8c0-0.2,0.2-0.6,0.3-0.8
		c0.1-0.4,0.1-0.7,0-1.1c-0.2-1.3-1.6-1.6-2.7-1.6c-1,0-2.4,0.3-2.7,1.5c-0.3,1,0.3,1.8,0.3,2.7V82c0.1,0,0.2-0.1,0.2-0.1
		c-1.4-0.1-2.1,1.2-2.5,2.3c-0.7,2.2-0.8,4.6-0.9,6.9c-0.2,5.1,0.1,10.3,0.6,15.4c0.1,0.7,0.1,1.4,0.2,2c0,0.1,0.1,0.1,0.2,0.1h24.4
		h9.2c0,0,0.2,0,0.2-0.1V95.3v-6.4c0-0.6,0-1-0.3-1.5c-0.5-1-1.5-2.1-2.7-2c-0.2,0-0.1,0.2,0.1,0.2c1.2-0.1,2.5,1.8,2.5,2.9v2.3v8.6
		v7.9v1v0.3c0,0,0.3,0,0,0H179h-22.7h-7c0.1,0,0.1,0.2,0.1-0.1c0-0.2,0-0.4-0.1-0.6c-0.1-0.8-0.1-1.5-0.2-2.3
		c-0.5-5.3-0.8-10.6-0.5-15.9c0.1-1.8,0.3-3.6,0.8-5.2c0.3-0.9,0.9-2.4,2.1-2.3c0.1,0,0.2,0,0.2-0.1v-4.9c0-0.4,0.2-1.3,0-1.7
		c-0.8-1.8,0-3.3,2.1-3.3c2-0.1,2.8,1.4,2.2,3.1c-0.2,0.5-0.1,1.2-0.1,1.7V82c0,0.1,0.2,0.1,0.2,0.1c1.8-0.1,2.3,2.9,2.5,4.1
		c0,0.1,0.3,0.1,0.3,0c0.4-0.4,0.9-0.8,1.5-0.8c0,0,0.2,0,0.2-0.1V81v-2.6v-0.7c0-0.5,1-0.6,1.3-0.6c0.3,0,1.3,0.1,1.3,0.6v0.6V81
		v4.4c0,0.1,0.1,0.1,0.2,0.1c0.3,0.1,0.7,0.2,1,0.3c0.1,0,0.3,0.1,0.3,0c0-0.5-0.2-5.1,0.3-5.2c0.9-0.1,2.7-0.8,3-1.7
		c0.1-0.3,0-0.7,0-1v-2.1v-4.1c0-0.1,0.1-0.5,0-0.6c-0.2-0.3-0.7-0.8-0.7-1.1v-3.7V65c0,0.1-0.3,0.1,0,0.1h0.7h4.1h1.1
		c0.2,0-0.1-0.1-0.1,0v0.4V69v1c0,0.2-0.5,0.8-0.7,1c-0.1,0.1,0,0.4,0,0.6v1.5v4c0,0.7-0.2,1.6,0.3,2.2c0.4,0.4,1.1,0.7,1.6,0.9
		c0.2,0.1,1.2,0.3,1.2,0.4c0.2,0.4,0.1,1.2,0.1,1.7c0,1.1,0,2.2,0.1,3.3c0,0.1,0.3,0.1,0.3,0.1c0.2,0,0.4-0.1,0.6-0.1
		c0,0,0.2,0,0.2-0.1V81v-2.6v-0.7c0-0.5,1-0.6,1.3-0.6c0.4,0,1.3,0.1,1.3,0.6v0.6V81v4.4C179.9,85.5,180.3,85.5,180.3,85.4"/>
	<path clip-path="url(#SVGID_1_)" fill="#9C9EA1" d="M162,77.2L162,77.2c0.3,0,0.3-0.2,0.1-0.2H162C161.8,77,161.8,77.2,162,77.2
		L162,77.2l0.1-0.2c0,0-0.1,0-0.1,0C161.8,77,161.8,77.2,162,77.2"/>
	<path clip-path="url(#SVGID_1_)" fill="#9C9EA1" d="M153.8,72.1c0,0,0.1,0,0.1,0c0.2,0,0.1-0.2,0-0.2h0
		C153.6,72,153.6,72.1,153.8,72.1L153.8,72.1c0,0,0-0.1,0-0.2h0.1C153.7,72,153.6,72.1,153.8,72.1"/>
	<path clip-path="url(#SVGID_1_)" fill="#9C9EA1" d="M171.8,122.5h0.1c0.2,0,0.2-0.2,0-0.2h-0.1
		C171.6,122.4,171.6,122.5,171.8,122.5h0.1v-0.2h-0.1C171.6,122.4,171.6,122.5,171.8,122.5"/>
	<path clip-path="url(#SVGID_1_)" fill="#CCC9C7" d="M174.3,135.8v-12.5c0-1.3-4.8-1.2-4.8-0.1v5.8v5.1v1.5v0.3
		c0-0.3-1.4,0.3-1.5,0.3c0.1,0,0.2,0,0.3,0.1v-4.8v-2.8v-0.6c0-0.1,0,0-0.1,0.1h0.4h0.6c0,0,0.2,0,0.2-0.1v-3.2
		c0-0.1-0.1-0.1-0.2-0.1c-1.9-0.1-3.9-0.1-5.9,0c0,0-0.2,0-0.2,0.1v3.2c0,0.1,0.1,0.1,0.2,0.1h0.6h0.3c0.2,0,0,0,0-0.1v0.7v3.1v5.4
		c0.1,0,0.2,0,0.3,0c-0.7-0.6-1.4-1.1-2.3-1.2c-0.5-0.1-0.4,0.2-0.4-0.3v-3v-8.1c0-0.5,0.2-1.2-0.2-1.5c-0.8-0.6-2.3-0.5-3.2-0.4
		c-0.8,0.1-1.4,0.3-1.4,1.1v3v9.3c0.1,0,0.2-0.1,0.2-0.1c-2-0.1-4.2,1.8-4.2,3.8v6.6v15.6v0.4c0,0.1,0.1,0.1,0.2,0.1h24.5h0.6
		c0,0,0.2,0,0.2-0.1v-14.5v-7.4c0-0.5,0.1-1,0-1.4c-0.3-1.2-1.9-2.5-3-2.9c-0.4-0.1-0.8-0.2-1.2-0.1c-0.2,0-0.1,0.2,0.1,0.2
		c1.3-0.1,2.3,0.9,3.1,1.8c0.3,0.4,0.7,0.8,0.7,1.3v1.8v7.9v9v3.2v0.9v0.3c0-0.1,0.3,0-0.1,0h-24.7c-0.2,0,0.1,0.1,0.1,0v-0.3v-1
		v-3.3v-8.9v-7.7v-1.8c0-0.4,0.3-0.8,0.6-1.2c0.7-1,1.9-2,3.2-1.9c0.1,0,0.2,0,0.2-0.1v-12.5c0-1.1,3.2-0.7,3.8-0.4
		c0.5,0.2,0.3,1.5,0.3,2v8.2v2.8c0,0.1,0.1,0.1,0.2,0.1c1-0.1,1.9,0.5,2.6,1.2c0.1,0.1,0.3,0.1,0.3,0v-9.1c0-0.1-0.1-0.1-0.2-0.1
		h-0.9c-0.2,0,0,0.1,0,0v-0.4v-2.3c0-0.3,0.1-0.5-0.2-0.5c0.3,0,0.5,0,0.8,0c0.7,0,1.4,0,2,0c0.7,0,1.3-0.1,2,0c0.3,0,0.6,0,0.9,0
		c0.1,0-0.1-0.1-0.1,0v0.4v2.3v0.3c0,0.2,0,0.1,0.1,0.1h-1c0,0-0.2,0-0.2,0.1v8.3c0,0.1,0.3,0.1,0.3,0.1c0.4-0.2,0.9-0.3,1.4-0.3
		c0,0,0.2,0,0.2-0.1v-12.5c0-1.1,3.2-0.7,3.8-0.4c0.5,0.2,0.3,1.5,0.3,2v8.2v2.8C173.9,135.9,174.3,135.9,174.3,135.8"/>
	<path clip-path="url(#SVGID_1_)" fill="#9C9EA1" d="M159.3,122.5h0.1c0.2,0,0.2-0.2,0-0.2h-0.1
		C159.1,122.4,159.1,122.5,159.3,122.5h0.1v-0.2h-0.1C159.1,122.4,159.1,122.5,159.3,122.5"/>
	<path clip-path="url(#SVGID_1_)" fill="#CCC9C7" d="M14.7,8.1h12.5c0,0,0.2,0,0.2-0.1V-6.5v-7.4c0-0.5,0.1-1,0-1.4
		c-0.3-1.2-1.9-2.5-3-2.9c-0.4-0.1-0.8-0.2-1.2-0.1c0.1,0,0.2,0.1,0.2,0.1v-12.5c0-1.3-4.8-1.2-4.8-0.1v5.8v5.1v1.5v0.3
		c0-0.3-1.4,0.3-1.5,0.3c0.1,0,0.2,0,0.3,0.1v-4.8v-2.8v-0.6c0-0.1,0,0-0.1,0.1h0.4h0.6c0,0,0.2,0,0.2-0.1v-3.2
		c0-0.1-0.1-0.1-0.2-0.1c-1.9-0.1-3.9-0.1-5.9,0c0,0-0.2,0-0.2,0.1v3.2c0,0.1,0.1,0.1,0.2,0.1H13h0.3c0.2,0,0,0,0-0.1v0.7v3.1v5.4
		c0.1,0,0.2,0,0.3,0c-0.7-0.6-1.4-1.1-2.3-1.3c-0.5-0.1-0.4,0.2-0.4-0.3v-3v-8.1c0-0.5,0.2-1.2-0.2-1.5c-0.8-0.6-2.3-0.5-3.2-0.3
		c-0.8,0.1-1.4,0.3-1.4,1.1v3v9.3c0.1,0,0.2-0.1,0.2-0.1c-2-0.1-4.2,1.8-4.2,3.8v6.6V7.7v0.4c0,0.1,0.1,0.1,0.2,0.1H14.7
		c0.2,0,0.2-0.2,0-0.2H2.3C2.1,8,2.4,8,2.4,8V7.7v-1V3.4v-9.1v-7.7v-1.7c0-0.4,0.3-0.8,0.6-1.2c0.7-1,1.9-2,3.2-1.9
		c0,0,0.2,0,0.2-0.1v-12.5c0-1.1,3.2-0.7,3.8-0.4c0.6,0.2,0.3,1.5,0.3,2v8.2v2.8c0,0.1,0.1,0.1,0.2,0.1c1-0.1,1.9,0.5,2.6,1.2
		c0.1,0.1,0.3,0.1,0.3,0v-9.1c0-0.1-0.1-0.1-0.2-0.1h-0.9c-0.2,0,0,0.1,0,0v-0.4v-2.3c0-0.3,0.1-0.5-0.2-0.5c0.3,0,0.5,0,0.8,0
		c0.7,0,1.4,0,2,0c0.7,0,1.3-0.1,2,0c0.3,0,0.6,0,0.9,0c0.2,0-0.1-0.1-0.1,0v0.4v2.3v0.3c0,0.2,0,0.1,0.1,0.1h-1c0,0-0.2,0-0.2,0.1
		v8.3c0,0.1,0.3,0.1,0.3,0.1c0.4-0.2,0.9-0.3,1.4-0.3c0,0,0.2,0,0.2-0.1v-12.5c0-1.1,3.2-0.7,3.8-0.4c0.5,0.2,0.3,1.5,0.3,2v8.2v2.8
		c0,0.1,0.2,0.1,0.2,0.1c1.3-0.1,2.3,0.9,3.1,1.8c0.3,0.4,0.7,0.8,0.7,1.3v1.8v7.9v9v3.2v0.9V8c0-0.1,0.3,0-0.1,0H14.7
		C14.5,8,14.5,8.1,14.7,8.1"/>
	<path clip-path="url(#SVGID_1_)" fill="#CCC9C7" d="M41,8.1L41,8.1c0,0.2,0.1,0.2,0.2,0.2h15.2c0,0,0.2,0,0.2-0.1c0,0-0.3,0,0,0H57
		h1.4h2.3c0,0,0.2,0,0.2-0.1c0.1-9,0.2-18,0.2-27c0-1.3,0.1-2.7-0.1-4.1c0-0.1,0-0.2-0.1-0.2c-0.7-0.3-1.3-0.5-1.8-1
		c-0.9-0.8-0.6-2.2-0.6-3.3V-32v-1.4c0-0.4,0.2-0.7,0.4-1c0.4-0.7-6.3-1.7-6.3-2.5v-3.4v0c0-0.1-0.1-0.1-0.2-0.1h-5
		c0,0-0.2,0-0.2,0.1v3c0,0.6,6.5,1.2,6.5,1.9c0,0.2-0.1,0.5,0.1,0.8c0.1,0.3,0.5,0.8,0.5,1.1v1.3v4.5v1.9c0,0.8,0,1.2-0.6,1.8
		c-0.4,0.4-0.6,0.4-1.1,0.3c-0.1,0-0.8-0.2-0.8,0v-0.6v-7.4c0-2.3-6.5-4.6-6.5-6.9c0-1.7-3.3-1.4-4.5-1.2c-0.7,0.1-1.3,0.3-1.3,1.1
		v2.6c0,2.8,6.5,5.7,6.5,8.5v3.9c0.1,0,0.2,0,0.2-0.1c-1.3-0.1-2.4,0.5-3.4,1.3c-0.5,0.5-1,1-1.4,1.6c-0.1,0.2-0.6,1-0.2,1h-5.4
		c0,0-0.2,0-0.2,0.1v3.3c0,0.4,0.1,0.4,0.5,0.6c0.1,0,0.6,0.3,0.6,0.4v1.1c0,0.8,0.1,1-0.7,1.3c-0.8,0.2-1.6,0.4-2.3,0.5
		c-0.7,0.1-1.4,0.2-2.1,0.3c-0.3,0-0.8,0-1,0.1c-0.3,0.1-0.3,0.9-0.3,1.2c-0.1,1-0.1,2-0.1,3c0,2.9,0,5.7,0.1,8.6
		c0.1,2.5,0.1,5,0.2,7.5c0,0.1,0.1,0.1,0.2,0.1h10.5c0.2,0,0.2-0.2,0-0.2h-6.3h-3.6h-0.6c0.3,0,0.2,0.1,0.2-0.3
		C30.6,2.8,30.4-2.1,30.4-7c0-1.1,0-2.3,0.1-3.4c0-0.5,0-1.3,0.2-1.7c0,0,0.1,0,0.2,0c0.3,0,0.5,0,0.8-0.1c0.8-0.1,1.5-0.2,2.3-0.3
		c0.6-0.1,1.3-0.2,1.9-0.4c0.3-0.1,0.8-0.2,1-0.4c0.2-0.4,0-1.4,0-1.8c0-0.6-0.3-0.6-0.8-0.9c-0.4-0.3-0.3-0.4-0.3-1v-2.2v-0.6
		c0,0-0.3,0,0,0h1.7h3.5h0.1c0,0,0.2,0,0.2-0.1c0-0.8,0.6-1.4,1.1-2c0.9-1,2.2-2,3.6-1.9c0.1,0,0.2,0,0.2-0.1c0-4.5-6.5-9-6.5-13.5
		v-1.9c0-1,3.1-0.8,3.8-0.7c0.4,0.1,1.3,0.2,1.3,0.8v0.8c0,1.1,6.5,2.2,6.5,3.3v11.2c0,0.1,0.1,0.1,0.2,0.1c0.6,0,1.1,0.3,1.6,0.3
		c0.3,0,0.6-0.4,0.8-0.6c0.5-0.4,0.7-0.8,0.7-1.5v-4v-3.8c0-0.6-0.5-1.1-0.5-1.7c0-1.3-6.5-2.5-6.5-3.8v-1.4c0-0.2-0.2,0-0.1,0h0.6
		H52h0.4c-0.2,0-0.2-0.1-0.2,0.2v1.7c0,1.2,6.5,2.3,6.5,3.5c0,0.4-0.4,0.8-0.5,1.2c-0.1,0.2,0,0.5,0,0.7v7.8c0,1.1,1.4,1.9,2.4,2.2
		c0.1,0,0.1,0,0.1,0.2c0,0.2,0,0.4,0,0.6c0.1,1.9,0.1,3.7,0.1,5.6c0,5.7,0,11.4-0.1,17.1c0,2.1,0,4.1-0.1,6.2c0,0.4,0,0.9,0,1.3
		c0,0.2,0.3,0,0,0h-1.8h-2.4c0,0-0.2,0-0.2,0.1c0,0,0.3,0,0,0h-0.5h-1.7h-5.2h-5.3h-1.7h-0.5c-0.3,0,0,0,0,0C41.3,7.9,41,7.9,41,8.1
		"/>
	<path clip-path="url(#SVGID_1_)" fill="#CCC9C7" d="M73.8-15v-5.7v-1.9c0-0.7-1.6-0.7-2.1-0.7c-0.6,0.1-1.3,0.2-1.3,0.9v3v3.4v0.9
		c0-0.2-1,0.3-1.2,0.4h0.3c-0.1-0.1-1.2-0.7-1.2-0.4v-0.8v-3.6v-3c0-0.8-0.6-0.9-1.3-1c-0.6-0.1-1.8-0.1-2.1,0.6c-0.2,0.5,0,1.4,0,2
		v5.7c0.1,0,0.2-0.1,0.2-0.1c-1.7-0.1-3,1.9-3,3.5v6.3V8.1c0,0.1,0.1,0.1,0.2,0.1h14c0,0,0.2,0,0.2-0.1V-5.1v-6.4c0-0.6,0-1-0.3-1.5
		c-0.5-1-1.5-2.1-2.7-2c-0.2,0-0.1,0.2,0.1,0.2c1.2-0.1,2.5,1.8,2.5,2.9v2.3v8.6v7.9v1v0.3c0,0,0.3,0-0.1,0h-3.8h-5h-4h-0.7
		c-0.4,0-0.1,0-0.1,0V7.3V-9v-2.9c0-1.2,1.2-3.1,2.5-3c0.1,0,0.2,0,0.2-0.1v-4.4V-22v-0.7c0-0.5,1-0.6,1.3-0.6
		c0.4,0,1.3,0.1,1.3,0.5v0.6v2.7v4.4c0,0.1,0.1,0.1,0.2,0.1c0.4,0,0.8,0.1,1.1,0.4c0.1,0.1,0.2,0.1,0.3,0c0.3-0.3,0.6-0.4,1-0.4
		c0,0,0.2,0,0.2-0.1v-4.4V-22v-0.7c0-0.5,1-0.6,1.3-0.6c0.3,0,1.3,0.1,1.3,0.5v0.6v2.7v4.4C73.4-14.9,73.8-14.9,73.8-15"/>
	<path clip-path="url(#SVGID_1_)" fill="#CCC9C7" d="M155.2,8.2h7.8c0.1,0,0.2,0,0.2-0.1c0,0-0.3,0-0.1,0h0.3h1.3h3.8h5.5
		c0,0,0.2,0,0.2-0.1c0,0.1-0.3,0.1,0,0.1h0.5h1.6h2.4c0,0,0.2,0,0.2-0.1c0.1-9,0.2-18,0.2-27c0-1.3,0.1-2.7-0.1-4.1
		c0-0.1,0-0.2-0.1-0.2c-0.7-0.3-1.3-0.5-1.8-1c-0.9-0.8-0.6-2.2-0.6-3.3V-32v-1.4c0-0.4,0.2-0.7,0.4-1c0.4-0.7-6.3-1.7-6.3-2.5v-3.4
		v0c0-0.1-0.1-0.1-0.2-0.1h-5c0,0-0.2,0-0.2,0.1c0,1.8,6.5,3.7,6.5,5.5c0,0.4,0.5,0.8,0.5,1.2v0.8v4.1v3.4c0,0.7-0.5,1.1-1,1.5
		c-0.3,0.2-0.7,0.5-1.1,0.6c-0.1,0-0.2,0-0.3,0.1c-0.1,0.2-0.1,0.6-0.1,0.8c0,0.7,0,1.5-0.1,2.2c0,2.4,0,4.9,0,7.3
		c0.1,0,0.2,0,0.3-0.1c-0.4-0.1-1.9-0.2-1.9-0.8v-1.6c0-0.7,0.7-0.6,1.1-1.1c0.2-0.3,0-1.3,0-1.6v-2c0-0.1-0.1-0.1-0.2-0.1h-6.5
		c-0.5,0-0.5-0.2-0.9-0.4c-0.1,0-0.7-0.3-0.7,0v-0.2v-3.2v-6.6c0-0.3,0.3-0.7,0.3-1c0.1-0.4,0-0.7-0.1-1.1c-0.2-0.6-0.7-1-1.3-1.3
		c-1.2-0.5-3-0.3-3.8,0.8c-0.7,1,0,1.9,0,2.9v3.3v6.4c0.1,0,0.2-0.1,0.2-0.1c-2.5-0.2-2.9,4-3.1,5.7c0.1,0,0.2,0,0.3-0.1
		c-0.2-0.1-0.4-0.2-0.7-0.2c-0.1,0-0.1,0.1-0.1,0v-1.1v-3.5v-2.8c0-0.7-0.9-0.8-1.5-0.9c-0.4,0-1.9,0-1.9,0.7v1.9v5.7
		c0.1,0,0.2-0.1,0.2-0.1c-1.8-0.1-3,1.9-3,3.5v6.3V8.1c0,0.1,0.1,0.1,0.2,0.1H155.2c0.2,0,0.2-0.2,0-0.2h-6.3h-1.6h-0.4
		c-0.2,0,0.1,0.1,0.1-0.1V5.7v-16.5v-1.4c0-1.1,1.4-2.8,2.5-2.7c0.1,0,0.2,0,0.2-0.1v-4.4V-22v-0.7c0-0.5,1-0.6,1.3-0.6
		c0.3,0,1.3,0.1,1.3,0.5v0.6v2.7v4.4c0,0.1,0.1,0.1,0.2,0.1c0.2,0.1,0.5,0.1,0.7,0.1c0.1,0,0.3,0.1,0.3-0.1c0.2-1.3,0.5-5.7,2.7-5.5
		c0.1,0,0.2,0,0.2-0.1v-6.4v-3.3c0-0.3,0-0.4-0.2-0.7c-0.4-0.9-0.2-1.9,0.6-2.5c1.1-0.8,3.1-0.5,3.8,0.6c0.2,0.3,0.2,0.8,0.2,1.2
		c0,0.4-0.3,0.8-0.3,1.2v2.3v7.5v0.3c0,0.1,0.1,0.1,0.2,0.1c1,0,0.8,0.6,1.4,0.6h0.5h2.5h2.7h0.9h0.3c0.2,0-0.1-0.1-0.1,0v2.3v1.1
		c0,0.3-0.3,0.4-0.6,0.6c-0.1,0.1-0.5,0.2-0.5,0.4v1.5c0,0.4-0.1,0.6,0.2,0.8c0.5,0.3,1.2,0.4,1.8,0.5c0.1,0,0.3,0,0.3-0.1
		c0-2.5,0-5,0-7.6c0-0.7,0-1.4,0.1-2.1c0-0.5-0.1-0.6,0.3-0.7c1-0.4,2.2-1.1,2.2-2.3v-3.9v-3.9c0-0.6-0.5-1.1-0.5-1.7
		c0-1.2-6.5-2.5-6.5-3.7v-1.5c0-0.2,0-0.1-0.1-0.1h0.5h3.9h0.4c-0.1,0-0.1-0.1-0.1,0.1v1.6c0,1.2,6.5,2.4,6.5,3.6
		c0,0.4-0.3,0.8-0.5,1.1c-0.1,0.2-0.1,0.4-0.1,0.6v7.8c0,1.1,1.3,1.9,2.2,2.2c0.3,0.1,0.2,0,0.2,0.2c0,0.2,0,0.4,0,0.6
		c0.2,4.6,0.1,9.3,0.1,13.9c0,5-0.1,10-0.1,14.9l0,1.2c0,0.1,0,0.2,0,0.3c0,0.2,0.2,0,0.1,0h-4.6c0,0-0.2,0-0.2,0.1
		C174,8,174.2,8,174,8h-0.3h-1.3h-3.8h-5.5c-0.1,0-0.2,0-0.2,0.1c0,0,0.3,0,0.1,0h-0.2h-0.8h-2.8h-3.9C155,8.1,155,8.2,155.2,8.2"/>
	<rect x="5.7" y="8.1" clip-path="url(#SVGID_1_)" fill="#231F20" width="173" height="0.7"/>
	<rect x="1.6" y="8" clip-path="url(#SVGID_1_)" fill="#231F20" width="177.3" height="1"/>
	<rect x="5.7" y="58" clip-path="url(#SVGID_1_)" fill="#231F20" width="173" height="0.7"/>
	<rect x="1.6" y="57.9" clip-path="url(#SVGID_1_)" fill="#231F20" width="177.3" height="1"/>
	<rect x="5.7" y="108.5" clip-path="url(#SVGID_1_)" fill="#231F20" width="173" height="0.7"/>
	<rect x="1.6" y="108.3" clip-path="url(#SVGID_1_)" fill="#58595B" width="177.3" height="1"/>
	<rect x="78.8" y="-26.2" clip-path="url(#SVGID_1_)" fill="#FFFFFF" width="66" height="175"/>
	<path clip-path="url(#SVGID_1_)" fill="#231F20" d="M144.8,153.6h-66V-26.2h66V153.6z M146.6-28h-1.8h-66H77v1.8v179.8v1.8h1.8h66
		h1.8v-1.8V-26.2V-28z"/>
	<polygon clip-path="url(#SVGID_1_)" fill="#231F20" points="111.9,70.9 120.1,79.8 156.4,96.6 144.5,150.6 44.1,150.6 34.3,102.5 
		75.9,83.3 	"/>
	<path clip-path="url(#SVGID_1_)" fill="#FFFFFF" d="M111.7,71.7l7.9,8.5l0.1,0.1l0.1,0.1L155.5,97L144,149.9H44.7l-9.6-47.1
		l41.1-18.9L111.7,71.7z M111.9,70.9l-36,12.4l-41.6,19.2l9.8,48.2h100.4l11.8-54l-36.2-16.8L111.9,70.9z"/>
	<polygon clip-path="url(#SVGID_1_)" fill="#FFFFFF" points="110.9,82.8 77.9,94.7 73,150.6 107.2,150.6 	"/>
	<polygon clip-path="url(#SVGID_1_)" fill="#FFFFFF" points="67.9,105.6 67.2,106.1 70.1,85.8 70.8,85.9 	"/>
	
		<rect x="118.6" y="79.7" transform="matrix(0.995 0.1002 -0.1002 0.995 9.7633 -11.4519)" clip-path="url(#SVGID_1_)" fill="#FFFFFF" width="0.7" height="23.5"/>
	<polygon clip-path="url(#SVGID_1_)" fill="#FFFFFF" points="103.5,82.1 111.7,74.6 110.9,88.4 102.5,95.7 	"/>
	<polygon clip-path="url(#SVGID_1_)" fill="#CCC9C7" points="78.7,96.2 74.8,147.8 56.3,147.8 43.2,101.6 62.1,112.3 	"/>
	<polygon clip-path="url(#SVGID_1_)" fill="#CCC9C7" points="111.9,94.3 127.8,113 144.7,100.9 129.9,147.8 109.1,147.8 	"/>
	
		<rect x="106.9" y="86.7" transform="matrix(0.6475 0.762 -0.762 0.6475 107.5869 -49.4151)" clip-path="url(#SVGID_1_)" fill="#231F20" width="0.7" height="9.7"/>
	<path clip-path="url(#SVGID_1_)" fill="#FFFFFF" d="M77.3,96.6l-4,51.7H54.9L41.8,102l18.9,10.8L77.3,96.6z M78.2,94.8l-1.3,1.3
		l-16.2,15.8l-18.5-10.5l-1.6-0.9l0.5,1.7l13.1,46.3l0.2,0.5h0.5h18.5H74l0.1-0.6l4-51.7L78.2,94.8z"/>
	
		<rect x="110.9" y="70.9" transform="matrix(0.9983 5.853789e-02 -5.853789e-02 0.9983 5.0392 -6.3695)" clip-path="url(#SVGID_1_)" fill="#FFFFFF" width="0.7" height="23.9"/>
	<path clip-path="url(#SVGID_1_)" fill="#FFFFFF" d="M77.9,86.8l-1.4,8.4l3.4,0.7c1.2,0.3,14.6,2.8,14.6,2.8l9.8-14.4L77.9,86.8
		l-1.4,8.4"/>
	<path clip-path="url(#SVGID_1_)" fill="#FFFFFF" d="M110.5,94.7l15.9,18.7l16.8-12.2l-14.7,47h-20.8L110.5,94.7z M109.9,93
		l-0.1,1.7l-2.8,53.5l0,0.7h0.7h20.8h0.5l0.2-0.5l14.7-47l0.7-2.1l-1.8,1.3l-16.3,11.8l-15.5-18.2L109.9,93z"/>
	<polygon clip-path="url(#SVGID_1_)" fill="#231F20" points="87.7,149.5 87,149.5 91,104.3 91.7,104.4 	"/>
	<polygon clip-path="url(#SVGID_1_)" fill="#231F20" points="110.4,96.6 103.5,98.5 103.5,103.2 92.8,99.2 91.4,98.8 79.9,96 
		79.9,117.2 91.4,106.2 95.2,106.6 103.5,120 	"/>
	<path clip-path="url(#SVGID_1_)" fill="#FFFFFF" d="M79.9,96l11.5,2.8l1.4,0.3l10.8,4v-4.7l6.9-1.9l-6.9,23.4l-8.4-13.4l-3.8-0.4
		l-11.5,11V96z M79.2,95.1V96v21.2v1.6l1.2-1.1l11.2-10.8l3.1,0.3l8.2,13.1l0.8,1.3l0.4-1.5l6.9-23.4l0.4-1.2l-1.2,0.3l-6.9,1.9
		l-0.5,0.1v0.5v3.7L93,98.5l0,0l0,0l-1.4-0.3l-11.5-2.8L79.2,95.1z"/>
	
		<rect x="94.8" y="98.2" transform="matrix(0.9999 1.113898e-02 -1.113898e-02 0.9999 1.1522 -1.0531)" clip-path="url(#SVGID_1_)" fill="#FFFFFF" width="0.7" height="9.3"/>
	<path clip-path="url(#SVGID_1_)" fill="#CCC9C7" d="M92.6,129c-1.2,0-2.3-1-2.3-2.3c0-1.3,1-2.3,2.3-2.3c1.2,0,2.3,1,2.3,2.3
		C94.8,128,93.8,129,92.6,129 M92.6,125c-0.9,0-1.5,0.7-1.5,1.6c0,0.9,0.7,1.6,1.5,1.6c0.9,0,1.6-0.7,1.6-1.6
		C94.1,125.8,93.4,125,92.6,125"/>
	<polyline clip-path="url(#SVGID_1_)" fill="#FFFFFF" points="103.5,98.5 103.5,103.2 92.8,99.2 103.5,83.8 	"/>
	<rect x="103.2" y="83.8" clip-path="url(#SVGID_1_)" fill="#231F20" width="0.7" height="14.7"/>
	<polygon clip-path="url(#SVGID_1_)" fill="#231F20" points="103.9,103.7 92.2,99.4 103.2,83.6 103.8,84 93.3,99 103.2,102.7 
		103.2,98.5 103.9,98.5 	"/>
	<path clip-path="url(#SVGID_1_)" fill="#FFFFFF" d="M68.9,37.5c-0.2,0.9-0.4,2-0.6,3.4c-0.7,4.1-1.4,10.1-1,16.7
		c0.5,0.8,1.6,0.9,1.6,0.9c-0.1,3.7,0.4,8.6,1.5,11.9c1.1,3.3,5.9,11.5,7,13.6c0.4,0.8,1.2,2.1,2,3.5c1.3,2.4,2.7,5.1,2.8,6.2
		c0.1,1.1,4.5,2,8.3,2.2c2.3,0.1,4.3,0,4.9-0.5l9.6-11l8.2-9.1l0.2-3.7c0-1.5,1.1-5.7,1.1-5.7c1.8,0.2,4.3-0.7,5.9-4
		c1.6-3.3,4.3-17,1.2-17.5c-1.1-0.2-2.8,1.2-4.4,3.4c-3,3.9-6.1,10.1-6,13.1c-0.5,0.9-2.7,1.1-2.7,1.1c0.1-1.6-0.2-3,0-4.2
		c0.2-1.2,1.5-21-3.5-23.8c-3.4-0.2-18.3,9.6-23.6,4.9C79.9,41.2,73.8,39.8,68.9,37.5"/>
	<path clip-path="url(#SVGID_1_)" fill="#CCC9C7" d="M97.6,59.8L97.6,59.8c0.1,3.9-1.7,7.2-4.2,7.3l-2.6,0.2
		c-2.4,0.2-4.5-2.8-4.7-6.7"/>
	<path clip-path="url(#SVGID_1_)" fill="#CCC9C7" d="M77.3,60.6c-0.4,3.4-1.8,6.3-3.7,5.7l-2-0.6c-1.9-0.5-3.4-3.3-2.8-7.3"/>
	<path clip-path="url(#SVGID_1_)" fill="#231F20" d="M95.3,59.8L95.3,59.8c0,0.8-0.6,1.6-1.5,1.6l-0.9,0c-0.8,0-1.6-0.6-1.6-1.5"/>
	<path clip-path="url(#SVGID_1_)" fill="#231F20" d="M74,59.8L74,59.8c-0.2,0.8-0.9,1.4-1.5,1.2l-0.6-0.2c-0.6-0.2-0.9-1-0.7-1.8"/>
	<path clip-path="url(#SVGID_1_)" fill="#231F20" d="M109.7,60.1c0,0,0-0.1,0-0.2c0-0.1,0-0.3,0-0.6c0-0.5,0.2-1.3,0.5-2.3
		c0.6-2,1.8-4.9,4-8.2c0.6-0.8,1.2-1.7,1.9-2.6c0.7-0.8,1.5-1.7,2.6-2.4c0.3-0.2,0.6-0.3,0.9-0.4c0.2,0,0.4,0,0.5,0
		c0.2,0.1,0.4,0.1,0.5,0.2c0.3,0.2,0.5,0.5,0.7,0.9c0.1,0.3,0.2,0.7,0.3,1c0.2,1.3,0.2,2.7,0.1,4.2c-0.2,2.9-0.7,5.9-1.6,9.1
		c-0.2,0.8-0.5,1.6-0.8,2.4c-0.2,0.4-0.4,0.8-0.6,1.2c-0.2,0.4-0.5,0.7-0.8,1.1c-0.3,0.3-0.6,0.7-1,1c-0.4,0.3-0.8,0.6-1.2,0.7
		c-0.8,0.4-1.8,0.6-2.8,0.6c0.1,0,0.3-0.2,0.4-0.3c-0.2,0.9-0.5,2.2-0.8,3.8c-0.3,1.6-0.3,3.6-0.4,5.6l0,0.2l-0.1,0.1
		c-1.8,2-4,4.5-6.6,7.4c-2.6,2.9-5.4,6.1-8.3,9.4c-1,1.2-2.1,2.4-2.9,3.3l0,0l0,0c-0.2,0.1-0.4,0.3-0.6,0.3
		c-0.2,0.1-0.4,0.1-0.6,0.2c-0.4,0.1-0.7,0.1-1.1,0.1c-0.7,0.1-1.4,0.1-2.1,0c-1.3,0-2.7-0.2-4-0.4c-1.3-0.2-2.6-0.4-3.9-0.9
		c-0.3-0.1-0.6-0.2-1-0.4c-0.1,0-0.2-0.1-0.2-0.2l-0.1-0.1c0,0-0.1-0.1-0.1-0.1c-0.1-0.1-0.2-0.3-0.2-0.4l0-0.1l0,0l0,0
		c0,0.1,0-0.1,0-0.1l0,0c-0.1-0.5-0.3-1.1-0.6-1.7c-1-2.3-2.2-4.4-3.3-6.5c-1.1-2.1-2.3-4.1-3.3-6c-1.1-1.9-2.1-3.8-3-5.7
		c-0.4-0.9-0.9-1.9-1.2-2.8c-0.1-0.2-0.2-0.4-0.2-0.7c-0.1-0.2-0.1-0.5-0.2-0.7c-0.1-0.5-0.2-0.9-0.3-1.4c-0.7-3.7-0.9-7-0.8-9.8
		c0.1,0.1,0.1,0.2,0.2,0.2c-0.5-0.1-0.9-0.3-1.1-0.4c-0.3-0.2-0.5-0.4-0.6-0.6l0,0l0-0.1c-0.3-6.7,0.4-11.8,0.9-15.1
		c0.2-1.7,0.5-2.9,0.7-3.7c0.2-0.8,0.2-1.2,0.2-1.2s-0.1,0.4-0.2,1.3c-0.1,0.8-0.4,2.1-0.6,3.8c-0.4,3.3-1,8.4-0.6,15.1
		c0,0,0-0.1,0-0.1c0.2,0.3,0.6,0.6,1.5,0.8l0.2,0v0.2c0,2.8,0.2,6.1,1,9.7c0.1,0.4,0.2,0.9,0.3,1.3c0.1,0.2,0.1,0.5,0.2,0.7
		c0,0.2,0.2,0.4,0.2,0.7c0.3,0.9,0.8,1.8,1.2,2.7c0.9,1.8,1.9,3.7,3,5.6c1.1,1.9,2.2,3.9,3.4,6c1.2,2.1,2.4,4.2,3.4,6.5
		c0.2,0.6,0.5,1.2,0.6,1.9c0,0.2,0.6,0.5,1.1,0.7c1.1,0.4,2.4,0.6,3.7,0.8c1.3,0.2,2.6,0.3,3.9,0.3c0.6,0,1.3,0,1.9,0
		c0.3,0,0.6-0.1,0.9-0.1c0.3,0,0.6-0.2,0.7-0.3c0,0,0,0-0.1,0.1c0.8-0.9,1.8-2.1,2.9-3.3c2.9-3.3,5.7-6.6,8.3-9.4
		c2.6-2.9,4.9-5.4,6.7-7.4c0,0.1-0.1,0.2-0.1,0.3c0.1-2,0.2-3.9,0.5-5.6c0.3-1.7,0.6-3.1,0.9-3.9l0.1-0.3l0.4,0
		c0.8,0.1,1.7-0.1,2.4-0.5c0.4-0.1,0.7-0.4,1-0.6c0.3-0.3,0.6-0.5,0.9-0.8c0.2-0.3,0.5-0.6,0.7-1c0.2-0.4,0.4-0.7,0.6-1.1
		c0.3-0.7,0.6-1.5,0.8-2.3c0.9-3.1,1.4-6.1,1.7-8.9c0.1-1.4,0.2-2.8-0.1-4c-0.1-0.6-0.3-1.3-0.7-1.6c-0.1-0.1-0.2-0.1-0.3-0.1
		c-0.2,0-0.3,0-0.4,0c-0.3,0-0.5,0.2-0.8,0.3c-1,0.6-1.8,1.5-2.5,2.3c-0.7,0.8-1.3,1.7-1.9,2.5c-2.2,3.3-3.5,6.1-4.2,8.1
		c-0.3,1-0.5,1.8-0.6,2.3c0,0.3,0,0.5,0,0.6C109.7,60,109.7,60.1,109.7,60.1"/>
	<path clip-path="url(#SVGID_1_)" fill="#231F20" d="M100.1,59.5c0,0-0.1,0-0.3,0.1c-0.2,0.1-0.6,0.1-1,0.2
		c-0.9,0.1-2.2,0.2-3.7,0.4c-3.1,0.3-7.5,0.8-12.3,1c-2,0.1-3.9,0.2-5.7-0.3c-0.9-0.1-1.7-0.4-2.4-0.6c-0.8-0.2-1.5-0.4-2.1-0.6
		c-2.7-0.8-4.5-1.2-5-1.5c-0.1,0.3,0-0.2,0-0.2c-0.8-0.2-1.2-0.5-1.4-0.7c-0.2-0.2-0.2-0.3-0.2-0.3s0,0.1,0.2,0.3
		c0.2,0.2,0.6,0.5,1.4,0.6l0.2-0.2c1,0.2,2.2,0.7,4.9,1.3c0.7,0.2,1.4,0.3,2.2,0.5c0.8,0.2,1.6,0.4,2.4,0.5c1.7,0.4,3.5,0.2,5.5,0.2
		c4.8-0.2,9.2-0.4,12.3-0.5c1.6,0,2.9,0,3.7,0c0.4,0,0.8,0,1-0.1C100,59.5,100.1,59.5,100.1,59.5"/>
	<path clip-path="url(#SVGID_1_)" fill="#231F20" d="M96.7,52.2c0,0-0.4-0.1-1-0.2c-0.6-0.1-1.6-0.2-2.7-0.2
		c-2.3,0.2-5.4,0.8-8.9,1.2c-3.5,0.4-6.8,0.6-9.1,0.1c-0.3-0.1-0.6-0.1-0.8-0.2c-0.2-0.1-0.5-0.2-0.7-0.3c-0.4-0.2-0.8-0.5-1-0.7
		c-0.5-0.4-0.8-0.6-0.8-0.6s0.3,0.2,0.9,0.5c0.3,0.2,0.6,0.3,1,0.5c0.2,0.1,0.5,0.1,0.7,0.2c0.2,0.1,0.5,0.1,0.8,0.1
		c2.3,0.3,5.4-0.2,8.9-0.6c3.5-0.4,6.7-0.8,9.1-0.7c1.2,0.1,2.1,0.3,2.7,0.5C96.3,52.1,96.7,52.2,96.7,52.2"/>
	<path clip-path="url(#SVGID_1_)" fill="#231F20" d="M89.4,74.8c0,0,0-0.2-0.3-0.3c-0.3-0.1-0.8-0.2-1.7-0.1c0,0,0,0,0.1-0.1
		c0,0.3,0,0.9-0.2,1.7c-0.1,0.2-0.2,0.4-0.3,0.6c-0.1,0.1-0.1,0.2-0.2,0.3l-0.1,0.1c0,0,0,0-0.1,0.1L86.4,77
		c-0.4,0.3-0.9,0.5-1.4,0.7c-0.5,0.2-1,0.4-1.6,0.6c-0.3,0.1-0.6,0.2-0.9,0.2c-0.3,0.1-0.7,0.1-1.1,0.1c-0.1,0-0.3-0.1-0.4-0.1
		l-0.1,0l0,0l0,0l-0.1,0l0,0l0,0l-0.1-0.1c-0.2-0.2-0.3-0.3-0.4-0.5c-0.2-0.3-0.4-0.6-0.5-1c-0.3-0.6-0.6-1.3-0.9-2
		c-0.4-0.9-0.7-1.9-0.9-2.8c-0.2-1-0.3-1.9-0.3-2.8c0-1.8,0.1-3.3,0.3-4.6c0.2-1.3,0.4-2.3,0.5-3c0.2-0.7,0.3-1.1,0.3-1.1
		s0,0.4-0.1,1.1c0,0.7-0.1,1.8-0.2,3.1c0,1.3-0.1,2.8,0,4.5c0.1,0.8,0.2,1.7,0.4,2.6c0.2,0.9,0.5,1.8,0.9,2.7
		c0.3,0.7,0.5,1.3,0.8,1.9c0.1,0.3,0.3,0.6,0.5,0.9c0.1,0.1,0.2,0.3,0.2,0.3c0,0,0,0,0,0l0,0l0,0c-0.2,0.1-0.1,0-0.1,0.1l0,0l0.1,0
		c0,0,0,0,0.1,0c0.1,0.1,0.1,0,0.1,0c0.2,0,0.5,0,0.8,0c0.3,0,0.6-0.1,0.9-0.2c0.6-0.1,1.1-0.3,1.6-0.5c0.5-0.2,1-0.4,1.3-0.6l0.1,0
		c0,0,0,0,0,0l0.1-0.1c0.1-0.1,0.2-0.1,0.2-0.2c0.1-0.1,0.2-0.3,0.3-0.4c0.3-0.6,0.4-1.2,0.5-1.5l0-0.1l0.1,0c0.9,0,1.5,0.1,1.7,0.3
		C89.4,74.7,89.4,74.8,89.4,74.8"/>
	<path clip-path="url(#SVGID_1_)" fill="#231F20" d="M115.4,56.9c0,0,0.1,0,0.2-0.1c0.1-0.1,0.2-0.2,0.4-0.4
		c0.3-0.4,0.6-1.1,0.9-1.9c0.3-0.9,0.7-1.9,1-3.1c0.2-0.6,0.3-1.2,0.4-1.9c0.1-0.7,0.2-1.4,0.1-2c0.1,0.1,0.4,0.2,0.6,0.4
		c-0.4,0.1-1.1,0.6-1.6,1.4c-1.1,1.3-1.9,2.8-2.6,4.2c-0.7,1.4-1.3,2.6-1.7,3.7c-0.4,1.1-0.7,2-0.9,2.6c-0.2,0.6-0.2,1-0.2,1
		s0-0.4,0.1-1c0.1-0.7,0.3-1.6,0.6-2.7c0.3-1.1,0.8-2.5,1.4-3.9c0.6-1.4,1.4-3,2.6-4.5c0.6-0.8,1.4-1.5,2.2-1.7l0.5-0.1l0.1,0.5
		c0.1,0.9-0.1,1.7-0.3,2.4c-0.2,0.7-0.4,1.4-0.6,2c-0.4,1.2-0.9,2.2-1.3,3.1c-0.4,0.8-0.8,1.5-1.2,1.8c-0.2,0.2-0.3,0.3-0.4,0.4
		C115.5,56.9,115.4,56.9,115.4,56.9"/>
	<path clip-path="url(#SVGID_1_)" fill="#231F20" d="M96.7,69.4c0,0,0-0.3,0.5-0.7c0.1-0.1,0.3-0.2,0.5-0.2c0.1,0,0.2,0,0.3,0
		c0.1,0,0.2,0,0.3,0.1c0.2,0.2,0.3,0.5,0.3,0.7c0,0.3-0.1,0.5-0.2,0.7c-0.2,0.5-0.6,0.9-1.3,1.2l-0.1,0l-0.1,0l-0.1,0h0h0h0l-0.2,0
		c-0.1,0-0.3,0-0.5,0c-0.3,0-0.6,0-1,0c-1.3-0.1-2.7-0.6-4-1.5c-1.3-0.9-2.2-2-2.9-3c-0.7-1.1-1.1-2.2-1.5-3.1
		c-0.3-0.9-0.4-1.7-0.5-2.2c0-0.3,0-0.5,0-0.6c0-0.1,0-0.2,0-0.2s0.2,1.2,1,2.8c0.8,1.7,2.2,3.9,4.5,5.4c1.1,0.8,2.3,1.3,3.5,1.4
		c0.3,0.1,0.6,0.1,0.9,0.1c0.1,0,0.3,0,0.4,0l0.2,0l0,0l0,0h0h0c-0.1,0,0,0,0,0l0,0l0.1,0c0.4-0.1,0.8-0.4,1-0.7
		c0.2-0.3,0.4-0.8,0.2-0.9c0,0-0.1-0.1-0.2-0.1c-0.1,0-0.2,0-0.2,0c-0.1,0-0.2,0-0.4,0.1C96.8,69.1,96.7,69.5,96.7,69.4"/>
	<path clip-path="url(#SVGID_1_)" fill="#231F20" d="M72.8,67.5c0,0,0,0-0.1-0.1c-0.1-0.1-0.2-0.1-0.4-0.2c-0.1,0-0.2,0-0.3,0
		c-0.1,0-0.2,0-0.3,0.1c-0.2,0.1-0.3,0.4-0.3,0.6c0,0.3,0.2,0.5,0.4,0.7c0.3,0.2,0.5,0.3,1,0.3c0.6,0.1,1.3-0.5,1.8-1.3
		c0.5-0.8,0.9-1.8,1.2-2.6c0.3-0.8,0.6-1.6,0.8-2.3c0.4-1.3,0.6-2.2,0.6-2.2s0.1,0.9-0.1,2.3c-0.1,0.7-0.2,1.5-0.4,2.4
		c-0.2,0.9-0.6,1.9-1.2,2.9c-0.3,0.5-0.7,0.9-1.2,1.3c-0.5,0.4-1.1,0.5-1.8,0.4c-0.4-0.1-1-0.3-1.3-0.7c-0.4-0.4-0.5-0.9-0.5-1.3
		c0.1-0.4,0.3-0.8,0.7-0.9c0.2-0.1,0.3-0.1,0.5-0.1c0.1,0,0.3,0.1,0.3,0.1c0.2,0.1,0.3,0.2,0.4,0.3C72.8,67.4,72.8,67.5,72.8,67.5"
		/>
	<path clip-path="url(#SVGID_1_)" fill="#231F20" d="M96.7,78.3c0,0-1.1,0.7-2.9,1.8c-0.9,0.6-2.1,1.1-3.4,1.7
		c-1.3,0.5-2.8,1.1-4.4,1.4c-0.5,0.1-1,0.2-1.4,0.2c-0.5,0.1-1,0.1-1.4,0.1c-0.5,0-1-0.1-1.4-0.1l-0.3-0.1l-0.1,0
		c-0.1,0-0.1,0-0.1,0l-0.2-0.1c-0.3-0.1-0.4-0.3-0.6-0.4c-0.6-0.6-1.1-1.1-1.5-1.6c-0.4-0.5-0.7-0.9-1-1.2c0.2,0,0.2,0,0.3,0
		c-0.2,0.4-0.3,0.8-0.3,1.1c0,0.3,0,0.6,0.1,0.9c0,0.5,0.1,0.7,0.1,0.7s-0.1-0.2-0.2-0.6c-0.1-0.2-0.1-0.5-0.2-0.9
		c-0.1-0.4,0-0.8,0.2-1.3l0.1-0.2l0.2,0.2c0.3,0.3,0.7,0.7,1.1,1.1c0.4,0.4,0.9,0.9,1.5,1.4c0.5,0.4,1.3,0.4,2.1,0.4
		c0.4,0,0.8,0,1.3-0.1c0.4-0.1,0.9-0.1,1.3-0.2c1.5-0.3,3-0.8,4.3-1.2c1.3-0.5,2.5-0.9,3.5-1.3C95.5,78.8,96.7,78.3,96.7,78.3"/>
	<path clip-path="url(#SVGID_1_)" fill="#231F20" d="M89.4,85.8c0,0-0.1,0-0.4,0.1c-0.2,0.1-0.6,0.2-1,0.2c-0.4,0.1-0.9,0.2-1.6,0.2
		c-0.6,0-1.3,0.1-1.9,0c-0.7,0-1.4-0.3-1.9-0.7c-0.5-0.4-0.8-0.9-1-1.4c-0.1-0.5-0.2-0.8-0.2-1.1c0-0.2,0-0.4,0-0.4s0.1,0.1,0.1,0.4
		c0.1,0.2,0.2,0.6,0.5,0.9c0.3,0.3,0.6,0.6,1,0.9c0.5,0.2,1,0.4,1.6,0.4c0.7,0.1,1.3,0.1,1.8,0.2c0.6,0.1,1.1,0.1,1.5,0.2
		c0.4,0.1,0.8,0.1,1,0.1C89.2,85.8,89.4,85.8,89.4,85.8"/>
	<path clip-path="url(#SVGID_1_)" fill="#FFFFFF" d="M117.1,47.7c-3,3.9-6.1,10.1-6,13.1c-0.5,0.9-2.7,1.1-2.7,1.1
		c0.1-1.6-0.2-3,0-4.2c0.2-1.2,1.5-21-3.5-23.8c-3.4-0.2-18.3,9.6-23.6,4.9c-1.4,2.5-7.5,1.1-12.4-1.2c-0.2,0.9-0.4,2-0.6,3.4
		c-2.1,0.1-3.9-5.3-3.3-10.6c0.5-5.3,7.5-24.2,22.6-19.6c2.1-3.3,13.5-3,21,4.7c3.8,3.7,3.8,6,4.7,8.2
		C114.2,25.9,117.4,43.4,117.1,47.7"/>
	<path clip-path="url(#SVGID_1_)" fill="#231F20" d="M96.7,82.8c0,0,0-0.2,0.1-0.5c0-0.3,0.1-0.8,0-1.5c-0.1-1.2-0.6-2.8-1.8-4.1
		c-0.6-0.7-1.2-1.2-1.9-1.7c-0.3-0.2-0.6-0.4-0.9-0.6c-0.3-0.1-0.6-0.2-0.9-0.3c-0.6-0.1-1.2-0.3-1.5-0.4c-0.3-0.2-0.5-0.2-0.5-0.2
		s0.2,0,0.5,0.1c0.4,0.1,0.8,0.1,1.5,0.1c0.3,0,0.7,0,1.1,0.1c0.4,0.1,0.8,0.3,1.1,0.5c0.7,0.4,1.5,1,2.2,1.8
		c0.7,0.8,1.1,1.7,1.4,2.5c0.2,0.9,0.2,1.7,0.1,2.3c-0.1,0.6-0.3,1.1-0.4,1.5C96.8,82.6,96.7,82.8,96.7,82.8"/>
	<path clip-path="url(#SVGID_1_)" fill="#231F20" d="M99.4,80.7c0,0-0.2-0.2-0.4-0.5c-0.2-0.3-0.4-0.8-0.6-1.3
		c-0.1-0.5-0.2-1-0.2-1.3c0-0.2,0-0.3,0-0.4c0-0.1,0-0.2,0-0.2s0.1,0,0.2,0.1c0.1,0,0.2,0.1,0.4,0.3c0.3,0.3,0.6,0.8,0.7,1.3
		c0.1,0.5,0.1,1.1,0.1,1.4C99.5,80.4,99.4,80.7,99.4,80.7"/>
	<path clip-path="url(#SVGID_1_)" fill="#231F20" d="M91.9,7.9c4.5,0,10.7,2,15.3,6.7c3.8,3.7,3.8,6,4.7,8.2
		c0.9,2.3,4,19.8,3.7,24.1c1.6-2,3.1-3.4,4.2-3.4c0.1,0,0.1,0,0.2,0c3.1,0.5,0.4,14.2-1.2,17.5c-1.5,3.1-3.8,4.1-5.5,4.1
		c-0.1,0-0.3,0-0.4,0c0,0-1.1,4.2-1.1,5.7l8.2,8.9l36.2,16.8l-11.5,51.7H43.2l-8.9-45.8l41.6-19.2c-1.1-2-5.9-10.2-7-13.6
		c-1.1-3.3-1.6-8.2-1.5-11.9c0,0-1.2-0.2-1.6-0.9c-0.4-6.7,0.4-12.7,1-16.7c0,0-0.1,0-0.1,0c-2.1,0-3.8-5.4-3.3-10.6
		C64,24.9,69.7,9.2,81.6,9.2c1.4,0,2.9,0.2,4.5,0.7C87,8.7,89.1,7.9,91.9,7.9 M91.9,5.8L91.9,5.8c-2.7,0-4.9,0.6-6.4,1.8
		c-1.3-0.3-2.6-0.5-3.9-0.5C68,7.1,61.9,24.5,61.5,29.4c-0.5,4.5,0.6,9.4,2.5,11.5c0.2,0.2,0.4,0.4,0.6,0.5
		c-0.8,5.4-1,10.6-0.8,15.6l0,0.5l0.3,0.5c0.4,0.6,0.8,1,1.3,1.3c0,3.4,0.5,7.8,1.6,11.1c0.8,2.6,3.5,7.5,6,12l-39.5,18.2l-1.5,0.7
		l0.4,1.7l8.9,45.8l0.4,1.7h1.7h101.7h1.7l0.4-1.6l11.5-51.7l0.4-1.7l-1.6-0.7l-35.9-16.7l-7.3-7.9c0.1-0.8,0.3-1.9,0.6-3
		c2.5-0.5,4.8-2.3,6.1-5.1c1.4-2.8,4.2-14.6,2.1-18.7c-0.5-1-1.4-1.7-2.4-1.9c-0.2,0-0.4,0-0.6,0c-0.6,0-1.4,0.1-2.4,0.8
		c-0.8-7.1-2.8-18.1-3.6-20.1c-0.2-0.4-0.3-0.8-0.4-1.3c-0.6-2-1.3-4.4-4.8-7.7C103.4,7.8,96.5,5.8,91.9,5.8"/>
	<path clip-path="url(#SVGID_1_)" fill="#231F20" d="M115.7,46.5c0,0,0-0.3,0-1c0-0.3,0-0.8,0-1.2c-0.1-0.5-0.1-1.1-0.2-1.7
		c-0.3-2.6-0.9-6.4-1.8-11.3c-0.5-2.4-1-5.2-1.7-8.1l-0.2-0.5c0-0.2-0.1-0.4-0.2-0.5c-0.1-0.4-0.3-0.7-0.4-1.1
		c-0.2-0.7-0.5-1.5-0.9-2.2c-0.3-0.7-0.8-1.4-1.3-2.1c-0.3-0.3-0.5-0.6-0.8-1c-0.3-0.3-0.6-0.6-0.9-0.9c-2.4-2.5-5.6-4.6-9.3-5.9
		c-1.9-0.6-3.9-1-5.9-1c-1,0-2.1,0.1-3.1,0.3c-1,0.3-2,0.7-2.5,1.5l-0.2,0.3L86,9.9c-2.1-0.6-4.7-0.9-7.4-0.3
		c-2.7,0.7-5.3,2.3-7.5,4.7c-2.2,2.4-3.9,5.3-5.3,8.6c-0.7,1.6-1.2,3.3-1.6,5.1c-0.2,0.8-0.3,1.8-0.3,2.7c0,0.9,0,1.8,0.1,2.7
		c0.1,1.2,0.4,2.5,0.8,3.6c0.2,0.5,0.5,1.1,0.8,1.5c0.3,0.4,0.7,0.7,1.1,0.7c-0.2,0.2-0.3,0.3-0.5,0.4c0.2-1.1,0.4-2.3,0.6-3.4
		l0.1-0.7l0.6,0.3c2,1,4.1,1.7,6.2,2.2c1,0.2,2.1,0.4,3.1,0.3c0.5,0,1-0.1,1.4-0.3c0.4-0.2,0.7-0.4,1-0.8l0.3-0.5l0.4,0.4
		c0.8,0.7,1.8,1,2.8,1.1c1.1,0.1,2.1,0,3.2-0.2c2.1-0.4,4.1-1.1,6.1-1.8c1.9-0.7,3.8-1.5,5.6-2.3c0.9-0.4,1.8-0.8,2.7-1.1
		c0.5-0.2,0.9-0.3,1.4-0.5c0.5-0.1,0.9-0.3,1.5-0.2l0.1,0l0.1,0c0.9,0.5,1.4,1.3,1.8,2.1c0.4,0.8,0.7,1.6,0.9,2.4
		c0.4,1.6,0.7,3.2,0.8,4.7c0.3,3,0.3,5.8,0.3,8.3c0,2.5-0.1,4.6-0.3,6.5c-0.1,0.5-0.1,0.9-0.1,1.3c0,0.4,0,0.8,0,1.2
		c0,0.7,0,1.4,0,2c-0.1-0.1-0.1-0.1-0.1-0.1c1-0.1,1.6-0.3,2-0.5c0.4-0.2,0.5-0.3,0.6-0.5c0,0,0,0,0,0c0-1.5,0.5-2.8,0.9-3.9
		c0.4-1.1,0.9-2.1,1.3-3c0.9-1.7,1.6-3,2.2-3.9c0.6-0.9,1-1.5,1.3-1.9C115.6,46.6,115.7,46.5,115.7,46.5s-0.1,0.1-0.4,0.5
		c-0.3,0.4-0.7,1-1.3,1.9c-0.6,0.9-1.3,2.2-2.2,3.9c-0.4,0.9-0.9,1.8-1.3,3c-0.4,1.1-0.8,2.4-0.8,3.8v0l0,0
		c-0.3,0.4-0.7,0.9-2.7,1.1l-0.1,0l0-0.1c0-0.6,0-1.2-0.1-1.9c0-0.4,0-0.8-0.1-1.2c0-0.4,0.1-0.9,0.1-1.3c0.1-1.8,0.2-4,0.2-6.4
		c0-2.5-0.1-5.2-0.5-8.2c-0.2-1.5-0.4-3-0.9-4.6c-0.2-0.8-0.5-1.6-0.9-2.3c-0.4-0.7-0.9-1.4-1.5-1.8c0,0,0.1,0,0.2,0
		c-0.8,0-1.7,0.4-2.6,0.7c-0.9,0.3-1.8,0.7-2.7,1.1c-1.8,0.8-3.7,1.6-5.6,2.4c-2,0.8-4,1.5-6.2,1.9c-1.1,0.2-2.3,0.3-3.4,0.2
		c-1.2-0.1-2.4-0.5-3.4-1.4c0.2,0,0.5-0.1,0.8-0.1c-0.3,0.6-0.9,1-1.5,1.2c-0.6,0.2-1.2,0.3-1.7,0.3c-1.2,0.1-2.3-0.1-3.4-0.3
		c-2.2-0.5-4.4-1.3-6.5-2.3c0.2-0.1,0.5-0.2,0.7-0.4c-0.2,1.1-0.4,2.2-0.6,3.3l-0.1,0.5l-0.4,0c-0.2,0-0.5,0-0.6-0.1
		c-0.2-0.1-0.4-0.1-0.6-0.3c-0.3-0.2-0.6-0.5-0.8-0.8c-0.4-0.6-0.7-1.2-1-1.8c-0.5-1.2-0.7-2.5-0.9-3.8c-0.1-1-0.2-1.9-0.1-2.9
		c0-1,0.1-1.9,0.3-2.8c0.4-1.8,1-3.6,1.7-5.3c1.4-3.3,3.2-6.4,5.5-8.9c2.3-2.5,5.1-4.2,8-4.9C81.3,8,84.1,8.4,86.3,9
		c-0.2,0.1-0.4,0.2-0.5,0.2c0.7-1.1,1.9-1.5,3-1.8C89.9,7.1,91,7,92.1,7.1c2.2,0,4.2,0.5,6.1,1.1c3.8,1.3,7.1,3.5,9.5,6.1
		c0.3,0.3,0.6,0.6,0.9,0.9c0.3,0.3,0.6,0.7,0.8,1c0.5,0.7,1,1.4,1.3,2.2c0.4,0.8,0.6,1.5,0.8,2.3c0.1,0.4,0.2,0.8,0.3,1.1
		c0.1,0.2,0.1,0.3,0.2,0.6l0.1,0.5c0.7,2.9,1.2,5.7,1.6,8.1c0.8,4.9,1.3,8.7,1.6,11.4c0.1,0.7,0.1,1.2,0.1,1.7c0,0.5,0,0.9,0,1.3
		C115.7,46.1,115.7,46.5,115.7,46.5"/>
	<path clip-path="url(#SVGID_1_)" fill="#231F20" d="M91.4,60c0,0,0.1,0.3,0.4,0.7c0.2,0.2,0.4,0.4,0.7,0.4c0.1,0,0.2,0.1,0.5,0.1
		c0.1,0,0.4,0,0.5,0c0.4,0,0.7,0,1-0.1c0.3-0.1,0.5-0.3,0.6-0.5c0.3-0.4,0.3-0.8,0.3-0.7c0,0,0.1,0.3-0.1,0.9
		c-0.1,0.3-0.3,0.6-0.7,0.8c-0.3,0.2-0.8,0.2-1.2,0.3c-0.2,0-0.4,0-0.6,0c-0.2,0-0.4-0.1-0.6-0.2c-0.4-0.2-0.6-0.5-0.7-0.7
		C91.3,60.3,91.4,60,91.4,60"/>
	<path clip-path="url(#SVGID_1_)" fill="#231F20" d="M71.1,59c0,0,0,0.1,0,0.2c0,0.1,0,0.3,0.1,0.5c0,0.2,0.2,0.4,0.3,0.6
		c0.1,0.1,0.1,0.1,0.3,0.2l0.1,0l0,0l0,0c0,0,0,0,0,0h0l0,0l0.1,0l0.2,0.1c0.4,0.1,0.5,0.2,0.8,0.1c0.2-0.1,0.4-0.2,0.6-0.4
		c0.3-0.3,0.4-0.6,0.4-0.6c0,0,0,0.3-0.2,0.7c-0.1,0.2-0.3,0.4-0.6,0.6c-0.2,0.1-0.3,0.1-0.6,0.1c-0.2,0-0.4-0.1-0.5-0.1L71.8,61
		l-0.1,0l0,0l0,0l0,0l-0.1-0.1c-0.2-0.1-0.4-0.3-0.4-0.4C71,60.3,70.9,60,71,59.7c0-0.2,0.1-0.4,0.1-0.5C71.1,59.1,71.1,59,71.1,59"
		/>
	<polygon clip-path="url(#SVGID_1_)" fill="#FFFFFF" points="91.2,106.4 91,97 91.7,97 92,106.3 	"/>
	<line clip-path="url(#SVGID_1_)" fill="#FFFFFF" x1="77.9" y1="86.8" x2="76.5" y2="95.3"/>
	<polygon clip-path="url(#SVGID_1_)" fill="#231F20" points="92.2,99.4 79.8,96.3 76.1,95.5 77.6,86.8 78.2,86.9 76.9,95 80,95.7 
		90.6,98.3 88.7,95.5 89.3,95.1 	"/>
	
		<rect x="91.3" y="98.7" transform="matrix(0.9706 0.2408 -0.2408 0.9706 26.553 -19.2564)" clip-path="url(#SVGID_1_)" fill="#231F20" width="1.4" height="0.7"/>
</g>
</svg>
