<?xml version="1.0" encoding="utf-8"?>
<!-- Generator: Adobe Illustrator 18.1.1, SVG Export Plug-In . SVG Version: 6.00 Build 0)  -->
<!DOCTYPE svg PUBLIC "-//W3C//DTD SVG 1.1//EN" "http://www.w3.org/Graphics/SVG/1.1/DTD/svg11.dtd">
<svg version="1.1" id="Layer_1" xmlns="http://www.w3.org/2000/svg" xmlns:xlink="http://www.w3.org/1999/xlink" x="0px" y="0px"
	 viewBox="0 0 177 127.3" enable-background="new 0 0 177 127.3" xml:space="preserve">
<rect x="0" y="18.8" fill="#D8505C" width="28.7" height="50.1"/>
<rect x="0" y="0" fill="#D8505C" width="27.1" height="18.9"/>
<polygon fill="#AEB0B3" points="26.2,0 26.2,18.8 0,18.8 0,19.1 26.2,19.1 26.2,0 "/>
<rect x="0" y="69.2" fill="#D8505C" width="36.8" height="50.2"/>
<polygon fill="#AEB0B3" points="0,69 0,69.3 35.1,69.3 35.1,119.2 0,119.2 0,119.5 35.2,119.5 35.2,69 "/>
<g>
	<defs>
		<rect id="SVGID_3_" x="0" y="0" width="177" height="127.3"/>
	</defs>
	<clipPath id="SVGID_1_">
		<use xlink:href="#SVGID_3_"  overflow="visible"/>
	</clipPath>
	<path clip-path="url(#SVGID_1_)" fill="#FFFFFF" d="M-26.6,47.3c2-2.6,5.5-5.5,5.7-9c0.2-3.4,1-11.4,1-11.4h5.3c0,0,0.9,7.9,1,11.4
		c0.1,1.4,0.7,2.7,1.5,4h0.1v0.1c0.6,0.9,1.3,1.7,2,2.5c0-0.3,0.1-0.5,0.1-0.6c0.5-0.7,1.4-1.7,2.9-2.3c1.5-0.6,0.7-10.2,0.7-10.2
		h-1.2l0.9-5.2h5.1l0.9,5.2h-1.2c0,0-0.9,9.6,0.7,10.2c1.5,0.6,2.4,1.6,2.9,2.3v-5c0.1-0.6,1.3-0.6,1.5-0.6c0.2,0,1.5,0.1,1.5,0.6
		V47c0.2,0,0.5,0,0.7,0.1c0-3,0.1-5,0.2-5c0.5,0,3.1-1,3.1-1.8v-7.7l-0.7-1v-5h6.3v5l-0.7,1v7.7c0,0.8,2.6,1.8,3.1,1.8
		c0.5,0,0,28.1,0,28.1H7.7H5.9h-4h-2.7h-5.9c0,0.1,0,0.1,0,0.1h-1c0,0,0,0.1,0,0.1h-18.8C-27.8,65.9-28.6,49.9-26.6,47.3"/>
	<polygon clip-path="url(#SVGID_1_)" fill="#CBCDCF" points="3.5,38.7 3.4,38.7 3.4,38.7 	"/>
	<path clip-path="url(#SVGID_1_)" fill="#FFFFFF" d="M-15.1,97.4v-7.7c0.1-0.6,1.3-0.6,1.5-0.6c0.2,0,1.5,0.1,1.5,0.6v7.7
		c0.2,0,0.5,0,0.7,0.1c0-3,0.1-5,0.2-5c0.5,0,3.1-1,3.1-1.8V83l-0.7-1v-5h6.3v5L-3,83v7.7c0,0.8,2.6,1.8,3.1,1.8
		c0.1,0,0.2,2.2,0.2,5.3c0.4-0.3,0.8-0.4,1.2-0.4v-7.7c0.1-0.6,1.3-0.6,1.5-0.6c0.2,0,1.5,0.1,1.5,0.6v7.7c0.6-0.1,1.2,0.3,1.7,0.9
		c0.5-2.7,1.3-4.4,2.7-4.2v-6.5C8.1,85.8,8.6,84,11.2,84c2.5,0,3.1,1.7,2.2,3.4V94c5.5-0.7,2.4,26.5,2.4,26.5H7.2H6.5H0.1h-1.4h-8
		h-1.8h-6.8v-20.4C-17.8,99.5-16.4,97.2-15.1,97.4"/>
	<path clip-path="url(#SVGID_1_)" fill="#CBCDCF" d="M3,89.1C3,89.1,3,89.1,3,89.1C2.9,89.1,2.9,89.1,3,89.1L3,89.1z"/>
	<polygon clip-path="url(#SVGID_1_)" fill="#CBCDCF" points="11.2,84 11.2,84 11.1,84 	"/>
	<path clip-path="url(#SVGID_1_)" fill="#FFFFFF" d="M9.8,20.1H1.9c0,0,0,0,0-0.1H-9.1v0h-4.7c0,0-0.4-31.2,0-31.2
		c0.4,0,2.4-1.1,2.4-2v-8.5l-0.5-1.1l6.5-5.5h5L-7-22.8l-0.5,1.1v8.5c0,0.9,2,2,2.4,2c0.2,0,0.2,4.7,0.2,10.4c1.1-0.2,2-0.5,2-0.7
		v-2.1L-4-4.3v-3.6h7c0.4-0.4,0.8-0.6,1.3-0.6v-10c-0.8-1.7-0.3-3.4,2.2-3.4c2.5,0,3.1,1.7,2.2,3.4v10c1.6-0.2,2.5,2.2,2.9,5.6
		C11.9-3,12.2-3.1,12.5-3v-7.7c0.1-0.6,1.3-0.6,1.5-0.6c0.2,0,1.5,0.1,1.5,0.6V-3c1.3-0.2,2.7,2.1,2.7,2.7v20.4h-7.1H9.8z"/>
	<path clip-path="url(#SVGID_1_)" fill="#CCC9C7" d="M-25.6,46.1c1.4-1.8,3.1-3.4,4.4-5.4c0.7-1,1.1-2.1,1.3-3.3
		c0.1-0.9,0.1-1.8,0.2-2.7c0.2-3,0.5-6,0.9-8.9c0-0.1,0.1-0.1,0.2-0.1h5.3c0.1,0,0.2,0,0.2,0.1c0.2,1.9,0.4,3.9,0.6,5.8
		c0.1,1.4,0.3,2.9,0.4,4.3c0,0.7,0.1,1.4,0.2,2.1c0.1,0.6,0.4,1.1,0.6,1.7c0.1,0.2,0.6,1.3,0.7,1.3c0,0,0.2,0,0.2,0.1
		c0,0.3,0.6,0.9,0.8,1.1c0.4,0.5,0.8,1,1.3,1.5c-0.1,0-0.2,0-0.4,0c0.1-0.8,0.6-1.3,1.2-1.8c0.4-0.4,0.9-0.7,1.3-0.9
		c0.3-0.2,0.6-0.2,0.9-0.5c0.7-1.1,0.6-2.9,0.6-4.1c0-1.5,0-3.1-0.1-4.6c0-0.4-0.1-0.8-0.1-1.1c0,0,0,0,0-0.1
		c0.2,0.1,0.2,0.1,0.1,0.1h-0.3h-0.9c0,0-0.2,0-0.2-0.1c0.3-1.7,0.6-3.4,0.9-5.2c0-0.1,0.1-0.1,0.2-0.1h5.1c0.1,0,0.2,0,0.2,0.1
		c0.3,1.7,0.6,3.4,0.9,5.2c0,0.1-0.1,0.1-0.2,0.1H0h-0.4c-0.2,0,0.1-0.1,0.1,0c0,0.3,0,0.6-0.1,0.9c-0.1,1.4-0.2,2.9-0.2,4.3
		c0,1.4,0,2.9,0.4,4.3c0.2,0.7,0.7,0.7,1.3,1c0.9,0.5,1.5,1.2,2.1,2c-0.1,0-0.2,0-0.4,0v-4.7c0-1.2,2.4-1.2,3.1-0.6
		c0.4,0.3,0.3,0.8,0.3,1.2v3v2.9v0.8c0,0.2,0,0,0.1,0c0.2,0,0.4,0.1,0.6,0.2c-0.1,0-0.2,0-0.3,0.1c0-1.6-0.1-3.2,0.1-4.8
		c0-0.1,0-0.3,0.2-0.3c0.6,0,1.2-0.3,1.7-0.6c0.4-0.2,1.3-0.6,1.3-1.2v-1v-3.5v-2.9c0-0.5-0.7-0.9-0.7-1.3v-5c0-0.1,0.1-0.1,0.2-0.1
		h6.3c0,0,0.2,0,0.2,0.1v3.2v1.6c0,0.4-0.3,0.6-0.5,0.9c-0.4,0.7-0.2,1.8-0.2,2.6v4.4c0,0.4-0.1,0.9,0,1.2c0.3,0.7,1.5,1.1,2.1,1.3
		c0.5,0.2,0.9,0,1,0.6c0.2,1.6,0.1,3.3,0.1,5c0,7.6-0.1,15.2-0.2,22.8c0,0.1-0.1,0.1-0.2,0.1H-5.6c0.1,0,0.1,0,0.2,0
		c0,0.1-0.1,0.1-0.2,0.1H-6h-0.3c-0.3,0-0.1,0-0.1,0c0,0.1-0.1,0.1-0.2,0.1h-18.8c-0.1,0-0.2,0-0.2-0.1c-1-4-1.1-8.3-1.2-12.3
		c0-2.3,0-4.5,0.2-6.8C-26.5,48.8-26.4,47.2-25.6,46.1c0.1-0.1,0.4,0,0.3,0c-0.6,0.8-0.7,1.9-0.9,2.8c-0.2,1.5-0.3,3-0.3,4.5
		C-26.5,57-26.4,60.5-26,64c0.1,1.4,0.3,2.8,0.6,4.1c0,0.2,0.1,0.5,0.2,0.7c0,0.2,0,0.2-0.1,0.2h0.6h6.7h7.7h2.7h0.8h0.2
		c0.2,0-0.1,0-0.1,0c0-0.1,0.1-0.1,0.2-0.1h0.4h0.3c0.4,0,0.1,0,0.1,0c0-0.1,0.1-0.1,0.2-0.1h23.8c-0.2,0-0.2,0.1-0.2-0.1
		c0-0.2,0-0.5,0-0.7c0-0.8,0-1.6,0-2.4c0-2.6,0.1-5.1,0.1-7.7c0.1-5.1,0.2-10.3,0-15.5c0-0.5,0-1-0.1-1.5c0-0.1-0.4-0.1-0.7-0.2
		c-0.7-0.2-1.3-0.5-1.9-0.9c-0.8-0.6-0.6-1.6-0.6-2.5v-4.5v-1.3c0-0.3,0.3-0.6,0.5-0.9c0.5-0.7,0.2-2.1,0.2-3v-1.8v-0.4
		c0,0,0.3,0,0,0h-3.7h-1.7H9.8c-0.4,0,0,0,0-0.1v3V30c0,0.4,0.1,0.6,0.4,0.9c0.4,0.6,0.3,1.2,0.3,1.9V37c0,0.7,0.3,2-0.2,2.5
		c-0.6,0.8-2,1.3-3,1.4c-0.3,0-0.2,4.6-0.2,5c0,0.1-0.2,0.1-0.3,0.1c-0.2,0-0.4-0.1-0.6-0.1c0,0-0.2,0-0.2-0.1v-7.6
		c0-0.7-1.2-0.7-1.8-0.6c-1.1,0.1-0.9,0.7-0.9,1.5v4c0,0.1-0.3,0.1-0.4,0c-0.6-0.8-1.4-1.5-2.3-2c-0.4-0.2-0.7-0.3-1-0.7
		c-0.5-1-0.5-2.3-0.5-3.3c-0.1-2.2,0-4.4,0.2-6.5c0-0.1,0.1-0.1,0.2-0.1h1.1c0.2,0-0.1,0.1-0.1,0c0-0.1,0-0.3-0.1-0.4
		c-0.2-1-0.3-2-0.5-3c-0.1-0.4-0.1-0.8-0.2-1.3c0-0.1,0-0.2-0.1-0.3c0-0.2,0.1,0,0.1,0h-2.4h-2.5c-0.2,0,0,0,0.1-0.1
		c0,0.1,0,0.2,0,0.3c-0.1,0.4-0.1,0.9-0.2,1.3c-0.2,1-0.3,2-0.5,3.1L-6,30.4c0,0.2,0,0.1-0.2,0.1h1.2c0.1,0,0.2,0,0.2,0.1
		c0.2,2.2,0.3,4.3,0.2,6.5c0,1.1,0,2.3-0.5,3.3c-0.3,0.6-1,0.7-1.4,1c-0.8,0.5-1.9,1.4-2,2.4c0,0.1-0.3,0.1-0.4,0
		c-0.4-0.5-0.9-1-1.3-1.5c-0.2-0.2-0.8-0.8-0.8-1.1c0-0.1,0.2,0.2-0.1,0c-0.4-0.3-0.7-1.2-1-1.7c-0.8-1.7-0.7-3.6-0.8-5.4
		c-0.2-2.8-0.5-5.5-0.8-8.3c0,0.1,0.3,0.1-0.1,0.1h-0.7h-2.2h-1.8h-0.4c0.2,0,0.2-0.2,0.1,0.1c-0.3,3.1-0.6,6.1-0.9,9.2
		c-0.1,0.8-0.1,1.7-0.2,2.5c-0.1,1-0.6,2-1.1,2.9c-1.2,2.1-3.1,3.7-4.5,5.6C-25.3,46.2-25.6,46.2-25.6,46.1"/>
	<path clip-path="url(#SVGID_1_)" fill="#9C9EA1" d="M4.7,37.6C4.6,37.6,4.6,37.6,4.7,37.6c-0.3,0-0.3-0.2-0.1-0.2h0.1
		C4.9,37.4,4.9,37.6,4.7,37.6L4.7,37.6l-0.1-0.2h0.1C4.9,37.4,4.9,37.6,4.7,37.6"/>
	<path clip-path="url(#SVGID_1_)" fill="#CCC9C7" d="M-14.1,96.2v-5.6v-2.1c0-0.7,1.4-0.7,1.9-0.7c0.5,0,1.5,0.1,1.5,0.8v2.6v3.6V96
		v0.2c0-0.2,0.6,0,0.7,0.1c-0.1,0-0.2,0-0.3,0.1c0-1.6-0.1-3.2,0.1-4.8c0-0.1,0-0.3,0.2-0.3c0.6,0,1.2-0.3,1.7-0.6
		C-7.9,90.4-7,90-7,89.4v-1V85v-2.9c0-0.5-0.7-0.9-0.7-1.3v-5c0-0.1,0.1-0.1,0.2-0.1h6.3c0,0,0.2,0,0.2,0.1v5c0,0.5-0.7,0.8-0.7,1.3
		V85v3.5v1c0,0.6,0.9,1,1.3,1.2c0.5,0.3,1.1,0.5,1.7,0.6c0.2,0,0.2,0.2,0.2,0.3c0.3,1.6,0.1,3.4,0.2,5c-0.1,0-0.2,0-0.3,0
		c0.3-0.2,0.6-0.3,0.9-0.4c0.1,0,0.2,0.2,0.2,0v-1v-3.8v-2.7c0-0.7,1.3-0.8,1.8-0.8c0.5,0,1.6,0.1,1.6,0.8v3v3.7v0.8
		c0-0.4,1.6,0.8,1.7,0.8c-0.1,0-0.2,0-0.3,0c0.3-1.6,0.8-4.5,3-4.3c-0.1,0-0.2,0.1-0.2,0.1v-5.7v-0.8c0-0.2-0.2-0.6-0.3-0.8
		c-0.1-0.4-0.1-0.7,0-1.1c0.2-1.3,1.6-1.6,2.7-1.6c1,0,2.4,0.3,2.7,1.5c0.3,1-0.3,1.8-0.3,2.7v5.9c-0.1,0-0.2-0.1-0.2-0.1
		c1.4-0.1,2.1,1.2,2.5,2.3c0.7,2.2,0.8,4.6,0.9,6.9c0.2,5.1-0.1,10.3-0.6,15.4c-0.1,0.7-0.1,1.4-0.2,2c0,0.1-0.1,0.1-0.2,0.1H-7.4
		h-9.2c0,0-0.2,0-0.2-0.1v-13.3v-6.4c0-0.6,0-1,0.3-1.5c0.5-1,1.5-2.1,2.7-2c0.2,0,0.1,0.2-0.1,0.2c-1.2-0.1-2.5,1.8-2.5,2.9v2.3
		v8.6v7.9v1v0.3c0,0-0.3,0,0,0h3.6H9.9h7c-0.1,0-0.1,0.2-0.1-0.1c0-0.2,0-0.4,0.1-0.6c0.1-0.8,0.1-1.5,0.2-2.3
		c0.5-5.3,0.8-10.6,0.5-15.9c-0.1-1.8-0.3-3.6-0.8-5.2c-0.3-0.9-0.9-2.4-2.1-2.3c-0.1,0-0.2,0-0.2-0.1v-4.9c0-0.4-0.2-1.3,0-1.7
		c0.8-1.8,0-3.3-2.1-3.3c-2-0.1-2.8,1.4-2.2,3.1c0.2,0.5,0.1,1.2,0.1,1.7v5.1c0,0.1-0.2,0.1-0.2,0.1c-1.8-0.1-2.3,2.9-2.5,4.1
		c0,0.1-0.3,0.1-0.3,0c-0.4-0.4-0.9-0.8-1.5-0.8c0,0-0.2,0-0.2-0.1v-4.4v-2.6v-0.7c0-0.5-1-0.6-1.3-0.6c-0.3,0-1.3,0.1-1.3,0.6v0.6
		v2.7v4.4c0,0.1-0.1,0.1-0.2,0.1c-0.3,0.1-0.7,0.2-1,0.3c-0.1,0-0.3,0.1-0.3,0c0-0.5,0.2-5.1-0.3-5.2c-0.9-0.1-2.7-0.8-3-1.7
		c-0.1-0.3,0-0.7,0-1v-2.1v-4.1c0-0.1-0.1-0.5,0-0.6c0.2-0.3,0.7-0.8,0.7-1.1v-3.7v-1.1c0,0.1,0.3,0.1,0,0.1h-0.7h-4.1h-1.1
		c-0.2,0,0.1-0.1,0.1,0v0.4v3.5v1c0,0.2,0.5,0.8,0.7,1c0.1,0.1,0,0.4,0,0.6v1.5v4c0,0.7,0.2,1.6-0.3,2.2C-7.4,90.5-8,90.7-8.6,91
		c-0.2,0.1-1.2,0.3-1.2,0.4c-0.2,0.4-0.1,1.2-0.1,1.7c0,1.1,0,2.2-0.1,3.3c0,0.1-0.2,0.1-0.3,0.1c-0.2,0-0.4-0.1-0.6-0.1
		c0,0-0.2,0-0.2-0.1v-4.4v-2.6v-0.7c0-0.5-1-0.6-1.3-0.6c-0.4,0-1.3,0.1-1.3,0.6v0.6v2.7v4.4C-13.7,96.3-14.1,96.3-14.1,96.2"/>
	<path clip-path="url(#SVGID_1_)" fill="#9C9EA1" d="M4.2,88L4.2,88c-0.3,0-0.3-0.2-0.1-0.2h0.1C4.4,87.8,4.4,88,4.2,88L4.2,88
		l-0.1-0.2c0,0,0.1,0,0.1,0C4.4,87.8,4.4,88,4.2,88"/>
	<path clip-path="url(#SVGID_1_)" fill="#9C9EA1" d="M12.4,82.9c0,0-0.1,0-0.1,0c-0.2,0-0.1-0.2,0-0.2h0
		C12.6,82.7,12.6,82.9,12.4,82.9L12.4,82.9c0,0,0-0.1,0-0.2h-0.1C12.5,82.7,12.7,82.9,12.4,82.9"/>
	<path clip-path="url(#SVGID_1_)" fill="#CCC9C7" d="M11,19H3.1C3.1,19,3,19,3,18.9c0,0,0.3,0,0.1,0H2.7H1.4h-3.8h-5.5
		c0,0-0.2,0-0.2-0.1c0,0.1,0.3,0.1,0,0.1h-0.5h-1.6h-2.4c0,0-0.2,0-0.2-0.1c-0.1-9-0.2-18-0.2-27c0-1.3-0.1-2.7,0.1-4.1
		c0-0.1,0-0.2,0.1-0.2c0.7-0.3,1.3-0.5,1.8-1c0.9-0.8,0.6-2.2,0.6-3.3v-4.5v-1.4c0-0.4-0.2-0.7-0.4-1c-0.4-0.7,6.3-1.7,6.3-2.5v-3.4
		v0c0-0.1,0.1-0.1,0.2-0.1h5c0,0,0.2,0,0.2,0.1c0,1.8-6.5,3.7-6.5,5.5c0,0.4-0.5,0.8-0.5,1.2v0.8v4.1v3.4c0,0.7,0.5,1.1,1,1.5
		c0.3,0.2,0.7,0.5,1.1,0.6c0.1,0,0.2,0,0.3,0.1c0.1,0.2,0.1,0.6,0.1,0.8c0,0.7,0,1.5,0.1,2.2c0,2.4,0,4.9,0,7.3C-3.6-2-3.7-2-3.8-2
		c0.4-0.1,1.9-0.2,1.9-0.8v-1.6C-1.9-5.1-2.7-5-3-5.5c-0.2-0.3,0-1.3,0-1.6v-2c0-0.1,0.1-0.1,0.2-0.1h6.5c0.5,0,0.5-0.2,0.9-0.4
		c0.1,0,0.7-0.3,0.7,0v-0.2v-3.2v-6.6c0-0.3-0.3-0.7-0.3-1c-0.1-0.4,0-0.7,0.1-1.1c0.2-0.6,0.7-1,1.3-1.3c1.2-0.5,3-0.3,3.8,0.8
		c0.7,1,0,1.9,0,2.9v3.3v6.4c-0.1,0-0.1-0.1-0.2-0.1c2.5-0.2,2.9,4,3.1,5.7c-0.1,0-0.2,0-0.3-0.1c0.2-0.1,0.4-0.2,0.7-0.2
		c0.1,0,0.1,0.1,0.1,0v-1.1V-9v-2.8c0-0.7,0.9-0.8,1.5-0.9c0.4,0,1.9,0,1.9,0.7v1.9v5.7c-0.1,0-0.2-0.1-0.2-0.1c1.8-0.1,3,1.9,3,3.5
		v6.3v13.5c0,0.1-0.1,0.1-0.2,0.1H11c-0.2,0-0.2-0.2,0-0.2h6.4H19h0.4c0.2,0-0.1,0.1-0.1-0.1v-2.3V-0.1v-1.4c0-1.1-1.4-2.8-2.5-2.7
		c-0.1,0-0.2,0-0.2-0.1v-4.4v-2.6v-0.7c0-0.5-1-0.6-1.3-0.6c-0.3,0-1.3,0.1-1.3,0.5v0.6v2.7v4.4c0,0.1-0.1,0.1-0.2,0.1
		C13.5-4.1,13.2-4.1,13-4c-0.1,0-0.3,0.1-0.3-0.1c-0.2-1.3-0.5-5.7-2.7-5.5c-0.1,0-0.2,0-0.2-0.1v-6.4v-3.3c0-0.3,0-0.4,0.2-0.7
		c0.4-0.9,0.2-1.9-0.6-2.5c-1.1-0.8-3.1-0.5-3.8,0.6c-0.2,0.3-0.2,0.8-0.2,1.2c0,0.4,0.3,0.8,0.3,1.2v2.3v7.5v0.3
		c0,0.1-0.1,0.1-0.2,0.1C4.5-9.6,4.7-9,4.1-9H3.6H1.1h-2.7h-0.9h-0.3c-0.2,0,0.1-0.1,0.1,0v2.3v1.1c0,0.3,0.3,0.4,0.6,0.6
		C-1.9-5-1.6-4.9-1.6-4.7v1.5c0,0.4,0.1,0.6-0.2,0.8C-2.3-2.1-3-2-3.6-1.9c-0.1,0-0.3,0-0.3-0.1c0-2.5,0-5,0-7.6
		c0-0.7,0-1.4-0.1-2.1c0-0.5,0.1-0.6-0.3-0.7c-1-0.4-2.2-1.1-2.2-2.3v-3.9v-3.9c0-0.6,0.5-1.1,0.5-1.7c0-1.2,6.5-2.5,6.5-3.7v-1.5
		c0-0.2,0-0.1,0.1-0.1H0.1h-3.9h-0.4c0.1,0,0.1-0.1,0.1,0.1v1.6c0,1.2-6.5,2.4-6.5,3.6c0,0.4,0.3,0.8,0.5,1.1
		c0.1,0.2,0.1,0.4,0.1,0.6v7.8c0,1.1-1.3,1.9-2.2,2.2c-0.3,0.1-0.2,0-0.2,0.2c0,0.2,0,0.4,0,0.6c-0.2,4.6-0.1,9.3-0.1,13.9
		c0,5,0.1,10,0.1,14.9c0,0.4,0,0.8,0,1.2c0,0.1,0,0.2,0,0.3c0,0.2-0.2,0-0.1,0h4.6c0.1,0,0.2,0,0.2,0.1c0-0.1-0.3-0.1-0.1-0.1h0.3
		h1.3h3.8h5.5c0.1,0,0.2,0,0.2,0.1c0,0-0.3,0-0.1,0h0.2h0.8h2.8H11C11.2,18.8,11.2,19,11,19"/>
	<rect x="-12.6" y="18.9" clip-path="url(#SVGID_1_)" fill="#231F20" width="34.6" height="0.7"/>
	<rect x="-12.7" y="18.8" clip-path="url(#SVGID_1_)" fill="#231F20" width="35.5" height="1"/>
	<rect x="-12.6" y="68.8" clip-path="url(#SVGID_1_)" fill="#231F20" width="40.4" height="0.7"/>
	<rect x="-12.7" y="68.6" clip-path="url(#SVGID_1_)" fill="#231F20" width="41.4" height="1"/>
	<rect x="-12.6" y="119.2" clip-path="url(#SVGID_1_)" fill="#231F20" width="35.8" height="0.7"/>
	<rect x="-12.7" y="119.1" clip-path="url(#SVGID_1_)" fill="#231F20" width="36.7" height="1"/>
	<rect x="20.1" y="-15.4" clip-path="url(#SVGID_1_)" fill="#FFFFFF" width="16.3" height="175"/>
	<path clip-path="url(#SVGID_1_)" fill="#FFFFFF" d="M20.1-15.4h16.3v179.8H20.1V-15.4z M19.7-17.2v1.8v179.8v1.8h0.4h16.3h0.4v-1.8
		V-15.4v-1.8h-0.4H20.1H19.7z"/>
	
		<line clip-path="url(#SVGID_1_)" fill="none" stroke="#231F20" stroke-width="2" stroke-miterlimit="10" x1="20.1" y1="-18.6" x2="20.1" y2="162.3"/>
	<rect x="140.5" y="118.9" clip-path="url(#SVGID_1_)" fill="#D8505C" width="36.6" height="39.3"/>
	<rect x="135.8" y="18.4" clip-path="url(#SVGID_1_)" fill="#D8505C" width="41.2" height="50.1"/>
	<rect x="137.4" y="-15.8" clip-path="url(#SVGID_1_)" fill="#D8505C" width="39.7" height="34.3"/>
	<path clip-path="url(#SVGID_1_)" fill="#AEB0B3" d="M177.2,18.7h-38.9v-34.6h38.9V18.7z M138.4,18.4h38.8v-34h-38.8V18.4z"/>
	<rect x="127.7" y="68.8" clip-path="url(#SVGID_1_)" fill="#D8505C" width="49.5" height="50.2"/>
	<path clip-path="url(#SVGID_1_)" fill="#AEB0B3" d="M177.2,119.1h-47.9V68.6h47.9V119.1z M129.4,118.8h47.7V68.9h-47.7V118.8z"/>
	<path clip-path="url(#SVGID_1_)" fill="#FFFFFF" d="M191.1,46.9c-2-2.6-5.5-5.5-5.7-9c-0.2-3.4-1-11.4-1-11.4h-5.3
		c0,0-0.9,7.9-1,11.4c-0.1,1.4-0.7,2.7-1.5,4h-0.1V42c-0.6,0.9-1.3,1.7-2,2.5c0-0.3-0.1-0.5-0.1-0.6c-0.5-0.7-1.4-1.7-2.9-2.3
		c-1.5-0.6-0.7-10.2-0.7-10.2h1.2l-0.9-5.2h-5.1l-0.9,5.2h1.2c0,0,0.9,9.6-0.7,10.2c-1.5,0.6-2.4,1.6-2.9,2.3v-5
		c-0.1-0.6-1.3-0.6-1.5-0.6c-0.2,0-1.5,0.1-1.5,0.6v7.7c-0.2,0-0.5,0-0.7,0.1c0-3-0.1-5-0.2-5c-0.5,0-3.1-1-3.1-1.8v-7.7l0.7-1v-5
		h-6.3v5l0.7,1v7.7c0,0.8-2.6,1.8-3.1,1.8c-0.5,0,0,28.1,0,28.1h9.4h1.8h4h2.7h5.9c0,0.1,0,0.1,0,0.1h1c0,0,0,0.1,0,0.1h18.8
		C192.3,65.5,193.2,49.5,191.1,46.9"/>
	<polygon clip-path="url(#SVGID_1_)" fill="#CBCDCF" points="161.1,38.3 161.1,38.3 161.1,38.3 	"/>
	<path clip-path="url(#SVGID_1_)" fill="#FFFFFF" d="M179.6,97v-7.7c-0.1-0.6-1.3-0.6-1.5-0.6c-0.2,0-1.5,0.1-1.5,0.6V97
		c-0.2,0-0.5,0-0.7,0.1c0-3-0.1-5-0.2-5c-0.5,0-3.1-1-3.1-1.8v-7.7l0.7-1v-5h-6.3v5l0.7,1v7.7c0,0.8-2.6,1.8-3.1,1.8
		c-0.1,0-0.2,2.2-0.2,5.3c-0.4-0.3-0.8-0.4-1.2-0.4v-7.7c-0.1-0.6-1.3-0.6-1.5-0.6c-0.2,0-1.5,0.1-1.5,0.6V97
		c-0.6-0.1-1.2,0.3-1.7,0.9c-0.5-2.7-1.3-4.4-2.7-4.2v-6.5c0.8-1.7,0.3-3.4-2.2-3.4c-2.5,0-3.1,1.7-2.2,3.4v6.5
		c-5.5-0.7-2.4,26.5-2.4,26.5h8.6h0.7h6.5h1.4h8h1.8h6.8V99.7C182.4,99.1,181,96.8,179.6,97"/>
	<path clip-path="url(#SVGID_1_)" fill="#CBCDCF" d="M161.5,88.7C161.5,88.7,161.6,88.7,161.5,88.7
		C161.6,88.7,161.6,88.7,161.5,88.7L161.5,88.7z"/>
	<polygon clip-path="url(#SVGID_1_)" fill="#CBCDCF" points="153.4,83.6 153.4,83.6 153.4,83.6 	"/>
	<path clip-path="url(#SVGID_1_)" fill="#FFFFFF" d="M154.8,19.7h7.8c0,0,0,0,0-0.1h11.1v0h4.7c0,0,0.4-31.2,0-31.2
		c-0.4,0-2.4-1.1-2.4-2v-8.5l0.5-1.1l-6.5-5.5h-5l6.5,5.5l0.5,1.1v8.5c0,0.9-2,2-2.4,2c-0.2,0-0.2,4.7-0.2,10.4
		c-1.1-0.2-2-0.5-2-0.7v-2.1l1.1-0.7v-3.6h-7c-0.4-0.4-0.8-0.6-1.3-0.6v-10c0.8-1.7,0.3-3.4-2.2-3.4c-2.5,0-3.1,1.7-2.2,3.4v10
		c-1.6-0.2-2.5,2.2-2.9,5.6c-0.3-0.1-0.5-0.2-0.8-0.2v-7.7c-0.1-0.6-1.3-0.6-1.5-0.6c-0.2,0-1.5,0.1-1.5,0.6v7.7
		c-1.3-0.2-2.7,2.1-2.7,2.7v20.4h7.1H154.8z"/>
	<path clip-path="url(#SVGID_1_)" fill="#CCC9C7" d="M190.1,45.7c-1.4-1.8-3.1-3.4-4.4-5.4c-0.7-1-1.1-2.1-1.3-3.3
		c-0.1-0.9-0.1-1.8-0.2-2.7c-0.2-3-0.5-6-0.9-8.9c0-0.1-0.1-0.1-0.2-0.1h-5.3c-0.1,0-0.2,0-0.2,0.1c-0.2,1.9-0.4,3.9-0.6,5.8
		c-0.1,1.4-0.3,2.9-0.4,4.3c0,0.7-0.1,1.4-0.2,2.1c-0.1,0.6-0.4,1.2-0.6,1.7c-0.1,0.2-0.6,1.3-0.7,1.3c0,0-0.2,0-0.2,0.1
		c0,0.3-0.6,0.9-0.8,1.1c-0.4,0.5-0.8,1-1.3,1.5c0.1,0,0.2,0,0.4,0c-0.1-0.8-0.6-1.3-1.2-1.8c-0.4-0.4-0.9-0.7-1.3-0.9
		c-0.3-0.2-0.6-0.2-0.9-0.5c-0.7-1.1-0.6-2.9-0.6-4.1c0-1.5,0-3.1,0.1-4.6c0-0.4,0.1-0.8,0.1-1.1c0,0,0,0,0-0.1
		c-0.2,0.1-0.2,0.1-0.1,0.1h0.3h0.9c0,0,0.2,0,0.2-0.1c-0.3-1.7-0.6-3.4-0.9-5.2c0-0.1-0.1-0.1-0.2-0.1h-5.1c-0.1,0-0.2,0-0.2,0.1
		c-0.3,1.7-0.6,3.4-0.9,5.2c0,0.1,0.1,0.1,0.2,0.1h0.7h0.4c0.2,0-0.1-0.1-0.1,0c0,0.3,0,0.6,0.1,0.9c0.1,1.4,0.2,2.9,0.2,4.3
		c0,1.4,0,2.9-0.4,4.3c-0.2,0.7-0.7,0.7-1.3,1c-0.9,0.5-1.5,1.2-2.1,2c0.1,0,0.2,0,0.4,0V38c0-1.2-2.4-1.2-3.1-0.6
		c-0.4,0.3-0.3,0.8-0.3,1.2v3v2.9v0.8c0,0.2,0,0-0.1,0c-0.2,0-0.4,0.1-0.6,0.2c0.1,0,0.2,0,0.3,0.1c0-1.6,0.1-3.2-0.1-4.8
		c0-0.1,0-0.3-0.2-0.3c-0.6,0-1.2-0.3-1.7-0.6c-0.4-0.2-1.3-0.6-1.3-1.2v-1v-3.5v-2.9c0-0.5,0.7-0.9,0.7-1.3v-5
		c0-0.1-0.1-0.1-0.2-0.1h-6.3c0,0-0.2,0-0.2,0.1v3.2v1.6c0,0.4,0.3,0.6,0.5,0.9c0.4,0.7,0.2,1.8,0.2,2.6v4.4c0,0.4,0.1,0.9,0,1.2
		c-0.3,0.7-1.5,1.1-2.1,1.3c-0.5,0.2-0.9,0-1,0.6c-0.2,1.6-0.1,3.3-0.1,5c0,7.6,0.1,15.2,0.2,22.8c0,0.1,0.1,0.1,0.2,0.1h23.8
		c-0.1,0-0.1,0-0.2,0c0,0.1,0.1,0.1,0.2,0.1h0.4h0.3c0.3,0,0.1,0,0.1,0c0,0.1,0.1,0.1,0.2,0.1h18.8c0.1,0,0.2,0,0.2-0.1
		c1-4,1.1-8.3,1.2-12.3c0-2.3,0-4.5-0.2-6.8C191,48.4,190.9,46.8,190.1,45.7c-0.1-0.1-0.4,0-0.3,0c0.6,0.8,0.7,1.9,0.9,2.8
		c0.2,1.5,0.3,3,0.3,4.5c0.1,3.5-0.1,7.1-0.4,10.6c-0.1,1.4-0.3,2.8-0.6,4.1c0,0.2-0.1,0.5-0.2,0.7c0,0.2,0,0.2,0.1,0.2h-0.6h-6.7
		h-7.7h-2.7h-0.8h-0.2c-0.2,0,0.1,0,0.1,0c0-0.1-0.1-0.1-0.2-0.1h-0.4h-0.3c-0.4,0-0.1,0-0.1,0c0-0.1-0.1-0.1-0.2-0.1h-23.8
		c0.2,0,0.2,0.1,0.2-0.1c0-0.2,0-0.5,0-0.7c0-0.8,0-1.6,0-2.4c0-2.6-0.1-5.1-0.1-7.7c-0.1-5.1-0.2-10.3,0-15.5c0-0.5,0-1,0.1-1.5
		c0-0.1,0.4-0.1,0.7-0.2c0.7-0.2,1.3-0.5,1.9-0.9c0.8-0.6,0.6-1.6,0.6-2.5v-4.5v-1.3c0-0.3-0.3-0.6-0.5-0.9c-0.5-0.7-0.2-2.1-0.2-3
		v-1.8V25c0,0-0.3,0,0,0h3.7h1.7h0.5c0.4,0,0,0,0-0.1v3v1.6c0,0.4-0.1,0.6-0.4,0.9c-0.4,0.6-0.3,1.2-0.3,1.9v4.1
		c0,0.7-0.3,2,0.2,2.5c0.6,0.8,2,1.3,3,1.4c0.3,0,0.2,4.6,0.2,5c0,0.1,0.2,0.1,0.3,0.1c0.2,0,0.4-0.1,0.6-0.1c0,0,0.2,0,0.2-0.1
		v-7.6c0-0.7,1.2-0.7,1.8-0.6c1.1,0.1,0.9,0.7,0.9,1.5v4c0,0.1,0.3,0.1,0.4,0c0.6-0.8,1.4-1.5,2.3-2c0.4-0.2,0.7-0.3,1-0.7
		c0.5-1,0.5-2.3,0.5-3.3c0.1-2.2,0-4.4-0.2-6.5c0-0.1-0.1-0.1-0.2-0.1h-1.1c-0.2,0,0.1,0.1,0.1,0c0-0.1,0-0.3,0.1-0.4
		c0.2-1,0.3-2,0.5-3c0.1-0.4,0.1-0.8,0.2-1.3c0-0.1,0-0.2,0.1-0.3c0-0.2-0.1,0-0.1,0h2.4h2.5c0.2,0,0,0-0.1-0.1c0,0.1,0,0.2,0,0.3
		c0.1,0.4,0.1,0.9,0.2,1.3c0.2,1,0.3,2,0.5,3.1l0.1,0.4c0,0.2,0,0.1,0.2,0.1h-1.2c-0.1,0-0.2,0-0.2,0.1c-0.2,2.2-0.3,4.3-0.2,6.5
		c0,1.1,0,2.3,0.5,3.3c0.3,0.6,1,0.7,1.4,1c0.8,0.5,1.9,1.4,2,2.4c0,0.1,0.3,0.1,0.4,0c0.4-0.5,0.9-1,1.3-1.5
		c0.2-0.2,0.8-0.8,0.8-1.1c0-0.1-0.2,0.2,0.1,0c0.4-0.3,0.7-1.2,1-1.7c0.8-1.7,0.7-3.6,0.8-5.4c0.2-2.8,0.5-5.5,0.8-8.3
		c0,0.1-0.3,0.1,0.1,0.1h0.7h2.2h1.8h0.4c-0.2,0-0.2-0.2-0.1,0.1c0.3,3.1,0.6,6.1,0.9,9.2c0.1,0.8,0.1,1.7,0.2,2.5
		c0.1,1,0.6,2,1.1,2.9c1.2,2.1,3.1,3.7,4.5,5.6C189.8,45.8,190.2,45.8,190.1,45.7"/>
	<path clip-path="url(#SVGID_1_)" fill="#9C9EA1" d="M159.9,37.2C159.9,37.2,159.9,37.2,159.9,37.2c0.3,0,0.3-0.2,0.1-0.2h-0.1
		C159.7,37,159.7,37.2,159.9,37.2L159.9,37.2l0.1-0.2h-0.1C159.7,37,159.7,37.2,159.9,37.2"/>
	<path clip-path="url(#SVGID_1_)" fill="#9C9EA1" d="M176.9,87.6L176.9,87.6c0.3,0,0.3-0.2,0.1-0.2h-0.1
		C176.7,87.4,176.7,87.6,176.9,87.6L176.9,87.6l0.1-0.2c0,0-0.1,0-0.1,0C176.7,87.4,176.7,87.6,176.9,87.6"/>
	<path clip-path="url(#SVGID_1_)" fill="#CCC9C7" d="M178.6,95.8v-5.6v-2.1c0-0.7-1.4-0.7-1.9-0.7c-0.5,0-1.5,0.1-1.5,0.8v2.6v3.6
		v1.1v0.2c0-0.2-0.6,0-0.7,0.1c0.1,0,0.2,0,0.3,0.1c0-1.6,0.1-3.2-0.1-4.8c0-0.1,0-0.3-0.2-0.3c-0.6,0-1.2-0.3-1.7-0.6
		c-0.4-0.2-1.3-0.6-1.3-1.2v-1v-3.5v-2.9c0-0.5,0.7-0.9,0.7-1.3v-5c0-0.1-0.1-0.1-0.2-0.1h-6.3c0,0-0.2,0-0.2,0.1v5
		c0,0.5,0.7,0.8,0.7,1.3v2.9v3.5v1c0,0.6-0.9,1-1.3,1.2c-0.5,0.3-1.1,0.5-1.7,0.6c-0.2,0-0.2,0.2-0.2,0.3c-0.3,1.6-0.1,3.4-0.2,5
		c0.1,0,0.2,0,0.3,0c-0.3-0.2-0.6-0.3-0.9-0.4c-0.1,0-0.2,0.2-0.2,0v-1v-3.8v-2.7c0-0.7-1.3-0.8-1.8-0.8c-0.5,0-1.6,0.1-1.6,0.8v3
		v3.7v0.8c0-0.4-1.6,0.8-1.7,0.8c0.1,0,0.2,0,0.3,0c-0.3-1.6-0.8-4.5-3-4.3c0.1,0,0.2,0.1,0.2,0.1v-5.7v-0.8c0-0.2,0.2-0.6,0.3-0.8
		c0.1-0.4,0.1-0.7,0-1.1c-0.2-1.3-1.6-1.6-2.7-1.6c-1,0-2.4,0.3-2.7,1.5c-0.3,1,0.3,1.8,0.3,2.7v5.9c0.1,0,0.1-0.1,0.2-0.1
		c-1.4-0.1-2.1,1.2-2.5,2.3c-0.7,2.2-0.8,4.6-0.9,6.9c-0.2,5.1,0.1,10.3,0.6,15.4c0.1,0.7,0.1,1.4,0.2,2c0,0.1,0.1,0.1,0.2,0.1H172
		h9.2c0,0,0.2,0,0.2-0.1v-13.3v-6.4c0-0.6,0-1-0.3-1.5c-0.5-1-1.5-2.1-2.7-2c-0.2,0-0.1,0.2,0.1,0.2c1.2-0.1,2.5,1.8,2.5,2.9v2.3
		v8.6v7.9v1v0.3c0,0,0.3,0,0,0h-3.6h-22.7h-7c0.1,0,0.1,0.2,0.1-0.1c0-0.2,0-0.4-0.1-0.6c-0.1-0.8-0.1-1.5-0.2-2.3
		c-0.5-5.3-0.8-10.6-0.5-15.9c0.1-1.8,0.3-3.6,0.8-5.2c0.3-0.9,0.9-2.4,2.1-2.3c0.1,0,0.2,0,0.2-0.1v-4.9c0-0.4,0.2-1.3,0-1.7
		c-0.8-1.8,0-3.3,2.1-3.3c2-0.1,2.8,1.4,2.2,3.1c-0.2,0.5-0.1,1.2-0.1,1.7v5.1c0,0.1,0.2,0.1,0.2,0.1c1.8-0.1,2.3,2.9,2.5,4.1
		c0,0.1,0.3,0.1,0.3,0c0.4-0.4,0.9-0.8,1.5-0.8c0,0,0.2,0,0.2-0.1v-4.4v-2.6v-0.7c0-0.5,1-0.6,1.3-0.6c0.3,0,1.3,0.1,1.3,0.6v0.6
		v2.7v4.4c0,0.1,0.1,0.1,0.2,0.1c0.3,0.1,0.7,0.2,1,0.3c0.1,0,0.3,0.1,0.3,0c0-0.5-0.2-5.1,0.3-5.2c0.9-0.1,2.7-0.8,3-1.7
		c0.1-0.3,0-0.7,0-1v-2.1v-4.1c0-0.1,0.1-0.5,0-0.6c-0.2-0.3-0.7-0.8-0.7-1.1v-3.7v-1.1c0,0.1-0.3,0.1,0,0.1h0.7h4.1h1.1
		c0.2,0-0.1-0.1-0.1,0v0.4v3.5v1c0,0.2-0.5,0.8-0.7,1c-0.1,0.1,0,0.4,0,0.6v1.5v4c0,0.7-0.2,1.6,0.3,2.2c0.4,0.4,1.1,0.7,1.6,0.9
		c0.2,0.1,1.2,0.3,1.2,0.4c0.2,0.4,0.1,1.2,0.1,1.7c0,1.1,0,2.2,0.1,3.3c0,0.1,0.2,0.1,0.3,0.1c0.2,0,0.4-0.1,0.6-0.1
		c0,0,0.2,0,0.2-0.1v-4.4v-2.6v-0.7c0-0.5,1-0.6,1.3-0.6c0.4,0,1.3,0.1,1.3,0.6v0.6v2.7v4.4C178.3,95.9,178.6,95.9,178.6,95.8"/>
	<path clip-path="url(#SVGID_1_)" fill="#9C9EA1" d="M160.3,87.6L160.3,87.6c0.3,0,0.3-0.2,0.1-0.2h-0.1
		C160.1,87.4,160.1,87.6,160.3,87.6L160.3,87.6l0.1-0.2c0,0-0.1,0-0.1,0C160.1,87.4,160.1,87.6,160.3,87.6"/>
	<path clip-path="url(#SVGID_1_)" fill="#9C9EA1" d="M152.1,82.5c0,0,0.1,0,0.1,0c0.2,0,0.1-0.2,0-0.2h0
		C152,82.3,152,82.5,152.1,82.5L152.1,82.5c0,0,0-0.1,0-0.2h0.1C152.1,82.3,151.9,82.5,152.1,82.5"/>
	<path clip-path="url(#SVGID_1_)" fill="#CCC9C7" d="M153.6,18.6h7.8c0.1,0,0.2,0,0.2-0.1c0,0-0.3,0-0.1,0h0.3h1.3h3.8h5.5
		c0,0,0.2,0,0.2-0.1c0,0.1-0.3,0.1,0,0.1h0.5h1.6h2.4c0,0,0.2,0,0.2-0.1c0.1-9,0.2-18,0.2-27c0-1.3,0.1-2.7-0.1-4.1
		c0-0.1,0-0.2-0.1-0.2c-0.7-0.3-1.3-0.5-1.8-1c-0.9-0.8-0.6-2.2-0.6-3.3v-4.5V-23c0-0.4,0.2-0.7,0.4-1c0.3-0.7-6.3-1.7-6.3-2.5v-3.4
		v0c0-0.1-0.1-0.1-0.2-0.1h-5c0,0-0.2,0-0.2,0.1c0,1.8,6.5,3.7,6.5,5.5c0,0.4,0.5,0.8,0.5,1.2v0.8v4.1v3.4c0,0.7-0.5,1.1-1,1.5
		c-0.3,0.2-0.7,0.5-1.1,0.6c-0.1,0-0.2,0-0.3,0.1c-0.1,0.2-0.1,0.6-0.1,0.8c0,0.7,0,1.5-0.1,2.2c0,2.4,0,4.9,0,7.3
		c0.1,0,0.2,0,0.3-0.1c-0.4-0.1-1.9-0.2-1.9-0.8v-1.6c0-0.7,0.7-0.6,1.1-1.1c0.2-0.3,0-1.3,0-1.6v-2c0-0.1-0.1-0.1-0.2-0.1h-6.5
		c-0.5,0-0.5-0.2-0.9-0.4c-0.1,0-0.7-0.3-0.7,0v-0.2v-3.2v-6.6c0-0.3,0.3-0.7,0.3-1c0.1-0.4,0-0.7-0.1-1.1c-0.2-0.6-0.7-1-1.3-1.3
		c-1.2-0.5-3-0.3-3.8,0.8c-0.7,1,0,1.9,0,2.9v3.3v6.4c0.1,0,0.1-0.1,0.2-0.1c-2.5-0.2-2.9,4-3.1,5.7c0.1,0,0.2,0,0.3-0.1
		c-0.2-0.1-0.4-0.2-0.7-0.2c-0.1,0-0.1,0.1-0.1,0v-1.1v-3.5v-2.8c0-0.7-0.9-0.8-1.5-0.9c-0.4,0-1.9,0-1.9,0.7v1.9v5.7
		c0.1,0,0.2-0.1,0.2-0.1c-1.8-0.1-3,1.9-3,3.5v6.3v13.5c0,0.1,0.1,0.1,0.2,0.1H153.6c0.2,0,0.2-0.2,0-0.2h-6.4h-1.6h-0.4
		c-0.2,0,0.1,0.1,0.1-0.1v-2.3V-0.5v-1.4c0-1.1,1.4-2.8,2.5-2.7c0.1,0,0.2,0,0.2-0.1V-9v-2.6v-0.7c0-0.5,1-0.6,1.3-0.6
		c0.3,0,1.3,0.1,1.3,0.5v0.6V-9v4.4c0,0.1,0.1,0.1,0.2,0.1c0.2,0.1,0.5,0.1,0.7,0.1c0.1,0,0.3,0.1,0.3-0.1c0.2-1.3,0.5-5.7,2.7-5.5
		c0.1,0,0.2,0,0.2-0.1v-6.4v-3.3c0-0.3,0-0.4-0.2-0.7c-0.4-0.9-0.2-1.9,0.6-2.5c1.1-0.8,3.1-0.5,3.8,0.6c0.2,0.3,0.2,0.8,0.2,1.2
		c0,0.4-0.4,0.8-0.4,1.2v2.3v7.5v0.3c0,0.1,0.1,0.1,0.2,0.1c1,0,0.8,0.6,1.4,0.6h0.5h2.5h2.7h0.9h0.3c0.2,0-0.1-0.1-0.1,0v2.3v1.1
		c0,0.3-0.3,0.4-0.6,0.6c-0.1,0.1-0.5,0.2-0.5,0.4v1.5c0,0.4-0.1,0.6,0.2,0.8c0.5,0.3,1.2,0.4,1.8,0.5c0.1,0,0.3,0,0.3-0.1
		c0-2.5,0-5,0-7.6c0-0.7,0-1.4,0.1-2.1c0-0.5-0.1-0.6,0.3-0.7c1-0.4,2.2-1.1,2.2-2.3v-3.9v-3.9c0-0.6-0.5-1.1-0.5-1.7
		c0-1.2-6.5-2.5-6.5-3.7v-1.5c0-0.2,0-0.1-0.1-0.1h0.5h3.9h0.4c-0.1,0-0.1-0.1-0.1,0.1v1.6c0,1.2,6.5,2.4,6.5,3.6
		c0,0.4-0.3,0.8-0.5,1.1c-0.1,0.2-0.1,0.4-0.1,0.6v7.8c0,1.1,1.3,1.9,2.2,2.2c0.3,0.1,0.2,0,0.2,0.2c0,0.2,0,0.4,0,0.6
		c0.2,4.6,0.1,9.3,0.1,13.9c0,5-0.1,10-0.1,14.9c0,0.4,0,0.8,0,1.2c0,0.1,0,0.2,0,0.3c0,0.2,0.2,0,0.1,0h-4.6c-0.1,0-0.2,0-0.2,0.1
		c0-0.1,0.3-0.1,0.1-0.1H172h-1.3h-3.8h-5.5c-0.1,0-0.2,0-0.2,0.1c0,0,0.3,0,0.1,0h-0.2h-0.8h-2.8h-3.9
		C153.4,18.4,153.4,18.6,153.6,18.6"/>
	<rect x="142.5" y="18.5" clip-path="url(#SVGID_1_)" fill="#231F20" width="34.6" height="0.7"/>
	<rect x="141.7" y="18.4" clip-path="url(#SVGID_1_)" fill="#231F20" width="35.5" height="1"/>
	<rect x="136.8" y="68.4" clip-path="url(#SVGID_1_)" fill="#231F20" width="40.4" height="0.7"/>
	<rect x="135.8" y="68.2" clip-path="url(#SVGID_1_)" fill="#231F20" width="41.4" height="1"/>
	<rect x="141.3" y="118.8" clip-path="url(#SVGID_1_)" fill="#231F20" width="35.8" height="0.7"/>
	<rect x="140.5" y="118.7" clip-path="url(#SVGID_1_)" fill="#231F20" width="36.7" height="1"/>
	<rect x="128.1" y="-15.8" clip-path="url(#SVGID_1_)" fill="#FFFFFF" width="16.3" height="175"/>
	<path clip-path="url(#SVGID_1_)" fill="#FFFFFF" d="M144.4,164h-16.3V-15.8h16.3V164z M144.9-17.6h-0.4h-16.3h-0.4v1.8V164v1.8h0.4
		h16.3h0.4V164V-15.8V-17.6z"/>
	
		<line clip-path="url(#SVGID_1_)" fill="none" stroke="#231F20" stroke-width="2" stroke-miterlimit="10" x1="144.4" y1="-19" x2="144.4" y2="161.9"/>
	<path clip-path="url(#SVGID_1_)" fill="#231F20" d="M29.7,19.7L29.7,19.7c-2.2,0-4,0.5-5.2,1.4c-1.1-0.2-2.1-0.4-3.1-0.4
		c-11.1,0-16,14-16.4,18c-0.4,3.7,0.5,7.6,2.1,9.3c0.2,0.2,0.3,0.3,0.5,0.4C7,52.9,6.8,57.1,7,61.1l0,0.4l0.2,0.4
		c0.3,0.5,0.7,0.8,1.1,1c0,2.8,0.4,6.3,1.3,9c0.7,2.1,2.9,6.1,4.9,9.7l-32,14.8l-1.2,0.6l0.3,1.3l7.2,37.1l0.3,1.3h1.4h82.4H74
		l0.3-1.3l9.3-41.9l0.3-1.4l-1.3-0.6l-29-13.5l-5.9-6.4c0.1-0.6,0.3-1.6,0.5-2.4c2.1-0.4,3.9-1.9,5-4.2c1.1-2.3,3.4-11.8,1.7-15.1
		c-0.4-0.8-1.1-1.4-2-1.5c-0.1,0-0.3,0-0.4,0c-0.5,0-1.1,0.1-2,0.6c-0.6-5.7-2.3-14.7-2.9-16.3c-0.1-0.3-0.2-0.7-0.3-1
		c-0.5-1.6-1.1-3.6-3.9-6.2C39.1,21.2,33.5,19.7,29.7,19.7"/>
	<path clip-path="url(#SVGID_1_)" fill="none" stroke="#FFFFFF" stroke-width="2" d="M29.7,19.7L29.7,19.7c-2.2,0-4,0.5-5.2,1.4
		c-1.1-0.2-2.1-0.4-3.1-0.4c-11.1,0-16,14-16.4,18c-0.4,3.7,0.5,7.6,2.1,9.3c0.2,0.2,0.3,0.3,0.5,0.4C7,52.9,6.8,57.1,7,61.1l0,0.4
		l0.2,0.4c0.3,0.5,0.7,0.8,1.1,1c0,2.8,0.4,6.3,1.3,9c0.7,2.1,2.9,6.1,4.9,9.7l-32,14.8l-1.2,0.6l0.3,1.3l7.2,37.1l0.3,1.3h1.4h82.4
		H74l0.3-1.3l9.3-41.9l0.3-1.4l-1.3-0.6l-29-13.5l-5.9-6.4c0.1-0.6,0.3-1.6,0.5-2.4c2.1-0.4,3.9-1.9,5-4.2
		c1.1-2.3,3.4-11.8,1.7-15.1c-0.4-0.8-1.1-1.4-2-1.5c-0.1,0-0.3,0-0.4,0c-0.5,0-1.1,0.1-2,0.6c-0.6-5.7-2.3-14.7-2.9-16.3
		c-0.1-0.3-0.2-0.7-0.3-1c-0.5-1.6-1.1-3.6-3.9-6.2C39.1,21.2,33.5,19.7,29.7,19.7z"/>
	<polygon clip-path="url(#SVGID_1_)" fill="#231F20" points="45.8,71.5 52.4,78.7 81.8,92.3 72.2,136.1 -9.1,136.1 -17.1,97.1 
		16.6,81.5 	"/>
	<path clip-path="url(#SVGID_1_)" fill="#FFFFFF" d="M45.6,72.1l6.4,6.9l0.1,0.1l0.1,0l28.9,13.4l-9.4,42.9H-8.7l-7.8-38.1
		l33.3-15.3L45.6,72.1z M45.8,71.5l-29.2,10l-33.7,15.5l8,39h81.3l9.6-43.7L52.4,78.7L45.8,71.5z"/>
	<polygon clip-path="url(#SVGID_1_)" fill="#FFFFFF" points="44.9,81.1 18.2,90.8 14.3,136.1 42,136.1 	"/>
	<polygon clip-path="url(#SVGID_1_)" fill="#FFFFFF" points="10.1,99.6 9.5,100 11.9,83.5 12.5,83.6 	"/>
	
		<rect x="51.2" y="78.6" transform="matrix(0.995 9.986994e-02 -9.986994e-02 0.995 9.0627 -4.6968)" clip-path="url(#SVGID_1_)" fill="#FFFFFF" width="0.6" height="19.1"/>
	<polygon clip-path="url(#SVGID_1_)" fill="#FFFFFF" points="39,80.6 45.6,74.5 44.9,85.7 38.1,91.6 	"/>
	<polygon clip-path="url(#SVGID_1_)" fill="#CCC9C7" points="18.9,92 15.7,133.8 0.7,133.8 -9.9,96.3 5.5,105 	"/>
	<polygon clip-path="url(#SVGID_1_)" fill="#CCC9C7" points="45.8,90.4 58.7,105.6 72.3,95.7 60.4,133.8 43.5,133.8 	"/>
	
		<rect x="41.7" y="84.3" transform="matrix(0.6479 0.7617 -0.7617 0.6479 81.9964 -0.8875)" clip-path="url(#SVGID_1_)" fill="#231F20" width="0.6" height="7.9"/>
	<path clip-path="url(#SVGID_1_)" fill="#FFFFFF" d="M17.8,92.3l-3.2,41.9h-15L-11,96.7l15.3,8.7L17.8,92.3z M18.5,90.8l-1.1,1.1
		L4.2,104.7l-15-8.5l-1.3-0.7l0.4,1.4L-1,134.3l0.1,0.4h0.4h15h0.5l0-0.5l3.2-41.8L18.5,90.8z"/>
	
		<rect x="44.9" y="71.5" transform="matrix(0.9982 6.031403e-02 -6.031403e-02 0.9982 4.9766 -2.5794)" clip-path="url(#SVGID_1_)" fill="#FFFFFF" width="0.6" height="19.3"/>
	<path clip-path="url(#SVGID_1_)" fill="#FFFFFF" d="M18.2,84.4l-1.1,6.8l2.7,0.6c1,0.3,11.8,2.3,11.8,2.3l7.9-11.7L18.2,84.4
		l-1.1,6.8"/>
	<path clip-path="url(#SVGID_1_)" fill="#FFFFFF" d="M44.6,90.8L57.5,106l13.6-9.8l-11.9,38.1H42.4L44.6,90.8z M44.2,89.4l-0.1,1.4
		l-2.3,43.4l0,0.6h0.6h16.9h0.4l0.1-0.4l11.9-38.1l0.6-1.7l-1.5,1.1l-13.2,9.5L45.1,90.4L44.2,89.4z"/>
	<polygon clip-path="url(#SVGID_1_)" fill="#231F20" points="26.2,135.2 25.6,135.1 28.8,98.5 29.4,98.6 	"/>
	<polygon clip-path="url(#SVGID_1_)" fill="#231F20" points="44.6,92.3 39,93.8 39,97.7 30.3,94.4 29.1,94.1 19.8,91.8 19.8,109 
		29.1,100.1 32.2,100.4 39,111.3 	"/>
	<path clip-path="url(#SVGID_1_)" fill="#FFFFFF" d="M19.8,91.8l9.3,2.3l1.1,0.3l8.7,3.3v-3.8l5.6-1.5L39,111.3l-6.8-10.9l-3.1-0.3
		l-9.3,8.9V91.8z M19.3,91.1v0.7V109v1.3l1-0.9l9.1-8.7l2.5,0.3l6.6,10.6l0.7,1.1l0.4-1.2l5.6-18.9l0.3-1l-1,0.3l-5.6,1.5l-0.4,0.1
		v0.4v3l-7.9-3l0,0l0,0l-1.1-0.3L20,91.3L19.3,91.1z"/>
	
		<rect x="31.9" y="93.6" transform="matrix(0.9999 1.024011e-02 -1.024011e-02 0.9999 0.9992 -0.3242)" clip-path="url(#SVGID_1_)" fill="#FFFFFF" width="0.6" height="7.6"/>
	<path clip-path="url(#SVGID_1_)" fill="#CCC9C7" d="M30.1,118.6c-1,0-1.8-0.8-1.8-1.9c0-1,0.8-1.9,1.8-1.9c1,0,1.8,0.8,1.8,1.9
		C31.9,117.7,31.1,118.6,30.1,118.6 M30.1,115.3c-0.7,0-1.3,0.6-1.3,1.3c0,0.7,0.6,1.3,1.3,1.3c0.7,0,1.3-0.6,1.3-1.3
		C31.4,115.9,30.8,115.3,30.1,115.3"/>
	<polyline clip-path="url(#SVGID_1_)" fill="#FFFFFF" points="39,93.8 39,97.7 30.3,94.4 39,81.9 	"/>
	<rect x="38.7" y="81.9" clip-path="url(#SVGID_1_)" fill="#231F20" width="0.6" height="11.9"/>
	<polygon clip-path="url(#SVGID_1_)" fill="#231F20" points="39.3,98.1 29.8,94.5 38.7,81.7 39.2,82.1 30.7,94.3 38.7,97.2 
		38.7,93.8 39.3,93.8 	"/>
	<path clip-path="url(#SVGID_1_)" fill="#FFFFFF" d="M10.9,44.4c-0.1,0.7-0.3,1.6-0.5,2.7c-0.5,3.3-1.1,8.2-0.8,13.6
		c0.4,0.6,1.3,0.8,1.3,0.8c-0.1,3,0.3,7,1.2,9.7c0.9,2.7,4.7,9.3,5.6,11c0.3,0.6,0.9,1.7,1.6,2.9c1.1,1.9,2.2,4.2,2.3,5
		c0.1,0.9,3.7,1.6,6.7,1.8c1.8,0.1,3.5,0,4-0.4l7.8-8.9l6.6-7.4l0.2-3c0-1.2,0.9-4.6,0.9-4.6c1.4,0.1,3.5-0.6,4.8-3.3
		c1.3-2.7,3.5-13.8,1-14.2c-0.9-0.2-2.2,1-3.6,2.7c-2.5,3.1-5,8.1-4.9,10.6c-0.4,0.7-2.2,0.9-2.2,0.9c0-1.3-0.2-2.4,0-3.4
		c0.2-1,1.2-17-2.8-19.3c-2.7-0.2-14.8,7.8-19.1,4C19.8,47.4,14.9,46.3,10.9,44.4"/>
	<path clip-path="url(#SVGID_1_)" fill="#CCC9C7" d="M34.2,62.5L34.2,62.5c0.1,3.1-1.4,5.8-3.4,5.9l-2.1,0.2c-2,0.1-3.7-2.3-3.8-5.4
		"/>
	<path clip-path="url(#SVGID_1_)" fill="#CCC9C7" d="M17.8,63.2c-0.3,2.8-1.5,5.1-3,4.7l-1.6-0.5c-1.5-0.4-2.7-2.7-2.3-5.9"/>
	<path clip-path="url(#SVGID_1_)" fill="#231F20" d="M32.3,62.5L32.3,62.5c0,0.7-0.5,1.3-1.2,1.3l-0.7,0c-0.7,0-1.3-0.5-1.3-1.2"/>
	<path clip-path="url(#SVGID_1_)" fill="#231F20" d="M15,62.5L15,62.5c-0.2,0.7-0.7,1.1-1.2,1l-0.5-0.1c-0.5-0.1-0.7-0.8-0.6-1.4"/>
	<path clip-path="url(#SVGID_1_)" fill="#231F20" d="M43.9,62.7c0,0,0-0.1,0-0.2c0-0.1,0-0.3,0-0.5c0-0.4,0.2-1.1,0.4-1.9
		c0.5-1.6,1.5-3.9,3.3-6.7c0.5-0.7,0.9-1.4,1.5-2.1c0.6-0.7,1.2-1.4,2.1-2c0.2-0.1,0.5-0.2,0.7-0.3c0.1,0,0.3,0,0.4,0
		c0.2,0,0.3,0.1,0.4,0.2c0.3,0.2,0.4,0.4,0.5,0.7c0.1,0.3,0.2,0.5,0.2,0.8c0.2,1.1,0.2,2.2,0.1,3.4c-0.2,2.3-0.6,4.8-1.3,7.4
		c-0.2,0.6-0.4,1.3-0.7,1.9c-0.1,0.3-0.3,0.6-0.5,0.9c-0.2,0.3-0.4,0.6-0.6,0.9c-0.2,0.3-0.5,0.5-0.8,0.8c-0.3,0.2-0.6,0.4-1,0.6
		c-0.7,0.3-1.5,0.5-2.3,0.4c0.1,0,0.2-0.1,0.4-0.3c-0.2,0.7-0.4,1.8-0.6,3.1c-0.2,1.3-0.2,2.9-0.3,4.5l0,0.1l-0.1,0.1
		c-1.4,1.6-3.3,3.7-5.4,6c-2.1,2.3-4.4,5-6.7,7.6c-0.8,1-1.7,1.9-2.3,2.7l0,0l0,0c-0.2,0.1-0.3,0.2-0.5,0.3
		c-0.2,0.1-0.3,0.1-0.5,0.1c-0.3,0.1-0.6,0.1-0.9,0.1c-0.6,0-1.1,0-1.7,0c-1.1,0-2.2-0.1-3.2-0.3c-1.1-0.2-2.1-0.4-3.1-0.7
		c-0.3-0.1-0.5-0.2-0.8-0.4c-0.1,0-0.1-0.1-0.2-0.1l-0.1-0.1c0,0-0.1-0.1-0.1-0.1c-0.1-0.1-0.2-0.2-0.2-0.3l0-0.1l0,0l0,0
		c0,0.1,0-0.1,0-0.1l0,0c-0.1-0.4-0.3-0.9-0.5-1.3c-0.8-1.8-1.8-3.5-2.7-5.2c-0.9-1.7-1.8-3.3-2.7-4.9c-0.9-1.6-1.7-3.1-2.4-4.6
		c-0.3-0.8-0.7-1.5-1-2.3c-0.1-0.2-0.1-0.4-0.2-0.6c0-0.2-0.1-0.4-0.1-0.6c-0.1-0.4-0.2-0.8-0.3-1.1c-0.6-3-0.7-5.7-0.7-8
		C9.7,61,9.7,61,9.8,61.1c-0.4-0.1-0.7-0.2-0.9-0.4c-0.2-0.1-0.4-0.3-0.5-0.5l0,0l0,0c-0.2-5.5,0.4-9.5,0.8-12.2
		c0.2-1.4,0.4-2.4,0.5-3c0.1-0.7,0.2-1,0.2-1s-0.1,0.3-0.2,1c-0.1,0.7-0.3,1.7-0.5,3c-0.3,2.7-0.8,6.8-0.5,12.2c0,0,0,0,0-0.1
		c0.2,0.3,0.5,0.5,1.2,0.7l0.2,0v0.2c0,2.3,0.2,4.9,0.8,7.8c0.1,0.4,0.2,0.7,0.3,1.1c0,0.2,0.1,0.4,0.1,0.6c0,0.2,0.1,0.4,0.2,0.5
		c0.3,0.8,0.6,1.5,1,2.2c0.7,1.5,1.6,3,2.4,4.6c0.9,1.6,1.8,3.2,2.7,4.9c0.9,1.7,1.9,3.4,2.8,5.3c0.2,0.5,0.4,0.9,0.5,1.6
		c0,0.1,0.5,0.4,0.9,0.6c0.9,0.3,2,0.5,3,0.7c1,0.1,2.1,0.2,3.2,0.3c0.5,0,1.1,0,1.6,0c0.3,0,0.5,0,0.8-0.1c0.2,0,0.5-0.1,0.6-0.2
		c0,0,0,0,0,0c0.7-0.8,1.5-1.7,2.3-2.7c2.4-2.7,4.6-5.3,6.8-7.6c2.1-2.3,4-4.4,5.4-6c0,0.1-0.1,0.2-0.1,0.2c0.1-1.6,0.2-3.2,0.4-4.5
		c0.3-1.4,0.5-2.5,0.7-3.2l0.1-0.3l0.3,0c0.7,0.1,1.3-0.1,1.9-0.4c0.3-0.1,0.6-0.3,0.8-0.5c0.3-0.2,0.5-0.4,0.7-0.7
		c0.2-0.3,0.4-0.5,0.6-0.8c0.2-0.3,0.3-0.6,0.5-0.9c0.3-0.6,0.5-1.2,0.6-1.9c0.7-2.5,1.2-4.9,1.4-7.2c0.1-1.1,0.1-2.3,0-3.3
		c-0.1-0.5-0.2-1-0.6-1.3c-0.1-0.1-0.2-0.1-0.3-0.1c-0.1,0-0.2,0-0.3,0c-0.2,0-0.4,0.1-0.6,0.3c-0.8,0.5-1.5,1.2-2,1.8
		c-0.6,0.7-1.1,1.4-1.5,2c-1.8,2.7-2.9,4.9-3.4,6.5C44.2,61,44,61.7,44,62.1c0,0.2,0,0.4,0,0.5C43.9,62.7,43.9,62.7,43.9,62.7"/>
	<path clip-path="url(#SVGID_1_)" fill="#231F20" d="M36.2,62.2c0,0-0.1,0-0.3,0.1c-0.2,0.1-0.5,0.1-0.8,0.1c-0.7,0.1-1.7,0.2-3,0.3
		c-2.5,0.2-6.1,0.6-10,0.8c-1.6,0.1-3.2,0.1-4.6-0.2c-0.7-0.1-1.4-0.3-2-0.5c-0.6-0.2-1.2-0.3-1.7-0.5c-2.1-0.7-3.6-1-4-1.3
		c-0.1,0.2,0-0.1,0-0.1c-0.7-0.1-1-0.4-1.1-0.6c-0.1-0.2-0.2-0.2-0.2-0.2s0,0,0.2,0.2c0.2,0.1,0.5,0.4,1.1,0.5l0.2-0.1
		c0.8,0.1,1.8,0.5,4,1.1c0.5,0.1,1.1,0.3,1.8,0.4c0.6,0.1,1.3,0.3,2,0.4c1.3,0.3,2.9,0.2,4.4,0.1c3.9-0.2,7.4-0.4,10-0.4
		c1.3,0,2.3,0,3,0c0.4,0,0.6,0,0.8,0C36.1,62.2,36.2,62.2,36.2,62.2"/>
	<path clip-path="url(#SVGID_1_)" fill="#231F20" d="M33.4,56.4c0,0-0.3-0.1-0.8-0.2c-0.5-0.1-1.3-0.2-2.2-0.1
		c-1.8,0.1-4.4,0.7-7.2,1c-2.8,0.3-5.5,0.5-7.4,0.1c-0.2,0-0.5-0.1-0.7-0.2c-0.2-0.1-0.4-0.1-0.6-0.2c-0.3-0.2-0.6-0.4-0.8-0.5
		c-0.4-0.3-0.6-0.5-0.6-0.5s0.3,0.1,0.7,0.4c0.2,0.1,0.5,0.3,0.8,0.4c0.2,0.1,0.4,0.1,0.6,0.2c0.2,0.1,0.4,0.1,0.6,0.1
		c1.8,0.2,4.4-0.1,7.2-0.5c2.8-0.3,5.4-0.7,7.3-0.6c1,0.1,1.7,0.2,2.2,0.4C33.2,56.2,33.4,56.4,33.4,56.4"/>
	<path clip-path="url(#SVGID_1_)" fill="#231F20" d="M27.5,74.7c0,0,0-0.1-0.2-0.2c-0.2-0.1-0.7-0.2-1.4-0.1c0,0,0,0,0.1-0.1
		c0,0.3,0,0.7-0.2,1.3c0,0.2-0.1,0.3-0.3,0.5c-0.1,0.1-0.1,0.1-0.2,0.2l-0.1,0.1c0,0,0,0-0.1,0.1l-0.1,0c-0.3,0.2-0.7,0.4-1.1,0.6
		c-0.4,0.2-0.8,0.4-1.3,0.5c-0.2,0.1-0.5,0.1-0.8,0.2c-0.3,0-0.5,0.1-0.9,0.1c-0.1,0-0.3-0.1-0.3-0.1l0,0l0,0l0,0l-0.1,0l0,0l0,0
		l-0.1-0.1c-0.1-0.1-0.2-0.3-0.3-0.4c-0.2-0.3-0.3-0.5-0.4-0.8c-0.3-0.5-0.5-1.1-0.7-1.6c-0.3-0.8-0.5-1.5-0.7-2.3
		C18.1,71.7,18,71,18,70.2c0-1.4,0.1-2.7,0.3-3.7c0.1-1,0.3-1.9,0.4-2.5c0.1-0.6,0.2-0.9,0.2-0.9s0,0.3-0.1,0.9
		c0,0.6-0.1,1.4-0.1,2.5c0,1-0.1,2.3,0,3.7c0,0.7,0.1,1.4,0.3,2.1c0.2,0.7,0.4,1.4,0.7,2.2c0.2,0.5,0.4,1.1,0.7,1.6
		c0.1,0.2,0.2,0.5,0.4,0.7c0.1,0.1,0.1,0.2,0.2,0.3c0,0,0,0,0,0h0l0,0c-0.2,0.1-0.1,0-0.1,0l0,0l0,0c0,0,0,0,0,0c0.1,0,0.1,0,0.1,0
		c0.2,0,0.4,0,0.7,0c0.2,0,0.5-0.1,0.7-0.1c0.5-0.1,0.9-0.2,1.3-0.4c0.4-0.1,0.8-0.3,1.1-0.5l0.1,0c0,0,0,0,0,0l0.1-0.1
		c0.1-0.1,0.2-0.1,0.2-0.2c0.1-0.1,0.2-0.2,0.2-0.3c0.3-0.5,0.3-1,0.4-1.2l0-0.1l0.1,0c0.7,0,1.2,0.1,1.4,0.2
		C27.5,74.5,27.5,74.7,27.5,74.7"/>
	<path clip-path="url(#SVGID_1_)" fill="#231F20" d="M48.6,60.1c0,0,0.1,0,0.1-0.1c0.1-0.1,0.2-0.2,0.3-0.4c0.2-0.3,0.5-0.9,0.7-1.6
		c0.3-0.7,0.5-1.5,0.8-2.5c0.1-0.5,0.3-1,0.4-1.6c0.1-0.5,0.2-1.1,0.1-1.6c0.1,0.1,0.3,0.2,0.5,0.3c-0.3,0.1-0.9,0.5-1.3,1.1
		c-0.9,1.1-1.5,2.3-2.1,3.4c-0.6,1.1-1,2.1-1.4,3c-0.4,0.9-0.6,1.6-0.7,2.1c-0.1,0.5-0.2,0.8-0.2,0.8s0-0.3,0.1-0.8
		c0.1-0.5,0.2-1.3,0.5-2.2c0.3-0.9,0.6-2,1.1-3.2c0.5-1.2,1.1-2.4,2.1-3.6c0.5-0.6,1.2-1.2,1.8-1.4l0.4-0.1l0,0.4
		c0.1,0.8-0.1,1.3-0.2,1.9c-0.1,0.6-0.3,1.1-0.5,1.6c-0.4,1-0.7,1.8-1.1,2.5c-0.3,0.7-0.7,1.2-0.9,1.5c-0.1,0.2-0.3,0.3-0.4,0.3
		C48.7,60.1,48.6,60.1,48.6,60.1"/>
	<path clip-path="url(#SVGID_1_)" fill="#231F20" d="M33.4,70.3c0,0,0-0.3,0.4-0.6c0.1-0.1,0.2-0.1,0.4-0.2c0.1,0,0.1,0,0.2,0
		c0.1,0,0.2,0,0.3,0.1c0.2,0.1,0.2,0.4,0.2,0.6c0,0.2-0.1,0.4-0.2,0.6c-0.2,0.4-0.5,0.8-1.1,0.9l-0.1,0l0,0l-0.1,0h0h0h0l-0.2,0
		c-0.1,0-0.2,0-0.4,0c-0.2,0-0.5,0-0.8,0c-1.1-0.1-2.2-0.5-3.2-1.2c-1-0.7-1.8-1.6-2.4-2.5c-0.6-0.9-0.9-1.7-1.2-2.5
		c-0.2-0.7-0.4-1.4-0.4-1.8c0-0.2,0-0.4,0-0.5c0-0.1,0-0.2,0-0.2s0.1,1,0.8,2.3c0.7,1.3,1.8,3.1,3.6,4.4c0.9,0.6,1.9,1,2.8,1.2
		c0.2,0.1,0.5,0.1,0.7,0.1c0.1,0,0.2,0,0.3,0l0.2,0l0,0l0,0h0h0c-0.1,0,0,0,0,0l0,0l0.1,0c0.3,0,0.6-0.3,0.8-0.6
		c0.2-0.3,0.3-0.6,0.2-0.7c0,0-0.1-0.1-0.1-0.1c-0.1,0-0.1,0-0.2,0c-0.1,0-0.2,0-0.3,0.1C33.5,70.1,33.4,70.3,33.4,70.3"/>
	<path clip-path="url(#SVGID_1_)" fill="#231F20" d="M14.1,68.7c0,0,0,0-0.1-0.1c-0.1,0-0.2-0.1-0.3-0.1c-0.1,0-0.2,0-0.2,0
		c-0.1,0-0.2,0-0.2,0.1c-0.1,0.1-0.2,0.3-0.2,0.5c0,0.2,0.1,0.4,0.3,0.6c0.2,0.2,0.4,0.2,0.8,0.3c0.5,0.1,1.1-0.4,1.5-1.1
		c0.4-0.7,0.7-1.4,1-2.1c0.3-0.7,0.5-1.3,0.6-1.8c0.3-1.1,0.5-1.8,0.5-1.8s0,0.7-0.1,1.8c-0.1,0.6-0.2,1.2-0.4,2
		c-0.2,0.7-0.5,1.5-0.9,2.3c-0.2,0.4-0.5,0.8-1,1c-0.4,0.3-0.9,0.4-1.4,0.3c-0.3-0.1-0.8-0.3-1.1-0.5c-0.3-0.3-0.4-0.7-0.4-1.1
		c0.1-0.3,0.3-0.6,0.5-0.7c0.1-0.1,0.3-0.1,0.4-0.1c0.1,0,0.2,0,0.3,0.1C13.9,68.5,14,68.5,14.1,68.7C14.1,68.7,14.1,68.7,14.1,68.7
		"/>
	<path clip-path="url(#SVGID_1_)" fill="#231F20" d="M33.4,77.5c0,0-0.9,0.6-2.4,1.5c-0.7,0.4-1.7,0.9-2.7,1.4
		c-1.1,0.4-2.3,0.9-3.6,1.2c-0.4,0.1-0.8,0.1-1.2,0.2c-0.4,0.1-0.8,0.1-1.2,0.1c-0.4,0-0.8-0.1-1.1-0.1l-0.2-0.1l-0.1,0
		c-0.1,0-0.1,0-0.1,0l-0.1-0.1c-0.2-0.1-0.3-0.2-0.5-0.3c-0.5-0.4-0.9-0.9-1.2-1.3c-0.3-0.4-0.6-0.7-0.8-1c0.1,0,0.2,0,0.2,0
		c-0.2,0.3-0.3,0.6-0.2,0.9c0,0.3,0,0.5,0.1,0.7c0,0.4,0.1,0.5,0.1,0.5s0-0.2-0.1-0.5c0-0.2-0.1-0.4-0.2-0.7c-0.1-0.3,0-0.7,0.2-1.1
		l0.1-0.2l0.2,0.1c0.3,0.2,0.6,0.5,0.9,0.9c0.4,0.3,0.8,0.8,1.2,1.1c0.4,0.3,1,0.3,1.7,0.3c0.3,0,0.7,0,1-0.1
		c0.4-0.1,0.7-0.1,1.1-0.2c1.3-0.3,2.4-0.7,3.5-1c1-0.4,2-0.7,2.8-1.1C32.4,77.9,33.4,77.5,33.4,77.5"/>
	<path clip-path="url(#SVGID_1_)" fill="#231F20" d="M27.5,83.6c0,0-0.1,0-0.3,0.1c-0.2,0.1-0.5,0.1-0.8,0.2
		C26,83.9,25.6,84,25.1,84c-0.5,0-1,0.1-1.6,0c-0.6,0-1.2-0.3-1.6-0.6c-0.4-0.3-0.7-0.8-0.8-1.1c-0.1-0.4-0.2-0.7-0.1-0.9
		c0-0.2,0-0.3,0-0.3s0,0.1,0.1,0.3c0.1,0.2,0.2,0.4,0.4,0.7c0.2,0.3,0.5,0.5,0.8,0.7c0.4,0.2,0.8,0.3,1.3,0.3c0.5,0.1,1,0.1,1.5,0.1
		c0.5,0,0.9,0.1,1.2,0.1c0.4,0.1,0.6,0.1,0.8,0.1C27.4,83.6,27.5,83.6,27.5,83.6"/>
	<path clip-path="url(#SVGID_1_)" fill="#FFFFFF" d="M50,52.7c-2.5,3.1-5,8.1-4.9,10.6c-0.4,0.7-2.2,0.9-2.2,0.9
		c0-1.3-0.2-2.4,0-3.4c0.2-1,1.2-17-2.8-19.3c-2.7-0.2-14.8,7.8-19.1,4c-1.1,2-6.1,0.9-10-1c-0.1,0.7-0.3,1.6-0.5,2.7
		c-1.7,0.1-3.1-4.3-2.7-8.5C8.2,34.3,13.8,19,26,22.7c1.7-2.7,10.9-2.4,17.1,3.8c3.1,3,3.1,4.8,3.8,6.7C47.6,35,50.2,49.2,50,52.7"
		/>
	<path clip-path="url(#SVGID_1_)" fill="#231F20" d="M33.4,81.1c0,0,0-0.2,0.1-0.4c0-0.3,0.1-0.7,0-1.2c-0.1-1-0.5-2.3-1.4-3.3
		c-0.5-0.5-1-1-1.5-1.4c-0.3-0.2-0.5-0.4-0.7-0.5c-0.2-0.1-0.5-0.2-0.7-0.2c-0.5-0.1-0.9-0.2-1.2-0.4c-0.3-0.1-0.4-0.2-0.4-0.2
		s0.2,0,0.4,0.1c0.3,0.1,0.7,0.1,1.2,0.1c0.3,0,0.6,0,0.9,0.1c0.3,0.1,0.6,0.3,0.9,0.4c0.6,0.3,1.2,0.8,1.8,1.4
		c0.5,0.6,0.9,1.3,1.1,2c0.2,0.7,0.2,1.4,0.1,1.9c-0.1,0.5-0.2,0.9-0.3,1.2C33.5,81,33.4,81.1,33.4,81.1"/>
	<path clip-path="url(#SVGID_1_)" fill="#231F20" d="M35.6,79.4c0,0-0.1-0.2-0.3-0.4c-0.2-0.3-0.3-0.6-0.5-1
		c-0.1-0.4-0.1-0.8-0.1-1.1c0-0.1,0-0.3,0-0.4c0-0.1,0-0.1,0-0.1s0,0,0.1,0.1c0.1,0,0.2,0.1,0.3,0.2c0.2,0.3,0.5,0.6,0.6,1.1
		c0.1,0.4,0.1,0.9,0,1.2C35.7,79.2,35.6,79.4,35.6,79.4"/>
	<path clip-path="url(#SVGID_1_)" fill="#231F20" d="M29.5,20.5c3.7,0,8.6,1.6,12.4,5.5c3.1,3,3.1,4.8,3.8,6.7
		c0.7,1.8,3.3,16,3,19.5c1.3-1.6,2.5-2.7,3.4-2.7c0.1,0,0.1,0,0.2,0c2.5,0.4,0.3,11.5-1,14.2c-1.2,2.5-3.1,3.3-4.5,3.3
		c-0.1,0-0.2,0-0.3,0c0,0-0.9,3.4-0.9,4.6l6.6,7.2l29.3,13.6l-9.3,41.9H-9.9l-7.2-37.1l33.7-15.5c-0.9-1.7-4.8-8.3-5.6-11
		c-0.9-2.7-1.3-6.7-1.2-9.7c0,0-0.9-0.1-1.3-0.8c-0.3-5.4,0.3-10.3,0.8-13.6c0,0,0,0-0.1,0c-1.7,0-3.1-4.3-2.6-8.5
		c0.4-3.8,5-16.5,14.7-16.5c1.1,0,2.4,0.2,3.7,0.6C25.6,21.1,27.3,20.5,29.5,20.5 M29.5,18.8L29.5,18.8c-2.2,0-4,0.5-5.2,1.4
		c-1.1-0.2-2.1-0.4-3.1-0.4c-11.1,0-16,14-16.4,18c-0.4,3.7,0.5,7.6,2.1,9.3c0.2,0.2,0.3,0.3,0.5,0.4C6.8,52,6.6,56.2,6.8,60.2
		l0,0.4L7,61c0.3,0.5,0.7,0.8,1.1,1c0,2.8,0.4,6.3,1.3,9c0.7,2.1,2.9,6.1,4.9,9.7l-32,14.8l-1.2,0.6l0.3,1.3l7.2,37.1l0.3,1.3h1.4
		h82.4h1.3l0.3-1.3l9.3-41.9l0.3-1.4l-1.3-0.6l-29-13.5l-5.9-6.4c0.1-0.6,0.3-1.6,0.5-2.4c2.1-0.4,3.9-1.9,5-4.2
		c1.1-2.3,3.4-11.8,1.7-15.1c-0.4-0.8-1.1-1.4-2-1.5c-0.1,0-0.3,0-0.4,0c-0.5,0-1.1,0.1-2,0.6C49.7,42.6,48,33.6,47.4,32
		c-0.1-0.3-0.2-0.7-0.3-1c-0.5-1.6-1.1-3.6-3.9-6.2C38.9,20.4,33.3,18.8,29.5,18.8"/>
	<path clip-path="url(#SVGID_1_)" fill="#231F20" d="M48.8,51.7c0,0,0-0.3,0-0.8c0-0.3,0-0.6,0-1c0-0.4-0.1-0.9-0.2-1.4
		c-0.2-2.1-0.7-5.2-1.4-9.2c-0.4-2-0.8-4.2-1.4-6.5l-0.1-0.4c0-0.1-0.1-0.3-0.1-0.4c-0.1-0.3-0.2-0.6-0.3-0.9
		c-0.2-0.6-0.4-1.2-0.7-1.8c-0.3-0.6-0.6-1.1-1-1.7c-0.2-0.3-0.4-0.5-0.6-0.8c-0.2-0.2-0.5-0.5-0.7-0.8c-1.9-2-4.5-3.8-7.6-4.7
		c-1.5-0.5-3.1-0.8-4.8-0.8c-0.8,0-1.7,0.1-2.5,0.3c-0.8,0.2-1.6,0.6-2,1.2l-0.1,0.2L24.8,22c-1.7-0.5-3.8-0.8-6-0.2
		c-2.2,0.5-4.3,1.9-6,3.8c-1.8,1.9-3.2,4.3-4.3,6.9c-0.5,1.3-1,2.7-1.3,4.1C7,37.4,7,38.1,7,38.8c0,0.7,0,1.5,0.1,2.2
		c0.1,1,0.3,2,0.7,2.9c0.2,0.4,0.4,0.9,0.7,1.2c0.3,0.4,0.6,0.6,0.9,0.6C9.1,45.9,9,46,8.9,46.1c0.2-0.9,0.3-1.8,0.5-2.7l0.1-0.5
		l0.5,0.2c1.6,0.8,3.3,1.4,5.1,1.8c0.9,0.2,1.7,0.3,2.5,0.3c0.4,0,0.8-0.1,1.2-0.2c0.3-0.1,0.6-0.4,0.8-0.6l0.3-0.4l0.3,0.3
		c0.6,0.5,1.4,0.8,2.3,0.9c0.9,0.1,1.7,0,2.6-0.1c1.7-0.3,3.3-0.9,4.9-1.4c1.6-0.6,3.1-1.2,4.5-1.9c0.7-0.3,1.5-0.6,2.2-0.9
		c0.4-0.1,0.7-0.3,1.1-0.4c0.4-0.1,0.8-0.2,1.2-0.2l0.1,0l0.1,0c0.7,0.4,1.1,1.1,1.4,1.7c0.3,0.6,0.5,1.3,0.7,2
		c0.4,1.3,0.5,2.6,0.7,3.8c0.3,2.5,0.3,4.7,0.3,6.7c0,2-0.1,3.7-0.3,5.2c0,0.4-0.1,0.7-0.1,1c0,0.3,0,0.6,0,0.9c0,0.6,0,1.1,0,1.6
		c-0.1-0.1-0.1-0.1-0.1-0.1c0.8-0.1,1.3-0.2,1.6-0.4c0.3-0.1,0.4-0.3,0.5-0.4c0,0,0,0,0,0c0-1.2,0.4-2.2,0.7-3.2
		c0.3-0.9,0.7-1.7,1.1-2.4c0.7-1.4,1.3-2.4,1.8-3.1c0.5-0.7,0.8-1.2,1.1-1.5C48.7,51.8,48.8,51.7,48.8,51.7s-0.1,0.1-0.3,0.4
		c-0.2,0.3-0.6,0.8-1,1.5c-0.5,0.8-1.1,1.8-1.8,3.2c-0.3,0.7-0.7,1.5-1,2.4c-0.3,0.9-0.7,1.9-0.7,3.1v0l0,0
		c-0.2,0.3-0.6,0.7-2.2,0.9l-0.1,0l0-0.1c0-0.5,0-1-0.1-1.6c0-0.3,0-0.6,0-1c0-0.3,0-0.7,0.1-1.1c0.1-1.5,0.2-3.2,0.2-5.2
		c0-2-0.1-4.2-0.4-6.6c-0.1-1.2-0.3-2.5-0.7-3.7c-0.2-0.6-0.4-1.3-0.7-1.8c-0.3-0.6-0.7-1.1-1.2-1.4c0,0,0.1,0,0.1,0
		c-0.6,0-1.4,0.3-2.1,0.5c-0.7,0.3-1.4,0.6-2.2,0.9c-1.5,0.6-3,1.3-4.6,1.9c-1.6,0.6-3.2,1.2-5,1.5c-0.9,0.2-1.8,0.3-2.8,0.2
		c-1-0.1-2-0.4-2.7-1.1c0.2,0,0.4-0.1,0.6-0.1c-0.3,0.5-0.7,0.8-1.2,1c-0.5,0.2-0.9,0.3-1.4,0.3c-0.9,0-1.9-0.1-2.7-0.3
		c-1.8-0.4-3.5-1-5.2-1.8c0.2-0.1,0.4-0.2,0.6-0.3c-0.2,0.9-0.3,1.8-0.5,2.7l-0.1,0.4l-0.3,0c-0.2,0-0.4,0-0.5-0.1
		c-0.1-0.1-0.3-0.1-0.4-0.2c-0.3-0.2-0.5-0.4-0.6-0.6c-0.4-0.5-0.6-0.9-0.8-1.4c-0.4-1-0.6-2.1-0.7-3.1c-0.1-0.8-0.1-1.5-0.1-2.3
		c0-0.8,0.1-1.5,0.2-2.3c0.3-1.5,0.8-2.9,1.4-4.3c1.1-2.7,2.6-5.2,4.5-7.2c1.8-2,4.1-3.4,6.5-4c2.3-0.6,4.6-0.2,6.4,0.3
		c-0.2,0.1-0.3,0.1-0.4,0.1c0.6-0.9,1.6-1.3,2.4-1.5c0.9-0.2,1.8-0.3,2.7-0.3c1.8,0,3.4,0.4,5,0.9c3.1,1.1,5.8,2.9,7.7,5
		c0.2,0.3,0.5,0.5,0.7,0.8c0.2,0.3,0.4,0.6,0.7,0.8c0.4,0.6,0.8,1.2,1.1,1.8c0.3,0.6,0.5,1.2,0.7,1.9c0.1,0.3,0.2,0.6,0.3,0.9
		c0,0.1,0.1,0.3,0.1,0.4l0.1,0.4c0.6,2.4,1,4.6,1.3,6.6c0.7,4,1.1,7.1,1.3,9.2c0,0.5,0.1,1,0.1,1.4c0,0.4,0,0.7,0,1
		C48.8,51.4,48.8,51.7,48.8,51.7"/>
	<path clip-path="url(#SVGID_1_)" fill="#231F20" d="M29.1,62.7c0,0,0,0.3,0.3,0.6c0.1,0.1,0.3,0.3,0.5,0.4c0.1,0,0.2,0.1,0.4,0
		c0.1,0,0.3,0,0.4,0c0.3,0,0.6,0,0.8-0.1c0.2-0.1,0.4-0.3,0.5-0.4c0.2-0.3,0.2-0.6,0.2-0.6c0,0,0.1,0.3-0.1,0.7
		c-0.1,0.2-0.2,0.5-0.5,0.6c-0.3,0.2-0.7,0.2-1,0.2c-0.2,0-0.3,0-0.5,0c-0.1,0-0.3-0.1-0.5-0.1c-0.3-0.1-0.5-0.4-0.6-0.6
		C29,62.9,29.1,62.6,29.1,62.7"/>
	<path clip-path="url(#SVGID_1_)" fill="#231F20" d="M12.7,61.8c0,0,0,0.1,0,0.2c0,0.1,0,0.2,0.1,0.4c0,0.2,0.1,0.3,0.2,0.5
		c0.1,0.1,0.1,0.1,0.2,0.2l0.1,0l0,0l0,0c0,0,0,0,0,0h0h0l0,0l0.2,0c0.3,0.1,0.4,0.1,0.6,0.1c0.2-0.1,0.3-0.2,0.5-0.3
		c0.2-0.2,0.3-0.5,0.3-0.5c0,0,0,0.2-0.2,0.6c-0.1,0.2-0.2,0.4-0.5,0.5c-0.1,0.1-0.3,0.1-0.4,0.1c-0.2,0-0.3,0-0.4-0.1l-0.2-0.1l0,0
		l0,0l0,0l0,0l-0.1,0c-0.1-0.1-0.3-0.2-0.3-0.3c-0.1-0.2-0.2-0.5-0.2-0.7c0-0.2,0.1-0.3,0.1-0.4C12.7,61.9,12.7,61.8,12.7,61.8"/>
	<polygon clip-path="url(#SVGID_1_)" fill="#FFFFFF" points="29,100.2 28.8,92.6 29.4,92.6 29.6,100.2 	"/>
	<line clip-path="url(#SVGID_1_)" fill="#FFFFFF" x1="18.2" y1="84.4" x2="17.1" y2="91.2"/>
	<polygon clip-path="url(#SVGID_1_)" fill="#231F20" points="29.8,94.6 19.8,92.1 16.8,91.4 17.9,84.3 18.5,84.4 17.4,91 19.9,91.5 
		28.5,93.7 27,91.4 27.4,91.1 	"/>
	
		<rect x="29.1" y="94" transform="matrix(0.9706 0.2405 -0.2405 0.9706 23.5432 -4.3739)" clip-path="url(#SVGID_1_)" fill="#231F20" width="1.2" height="0.6"/>
	<path clip-path="url(#SVGID_1_)" fill="#231F20" d="M148.3,16L148.3,16c-2.2,0-4,0.5-5.2,1.4c-1.1-0.2-2.1-0.4-3.1-0.4
		c-11.1,0-16,14-16.4,18c-0.4,3.7,0.5,7.6,2.1,9.3c0.2,0.2,0.3,0.3,0.5,0.4c-0.6,4.4-0.8,8.6-0.6,12.6l0,0.4l0.2,0.4
		c0.3,0.5,0.7,0.8,1.1,1c0,2.8,0.4,6.3,1.3,9c0.7,2.1,2.9,6.1,4.9,9.7l-32,14.8l-1.2,0.6l0.3,1.3l7.2,37.1l0.3,1.3h1.4h82.4h1.3
		l0.3-1.3l9.3-41.8l0.3-1.4l-1.3-0.6l-29-13.5l-5.9-6.4c0.1-0.6,0.3-1.6,0.5-2.4c2.1-0.4,3.9-1.9,5-4.2c1.1-2.3,3.4-11.8,1.7-15.1
		c-0.4-0.8-1.1-1.4-2-1.5c-0.1,0-0.3,0-0.4,0c-0.5,0-1.1,0.1-2,0.6c-0.6-5.7-2.3-14.7-2.9-16.3c-0.1-0.3-0.2-0.7-0.3-1
		c-0.5-1.6-1.1-3.6-3.9-6.2C157.6,17.6,152.1,16,148.3,16"/>
	<path clip-path="url(#SVGID_1_)" fill="none" stroke="#FFFFFF" stroke-width="2" d="M148.3,16L148.3,16c-2.2,0-4,0.5-5.2,1.4
		c-1.1-0.2-2.1-0.4-3.1-0.4c-11.1,0-16,14-16.4,18c-0.4,3.7,0.5,7.6,2.1,9.3c0.2,0.2,0.3,0.3,0.5,0.4c-0.6,4.4-0.8,8.6-0.6,12.6
		l0,0.4l0.2,0.4c0.3,0.5,0.7,0.8,1.1,1c0,2.8,0.4,6.3,1.3,9c0.7,2.1,2.9,6.1,4.9,9.7l-32,14.8l-1.2,0.6l0.3,1.3l7.2,37.1l0.3,1.3
		h1.4h82.4h1.3l0.3-1.3l9.3-41.8l0.3-1.4l-1.3-0.6l-29-13.5l-5.9-6.4c0.1-0.6,0.3-1.6,0.5-2.4c2.1-0.4,3.9-1.9,5-4.2
		c1.1-2.3,3.4-11.8,1.7-15.1c-0.4-0.8-1.1-1.4-2-1.5c-0.1,0-0.3,0-0.4,0c-0.5,0-1.1,0.1-2,0.6c-0.6-5.7-2.3-14.7-2.9-16.3
		c-0.1-0.3-0.2-0.7-0.3-1c-0.5-1.6-1.1-3.6-3.9-6.2C157.6,17.6,152.1,16,148.3,16z"/>
	<polygon clip-path="url(#SVGID_1_)" fill="#231F20" points="164.3,67.9 171,75.1 200.3,88.7 190.7,132.4 109.4,132.4 101.5,93.4 
		135.2,77.9 	"/>
	<path clip-path="url(#SVGID_1_)" fill="#FFFFFF" d="M164.2,68.5l6.4,6.9l0.1,0.1l0.1,0L199.7,89l-9.4,42.9h-80.4l-7.7-38.1
		l33.3-15.3L164.2,68.5z M164.3,67.9l-29.2,10l-33.7,15.5l8,39h81.3l9.6-43.7L171,75.1L164.3,67.9z"/>
	<polygon clip-path="url(#SVGID_1_)" fill="#FFFFFF" points="163.5,77.5 136.8,87.2 132.8,132.4 160.5,132.4 	"/>
	<polygon clip-path="url(#SVGID_1_)" fill="#FFFFFF" points="128.6,96 128.1,96.4 130.5,79.9 131,80 	"/>
	
		<rect x="169.7" y="75" transform="matrix(0.9952 9.795120e-02 -9.795120e-02 0.9952 9.098 -16.2459)" clip-path="url(#SVGID_1_)" fill="#FFFFFF" width="0.6" height="19.1"/>
	<polygon clip-path="url(#SVGID_1_)" fill="#FFFFFF" points="157.5,76.9 164.2,70.9 163.5,82.1 156.7,87.9 	"/>
	<polygon clip-path="url(#SVGID_1_)" fill="#CCC9C7" points="137.5,88.3 134.2,130.2 119.3,130.2 108.7,92.7 124,101.4 	"/>
	<polygon clip-path="url(#SVGID_1_)" fill="#CCC9C7" points="164.3,86.8 177.2,102 190.9,92.1 178.9,130.2 162.1,130.2 	"/>
	
		<rect x="160.2" y="80.7" transform="matrix(0.6471 0.7624 -0.7624 0.6471 121.1549 -92.5197)" clip-path="url(#SVGID_1_)" fill="#231F20" width="0.6" height="7.9"/>
	<path clip-path="url(#SVGID_1_)" fill="#FFFFFF" d="M136.3,88.7l-3.2,41.8h-15L107.5,93l15.3,8.7L136.3,88.7z M137,87.2l-1.1,1.1
		L122.8,101l-15-8.5l-1.3-0.7l0.4,1.4l10.6,37.5l0.1,0.4h0.4h15h0.5l0-0.5l3.2-41.8L137,87.2z"/>
	
		<rect x="163.5" y="67.8" transform="matrix(0.9983 5.856690e-02 -5.856690e-02 0.9983 4.8208 -9.459)" clip-path="url(#SVGID_1_)" fill="#FFFFFF" width="0.6" height="19.3"/>
	<path clip-path="url(#SVGID_1_)" fill="#FFFFFF" d="M136.8,80.8l-1.1,6.8l2.7,0.6c1,0.3,11.8,2.3,11.8,2.3l7.9-11.7L136.8,80.8
		l-1.1,6.8"/>
	<path clip-path="url(#SVGID_1_)" fill="#FFFFFF" d="M163.2,87.2l12.9,15.1l13.6-9.8l-11.9,38.1h-16.9L163.2,87.2z M162.7,85.7
		l-0.1,1.4l-2.3,43.4l0,0.6h0.6h16.9h0.4l0.1-0.4l11.9-38.1l0.6-1.7l-1.5,1.1l-13.2,9.5l-12.5-14.7L162.7,85.7z"/>
	<polygon clip-path="url(#SVGID_1_)" fill="#231F20" points="144.8,131.6 144.2,131.5 147.4,94.9 148,95 	"/>
	<polygon clip-path="url(#SVGID_1_)" fill="#231F20" points="163.1,88.7 157.5,90.2 157.5,94 148.8,90.8 147.7,90.5 138.4,88.2 
		138.4,105.3 147.7,96.4 150.8,96.8 157.5,107.6 	"/>
	<path clip-path="url(#SVGID_1_)" fill="#FFFFFF" d="M138.4,88.2l9.3,2.3l1.1,0.3l8.7,3.3v-3.8l5.6-1.5l-5.6,18.9l-6.8-10.9
		l-3.1-0.3l-9.3,8.9V88.2z M137.8,87.5v0.7v17.2v1.3l1-0.9l9.1-8.7l2.5,0.3l6.6,10.6l0.7,1.1l0.4-1.2l5.6-18.9l0.3-1l-1,0.3
		l-5.6,1.5l-0.4,0.1v0.4v3l-7.9-3l0,0l0,0l-1.1-0.3l-9.3-2.3L137.8,87.5z"/>
	
		<rect x="150.4" y="90" transform="matrix(0.9999 1.198448e-02 -1.198448e-02 0.9999 1.1347 -1.7996)" clip-path="url(#SVGID_1_)" fill="#FFFFFF" width="0.6" height="7.6"/>
	<path clip-path="url(#SVGID_1_)" fill="#CCC9C7" d="M148.7,114.9c-1,0-1.8-0.8-1.8-1.9c0-1,0.8-1.9,1.8-1.9c1,0,1.8,0.8,1.8,1.9
		C150.5,114.1,149.7,114.9,148.7,114.9 M148.7,111.7c-0.7,0-1.3,0.6-1.3,1.3c0,0.7,0.6,1.3,1.3,1.3c0.7,0,1.3-0.6,1.3-1.3
		C149.9,112.3,149.4,111.7,148.7,111.7"/>
	<polyline clip-path="url(#SVGID_1_)" fill="#FFFFFF" points="157.5,90.2 157.5,94 148.8,90.8 157.5,78.3 	"/>
	<rect x="157.2" y="78.3" clip-path="url(#SVGID_1_)" fill="#231F20" width="0.6" height="11.9"/>
	<polygon clip-path="url(#SVGID_1_)" fill="#231F20" points="157.8,94.4 148.4,90.9 157.3,78.1 157.8,78.4 149.3,90.6 157.2,93.6 
		157.2,90.2 157.8,90.2 	"/>
	<path clip-path="url(#SVGID_1_)" fill="#FFFFFF" d="M129.5,40.8c-0.1,0.7-0.3,1.6-0.5,2.7c-0.5,3.3-1.1,8.2-0.8,13.6
		c0.4,0.6,1.3,0.8,1.3,0.8c-0.1,3,0.3,7,1.2,9.7c0.9,2.7,4.7,9.3,5.6,11c0.3,0.6,1,1.7,1.6,2.9c1.1,1.9,2.2,4.2,2.3,5
		c0.1,0.9,3.7,1.6,6.7,1.8c1.8,0.1,3.5,0,4-0.4l7.8-8.9l6.6-7.4l0.2-3c0-1.2,0.9-4.6,0.9-4.6c1.4,0.1,3.5-0.6,4.8-3.3
		c1.3-2.7,3.5-13.8,1-14.2c-0.9-0.2-2.2,1-3.6,2.7c-2.5,3.1-5,8.1-4.9,10.6c-0.4,0.7-2.2,0.9-2.2,0.9c0-1.3-0.2-2.4,0-3.4
		c0.2-1,1.2-17-2.8-19.3c-2.7-0.2-14.8,7.8-19.1,4C138.4,43.8,133.5,42.7,129.5,40.8"/>
	<path clip-path="url(#SVGID_1_)" fill="#CCC9C7" d="M152.8,58.8L152.8,58.8c0.1,3.1-1.4,5.8-3.4,5.9l-2.1,0.2
		c-2,0.1-3.7-2.3-3.8-5.4"/>
	<path clip-path="url(#SVGID_1_)" fill="#CCC9C7" d="M136.3,59.5c-0.3,2.8-1.5,5.1-3,4.6l-1.6-0.5c-1.5-0.4-2.7-2.7-2.3-5.9"/>
	<path clip-path="url(#SVGID_1_)" fill="#231F20" d="M150.9,58.9L150.9,58.9c0,0.7-0.5,1.3-1.2,1.3l-0.7,0c-0.7,0-1.3-0.5-1.3-1.2"
		/>
	<path clip-path="url(#SVGID_1_)" fill="#231F20" d="M133.6,58.8L133.6,58.8c-0.2,0.7-0.7,1.1-1.2,1l-0.5-0.1
		c-0.5-0.1-0.7-0.8-0.6-1.4"/>
	<path clip-path="url(#SVGID_1_)" fill="#231F20" d="M162.5,59.1c0,0,0-0.1,0-0.2c0-0.1,0-0.3,0-0.5c0-0.4,0.2-1.1,0.4-1.9
		c0.5-1.6,1.5-3.9,3.3-6.7c0.5-0.7,0.9-1.4,1.5-2.1c0.6-0.7,1.2-1.4,2.1-2c0.2-0.1,0.5-0.2,0.7-0.3c0.1,0,0.3,0,0.4,0
		c0.2,0,0.3,0.1,0.4,0.2c0.3,0.2,0.4,0.4,0.5,0.7c0.1,0.3,0.2,0.5,0.2,0.8c0.2,1.1,0.2,2.2,0.1,3.4c-0.2,2.3-0.6,4.8-1.3,7.4
		c-0.2,0.6-0.4,1.3-0.7,1.9c-0.1,0.3-0.3,0.6-0.5,0.9c-0.2,0.3-0.4,0.6-0.6,0.9c-0.2,0.3-0.5,0.5-0.8,0.8c-0.3,0.2-0.6,0.5-1,0.6
		c-0.7,0.3-1.5,0.5-2.3,0.5c0.1,0,0.2-0.1,0.4-0.3c-0.2,0.7-0.4,1.8-0.6,3.1c-0.2,1.3-0.2,2.9-0.3,4.5l0,0.1l-0.1,0.1
		c-1.4,1.6-3.3,3.7-5.4,6c-2.1,2.3-4.4,5-6.7,7.6c-0.8,1-1.7,1.9-2.3,2.7l0,0l0,0c-0.2,0.1-0.3,0.2-0.5,0.3
		c-0.2,0.1-0.3,0.1-0.5,0.1c-0.3,0.1-0.6,0.1-0.9,0.1c-0.6,0-1.1,0-1.7,0c-1.1,0-2.2-0.1-3.2-0.3c-1.1-0.2-2.1-0.4-3.1-0.7
		c-0.3-0.1-0.5-0.2-0.8-0.4c-0.1,0-0.1-0.1-0.2-0.1l-0.1-0.1c0,0-0.1-0.1-0.1-0.1c-0.1-0.1-0.2-0.2-0.2-0.3l0-0.1l0,0l0,0
		c0,0.1,0-0.1,0-0.1l0,0c-0.1-0.4-0.3-0.9-0.5-1.3c-0.8-1.8-1.8-3.5-2.7-5.2c-0.9-1.7-1.8-3.3-2.7-4.9c-0.9-1.6-1.7-3.1-2.4-4.6
		c-0.3-0.8-0.7-1.5-1-2.3c-0.1-0.2-0.1-0.4-0.2-0.6c0-0.2-0.1-0.4-0.1-0.6c-0.1-0.4-0.2-0.8-0.3-1.1c-0.6-3-0.7-5.7-0.7-8
		c0.1,0.1,0.1,0.1,0.2,0.2c-0.4-0.1-0.7-0.2-0.9-0.4c-0.2-0.1-0.4-0.3-0.5-0.5l0,0l0,0c-0.2-5.5,0.4-9.5,0.8-12.2
		c0.2-1.4,0.4-2.4,0.5-3c0.1-0.7,0.2-1,0.2-1s-0.1,0.3-0.2,1c-0.1,0.7-0.3,1.7-0.5,3c-0.3,2.7-0.8,6.8-0.5,12.2c0,0,0,0,0-0.1
		c0.2,0.3,0.5,0.5,1.2,0.7l0.2,0v0.2c0,2.3,0.2,4.9,0.8,7.8c0.1,0.4,0.2,0.7,0.3,1.1c0,0.2,0.1,0.4,0.1,0.6c0,0.2,0.1,0.4,0.2,0.5
		c0.3,0.8,0.6,1.5,1,2.2c0.7,1.5,1.6,3,2.4,4.6c0.9,1.6,1.8,3.2,2.7,4.9c0.9,1.7,1.9,3.4,2.8,5.3c0.2,0.5,0.4,0.9,0.5,1.6
		c0,0.1,0.5,0.4,0.9,0.6c0.9,0.3,2,0.5,3,0.7c1,0.1,2.1,0.2,3.2,0.3c0.5,0,1.1,0,1.6,0c0.3,0,0.5,0,0.8-0.1c0.2,0,0.5-0.1,0.6-0.2
		c0,0,0,0,0,0c0.7-0.8,1.5-1.7,2.3-2.7c2.4-2.7,4.6-5.3,6.8-7.6c2.1-2.3,4-4.4,5.4-6c0,0.1-0.1,0.2-0.1,0.2c0.1-1.6,0.2-3.2,0.4-4.5
		c0.3-1.4,0.5-2.5,0.7-3.2l0.1-0.3l0.3,0c0.7,0.1,1.3-0.1,1.9-0.4c0.3-0.1,0.6-0.3,0.8-0.5c0.3-0.2,0.5-0.4,0.7-0.7
		c0.2-0.3,0.4-0.5,0.6-0.8c0.2-0.3,0.3-0.6,0.5-0.9c0.3-0.6,0.5-1.2,0.6-1.9c0.7-2.5,1.2-5,1.4-7.2c0.1-1.1,0.1-2.3,0-3.3
		c-0.1-0.5-0.2-1-0.6-1.3c-0.1-0.1-0.2-0.1-0.3-0.1c-0.1,0-0.2,0-0.3,0c-0.2,0-0.4,0.1-0.6,0.3c-0.8,0.5-1.5,1.2-2,1.8
		c-0.6,0.7-1.1,1.4-1.5,2c-1.8,2.7-2.9,4.9-3.4,6.5c-0.3,0.8-0.4,1.4-0.5,1.9c0,0.2,0,0.4,0,0.5C162.5,59,162.5,59.1,162.5,59.1"/>
	<path clip-path="url(#SVGID_1_)" fill="#231F20" d="M154.8,58.6c0,0-0.1,0-0.3,0.1c-0.2,0.1-0.5,0.1-0.8,0.1
		c-0.7,0.1-1.7,0.2-3,0.3c-2.5,0.2-6.1,0.6-10,0.8c-1.6,0.1-3.2,0.1-4.6-0.2c-0.7-0.1-1.4-0.3-2-0.5c-0.6-0.2-1.2-0.3-1.7-0.5
		c-2.1-0.7-3.6-1-4-1.3c-0.1,0.2,0-0.1,0-0.1c-0.7-0.1-1-0.4-1.1-0.6c-0.1-0.2-0.2-0.2-0.2-0.2s0,0,0.2,0.2c0.2,0.1,0.5,0.4,1.1,0.5
		l0.2-0.1c0.8,0.1,1.8,0.5,4,1.1c0.5,0.1,1.1,0.3,1.8,0.4c0.6,0.1,1.3,0.3,2,0.4c1.3,0.3,2.9,0.2,4.4,0.1c3.9-0.2,7.4-0.4,10-0.4
		c1.3,0,2.3,0,3,0c0.4,0,0.6,0,0.8,0C154.7,58.6,154.8,58.6,154.8,58.6"/>
	<path clip-path="url(#SVGID_1_)" fill="#231F20" d="M152,52.7c0,0-0.3-0.1-0.8-0.2c-0.5-0.1-1.3-0.2-2.2-0.1
		c-1.8,0.1-4.4,0.7-7.2,1c-2.8,0.3-5.5,0.5-7.4,0.1c-0.2,0-0.5-0.1-0.7-0.2c-0.2-0.1-0.4-0.1-0.6-0.2c-0.3-0.2-0.6-0.4-0.8-0.5
		c-0.4-0.3-0.6-0.5-0.6-0.5s0.3,0.1,0.7,0.4c0.2,0.1,0.5,0.3,0.8,0.4c0.2,0.1,0.4,0.1,0.6,0.2c0.2,0.1,0.4,0.1,0.6,0.1
		c1.8,0.2,4.4-0.1,7.2-0.5c2.8-0.3,5.4-0.7,7.3-0.6c1,0.1,1.7,0.2,2.2,0.4C151.7,52.6,152,52.7,152,52.7"/>
	<path clip-path="url(#SVGID_1_)" fill="#231F20" d="M146.1,71c0,0,0-0.1-0.2-0.2c-0.2-0.1-0.7-0.2-1.4-0.1c0,0,0,0,0.1-0.1
		c0,0.3,0,0.7-0.2,1.3c0,0.2-0.1,0.3-0.3,0.5c-0.1,0.1-0.1,0.1-0.2,0.2l-0.1,0.1c0,0,0,0-0.1,0.1l-0.1,0c-0.3,0.2-0.7,0.4-1.1,0.6
		c-0.4,0.2-0.8,0.4-1.3,0.5c-0.2,0.1-0.5,0.1-0.8,0.2c-0.3,0-0.5,0.1-0.9,0.1c-0.1,0-0.3-0.1-0.3-0.1l0,0l0,0l0,0l-0.1,0l0,0l0,0
		l-0.1-0.1c-0.1-0.1-0.2-0.3-0.3-0.4c-0.2-0.3-0.3-0.5-0.4-0.8c-0.3-0.5-0.5-1.1-0.7-1.6c-0.3-0.8-0.5-1.5-0.7-2.3
		c-0.2-0.8-0.2-1.5-0.2-2.2c0-1.4,0.1-2.7,0.3-3.7c0.1-1,0.3-1.9,0.4-2.5c0.1-0.6,0.2-0.9,0.2-0.9s0,0.3-0.1,0.9
		c0,0.6-0.1,1.4-0.1,2.5c0,1-0.1,2.3,0,3.7c0,0.7,0.1,1.4,0.3,2.1c0.2,0.7,0.4,1.4,0.7,2.2c0.2,0.5,0.4,1.1,0.7,1.6
		c0.1,0.2,0.2,0.5,0.4,0.7c0.1,0.1,0.1,0.2,0.2,0.3c0,0,0,0,0,0h0l0,0c-0.2,0.1-0.1,0-0.1,0l0,0l0,0c0,0,0,0,0,0c0.1,0,0.1,0,0.1,0
		c0.2,0,0.4,0,0.7,0c0.2,0,0.5-0.1,0.7-0.1c0.5-0.1,0.9-0.2,1.3-0.4c0.4-0.1,0.8-0.3,1.1-0.5l0.1,0c0,0,0,0,0,0l0.1-0.1
		c0.1-0.1,0.2-0.1,0.2-0.2c0.1-0.1,0.2-0.2,0.2-0.3c0.3-0.5,0.3-0.9,0.4-1.2l0-0.1l0.1,0c0.7,0,1.2,0.1,1.4,0.2
		C146.1,70.9,146.1,71,146.1,71"/>
	<path clip-path="url(#SVGID_1_)" fill="#231F20" d="M167.2,56.5c0,0,0.1,0,0.1-0.1c0.1-0.1,0.2-0.2,0.3-0.4
		c0.2-0.3,0.5-0.9,0.7-1.6c0.3-0.7,0.5-1.5,0.8-2.5c0.1-0.5,0.3-1,0.4-1.6c0.1-0.5,0.2-1.1,0.1-1.6c0.1,0.1,0.3,0.2,0.5,0.3
		c-0.3,0.1-0.9,0.5-1.3,1.1c-0.9,1.1-1.5,2.3-2.1,3.4c-0.6,1.1-1,2.1-1.4,3c-0.4,0.9-0.6,1.6-0.7,2.1c-0.1,0.5-0.2,0.8-0.2,0.8
		s0-0.3,0.1-0.8c0.1-0.5,0.2-1.3,0.5-2.2c0.3-0.9,0.6-2,1.1-3.2c0.5-1.2,1.1-2.4,2.1-3.6c0.5-0.6,1.2-1.2,1.8-1.4l0.4-0.1l0,0.4
		c0.1,0.8-0.1,1.3-0.2,1.9c-0.1,0.6-0.3,1.1-0.5,1.6c-0.4,1-0.7,1.8-1.1,2.5c-0.3,0.7-0.7,1.2-0.9,1.5c-0.1,0.2-0.3,0.3-0.4,0.3
		C167.2,56.5,167.2,56.5,167.2,56.5"/>
	<path clip-path="url(#SVGID_1_)" fill="#231F20" d="M152,66.7c0,0,0-0.3,0.4-0.6c0.1-0.1,0.2-0.1,0.4-0.2c0.1,0,0.1,0,0.2,0
		c0.1,0,0.2,0,0.3,0.1c0.2,0.1,0.2,0.4,0.2,0.6c0,0.2-0.1,0.4-0.2,0.6c-0.2,0.4-0.5,0.8-1.1,0.9l-0.1,0l0,0l-0.1,0h0h0h0l-0.2,0
		c-0.1,0-0.2,0-0.4,0c-0.2,0-0.5,0-0.8,0c-1.1-0.1-2.2-0.5-3.2-1.2c-1-0.7-1.8-1.6-2.4-2.5c-0.6-0.9-0.9-1.7-1.2-2.5
		c-0.2-0.7-0.4-1.4-0.4-1.8c0-0.2,0-0.4,0-0.5c0-0.1,0-0.2,0-0.2s0.1,1,0.8,2.3c0.7,1.3,1.8,3.1,3.6,4.4c0.9,0.6,1.9,1,2.8,1.2
		c0.2,0.1,0.5,0.1,0.7,0.1c0.1,0,0.2,0,0.3,0l0.2,0l0,0l0,0h0h0c-0.1,0,0,0,0,0l0,0l0.1,0c0.3,0,0.6-0.3,0.8-0.6
		c0.2-0.3,0.3-0.6,0.2-0.7c0,0-0.1-0.1-0.1-0.1c-0.1,0-0.1,0-0.2,0c-0.1,0-0.2,0-0.3,0.1C152.1,66.4,152,66.7,152,66.7"/>
	<path clip-path="url(#SVGID_1_)" fill="#231F20" d="M132.7,65.1c0,0,0,0-0.1-0.1c-0.1,0-0.2-0.1-0.3-0.1c-0.1,0-0.2,0-0.2,0
		c-0.1,0-0.2,0-0.2,0.1c-0.1,0.1-0.2,0.3-0.2,0.5c0,0.2,0.1,0.4,0.3,0.6c0.2,0.2,0.4,0.2,0.8,0.3c0.5,0.1,1.1-0.4,1.5-1.1
		c0.4-0.7,0.7-1.4,1-2.1c0.3-0.7,0.5-1.3,0.6-1.8c0.3-1.1,0.5-1.8,0.5-1.8s0,0.7-0.1,1.8c-0.1,0.6-0.2,1.2-0.4,2
		c-0.2,0.7-0.5,1.5-0.9,2.3c-0.2,0.4-0.5,0.8-1,1c-0.4,0.3-0.9,0.4-1.4,0.3c-0.3-0.1-0.8-0.3-1.1-0.5c-0.3-0.3-0.4-0.7-0.4-1.1
		c0.1-0.3,0.3-0.6,0.5-0.7c0.1-0.1,0.3-0.1,0.4-0.1c0.1,0,0.2,0,0.3,0.1C132.4,64.8,132.5,64.9,132.7,65.1
		C132.7,65,132.7,65.1,132.7,65.1"/>
	<path clip-path="url(#SVGID_1_)" fill="#231F20" d="M152,73.8c0,0-0.9,0.6-2.4,1.5c-0.7,0.4-1.7,0.9-2.7,1.4
		c-1.1,0.4-2.3,0.9-3.6,1.2c-0.4,0.1-0.8,0.1-1.2,0.2c-0.4,0.1-0.8,0.1-1.2,0.1c-0.4,0-0.8-0.1-1.1-0.1l-0.2-0.1l-0.1,0
		c-0.1,0-0.1,0-0.1,0l-0.1-0.1c-0.2-0.1-0.3-0.2-0.5-0.3c-0.5-0.4-0.9-0.9-1.2-1.3c-0.3-0.4-0.6-0.7-0.8-1c0.1,0,0.2,0,0.2,0
		c-0.2,0.3-0.3,0.6-0.2,0.9c0,0.3,0,0.5,0.1,0.7c0,0.4,0.1,0.5,0.1,0.5s0-0.2-0.1-0.5c0-0.2-0.1-0.4-0.2-0.7c-0.1-0.3,0-0.7,0.2-1.1
		l0.1-0.2l0.2,0.1c0.3,0.2,0.6,0.5,0.9,0.9c0.4,0.3,0.8,0.8,1.2,1.1c0.4,0.3,1,0.3,1.7,0.3c0.3,0,0.7,0,1-0.1
		c0.4-0.1,0.7-0.1,1.1-0.2c1.3-0.3,2.4-0.7,3.5-1c1-0.4,2-0.7,2.8-1.1C151,74.2,152,73.8,152,73.8"/>
	<path clip-path="url(#SVGID_1_)" fill="#231F20" d="M146.1,79.9c0,0-0.1,0-0.3,0.1c-0.2,0.1-0.5,0.1-0.8,0.2
		c-0.4,0.1-0.8,0.1-1.3,0.2c-0.5,0-1,0.1-1.6,0c-0.6,0-1.2-0.3-1.6-0.6c-0.4-0.3-0.7-0.8-0.8-1.1c-0.1-0.4-0.2-0.7-0.1-0.9
		c0-0.2,0-0.3,0-0.3s0,0.1,0.1,0.3c0.1,0.2,0.2,0.4,0.4,0.7c0.2,0.3,0.5,0.5,0.8,0.7c0.4,0.2,0.8,0.3,1.3,0.3c0.5,0.1,1,0.1,1.5,0.1
		c0.5,0,0.9,0.1,1.2,0.1c0.4,0.1,0.6,0.1,0.8,0.1C146,79.9,146.1,79.9,146.1,79.9"/>
	<path clip-path="url(#SVGID_1_)" fill="#FFFFFF" d="M168.5,49.1c-2.5,3.1-5,8.1-4.9,10.6c-0.4,0.7-2.2,0.9-2.2,0.9
		c0-1.3-0.2-2.4,0-3.4c0.2-1,1.2-17-2.8-19.3c-2.7-0.2-14.8,7.8-19.1,4c-1.1,2-6.1,0.9-10-1c-0.1,0.7-0.3,1.6-0.5,2.7
		c-1.7,0.1-3.1-4.3-2.7-8.5c0.4-4.3,6.1-19.6,18.3-15.9c1.7-2.7,10.9-2.4,17.1,3.8c3.1,3,3.1,4.8,3.8,6.7
		C166.2,31.4,168.7,45.6,168.5,49.1"/>
	<path clip-path="url(#SVGID_1_)" fill="#231F20" d="M152,77.5c0,0,0-0.2,0.1-0.4c0-0.3,0.1-0.7,0-1.2c-0.1-1-0.5-2.3-1.4-3.3
		c-0.5-0.5-1-1-1.5-1.4c-0.3-0.2-0.5-0.4-0.7-0.5c-0.2-0.1-0.5-0.2-0.7-0.2c-0.5-0.1-0.9-0.2-1.2-0.4c-0.3-0.1-0.4-0.2-0.4-0.2
		s0.2,0,0.4,0.1c0.3,0.1,0.7,0.1,1.2,0.1c0.3,0,0.6,0,0.9,0.1c0.3,0.1,0.6,0.3,0.9,0.4c0.6,0.3,1.2,0.8,1.8,1.4
		c0.5,0.6,0.9,1.3,1.1,2c0.2,0.7,0.2,1.4,0.1,1.9c-0.1,0.5-0.2,0.9-0.3,1.2C152.1,77.4,152,77.5,152,77.5"/>
	<path clip-path="url(#SVGID_1_)" fill="#231F20" d="M154.2,75.8c0,0-0.1-0.2-0.3-0.4c-0.2-0.3-0.3-0.6-0.5-1
		c-0.1-0.4-0.1-0.8-0.1-1.1c0-0.1,0-0.3,0-0.4c0-0.1,0-0.1,0-0.1s0,0,0.1,0.1c0.1,0,0.2,0.1,0.3,0.2c0.2,0.3,0.5,0.6,0.6,1.1
		c0.1,0.4,0.1,0.9,0,1.2C154.3,75.6,154.2,75.8,154.2,75.8"/>
	<path clip-path="url(#SVGID_1_)" fill="#231F20" d="M148.1,16.9c3.7,0,8.6,1.6,12.4,5.5c3.1,3,3.1,4.8,3.8,6.7
		c0.7,1.8,3.3,16,3,19.5c1.3-1.6,2.5-2.8,3.4-2.8c0.1,0,0.1,0,0.2,0c2.5,0.4,0.3,11.5-1,14.2c-1.2,2.5-3.1,3.3-4.5,3.3
		c-0.1,0-0.2,0-0.3,0c0,0-0.9,3.4-0.9,4.6l6.6,7.2l29.3,13.6l-9.3,41.8h-82.4l-7.2-37.1l33.7-15.5c-0.9-1.7-4.8-8.3-5.6-11
		c-0.9-2.7-1.3-6.7-1.2-9.7c0,0-0.9-0.1-1.3-0.8c-0.3-5.4,0.3-10.3,0.8-13.6c0,0,0,0-0.1,0c-1.7,0-3.1-4.3-2.6-8.5
		c0.4-3.8,5-16.5,14.7-16.5c1.1,0,2.4,0.2,3.7,0.6C144.1,17.5,145.9,16.9,148.1,16.9 M148.1,15.2L148.1,15.2c-2.2,0-4,0.5-5.2,1.4
		c-1.1-0.2-2.1-0.4-3.1-0.4c-11.1,0-16,14-16.4,18c-0.4,3.7,0.5,7.6,2.1,9.3c0.2,0.2,0.3,0.3,0.5,0.4c-0.6,4.4-0.8,8.6-0.6,12.6
		l0,0.4l0.2,0.4c0.3,0.5,0.7,0.8,1.1,1c0,2.8,0.4,6.3,1.3,9c0.7,2.1,2.9,6.1,4.9,9.7l-32,14.8l-1.2,0.6l0.3,1.3l7.2,37.1l0.3,1.3
		h1.4H191h1.3l0.3-1.3l9.3-41.8l0.3-1.4l-1.3-0.6l-29-13.5l-5.9-6.4c0.1-0.6,0.3-1.6,0.5-2.4c2.1-0.4,3.9-1.9,5-4.2
		c1.1-2.3,3.4-11.8,1.7-15.1c-0.4-0.8-1.1-1.4-2-1.5c-0.1,0-0.3,0-0.4,0c-0.5,0-1.1,0.1-2,0.6c-0.6-5.7-2.3-14.7-2.9-16.3
		c-0.1-0.3-0.2-0.7-0.3-1c-0.5-1.6-1.1-3.6-3.9-6.2C157.4,16.7,151.9,15.2,148.1,15.2"/>
	<path clip-path="url(#SVGID_1_)" fill="#231F20" d="M167.4,48.1c0,0,0-0.3,0-0.8c0-0.3,0-0.6,0-1c0-0.4-0.1-0.9-0.2-1.4
		c-0.2-2.1-0.7-5.2-1.4-9.2c-0.4-2-0.8-4.2-1.4-6.5l-0.1-0.4c0-0.1-0.1-0.3-0.1-0.4c-0.1-0.3-0.2-0.6-0.3-0.9
		c-0.2-0.6-0.4-1.2-0.7-1.8c-0.3-0.6-0.6-1.1-1-1.7c-0.2-0.3-0.4-0.5-0.6-0.8c-0.2-0.2-0.5-0.5-0.7-0.8c-1.9-2-4.5-3.8-7.6-4.7
		c-1.5-0.5-3.1-0.8-4.8-0.8c-0.8,0-1.7,0.1-2.5,0.3c-0.8,0.2-1.6,0.6-2,1.2l-0.1,0.2l-0.2-0.1c-1.7-0.5-3.8-0.8-6-0.2
		c-2.2,0.5-4.3,1.9-6,3.8c-1.8,1.9-3.2,4.3-4.3,6.9c-0.5,1.3-1,2.7-1.3,4.1c-0.2,0.7-0.2,1.4-0.2,2.2c0,0.7,0,1.5,0.1,2.2
		c0.1,1,0.3,2,0.7,2.9c0.2,0.4,0.4,0.9,0.7,1.2c0.3,0.4,0.6,0.6,0.9,0.6c-0.1,0.1-0.3,0.2-0.4,0.4c0.2-0.9,0.3-1.8,0.5-2.7l0.1-0.5
		l0.5,0.2c1.6,0.8,3.3,1.4,5.1,1.8c0.9,0.2,1.7,0.3,2.5,0.3c0.4,0,0.8-0.1,1.2-0.2c0.3-0.1,0.6-0.4,0.8-0.6l0.3-0.4l0.3,0.3
		c0.6,0.5,1.4,0.8,2.3,0.9c0.9,0.1,1.7,0,2.6-0.1c1.7-0.3,3.4-0.9,4.9-1.4c1.6-0.6,3.1-1.2,4.5-1.9c0.7-0.3,1.5-0.6,2.2-0.9
		c0.4-0.1,0.7-0.3,1.1-0.4c0.4-0.1,0.8-0.2,1.2-0.2l0.1,0l0.1,0c0.7,0.4,1.1,1.1,1.4,1.7c0.3,0.6,0.5,1.3,0.7,2
		c0.4,1.3,0.5,2.6,0.7,3.8c0.3,2.5,0.3,4.7,0.3,6.7c0,2-0.1,3.7-0.3,5.2c0,0.4-0.1,0.7-0.1,1c0,0.3,0,0.6,0,0.9c0,0.6,0,1.1,0,1.6
		c-0.1-0.1-0.1-0.1-0.1-0.1c0.8-0.1,1.3-0.2,1.6-0.4c0.3-0.2,0.4-0.3,0.5-0.4c0,0,0,0,0,0c0-1.2,0.4-2.2,0.7-3.2
		c0.3-0.9,0.7-1.7,1.1-2.4c0.7-1.4,1.3-2.4,1.8-3.1c0.5-0.7,0.8-1.2,1.1-1.5C167.3,48.2,167.4,48.1,167.4,48.1s-0.1,0.1-0.3,0.4
		c-0.2,0.3-0.6,0.8-1,1.5c-0.5,0.7-1.1,1.8-1.8,3.2c-0.3,0.7-0.7,1.5-1,2.4c-0.3,0.9-0.7,1.9-0.7,3.1v0l0,0
		c-0.2,0.3-0.6,0.7-2.2,0.9l-0.1,0l0-0.1c0-0.5,0-1-0.1-1.6c0-0.3,0-0.6,0-1c0-0.3,0-0.7,0.1-1.1c0.1-1.5,0.2-3.2,0.2-5.2
		c0-2-0.1-4.2-0.4-6.6c-0.1-1.2-0.3-2.5-0.7-3.7c-0.2-0.6-0.4-1.3-0.7-1.8c-0.3-0.6-0.7-1.1-1.2-1.4c0,0,0.1,0,0.1,0
		c-0.6,0-1.4,0.3-2.1,0.5c-0.7,0.3-1.4,0.6-2.2,0.9c-1.5,0.6-3,1.3-4.6,1.9c-1.6,0.6-3.2,1.2-5,1.5c-0.9,0.2-1.8,0.3-2.8,0.2
		c-1-0.1-2-0.4-2.7-1.1c0.2,0,0.4-0.1,0.6-0.1c-0.3,0.5-0.7,0.8-1.2,1c-0.5,0.2-0.9,0.3-1.4,0.3c-0.9,0-1.9-0.1-2.7-0.3
		c-1.8-0.4-3.5-1-5.2-1.8c0.2-0.1,0.4-0.2,0.6-0.3c-0.2,0.9-0.3,1.8-0.5,2.7l-0.1,0.4l-0.3,0c-0.2,0-0.4,0-0.5-0.1
		c-0.1-0.1-0.3-0.1-0.4-0.2c-0.3-0.2-0.5-0.4-0.6-0.6c-0.4-0.5-0.6-0.9-0.8-1.4c-0.4-1-0.6-2.1-0.7-3.1c-0.1-0.8-0.1-1.5-0.1-2.3
		c0-0.8,0.1-1.5,0.2-2.3c0.3-1.5,0.8-2.9,1.4-4.3c1.1-2.7,2.6-5.2,4.5-7.2c1.8-2,4.1-3.4,6.5-4c2.3-0.6,4.6-0.2,6.4,0.3
		c-0.2,0.1-0.3,0.1-0.4,0.1c0.6-0.9,1.6-1.3,2.4-1.5c0.9-0.2,1.8-0.3,2.7-0.3c1.8,0,3.4,0.4,5,0.9c3.1,1,5.8,2.9,7.7,5
		c0.2,0.3,0.5,0.5,0.7,0.8c0.2,0.3,0.4,0.6,0.7,0.8c0.4,0.6,0.8,1.2,1.1,1.8c0.3,0.6,0.5,1.2,0.7,1.9c0.1,0.3,0.2,0.6,0.3,0.9
		c0,0.1,0.1,0.3,0.1,0.4l0.1,0.4c0.6,2.4,1,4.6,1.3,6.6c0.7,4,1.1,7.1,1.3,9.2c0,0.5,0.1,1,0.1,1.4c0,0.4,0,0.7,0,1
		C167.4,47.8,167.4,48.1,167.4,48.1"/>
	<path clip-path="url(#SVGID_1_)" fill="#231F20" d="M147.7,59c0,0,0,0.3,0.3,0.6c0.1,0.1,0.3,0.3,0.5,0.4c0.1,0,0.2,0.1,0.4,0
		c0.1,0,0.3,0,0.4,0c0.3,0,0.6,0,0.8-0.1c0.2-0.1,0.4-0.3,0.5-0.4c0.2-0.3,0.2-0.6,0.2-0.6c0,0,0.1,0.3-0.1,0.7
		c-0.1,0.2-0.2,0.5-0.5,0.6c-0.3,0.2-0.7,0.2-1,0.2c-0.2,0-0.3,0-0.5,0c-0.1,0-0.3-0.1-0.5-0.1c-0.3-0.1-0.5-0.4-0.6-0.6
		C147.6,59.3,147.7,59,147.7,59"/>
	<path clip-path="url(#SVGID_1_)" fill="#231F20" d="M131.3,58.2c0,0,0,0.1,0,0.2c0,0.1,0,0.2,0.1,0.4c0,0.2,0.1,0.3,0.2,0.5
		c0.1,0.1,0.1,0.1,0.2,0.2l0.1,0l0,0l0,0c0,0,0,0,0,0h0h0l0,0l0.2,0c0.3,0.1,0.4,0.1,0.6,0.1c0.2-0.1,0.3-0.2,0.5-0.3
		c0.2-0.2,0.3-0.5,0.3-0.5c0,0,0,0.2-0.2,0.6c-0.1,0.2-0.2,0.4-0.5,0.5c-0.1,0.1-0.3,0.1-0.4,0.1c-0.2,0-0.3,0-0.4-0.1l-0.2-0.1l0,0
		l0,0l0,0l0,0l-0.1,0c-0.1-0.1-0.3-0.2-0.3-0.3c-0.1-0.2-0.2-0.5-0.2-0.7c0-0.2,0.1-0.3,0.1-0.4C131.3,58.3,131.3,58.2,131.3,58.2"
		/>
	<polygon clip-path="url(#SVGID_1_)" fill="#FFFFFF" points="147.6,96.6 147.4,89 148,89 148.2,96.6 	"/>
	<line clip-path="url(#SVGID_1_)" fill="#FFFFFF" x1="136.8" y1="80.8" x2="135.7" y2="87.6"/>
	<polygon clip-path="url(#SVGID_1_)" fill="#231F20" points="148.3,90.9 138.3,88.5 135.3,87.8 136.5,80.7 137.1,80.8 136,87.4 
		138.5,87.9 147,90 145.5,87.7 146,87.4 	"/>
	
		<rect x="147.7" y="90.3" transform="matrix(0.9706 0.2405 -0.2405 0.9706 26.1496 -32.9975)" clip-path="url(#SVGID_1_)" fill="#231F20" width="1.2" height="0.6"/>
	<path clip-path="url(#SVGID_1_)" fill="#FFFFFF" d="M73.6,79.7l0.1-3.1c-0.2-3.8-0.5-10.1-0.5-10.1c-0.7,0.3-3.8-0.8-4.2-2.6
		C68.5,62,68,53,68.9,51l-0.1-0.2c-0.6-2.3-1.5-17.5,3.5-22.1c5.2-4.8,7.6-5.2,18.1-4.3H93c10.6-0.9,12.9-0.5,18.1,4.3
		c5.1,4.7,2.9,20.7,2.2,22.3l0.1,0.8c0.5,1.8,0,10.9-0.6,12.1c-0.6,1.2-1.6,3-3.8,2.7c0.2,1.4-1.2,10.3-1.2,10.3l-0.7,0.9v2.9
		c0,1,0,3.3,0,3.3l-18.5,19.8L73.6,84.1L73.6,79.7z"/>
	<path clip-path="url(#SVGID_1_)" fill="#231F20" d="M113.4,50.9c0.6-1.6,2.9-17.6-2.2-22.3c-5.2-4.8-7.6-5.2-18.1-4.3h-2.5
		c-10.6-0.9-12.9-0.5-18.1,4.3c-5,4.6-4.1,19.8-3.5,22.1L69,51l0,0c0.4-0.8,1.4-2.2,3.4-1.8c0,0.8,0.7,6.4,0.4,8.6h1.8
		c0,0-0.2-4.1-0.2-7.1l1.9-3.8c0,0-1.4-4.4-1.9-6.3c-0.5-1.9,0.5-3.8,0.5-3.8s2-3.9,7.7-4.4c3.4-0.1,6.4,2.2,9.3,1.9h0.1
		c2.9,0.2,5.9-2,9.3-1.9c5.7,0.5,7.7,4.4,7.7,4.4s1.1,1.9,0.5,3.8c-0.5,1.9-1.9,6.3-1.9,6.3l-0.1,0.3l1.9,4l-0.1,6.7h1.3
		c0,0,0.8-7.5,0.8-8.3C111.2,48.7,113.1,49.4,113.4,50.9"/>
	<path clip-path="url(#SVGID_1_)" d="M98.6,23.9c5.2,0,7.5,1.2,11.4,4.7c5.1,4.7,2.9,20.7,2.2,22.3l0.1,0.8c0.5,1.8,0,10.9-0.6,12.1
		c-0.6,1.1-1.5,2.7-3.3,2.7c-0.2,0-0.3,0-0.5,0c0.2,1.4-1.2,10.3-1.2,10.3l-0.7,0.9v2.9h1.6l4.9,5.7c9.4,3.4,29.4,14,29.4,14
		l8.5,26.5h-38.7h-8h-1.6H69.9H66h-8.2H24.6l13.2-29.6l32.7-15.7l1.9-2l0.1-3.1c-0.2-3.8-0.5-10.1-0.5-10.1c-0.1,0-0.2,0.1-0.3,0.1
		c-1,0-3.5-1-3.9-2.7C67.3,62,66.8,53,67.7,51l-0.1-0.2c-0.6-2.3-1.5-17.5,3.5-22.1c3.8-3.5,6.1-4.7,11.3-4.7c1.8,0,4,0.1,6.8,0.4
		h2.5C94.5,24,96.7,23.9,98.6,23.9 M98.6,22.9L98.6,22.9c-1.7,0-3.7,0.1-6.8,0.4h-2.4c-3.1-0.3-5.2-0.4-6.8-0.4c-5.7,0-8.2,1.5-12,5
		c-5.3,4.9-4.5,20.3-3.8,23.1c-0.9,2.8-0.3,11.5,0.1,13.2c0.5,1.9,2.8,3.1,4.2,3.4c0.1,1.9,0.4,6.2,0.5,9.1l-0.1,2.7l-1.5,1.6
		L37.4,96.5l-0.2,0.1l-0.1,0.1l-13.2,29.6l-1.5,1.7h2.2h33.2H66h3.9h32.3h1.6h8h38.7h1.9l-1.1-1.6l-8.5-26.5l-0.1-0.2l-0.2-0.1
		c-0.8-0.4-19.8-10.6-29.3-14l-4.8-5.5l-0.3-0.3h-0.5H107v-1.6l0.5-0.7l0.1-0.2l0-0.2c0.2-1.3,1-6.9,1.2-9.5
		c2.2-0.3,3.2-2.3,3.7-3.2c0.8-1.6,1.2-10.7,0.7-12.7l-0.1-0.6c0.7-2.7,2.8-18.1-2.6-23.1C106.8,24.4,104.3,22.9,98.6,22.9"/>
	<polygon clip-path="url(#SVGID_1_)" fill="#231F20" points="24.6,126.9 37.8,97.3 72.6,80.7 69.9,126.9 	"/>
	<path clip-path="url(#SVGID_1_)" fill="#FFFFFF" d="M72.6,80.7l-2.7,46.2H24.6l13.3-29.6L72.6,80.7z M72.9,80.3l-0.4,0.2L37.7,97.1
		l0,0l0,0l-13.3,29.6l-0.4,0.4h0.6h45.3h0.2l0-0.2l2.7-46.2L72.9,80.3z"/>
	<path clip-path="url(#SVGID_1_)" fill="#231F20" d="M109.2,85.4l-7,41.5h48.4l-8.5-26.5C142,100.4,115.5,86.2,109.2,85.4"/>
	<path clip-path="url(#SVGID_1_)" fill="#FFFFFF" d="M109.2,85.4c6.4,0.8,32.9,15,32.9,15l8.5,26.5h-48.4L109.2,85.4 M109,85.2
		l0,0.2l-7,41.5l-0.1,0.3h0.3h48.4h0.5l-0.3-0.4l-8.5-26.5l0,0l0,0c-1.1-0.6-26.6-14.2-33-15L109,85.2z"/>
	<polygon clip-path="url(#SVGID_1_)" fill="#FFFFFF" points="66,126.9 71.2,91.2 71.7,87.9 72.4,83 80.1,92.9 87.4,102.1 95.6,93.7 
		106.1,83 106.1,88.9 106.1,91.8 103.8,126.9 	"/>
	<polygon clip-path="url(#SVGID_1_)" fill="#231F20" points="69.9,126.9 72.6,79.5 50,103.8 57.8,126.9 	"/>
	<path clip-path="url(#SVGID_1_)" fill="#FFFFFF" d="M72.6,79.5l-2.7,47.5H57.8L50,103.8L72.6,79.5z M72.9,78.8l-0.5,0.5l-22.6,24.4
		l-0.1,0.1l0,0.1l7.8,23.1l0.1,0.2h0.2h12.1h0.2l0-0.2l2.7-47.5L72.9,78.8z"/>
	<polygon clip-path="url(#SVGID_1_)" fill="#231F20" points="106.1,80.7 106.1,91.8 102.2,126.9 111.8,126.9 126.2,102.1 
		107.7,80.7 	"/>
	<path clip-path="url(#SVGID_1_)" fill="#FFFFFF" d="M107.7,80.7l18.5,21.4l-14.4,24.9h-9.7l3.9-35.2V80.7H107.7z M107.8,80.5h-0.1
		h-1.6h-0.2v0.2v11.1l-3.9,35.1l0,0.3h0.3h9.7h0.1l0.1-0.1l14.4-24.9l0.1-0.2l-0.1-0.1L107.8,80.5L107.8,80.5z"/>
	<polygon clip-path="url(#SVGID_1_)" fill="#231F20" points="106.1,91.8 106.1,88.9 91.5,103.2 95.4,103.2 	"/>
	<path clip-path="url(#SVGID_1_)" fill="#231F20" d="M71.2,91.2l0.5-3.3c0.9,1.2,12.2,15.9,12.2,15.9h-4.1L71.2,91.2z"/>
	<path clip-path="url(#SVGID_1_)" fill="#231F20" d="M84.7,103.2c0,0-9.7-4.7-12.1-4.8c-1.2,1.6-1.4,14.4,2.1,18.5
		c1-0.2,10.1-7.2,10.1-7.2c1.6,1,4.5,0.6,5.3,0c0,0,4.1,7,9.9,8.4c1.4-1.4,3.9-16.4,3.7-17.9c-0.2-1.4-10.7,1.9-13.2,3.6
		C90.5,103.8,90,101.3,84.7,103.2"/>
	<path clip-path="url(#SVGID_1_)" fill="#231F20" d="M90,109.7c-0.8,0.6-3.7,1-5.3,0v-6.5c5.3-2,5.8,0.6,5.8,0.6L90,109.7z"/>
	<polygon clip-path="url(#SVGID_1_)" fill="#FFFFFF" points="87.4,102.1 80.1,92.9 77.5,108.2 	"/>
	<path clip-path="url(#SVGID_1_)" fill="#231F20" d="M87.4,102.1c0,0-3.7,2.5-9.7,6.4l-0.5,0.4l0.1-0.7c0.3-1.9,0.7-4.7,1.2-7.8
		c0.5-3,1-5.8,1.4-7.6l0.1-0.7l0.4,0.5C84.8,98.4,87.4,102.1,87.4,102.1s-2.9-3.4-7.5-9c0.1,0,0.3-0.1,0.5-0.1
		c-0.3,1.8-0.7,4.7-1.2,7.7c-0.5,3-1,5.9-1.4,7.7c-0.2-0.1-0.4-0.2-0.4-0.3C83.5,104.3,87.4,102.1,87.4,102.1"/>
	<polygon clip-path="url(#SVGID_1_)" fill="#FFFFFF" points="95.6,93.7 87.4,102.1 96.6,108.2 	"/>
	<path clip-path="url(#SVGID_1_)" fill="#231F20" d="M95.6,93.7c0,0,0.7,5.9,1.3,14.6l0.1,0.7l-0.6-0.4c-0.8-0.5-2.1-1.4-3.4-2.3
		c-2.3-1.5-4.4-3-5.7-3.9l-0.3-0.2l0.3-0.3C92.3,96.8,95.6,93.7,95.6,93.7s-3,3.4-8,8.6c0-0.1,0-0.3,0-0.5c1.4,0.9,3.6,2.3,5.8,3.8
		c1.3,0.9,2.6,1.8,3.4,2.3c-0.2,0.1-0.4,0.3-0.5,0.3C95.7,99.6,95.6,93.7,95.6,93.7"/>
	<path clip-path="url(#SVGID_1_)" fill="#231F20" d="M72.5,76.6c0,0,0.2,1.1,0.3,2.9c0,0,0,0,0,0c0,1,0,2.5-0.1,4
		c-0.2,3.8-0.8,6.9-0.8,6.9s-0.2-3.1,0-6.9c0.1-1.6,0.2-3,0.4-4v0v0C72.4,77.7,72.5,76.6,72.5,76.6"/>
	<path clip-path="url(#SVGID_1_)" fill="#231F20" d="M106.1,91.8c0,0-0.4-3.1-0.4-7c0-3.9,0.4-7,0.4-7s0.4,3.1,0.4,7
		C106.5,88.7,106.1,91.8,106.1,91.8"/>
	<path clip-path="url(#SVGID_1_)" fill="#231F20" d="M108.5,59.7c0,0-0.2,2.1-0.5,6.8v0c0,2.2-0.5,5.9-1,10.4l0,0.1l0,0
		c-0.1,0.1-0.4,0.5-0.7,0.9l0,0l0,0c-2.7,3.2-6.9,8.1-11.6,13.5l-0.1,0.1h-0.2c-1,0-2.7,0-4.5,0c-1.3,0-2.6,0-3.8,0H86l-0.1-0.1
		c-1.3-1.5-2.5-3-3.7-4.4c-0.6-0.7-1.2-1.4-1.8-2.1c-0.3-0.3-0.6-0.7-0.9-1c-0.3-0.3-0.6-0.6-0.9-0.9c-2.4-2.4-4.6-4.4-6.3-6.3
		l0-0.1l0-0.1c-0.2-5.3-0.4-9.5-0.5-12.4c0-1.4,0-2.6,0.1-3.3c0-0.4,0.1-0.7,0.1-0.8c0-0.2,0-0.3,0-0.3s0,0.1,0,0.3
		c0,0.2-0.1,0.5-0.1,0.9c-0.1,0.7,0,1.9,0.1,3.3c0.2,2.9,0.5,7.1,0.8,12.4c0,0,0-0.1,0-0.1c1.7,1.8,4,3.8,6.4,6.2
		c0.3,0.3,0.6,0.6,0.9,0.9c0.3,0.3,0.6,0.7,0.9,1c0.6,0.7,1.2,1.4,1.8,2.1c1.2,1.4,2.5,2.9,3.8,4.4c-0.1,0-0.2-0.1-0.3-0.1
		c1.1,0,2.4,0,3.8,0c1.7,0,3.5,0,4.5,0c-0.1,0.1-0.2,0.1-0.3,0.1c4.7-5.4,9-10.2,11.8-13.3c0,0,0,0,0,0c0.3-0.4,0.6-0.8,0.7-0.9
		c0,0,0,0.1,0,0.1c0.7-4.5,1.2-8.1,1.3-10.3v0C108.3,61.9,108.5,59.7,108.5,59.7"/>
	<path clip-path="url(#SVGID_1_)" fill="#231F20" d="M88.2,67.5c0,0-0.2-4-0.3-9.9c0,0,0.1,0.2,0.1,0.3c-0.6-0.5-1.7-1.3-2.7-2.1
		c-1.5-1.1-2.8-2.2-4.1-3.1c-0.6-0.5-1.2-0.9-1.8-1.3c-0.3-0.2-0.6-0.4-0.8-0.5c-0.1,0-0.1-0.1-0.2-0.1l-0.1,0l-0.1,0c0.1,0,0,0,0,0
		c0,0-0.2,0.1-0.3,0.2c-0.9,0.8-1.5,1.6-1.9,2.1c-0.4,0.5-0.7,0.8-0.7,0.8s0.2-0.3,0.6-0.9c0.4-0.6,0.9-1.4,1.8-2.3
		c0.1-0.1,0.2-0.2,0.5-0.3c0,0,0,0,0.1,0l0.1,0l0.1,0c0.1,0,0.2,0,0.2,0.1c0.4,0.1,0.7,0.3,1,0.5c0.6,0.4,1.3,0.8,1.9,1.2
		c1.3,0.9,2.8,1.9,4.2,3c1.1,0.8,2.1,1.6,2.7,2.1l0.1,0.1l0,0.2C88.4,63.6,88.2,67.5,88.2,67.5"/>
	<path clip-path="url(#SVGID_1_)" fill="#FFFFFF" d="M94.1,80.7c1.7-1.6,1.7-5.8,1.7-7H85.3c-0.2,1.7,0,4.7,1.6,7H94.1z"/>
	<path clip-path="url(#SVGID_1_)" fill="#231F20" d="M88.2,70.4c0,0,0.1,0.1,0.4,0.2c0.1,0.1,0.3,0.1,0.4,0.2
		c0.2,0.1,0.4,0.1,0.6,0.1c0.5,0.1,1.1,0.1,1.7-0.1c0.6-0.2,1.3-0.7,1.6-1.4c0,0,0,0,0,0.1c-0.1-2.7-0.2-6.6-0.2-10.8v-0.9v-0.2
		l0.2-0.1c4.4-2.6,8.2-4.7,10.2-5.8l0.1-0.1l0.1,0.1c1.6,2.2,2.3,3.2,2.3,3.2s-0.8-0.9-2.6-3c0,0,0.1,0,0.2,0
		c-1.9,1.2-5.6,3.6-10,6.2c0.1-0.1,0.1-0.2,0.2-0.3v0.9c0,4.2-0.1,8.1-0.2,10.8v0l0,0c-0.4,0.9-1.2,1.3-1.9,1.6
		c-0.7,0.2-1.3,0.2-1.8,0c-0.2-0.1-0.5-0.1-0.6-0.2c-0.2-0.1-0.3-0.2-0.4-0.2C88.3,70.5,88.2,70.4,88.2,70.4"/>
	<path clip-path="url(#SVGID_1_)" fill="#231F20" d="M87.3,70c0,0,0,0-0.1,0.1c-0.1,0.1-0.2,0.2-0.4,0.3c-0.2,0.1-0.5,0.2-0.8,0.2
		c-0.4,0-0.7-0.4-0.8-0.8c-0.2-0.8,0-1.3,0.2-1.7c0.2-0.4,0.3-0.6,0.3-0.6c0,0-0.1,1.1,0.2,2.1c0.1,0.2,0.2,0.3,0.3,0.4
		c0.2,0.1,0.4,0.1,0.6,0.1c0.2,0,0.4,0,0.5-0.1C87.2,70,87.3,70,87.3,70"/>
	<path clip-path="url(#SVGID_1_)" fill="#231F20" d="M87,80.7l-6.2-7h4.5C85.1,75.5,85.3,78.4,87,80.7"/>
	<path clip-path="url(#SVGID_1_)" fill="#231F20" d="M95.8,73.7h3.9l-5.6,7C95.8,79.1,95.8,74.9,95.8,73.7"/>
	<path clip-path="url(#SVGID_1_)" fill="#231F20" d="M93.1,69.4c0,0,0.1,0,0.2,0.1c0.1,0.1,0.3,0.2,0.6,0.2c0.2,0.1,0.5,0.1,0.7,0.1
		c0.1,0,0.2-0.3,0.1-0.7c0-0.7-0.2-1.4-0.4-1.8c-0.1-0.2-0.2-0.4-0.2-0.6C94,66.6,94,66.5,94,66.5s0.1,0.1,0.2,0.1
		c0.1,0.1,0.3,0.2,0.5,0.4c0.4,0.4,0.8,1.1,0.8,2c0,0.2,0,0.5-0.1,0.7c-0.1,0.2-0.3,0.5-0.6,0.6c-0.1,0.1-0.3,0-0.4,0
		c-0.1,0-0.2,0-0.3-0.1c-0.2-0.1-0.3-0.2-0.4-0.3c-0.2-0.2-0.4-0.3-0.5-0.5C93.2,69.5,93.1,69.4,93.1,69.4"/>
	<path clip-path="url(#SVGID_1_)" fill="#231F20" d="M80.8,73.7c0,0,2.2,2.4,6.3,6.8c0,0-0.1,0-0.2-0.1c1.5,0,4.2-0.1,7.1-0.1
		c0,0-0.2,0.1-0.3,0.1c0.8-1,2.2-2.7,3.5-4.5c0.8-1,1.6-2,2-2.5c0.1,0.3,0.2,0.4,0.3,0.6C88.8,74,80.8,73.7,80.8,73.7
		s8-0.3,18.9-0.4l0.7,0l-0.5,0.6c-0.5,0.6-1.2,1.5-2,2.5c-1.4,1.7-2.8,3.4-3.6,4.4L94.3,81l-0.2,0c-2.9,0-5.6-0.1-7.1-0.1l-0.1,0
		l-0.1-0.1C82.9,76.2,80.8,73.7,80.8,73.7"/>
	<path clip-path="url(#SVGID_1_)" fill="#231F20" d="M101.8,75.5c0,0,0-0.3-0.1-0.7c-0.1-0.4-0.2-0.9-0.4-1.5
		c-0.1-0.6-0.2-1.2-0.3-1.5c-0.1-0.4-0.2-0.7-0.2-0.7c0,0,0.3,0.1,0.5,0.5c0.3,0.4,0.6,0.9,0.7,1.6c0.1,0.7,0.1,1.3,0,1.7
		C101.9,75.2,101.8,75.5,101.8,75.5"/>
	<path clip-path="url(#SVGID_1_)" fill="#231F20" d="M78.5,77.2c0,0-0.3-0.3-0.6-0.7c-0.2-0.3-0.3-0.6-0.5-1
		c-0.1-0.4-0.2-0.8-0.2-1.3c0-1,0.3-1.8,0.7-2.3c0.2-0.3,0.3-0.5,0.5-0.6c0.1-0.1,0.2-0.2,0.2-0.2s0,0.1-0.1,0.2
		c-0.1,0.2-0.2,0.4-0.2,0.7c-0.1,0.5-0.3,1.3-0.3,2.2c0,0.4,0,0.8,0.1,1.2c0.1,0.3,0.1,0.7,0.2,1C78.4,76.8,78.5,77.2,78.5,77.2"/>
	<path clip-path="url(#SVGID_1_)" fill="#231F20" d="M101.8,58.5c-0.4-0.2-3.8,0-4.4,0c-0.1,1.3,0.3,2.9,2.2,2.9
		C101.5,61.4,101.8,59.4,101.8,58.5"/>
	<path clip-path="url(#SVGID_1_)" fill="#231F20" d="M80.4,58.5c0.4-0.2,3.8,0,4.4,0c0.1,1.3-0.3,2.9-2.2,2.9
		C80.8,61.4,80.4,59.4,80.4,58.5"/>
	<path clip-path="url(#SVGID_1_)" fill="#231F20" d="M103.3,60.8c0,0,0-0.2,0-0.5c0-0.1,0-0.3-0.1-0.5c-0.1-0.1-0.3-0.3-0.5-0.4
		c-0.4-0.3-0.9-0.7-1.5-1.1c-0.2-0.1-0.5-0.1-0.9-0.1c-0.4,0-0.8,0-1.2,0c-0.4,0-0.9,0-1.3,0c-0.2,0-0.4,0-0.6,0c-0.1,0-0.2,0-0.3,0
		c-0.1,0-0.1,0-0.2,0c-0.6,0.3-1.1,0.7-1.5,1c0-0.1,0-0.1,0-0.1c-0.1,1.1-0.2,1.6-0.2,1.6s-0.1-0.6-0.2-1.6l0-0.1L95,59
		c0.4-0.4,0.8-0.9,1.5-1.3c0.1-0.1,0.2-0.1,0.4-0.1c0.1,0,0.2,0,0.3,0c0.2,0,0.4,0,0.6,0c0.4,0,0.8,0,1.3-0.1c0.4,0,0.8,0,1.2,0
		c0.2,0,0.4,0,0.6,0c0.2,0,0.5,0.1,0.7,0.2c0.6,0.4,1,1,1.4,1.4c0.2,0.2,0.3,0.4,0.5,0.6c0,0.2,0,0.4,0,0.6
		C103.4,60.6,103.3,60.8,103.3,60.8"/>
	<path clip-path="url(#SVGID_1_)" fill="#231F20" d="M101.3,57.9c0,0,0,0.2,0,0.5c0,0.3,0,0.8-0.3,1.4c-0.1,0.1-0.2,0.3-0.2,0.4
		c-0.1,0.1-0.2,0.3-0.4,0.4c-0.3,0.2-0.8,0.4-1.1,0.5c-0.1,0-0.1,0-0.3,0l-0.3,0c-0.2,0-0.4-0.1-0.7-0.2c-0.5-0.2-0.9-0.5-1.1-1
		c-0.4-0.8-0.4-1.6-0.3-2.1l0-0.3h0.3C99.5,57.5,101.3,57.8,101.3,57.9c0-0.1-1.7,0.1-4.4,0.3c0.1-0.1,0.2-0.2,0.3-0.3
		c0,0.4,0,1.1,0.3,1.7c0.3,0.7,1.1,0.9,1.7,0.9c0.4,0,0.6-0.1,0.9-0.3c0.1-0.1,0.2-0.2,0.3-0.3c0.1-0.1,0.2-0.2,0.3-0.3
		c0.3-0.5,0.4-0.9,0.5-1.2C101.3,58.1,101.3,57.9,101.3,57.9"/>
	<path clip-path="url(#SVGID_1_)" fill="#231F20" d="M77.9,60.8c0,0,0-0.2-0.1-0.5c0-0.2,0-0.4,0-0.6c0.1-0.2,0.3-0.4,0.5-0.6
		c0.4-0.4,0.8-0.9,1.4-1.4c0.2-0.2,0.5-0.2,0.7-0.2c0.2,0,0.4,0,0.6,0c0.4,0,0.8,0,1.2,0c0.4,0,0.9,0,1.3,0.1c0.2,0,0.4,0,0.6,0
		c0.1,0,0.2,0,0.3,0c0.1,0,0.3,0.1,0.4,0.1c0.7,0.4,1.1,0.9,1.5,1.3l0.1,0.1l0,0.1c-0.1,1.1-0.2,1.6-0.2,1.6s-0.1-0.6-0.2-1.6
		c0,0,0,0.1,0,0.1c-0.4-0.3-0.9-0.7-1.5-1c-0.1,0-0.1,0-0.2,0c-0.1,0-0.2,0-0.3,0c-0.2,0-0.4,0-0.6,0c-0.4,0-0.8,0-1.3,0
		c-0.4,0-0.8,0-1.2,0c-0.4,0-0.8,0-0.9,0.1c-0.6,0.4-1,0.8-1.5,1.1c-0.2,0.2-0.4,0.3-0.5,0.4c-0.1,0.2-0.1,0.4-0.1,0.5
		C77.9,60.6,77.9,60.8,77.9,60.8"/>
	<path clip-path="url(#SVGID_1_)" fill="#231F20" d="M79.9,57.9c0,0,0,0.2,0.1,0.5c0.1,0.3,0.2,0.7,0.5,1.2c0.1,0.1,0.2,0.2,0.3,0.3
		c0.1,0.1,0.2,0.2,0.3,0.3c0.2,0.1,0.5,0.2,0.9,0.3c0.6,0,1.4-0.2,1.7-0.9c0.3-0.6,0.3-1.2,0.3-1.7c0.2,0.1,0.2,0.2,0.3,0.3
		C81.6,58,79.9,57.8,79.9,57.9c0-0.1,1.8-0.3,4.4-0.3h0.3l0,0.3c0,0.5,0.1,1.3-0.3,2.1c-0.2,0.4-0.6,0.8-1.1,1
		c-0.2,0.1-0.4,0.2-0.7,0.2l-0.3,0c-0.2,0-0.2,0-0.3,0c-0.3,0-0.8-0.2-1.1-0.5c-0.1-0.1-0.3-0.3-0.4-0.4c-0.1-0.1-0.2-0.3-0.2-0.4
		c-0.2-0.6-0.3-1-0.3-1.4C79.9,58.1,79.9,57.9,79.9,57.9"/>
	<path clip-path="url(#SVGID_1_)" fill="#231F20" d="M109.9,28.6c0,0,0.1,0.1,0.2,0.2c0.2,0.2,0.4,0.4,0.7,0.8
		c0.5,0.8,1.2,2,1.7,3.9c0.5,1.8,0.8,4.2,0.8,7.2c0,1.5,0,3.1-0.2,4.8c-0.1,0.9-0.2,1.8-0.3,2.7c-0.1,0.9-0.2,1.9-0.6,2.9l-0.2,0.6
		L112,51c-0.1-0.4-0.4-1-1-1.4c-0.2-0.1-0.3-0.2-0.5-0.2c-0.2,0-0.3,0-0.3,0.1c0,0.4-0.1,0.9-0.1,1.4c-0.2,2-0.4,4.4-0.7,6.9l0,0.2
		l-0.2,0c-0.2,0-0.8,0-1.3,0l-0.2,0l0-0.2c0-1.1,0-3.8,0.1-6.7c0,0,0,0.1,0,0.1c-0.3-0.7-1.1-2.3-1.9-4l-0.1-0.1l0.1-0.1
		c0,0,0.1-0.2,0.1-0.3c0,0,0,0,0,0c0.5-1.7,1.1-3.6,1.7-5.6c0.8-2,0-4.4-1.8-6c-0.9-0.8-2-1.4-3.2-1.9c-0.6-0.2-1.2-0.4-1.9-0.4
		c-0.7-0.1-1.3-0.1-1.9,0c-1.3,0.2-2.6,0.6-4,1c-1.3,0.4-2.8,0.9-4.3,0.8h0.1c-0.2,0-0.6,0-0.9,0c-1.4-0.1-2.6-0.6-3.8-1
		c-1.2-0.4-2.4-0.8-3.6-0.9c-0.3,0-0.6,0-0.9,0c-0.3,0-0.6,0.1-0.9,0.1c-0.6,0.1-1.2,0.2-1.8,0.4c-1.1,0.4-2.2,0.9-3.1,1.7
		c-0.9,0.7-1.7,1.6-2,2.6c-0.4,1-0.5,2.1-0.2,3.1c0.6,2.1,1.3,4.2,1.9,6.1l0,0.1L75.2,47c-0.7,1.5-1.3,2.7-1.9,3.8
		c0-0.1,0-0.1,0-0.1c0.1,2.8,0.1,5,0.2,7.1l0,0.3l-0.3,0c-0.7,0-1.3,0-1.8,0l-0.3,0l0-0.3c0.2-1.7,0-3.2,0-4.6
		c-0.1-1.4-0.2-2.7-0.3-3.9c0.1,0.1,0.1,0.2,0.2,0.2c-0.8-0.2-1.5-0.1-2.1,0.3c-0.5,0.3-0.9,0.8-1.1,1.3l-0.2,0.4L67.6,51
		c-0.3-1-0.3-1.8-0.4-2.7c-0.1-0.9-0.1-1.7-0.1-2.5c0-1.6,0-3.2,0.1-4.6c0.2-2.9,0.6-5.3,1.1-7.2c0.5-1.9,1.2-3.4,1.9-4.2
		c0.3-0.4,0.6-0.7,0.8-0.9c0.2-0.2,0.3-0.3,0.3-0.3s-0.1,0.1-0.3,0.3c-0.2,0.2-0.4,0.5-0.7,0.9c-0.6,0.9-1.3,2.3-1.8,4.2
		c-0.5,1.9-0.9,4.4-1,7.2c-0.1,1.4-0.1,2.9,0,4.6c0,0.8,0.1,1.6,0.2,2.5c0.1,0.8,0.1,1.8,0.4,2.5c-0.1,0-0.2,0-0.3,0
		c0.3-0.6,0.6-1.1,1.2-1.5c0.6-0.4,1.5-0.6,2.4-0.4l0.2,0l0,0.2c0.1,1.2,0.2,2.5,0.3,3.9c0.1,1.4,0.3,2.9,0.1,4.8
		c-0.1-0.1-0.1-0.2-0.3-0.3c0.5,0,1,0,1.8,0c-0.1,0.1-0.2,0.2-0.3,0.3c-0.1-2.1-0.2-4.3-0.3-7.1l0-0.1l0-0.1
		c0.6-1.1,1.1-2.3,1.8-3.8c0,0.1,0,0.1,0,0.2c-0.6-1.9-1.3-4-1.9-6.1c-0.4-1.2-0.2-2.4,0.2-3.6c0.4-1.2,1.3-2.1,2.2-2.9
		c1-0.8,2.1-1.4,3.3-1.8c0.6-0.2,1.2-0.3,1.9-0.4c0.3,0,0.6-0.1,1-0.1c0.3,0,0.7,0,1,0c2.6,0.2,5,1.6,7.4,1.9c0.3,0,0.6,0,0.8,0l0,0
		l0,0c1.3,0.1,2.7-0.4,4-0.8c1.3-0.4,2.7-0.9,4.1-1.1c0.7-0.1,1.4-0.1,2.1,0c0.7,0.1,1.4,0.3,2,0.5c1.3,0.4,2.5,1.1,3.4,2
		c2,1.7,2.9,4.6,2,6.7c-0.6,2.1-1.2,4-1.8,5.6l0,0l0,0c-0.1,0.1-0.1,0.2-0.1,0.3V47c0.8,1.7,1.6,3.3,1.9,4l0,0.1l0,0.1
		c-0.1,2.8-0.1,5.6-0.2,6.7c-0.1-0.1-0.2-0.2-0.2-0.2c0.6,0,1.2,0,1.3,0c-0.1,0.1-0.2,0.2-0.2,0.2c0.3-2.5,0.5-4.9,0.7-6.9
		c0-0.5,0.1-1,0.1-1.4c0-0.2,0.2-0.4,0.3-0.4c0.2,0,0.3,0,0.4,0c0.2,0,0.4,0.1,0.6,0.3c0.7,0.4,1.1,1.1,1.1,1.7c-0.1,0-0.3,0-0.3,0
		c0.3-0.9,0.4-1.9,0.6-2.8c0.1-0.9,0.2-1.8,0.3-2.7c0.2-1.7,0.2-3.3,0.2-4.8c0-2.9-0.3-5.3-0.7-7.2c-0.4-1.8-1.1-3.1-1.6-3.9
		c-0.3-0.4-0.5-0.6-0.6-0.8C110,28.7,109.9,28.6,109.9,28.6"/>
	<path clip-path="url(#SVGID_1_)" fill="#231F20" d="M107.9,66.5c0,0,0.2,0,0.7,0c0.4-0.1,1.1-0.3,1.6-0.8c0.1-0.1,0.3-0.3,0.4-0.5
		c0.1-0.2,0.2-0.4,0.4-0.6c0.2-0.4,0.5-0.9,0.6-1.3c0.2-1,0.3-2.2,0.4-3.4c0.2-2.5,0.3-4.7,0.3-6.3c0-0.8,0-1.5,0-1.9
		c0-0.5,0-0.7,0-0.7s0.1,0.2,0.2,0.7c0.1,0.4,0.2,1.1,0.3,1.9c0.2,1.6,0.2,3.9,0,6.4c-0.1,1.2-0.2,2.4-0.5,3.5
		c-0.1,0.6-0.5,1-0.7,1.4c-0.1,0.2-0.3,0.4-0.4,0.6c-0.2,0.2-0.3,0.3-0.5,0.5c-0.7,0.6-1.4,0.7-1.8,0.7
		C108.1,66.5,107.9,66.5,107.9,66.5"/>
	<path clip-path="url(#SVGID_1_)" fill="#231F20" d="M67.7,50.9c0,0,0,0.1,0,0.2c0,0.1-0.1,0.3-0.1,0.5c-0.1,0.5-0.1,1.1-0.1,1.9
		c0,1.6,0.1,3.9,0.2,6.4c0.1,1.2,0.1,2.5,0.3,3.5c0.1,1,0.9,1.7,1.5,2.1c1.4,0.9,2.5,0.9,2.4,0.8c0,0.1-1.1,0.3-2.6-0.5
		c-0.4-0.2-0.8-0.5-1.1-0.8c-0.4-0.3-0.7-0.9-0.8-1.5c-0.2-1.1-0.3-2.3-0.4-3.6c-0.1-2.5-0.1-4.9,0.1-6.5c0.1-0.8,0.2-1.5,0.4-1.9
		c0.1-0.2,0.1-0.4,0.2-0.5C67.7,51,67.7,50.9,67.7,50.9"/>
	<path clip-path="url(#SVGID_1_)" fill="#231F20" d="M106.1,83c0,0-2.1,2.7-5,5.6c-2.9,3-5.5,5.1-5.5,5.1s2.1-2.7,5-5.6
		C103.5,85.1,106.1,83,106.1,83"/>
	<path clip-path="url(#SVGID_1_)" fill="#231F20" d="M80.1,92.9c0,0-2-2-4.2-4.7c-2.1-2.7-3.6-5.2-3.6-5.2s2,2,4.2,4.7
		C78.7,90.4,80.1,92.9,80.1,92.9"/>
	
		<rect x="90.1" y="103.8" transform="matrix(0.9975 7.078970e-02 -7.078970e-02 0.9975 7.7832 -6.1215)" clip-path="url(#SVGID_1_)" fill="#FFFFFF" width="0.2" height="5.9"/>
	<rect x="84.6" y="103.2" clip-path="url(#SVGID_1_)" fill="#FFFFFF" width="0.2" height="6.5"/>
	<path clip-path="url(#SVGID_1_)" fill="#231F20" d="M88.2,57.7c0,0-0.8-0.4-2.2-1.2c-1.3-0.8-3.1-1.9-4.9-3.2
		c-0.9-0.6-1.8-1.3-2.6-1.8l-0.2-0.1l-0.2-0.1l-0.1,0l0,0l0,0h0c0,0,0.2,0,0.1,0l0,0h0c0,0,0.1,0,0.1,0l0,0c0,0,0,0-0.1,0
		c-0.1,0-0.2,0.1-0.2,0.2c-0.3,0.3-0.6,0.5-0.9,0.8c-1.1,1-1.8,1.7-1.8,1.7s0.4-0.9,1.2-2.2c0.2-0.3,0.4-0.7,0.7-1.1
		c0.1-0.1,0.2-0.2,0.3-0.3c0,0,0.1-0.1,0.2-0.2l0.1-0.1c0.1,0,0.2-0.1,0.3-0.1l0.1,0l0,0l0.1,0l0,0l0.1,0l0.2,0
		c0.1,0,0.3,0.1,0.5,0.2c1.1,0.5,1.9,1,2.9,1.7c1.9,1.3,3.5,2.8,4.5,3.8C87.6,57,88.2,57.7,88.2,57.7"/>
	<path clip-path="url(#SVGID_1_)" fill="#231F20" d="M93.1,57.7c0,0,2.6-2.4,6.4-4.6c1.3-0.8,2.6-1.4,3.5-1.8l0.5-0.2l0.2,0.3
		c1.4,2.1,2,3.4,2,3.4s-1.2-1-2.9-2.8c0.2,0,0.4,0.1,0.7,0.1c-0.8,0.6-1.9,1.4-3.2,2.2C96.5,56.5,93.1,57.7,93.1,57.7"/>
</g>
</svg>
