<svg xmlns="http://www.w3.org/2000/svg" xmlns:xlink="http://www.w3.org/1999/xlink" viewBox="0 0 177.2 130.2" enable-background="new 0 0 177.2 130.2"><rect x="2.8" y="3.1" fill="#D8505C" width="174.4" height="127.1"/><defs><polygon id="a" points="-646.2,-332.4 217.8,-330.4 238.4,825.3 -668.8,823.2"/></defs><clipPath id="b"><use xlink:href="#a" overflow="visible"/></clipPath><path clip-path="url(#b)" fill="#231F20" d="M159.2 63.6c0 1.2-1 2.1-2.1 2.1-1.2 0-2.1-1-2.1-2.1v-.7h-4.4l-.4.4c2 2.5 3.3 5.7 3.3 9.2 0 8-6.5 14.5-14.5 14.5s-14.5-6.5-14.5-14.5c0-3.3 1.1-6.3 2.9-8.7l-.9-.9s-2.9 0-7.6-.1v.8c0 1.2-1 2.1-2.1 2.1-1.2 0-2.1-1-2.1-2.1v-.8c-3.6 0-7.8-.1-12.5-.1v1c0 1.2-.4 2.1-.8 2.1s-.8-1-.8-2.1v-1c-18.5-.2-42.8-.5-59.3-.8v17.8h-4.5l-1.3-8.5h-4.5l-1.6 8.5h-7.9v-21h.1l-.1-.8c0-1.3.5-2.6 1.5-3h77.7v-1.2c0-1.2.4-2.1.8-2.1s.8 1 .8 2.1v1.2h12.5v-1.2c0-1.2 1-2.1 2.1-2.1 1.2 0 2.1 1 2.1 2.1v1.2h7.6l1.1-1.2c-1.9-2.5-3.1-5.6-3.1-8.9 0-8 6.5-14.5 14.5-14.5s14.5 6.5 14.5 14.5c0 3.5-1.2 6.6-3.2 9.1l1 1h3.8v-1.2c0-1.2 1-2.1 2.1-2.1 1.2 0 2.1 1 2.1 2.1v9.9m-16.4-5c1.9.5 3.6 1.5 5.1 2.7l2.4-2.5-2.7-2.6c-1.5 1-3 1.9-4.8 2.4m-15.7 13.5c0 6.3 5.1 11.3 11.3 11.3 6.3 0 11.3-5.1 11.3-11.3 0-2.4-.8-4.6-2.1-6.5l-9 9.3-9.6-9.3c-1.1 1.9-1.9 4.1-1.9 6.5m0-27.7c0 2.6.9 5 2.4 6.9l8.7-9 9.3 8.9c1.5-1.9 2.4-4.3 2.4-6.8 0-6.3-5.1-11.3-11.3-11.3-6.4 0-11.5 5.1-11.5 11.3m4.1 19l7.5 7.3 7-7.2c-2-1.7-4.5-2.7-7.3-2.7-2.7 0-5.2 1-7.2 2.6m.8-9.6c1.8 1.3 4 2 6.4 2 2.4 0 4.7-.8 6.5-2.1l-6.7-6.4-6.2 6.5m-5.2 5.4l2.4 2.3c1.6-1.3 3.4-2.4 5.4-3-1.8-.5-3.4-1.4-4.8-2.5l-.1.1-2.9 3.1m33.8 4.4v-10.1c0-2.1-1.7-3.7-3.7-3.7-1.9 0-3.5 1.5-3.7 3.3h-.8c1.6-2.5 2.4-5.5 2.4-8.5 0-8.9-7.2-16.1-16.1-16.1-8.9 0-16.1 7.2-16.1 16.1 0 3 .8 5.9 2.4 8.5h-4.9c-.2-1.9-1.8-3.3-3.7-3.3-1.9 0-3.5 1.5-3.7 3.3h-9.3c-.1-2-1-3.3-2.4-3.3s-2.3 1.3-2.4 3.3h-76.3l-.3.1c-1.5.7-2.4 2.3-2.4 4.5v23.3h10.8l.2-1.3 1.4-7.2h1.8l1.1 7.2.2 1.4h7.5v-17.700000000000003c12.9.2 31.8.5 56.2.8.2 1.9 1 3.1 2.4 3.1 1.3 0 2.2-1.2 2.4-3.1l9.4.1c.3 1.7 1.8 3 3.7 3 1.8 0 3.3-1.3 3.6-2.9h4.7c-1.4 2.4-2.1 5.2-2.1 8 0 8.9 7.2 16.1 16.1 16.1 8.9 0 16.1-7.2 16.1-16.1 0-2.8-.7-5.6-2.1-8h.6c.4 1.6 1.9 2.9 3.6 2.9 1.7 0 3.4-1.6 3.4-3.7m-13.2 4.7c.5 1.2.8 2.5.8 3.8 0 5.4-4.4 9.7-9.7 9.7-5.4 0-9.7-4.4-9.7-9.7 0-1.3.3-2.6.8-3.9l8.1 7.8 1.2 1.1 1.1-1.1 7.4-7.7zm-18.7-23.9c0-5.4 4.4-9.7 9.7-9.7 5.4 0 9.7 4.4 9.7 9.7 0 1.5-.4 3-1.1 4.3l-7.9-7.6-1.2-1.1-1.1 1.1-7.3 7.5c-.4-1.2-.8-2.7-.8-4.2m18.7 13.8l.6.6-.3.3c-.3-.2-.6-.4-.9-.5l.6-.4m-13.7 5.4c1.5-.8 3.1-1.3 4.7-1.3 1.7 0 3.3.5 4.8 1.3l-4.6 4.7-4.9-4.7zm4.7-14.1l4 3.8c-1.2.5-2.5.8-3.9.8-1.3 0-2.6-.3-3.8-.8l3.7-3.8zm-8.4 8.7l.6.4c-.4.3-.9.5-1.3.9l-.3-.3 1-1z"/><path clip-path="url(#b)" fill="#CCC9C7" d="M153.4 44.7c0-8-6.5-14.5-14.5-14.5s-14.5 6.5-14.5 14.5 6.5 14.5 14.5 14.5c8.1 0 14.5-6.5 14.5-14.5m-26.1-.3c0-6.3 5.1-11.3 11.3-11.3 6.3 0 11.3 5.1 11.3 11.3 0 6.3-5.1 11.3-11.3 11.3-6.2.1-11.3-5-11.3-11.3"/><path clip-path="url(#b)" fill="#CCC9C7" d="M153.4 72.5c0-8-6.5-14.5-14.5-14.5s-14.5 6.5-14.5 14.5 6.5 14.5 14.5 14.5c8.1 0 14.5-6.5 14.5-14.5m-26.1-.4c0-6.3 5.1-11.3 11.3-11.3 6.3 0 11.3 5.1 11.3 11.3 0 6.3-5.1 11.3-11.3 11.3-6.2 0-11.3-5-11.3-11.3"/><path clip-path="url(#b)" fill="#CCC9C7" d="M126.4 62.9l-4.1-3.9 4.1-4.2h-103.6c-2.1.9-1.9 5.5 0 6.4 1.8.8 103.6 1.7 103.6 1.7"/><path clip-path="url(#b)" fill="#CCC9C7" d="M155 58.4l-16.6-16-12 12.4-4.1 4.2 4.1 3.9 12.5 12.1 16.1-16.6zm-25 3.6l-2.9-2.8 2.9-3 8.6-8.9 11.9 11.5-11.5 11.9-9-8.7z"/><polygon clip-path="url(#b)" fill="#CCC9C7" points="21.3,79.6 21.3,58.6 41.1,58.6 41.1,79.6 36.6,79.6 35.3,71.1 30.7,71.1 29.1,79.6"/><path clip-path="url(#b)" fill="#231F20" d="M21.3 79.6s2.3-.1 7.9-.2l-.2.2c.3-1.6.8-4.7 1.4-8.6v-.3h.3c.7 0 2.5-.1 4.5-.1h.4l.1.4c.3 1.6.9 4.9 1.5 8.5-.1-.1-.4-.3-.6-.5.8 0 2.6 0 4.5-.1l-.7.7c0-3.2-.1-8.4-.1-13.8v-7.2l.8.8c-7.9 0-14.8-.1-19.9-.3l.5-.5c-.2 13.2-.4 21-.4 21s-.3-7.8-.5-21v-.5h.5c5.1-.1 12-.2 19.9-.3h.8v8c0 5.4-.1 10.6-.1 13.8v.7h-.7c-1.9 0-3.7-.1-4.5-.1h-.6l-.1-.5c-.5-3.6-1-6.9-1.2-8.5.2.2.4.4.5.4-2 0-3.8-.1-4.5-.1l.4-.3c-.8 3.8-1.5 6.9-1.8 8.5v.2h-.2c-5.7-.3-7.9-.3-7.9-.3"/><polygon clip-path="url(#b)" fill="#CCC9C7" points="149.8,62.9 152.1,58.9 149.8,54.7 157.1,54.7 157.1,62.9"/><path clip-path="url(#b)" fill="#CCC9C7" d="M116.7 65.7c-1.2 0-2.1-1-2.1-2.1v-10.1c0-1.2 1-2.1 2.1-2.1 1.2 0 2.1 1 2.1 2.1v10.1c0 1.2-1 2.1-2.1 2.1"/><path clip-path="url(#b)" fill="#231F20" d="M116.7 65.7s.5 0 1.2-.5c.3-.2.6-.7.7-1.2.1-.6 0-1.3 0-2 0-1.5-.1-3.3-.2-5.3 0-1 0-2.1-.1-3.2 0-.9-.7-1.7-1.7-1.7-.8 0-1.7.8-1.6 1.7 0 1.1 0 2.1-.1 3.2-.1 2-.1 3.8-.2 5.3 0 .7-.1 1.5 0 2 .1.6.4 1 .7 1.2.7.6 1.3.5 1.3.5s-.5.1-1.3-.3c-.4-.2-.8-.7-.9-1.3-.1-.7-.1-1.3-.1-2.1 0-1.5-.1-3.3-.2-5.3 0-1 0-2.1-.1-3.2-.1-1.3 1.1-2.7 2.6-2.7 1.4 0 2.6 1.3 2.5 2.7 0 1.1 0 2.1-.1 3.2-.1 2-.1 3.8-.2 5.3l-.1 2.1c-.2.7-.6 1.1-.9 1.3-.7.5-1.3.3-1.2.3"/><path clip-path="url(#b)" fill="#CCC9C7" d="M101.2 65.7c-.4 0-.8-1-.8-2.1v-10.1c0-1.2.4-2.1.8-2.1s.8 1 .8 2.1v10.1c0 1.2-.3 2.1-.8 2.1"/><path clip-path="url(#b)" fill="#CCC9C7" d="M157.1 65.7c-1.2 0-2.1-1-2.1-2.1v-10.1c0-1.2 1-2.1 2.1-2.1 1.2 0 2.1 1 2.1 2.1v10.1c0 1.2-.9 2.1-2.1 2.1"/><path clip-path="url(#b)" fill="#231F20" d="M157.1 65.7s.5 0 1.2-.5c.3-.2.6-.7.7-1.2.1-.6 0-1.3 0-2 0-1.5-.1-3.3-.2-5.3 0-1 0-2.1-.1-3.2 0-.9-.7-1.7-1.7-1.7-.8 0-1.7.8-1.6 1.7 0 1.1 0 2.1-.1 3.2-.1 2-.1 3.8-.2 5.3 0 .7-.1 1.5 0 2 .1.6.4 1 .7 1.2.8.6 1.3.5 1.3.5s-.5.1-1.3-.3c-.4-.2-.8-.7-.9-1.3-.1-.7-.1-1.3-.1-2.1 0-1.5-.1-3.3-.2-5.3 0-1 0-2.1-.1-3.2-.1-1.3 1.1-2.7 2.6-2.7 1.4 0 2.6 1.3 2.5 2.7 0 1.1 0 2.1-.1 3.2-.1 2-.1 3.8-.2 5.3l-.1 2.1c-.2.7-.6 1.1-.9 1.3-.7.5-1.2.3-1.2.3"/></svg>