<?xml version="1.0" encoding="utf-8"?>
<!-- Generator: Adobe Illustrator 18.1.1, SVG Export Plug-In . SVG Version: 6.00 Build 0)  -->
<!DOCTYPE svg PUBLIC "-//W3C//DTD SVG 1.1//EN" "http://www.w3.org/Graphics/SVG/1.1/DTD/svg11.dtd">
<svg version="1.1" id="Layer_1" xmlns="http://www.w3.org/2000/svg" xmlns:xlink="http://www.w3.org/1999/xlink" x="0px" y="0px"
	 viewBox="0 0 178.1 130.7" enable-background="new 0 0 178.1 130.7" xml:space="preserve">
<rect x="2.5" y="2.3" fill="#CCC9C7" width="175.7" height="128.4"/>
<circle fill="#FFFFFF" cx="66.6" cy="110" r="10.9"/>
<g>
	<defs>
		<rect id="SVGID_5_" x="2.5" y="2.3" width="175.7" height="128.4"/>
	</defs>
	<clipPath id="SVGID_2_">
		<use xlink:href="#SVGID_5_"  overflow="visible"/>
	</clipPath>
	<path clip-path="url(#SVGID_2_)" fill="#FFFFFF" d="M161.5,131.3c-0.4-1.3,0.2-2.2,1.7-2.8c1.9-0.6,4.5-1.1,6.9-0.9
		c-0.9-0.9-0.6-2.4,0.9-3.7c-2.6,1.1-5.6,0.9-7.8-0.4c-2.6-1.5-2.6-3.7,0-4.8c1.9-0.6,4.5-1.1,6.9-0.9c-0.9-0.9-0.6-2.4,0.9-3.7
		c-2.6,0.9-5.6,0.9-7.8-0.4c-2.6-1.5-2.6-3.7,0-4.8c1.9-0.6,4.5-1.1,6.9-0.9c-0.9-1.1-0.6-2.4,0.9-3.7c-2.6,0.9-5.6,0.9-7.8-0.2
		c-2.6-1.7-2.6-3.9,0-4.8c1.9-0.9,4.5-1.3,6.9-1.1c-0.9-1.1-0.6-2.4,0.9-3.9c-2.6,1.1-5.6,1.1-7.8,0c-2.6-1.5-2.6-3.7,0-4.8
		c1.9-0.6,4.5-1.3,6.9-1.3c-0.9-0.9-0.6-2.2,0.9-3.7c-2.6,1.1-5.6,1.3-7.8,0c-2.6-1.5-2.6-3.7,0-4.8c1.9-0.6,4.5-1.3,6.9-1.3
		c-0.9-0.9-0.6-2.4,0.9-3.7c-2.6,1.1-5.6,1.3-7.8,0c-2.6-1.5-2.6-3.7,0-4.5c1.9-0.9,4.5-1.5,6.9-1.5c-0.9-0.9-0.6-2.4,0.9-3.7
		c-2.6,1.1-5.6,1.3-7.8,0.2c-2.6-1.5-2.6-3.7,0-4.8c1.9-0.9,4.5-1.5,6.9-1.5c-0.9-1.1-0.6-2.4,0.9-3.9c-2.6,1.3-5.6,1.5-7.8,0.4
		c-2.6-1.5-2.6-3.7,0-4.8c1.9-0.9,4.5-1.5,6.9-1.7c-0.9-0.9-0.6-2.2,0.9-3.7c-2.6,1.3-5.6,1.5-7.8,0.4c-2.6-1.5-2.6-3.7,0-4.8
		c1.9-0.9,4.5-1.5,6.9-1.7c-0.9-0.9-0.6-2.2,0.9-3.7c-2.6,1.1-5.6,1.5-7.8,0.4c-2.6-1.3-2.6-3.5,0-4.5c1.9-0.9,4.5-1.7,6.9-1.9
		c-0.9-0.9-0.6-2.4,0.9-3.7c-2.6,1.3-5.6,1.5-7.8,0.6c-2.6-1.5-2.6-3.7,0-4.8c1.9-0.9,4.5-1.7,6.9-1.9c-0.9-0.9-0.6-2.4,0.9-3.9
		c-2.6,1.3-5.6,1.9-7.8,0.9c-2.6-1.5-2.6-3.7,0-4.8c1.9-0.9,4.5-1.7,6.9-1.9c-0.9-1.1-0.6-2.4,0.9-3.9c-2.6,1.3-5.6,1.9-7.8,0.9
		c-2.6-1.3-2.6-3.5,0-4.8c0.9-0.4,1.9-0.9,3-1.1h8c0.6,0.6,0.4,1.9-0.7,3c1.1-0.6,2.4-1.1,3.7-1.5c-0.2-0.4-0.2-1.1,0-1.5h9.1v129.7
		h-10.2c0.4-0.2,0.9-0.2,1.1-0.4c-0.2-0.6,0-1.3,0.4-2.2c-1.3,0.2-2.4,0.2-3.5,0.2c0.4,0.6,0.4,1.5,0,2.4H161.5z M113.9,131.3h-1.7
		v-0.2c-0.9-0.9-0.9-1.5,0-1.3C112.6,130,113.3,130.7,113.9,131.3 M68.9,131.3h-1.1c-0.6-0.4-1.3-1.1-1.9-1.7
		c-0.6-0.9-0.6-1.5,0-1.3c0.6,0.2,1.9,1.1,2.6,1.9C68.7,130.7,68.9,130.9,68.9,131.3 M35.4,131.3h-6.1c-0.9-0.4-1.5-0.9-2.2-1.3
		c-1.9-1.1-1.9-2.8,0-3.7c1.9-0.6,5.2,0.2,7.1,1.7C35.9,129.2,36.1,130.4,35.4,131.3 M26.4,131.3c-0.2-0.2-0.2-0.4-0.7-0.6
		c-2.2-1.1-5.8-1.1-8.2,0.2c0,0.2-0.2,0.2-0.2,0.4H26.4z M14.9,131.3H6c-0.4-0.9,0-2.2,0.9-3.2c-1.1,0.6-2.4,1.3-3.7,1.7
		c0.2,0.4,0.2,0.9,0,1.5H-8.2V1.6h25.9c2.2,1.5,1.9,3.7-0.4,4.8C15.3,7,12.7,7,10.4,6.6c0.9,1.3,0.6,2.8-0.6,3.9
		c2.4-0.6,5.4-0.2,7.6,1.1c2.6,1.7,2.6,3.9,0,5c-1.9,0.9-4.5,0.9-6.9,0.6c0.9,1.1,0.6,2.6-0.6,3.9c2.4-0.9,5.4-0.4,7.6,0.9
		c2.6,1.5,2.6,3.9,0,5c-1.9,0.9-4.5,0.9-6.9,0.6c0.9,1.3,0.6,2.6-0.6,3.9c2.4-0.9,5.4-0.4,7.6,0.9c2.6,1.5,2.6,3.9,0,5
		c-1.9,0.9-4.5,0.9-6.9,0.9c0.9,1.1,0.6,2.6-0.6,3.9c2.4-1.1,5.4-0.9,7.6,0.4c2.6,1.7,2.6,3.9,0,5.2c-1.9,0.9-4.5,1.1-6.9,0.9
		c0.9,1.1,0.6,2.6-0.6,3.9c2.4-0.9,5.4-0.6,7.6,0.4c2.6,1.5,2.6,3.9,0,5.2c-1.9,0.9-4.5,1.1-6.9,0.9C11.2,60,11,61.5,9.7,63
		c2.4-1.1,5.4-1.1,7.6,0.2c2.6,1.5,2.6,3.7,0,5c-1.9,0.9-4.5,1.3-6.9,1.3c0.9,1.1,0.6,2.6-0.6,3.9c2.4-1.1,5.4-1.1,7.6,0.2
		c2.6,1.5,2.6,3.7,0,5c-1.9,0.9-4.5,1.3-6.9,1.3C11.2,81,11,82.5,9.7,84c2.4-1.3,5.4-1.3,7.6,0c2.6,1.3,2.6,3.7,0,5
		c-1.9,0.9-4.5,1.3-6.9,1.5c0.9,0.9,0.6,2.4-0.6,3.9c2.4-1.3,5.4-1.3,7.6-0.2c2.6,1.5,2.6,3.7,0,5.2c-1.9,0.9-4.5,1.3-6.9,1.5
		c0.9,0.9,0.6,2.4-0.6,4.1c2.4-1.5,5.4-1.5,7.6-0.4c2.6,1.5,2.6,3.7,0,5c-1.9,1.1-4.5,1.5-6.9,1.7c0.9,1.1,0.6,2.6-0.6,4.1
		c2.4-1.5,5.4-1.5,7.6-0.4c2.6,1.3,2.6,3.7,0,5c-1.9,1.1-4.5,1.5-6.9,1.9c0.9,0.9,0.6,2.4-0.6,4.1c2.4-1.5,5.4-1.7,7.6-0.6
		c2.6,1.3,2.6,3.5,0,5C16.6,130.7,15.8,130.9,14.9,131.3 M18.1,1.6c2.4,1.1,5.6,1.7,7.6,1.3c1.1-0.2,1.7-0.6,1.7-1.3H18.1z
		 M49.3,1.6h2.8c0.4,0.9,0.2,1.3-0.7,1.1C50.8,2.5,50.1,2.1,49.3,1.6 M56,1.6h2.4c0.6,0.4,1.1,1.1,1.5,1.5c1.1,1.5,1.1,2.4,0,1.9
		c-0.9-0.4-2.6-1.9-3.7-3.2C56.2,1.6,56.2,1.6,56,1.6 M75.9,1.6h0.9c0,0,0.2,0,0.2,0.2c0.4,0.4,0.4,0.9,0,0.6
		C76.7,2.3,76.3,1.8,75.9,1.6 M112.4,1.6h1.7c0.2,0,0.4,0.2,0.4,0.4c0.6,0.9,0.6,1.3,0,1.1C113.9,2.9,113,2.3,112.4,1.6 M145,1.6
		h6.1c0.9,0.2,1.5,0.4,2.2,0.9c1.9,1.1,1.9,2.6,0,3.5c-1.9,0.9-5.2,0-7.1-1.5C144.8,3.4,144.4,2.3,145,1.6 M154.3,1.6
		c0,0,0.2,0,0.4,0.2c2.2,1.1,6.1,1.3,8.2,0.2c0.4-0.2,0.6-0.4,0.9-0.4H154.3z M85.8,128.3c-0.2-0.2-0.7-0.4-0.9-0.9
		c-0.2-0.2-0.2-0.4,0-0.2c0.2,0,0.6,0.4,0.9,0.7C86,128.1,86,128.3,85.8,128.3 M85.8,119c-0.2-0.2-0.7-0.4-0.9-0.9
		c-0.2-0.2-0.2-0.4,0-0.2c0.2,0,0.6,0.4,0.9,0.7C86,118.8,86,119,85.8,119 M85.8,109.5c-0.2,0-0.7-0.2-0.9-0.6
		c-0.2-0.2-0.2-0.4,0-0.4c0.2,0.2,0.6,0.4,0.9,0.9C86,109.5,86,109.7,85.8,109.5 M85.8,100.2c-0.2,0-0.7-0.4-0.9-0.6
		c-0.2-0.2-0.2-0.4,0-0.4c0.2,0.2,0.6,0.4,0.9,0.9C86,100.2,86,100.4,85.8,100.2 M85.8,90.9c-0.2,0-0.7-0.4-0.9-0.7
		c-0.2-0.4-0.2-0.4,0-0.4s0.6,0.4,0.9,0.7C86,90.9,86,91.1,85.8,90.9 M85.8,81.6c-0.2-0.2-0.7-0.4-0.9-0.9c-0.2-0.2-0.2-0.4,0-0.2
		c0.2,0,0.6,0.4,0.9,0.7C86,81.6,86,81.6,85.8,81.6 M85.8,72.3c-0.2-0.2-0.7-0.4-0.9-0.9c-0.2-0.2-0.2-0.4,0-0.4
		c0.2,0.2,0.6,0.6,0.9,0.9C86,72.1,86,72.3,85.8,72.3 M85.8,63c-0.2-0.2-0.7-0.6-0.9-0.9c-0.2-0.2-0.2-0.4,0-0.4
		c0.2,0.2,0.6,0.4,0.9,0.9C86,62.8,86,63,85.8,63 M85.8,53.5c-0.2,0-0.7-0.4-0.9-0.6c-0.2-0.4-0.2-0.4,0-0.4
		c0.2,0.2,0.6,0.4,0.9,0.9C86,53.5,86,53.7,85.8,53.5 M85.8,44.2c-0.2,0-0.7-0.4-0.9-0.7c-0.2-0.4-0.2-0.4,0-0.4s0.6,0.4,0.9,0.6
		C86,44.2,86,44.4,85.8,44.2 M85.8,34.9c-0.2-0.2-0.7-0.4-0.9-0.9c-0.2-0.2-0.2-0.4,0-0.2c0.2,0,0.6,0.4,0.9,0.6
		C86,34.9,86,34.9,85.8,34.9 M85.8,25.6c-0.2-0.2-0.7-0.4-0.9-0.9c-0.2-0.2-0.2-0.4,0-0.4c0.2,0.2,0.6,0.6,0.9,0.9
		C86,25.6,86,25.6,85.8,25.6 M85.8,16.3c-0.2-0.2-0.7-0.6-0.9-0.9c-0.2-0.2-0.2-0.4,0-0.4c0.2,0.2,0.6,0.4,0.9,0.9
		C86,16.1,86,16.3,85.8,16.3 M85.8,6.8c-0.2,0-0.7-0.4-0.9-0.6c-0.2-0.4-0.2-0.4,0-0.4c0.2,0.2,0.6,0.4,0.9,0.9
		C86,6.8,86,7,85.8,6.8 M76.9,124.6c-0.4,0-0.9-0.6-1.3-1.1c-0.4-0.4-0.4-0.9,0-0.7c0.4,0.2,0.9,0.7,1.3,1.1
		C77.4,124.6,77.4,124.8,76.9,124.6 M76.9,115.3c-0.4-0.2-0.9-0.6-1.3-1.3c-0.4-0.4-0.4-0.6,0-0.6c0.4,0.2,0.9,0.9,1.3,1.3
		C77.4,115.1,77.4,115.3,76.9,115.3 M76.9,105.8c-0.4,0-0.9-0.6-1.3-1.1c-0.4-0.4-0.4-0.9,0-0.6c0.4,0.2,0.9,0.6,1.3,1.1
		C77.4,105.8,77.4,106,76.9,105.8 M76.9,96.5c-0.4-0.2-0.9-0.6-1.3-1.3c-0.4-0.4-0.4-0.6,0-0.6c0.4,0.2,0.9,0.6,1.3,1.3
		C77.4,96.3,77.4,96.5,76.9,96.5 M76.9,87c-0.4,0-0.9-0.6-1.3-1.1c-0.4-0.6-0.4-0.9,0-0.6c0.4,0,0.9,0.6,1.3,1.1
		C77.4,87,77.4,87.2,76.9,87 M76.9,77.7c-0.4-0.2-0.9-0.9-1.3-1.3c-0.4-0.4-0.4-0.9,0-0.6c0.4,0.2,0.9,0.6,1.3,1.3
		C77.4,77.5,77.4,77.9,76.9,77.7 M76.9,68.2c-0.4,0-0.9-0.7-1.3-1.1c-0.4-0.6-0.4-0.9,0-0.6c0.4,0,0.9,0.6,1.3,1.1
		C77.4,68.2,77.4,68.4,76.9,68.2 M76.9,58.9c-0.4-0.2-0.9-0.9-1.3-1.3c-0.4-0.4-0.4-0.9,0-0.6c0.4,0.2,0.9,0.6,1.3,1.3
		C77.4,58.7,77.4,59.1,76.9,58.9 M76.9,49.4c-0.4,0-0.9-0.6-1.3-1.3c-0.4-0.4-0.4-0.6,0-0.6c0.4,0.2,0.9,0.9,1.3,1.3
		C77.4,49.4,77.4,49.6,76.9,49.4 M76.9,40.1c-0.4-0.2-0.9-0.9-1.3-1.3c-0.4-0.6-0.4-0.9,0-0.6c0.4,0.2,0.9,0.6,1.3,1.3
		C77.4,39.9,77.4,40.3,76.9,40.1 M76.9,30.6c-0.4,0-0.9-0.6-1.3-1.3c-0.4-0.4-0.4-0.9,0-0.6c0.4,0.2,0.9,0.9,1.3,1.3
		C77.4,30.6,77.4,30.8,76.9,30.6 M76.9,21.3c-0.4-0.2-0.9-0.9-1.3-1.3c-0.4-0.6-0.4-0.9,0-0.6c0.4,0.2,0.9,0.6,1.3,1.3
		C77.4,21.1,77.4,21.5,76.9,21.3 M76.9,11.8c-0.4,0-0.9-0.6-1.3-1.3c-0.4-0.4-0.4-0.9,0-0.6c0.4,0.2,0.9,0.9,1.3,1.3
		C77.4,11.8,77.4,12,76.9,11.8 M68.5,122c-0.6-0.2-1.9-1.3-2.6-1.9c-0.6-0.9-0.6-1.5,0-1.3c0.6,0.2,1.9,1.1,2.6,1.9
		C69.2,121.8,69.2,122.2,68.5,122 M68.5,112.5c-0.6-0.2-1.9-1.1-2.6-1.9c-0.6-1.1-0.6-1.5,0-1.3c0.6,0.2,1.9,1.1,2.6,2.2
		C69.2,112.3,69.2,112.7,68.5,112.5 M68.5,103c-0.6-0.2-1.9-1.1-2.6-2.2c-0.6-0.9-0.6-1.3,0-1.1c0.6,0.2,1.9,1.1,2.6,2.2
		C69.2,102.8,69.2,103.2,68.5,103 M68.5,93.5c-0.6-0.2-1.9-1.1-2.6-1.9c-0.6-1.1-0.6-1.5,0-1.3c0.6,0.2,1.9,1.1,2.6,2.2
		C69.2,93.3,69.2,93.9,68.5,93.5 M68.5,84c-0.6-0.2-1.9-1.1-2.6-2.2c-0.6-0.9-0.6-1.3,0-1.1c0.6,0.2,1.9,1.1,2.6,2.2
		C69.2,83.8,69.2,84.4,68.5,84 M68.5,74.7c-0.6-0.4-1.9-1.3-2.6-2.4c-0.6-0.9-0.6-1.3,0-1.1c0.6,0.2,1.9,1.1,2.6,2.2
		C69.2,74.3,69.2,74.9,68.5,74.7 M68.5,65.2c-0.6-0.4-1.9-1.3-2.6-2.4c-0.6-0.9-0.6-1.3,0-1.1c0.6,0.2,1.9,1.3,2.6,2.2
		C69.2,65,69.2,65.4,68.5,65.2 M68.5,55.7c-0.6-0.4-1.9-1.3-2.6-2.4c-0.6-0.9-0.6-1.3,0-1.1c0.6,0.2,1.9,1.3,2.6,2.2
		C69.2,55.4,69.2,55.9,68.5,55.7 M68.5,46.2c-0.6-0.2-1.9-1.3-2.6-2.4c-0.6-0.9-0.6-1.5,0-1.1c0.6,0.2,1.9,1.3,2.6,2.2
		C69.2,45.9,69.2,46.4,68.5,46.2 M68.5,36.6c-0.6-0.2-1.9-1.3-2.6-2.4c-0.6-0.9-0.6-1.5,0-1.1c0.6,0.2,1.9,1.3,2.6,2.2
		C69.2,36.4,69.2,36.9,68.5,36.6 M68.5,27.1c-0.6-0.2-1.9-1.3-2.6-2.4c-0.6-0.9-0.6-1.5,0-1.1c0.6,0.2,1.9,1.3,2.6,2.4
		C69.2,26.9,69.2,27.6,68.5,27.1 M68.5,17.6c-0.6-0.2-1.9-1.3-2.6-2.4c-0.6-0.9-0.6-1.5,0-1.1c0.6,0.2,1.9,1.3,2.6,2.4
		C69.2,17.4,69.2,18.1,68.5,17.6 M68.5,8.1c-0.6-0.2-1.9-1.3-2.6-2.4c-0.6-0.9-0.6-1.5,0-1.1c0.6,0.2,1.9,1.3,2.6,2.4
		C69.2,7.9,69.2,8.5,68.5,8.1 M59.9,130c-0.9-0.2-2.6-1.5-3.7-2.6c-0.9-1.3-0.9-2.2,0-1.9c1.1,0.2,2.8,1.5,3.7,2.6
		C60.9,129.4,60.9,130.2,59.9,130 M59.9,120.3c-0.9-0.2-2.6-1.3-3.7-2.6c-0.9-1.3-0.9-1.9,0-1.7c1.1,0.2,2.8,1.3,3.7,2.6
		C60.9,119.6,60.9,120.5,59.9,120.3 M59.9,110.8c-0.9-0.4-2.6-1.5-3.7-2.8c-0.9-1.1-0.9-1.9,0-1.7c1.1,0.2,2.8,1.3,3.7,2.6
		C60.9,110.1,60.9,111,59.9,110.8 M59.9,101.1c-0.9-0.2-2.6-1.5-3.7-2.8c-0.9-1.1-0.9-1.9,0-1.7c1.1,0.2,2.8,1.5,3.7,2.8
		C60.9,100.6,60.9,101.5,59.9,101.1 M59.9,91.5c-0.9-0.4-2.6-1.5-3.7-2.8c-0.9-1.3-0.9-2.2,0-1.9c1.1,0.4,2.8,1.7,3.7,2.8
		C60.9,90.9,60.9,91.8,59.9,91.5 M59.9,81.8c-0.9-0.2-2.6-1.5-3.7-2.8c-0.9-1.3-0.9-2.2,0-1.7c1.1,0.2,2.8,1.5,3.7,2.8
		C60.9,81.4,60.9,82.2,59.9,81.8 M59.9,72.3c-0.9-0.4-2.6-1.7-3.7-2.8c-0.9-1.3-0.9-2.2,0-1.9c1.1,0.2,2.8,1.5,3.7,2.8
		C60.9,71.9,60.9,72.5,59.9,72.3 M59.9,62.6c-0.9-0.2-2.6-1.5-3.7-2.8c-0.9-1.3-0.9-2.2,0-1.9c1.1,0.4,2.8,1.7,3.7,3
		C60.9,62.1,60.9,63,59.9,62.6 M59.9,53.1c-0.9-0.4-2.6-1.7-3.7-3c-0.9-1.3-0.9-2.2,0-1.7c1.1,0.2,2.8,1.5,3.7,2.8
		C60.9,52.6,60.9,53.5,59.9,53.1 M59.9,43.3c-0.9-0.2-2.6-1.5-3.7-2.8c-0.9-1.3-0.9-2.2,0-1.9c1.1,0.4,2.8,1.7,3.7,3
		C60.9,42.9,60.9,43.8,59.9,43.3 M59.9,33.8c-0.9-0.4-2.6-1.7-3.7-3c-0.9-1.3-0.9-2.2,0-1.9c1.1,0.4,2.8,1.7,3.7,3.2
		C60.9,33.4,60.9,34.3,59.9,33.8 M59.9,24.1c-0.9-0.2-2.6-1.7-3.7-3c-0.9-1.3-0.9-2.2,0-1.7c1.1,0.2,2.8,1.7,3.7,3
		C60.9,23.9,60.9,24.5,59.9,24.1 M59.9,14.6c-0.9-0.4-2.6-1.7-3.7-3.2c-0.9-1.3-0.9-1.9,0-1.7c1.1,0.4,2.8,1.7,3.7,3.2
		C60.9,14.2,60.9,15,59.9,14.6 M51.4,129.2c-1.3,0-3.5-1.1-4.8-2.6c-1.5-1.3-1.5-2.4,0-2.4c1.3,0,3.5,1.3,4.8,2.6
		C52.7,128.1,52.7,129.2,51.4,129.2 M51.4,119.4c-1.3,0-3.5-1.3-4.8-2.6c-1.5-1.5-1.5-2.4,0-2.4c1.3,0,3.5,1.1,4.8,2.6
		C52.7,118.3,52.7,119.4,51.4,119.4 M51.4,109.7c-1.3,0-3.5-1.3-4.8-2.6c-1.5-1.5-1.5-2.6,0-2.6c1.3,0.2,3.5,1.3,4.8,2.8
		C52.7,108.6,52.7,109.7,51.4,109.7 M51.4,100c-1.3,0-3.5-1.3-4.8-2.8c-1.5-1.3-1.5-2.6,0-2.4c1.3,0,3.5,1.3,4.8,2.8
		C52.7,98.9,52.7,100,51.4,100 M51.4,90.2c-1.3-0.2-3.5-1.5-4.8-2.8c-1.5-1.5-1.5-2.6,0-2.6c1.3,0.2,3.5,1.5,4.8,3
		C52.7,89.4,52.7,90.5,51.4,90.2 M51.4,80.5c-1.3-0.2-3.5-1.5-4.8-3c-1.5-1.5-1.5-2.6,0-2.4c1.3,0.2,3.5,1.5,4.8,3
		C52.7,79.7,52.7,80.7,51.4,80.5 M51.4,70.8c-1.3-0.2-3.5-1.5-4.8-3c-1.5-1.5-1.5-2.6,0-2.6c1.3,0.2,3.5,1.7,4.8,3.2
		C52.7,69.9,52.7,71,51.4,70.8 M51.4,61.1c-1.3-0.2-3.5-1.7-4.8-3.2c-1.5-1.5-1.5-2.6,0-2.4c1.3,0.2,3.5,1.7,4.8,3.2
		C52.7,60.2,52.7,61.3,51.4,61.1 M51.4,51.3c-1.3-0.2-3.5-1.7-4.8-3.2c-1.5-1.5-1.5-2.6,0-2.6c1.3,0.4,3.5,1.9,4.8,3.5
		C52.7,50.5,52.7,51.6,51.4,51.3 M51.4,41.6c-1.3-0.2-3.5-1.7-4.8-3.5c-1.5-1.5-1.5-2.6,0-2.4c1.3,0.2,3.5,1.7,4.8,3.5
		C52.7,40.8,52.7,41.8,51.4,41.6 M51.4,31.9c-1.3-0.2-3.5-1.9-4.8-3.5c-1.5-1.5-1.5-2.6,0-2.4c1.3,0.2,3.5,1.7,4.8,3.5
		C52.7,31,52.7,32.1,51.4,31.9 M51.4,22.2c-1.3-0.4-3.5-1.9-4.8-3.5c-1.5-1.7-1.5-2.8,0-2.6c1.3,0.4,3.5,1.9,4.8,3.7
		C52.7,21.3,52.7,22.4,51.4,22.2 M51.4,12.4c-1.3-0.4-3.5-1.9-4.8-3.7c-1.5-1.5-1.5-2.6,0-2.4c1.3,0.2,3.5,1.9,4.8,3.7
		C52.7,11.6,52.7,12.7,51.4,12.4 M42.8,129.8c1.7,0,1.7-1.5,0-3.2c-1.5-1.5-4.3-2.6-5.8-2.2c-1.7,0.4-1.7,1.7,0,3
		C38.5,128.7,41.3,129.8,42.8,129.8 M42.8,119.9c-1.5,0-4.3-1.1-5.8-2.4c-1.7-1.3-1.7-2.8,0-3c1.5-0.4,4.3,0.6,5.8,2.4
		C44.5,118.6,44.5,119.9,42.8,119.9 M42.8,109.9c-1.5,0-4.3-1.1-5.8-2.4c-1.7-1.3-1.7-2.8,0-3c1.5-0.4,4.3,0.6,5.8,2.4
		C44.5,108.6,44.5,109.9,42.8,109.9 M42.8,100.2c-1.5-0.2-4.3-1.3-5.8-2.6c-1.7-1.5-1.7-2.8,0-3c1.5-0.4,4.3,0.6,5.8,2.4
		C44.5,98.7,44.5,100.2,42.8,100.2 M42.8,90.2c-1.5-0.2-4.3-1.3-5.8-2.6c-1.7-1.5-1.7-3,0-3.2c1.5-0.2,4.3,0.9,5.8,2.8
		C44.5,88.9,44.5,90.2,42.8,90.2 M42.8,80.3c-1.5,0-4.3-1.3-5.8-2.6c-1.7-1.5-1.7-3,0-3.2c1.5-0.2,4.3,1.1,5.8,2.8
		C44.5,79,44.5,80.5,42.8,80.3 M42.8,70.6c-1.5-0.2-4.3-1.5-5.8-3c-1.7-1.5-1.7-2.8,0-3c1.5-0.2,4.3,1.1,5.8,2.8
		C44.5,69.3,44.5,70.6,42.8,70.6 M42.8,60.6c-1.5-0.2-4.3-1.5-5.8-3c-1.7-1.5-1.7-3,0-3c1.5-0.2,4.3,1.1,5.8,3
		C44.5,59.3,44.5,60.6,42.8,60.6 M42.8,50.7c-1.5-0.2-4.3-1.5-5.8-3c-1.7-1.5-1.7-3,0-3c1.5-0.2,4.3,1.3,5.8,3
		C44.5,49.4,44.5,50.9,42.8,50.7 M42.8,40.8c-1.5,0-4.3-1.5-5.8-3c-1.7-1.7-1.7-3,0-3c1.5-0.2,4.3,1.3,5.8,3
		C44.5,39.7,44.5,41,42.8,40.8 M42.8,31c-1.5-0.2-4.3-1.7-5.8-3.2c-1.7-1.7-1.7-3.2,0-3.2c1.5,0,4.3,1.5,5.8,3.5
		C44.5,29.7,44.5,31.2,42.8,31 M42.8,21.1c-1.5-0.2-4.3-1.7-5.8-3.2c-1.7-1.9-1.7-3.2,0-3.2c1.5,0,4.3,1.5,5.8,3.5
		C44.5,20,44.5,21.3,42.8,21.1 M42.8,11.1c-1.5-0.2-4.3-1.7-5.8-3.5c-1.7-1.7-1.7-3.2,0-3c1.5,0,4.3,1.5,5.8,3.5
		C44.5,10.1,44.5,11.6,42.8,11.1 M34.4,121.8c1.9-0.4,1.9-2.2,0-3.7c-1.9-1.5-5.2-2.4-7.1-1.9c-1.9,0.9-1.9,2.6,0,3.7
		C29.2,121.4,32.4,122.2,34.4,121.8 M34.4,111.6c1.9-0.2,1.9-1.9,0-3.7c-1.9-1.5-5.2-2.4-7.1-1.9c-1.9,0.9-1.9,2.6,0,3.7
		C29.2,111.4,32.4,112.3,34.4,111.6 M34.4,101.7c1.9-0.4,1.9-1.9,0-3.7c-1.9-1.7-5.2-2.6-7.1-2.2c-1.9,0.9-1.9,2.6,0,3.7
		C29.2,101.3,32.4,102.1,34.4,101.7 M34.4,91.5c1.9-0.2,1.9-1.9,0-3.7c-1.9-1.5-5.2-2.6-7.1-2.2c-1.9,0.9-1.9,2.6,0,3.7
		C29.2,91.1,32.4,92,34.4,91.5 M34.4,81.6c1.9-0.2,1.9-1.9,0-3.7c-1.9-1.7-5.2-2.8-7.1-2.4c-1.9,0.9-1.9,2.6,0,3.7
		C29.2,81,32.4,82,34.4,81.6 M34.4,71.7c1.9-0.2,1.9-1.9,0-3.9c-1.9-1.5-5.2-2.6-7.1-2.4c-1.9,0.9-1.9,2.6,0,3.9
		C29.2,70.8,32.4,71.9,34.4,71.7 M34.4,61.5c1.9-0.2,1.9-1.7,0-3.7c-1.9-1.7-5.2-2.8-7.1-2.6c-1.9,0.9-1.9,2.4,0,3.9
		C29.2,60.8,32.4,61.9,34.4,61.5 M34.4,51.6c1.9-0.2,1.9-1.9,0-3.7c-1.9-1.7-5.2-3-7.1-2.8c-1.9,0.9-1.9,2.4,0,3.9
		C29.2,50.7,32.4,51.8,34.4,51.6 M34.4,41.4c1.9,0,1.9-1.7,0-3.7c-1.9-1.7-5.2-3-7.1-2.6c-1.9,0.4-1.9,2.2,0,3.7
		C29.2,40.5,32.4,41.8,34.4,41.4 M34.4,31.5c1.9,0,1.9-1.7,0-3.7c-1.9-1.7-5.2-3-7.1-2.8c-1.9,0.4-1.9,2.2,0,3.7
		C29.2,30.4,32.4,31.7,34.4,31.5 M34.4,21.3c1.9,0,1.9-1.5,0-3.7c-1.9-1.7-5.2-3-7.1-2.8c-1.9,0.4-1.9,2.2,0,3.7
		C29.2,20.4,32.4,21.5,34.4,21.3 M34.4,11.4c1.9,0,1.9-1.7,0-3.7c-1.9-1.9-5.2-3.2-7.1-3c-1.9,0.4-1.9,2.2,0,3.7
		C29.2,10.3,32.4,11.6,34.4,11.4 M25.7,125c2.4-1.1,2.4-3,0-4.5c-2.2-1.1-5.8-1.1-8.2,0.2c-2.2,1.3-2.2,3.2,0,4.3
		C19.9,126.1,23.6,126.1,25.7,125 M25.7,114.7c2.4-0.9,2.4-2.8,0-4.3c-2.2-1.3-5.8-1.3-8.2,0c-2.2,1.3-2.2,3.2,0,4.3
		C19.9,116,23.6,116,25.7,114.7 M25.7,104.5c2.4-0.9,2.4-2.8,0-4.3c-2.2-1.3-5.8-1.5-8.2-0.2c-2.2,1.3-2.2,3.2,0,4.5
		C19.9,105.6,23.6,105.8,25.7,104.5 M25.7,94.4c2.4-0.6,2.4-2.6,0-4.3c-2.2-1.3-5.8-1.5-8.2-0.4c-2.2,1.3-2.2,3.2,0,4.5
		C19.9,95.2,23.6,95.4,25.7,94.4 M25.7,84.2c2.4-0.6,2.4-2.6,0-4.3c-2.2-1.5-5.8-1.7-8.2-0.4c-2.2,1.1-2.2,3,0,4.3
		C19.9,85.1,23.6,85.3,25.7,84.2 M25.7,74c2.4-0.6,2.4-2.6,0-4.3c-2.2-1.5-5.8-1.7-8.2-0.6c-2.2,1.1-2.2,3,0,4.3
		C19.9,74.7,23.6,74.9,25.7,74 M25.7,63.9c2.4-0.6,2.4-2.6,0-4.3c-2.2-1.5-5.8-1.9-8.2-0.9c-2.2,1.1-2.2,3,0,4.3
		C19.9,64.5,23.6,64.7,25.7,63.9 M25.7,53.7c2.4-0.6,2.4-2.6,0-4.3c-2.2-1.7-5.8-2.2-8.2-1.1c-2.2,1.1-2.2,3,0,4.5
		C19.9,54.2,23.6,54.6,25.7,53.7 M25.7,43.6c2.4-0.6,2.4-2.6,0-4.3c-2.2-1.7-5.8-2.2-8.2-1.3c-2.2,1.1-2.2,3,0,4.5
		C19.9,43.8,23.6,44.2,25.7,43.6 M25.7,33.4c2.4-0.6,2.4-2.6,0-4.3c-2.2-1.7-5.8-2.4-8.2-1.3c-2.2,0.9-2.2,2.8,0,4.3
		C19.9,33.6,23.6,34,25.7,33.4 M25.7,23.2c2.4-0.4,2.4-2.4,0-4.3c-2.2-1.9-5.8-2.6-8.2-1.5c-2.2,0.9-2.2,3,0,4.3
		C19.9,23.2,23.6,23.9,25.7,23.2 M25.7,13.1c2.4-0.4,2.4-2.4,0-4.3c-2.2-1.9-5.8-2.6-8.2-1.7c-2.2,0.9-2.2,3,0,4.3
		C19.9,12.9,23.6,13.7,25.7,13.1 M6.9,117.5c-1.1,0.9-2.4,1.3-3.7,1.7c0.2,0.9,0.2,1.5-0.2,2.6c1.1-0.4,2.2-0.9,3.2-0.9
		C5.6,120.1,5.8,118.8,6.9,117.5 M6.9,107.1c-1.1,0.6-2.4,1.3-3.7,1.5c0.2,0.9,0.2,1.7-0.2,2.6c1.1-0.4,2.2-0.6,3.2-0.9
		C5.6,109.5,5.8,108.4,6.9,107.1 M6.9,96.5c-1.1,0.7-2.4,1.3-3.7,1.5c0.2,0.9,0.2,1.7-0.2,2.6c1.1-0.4,2.2-0.6,3.2-0.6
		C5.6,99.1,5.8,97.8,6.9,96.5 M6.9,85.9c-1.1,0.6-2.4,1.3-3.7,1.7C3.5,88.3,3.5,89.2,3,90c1.1-0.4,2.2-0.6,3.2-0.6
		C5.6,88.5,5.8,87.2,6.9,85.9 M6.9,75.5c-1.1,0.6-2.4,1.1-3.7,1.5c0.2,0.7,0.2,1.5-0.2,2.4c1.1-0.2,2.2-0.4,3.2-0.6
		C5.6,77.9,5.8,76.6,6.9,75.5 M6.9,65c-1.1,0.6-2.4,1.1-3.7,1.5C3.5,67.1,3.5,68,3,68.8c1.1-0.2,2.2-0.4,3.2-0.6
		C5.6,67.3,5.8,66.3,6.9,65 M6.9,54.4c-1.1,0.6-2.4,1.3-3.7,1.5c0.2,0.6,0.2,1.5-0.2,2.4c1.1-0.2,2.2-0.4,3.2-0.4
		C5.6,57,5.8,55.7,6.9,54.4 M6.9,44c-1.1,0.6-2.4,1.1-3.7,1.3c0.2,0.9,0.2,1.5-0.2,2.6c1.1-0.4,2.2-0.6,3.2-0.6
		C5.6,46.4,5.8,45.1,6.9,44 M6.9,33.4c-1.1,0.6-2.4,1.1-3.7,1.3c0.2,0.9,0.2,1.7-0.2,2.6c1.1-0.4,2.2-0.6,3.2-0.6
		C5.6,35.8,5.8,34.7,6.9,33.4 M6.9,22.8c-1.1,0.6-2.4,1.1-3.7,1.3C3.5,25,3.5,25.8,3,26.7c1.1-0.4,2.2-0.4,3.2-0.4
		C5.6,25.2,5.8,24.1,6.9,22.8 M6.9,12.4c-1.1,0.4-2.4,0.9-3.7,1.3c0.2,0.6,0.2,1.5-0.2,2.4c1.1-0.2,2.2-0.4,3.2-0.4
		C5.6,14.8,5.8,13.5,6.9,12.4 M6.9,1.8C5.8,2.5,4.5,2.9,3.2,3.1C3.5,3.8,3.5,4.7,3,5.5c1.1-0.2,2.2-0.4,3.2-0.4
		C5.6,4.2,5.8,2.9,6.9,1.8 M94.7,2.3c0.2,0.2,0.6,0.6,0.9,0.9c0.2,0.4,0.2,0.4,0,0.4c-0.2-0.2-0.6-0.6-0.9-0.9
		C94.5,2.5,94.5,2.3,94.7,2.3 M94.7,11.6c0.2,0.2,0.6,0.6,0.9,0.9c0.2,0.2,0.2,0.4,0,0.4c-0.2-0.2-0.6-0.6-0.9-0.9
		C94.5,11.8,94.5,11.6,94.7,11.6 M94.7,20.9c0.2,0.2,0.6,0.6,0.9,0.9c0.2,0.2,0.2,0.4,0,0.4c-0.2-0.2-0.6-0.4-0.9-0.9
		C94.5,21.1,94.5,20.9,94.7,20.9 M94.7,30.2c0.2,0.2,0.6,0.6,0.9,0.9c0.2,0.2,0.2,0.4,0,0.4c-0.2-0.2-0.6-0.6-0.9-0.9
		C94.5,30.4,94.5,30.2,94.7,30.2 M94.7,39.5c0.2,0.2,0.6,0.4,0.9,0.9c0.2,0.2,0.2,0.4,0,0.4c-0.2-0.2-0.6-0.7-0.9-0.9
		C94.5,39.7,94.5,39.5,94.7,39.5 M94.7,48.7c0.2,0.2,0.6,0.4,0.9,0.9c0.2,0.2,0.2,0.4,0,0.4c-0.2-0.2-0.6-0.6-0.9-0.9
		C94.5,49,94.5,48.7,94.7,48.7 M94.7,58c0.2,0.2,0.6,0.6,0.9,0.9c0.2,0.2,0.2,0.4,0,0.4c-0.2-0.2-0.6-0.6-0.9-0.9
		C94.5,58.3,94.5,58,94.7,58 M94.7,67.3c0.2,0.2,0.6,0.4,0.9,0.9c0.2,0.2,0.2,0.4,0,0.4c-0.2-0.2-0.6-0.6-0.9-0.9
		C94.5,67.6,94.5,67.3,94.7,67.3 M94.7,76.6c0.2,0.2,0.6,0.4,0.9,0.9c0.2,0.2,0.2,0.4,0,0.2c-0.2,0-0.6-0.4-0.9-0.7
		C94.5,76.6,94.5,76.6,94.7,76.6 M94.7,85.9c0.2,0,0.6,0.4,0.9,0.9c0.2,0.2,0.2,0.4,0,0.2c-0.2,0-0.6-0.4-0.9-0.6
		C94.5,85.9,94.5,85.9,94.7,85.9 M94.7,95.2c0.2,0,0.6,0.4,0.9,0.9c0.2,0.2,0.2,0.4,0,0.2c-0.2,0-0.6-0.4-0.9-0.6
		C94.5,95.4,94.5,95.2,94.7,95.2 M94.7,104.5c0.2,0,0.6,0.4,0.9,0.6c0.2,0.4,0.2,0.6,0,0.4c-0.2,0-0.6-0.4-0.9-0.6
		C94.5,104.5,94.5,104.5,94.7,104.5 M94.7,113.8c0.2,0,0.6,0.4,0.9,0.9c0.2,0.2,0.2,0.4,0,0.2c-0.2,0-0.6-0.4-0.9-0.6
		C94.5,113.8,94.5,113.8,94.7,113.8 M94.7,123.1c0.2,0,0.6,0.4,0.9,0.6c0.2,0.4,0.2,0.6,0,0.4c-0.2,0-0.6-0.4-0.9-0.6
		C94.5,123.1,94.5,122.9,94.7,123.1 M103.5,6.2c0.4,0.2,1.1,0.9,1.3,1.3c0.4,0.6,0.4,0.9,0,0.6c-0.2-0.2-0.9-0.6-1.3-1.3
		C103.1,6.4,103.1,6.2,103.5,6.2 M103.5,15.5c0.4,0.2,1.1,0.9,1.3,1.3c0.4,0.4,0.4,0.9,0,0.7c-0.2-0.2-0.9-0.7-1.3-1.3
		C103.1,15.7,103.1,15.5,103.5,15.5 M103.5,24.8c0.4,0.2,1.1,0.9,1.3,1.3c0.4,0.4,0.4,0.9,0,0.6c-0.2-0.2-0.9-0.6-1.3-1.3
		C103.1,25,103.1,24.8,103.5,24.8 M103.5,34c0.4,0.2,1.1,0.9,1.3,1.3c0.4,0.4,0.4,0.9,0,0.6c-0.2-0.2-0.9-0.9-1.3-1.3
		C103.1,34.3,103.1,33.8,103.5,34 M103.5,43.3c0.4,0.2,1.1,0.7,1.3,1.3c0.4,0.4,0.4,0.9,0,0.6c-0.2-0.2-0.9-0.9-1.3-1.3
		C103.1,43.6,103.1,43.1,103.5,43.3 M103.5,52.6c0.4,0.2,1.1,0.6,1.3,1.3c0.4,0.4,0.4,0.9,0,0.6c-0.2-0.2-0.9-0.9-1.3-1.3
		C103.1,52.9,103.1,52.4,103.5,52.6 M103.5,61.9c0.4,0.2,1.1,0.6,1.3,1.3c0.4,0.4,0.4,0.6,0,0.6c-0.2-0.2-0.9-0.9-1.3-1.3
		C103.1,62.1,103.1,61.7,103.5,61.9 M103.5,71.2c0.4,0.2,1.1,0.6,1.3,1.3c0.4,0.4,0.4,0.6,0,0.6c-0.2-0.2-0.9-0.9-1.3-1.3
		C103.1,71.4,103.1,71,103.5,71.2 M103.5,80.5c0.4,0,1.1,0.7,1.3,1.3c0.4,0.4,0.4,0.6,0,0.6c-0.2-0.2-0.9-0.9-1.3-1.3
		C103.1,80.5,103.1,80.3,103.5,80.5 M103.5,89.8c0.4,0,1.1,0.7,1.3,1.1c0.4,0.6,0.4,0.9,0,0.9c-0.2-0.2-0.9-0.9-1.3-1.3
		C103.1,89.8,103.1,89.6,103.5,89.8 M103.5,99.1c0.4,0,1.1,0.6,1.3,1.1c0.4,0.6,0.4,0.9,0,0.6c-0.2,0-0.9-0.6-1.3-1.1
		C103.1,99.1,103.1,98.9,103.5,99.1 M103.5,108.4c0.4,0,1.1,0.6,1.3,1.1c0.4,0.6,0.4,0.9,0,0.6c-0.2,0-0.9-0.6-1.3-1.1
		C103.1,108.4,103.1,108.2,103.5,108.4 M103.5,117.5c0.4,0.2,1.1,0.9,1.3,1.3c0.4,0.4,0.4,0.9,0,0.6c-0.2-0.2-0.9-0.6-1.3-1.3
		C103.1,117.7,103.1,117.5,103.5,117.5 M103.5,126.8c0.4,0.2,1.1,0.9,1.3,1.3c0.4,0.4,0.4,0.9,0,0.6c-0.2-0.2-0.9-0.6-1.3-1.3
		C103.1,127,103.1,126.8,103.5,126.8 M112.2,9.2c0.6,0.2,1.7,1.1,2.4,1.9c0.6,1.1,0.6,1.5,0,1.3c-0.6-0.2-1.7-1.1-2.4-1.9
		C111.3,9.6,111.3,9,112.2,9.2 M112.2,18.5c0.6,0.2,1.7,1.1,2.4,1.9c0.6,1.1,0.6,1.5,0,1.3c-0.6-0.2-1.7-1.1-2.4-2.2
		C111.3,18.9,111.3,18.3,112.2,18.5 M112.2,27.8c0.6,0.2,1.7,1.1,2.4,1.9c0.6,1.1,0.6,1.5,0,1.3c-0.6-0.2-1.7-1.1-2.4-2.2
		C111.3,28,111.3,27.6,112.2,27.8 M112.2,37.1c0.6,0.2,1.7,1.1,2.4,1.9c0.6,0.9,0.6,1.5,0,1.3c-0.6-0.2-1.7-1.1-2.4-2.2
		C111.3,37.3,111.3,36.9,112.2,37.1 M112.2,46.4c0.6,0.2,1.7,1.1,2.4,1.9c0.6,1.1,0.6,1.5,0,1.3c-0.6-0.2-1.7-1.1-2.4-2.2
		C111.3,46.6,111.3,46.2,112.2,46.4 M112.2,55.7c0.6,0.2,1.7,1.1,2.4,1.9c0.6,1.1,0.6,1.5,0,1.3c-0.6-0.2-1.7-1.1-2.4-2.2
		C111.3,55.9,111.3,55.4,112.2,55.7 M112.2,65c0.6,0.2,1.7,1.1,2.4,1.9c0.6,1.1,0.6,1.5,0,1.3c-0.6-0.2-1.7-1.3-2.4-2.2
		C111.3,65.2,111.3,64.7,112.2,65 M112.2,74.3c0.6,0.2,1.7,1.1,2.4,1.9c0.6,1.1,0.6,1.5,0,1.3c-0.6-0.2-1.7-1.3-2.4-2.2
		C111.3,74.5,111.3,74,112.2,74.3 M112.2,83.5c0.6,0.2,1.7,1.1,2.4,1.9c0.6,1.1,0.6,1.5,0,1.3c-0.6-0.2-1.7-1.3-2.4-2.2
		C111.3,83.8,111.3,83.3,112.2,83.5 M112.2,92.8c0.6,0.2,1.7,1.1,2.4,1.9c0.6,1.1,0.6,1.5,0,1.3c-0.6-0.2-1.7-1.3-2.4-2.2
		C111.3,93.1,111.3,92.4,112.2,92.8 M112.2,101.9c0.6,0.4,1.7,1.3,2.4,2.2c0.6,1.1,0.6,1.5,0,1.3c-0.6-0.2-1.7-1.3-2.4-2.2
		C111.3,102.3,111.3,101.7,112.2,101.9 M112.2,111.2c0.6,0.4,1.7,1.3,2.4,2.2c0.6,1.1,0.6,1.5,0,1.3c-0.6-0.2-1.7-1.3-2.4-2.2
		C111.3,111.6,111.3,111,112.2,111.2 M112.2,120.5c0.6,0.2,1.7,1.3,2.4,2.2c0.6,1.1,0.6,1.5,0,1.3c-0.6-0.2-1.7-1.3-2.4-2.2
		C111.3,120.9,111.3,120.3,112.2,120.5 M120.6,2.1c1.1,0.2,2.6,1.5,3.7,2.6c0.9,1.1,0.9,1.9,0,1.7c-1.1-0.2-2.6-1.3-3.7-2.6
		C119.5,2.5,119.5,1.8,120.6,2.1 M120.6,11.4c1.1,0.4,2.6,1.5,3.7,2.6c0.9,1.1,0.9,1.9,0,1.7c-1.1-0.2-2.6-1.3-3.7-2.6
		C119.5,11.8,119.5,11.1,120.6,11.4 M120.6,20.6c1.1,0.4,2.6,1.5,3.7,2.6c0.9,1.1,0.9,1.9,0,1.7c-1.1,0-2.6-1.3-3.7-2.6
		C119.5,21.1,119.5,20.4,120.6,20.6 M120.6,29.9c1.1,0.4,2.6,1.5,3.7,2.6c0.9,1.1,0.9,1.9,0,1.7c-1.1,0-2.6-1.3-3.7-2.6
		C119.5,30.6,119.5,29.7,120.6,29.9 M120.6,39.2c1.1,0.4,2.6,1.5,3.7,2.6c0.9,1.3,0.9,1.9,0,1.7c-1.1,0-2.6-1.3-3.7-2.6
		C119.5,39.7,119.5,39,120.6,39.2 M120.6,48.5c1.1,0.4,2.6,1.5,3.7,2.6c0.9,1.3,0.9,1.9,0,1.9c-1.1-0.2-2.6-1.5-3.7-2.8
		C119.5,49.2,119.5,48.3,120.6,48.5 M120.6,57.8c1.1,0.4,2.6,1.5,3.7,2.8c0.9,1.1,0.9,1.9,0,1.7c-1.1-0.2-2.6-1.5-3.7-2.8
		C119.5,58.5,119.5,57.6,120.6,57.8 M120.6,67.3c1.1,0.2,2.6,1.5,3.7,2.6c0.9,1.1,0.9,1.9,0,1.7c-1.1-0.2-2.6-1.5-3.7-2.6
		C119.5,67.8,119.5,66.9,120.6,67.3 M120.6,76.6c1.1,0.2,2.6,1.5,3.7,2.6c0.9,1.1,0.9,1.9,0,1.7c-1.1-0.2-2.6-1.5-3.7-2.6
		C119.5,77.1,119.5,76.2,120.6,76.6 M120.6,85.9c1.1,0.2,2.6,1.5,3.7,2.6c0.9,1.1,0.9,1.9,0,1.7c-1.1-0.2-2.6-1.3-3.7-2.6
		C119.5,86.4,119.5,85.5,120.6,85.9 M120.6,95.2c1.1,0.2,2.6,1.5,3.7,2.6c0.9,1.3,0.9,1.9,0,1.7c-1.1-0.2-2.6-1.3-3.7-2.6
		C119.5,95.7,119.5,94.8,120.6,95.2 M120.6,104.5c1.1,0.2,2.6,1.5,3.7,2.6c0.9,1.3,0.9,2.2,0,1.7c-1.1,0-2.6-1.3-3.7-2.6
		C119.5,104.9,119.5,104.1,120.6,104.5 M120.6,113.8c1.1,0.2,2.6,1.5,3.7,2.6c0.9,1.3,0.9,2.2,0,1.7c-1.1,0-2.6-1.3-3.7-2.6
		C119.5,114.2,119.5,113.4,120.6,113.8 M120.6,123.1c1.1,0.2,2.6,1.5,3.7,2.8c0.9,1.1,0.9,1.9,0,1.7c-1.1-0.2-2.6-1.5-3.7-2.8
		C119.5,123.5,119.5,122.7,120.6,123.1 M129,2.9c1.5,0,3.7,1.3,5,2.6c1.3,1.5,1.3,2.6,0,2.4c-1.3,0-3.5-1.3-5-2.8
		C127.7,3.8,127.7,2.7,129,2.9 M129,12.2c1.5,0.2,3.7,1.5,5,2.8c1.3,1.5,1.3,2.6,0,2.4c-1.3-0.2-3.5-1.3-5-2.8
		C127.7,13.1,127.7,12,129,12.2 M129,21.5c1.5,0.2,3.7,1.5,5,2.8c1.3,1.5,1.3,2.6,0,2.4c-1.3,0-3.5-1.3-5-2.8
		C127.7,22.4,127.7,21.5,129,21.5 M129,31c1.5,0.2,3.7,1.3,5,2.8c1.3,1.5,1.3,2.4,0,2.4c-1.3-0.2-3.5-1.5-5-2.8
		C127.7,31.9,127.7,30.8,129,31 M129,40.3c1.5,0.2,3.7,1.5,5,2.8c1.3,1.5,1.3,2.6,0,2.4c-1.3-0.2-3.5-1.3-5-2.8
		C127.7,41.2,127.7,40.1,129,40.3 M129,49.6c1.5,0.2,3.7,1.5,5,3c1.3,1.5,1.3,2.4,0,2.4c-1.3-0.2-3.5-1.5-5-3
		C127.7,50.5,127.7,49.4,129,49.6 M129,59.1c1.5,0.2,3.7,1.5,5,2.8c1.3,1.5,1.3,2.6,0,2.4c-1.3-0.2-3.5-1.3-5-3
		C127.7,59.8,127.7,58.9,129,59.1 M129,68.4c1.5,0.2,3.7,1.5,5,3c1.3,1.5,1.3,2.4,0,2.2c-1.3,0-3.5-1.3-5-2.8
		C127.7,69.3,127.7,68.2,129,68.4 M129,77.7c1.5,0.4,3.7,1.7,5,3c1.3,1.5,1.3,2.6,0,2.4c-1.3-0.2-3.5-1.5-5-3
		C127.7,78.6,127.7,77.5,129,77.7 M129,87.2c1.5,0.2,3.7,1.5,5,3c1.3,1.5,1.3,2.4,0,2.2c-1.3,0-3.5-1.3-5-2.8
		C127.7,87.9,127.7,87,129,87.2 M129,96.5c1.5,0.2,3.7,1.5,5,3c1.3,1.5,1.3,2.6,0,2.4c-1.3-0.2-3.5-1.5-5-3
		C127.7,97.4,127.7,96.3,129,96.5 M129,105.8c1.5,0.4,3.7,1.7,5,3c1.3,1.5,1.3,2.6,0,2.4c-1.3-0.2-3.5-1.5-5-3
		C127.7,106.7,127.7,105.6,129,105.8 M129,115.3c1.5,0.2,3.7,1.5,5,3c1.3,1.5,1.3,2.6,0,2.4c-1.3-0.2-3.5-1.5-5-3
		C127.7,116,127.7,114.9,129,115.3 M129,124.6c1.5,0.2,3.7,1.7,5,3c1.3,1.5,1.3,2.6,0,2.4c-1.3-0.2-3.5-1.5-5-3
		C127.7,125.5,127.7,124.4,129,124.6 M137.7,2.7c-1.7,0.2-1.7,1.5,0,2.8c1.7,1.5,4.3,2.4,5.8,2.2c1.7-0.2,1.7-1.5,0-2.8
		C142,3.4,139.4,2.5,137.7,2.7 M137.7,12.2c1.7-0.2,4.3,0.6,5.8,2.2c1.7,1.3,1.7,2.6,0,2.8c-1.5,0.2-4.1-0.6-5.8-2.2
		C135.9,13.7,135.9,12.4,137.7,12.2 M137.7,21.5c1.7,0,4.3,0.9,5.8,2.4c1.7,1.3,1.7,2.6,0,2.8c-1.5,0.2-4.1-0.6-5.8-2.2
		C135.9,23,135.9,21.7,137.7,21.5 M137.7,31c1.7-0.2,4.3,0.9,5.8,2.2c1.7,1.5,1.7,2.8,0,3c-1.5,0.2-4.1-0.9-5.8-2.4
		C135.9,32.5,135.9,31.2,137.7,31 M137.7,40.3c1.7,0,4.3,1.1,5.8,2.4c1.7,1.5,1.7,2.8,0,3c-1.5,0.2-4.1-0.9-5.8-2.4
		C135.9,41.8,135.9,40.5,137.7,40.3 M137.7,49.8c1.7,0,4.3,0.9,5.8,2.4c1.7,1.5,1.7,2.8,0,3c-1.5,0-4.1-1.1-5.8-2.6
		C135.9,51.3,135.9,49.8,137.7,49.8 M137.7,59.3c1.7-0.2,4.3,0.9,5.8,2.4c1.7,1.5,1.7,2.8,0,3c-1.5,0-4.1-1.1-5.8-2.6
		C135.9,60.6,135.9,59.3,137.7,59.3 M137.7,68.6c1.7,0,4.3,1.1,5.8,2.6c1.7,1.5,1.7,2.8,0,3c-1.5,0-4.1-1.1-5.8-2.6
		C135.9,70.1,135.9,68.8,137.7,68.6 M137.7,78.1c1.7,0,4.3,1.1,5.8,2.6c1.7,1.5,1.7,2.8,0,3c-1.5,0-4.1-1.3-5.8-2.8
		C135.9,79.4,135.9,78.1,137.7,78.1 M137.7,87.4c1.7,0,4.3,1.3,5.8,2.8c1.7,1.5,1.7,2.8,0,3c-1.5,0-4.1-1.3-5.8-2.8
		C135.9,88.9,135.9,87.4,137.7,87.4 M137.7,96.9c1.7,0,4.3,1.3,5.8,2.8c1.7,1.3,1.7,2.8,0,2.8c-1.5,0.2-4.1-1.1-5.8-2.8
		C135.9,98.2,135.9,96.9,137.7,96.9 M137.7,106.2c1.7,0.2,4.3,1.5,5.8,3c1.7,1.3,1.7,2.8,0,2.8c-1.5,0-4.1-1.3-5.8-2.8
		C135.9,107.5,135.9,106.2,137.7,106.2 M137.7,115.8c1.7,0,4.3,1.3,5.8,3c1.7,1.3,1.7,2.8,0,2.8c-1.5,0-4.1-1.3-5.8-3
		C135.9,117,135.9,115.8,137.7,115.8 M137.7,125c1.7,0.2,4.3,1.5,5.8,3c1.7,1.7,1.7,2.8,0,3c-1.5,0-4.1-1.3-5.8-3
		C135.9,126.3,135.9,125,137.7,125 M146.1,10.5c-1.9,0.2-1.9,1.7,0,3.5c1.9,1.5,5.2,2.4,7.1,1.5c1.9-0.7,1.9-2.4,0-3.5
		C151.3,10.9,148.1,10.1,146.1,10.5 M146.1,20c-1.9,0.2-1.9,1.7,0,3.5c1.9,1.5,5.2,2.4,7.1,1.7c1.9-0.9,1.9-2.4,0-3.7
		C151.3,20.4,148.1,19.6,146.1,20 M146.1,29.5c-1.9,0.2-1.9,1.7,0,3.5c1.9,1.5,5.2,2.4,7.1,1.7c1.9-0.9,1.9-2.4,0-3.5
		C151.3,29.9,148.1,29.1,146.1,29.5 M146.1,39c-1.9,0.2-1.9,1.7,0,3.5c1.9,1.5,5.2,2.4,7.1,1.7c1.9-0.7,1.9-2.2,0-3.5
		C151.3,39.5,148.1,38.6,146.1,39 M146.1,48.5c-1.9,0.2-1.9,1.7,0,3.5c1.9,1.5,5.2,2.6,7.1,1.9c1.9-0.9,1.9-2.4,0-3.7
		C151.3,49,148.1,48.1,146.1,48.5 M146.1,58c-1.9,0.2-1.9,1.7,0,3.5c1.9,1.5,5.2,2.6,7.1,1.9c1.9-0.6,1.9-2.4,0-3.7
		C151.3,58.7,148.1,57.6,146.1,58 M146.1,67.6c-1.9,0.2-1.9,1.7,0,3.5c1.9,1.5,5.2,2.6,7.1,1.9c1.9-0.6,1.9-2.2,0-3.5
		C151.3,68.2,148.1,67.1,146.1,67.6 M146.1,76.8c-1.9,0.4-1.9,1.9,0,3.7c1.9,1.5,5.2,2.6,7.1,1.9c1.9-0.4,1.9-2.2,0-3.5
		C151.3,77.7,148.1,76.6,146.1,76.8 M146.1,86.4c-1.9,0.2-1.9,1.9,0,3.7c1.9,1.5,5.2,2.6,7.1,2.2c1.9-0.6,1.9-2.2,0-3.5
		C151.3,87.2,148.1,86.1,146.1,86.4 M146.1,96.1c-1.9,0-1.9,1.7,0,3.5c1.9,1.5,5.2,2.6,7.1,2.2c1.9-0.4,1.9-2.2,0-3.5
		C151.3,96.7,148.1,95.7,146.1,96.1 M146.1,105.6c-1.9,0-1.9,1.7,0,3.5c1.9,1.5,5.2,2.8,7.1,2.2c1.9-0.4,1.9-1.9,0-3.5
		C151.3,106.2,148.1,105.2,146.1,105.6 M146.1,114.9c-1.9,0.2-1.9,1.7,0,3.7c1.9,1.7,5.2,2.8,7.1,2.4c1.9-0.4,1.9-2.2,0-3.7
		C151.3,116,148.1,114.7,146.1,114.9 M146.1,124.4c-1.9,0.2-1.9,1.7,0,3.7c1.9,1.7,5.2,2.8,7.1,2.4c1.9-0.4,1.9-1.9,0-3.5
		C151.3,125.5,148.1,124.2,146.1,124.4 M154.8,7.2c-2.4,1.1-2.4,2.8,0,4.1c2.2,1.3,6.1,1.5,8.2,0.4c2.4-1.1,2.4-3,0-4.1
		C160.8,6.4,156.9,6.2,154.8,7.2 M154.8,17c-2.4,0.9-2.4,2.6,0,4.1c2.2,1.3,6.1,1.3,8.2,0.4c2.4-1.3,2.4-3,0-4.3
		C160.8,16.1,156.9,15.9,154.8,17 M154.8,26.5c-2.4,0.9-2.4,2.8,0,4.1c2.2,1.3,6.1,1.5,8.2,0.4c2.4-1.1,2.4-2.8,0-4.1
		C160.8,25.6,156.9,25.4,154.8,26.5 M154.8,36c-2.4,0.9-2.4,2.8,0,4.1c2.2,1.5,6.1,1.7,8.2,0.7c2.4-1.1,2.4-2.8,0-4.1
		C160.8,35.3,156.9,35.1,154.8,36 M154.8,45.7c-2.4,0.9-2.4,2.6,0,4.1c2.2,1.3,6.1,1.5,8.2,0.6c2.4-1.1,2.4-3,0-4.1
		C160.8,45.1,156.9,44.9,154.8,45.7 M154.8,55.2c-2.4,0.9-2.4,2.6,0,4.1c2.2,1.5,6.1,1.7,8.2,0.9c2.4-1.1,2.4-3,0-4.1
		C160.8,54.6,156.9,54.4,154.8,55.2 M154.8,65c-2.4,0.6-2.4,2.6,0,4.1c2.2,1.3,6.1,1.7,8.2,0.6c2.4-0.9,2.4-2.8,0-4.1
		C160.8,64.3,156.9,64.1,154.8,65 M154.8,74.5c-2.4,0.6-2.4,2.6,0,4.1c2.2,1.5,6.1,1.7,8.2,0.9c2.4-1.1,2.4-2.8,0-4.1
		C160.8,74,156.9,73.6,154.8,74.5 M154.8,84c-2.4,0.9-2.4,2.6,0,4.1c2.2,1.5,6.1,1.9,8.2,1.1c2.4-1.1,2.4-2.8,0-4.1
		C160.8,83.5,156.9,83.3,154.8,84 M154.8,93.7c-2.4,0.6-2.4,2.4,0,4.1c2.2,1.5,6.1,1.9,8.2,1.1c2.4-1.1,2.4-2.8,0-4.1
		C160.8,93.3,156.9,92.8,154.8,93.7 M154.8,103.2c-2.4,0.6-2.4,2.6,0,4.1c2.2,1.5,6.1,1.9,8.2,1.1c2.4-0.9,2.4-2.8,0-4.1
		C160.8,103,156.9,102.6,154.8,103.2 M154.8,112.9c-2.4,0.4-2.4,2.4,0,4.1c2.2,1.5,6.1,1.9,8.2,1.1c2.4-0.9,2.4-2.8,0-4.1
		C160.8,112.5,156.9,112.1,154.8,112.9 M154.8,122.5c-2.4,0.6-2.4,2.4,0,4.1c2.2,1.5,6.1,2.2,8.2,1.3c2.4-0.9,2.4-2.8,0-4.1
		C160.8,122.2,156.9,121.8,154.8,122.5 M173.6,14.4c1.1-0.6,2.4-1.1,3.7-1.3c-0.2-0.9,0-1.5,0.4-2.4c-1.3,0.4-2.4,0.4-3.5,0.6
		C174.9,12.2,174.6,13.3,173.6,14.4 M173.6,24.3c1.1-0.6,2.4-1.1,3.7-1.5c-0.2-0.6,0-1.5,0.4-2.4c-1.3,0.4-2.4,0.6-3.5,0.6
		C174.9,21.9,174.6,23,173.6,24.3 M173.6,34c1.1-0.6,2.4-1.1,3.7-1.3c-0.2-0.9,0-1.5,0.4-2.4c-1.3,0.2-2.4,0.4-3.5,0.6
		C174.9,31.7,174.6,33,173.6,34 M173.6,43.8c1.1-0.4,2.4-1.1,3.7-1.3c-0.2-0.6,0-1.5,0.4-2.4c-1.3,0.4-2.4,0.7-3.5,0.7
		C174.9,41.6,174.6,42.7,173.6,43.8 M173.6,53.7c1.1-0.6,2.4-1.1,3.7-1.3c-0.2-0.9,0-1.5,0.4-2.4c-1.3,0.2-2.4,0.4-3.5,0.4
		C174.9,51.3,174.6,52.4,173.6,53.7 M173.6,63.4c1.1-0.6,2.4-1.1,3.7-1.3c-0.2-0.6,0-1.5,0.4-2.4c-1.3,0.4-2.4,0.6-3.5,0.6
		C174.9,61.1,174.6,62.4,173.6,63.4 M173.6,73.4c1.1-0.6,2.4-1.1,3.7-1.3c-0.2-0.9,0-1.5,0.4-2.4c-1.3,0.2-2.4,0.4-3.5,0.4
		C174.9,71,174.6,72.1,173.6,73.4 M173.6,83.1c1.1-0.6,2.4-1.1,3.7-1.3c-0.2-0.6,0-1.5,0.4-2.4c-1.3,0.4-2.4,0.4-3.5,0.6
		C174.9,80.7,174.6,82,173.6,83.1 M173.6,92.8c1.1-0.6,2.4-0.9,3.7-1.1c-0.2-0.9,0-1.5,0.4-2.4c-1.3,0.2-2.4,0.4-3.5,0.4
		C174.9,90.7,174.6,91.8,173.6,92.8 M173.6,102.8c1.1-0.6,2.4-1.1,3.7-1.3c-0.2-0.6,0-1.5,0.4-2.4c-1.3,0.4-2.4,0.4-3.5,0.4
		C174.9,100.4,174.6,101.5,173.6,102.8 M173.6,112.5c1.1-0.6,2.4-0.9,3.7-1.1c-0.2-0.9,0-1.5,0.4-2.4c-1.3,0.2-2.4,0.4-3.5,0.4
		C174.9,110.3,174.6,111.4,173.6,112.5 M173.6,122.2c1.1-0.4,2.4-0.9,3.7-1.1c-0.2-0.6,0-1.5,0.4-2.4c-1.3,0.4-2.4,0.4-3.5,0.4
		C174.9,120.1,174.6,121.2,173.6,122.2"/>
</g>
<ellipse fill="#FFFFFF" cx="97.1" cy="100.8" rx="7.8" ry="8.7"/>
<g>
	<defs>
		<polyline id="SVGID_1_" points="-444.8,-337.9 419.2,-335.9 439.8,819.8 -467.4,817.7 		"/>
	</defs>
	<clipPath id="SVGID_3_">
		<use xlink:href="#SVGID_1_"  overflow="visible"/>
	</clipPath>
	<path clip-path="url(#SVGID_3_)" fill="#231F20" d="M46.9,74.7c-5.3-1.7-12.1,4.7-15.4,14.5c-3.2,9.7-1.6,19.1,3.7,20.8
		c5.3,1.7,12.1-4.7,15.4-14.5C53.8,85.8,52.2,76.4,46.9,74.7 M44.8,93.3c-0.3,1-0.7,2-1.1,2.9c-0.4,1-0.9,1.9-1.4,2.7
		c-0.6,1-1.2,1.8-1.9,2.5c-0.7,0.7-1.4,1.3-2.1,1.7c-0.9,0.5-1.7,0.6-2.5,0.4c-0.6-0.2-1.1-0.6-1.5-1.3c-0.4-0.6-0.6-1.4-0.8-2.2
		c-0.1-0.7-0.2-1.6-0.2-2.5c0-2.2,0.4-4.8,1.3-7.4c2.2-6.5,6.2-11,9-10.1C46.4,80.8,46.9,86.8,44.8,93.3"/>
	<path clip-path="url(#SVGID_3_)" fill="#231F20" d="M33.5,97.4c1-1.1,2.3-2,3.4-2.9c0.9-0.7,1.8-1.4,2.8-2.1c-0.1,0-0.2,0-0.3-0.1
		c-2,2.5-4,5-6,7.5c-0.1,0.1,0.2,0.1,0.3,0c2-2.5,4-5,6-7.5c0.1-0.1-0.2-0.1-0.3-0.1c-0.9,0.7-1.8,1.3-2.6,2c-1.2,0.9-2.5,1.9-3.6,3
		C33.1,97.4,33.4,97.4,33.5,97.4"/>
	<path clip-path="url(#SVGID_3_)" fill="#231F20" d="M34.5,102.1c1.8-3.2,3.5-6.5,5.2-9.7c-0.1,0-0.2,0-0.3,0
		c-1.2,3.7-2.5,7.3-3.7,11c0,0.1,0.3,0.1,0.3,0c1.2-3.7,2.5-7.3,3.7-11c0-0.1-0.2-0.1-0.3,0c-1.7,3.2-3.3,6.6-5.2,9.7
		C34.2,102.1,34.4,102.2,34.5,102.1"/>
	<path clip-path="url(#SVGID_3_)" fill="#231F20" d="M38.5,102.9c-0.1-0.6,0.1-1.3,0.1-1.8c0.1-1.2,0.3-2.4,0.5-3.6
		c0.2-1.6,0.5-3.3,0.7-4.9h-0.3c0.2,2.9,0.5,5.7,0.7,8.6c0,0.1,0.3,0.1,0.3,0c-0.2-2.9-0.5-5.7-0.7-8.6c0-0.1-0.3-0.1-0.3,0
		c-0.3,1.6-0.5,3.3-0.7,4.9c-0.2,1.1-0.3,2.3-0.5,3.4c-0.1,0.6-0.3,1.4-0.1,2C38.2,103,38.5,103,38.5,102.9"/>
	<path clip-path="url(#SVGID_3_)" fill="#231F20" d="M42.4,98.8c-0.9-2.1-1.8-4.3-2.7-6.5c-0.1,0-0.2,0-0.3,0.1
		c1.4,1.3,2.7,2.5,4.1,3.8c0.1,0.1,0.4,0,0.3-0.1c-1.4-1.3-2.7-2.5-4.1-3.8c0,0-0.3-0.1-0.3,0.1c0.9,2.1,1.8,4.3,2.7,6.4
		C42.1,98.9,42.4,98.9,42.4,98.8"/>
	<path clip-path="url(#SVGID_3_)" fill="#231F20" d="M68.6,98.8c-4.3-0.2-12.5-6-13.3-7.2c-0.8-1.2-5.4-11,1.3-12.9
		c6.7-2,23.4,14.4,23.3,17.9C79.8,100.1,70.3,99.1,68.6,98.8"/>
	<path clip-path="url(#SVGID_3_)" fill="#FFFFFF" d="M90.7,47.4l-0.4-4.1c1.4,0,2.4-3.2,2.4-5.4c0-0.8-0.1-1.4-0.4-1.8
		c0-0.5-0.1-1-0.2-1.5c-0.4-2.2-1.5-5-4.9-7.8c-1.2-2.8-5.9-4-7.3-4.1c-1.5-0.2-3.8,0-3.8,0c-2.4-1.7-17.7,4.9-10.9,14.8
		c0,0,0.3,1.8,1.1,2c-1.1,1.5-0.8,4.4,1.1,8c1.8,3.6,3.3,3.4,3.3,3.4l-0.5,0.3c-3.8-1.2-11,5.2-15.6,6.3c-4.5,1.1-5.1,0.6-10.6-7.5
		c-0.2,0.1-0.6,0.3-1.1,0.7l0.1,0c-0.5-1.5-1.5-3.9-2.2-4.9c-1.1-1.5-2.1-0.9-2.8,0c0,0-1-0.1-1.4,0c-0.3,0.2-0.8,1.5-0.8,1.5
		c-0.8,0-2.2-1.2-2.7,2l1.6-0.9c0.4,1.7,2.5,3.8,4.2,5.1c-1.2,0.8-2.1,1.5-2.1,1.5l1.2,1.2c0,0,0.3-0.2,1.1,0.2
		c0.8,0.3-1.6,1.3-0.9,1.6c0.7,0.2,2.2,0.6,2.5,1.1c0.3,0.5,1.5,3.8,3.5,5.5c0.8,0.7,1.8,1.5,2.9,2.2c-0.2,0.9-10.3,15.2-10.3,15.2
		c-0.7-1.2-2.2-6-6.3-1.2c-4.1,4.7,0.8,10.7,2.6,12.8c1.7,2.1,5.3,4.1,7.8,2.4c1.2-0.5,3.4-1.9,3.9-4.6c1,0.6,2.9,1,2.9,1L55,78.4
		c0,0,1.2-1.5,1.6,4.3c0.2,3.1,3.6,10.8,8.9,12.2c1.3,0.3,3,0.7,5,1c6.1,1,14.6,1.4,21.1-2.7C100.2,87.9,95.3,49.3,90.7,47.4
		 M67.2,76c-1.1,0.2-5.4-9.3-5.4-9.3c2,0,4.8,0.2,6.3,0.8c1.5,0.7,2.5,7.8,2.5,7.8S68.9,77.3,67.2,76"/>
	<path clip-path="url(#SVGID_3_)" fill="#D8505C" d="M70.2,51l0.5-0.3c1.1-0.4,2.3-0.5,3.5-0.4c1.3,0.1,2.5,0.4,3.1,0.7
		c1.2,0.7,8.3,10.3,9.6,10.9c1.3,0.7,2.2,0,2.2,0c0.6-1.6,1.1-8.6,0-13.6l0,0c1.2-0.3,1.9-0.4,1.9-0.4l-0.2-0.6
		c4.6,1.9,9.5,40.5,0.9,45.8c-6.5,4-15,3.7-21.1,2.7c-2-0.3-3.7-0.7-5-1c-5.3-1.3-9.3-9.1-8.9-12.2c0.4-3-0.1-1.8-0.4-1.1
		c-0.3,0.7-1.3,0.2-1-0.7c0.3-0.9-0.2-2.5-0.2-2.5l-7.5,13.7c0,0-1.9-0.3-2.9-1c-0.8-0.4-1.7-0.9-2.6-1.6c-2.3-1.8-4.6-4.5-5.4-7.7
		c0,0,10.1-14.2,10.3-15.2l-0.2,0c1.9,1.1,2.6,1.5,4.3,1.5c1.7,0,8.5-1.5,10.8-1.5c0,0,4.3,9.4,5.4,9.3c1.6,1.3,3.3-0.6,3.3-0.6
		s-1.1-7.4-2.6-8c0.8,0.2,1.7,0.5,2.6,0.9c0.2,1.2,3.5,10.4,9.9,9.3C86.9,76.2,79.8,55.5,70.2,51"/>
	<path clip-path="url(#SVGID_3_)" fill="#231F20" d="M62.4,66.8c1.9,0.1,3.4,0.3,4.3,0.7c0.5,0.5,1.4,3.4,1.8,6.5
		c-0.3,0.2-0.7,0.5-1,0.5c-0.1,0-0.3,0-0.6-0.2L66.6,74l-0.1,0C65.7,73.3,64.1,70.3,62.4,66.8 M60.8,65.8c0,0,4.2,9.3,5.4,9.3
		c0,0,0,0,0,0c0.4,0.3,0.8,0.5,1.2,0.5c1.2,0,2.1-1.1,2.1-1.1s-1-7.1-2.5-7.8C65.6,66,62.8,65.8,60.8,65.8"/>
	<path clip-path="url(#SVGID_3_)" fill="#231F20" d="M73.9,21.5c0.5,0,0.9,0.1,1.1,0.3c0,0,1.1-0.1,2.2-0.1c0.6,0,1.2,0,1.6,0.1
		c1.5,0.2,6.2,1.3,7.3,4.1c3.5,2.8,4.6,5.5,4.9,7.8c0.1,0.5,0.1,1,0.2,1.5c0.3,0.4,0.4,1,0.4,1.8c0,2.2-1.1,5.4-2.4,5.4h0l0.4,4.1
		c4.6,1.9,9.5,40.5,0.9,45.8c-4.1,2.5-8.9,3.3-13.5,3.3c-2.7,0-5.3-0.3-7.6-0.7c-2-0.3-3.7-0.7-5-1c-5.3-1.3-9.3-9.1-8.9-12.2
		c-0.9-6.3-1.6-4.3-1.6-4.3l-7.5,13.7c0,0-1.9-0.3-2.9-1c-0.5,2.7-2.7,4.1-3.8,4.6c-0.7,0.4-1.4,0.6-2.1,0.6c-2.1,0-4.4-1.5-5.7-3
		c-1.7-2.1-6.7-8-2.6-12.8c1.3-1.5,2.4-2,3.2-2c1.8,0,2.7,2.5,3.1,3.3c0,0,10.1-14.2,10.3-15.2c-1-0.7-2.1-1.6-2.9-2.2
		c-2-1.7-3.1-5-3.5-5.5c-0.3-0.5-1.8-0.8-2.5-1.1c-0.7-0.2,1.7-1.3,0.9-1.6c-0.4-0.2-0.7-0.2-0.9-0.2c-0.2,0-0.3,0-0.3,0L35.7,54
		c0,0,0.9-0.7,2.1-1.5c-0.7-0.5-1.5-1.2-2.2-2c-0.8-0.9-1.5-1.8-1.9-2.7c-0.1-0.2-0.1-0.3-0.1-0.5l-1.6,0.9c0.3-1.8,0.9-2.2,1.5-2.2
		c0.4,0,0.9,0.2,1.2,0.2c0,0,0.5-1.3,0.8-1.5c0.1-0.1,0.3-0.1,0.5-0.1c0.4,0,0.8,0.1,0.8,0.1c0.4-0.5,0.9-0.9,1.4-0.9
		c0.4,0,0.8,0.2,1.3,0.8c0,0.1,0.1,0.1,0.1,0.2c0.4,0.5,0.7,1.2,1.1,2c0.4,1,0.8,2,1.1,2.8l-0.1,0c0.5-0.3,0.9-0.6,1.1-0.7
		c2.8,4.2,4.3,6.3,5.8,7.3c0.7,0.5,1.4,0.6,2.2,0.6c0.2,0,0.5,0,0.7,0c0.6-0.1,1.2-0.2,1.9-0.4c4.2-1,10.6-6.4,14.6-6.4
		c0.4,0,0.7,0,1,0.1l0.5-0.3c0,0,0,0,0,0c-0.2,0-1.6-0.2-3.3-3.4c-1.8-3.6-2.1-6.5-1.1-8c-0.8-0.2-1.1-2-1.1-2
		C58.1,27.6,69.7,21.5,73.9,21.5 M73.9,20.5c-3.1,0-9.2,2.8-11.5,7.2c-1.1,2-1.8,5.3,0.8,9.2c0.1,0.5,0.3,1.3,0.7,1.8
		c-0.8,1.9-0.3,4.9,1.4,8.2c0.5,1,1,1.7,1.5,2.3c-2.3,0.4-4.9,1.9-7.4,3.4c-2.2,1.2-4.4,2.5-6.1,2.9c-0.6,0.1-1.2,0.3-1.8,0.4
		c-0.2,0-0.4,0-0.6,0c-0.6,0-1.1-0.1-1.6-0.5c-1.3-0.9-3-3.2-5.5-7l-0.5-0.7l-0.8,0.3c0,0-0.1,0-0.2,0.1c-0.2-0.6-0.5-1.2-0.7-1.8
		c-0.5-1-0.9-1.8-1.2-2.2c-0.1-0.1-0.1-0.1-0.2-0.2c-0.6-0.7-1.3-1.1-2-1.1c-0.8,0-1.4,0.5-1.8,0.8c-0.1,0-0.3,0-0.4,0
		c-0.4,0-0.7,0.1-1,0.2c-0.2,0.1-0.5,0.3-1,1.3c-0.2,0-0.4-0.1-0.6-0.1c-1.9,0-2.3,2.3-2.5,3l-0.4,2.1l1.8-1l0.6-0.3
		c0.4,0.8,1,1.6,1.8,2.4c0.4,0.4,0.9,0.9,1.3,1.3c-0.6,0.5-1,0.8-1,0.8l-0.9,0.7l0.8,0.8l1.2,1.2l0.1,0.1c-0.2,0.3-0.4,0.6-0.3,1
		c0.1,0.4,0.4,0.7,0.8,0.9c0.2,0.1,0.4,0.1,0.6,0.2c0.4,0.1,1.2,0.4,1.5,0.5c0.1,0.1,0.2,0.4,0.3,0.6c0.6,1.3,1.7,3.7,3.4,5.1
		c0.7,0.6,1.4,1.2,2.2,1.8c-1.3,2.1-5.6,8.3-8.9,12.9c-0.6-1.1-1.6-2.4-3.3-2.4c-1.3,0-2.5,0.8-3.9,2.4c-4.7,5.4,0.8,11.9,2.6,14
		c1.4,1.7,4,3.4,6.5,3.4c1,0,1.8-0.2,2.6-0.7c1.5-0.7,3.2-2,4-4.1c1,0.4,2,0.5,2.1,0.6l0.7,0.1l0.3-0.6l5.9-10.7
		c0.1,0.1,0.1,0.3,0.2,0.4c0.3,0.4,0.7,0.6,1.1,0.7c-0.2,3.6,3.9,11.5,9.7,12.9c1.8,0.4,3.4,0.8,5.1,1.1c2.7,0.4,5.3,0.7,7.8,0.7
		c5.6,0,10.3-1.2,14-3.5c6-3.7,5.4-19.5,4.9-26.1c-0.5-6.4-2.3-18.6-5.4-21.2l-0.3-2.9c0.2-0.1,0.3-0.2,0.5-0.4
		c1.2-1.2,1.9-3.8,1.9-5.7c0-0.9-0.2-1.6-0.5-2.1c0-0.5-0.1-0.9-0.2-1.4c-0.5-3.1-2.2-5.8-5.1-8.2c-0.7-1.4-2-2.5-4-3.4
		c-1.7-0.7-3.3-1.1-4.1-1.2c-0.5-0.1-1.1-0.1-1.8-0.1c-0.8,0-1.6,0-2,0.1C74.9,20.5,74.4,20.5,73.9,20.5"/>
	<path clip-path="url(#SVGID_3_)" fill="#231F20" d="M45.7,65.8c1.4,0.8,2.6,1.5,4.2,1.5c1,0.1,2.1-0.2,3.2-0.4
		c2.8-0.5,5.6-1.1,8.4-1.1c2,0,3.9,0.2,5.8,0.7c0.6,0.2,1.2,0.4,1.8,0.6c0.3,0.1,0.5,0.1,0.5,0.4c0.1,0.3,0.2,0.5,0.3,0.8
		c0.7,2.1,1.8,4.1,3.3,5.7c1.5,1.7,3.6,2.9,6,2.7c1.5-0.1,2.4-1.1,2.8-2.5c0.5-2,0.1-4.2-0.3-6.1c-0.6-2.6-1.6-5.1-2.8-7.5
		c-2.1-4.1-5.2-8.4-9.5-10.5c-0.1,0-0.4,0-0.2,0.1c4.9,2.3,8.2,7.6,10.3,12.4c1.1,2.4,1.9,4.9,2.3,7.5c0.2,1.7,0.4,3.8-0.6,5.3
		c-1.4,2-4.6,1-6.2-0.1c-2-1.4-3.3-3.6-4.3-5.8c-0.3-0.7-0.6-1.4-0.8-2.1c-0.1-0.4-0.8-0.5-1.2-0.6c-1-0.3-2-0.6-3-0.8
		c-2.8-0.5-5.7-0.4-8.5,0.1c-1.9,0.3-3.7,0.7-5.6,0.9c-0.7,0.1-1.5,0.2-2.2,0.1c-1.2-0.1-2.3-0.9-3.4-1.5
		C45.8,65.6,45.5,65.7,45.7,65.8"/>
	<path clip-path="url(#SVGID_3_)" fill="#231F20" d="M69.7,49.9c1.2-0.4,2.4-0.5,3.7-0.4c0.9,0.1,2.1,0.2,2.9,0.8
		c0.6,0.4,1.1,1.1,1.6,1.7c1.7,2,3.3,4,4.9,6c0.7,0.8,1.3,1.6,2.1,2.4c0.6,0.6,1.1,1,2,1.1c0.4,0.1,0.9,0,1.3-0.2
		c0.2-0.1,0.3-0.5,0.3-0.7c0.3-1.3,0.4-2.7,0.4-4.1c0.1-3,0-6-0.6-8.9c0-0.1-0.3-0.1-0.3,0c0.8,3.5,0.8,7.3,0.5,10.9
		c-0.1,0.6-0.1,1.2-0.2,1.8c0,0.2-0.1,0.4-0.1,0.6c-0.1,0.3-0.2,0.4-0.6,0.5c-1.3,0.4-2.1-0.7-2.9-1.5c-1.7-1.9-3.3-3.9-4.9-5.9
		c-0.7-0.9-1.4-1.8-2.2-2.6c-0.4-0.4-0.8-1-1.3-1.2c-0.9-0.5-2.1-0.6-3.1-0.7c-1.2-0.1-2.4,0-3.6,0.4C69.3,49.9,69.6,50,69.7,49.9"
		/>
	<path clip-path="url(#SVGID_3_)" fill="#231F20" d="M76.3,50.3c4.6-1.1,9.1-2.1,13.7-3.2c0,0,0.1,0,0.1-0.1c0-0.2,0-0.4,0-0.6
		c0-0.1-0.3-0.1-0.3,0c0,0.2,0,0.6,0.1,0.6c-0.1,0-0.2,0-0.2,0.1c-0.4,0.1-0.8,0.2-1.2,0.3c-1.5,0.3-3,0.7-4.5,1
		c-2.6,0.6-5.1,1.1-7.7,1.8C76,50.2,76.2,50.3,76.3,50.3"/>
	<path clip-path="url(#SVGID_3_)" fill="#231F20" d="M79.3,46.2c-2.1,1.1-4.2,2.2-6.3,3.2c-0.1,0.1,0.1,0.1,0.2,0.1
		c2.1-1,4.2-2.1,6.3-3.2C79.7,46.2,79.4,46.2,79.3,46.2"/>
	<path clip-path="url(#SVGID_3_)" fill="#231F20" d="M46.6,91.1c-5.1-0.9-9.4-5.6-10.8-10.6c0-0.1-0.3-0.1-0.3,0
		c1.4,5,5.7,9.8,11,10.7C46.6,91.2,46.8,91.1,46.6,91.1"/>
	<path clip-path="url(#SVGID_3_)" fill="#231F20" d="M29.2,79.5c-0.7,2.2-0.1,5,0.7,7.1c1.6,4.3,5.5,7,9.8,8.3
		c0.1,0,0.3-0.1,0.2-0.1c-4.4-1.3-8.1-4-9.8-8.4c-0.7-2-1.2-4.7-0.6-6.8C29.5,79.4,29.2,79.4,29.2,79.5"/>
	<path clip-path="url(#SVGID_3_)" fill="#231F20" d="M66.1,75.1c-0.2,1.7,0.4,3.6,1.2,5.1c0.7,1.5,1.9,2.8,3.7,2.7
		c0,0,0.1,0,0.1-0.1c0.1-0.5,0-1.2-0.1-1.7c-0.1-0.9-0.3-1.9-0.5-2.8c-0.2-1.3-0.5-2.6-0.8-3.9c0-0.1-0.3-0.1-0.3,0
		c0.2,1.1,0.5,2.2,0.7,3.3c0.3,1.5,0.7,3.1,0.7,4.7c0,0.4,0,0.4-0.4,0.4c-0.5,0-1-0.3-1.3-0.6c-0.7-0.6-1.2-1.5-1.6-2.3
		c-0.7-1.4-1.2-3.2-1-4.8C66.4,75,66.1,75,66.1,75.1"/>
	<path clip-path="url(#SVGID_3_)" fill="#231F20" d="M41.2,88.6c0.9-1.4,1.6-2.9,2.4-4.3c1.3-2.3,2.6-4.6,4-6.9
		c1.1-1.8,2.3-3.7,3.9-5.1c0.2-0.2,0.5-0.4,0.7-0.4c0.2-0.1,0.6,1,0.6,1.2c0.2,0.4,0.5,2.1,1.2,1.9c0.5-0.1,0.3-1.5,0.3-1.8
		c0-1.2-0.1-2.5,0-3.7c0-0.4,0-0.9,0.3-1.2c0.3-0.4,0.8,0.4,0.9,0.6c0.2,0.5,0.3,1.1,0.3,1.6c0,0.9-0.1,1.8-0.1,2.7
		c0,0.4-0.2,1.2,0.1,1.6c0.7,0.7,1.4-1.6,1.5-1.9c0.1-0.1,0.5,0.8,0.5,0.9c0.1,0.2,0.1,0.4,0.2,0.6c0.1,0.2,0.1,0.5,0.2,0.7
		c0.4,1.8,0.8,3.7,1.3,5.5c1.6,5.5,4.4,11.7,9.8,14.4c0.1,0,0.4,0,0.2-0.1c-5.1-2.6-7.8-8.4-9.5-13.6c-0.6-1.9-1.1-3.9-1.5-5.9
		c-0.1-0.6-0.3-1.2-0.5-1.8c-0.1-0.3-0.3-0.8-0.7-0.8c-0.4-0.1-0.5,0.5-0.6,0.8c-0.1,0.4-0.3,0.7-0.5,1C56,75,56,74.4,56,74.2
		c0-0.9,0.1-1.8,0.1-2.7c0-0.9,0.2-3.2-1.1-3.4c-0.8-0.2-0.9,0.7-1,1.3c-0.1,1.2,0,2.5,0,3.7c0,0.5,0,0.9,0,1.4c0,0.1,0,0.3-0.1,0.4
		c0.1-0.1-0.3-0.6-0.3-0.7c-0.3-0.6-0.5-1.1-0.7-1.7c-0.1-0.2-0.3-0.7-0.5-0.8c-0.5-0.1-0.9,0.4-1.3,0.6c-0.7,0.6-1.2,1.3-1.7,2
		c-1.9,2.6-3.5,5.4-5.1,8.2c-1.1,2-2.2,4.1-3.4,6C40.8,88.6,41.1,88.6,41.2,88.6"/>
	<path clip-path="url(#SVGID_3_)" fill="#231F20" d="M64.3,36.5c-0.3-2,0.1-4.1,0.7-6c1.5-4.7,5.6-7.5,10.2-8.7
		c0.2,0-0.1-0.1-0.2-0.1c-4.6,1.2-8.5,3.9-10.2,8.5c-0.7,2-1.1,4.3-0.8,6.4C64,36.6,64.3,36.6,64.3,36.5"/>
	<path clip-path="url(#SVGID_3_)" fill="#231F20" d="M78.8,21.7c-4.3,0.5-7.7,3.6-10.3,6.9c-1.2,1.5-2.2,3.2-3.1,4.9
		c-0.6,1.1-1.1,2.2-1.4,3.3c0,0.1,0.3,0.1,0.3,0c0.8-2.7,2.4-5.3,4-7.5c2.5-3.5,6.1-7,10.6-7.5C79.1,21.8,79,21.6,78.8,21.7"/>
	<path clip-path="url(#SVGID_3_)" fill="#231F20" d="M72.6,24.4c-0.7,0.4-1,1.4-1.3,2.1c-0.4,1.2-0.6,2.6-0.5,3.9
		c0.1,1.5,0.7,2.8,1.7,3.9c1.3,1.4,3.3,2,5.1,2.3c0.1,0,0.3-0.1,0.1-0.1c-2.7-1-3.8-4.3-3.5-7c0.4-4.1,4.3-6.2,7.9-6.8
		c0.2,0,0.1-0.2-0.1-0.1c-3.7,0.6-7.3,2.6-8.1,6.5c-0.5,2.8,0.8,6.4,3.6,7.5c0,0,0.1-0.1,0.1-0.1c-2-0.3-3.9-1-5.2-2.5
		c-0.9-1-1.4-2.4-1.5-3.8c-0.1-1.2,0.1-2.5,0.5-3.6c0.2-0.7,0.6-1.6,1.2-2C72.9,24.4,72.6,24.4,72.6,24.4"/>
	<path clip-path="url(#SVGID_3_)" fill="#231F20" d="M75.2,26.4c2.5,1.5,2,5.3,2.1,7.8c0.1,1.6,0.3,3.2,1.1,4.5
		c0.8,1.3,2,1.9,3.4,2.3c0,0,0.3,0,0.2-0.1c-2.2-2.4-2.1-5.9-2.2-9c-0.1-2.7-0.2-5.8-2.8-7.4c-0.1,0-0.4,0-0.3,0.1
		c2.7,1.6,2.7,5.1,2.7,7.9c0.1,2.9,0.1,6.2,2.2,8.5c0.1,0,0.1-0.1,0.2-0.1c-0.8-0.3-1.5-0.5-2.2-1c-0.7-0.5-1.2-1.3-1.5-2.1
		c-0.6-1.5-0.7-3.2-0.7-4.7c-0.1-2.3,0.1-5.4-2.1-6.8C75.4,26.3,75.1,26.4,75.2,26.4"/>
	<path clip-path="url(#SVGID_3_)" fill="#231F20" d="M91.5,35.5c0.4,0,0.4-0.3,0-0.3S91.2,35.5,91.5,35.5"/>
	<path clip-path="url(#SVGID_3_)" fill="#231F20" d="M80,23.1c2.1,0.5,4.6,1.7,4.7,4.1c0,0.1,0.3,0.1,0.3,0
		c-0.2-2.4-2.8-3.7-4.9-4.2C80.1,23,79.9,23.1,80,23.1"/>
	<path clip-path="url(#SVGID_3_)" fill="#231F20" d="M90.5,39.8c-0.1,1.1-0.7,2.1-1.5,2.8c-1.2,1.2-3.5,1.1-5,0.5
		c-2.8-1.2-2.4-4.9-2.2-7.4c0.2-2.5,0.8-5.1,0.3-7.6c-0.4-2-1.7-3.6-3.6-4.2c-0.1,0-0.4,0-0.2,0.1c2.6,0.9,3.7,3.5,3.8,6.2
		c0,3.1-0.8,6.2-0.6,9.4c0.1,1.1,0.4,2.3,1.2,3c0.8,0.8,2.4,1.3,3.5,1.2c1.2-0.1,2.4-0.2,3.3-1.1c0.7-0.7,1.3-1.7,1.4-2.7
		C90.8,39.7,90.5,39.7,90.5,39.8"/>
	<path clip-path="url(#SVGID_3_)" fill="#231F20" d="M86.2,26c0.4,0,0.4-0.3,0-0.3S85.8,26,86.2,26"/>
	<path clip-path="url(#SVGID_3_)" fill="#231F20" d="M81.7,37.2c0.1-2,0.6-4,1.3-5.9c0.4-1,0.8-1.9,1.4-2.9c0.5-0.9,1.1-1.9,2-2.5
		c0.1-0.1-0.2-0.1-0.3-0.1c-0.8,0.6-1.4,1.6-1.9,2.4c-0.6,0.9-1.1,2-1.5,3c-0.7,1.9-1.2,3.9-1.3,6C81.4,37.3,81.7,37.3,81.7,37.2"/>
	<path clip-path="url(#SVGID_3_)" fill="#231F20" d="M86,25.9c-0.5,2.1-0.7,4.3-0.5,6.5c0.1,1.7,0.5,3.6,1.6,4.9
		c0.6,0.7,1.6,0.9,2.5,0.8c1.5-0.2,1.9-1.8,1.9-3.1c0-0.1-0.3-0.1-0.3,0c0,1.4-0.5,3-2.1,3c-1.2,0-2-0.9-2.5-1.9
		c-0.7-1.5-0.9-3.3-0.9-4.9c0-1.8,0.2-3.5,0.6-5.2C86.4,25.8,86.1,25.8,86,25.9"/>
	<path clip-path="url(#SVGID_3_)" fill="#231F20" d="M86,25.9c0.2,2.7,0.8,5.6,2.1,8.1c0.5,0.9,1.1,1.8,2.1,2c1,0.2,1.2-1.6,1.3-2.3
		c0-0.1-0.3-0.1-0.3,0c0,0.5-0.1,0.9-0.2,1.3c0,0.1-0.3,0.8-0.5,0.8c-0.3,0-0.6-0.1-0.8-0.3c-0.9-0.6-1.4-1.8-1.8-2.7
		c-0.9-2.2-1.4-4.6-1.6-6.9C86.3,25.8,86,25.8,86,25.9"/>
	<path clip-path="url(#SVGID_3_)" fill="#231F20" d="M78.7,39.1c-0.8,1.8-0.4,4.6,1.4,5.6c0.8,0.5,2.1,0.5,3,0.4
		c1-0.1,1.9-0.8,2.6-1.6c0.1-0.1-0.2-0.1-0.3,0c-0.8,0.9-1.7,1.5-2.9,1.5c-1.1,0.1-2.3-0.2-3-1.1c-1-1.3-1.2-3.3-0.6-4.8
		C79,39,78.7,39,78.7,39.1"/>
	<path clip-path="url(#SVGID_3_)" fill="#231F20" d="M88.1,43.2c-0.7,1.4-1.8,2.5-3.2,3.2c-2.1,1-5.1,0.5-6.6-1.4
		c-1.8-2.3-1.2-5.9-0.4-8.5c0-0.1-0.3-0.1-0.3,0c-0.9,2.9-1.5,7.1,1.1,9.3c1.6,1.3,4.1,1.6,6,0.8c1.6-0.6,2.9-1.9,3.6-3.4
		C88.5,43.1,88.2,43.1,88.1,43.2"/>
	<path clip-path="url(#SVGID_3_)" fill="#231F20" d="M73.5,36.6c-1.8,2.3-0.2,2.8,0.2,2.8c0.4,0,1.5-0.4,1.7-0.8
		C75.4,38.6,75,37.8,73.5,36.6"/>
	<path clip-path="url(#SVGID_3_)" fill="#231F20" d="M79.7,40.2c0,1,0.4,2,1.1,2.7c0.9,0.9,2.3,0.7,3.4,0.4c0.2-0.1-0.1-0.1-0.2-0.1
		c-1.3,0.4-2.6,0.4-3.4-0.8c-0.4-0.6-0.6-1.4-0.6-2.2C80,40.1,79.7,40.1,79.7,40.2"/>
	<path clip-path="url(#SVGID_3_)" fill="#231F20" d="M67.4,38.6c0-0.4-0.1-0.7-0.2-0.8c-0.1-0.2-0.7-0.7-1.2-1l0,0
		c-0.3,0.4-1.4,1.9,0.4,2.7C66.6,39.6,67.4,38.6,67.4,38.6L67.4,38.6z"/>
	<path clip-path="url(#SVGID_3_)" fill="#231F20" d="M72.5,24.4c-2.3,1.9-4.2,4.2-5.8,6.8c-1.1,1.7-2.2,3.6-2.8,5.6
		c0,0.1,0.2,0.1,0.3,0c0.4-0.2,1-0.4,1.4-0.2c0.4,0.2,0.9,0.6,1.2,0.9c0.3,0.3,0.2,0.8,0.3,1.1c0.1,0.6,0.1,1.2-0.1,1.7
		c-0.1,0.3-0.3,0.5-0.5,0.8c-0.4,0.5-0.8,0.5-0.4,1.1c0.4,0.7,1.5,1.1,2.3,1c0.2,0,0.1-0.1-0.1-0.1c-0.5,0.1-1-0.1-1.4-0.4
		c-0.2-0.2-0.9-0.7-0.5-1.1c0.3-0.2,0.5-0.5,0.7-0.8c0.5-0.8,0.4-1.8,0.3-2.8c-0.1-0.7-0.8-1.1-1.4-1.4c-0.7-0.4-1.3-0.2-2,0.2
		c0.1,0,0.2,0,0.3,0c0.5-1.9,1.6-3.7,2.6-5.4c1.6-2.6,3.5-5,5.9-6.9C72.9,24.4,72.6,24.4,72.5,24.4"/>
	<path clip-path="url(#SVGID_3_)" fill="#231F20" d="M68.3,45.6c0.3,0.2,0.7,0.2,1.1,0.1c1-0.2,1.9,0.1,2.8,0.4
		c0.7,0.2-0.4,0.3-0.7,0.2c-0.3-0.1-0.6-0.4-0.9-0.5c-0.7-0.1-1.5,0.2-2-0.3C68.5,45.5,68.2,45.5,68.3,45.6c0.3,0.3,0.8,0.3,1.2,0.4
		c0.4,0.1,0.9-0.1,1.2,0.1c0.6,0.3,1.6,0.9,2.1,0.1c0,0,0-0.1,0-0.1c-0.6-0.2-1.3-0.4-1.9-0.6c-0.3-0.1-0.5-0.1-0.8-0.1
		c-0.4,0-1.1,0.3-1.5,0C68.5,45.5,68.2,45.6,68.3,45.6"/>
	<path clip-path="url(#SVGID_3_)" fill="#231F20" d="M73.1,96.8c0,0,20.4-35.2,23.2-36.6c3.1-0.7,8.7-0.4,9.8-0.3
		c1.1,0,1.8,0.2,1.6,1.2c-0.2,1-7.5,37.9-8.7,40.4c-1.1,2.5-2.3,3.2-3,3.5c-0.8,0.2-17.1,0-17.1,0L73.1,96.8z"/>
	<path clip-path="url(#SVGID_3_)" fill="#231F20" d="M70.2,37.2c0.6-0.5,2.3-1.5,3-0.9c0.7,0.6,1.4,1.2,1.9,2c0.2,0.3-0.8,0.6-1,0.6
		c-0.4,0.1-0.7,0.1-1-0.1c-1-0.6,0-1.9,0.4-2.5c0.1-0.1-0.2-0.1-0.3,0c-0.6,0.8-1.4,2.2-0.2,2.7c0.7,0.3,2,0,2.4-0.7
		c0.1-0.1-0.4-0.5-0.4-0.6c-0.5-0.6-1.2-1.4-1.8-1.7c-0.4-0.2-1.3,0.1-1.7,0.3c-0.5,0.2-1.1,0.5-1.6,0.8
		C69.8,37.2,70.1,37.3,70.2,37.2"/>
	<path clip-path="url(#SVGID_3_)" fill="#231F20" d="M65.7,36.6c-0.5,0.7-0.9,1.6-0.2,2.3c0.8,0.8,1.3,0.1,1.9-0.5
		c0.1-0.1-0.2-0.1-0.3,0c-0.2,0.2-0.4,0.4-0.6,0.6c-0.2,0.2-0.3,0.2-0.6,0.1c-0.2-0.1-0.4-0.3-0.5-0.6c-0.3-0.6,0.2-1.4,0.5-1.8
		C66.1,36.6,65.8,36.6,65.7,36.6"/>
	<path clip-path="url(#SVGID_3_)" fill="#231F20" d="M69.1,92.4c-8.5,0-15.4,6.6-15.4,14.8c0,8.2,6.9,14.8,15.4,14.8
		c8.5,0,15.4-6.6,15.4-14.8C84.5,99,77.6,92.4,69.1,92.4 M65.5,113.2c-3.4,0-6.2-3-6.2-6.7c0-3.7,2.8-6.7,6.2-6.7
		c3.4,0,6.2,3,6.2,6.7C71.7,110.2,68.9,113.2,65.5,113.2"/>
	<path clip-path="url(#SVGID_3_)" fill="#231F20" d="M91.6,66.2c-1.5-0.2-3.7,0.1-4.6,1.5c-0.4,0.5,0,1.5,0.1,2.1
		c0.2,0.7,0.4,1.4,0.9,1.9c0.1,0.1,0.3,0,0.3,0c-0.7-0.9-1.1-2.3-1.1-3.4c0-0.7,0.5-1.1,1.1-1.4c1-0.5,2.1-0.7,3.2-0.6
		C91.7,66.3,91.8,66.2,91.6,66.2"/>
	<path clip-path="url(#SVGID_3_)" fill="#231F20" d="M32.4,52c-0.7,0.3-1.6-0.1-2-1c-0.4-0.9-0.2-1.8,0.5-2.2l2.6-1.5
		c0,0.2,0.1,0.3,0.1,0.5c0.3,0.9,1,1.8,1.9,2.7L32.4,52z"/>
	<path clip-path="url(#SVGID_3_)" fill="#231F20" d="M40.3,44.3c1.9-0.7,4.1-1.4,5.7-0.9c2.1,0.6,4.2,7.8,5.4,12.6l0.2,1
		c-1.1,0.1-2,0-2.9-0.6l-0.1-0.5c-1-4.2-2.6-10-4-10.1c-0.8-0.1-2.1,0.4-3.4,0.9l-0.5,0.2c-0.4-0.8-0.8-1.6-1.1-2
		c0-0.1-0.1-0.1-0.1-0.2L40.3,44.3z"/>
	<path clip-path="url(#SVGID_3_)" fill="#231F20" d="M41.8,49.4c-1.5,1-3,2.1-4.5,3.1c-0.1,0.1,0.2,0.1,0.3,0.1c1.5-1,3-2.1,4.5-3.1
		C42.2,49.4,41.9,49.4,41.8,49.4"/>
	<path clip-path="url(#SVGID_3_)" fill="#231F20" d="M86.1,25.8c-2.7,4-4.2,10.3-0.1,14c1,0.9,2.4,1.5,3.7,0.9c1.8-0.7,2-3.2,2-4.8
		c0-0.2,0-0.4,0-0.5c0-0.1-0.3-0.1-0.3,0c0.1,1.7,0,4.1-1.7,5.1c-1.4,0.9-3-0.2-4-1.2c-3.5-3.8-2-9.6,0.6-13.4
		C86.4,25.8,86.1,25.8,86.1,25.8"/>
	<path clip-path="url(#SVGID_3_)" fill="#231F20" d="M100.3,87.9c-7.4,0-13.4,5.8-13.4,12.9c0,7.1,6,12.9,13.4,12.9
		c7.4,0,13.4-5.8,13.4-12.9C113.7,93.6,107.7,87.9,100.3,87.9 M97.2,106.1c-3,0-5.4-2.6-5.4-5.8c0-3.2,2.4-5.8,5.4-5.8
		c3,0,5.4,2.6,5.4,5.8C102.5,103.5,100.1,106.1,97.2,106.1"/>
	<path clip-path="url(#SVGID_3_)" fill="#231F20" d="M146.5,24.3c0.8,0,1.4,0.6,1.4,1.4s-0.6,1.4-1.4,1.4h-0.5V30l0.3,0.3
		c1.7-1.3,3.8-2.2,6.1-2.2c5.3,0,9.6,4.3,9.6,9.6c0,5.3-4.3,9.6-9.6,9.6c-2.2,0-4.1-0.7-5.7-1.9l-0.6,0.6c0,0,0,1.9,0,5h0.5
		c0.8,0,1.4,0.6,1.4,1.4c0,0.8-0.6,1.4-1.4,1.4H146c0,2.4-0.1,5.2-0.1,8.3h0.6c0.8,0,1.4,0.2,1.4,0.5c0,0.3-0.6,0.5-1.4,0.5h-0.7
		c-0.1,12.2-0.3,28.3-0.5,39.2h11.7v3l-5.6,0.9v3l5.6,1.1v5.2h-13.9v0c-0.2,0-0.3,0-0.5,0c-0.9,0-1.7-0.3-2-1V63.1h-0.8
		c-0.8,0-1.4-0.2-1.4-0.5c0-0.3,0.6-0.5,1.4-0.5h0.8v-8.3h-0.8c-0.8,0-1.4-0.6-1.4-1.4c0-0.8,0.6-1.4,1.4-1.4h0.8v-5l-0.8-0.7
		c-1.6,1.3-3.7,2-5.9,2c-5.3,0-9.6-4.3-9.6-9.6c0-5.3,4.3-9.6,9.6-9.6c2.3,0,4.4,0.8,6,2.1l0.6-0.7v-2.5h-0.8
		c-0.8,0-1.4-0.6-1.4-1.4s0.6-1.4,1.4-1.4H146.5 M143.2,35c0.4-1.2,1-2.4,1.8-3.3l-1.6-1.6l-1.7,1.8C142.3,32.8,142.9,33.8,143.2,35
		 M152.1,45.4c4.1,0,7.5-3.3,7.5-7.5c0-4.1-3.3-7.5-7.5-7.5c-1.6,0-3.1,0.5-4.3,1.4l6.2,5.9l-6.1,6.3
		C149.1,44.9,150.6,45.4,152.1,45.4 M133.9,45.4c1.7,0,3.3-0.6,4.5-1.6l-5.9-5.7l5.9-6.1c-1.3-1-2.8-1.6-4.5-1.6
		c-4.1,0-7.5,3.4-7.5,7.5C126.4,42,129.8,45.4,133.9,45.4 M146.4,42.6l4.8-5l-4.8-4.6c-1.1,1.3-1.8,3-1.8,4.8
		C144.7,39.7,145.3,41.3,146.4,42.6 M140,42.1c0.8-1.2,1.3-2.7,1.3-4.2c0-1.6-0.5-3.1-1.4-4.3l-4.2,4.4L140,42.1 M143.6,45.6
		l1.5-1.6c-0.9-1-1.6-2.2-2-3.6c-0.3,1.2-0.9,2.3-1.6,3.2l0.1,0.1L143.6,45.6 M146.5,23.2h-6.7c-1.4,0-2.5,1.1-2.5,2.5
		c0,1.3,1,2.3,2.2,2.4v0.5c-1.7-1-3.6-1.6-5.6-1.6c-5.9,0-10.6,4.8-10.6,10.6c0,5.9,4.8,10.6,10.6,10.6c2,0,3.9-0.5,5.6-1.6v3.2
		c-1.2,0.1-2.2,1.2-2.2,2.4c0,1.3,1,2.3,2.2,2.4V61c-1.4,0.1-2.2,0.7-2.2,1.6c0,0.9,0.9,1.5,2.2,1.6v50.2v0.2l0.1,0.2
		c0.4,1,1.5,1.6,3,1.6c0.1,0,0.1,0,0.2,0l0.4,0h13.9h1.1v-1.1v-5.2v-0.9l-0.9-0.2l-4.8-0.9V107l4.7-0.7l0.9-0.1v-0.9v-3v-1.1h-1.1
		h-10.7c0.2-8.5,0.3-21,0.5-37.1c1.3-0.1,2.1-0.7,2.1-1.6c0-0.9-0.8-1.5-2-1.6l0.1-6.2c1.1-0.2,2-1.2,2-2.4c0-1.2-0.8-2.2-1.9-2.4
		l0-3.1c1.6,0.9,3.4,1.4,5.3,1.4c5.9,0,10.6-4.8,10.6-10.6c0-5.9-4.8-10.6-10.6-10.6c-1.9,0-3.7,0.5-5.3,1.4v-0.4
		c1.1-0.3,1.9-1.2,1.9-2.4C149,24.4,147.9,23.2,146.5,23.2 M149.6,32c0.8-0.3,1.7-0.5,2.5-0.5c3.5,0,6.4,2.9,6.4,6.4
		c0,3.5-2.9,6.4-6.4,6.4c-0.9,0-1.7-0.2-2.5-0.5l5.2-5.4l0.7-0.8l-0.8-0.7L149.6,32z M133.9,44.3c-3.5,0-6.4-2.9-6.4-6.4
		c0-3.5,2.9-6.4,6.4-6.4c1,0,2,0.2,2.9,0.7l-5,5.2l-0.7,0.8l0.8,0.7l5,4.8C135.8,44.1,134.9,44.3,133.9,44.3 M143,32l0.4-0.4
		l0.2,0.2c-0.1,0.2-0.2,0.4-0.4,0.6C143.1,32.2,143.1,32.1,143,32 M146.6,41c-0.5-1-0.8-2-0.8-3.1c0-1.1,0.3-2.2,0.9-3.2l3.1,3
		L146.6,41z M137.2,37.9l2.5-2.6c0.4,0.8,0.5,1.7,0.5,2.6c0,0.9-0.2,1.7-0.5,2.5L137.2,37.9z M142.9,43.4c0.1-0.1,0.2-0.3,0.3-0.4
		c0.2,0.3,0.4,0.6,0.6,0.9l-0.2,0.2L142.9,43.4z"/>
	<path clip-path="url(#SVGID_3_)" fill="#CCC9C7" d="M134,28.1c-5.3,0-9.6,4.3-9.6,9.6c0,5.3,4.3,9.6,9.6,9.6c5.3,0,9.6-4.3,9.6-9.6
		C143.6,32.4,139.3,28.1,134,28.1 M133.9,45.4c-4.1,0-7.5-3.4-7.5-7.5c0-4.1,3.4-7.5,7.5-7.5c4.1,0,7.5,3.4,7.5,7.5
		C141.4,42,138,45.4,133.9,45.4"/>
	<path clip-path="url(#SVGID_3_)" fill="#CCC9C7" d="M152.4,28.1c-5.3,0-9.6,4.3-9.6,9.6c0,5.3,4.3,9.6,9.6,9.6
		c5.3,0,9.6-4.3,9.6-9.6C162,32.4,157.7,28.1,152.4,28.1 M152.1,45.4c-4.1,0-7.5-3.4-7.5-7.5c0-4.1,3.4-7.5,7.5-7.5
		c4.1,0,7.5,3.4,7.5,7.5C159.6,42,156.3,45.4,152.1,45.4"/>
	<path clip-path="url(#SVGID_3_)" fill="#CCC9C7" d="M146.1,45.9l-2.6,2.7l-2.8-2.7v68.4c0.6,1.4,3.6,1.2,4.2,0
		C145.5,113.1,146.1,45.9,146.1,45.9"/>
	<path clip-path="url(#SVGID_3_)" fill="#CCC9C7" d="M143.1,27.1l-10.6,11l8.2,7.9l2.8,2.7l2.6-2.7l8-8.3L143.1,27.1z M145.5,43.6
		l-1.9,1.9l-2-1.9l-5.9-5.7l7.6-7.9l7.9,7.6L145.5,43.6z"/>
	<polygon clip-path="url(#SVGID_3_)" fill="#CCC9C7" points="157.1,115.4 143.2,115.4 143.2,102.3 157.1,102.3 157.1,105.2 
		151.5,106.1 151.5,109.1 157.1,110.2 	"/>
	<path clip-path="url(#SVGID_3_)" fill="#231F20" d="M157.1,115.4c0,0,0-1.5-0.1-5.2c0,0,0.1,0.1,0.1,0.1c-1-0.2-3.1-0.5-5.6-0.9
		l-0.2,0l0-0.2c0-0.5,0-1.7-0.1-3l0-0.3l0.3,0c1-0.2,3.2-0.6,5.6-1c-0.1,0.1-0.2,0.2-0.4,0.4c0-0.6,0-1.8,0-3
		c0.1,0.1,0.3,0.3,0.5,0.5c-2.1,0-5.6,0-9.1,0.1c-1.7,0-3.3,0-4.7,0c0.2-0.2,0.4-0.4,0.5-0.5c0,5.2-0.1,9.7-0.2,13.1
		c-0.2-0.2-0.2-0.2-0.3-0.3C151.9,115.2,157.1,115.4,157.1,115.4s-5.1,0.2-13.9,0.3l-0.3,0l0-0.4c-0.1-3.4-0.1-7.9-0.2-13.1l0-0.5
		h0.5c1.4,0,3.1,0,4.7,0c3.6,0,7,0,9.1,0.1l0.5,0l0,0.5c0,1.2,0,2.4,0,3l0,0.4l-0.4,0c-2.4,0.3-4.6,0.6-5.6,0.8
		c0.1-0.1,0.2-0.3,0.3-0.3c0,1.3-0.1,2.5-0.1,3c-0.1-0.1-0.2-0.2-0.2-0.3c2.5,0.5,4.6,1,5.6,1.2l0.1,0l0,0.1
		C157.1,113.9,157.1,115.4,157.1,115.4"/>
	<polygon clip-path="url(#SVGID_3_)" fill="#CCC9C7" points="146.1,30.5 143.5,29 140.7,30.5 140.7,25.7 146.1,25.7 	"/>
	<path clip-path="url(#SVGID_3_)" fill="#CCC9C7" d="M147.9,52.4c0,0.8-0.6,1.4-1.4,1.4h-6.7c-0.8,0-1.4-0.6-1.4-1.4
		c0-0.8,0.6-1.4,1.4-1.4h6.7C147.3,51,147.9,51.6,147.9,52.4"/>
	<path clip-path="url(#SVGID_3_)" fill="#231F20" d="M147.9,52.4c0,0,0-0.3-0.3-0.8c-0.2-0.2-0.5-0.4-0.8-0.5c-0.4-0.1-0.8,0-1.3,0
		c-1,0-2.2,0.1-3.5,0.1c-0.7,0-1.4,0-2.1,0c-0.6,0-1.1,0.5-1.1,1.1c0,0.5,0.5,1.1,1.1,1.1c0.7,0,1.4,0,2.1,0c1.3,0,2.5,0.1,3.5,0.1
		c0.5,0,1,0.1,1.3,0c0.4-0.1,0.7-0.3,0.8-0.5C148,52.7,147.9,52.4,147.9,52.4c0,0,0.1,0.3-0.2,0.8c-0.2,0.2-0.4,0.5-0.9,0.6
		c-0.4,0.1-0.9,0.1-1.4,0.1c-1,0-2.2,0.1-3.5,0.1c-0.7,0-1.4,0-2.1,0c-0.9,0-1.8-0.7-1.8-1.7c0-0.9,0.9-1.7,1.8-1.7
		c0.7,0,1.4,0,2.1,0c1.3,0,2.5,0.1,3.5,0.1c0.5,0,1,0,1.4,0.1c0.4,0.1,0.7,0.4,0.9,0.6C148,52.1,147.9,52.4,147.9,52.4"/>
	<path clip-path="url(#SVGID_3_)" fill="#CCC9C7" d="M147.9,62.6c0,0.3-0.6,0.5-1.4,0.5h-6.7c-0.8,0-1.4-0.2-1.4-0.5
		c0-0.3,0.6-0.5,1.4-0.5h6.7C147.3,62,147.9,62.3,147.9,62.6"/>
	<path clip-path="url(#SVGID_3_)" fill="#CCC9C7" d="M147.9,25.7c0,0.8-0.6,1.4-1.4,1.4h-6.7c-0.8,0-1.4-0.6-1.4-1.4
		c0-0.8,0.6-1.4,1.4-1.4h6.7C147.3,24.3,147.9,24.9,147.9,25.7"/>
	<path clip-path="url(#SVGID_3_)" fill="#231F20" d="M147.9,25.7c0,0,0-0.3-0.3-0.8c-0.2-0.2-0.5-0.4-0.8-0.5c-0.4-0.1-0.8,0-1.3,0
		c-1,0-2.2,0.1-3.5,0.1c-0.7,0-1.4,0-2.1,0c-0.6,0-1.1,0.5-1.1,1.1c0,0.5,0.5,1.1,1.1,1.1c0.7,0,1.4,0,2.1,0c1.3,0,2.5,0.1,3.5,0.1
		c0.5,0,1,0.1,1.3,0c0.4-0.1,0.7-0.3,0.8-0.5C148,26.1,147.9,25.7,147.9,25.7c0,0,0.1,0.3-0.2,0.8c-0.2,0.2-0.4,0.5-0.9,0.6
		c-0.4,0.1-0.9,0.1-1.4,0.1c-1,0-2.2,0.1-3.5,0.1c-0.7,0-1.4,0-2.1,0c-0.9,0-1.8-0.7-1.8-1.7c0-0.9,0.9-1.7,1.8-1.7
		c0.7,0,1.4,0,2.1,0c1.3,0,2.5,0.1,3.5,0.1c0.5,0,1,0,1.4,0.1c0.4,0.1,0.7,0.4,0.9,0.6C148,25.4,147.9,25.7,147.9,25.7"/>
</g>
</svg>
