<?xml version="1.0" encoding="utf-8"?>
<!-- Generator: Adobe Illustrator 18.1.1, SVG Export Plug-In . SVG Version: 6.00 Build 0)  -->
<!DOCTYPE svg PUBLIC "-//W3C//DTD SVG 1.1//EN" "http://www.w3.org/Graphics/SVG/1.1/DTD/svg11.dtd">
<svg version="1.1" id="Layer_1" xmlns="http://www.w3.org/2000/svg" xmlns:xlink="http://www.w3.org/1999/xlink" x="0px" y="0px"
	 viewBox="0 0 177.2 130" enable-background="new 0 0 177.2 130" xml:space="preserve">
<rect x="142.7" y="20.1" fill="#D8505C" width="34.9" height="50.1"/>
<rect x="144.3" y="0.1" fill="#D8505C" width="33.3" height="20"/>
<polygon fill="#AEB0B3" points="145.2,0.1 145.2,20.3 177.6,20.3 177.6,20 145.3,20 145.3,0.1 "/>
<rect x="134.6" y="70.4" fill="#D8505C" width="43" height="50.2"/>
<polygon fill="#AEB0B3" points="136.2,70.3 136.2,120.7 177.6,120.7 177.6,120.4 136.3,120.4 136.3,70.6 177.6,70.6 177.6,70.3 "/>
<g>
	<defs>
		<rect id="SVGID_3_" x="2" y="0.1" width="175.6" height="129.8"/>
	</defs>
	<clipPath id="SVGID_1_">
		<use xlink:href="#SVGID_3_"  overflow="visible"/>
	</clipPath>
	<path clip-path="url(#SVGID_1_)" fill="#FFFFFF" d="M198.1,48.5c-2-2.6-5.5-5.5-5.7-9c-0.2-3.4-1-11.4-1-11.4H186
		c0,0-0.9,7.9-1,11.4c-0.1,1.4-0.7,2.7-1.5,4h-0.1v0.1c-0.6,0.9-1.3,1.7-2,2.5c0-0.3-0.1-0.5-0.1-0.6c-0.5-0.7-1.4-1.7-2.9-2.3
		c-1.5-0.6-0.7-10.2-0.7-10.2h1.2l-0.9-5.2h-5.1l-0.9,5.2h1.2c0,0,0.9,9.6-0.7,10.2c-1.5,0.6-2.4,1.6-2.9,2.3v-5
		c-0.1-0.6-1.3-0.6-1.5-0.6c-0.2,0-1.5,0.1-1.5,0.6v7.7c-0.2,0-0.5,0-0.7,0.1c0-3-0.1-5-0.2-5c-0.5,0-3.1-1-3.1-1.8v-7.7l0.7-1v-5
		h-6.3v5l0.7,1v7.7c0,0.8-2.6,1.8-3.1,1.8c-0.5,0,0,28.1,0,28.1h9.4h1.8h4h2.7h5.9c0,0.1,0,0.1,0,0.1h1c0,0,0,0.1,0,0.1h18.8
		C199.3,67.2,200.1,51.1,198.1,48.5"/>
	<polygon clip-path="url(#SVGID_1_)" fill="#CBCDCF" points="168,40 168,40 168.1,40 	"/>
	<path clip-path="url(#SVGID_1_)" fill="#FFFFFF" d="M186.6,98.6v-7.7c-0.1-0.6-1.3-0.6-1.5-0.6c-0.2,0-1.5,0.1-1.5,0.6v7.7
		c-0.2,0-0.5,0-0.7,0.1c0-3-0.1-5-0.2-5c-0.5,0-3.1-1-3.1-1.8v-7.7l0.7-1v-5h-6.3v5l0.7,1v7.7c0,0.8-2.6,1.8-3.1,1.8
		c-0.1,0-0.2,2.2-0.2,5.3c-0.4-0.3-0.8-0.4-1.2-0.4v-7.7c-0.1-0.6-1.3-0.6-1.5-0.6c-0.2,0-1.5,0.1-1.5,0.6v7.7
		c-0.6-0.1-1.2,0.3-1.7,0.9c-0.5-2.7-1.3-4.4-2.7-4.2v-6.5c0.8-1.7,0.3-3.4-2.2-3.4c-2.5,0-3.1,1.7-2.2,3.4v6.5
		c-5.5-0.7-2.4,26.5-2.4,26.5h8.6h0.7h6.5h1.4h8h1.8h6.8v-20.4C189.3,100.7,187.9,98.4,186.6,98.6"/>
	<path clip-path="url(#SVGID_1_)" fill="#CBCDCF" d="M168.5,90.3C168.5,90.3,168.5,90.3,168.5,90.3
		C168.5,90.3,168.5,90.3,168.5,90.3L168.5,90.3z"/>
	<polygon clip-path="url(#SVGID_1_)" fill="#CBCDCF" points="160.3,85.3 160.3,85.3 160.3,85.3 	"/>
	<path clip-path="url(#SVGID_1_)" fill="#FFFFFF" d="M161.7,21.4h7.8c0,0,0,0,0-0.1h11.1c0,0,0,0,0,0h4.7c0,0,0.4-31.2,0-31.2
		c-0.4,0-2.4-1.1-2.4-2v-8.5l0.5-1.1l-6.5-5.5h-5l6.5,5.5l0.5,1.1v8.5c0,0.9-2,2-2.4,2c-0.2,0-0.2,4.7-0.2,10.4
		c-1.1-0.2-2-0.5-2-0.7v-2.1l1.1-0.7v-3.6h-7c-0.4-0.4-0.8-0.6-1.3-0.6v-10c0.8-1.7,0.3-3.4-2.2-3.4c-2.5,0-3.1,1.7-2.2,3.4v10
		c-1.6-0.2-2.5,2.2-2.9,5.6c-0.3-0.1-0.5-0.2-0.8-0.2v-7.7c-0.1-0.6-1.3-0.6-1.5-0.6c-0.2,0-1.5,0.1-1.5,0.6v7.7
		c-1.3-0.2-2.7,2.1-2.7,2.7v20.4h7.1H161.7z"/>
	<path clip-path="url(#SVGID_1_)" fill="#CCC9C7" d="M197,47.3c-1.4-1.8-3.1-3.4-4.4-5.4c-0.7-1-1.1-2.1-1.3-3.3
		c-0.1-0.9-0.1-1.8-0.2-2.7c-0.2-3-0.5-6-0.9-8.9c0-0.1-0.1-0.1-0.2-0.1h-5.3c-0.1,0-0.2,0-0.2,0.1c-0.2,1.9-0.4,3.9-0.6,5.8
		c-0.1,1.4-0.3,2.9-0.4,4.3c0,0.7-0.1,1.4-0.2,2.1c-0.1,0.6-0.4,1.2-0.6,1.7c-0.1,0.2-0.6,1.3-0.7,1.3c0,0-0.2,0-0.2,0.1
		c0,0.3-0.6,0.9-0.8,1.1c-0.4,0.5-0.8,1-1.3,1.5c0.1,0,0.2,0,0.4,0c-0.1-0.8-0.6-1.3-1.2-1.8c-0.4-0.4-0.9-0.7-1.3-0.9
		c-0.3-0.2-0.6-0.2-0.9-0.5c-0.7-1.1-0.6-2.9-0.6-4.1c0-1.5,0-3.1,0.1-4.6c0-0.4,0.1-0.8,0.1-1.1c0,0,0,0,0-0.1
		c-0.2,0.1-0.2,0.1-0.1,0.1h0.3h0.9c0,0,0.2,0,0.2-0.1c-0.3-1.7-0.6-3.4-0.9-5.2c0-0.1-0.1-0.1-0.2-0.1h-5.1c-0.1,0-0.2,0-0.2,0.1
		c-0.3,1.7-0.6,3.4-0.9,5.2c0,0.1,0.1,0.1,0.2,0.1h0.7h0.4c0.2,0-0.1-0.1-0.1,0c0,0.3,0,0.6,0.1,0.9c0.1,1.4,0.2,2.9,0.2,4.3
		c0,1.4,0,2.9-0.4,4.3c-0.2,0.7-0.7,0.7-1.3,1c-0.9,0.5-1.5,1.2-2.1,2c0.1,0,0.2,0,0.4,0v-4.7c0-1.2-2.4-1.2-3.1-0.6
		c-0.4,0.3-0.3,0.8-0.3,1.2v3v2.9v0.8c0,0.2,0,0-0.1,0c-0.2,0-0.4,0.1-0.6,0.2c0.1,0,0.2,0,0.3,0.1c0-1.6,0.1-3.2-0.1-4.8
		c0-0.1,0-0.3-0.2-0.3c-0.6,0-1.2-0.3-1.7-0.6c-0.4-0.2-1.3-0.6-1.3-1.2v-1v-3.5V33c0-0.5,0.7-0.9,0.7-1.3v-5c0-0.1-0.1-0.1-0.2-0.1
		h-6.3c0,0-0.2,0-0.2,0.1v3.2v1.6c0,0.4,0.3,0.6,0.5,0.9c0.4,0.7,0.2,1.8,0.2,2.6v4.4c0,0.4,0.1,0.9,0,1.2c-0.3,0.7-1.5,1.1-2.1,1.3
		c-0.5,0.2-0.9,0-1,0.6c-0.2,1.6-0.1,3.3-0.1,5c0,7.6,0.1,15.2,0.2,22.8c0,0.1,0.1,0.1,0.2,0.1H177c-0.1,0-0.1,0-0.2,0
		c0,0.1,0.1,0.1,0.2,0.1h0.4h0.3c0.3,0,0.1,0,0.1,0c0,0.1,0.1,0.1,0.2,0.1h18.8c0.1,0,0.2,0,0.2-0.1c1-4,1.1-8.3,1.2-12.3
		c0-2.3,0-4.5-0.2-6.8C197.9,50,197.8,48.4,197,47.3c-0.1-0.1-0.4,0-0.3,0c0.6,0.8,0.7,1.9,0.9,2.8c0.2,1.5,0.3,3,0.3,4.5
		c0.1,3.5-0.1,7.1-0.4,10.6c-0.1,1.4-0.3,2.8-0.6,4.1c0,0.2-0.1,0.5-0.2,0.7c0,0.2,0,0.2,0.1,0.2h-0.6h-6.7h-7.7h-2.7h-0.8h-0.2
		c-0.2,0,0.1,0,0.1,0c0-0.1-0.1-0.1-0.2-0.1h-0.4h-0.3c-0.4,0-0.1,0-0.1,0c0-0.1-0.1-0.1-0.2-0.1h-23.8c0.2,0,0.2,0.1,0.2-0.1
		c0-0.2,0-0.5,0-0.7c0-0.8,0-1.6,0-2.4c0-2.6-0.1-5.1-0.1-7.7c-0.1-5.1-0.2-10.3,0-15.5c0-0.5,0-1,0.1-1.5c0-0.1,0.4-0.1,0.7-0.2
		c0.7-0.2,1.3-0.5,1.9-0.9c0.8-0.6,0.6-1.6,0.6-2.5v-4.5v-1.3c0-0.3-0.3-0.6-0.5-0.9c-0.5-0.7-0.2-2.1-0.2-3v-1.8v-0.4
		c0,0-0.3,0,0,0h3.7h1.7h0.5c0.4,0,0,0,0-0.1v3v1.6c0,0.4-0.1,0.6-0.4,0.9c-0.4,0.6-0.3,1.2-0.3,1.9v4.1c0,0.7-0.3,2,0.2,2.5
		c0.6,0.8,2,1.3,3,1.4c0.3,0,0.2,4.6,0.2,5c0,0.1,0.2,0.1,0.3,0.1c0.2,0,0.4-0.1,0.6-0.1c0,0,0.2,0,0.2-0.1v-7.6
		c0-0.7,1.2-0.7,1.8-0.6c1.1,0.1,0.9,0.7,0.9,1.5v4c0,0.1,0.3,0.1,0.4,0c0.6-0.8,1.4-1.5,2.3-2c0.4-0.2,0.7-0.3,1-0.7
		c0.5-1,0.5-2.3,0.5-3.3c0.1-2.2,0-4.4-0.2-6.5c0-0.1-0.1-0.1-0.2-0.1h-1.1c-0.2,0,0.1,0.1,0.1,0c0-0.1,0-0.3,0.1-0.4
		c0.2-1,0.3-2,0.5-3c0.1-0.4,0.1-0.8,0.2-1.3c0-0.1,0-0.2,0.1-0.3c0-0.2-0.1,0-0.1,0h2.4h2.5c0.2,0,0,0-0.1-0.1c0,0.1,0,0.2,0,0.3
		c0.1,0.4,0.1,0.9,0.2,1.3c0.2,1,0.3,2,0.5,3.1l0.1,0.4c0,0.2,0,0.1,0.2,0.1h-1.2c-0.1,0-0.2,0-0.2,0.1c-0.2,2.2-0.3,4.3-0.2,6.5
		c0,1.1,0,2.3,0.5,3.3c0.3,0.6,1,0.7,1.4,1c0.8,0.5,1.9,1.4,2,2.4c0,0.1,0.3,0.1,0.4,0c0.4-0.5,0.9-1,1.3-1.5
		c0.2-0.2,0.8-0.8,0.8-1.1c0-0.1-0.2,0.2,0.1,0c0.4-0.3,0.7-1.2,1-1.7c0.8-1.7,0.7-3.6,0.8-5.4c0.2-2.8,0.5-5.5,0.8-8.3
		c0,0.1-0.3,0.1,0.1,0.1h0.7h2.2h1.8h0.4c-0.2,0-0.2-0.2-0.1,0.1c0.3,3.1,0.6,6.1,0.9,9.2c0.1,0.8,0.1,1.7,0.2,2.5
		c0.1,1,0.6,2,1.1,2.9c1.2,2.1,3.1,3.7,4.5,5.6C196.7,47.5,197.1,47.4,197,47.3"/>
	<path clip-path="url(#SVGID_1_)" fill="#9C9EA1" d="M166.8,38.8C166.8,38.8,166.8,38.8,166.8,38.8c0.3,0,0.3-0.2,0.1-0.2h-0.1
		C166.6,38.7,166.6,38.8,166.8,38.8L166.8,38.8l0.1-0.2h-0.1C166.6,38.7,166.6,38.8,166.8,38.8"/>
	<path clip-path="url(#SVGID_1_)" fill="#CCC9C7" d="M185.5,97.4v-5.6v-2.1c0-0.7-1.4-0.7-1.9-0.7c-0.5,0-1.5,0.1-1.5,0.8v2.6v3.6
		v1.1v0.2c0-0.2-0.6,0-0.7,0.1c0.1,0,0.2,0,0.3,0.1c0-1.6,0.1-3.2-0.1-4.8c0-0.1,0-0.3-0.2-0.3c-0.6,0-1.2-0.3-1.7-0.6
		c-0.4-0.2-1.3-0.6-1.3-1.2v-1v-3.5v-2.9c0-0.5,0.7-0.9,0.7-1.3v-5c0-0.1-0.1-0.1-0.2-0.1h-6.3c0,0-0.2,0-0.2,0.1v5
		c0,0.5,0.7,0.8,0.7,1.3v2.9v3.5v1c0,0.6-0.9,1-1.3,1.2c-0.5,0.3-1.1,0.5-1.7,0.6c-0.2,0-0.2,0.2-0.2,0.3c-0.3,1.6-0.1,3.4-0.1,5
		c0.1,0,0.2,0,0.3,0c-0.3-0.2-0.6-0.3-0.9-0.4c-0.1,0-0.2,0.2-0.2,0v-1v-3.8v-2.7c0-0.7-1.3-0.8-1.8-0.8c-0.5,0-1.6,0.1-1.6,0.8v3
		v3.7v0.8c0-0.4-1.6,0.8-1.7,0.8c0.1,0,0.2,0,0.3,0c-0.3-1.6-0.8-4.5-3-4.3c0.1,0,0.2,0.1,0.2,0.1v-5.7v-0.8c0-0.2,0.2-0.6,0.3-0.8
		c0.1-0.4,0.1-0.7,0-1.1c-0.2-1.3-1.6-1.6-2.7-1.6c-1,0-2.4,0.3-2.7,1.5c-0.3,1,0.3,1.8,0.3,2.7v5.9c0.1,0,0.1-0.1,0.2-0.1
		c-1.4-0.1-2.1,1.2-2.5,2.3c-0.7,2.2-0.8,4.6-0.9,6.9c-0.2,5.1,0.1,10.3,0.6,15.4c0.1,0.7,0.1,1.4,0.2,2c0,0.1,0.1,0.1,0.2,0.1h24.4
		h9.2c0,0,0.2,0,0.2-0.1v-13.3v-6.4c0-0.6,0-1-0.3-1.5c-0.5-1-1.5-2.1-2.7-2c-0.2,0-0.1,0.2,0.1,0.2c1.2-0.1,2.5,1.8,2.5,2.9v2.3
		v8.6v7.9v1v0.3c0,0,0.3,0,0,0h-3.6h-22.7h-7c0.1,0,0.1,0.2,0.1-0.1c0-0.2,0-0.4-0.1-0.6c-0.1-0.8-0.1-1.5-0.2-2.3
		c-0.5-5.3-0.8-10.6-0.5-15.9c0.1-1.8,0.3-3.6,0.8-5.2c0.3-0.9,0.9-2.4,2.1-2.3c0.1,0,0.2,0,0.2-0.1v-4.9c0-0.4,0.2-1.3,0-1.7
		c-0.8-1.8,0-3.3,2.1-3.3c2-0.1,2.8,1.4,2.2,3.1c-0.2,0.5-0.1,1.2-0.1,1.7v5.1c0,0.1,0.2,0.1,0.2,0.1c1.8-0.1,2.3,2.9,2.5,4.1
		c0,0.1,0.3,0.1,0.3,0c0.4-0.4,0.9-0.8,1.5-0.8c0,0,0.2,0,0.2-0.1V93v-2.6v-0.7c0-0.5,1-0.6,1.3-0.6c0.3,0,1.3,0.1,1.3,0.6v0.6V93
		v4.4c0,0.1,0.1,0.1,0.2,0.1c0.3,0.1,0.7,0.2,1,0.3c0.1,0,0.3,0.1,0.3,0c0-0.5-0.2-5.1,0.3-5.2c0.9-0.1,2.7-0.8,3-1.7
		c0.1-0.3,0-0.7,0-1v-2.1v-4.1c0-0.1,0.1-0.5,0-0.6c-0.2-0.3-0.7-0.8-0.7-1.1v-3.7V77c0,0.1-0.3,0.1,0,0.1h0.7h4.1h1.1
		c0.2,0-0.1-0.1-0.1,0v0.4V81v1c0,0.2-0.5,0.8-0.7,1c-0.1,0.1,0,0.4,0,0.6v1.5v4c0,0.7-0.2,1.6,0.3,2.2c0.4,0.4,1.1,0.7,1.6,0.9
		c0.2,0.1,1.2,0.3,1.2,0.4c0.2,0.4,0.1,1.2,0.1,1.7c0,1.1,0,2.2,0.1,3.3c0,0.1,0.3,0.1,0.3,0.1c0.2,0,0.4-0.1,0.6-0.1
		c0,0,0.2,0,0.2-0.1V93v-2.6v-0.7c0-0.5,1-0.6,1.3-0.6c0.4,0,1.3,0.1,1.3,0.6v0.6V93v4.4C185.2,97.5,185.5,97.5,185.5,97.4"/>
	<path clip-path="url(#SVGID_1_)" fill="#9C9EA1" d="M167.3,89.2L167.3,89.2c0.3,0,0.3-0.2,0.1-0.2h-0.1C167,89,167,89.2,167.3,89.2
		L167.3,89.2l0.1-0.2c0,0-0.1,0-0.1,0C167,89,167,89.2,167.3,89.2"/>
	<path clip-path="url(#SVGID_1_)" fill="#9C9EA1" d="M159,84.1c0,0,0.1,0,0.1,0c0.2,0,0.1-0.2,0-0.2h0C158.9,84,158.9,84.1,159,84.1
		L159,84.1c0,0,0-0.1,0-0.2h0.1C159,84,158.8,84.1,159,84.1"/>
	<path clip-path="url(#SVGID_1_)" fill="#CCC9C7" d="M160.5,20.2h7.8c0.1,0,0.2,0,0.2-0.1c0,0-0.3,0-0.1,0h0.3h1.3h3.8h5.5
		c0,0,0.2,0,0.2-0.1c0,0.1-0.3,0.1,0,0.1h0.5h1.6h2.4c0,0,0.2,0,0.2-0.1c0.1-9,0.2-18,0.2-27c0-1.3,0.1-2.7-0.1-4.1
		c0-0.1,0-0.2-0.1-0.2c-0.7-0.3-1.3-0.5-1.8-1c-0.9-0.8-0.6-2.2-0.6-3.3V-20v-1.4c0-0.4,0.2-0.7,0.4-1c0.4-0.7-6.3-1.7-6.3-2.5v-3.4
		v0c0-0.1-0.1-0.1-0.2-0.1h-5c0,0-0.2,0-0.2,0.1c0,1.8,6.5,3.7,6.5,5.5c0,0.4,0.5,0.8,0.5,1.2v0.8v4.1v3.4c0,0.7-0.5,1.1-1,1.5
		c-0.3,0.2-0.7,0.5-1.1,0.6c-0.1,0-0.2,0-0.3,0.1c-0.1,0.2-0.1,0.6-0.1,0.8c0,0.7,0,1.5-0.1,2.2c0,2.4,0,4.9,0,7.3
		c0.1,0,0.2,0,0.3-0.1c-0.4-0.1-1.9-0.2-1.9-0.8v-1.6c0-0.7,0.7-0.6,1.1-1.1c0.2-0.3,0-1.3,0-1.6v-2c0-0.1-0.1-0.1-0.2-0.1h-6.5
		c-0.5,0-0.5-0.2-0.9-0.4c-0.1,0-0.7-0.3-0.7,0v-0.2v-3.2v-6.6c0-0.3,0.3-0.7,0.3-1c0.1-0.4,0-0.7-0.1-1.1c-0.2-0.6-0.7-1-1.3-1.3
		c-1.2-0.5-3-0.3-3.8,0.8c-0.7,1,0,1.9,0,2.9v3.3v6.4c0.1,0,0.1-0.1,0.2-0.1c-2.5-0.2-2.9,4-3.1,5.7c0.1,0,0.2,0,0.3-0.1
		c-0.2-0.1-0.4-0.2-0.7-0.2c-0.1,0-0.1,0.1-0.1,0v-1.1v-3.5v-2.8c0-0.7-0.9-0.8-1.5-0.9c-0.4,0-1.9,0-1.9,0.7v1.9V-3
		c0.1,0,0.2-0.1,0.2-0.1c-1.8-0.1-3,1.9-3,3.5v6.3v13.5c0,0.1,0.1,0.1,0.2,0.1H160.5c0.2,0,0.2-0.2,0-0.2h-6.3h-1.6H152
		c-0.2,0,0.1,0.1,0.1-0.1v-2.3V1.2v-1.4c0-1.1,1.4-2.8,2.5-2.7c0.1,0,0.2,0,0.2-0.1v-4.4V-10v-0.7c0-0.5,1-0.6,1.3-0.6
		c0.3,0,1.3,0.1,1.3,0.5v0.6v2.7V-3c0,0.1,0.1,0.1,0.2,0.1c0.2,0.1,0.5,0.1,0.7,0.1c0.1,0,0.3,0.1,0.3-0.1c0.2-1.3,0.5-5.7,2.7-5.5
		c0.1,0,0.2,0,0.2-0.1v-6.4v-3.3c0-0.3,0-0.4-0.2-0.7c-0.4-0.9-0.2-1.9,0.6-2.5c1.1-0.8,3.1-0.5,3.8,0.6c0.2,0.3,0.2,0.8,0.2,1.2
		c0,0.4-0.4,0.8-0.4,1.2v2.3v7.5v0.3c0,0.1,0.1,0.1,0.2,0.1c1,0,0.8,0.6,1.4,0.6h0.5h2.5h2.7h0.9h0.3c0.2,0-0.1-0.1-0.1,0v2.3v1.1
		c0,0.3-0.3,0.4-0.6,0.6c-0.1,0.1-0.5,0.2-0.5,0.4v1.5c0,0.4-0.1,0.6,0.2,0.8c0.5,0.3,1.2,0.4,1.8,0.5c0.1,0,0.3,0,0.3-0.1
		c0-2.5,0-5,0-7.6c0-0.7,0-1.4,0.1-2.1c0-0.5-0.1-0.6,0.3-0.7c1-0.4,2.2-1.1,2.2-2.3v-3.9v-3.9c0-0.6-0.5-1.1-0.5-1.7
		c0-1.2-6.5-2.5-6.5-3.7v-1.5c0-0.2,0-0.1-0.1-0.1h0.6h3.9h0.4c-0.1,0-0.1-0.1-0.1,0.1v1.6c0,1.2,6.5,2.4,6.5,3.6
		c0,0.4-0.3,0.8-0.5,1.1c-0.1,0.2-0.1,0.4-0.1,0.6v7.8c0,1.1,1.3,1.9,2.2,2.2c0.3,0.1,0.2,0,0.2,0.2c0,0.2,0,0.4,0,0.6
		c0.2,4.6,0.1,9.3,0.1,13.9c0,5-0.1,10-0.1,14.9l0,1.2c0,0.1,0,0.2,0,0.3c0,0.2,0.2,0,0.1,0h-4.6c-0.1,0-0.2,0-0.2,0.1
		c0-0.1,0.3-0.1,0.1-0.1h-0.3h-1.3h-3.8h-5.5c-0.1,0-0.2,0-0.2,0.1c0,0,0.3,0,0.1,0H168h-0.8h-2.8h-3.9
		C160.3,20.1,160.3,20.2,160.5,20.2"/>
	<rect x="149.4" y="20.2" clip-path="url(#SVGID_1_)" fill="#231F20" width="34.6" height="0.7"/>
	<rect x="148.6" y="20" clip-path="url(#SVGID_1_)" fill="#231F20" width="35.5" height="1"/>
	<rect x="143.7" y="70" clip-path="url(#SVGID_1_)" fill="#231F20" width="40.4" height="0.7"/>
	<rect x="142.7" y="69.9" clip-path="url(#SVGID_1_)" fill="#231F20" width="41.4" height="1"/>
	<rect x="148.3" y="120.5" clip-path="url(#SVGID_1_)" fill="#231F20" width="35.8" height="0.7"/>
	<rect x="147.4" y="120.3" clip-path="url(#SVGID_1_)" fill="#231F20" width="36.7" height="1"/>
	<rect x="135" y="-14.2" clip-path="url(#SVGID_1_)" fill="#FFFFFF" width="16.3" height="175"/>
	<path clip-path="url(#SVGID_1_)" fill="#FFFFFF" d="M151.3,165.6H135V-14.2h16.3V165.6z M151.8-16h-0.4H135h-0.4v1.8v179.8v1.8h0.4
		h16.3h0.4v-1.8V-14.2V-16z"/>
	
		<line clip-path="url(#SVGID_1_)" fill="none" stroke="#231F20" stroke-width="2" stroke-miterlimit="10" x1="151.3" y1="-17.4" x2="151.3" y2="163.5"/>
	<path clip-path="url(#SVGID_1_)" fill="#231F20" d="M18.6,54.7c0.6,0,1,0.5,1,1c0,0.6-0.5,1-1,1h-0.3v2.1l0.2,0.2
		c1.2-1,2.7-1.6,4.4-1.6c3.8,0,6.9,3.1,6.9,6.9c0,3.8-3.1,6.9-6.9,6.9c-1.6,0-3-0.5-4.1-1.4l-0.4,0.4c0,0,0,1.4,0,3.6h0.4
		c0.6,0,1,0.5,1,1c0,0.6-0.5,1-1,1h-0.4c0,1.7,0,3.7-0.1,5.9h0.5c0.6,0,1,0.2,1,0.4c0,0.2-0.5,0.4-1,0.4h-0.5
		c-0.1,8.8-0.2,20.3-0.4,28.2h8.4v2.2l-4,0.6v2.1l4,0.8v3.7h-10v0c-0.1,0-0.2,0-0.4,0c-0.6,0-1.2-0.2-1.4-0.7V82.6h-0.6
		c-0.6,0-1-0.2-1-0.4c0-0.2,0.5-0.4,1-0.4h0.6v-5.9h-0.6c-0.6,0-1-0.4-1-1c0-0.6,0.5-1,1-1h0.6v-3.6l-0.5-0.5
		c-1.2,0.9-2.6,1.5-4.2,1.5c-3.8,0-6.9-3.1-6.9-6.9c0-3.8,3.1-6.9,6.9-6.9c1.6,0,3.1,0.6,4.3,1.5l0.5-0.5v-1.8h-0.6
		c-0.6,0-1-0.5-1-1c0-0.6,0.5-1,1-1H18.6 M16.2,62.4c0.3-0.9,0.7-1.7,1.3-2.4l-1.2-1.1l-1.2,1.3C15.6,60.8,16,61.6,16.2,62.4
		 M22.7,69.9c3,0,5.4-2.4,5.4-5.4c0-3-2.4-5.4-5.4-5.4c-1.1,0-2.2,0.4-3.1,1l4.4,4.3l-4.4,4.6C20.5,69.5,21.5,69.9,22.7,69.9
		 M9.5,69.9c1.2,0,2.4-0.4,3.3-1.1l-4.3-4.1l4.2-4.4c-0.9-0.7-2-1.1-3.2-1.1c-3,0-5.4,2.4-5.4,5.4C4.1,67.4,6.5,69.9,9.5,69.9
		 M18.5,67.9l3.4-3.6L18.6,61c-0.8,0.9-1.3,2.1-1.3,3.4C17.3,65.8,17.8,67,18.5,67.9 M13.9,67.5c0.6-0.9,1-1.9,1-3
		c0-1.2-0.4-2.2-1-3.1l-3.1,3.2L13.9,67.5 M16.5,70l1.1-1.2c-0.6-0.7-1.1-1.6-1.4-2.6c-0.2,0.8-0.7,1.6-1.2,2.3l0,0L16.5,70
		 M18.6,53.9h-4.8c-1,0-1.8,0.8-1.8,1.8c0,0.9,0.7,1.7,1.6,1.8v0.4c-1.2-0.7-2.6-1.2-4-1.2c-4.2,0-7.6,3.4-7.6,7.6
		C2,68.5,5.4,72,9.6,72c1.4,0,2.8-0.4,4-1.2v2.3c-0.9,0.1-1.6,0.8-1.6,1.8c0,0.9,0.7,1.7,1.6,1.8v4.4c-1,0-1.6,0.5-1.6,1.1
		c0,0.7,0.6,1.1,1.6,1.1v36.1v0.2l0.1,0.1c0.3,0.7,1.1,1.2,2.1,1.2c0,0,0.1,0,0.1,0l0.3,0h10H27v-0.8v-3.7v-0.6l-0.6-0.1l-3.4-0.6
		v-0.9l3.4-0.5l0.6-0.1v-0.6v-2.2V110h-0.8h-7.7c0.1-6.1,0.2-15.1,0.4-26.7c0.9-0.1,1.5-0.5,1.5-1.1c0-0.6-0.6-1-1.5-1.1l0-4.5
		c0.8-0.2,1.4-0.9,1.4-1.7c0-0.8-0.6-1.6-1.4-1.7l0-2.2c1.2,0.7,2.5,1,3.8,1c4.2,0,7.6-3.4,7.6-7.6c0-4.2-3.4-7.6-7.6-7.6
		c-1.3,0-2.6,0.4-3.8,1v-0.3c0.8-0.2,1.4-0.9,1.4-1.7C20.4,54.7,19.6,53.9,18.6,53.9 M20.8,60.2c0.6-0.2,1.2-0.4,1.8-0.4
		c2.6,0,4.6,2.1,4.6,4.6c0,2.5-2.1,4.6-4.6,4.6c-0.6,0-1.3-0.1-1.8-0.4l3.7-3.9l0.5-0.5l-0.5-0.5L20.8,60.2z M9.5,69.1
		c-2.6,0-4.6-2.1-4.6-4.6c0-2.6,2.1-4.6,4.6-4.6c0.7,0,1.4,0.2,2.1,0.5L8,64.1l-0.5,0.5L8,65.2l3.6,3.4
		C10.9,68.9,10.2,69.1,9.5,69.1 M16.1,60.2l0.3-0.3l0.1,0.1c-0.1,0.1-0.2,0.3-0.3,0.4C16.2,60.4,16.1,60.3,16.1,60.2 M18.6,66.7
		C18.2,66,18,65.3,18,64.5c0-0.8,0.2-1.6,0.6-2.3l2.3,2.2L18.6,66.7z M11.9,64.5l1.8-1.9c0.3,0.6,0.4,1.2,0.4,1.9
		c0,0.6-0.1,1.2-0.4,1.8L11.9,64.5z M16,68.5c0.1-0.1,0.1-0.2,0.2-0.3c0.1,0.2,0.3,0.4,0.4,0.6l-0.1,0.1L16,68.5z"/>
	<path clip-path="url(#SVGID_1_)" fill="#CCC9C7" d="M9.6,57.4c-3.8,0-6.9,3.1-6.9,6.9c0,3.8,3.1,6.9,6.9,6.9c3.8,0,6.9-3.1,6.9-6.9
		C16.5,60.5,13.4,57.4,9.6,57.4 M9.5,69.9c-3,0-5.4-2.4-5.4-5.4c0-3,2.4-5.4,5.4-5.4c3,0,5.4,2.4,5.4,5.4
		C14.9,67.4,12.5,69.9,9.5,69.9"/>
	<path clip-path="url(#SVGID_1_)" fill="#CCC9C7" d="M22.8,57.4c-3.8,0-6.9,3.1-6.9,6.9c0,3.8,3.1,6.9,6.9,6.9
		c3.8,0,6.9-3.1,6.9-6.9C29.7,60.5,26.6,57.4,22.8,57.4 M22.7,69.9c-3,0-5.4-2.4-5.4-5.4c0-3,2.4-5.4,5.4-5.4c3,0,5.4,2.4,5.4,5.4
		C28,67.4,25.6,69.9,22.7,69.9"/>
	<path clip-path="url(#SVGID_1_)" fill="#CCC9C7" d="M18.3,70.3l-1.9,1.9l-2-1.9v49.2c0.4,1,2.6,0.9,3,0
		C17.9,118.6,18.3,70.3,18.3,70.3"/>
	<path clip-path="url(#SVGID_1_)" fill="#CCC9C7" d="M16.1,56.7l-7.6,7.9l5.9,5.7l2,1.9l1.9-1.9l5.7-5.9L16.1,56.7z M17.9,68.6
		L16.5,70l-1.4-1.4l-4.2-4.1l5.5-5.7l5.7,5.5L17.9,68.6z"/>
	<polygon clip-path="url(#SVGID_1_)" fill="#CCC9C7" points="26.2,120.2 16.2,120.2 16.2,110.8 26.2,110.8 26.2,112.9 22.2,113.6 
		22.2,115.7 26.2,116.5 	"/>
	<path clip-path="url(#SVGID_1_)" fill="#231F20" d="M26.2,120.2c0,0,0-1.1-0.1-3.7c0,0,0,0.1,0.1,0.1c-0.7-0.1-2.2-0.4-4.1-0.7
		l-0.2,0l0-0.2c0-0.3,0-1.2,0-2.2l0-0.2l0.2,0c0.8-0.1,2.3-0.4,4-0.7c0,0-0.2,0.2-0.3,0.3c0-0.4,0-1.3,0-2.2
		c0.1,0.1,0.2,0.2,0.3,0.3c-1.5,0-4,0-6.6,0c-1.2,0-2.4,0-3.4,0c0.1-0.1,0.3-0.3,0.4-0.4c0,3.7-0.1,7-0.1,9.4
		c-0.1-0.1-0.2-0.2-0.2-0.2C22.5,120.1,26.2,120.2,26.2,120.2s-3.7,0.1-10,0.2l-0.2,0l0-0.3c-0.1-2.4-0.1-5.7-0.1-9.4l0-0.4h0.4
		c1,0,2.2,0,3.4,0c2.6,0,5,0,6.6,0l0.3,0l0,0.3c0,0.9,0,1.8,0,2.2l0,0.3l-0.3,0c-1.7,0.2-3.3,0.5-4.1,0.6c0.1-0.1,0.2-0.2,0.2-0.2
		c0,0.9,0,1.8,0,2.2c-0.1-0.1-0.1-0.2-0.2-0.2c1.8,0.4,3.3,0.7,4,0.9l0.1,0l0,0.1C26.2,119.2,26.2,120.2,26.2,120.2"/>
	<polygon clip-path="url(#SVGID_1_)" fill="#CCC9C7" points="18.3,59.2 16.4,58.1 14.4,59.2 14.4,55.7 18.3,55.7 	"/>
	<path clip-path="url(#SVGID_1_)" fill="#CCC9C7" d="M19.6,74.9c0,0.6-0.5,1-1,1h-4.8c-0.6,0-1-0.4-1-1c0-0.6,0.5-1,1-1h4.8
		C19.2,73.9,19.6,74.4,19.6,74.9"/>
	<path clip-path="url(#SVGID_1_)" fill="#231F20" d="M19.6,74.9c0,0,0-0.2-0.2-0.6c-0.1-0.2-0.3-0.3-0.6-0.3c-0.3,0-0.6,0-1,0
		c-0.7,0-1.6,0-2.5,0.1c-0.5,0-1,0-1.5,0c-0.4,0-0.8,0.3-0.8,0.8c0,0.4,0.4,0.8,0.8,0.8c0.5,0,1,0,1.5,0c0.9,0,1.8,0.1,2.5,0.1
		c0.4,0,0.7,0.1,1,0c0.3,0,0.5-0.2,0.6-0.3C19.7,75.2,19.6,74.9,19.6,74.9c0,0,0.1,0.2-0.2,0.6c-0.1,0.2-0.3,0.4-0.6,0.4
		c-0.3,0.1-0.6,0-1,0.1c-0.7,0-1.6,0-2.5,0.1c-0.5,0-1,0-1.5,0c-0.6,0-1.3-0.5-1.3-1.3c0-0.7,0.6-1.3,1.3-1.2c0.5,0,1,0,1.5,0
		c0.9,0,1.8,0.1,2.5,0.1c0.4,0,0.7,0,1,0.1c0.3,0.1,0.5,0.3,0.6,0.4C19.7,74.7,19.6,74.9,19.6,74.9"/>
	<path clip-path="url(#SVGID_1_)" fill="#CCC9C7" d="M19.6,82.2c0,0.2-0.5,0.4-1,0.4h-4.8c-0.6,0-1-0.2-1-0.4c0-0.2,0.5-0.4,1-0.4
		h4.8C19.2,81.9,19.6,82,19.6,82.2"/>
	<path clip-path="url(#SVGID_1_)" fill="#CCC9C7" d="M19.6,55.7c0,0.6-0.5,1-1,1h-4.8c-0.6,0-1-0.5-1-1c0-0.6,0.5-1,1-1h4.8
		C19.2,54.7,19.6,55.1,19.6,55.7"/>
	<path clip-path="url(#SVGID_1_)" fill="#231F20" d="M19.6,55.7c0,0,0-0.2-0.2-0.6c-0.1-0.2-0.3-0.3-0.6-0.3c-0.3,0-0.6,0-1,0
		c-0.7,0-1.6,0-2.5,0.1c-0.5,0-1,0-1.5,0c-0.4,0-0.8,0.3-0.8,0.8c0,0.4,0.4,0.8,0.8,0.8c0.5,0,1,0,1.5,0c0.9,0,1.8,0.1,2.5,0.1
		c0.4,0,0.7,0.1,1,0c0.3,0,0.5-0.2,0.6-0.3C19.7,56,19.6,55.7,19.6,55.7c0,0,0.1,0.2-0.2,0.6c-0.1,0.2-0.3,0.4-0.6,0.4
		c-0.3,0.1-0.6,0-1,0.1c-0.7,0-1.6,0.1-2.5,0.1c-0.5,0-1,0-1.5,0c-0.6,0-1.3-0.5-1.3-1.3c0-0.7,0.6-1.3,1.3-1.2c0.5,0,1,0,1.5,0
		c0.9,0,1.8,0.1,2.5,0.1c0.4,0,0.7,0,1,0.1c0.3,0.1,0.5,0.3,0.6,0.5C19.7,55.5,19.6,55.7,19.6,55.7"/>
	<path clip-path="url(#SVGID_1_)" fill="#231F20" d="M38.8,36.3c0.6,0,1,0.5,1,1c0,0.6-0.5,1-1,1h-0.3v2.1l0.2,0.2
		c1.2-1,2.7-1.6,4.4-1.6c3.8,0,6.9,3.1,6.9,6.9c0,3.8-3.1,6.9-6.9,6.9c-1.6,0-3-0.5-4.1-1.4l-0.4,0.4c0,0,0,1.4,0,3.6h0.4
		c0.6,0,1,0.5,1,1c0,0.6-0.5,1-1,1h-0.4c0,1.7,0,3.7-0.1,5.9h0.5c0.6,0,1,0.2,1,0.4c0,0.2-0.5,0.4-1,0.4h-0.5
		C38.3,73,38.1,84.6,38,92.4h8.4v2.2l-4,0.6v2.1l4,0.8v3.7h-10v0c-0.1,0-0.2,0-0.4,0c-0.6,0-1.2-0.2-1.4-0.7V64.2H34
		c-0.6,0-1-0.2-1-0.4c0-0.2,0.5-0.4,1-0.4h0.6v-5.9H34c-0.6,0-1-0.5-1-1c0-0.6,0.5-1,1-1h0.6v-3.6l-0.5-0.5
		c-1.2,0.9-2.6,1.5-4.2,1.5c-3.8,0-6.9-3.1-6.9-6.9c0-3.8,3.1-6.9,6.9-6.9c1.6,0,3.1,0.6,4.3,1.5l0.5-0.5v-1.8H34c-0.6,0-1-0.5-1-1
		c0-0.6,0.5-1,1-1H38.8 M36.4,44c0.3-0.9,0.7-1.7,1.3-2.4l-1.2-1.1l-1.2,1.3C35.8,42.4,36.2,43.2,36.4,44 M42.9,51.5
		c3,0,5.4-2.4,5.4-5.4c0-3-2.4-5.4-5.4-5.4c-1.1,0-2.2,0.4-3.1,1l4.4,4.3l-4.4,4.6C40.7,51.1,41.7,51.5,42.9,51.5 M29.7,51.5
		c1.2,0,2.4-0.4,3.3-1.1l-4.3-4.1l4.2-4.4c-0.9-0.7-2-1.1-3.3-1.1c-3,0-5.4,2.4-5.4,5.4C24.4,49.1,26.8,51.5,29.7,51.5 M38.8,49.5
		l3.4-3.6l-3.4-3.3c-0.8,0.9-1.3,2.1-1.3,3.5C37.5,47.4,38,48.6,38.8,49.5 M34.2,49.1c0.6-0.9,1-1.9,1-3c0-1.2-0.4-2.2-1-3.1
		l-3.1,3.2L34.2,49.1 M36.7,51.6l1.1-1.2c-0.6-0.7-1.1-1.6-1.4-2.6c-0.2,0.8-0.7,1.6-1.2,2.3l0,0L36.7,51.6 M38.8,35.6H34
		c-1,0-1.8,0.8-1.8,1.8c0,0.9,0.7,1.7,1.6,1.8v0.4c-1.2-0.7-2.6-1.2-4-1.2c-4.2,0-7.6,3.4-7.6,7.6s3.4,7.6,7.6,7.6
		c1.4,0,2.8-0.4,4-1.2v2.3c-0.9,0.1-1.6,0.8-1.6,1.8c0,0.9,0.7,1.7,1.6,1.8v4.4c-1,0-1.6,0.5-1.6,1.1c0,0.7,0.6,1.1,1.6,1.1v36.1
		v0.2l0.1,0.1c0.3,0.7,1.1,1.2,2.1,1.2c0,0,0.1,0,0.1,0l0.3,0h10h0.8v-0.8v-3.7v-0.6l-0.6-0.1l-3.4-0.6v-0.9l3.4-0.5l0.6-0.1v-0.6
		v-2.2v-0.8h-0.8h-7.7c0.1-6.1,0.2-15.1,0.4-26.7c0.9-0.1,1.5-0.5,1.5-1.1c0-0.6-0.6-1-1.5-1.1l0-4.5c0.8-0.2,1.4-0.9,1.4-1.7
		c0-0.8-0.6-1.6-1.4-1.7l0-2.2c1.2,0.7,2.5,1,3.8,1c4.2,0,7.6-3.4,7.6-7.6s-3.4-7.6-7.6-7.6c-1.3,0-2.6,0.4-3.8,1V39
		c0.8-0.2,1.4-0.9,1.4-1.7C40.6,36.3,39.8,35.6,38.8,35.6 M41.1,41.8c0.6-0.2,1.2-0.4,1.8-0.4c2.6,0,4.6,2.1,4.6,4.6
		c0,2.5-2.1,4.6-4.6,4.6c-0.6,0-1.3-0.1-1.8-0.4l3.7-3.9l0.5-0.5l-0.5-0.5L41.1,41.8z M29.7,50.7c-2.6,0-4.6-2.1-4.6-4.6
		c0-2.6,2.1-4.6,4.6-4.6c0.7,0,1.4,0.2,2.1,0.5l-3.6,3.7l-0.5,0.5l0.5,0.5l3.6,3.4C31.1,50.5,30.5,50.7,29.7,50.7 M36.3,41.8
		l0.3-0.3l0.1,0.1c-0.1,0.1-0.2,0.3-0.3,0.4C36.4,42,36.3,41.9,36.3,41.8 M38.9,48.3c-0.4-0.7-0.6-1.5-0.6-2.2
		c0-0.8,0.2-1.6,0.6-2.3l2.3,2.2L38.9,48.3z M32.1,46.1l1.8-1.9c0.3,0.6,0.4,1.2,0.4,1.9c0,0.6-0.1,1.2-0.4,1.8L32.1,46.1z
		 M36.3,50.1c0.1-0.1,0.1-0.2,0.2-0.3c0.1,0.2,0.3,0.4,0.4,0.6l-0.1,0.1L36.3,50.1z"/>
	<path clip-path="url(#SVGID_1_)" fill="#CCC9C7" d="M29.8,39.1c-3.8,0-6.9,3.1-6.9,6.9c0,3.8,3.1,6.9,6.9,6.9
		c3.8,0,6.9-3.1,6.9-6.9C36.7,42.1,33.6,39.1,29.8,39.1 M29.7,51.5c-3,0-5.4-2.4-5.4-5.4c0-3,2.4-5.4,5.4-5.4c3,0,5.4,2.4,5.4,5.4
		C35.1,49.1,32.7,51.5,29.7,51.5"/>
	<path clip-path="url(#SVGID_1_)" fill="#CCC9C7" d="M43.1,39.1c-3.8,0-6.9,3.1-6.9,6.9c0,3.8,3.1,6.9,6.9,6.9
		c3.8,0,6.9-3.1,6.9-6.9C49.9,42.1,46.9,39.1,43.1,39.1 M42.9,51.5c-3,0-5.4-2.4-5.4-5.4c0-3,2.4-5.4,5.4-5.4c3,0,5.4,2.4,5.4,5.4
		C48.3,49.1,45.9,51.5,42.9,51.5"/>
	<path clip-path="url(#SVGID_1_)" fill="#CCC9C7" d="M38.5,51.9l-1.9,1.9l-2-1.9v49.2c0.4,1,2.6,0.9,3,0
		C38.1,100.2,38.5,51.9,38.5,51.9"/>
	<path clip-path="url(#SVGID_1_)" fill="#CCC9C7" d="M36.3,38.3l-7.6,7.9l5.9,5.7l2,1.9l1.9-1.9l5.7-5.9L36.3,38.3z M38.1,50.2
		l-1.3,1.4l-1.4-1.4l-4.2-4.1l5.5-5.7l5.7,5.5L38.1,50.2z"/>
	<polygon clip-path="url(#SVGID_1_)" fill="#CCC9C7" points="46.4,101.8 36.4,101.8 36.4,92.4 46.4,92.4 46.4,94.6 42.4,95.2 
		42.4,97.3 46.4,98.1 	"/>
	<path clip-path="url(#SVGID_1_)" fill="#231F20" d="M46.4,101.8c0,0,0-1.1-0.1-3.7c0,0,0,0.1,0.1,0.1c-0.7-0.1-2.2-0.4-4.1-0.7
		l-0.1,0l0-0.2c0-0.3,0-1.2,0-2.1l0-0.2l0.2,0c0.8-0.1,2.3-0.4,4-0.7c0,0-0.2,0.2-0.3,0.3c0-0.4,0-1.3,0-2.2
		c0.1,0.1,0.2,0.2,0.3,0.3c-1.5,0-4,0-6.6,0c-1.2,0-2.4,0-3.4,0c0.1-0.1,0.3-0.3,0.4-0.4c0,3.7-0.1,7-0.1,9.4
		c-0.1-0.1-0.2-0.2-0.2-0.2C42.7,101.7,46.4,101.8,46.4,101.8s-3.7,0.1-10,0.2l-0.2,0l0-0.3c-0.1-2.4-0.1-5.7-0.1-9.4l0-0.4h0.4
		c1,0,2.2,0,3.4,0c2.6,0,5,0,6.6,0l0.3,0l0,0.3c0,0.9,0,1.8,0,2.2l0,0.3l-0.3,0c-1.7,0.2-3.3,0.5-4.1,0.6c0.1-0.1,0.2-0.2,0.2-0.2
		c0,0.9,0,1.8,0,2.1c-0.1-0.1-0.1-0.2-0.2-0.2c1.8,0.4,3.3,0.7,4,0.9l0.1,0l0,0.1C46.5,100.8,46.4,101.8,46.4,101.8"/>
	<polygon clip-path="url(#SVGID_1_)" fill="#CCC9C7" points="38.5,40.8 36.6,39.7 34.6,40.8 34.6,37.3 38.5,37.3 	"/>
	<path clip-path="url(#SVGID_1_)" fill="#CCC9C7" d="M39.9,56.5c0,0.6-0.5,1-1,1H34c-0.6,0-1-0.5-1-1c0-0.6,0.5-1,1-1h4.8
		C39.4,55.5,39.9,56,39.9,56.5"/>
	<path clip-path="url(#SVGID_1_)" fill="#231F20" d="M39.9,56.5c0,0,0-0.2-0.2-0.6c-0.1-0.2-0.3-0.3-0.6-0.3c-0.3,0-0.6,0-1,0
		c-0.7,0-1.6,0-2.5,0.1c-0.5,0-1,0-1.5,0c-0.4,0-0.8,0.3-0.8,0.8c0,0.4,0.4,0.8,0.8,0.8c0.5,0,1,0,1.5,0c0.9,0,1.8,0.1,2.5,0.1
		c0.4,0,0.7,0.1,1,0c0.3,0,0.5-0.2,0.6-0.3C39.9,56.8,39.8,56.5,39.9,56.5c0,0,0.1,0.2-0.2,0.6c-0.1,0.2-0.3,0.4-0.6,0.4
		c-0.3,0.1-0.6,0-1,0.1c-0.7,0-1.6,0-2.5,0.1c-0.5,0-1,0-1.5,0c-0.6,0-1.3-0.5-1.3-1.3c0-0.7,0.6-1.3,1.3-1.2c0.5,0,1,0,1.5,0
		c0.9,0,1.8,0.1,2.5,0.1c0.4,0,0.7,0,1,0.1c0.3,0.1,0.5,0.3,0.6,0.4C39.9,56.3,39.8,56.5,39.9,56.5"/>
	<path clip-path="url(#SVGID_1_)" fill="#CCC9C7" d="M39.9,63.9c0,0.2-0.5,0.4-1,0.4H34c-0.6,0-1-0.2-1-0.4c0-0.2,0.5-0.4,1-0.4h4.8
		C39.4,63.5,39.9,63.6,39.9,63.9"/>
	<path clip-path="url(#SVGID_1_)" fill="#CCC9C7" d="M39.9,37.3c0,0.6-0.5,1-1,1H34c-0.6,0-1-0.5-1-1c0-0.6,0.5-1,1-1h4.8
		C39.4,36.3,39.9,36.8,39.9,37.3"/>
	<path clip-path="url(#SVGID_1_)" fill="#231F20" d="M39.9,37.3c0,0,0-0.2-0.2-0.6c-0.1-0.2-0.3-0.3-0.6-0.3c-0.3,0-0.6,0-1,0
		c-0.7,0-1.6,0-2.5,0.1c-0.5,0-1,0-1.5,0c-0.4,0-0.8,0.3-0.8,0.8c0,0.4,0.4,0.8,0.8,0.8c0.5,0,1,0,1.5,0c0.9,0,1.8,0.1,2.5,0.1
		c0.4,0,0.7,0.1,1,0c0.3,0,0.5-0.2,0.6-0.3C39.9,37.6,39.8,37.3,39.9,37.3c0,0,0.1,0.2-0.2,0.6c-0.1,0.2-0.3,0.4-0.6,0.4
		c-0.3,0.1-0.6,0-1,0.1c-0.7,0-1.6,0.1-2.5,0.1c-0.5,0-1,0-1.5,0c-0.6,0-1.3-0.5-1.3-1.3c0-0.7,0.6-1.3,1.3-1.2c0.5,0,1,0,1.5,0
		c0.9,0,1.8,0.1,2.5,0.1c0.4,0,0.7,0,1,0.1c0.3,0.1,0.5,0.3,0.6,0.4C39.9,37.1,39.8,37.3,39.9,37.3"/>
	<path clip-path="url(#SVGID_1_)" fill="#FFFFFF" d="M58.4,101.1l0.1-1.7c-0.1-2.1-0.3-5.6-0.3-5.6c-0.4,0.2-2.1-0.4-2.3-1.5
		c-0.3-1-0.5-6.1,0-7.2l0-0.1c-0.3-1.3-0.8-9.7,2-12.3c2.9-2.7,4.2-2.9,10.1-2.4h1.4c5.9-0.5,7.2-0.3,10.1,2.4
		c2.9,2.6,1.6,11.5,1.2,12.4l0.1,0.5c0.3,1,0,6-0.3,6.7c-0.3,0.7-0.9,1.7-2.1,1.5c0.1,0.8-0.6,5.7-0.6,5.7l-0.4,0.5v1.6
		c0,0.6,0,1.8,0,1.8l-10.3,11l-8.4-10.9L58.4,101.1z"/>
	<path clip-path="url(#SVGID_1_)" fill="#231F20" d="M80.5,85.1c0.4-0.9,1.6-9.8-1.2-12.4c-2.9-2.7-4.2-2.9-10.1-2.4h-1.4
		c-5.9-0.5-7.2-0.3-10.1,2.4c-2.8,2.5-2.3,11-2,12.3l0,0.1l0,0c0.2-0.5,0.8-1.2,1.9-1c0,0.5,0.4,3.5,0.2,4.8h1c0,0-0.1-2.3-0.1-3.9
		l1-2.1c0,0-0.8-2.4-1.1-3.5c-0.3-1.1,0.3-2.1,0.3-2.1s1.1-2.2,4.3-2.4c1.9,0,3.6,1.2,5.2,1.1h0.1c1.6,0.1,3.3-1.1,5.2-1.1
		c3.2,0.3,4.3,2.4,4.3,2.4s0.6,1.1,0.3,2.1c-0.3,1.1-1.1,3.5-1.1,3.5L77.2,83l1.1,2.2l-0.1,3.7h0.7c0,0,0.4-4.2,0.4-4.6
		C79.3,83.9,80.4,84.3,80.5,85.1"/>
	<path clip-path="url(#SVGID_1_)" d="M72.3,70.1c2.9,0,4.2,0.7,6.3,2.6c2.8,2.6,1.6,11.5,1.2,12.4l0.1,0.5c0.3,1,0,6-0.3,6.7
		c-0.3,0.6-0.8,1.5-1.8,1.5c-0.1,0-0.2,0-0.3,0c0.1,0.8-0.6,5.7-0.6,5.7l-0.4,0.5v1.6h0.9l2.7,3.2c5.2,1.9,16.3,7.8,16.3,7.8
		l4.7,14.7H79.7h-4.5h-0.9H56.4h-2.2h-4.6H31.2l7.4-16.4l18.2-8.7l1-1.1l0.1-1.7c-0.1-2.1-0.3-5.6-0.3-5.6c0,0-0.1,0-0.2,0
		c-0.6,0-1.9-0.6-2.2-1.5c-0.3-1-0.5-6.1,0-7.2l0-0.1c-0.3-1.3-0.8-9.7,2-12.3c2.1-2,3.4-2.6,6.3-2.6c1,0,2.2,0.1,3.8,0.2h1.4
		C70.1,70.2,71.3,70.1,72.3,70.1 M72.3,69.6L72.3,69.6c-0.9,0-2.1,0.1-3.8,0.2h-1.3c-1.7-0.2-2.9-0.2-3.8-0.2
		c-3.2,0-4.6,0.8-6.7,2.8c-2.9,2.7-2.5,11.3-2.1,12.8c-0.5,1.6-0.2,6.4,0,7.3c0.3,1.1,1.5,1.7,2.4,1.9c0.1,1,0.2,3.4,0.3,5.1
		l-0.1,1.5l-0.8,0.9l-18.1,8.7l-0.1,0l-0.1,0.1L30.8,127l-0.8,0.9h1.2h18.4h4.6h2.2h17.9h0.9h4.5h21.5h1.1l-0.6-0.9l-4.7-14.7
		l-0.1-0.1l-0.1-0.1c-0.5-0.2-11-5.9-16.3-7.8l-2.6-3.1l-0.2-0.2h-0.2H77v-0.9l0.3-0.4l0.1-0.1l0-0.1c0.1-0.7,0.6-3.8,0.6-5.3
		c1.2-0.1,1.8-1.3,2.1-1.8c0.4-0.9,0.6-6,0.4-7.1l-0.1-0.3c0.4-1.5,1.5-10.1-1.4-12.8C76.9,70.4,75.5,69.6,72.3,69.6"/>
	<polygon clip-path="url(#SVGID_1_)" fill="#231F20" points="31.2,127.4 38.6,110.9 57.9,101.7 56.4,127.4 	"/>
	<path clip-path="url(#SVGID_1_)" fill="#FFFFFF" d="M57.9,101.7l-1.5,25.7H31.2l7.4-16.4L57.9,101.7z M58,101.4l-0.2,0.1l-19.3,9.2
		l0,0l0,0l-7.4,16.4l-0.2,0.2h0.3h25.2h0.1l0-0.1l1.5-25.7L58,101.4z"/>
	<path clip-path="url(#SVGID_1_)" fill="#231F20" d="M78.2,104.3l-3.9,23.1h26.9l-4.7-14.7C96.5,112.6,81.7,104.8,78.2,104.3"/>
	<path clip-path="url(#SVGID_1_)" fill="#FFFFFF" d="M78.2,104.3c3.5,0.5,18.3,8.3,18.3,8.3l4.7,14.7H74.3L78.2,104.3 M78.1,104.1
		l0,0.1l-3.9,23.1l0,0.2h0.2h26.9h0.3l-0.2-0.2l-4.7-14.7l0,0l0,0c-0.6-0.3-14.8-7.9-18.3-8.4L78.1,104.1z"/>
	<polygon clip-path="url(#SVGID_1_)" fill="#FFFFFF" points="54.2,127.4 57.1,107.5 57.4,105.7 57.8,102.9 62.1,108.4 66.1,113.5 
		70.7,108.9 76.5,102.9 76.5,106.2 76.5,107.8 75.2,127.4 	"/>
	<polygon clip-path="url(#SVGID_1_)" fill="#231F20" points="56.4,127.4 57.9,101 45.3,114.5 49.6,127.4 	"/>
	<path clip-path="url(#SVGID_1_)" fill="#FFFFFF" d="M57.9,101l-1.5,26.4h-6.7l-4.3-12.8L57.9,101z M58,100.6l-0.3,0.3l-12.6,13.5
		l-0.1,0.1l0,0.1l4.3,12.8l0,0.1h0.1h6.7h0.1l0-0.1L58,101L58,100.6z"/>
	<polygon clip-path="url(#SVGID_1_)" fill="#231F20" points="76.5,101.7 76.5,107.8 74.3,127.4 79.7,127.4 87.7,113.5 77.4,101.7 	
		"/>
	<path clip-path="url(#SVGID_1_)" fill="#FFFFFF" d="M77.4,101.7l10.3,11.9l-8,13.8h-5.4l2.2-19.5v-6.2H77.4z M77.5,101.5
		L77.5,101.5h-1h-0.1v0.1v6.2l-2.2,19.5l0,0.2h0.2h5.4h0.1l0-0.1l8-13.8l0-0.1l-0.1-0.1L77.5,101.5L77.5,101.5z"/>
	<polygon clip-path="url(#SVGID_1_)" fill="#231F20" points="76.5,107.8 76.5,106.2 68.4,114.2 70.5,114.2 	"/>
	<path clip-path="url(#SVGID_1_)" fill="#231F20" d="M57.1,107.5l0.3-1.9c0.5,0.7,6.8,8.9,6.8,8.9h-2.3L57.1,107.5z"/>
	<path clip-path="url(#SVGID_1_)" fill="#231F20" d="M64.6,114.2c0,0-5.4-2.6-6.7-2.7c-0.6,0.9-0.8,8,1.1,10.3c0.6-0.1,5.6-4,5.6-4
		c0.9,0.6,2.5,0.3,3,0c0,0,2.3,3.9,5.5,4.7c0.8-0.8,2.2-9.1,2.1-9.9c-0.1-0.8-5.9,1-7.3,2C67.8,114.5,67.6,113.1,64.6,114.2"/>
	<path clip-path="url(#SVGID_1_)" fill="#231F20" d="M67.6,117.8c-0.5,0.3-2.1,0.6-3,0v-3.6c3-1.1,3.2,0.3,3.2,0.3L67.6,117.8z"/>
	<polygon clip-path="url(#SVGID_1_)" fill="#FFFFFF" points="66.1,113.5 62.1,108.4 60.6,117 	"/>
	<path clip-path="url(#SVGID_1_)" fill="#231F20" d="M66.1,113.5c0,0-2,1.4-5.4,3.6l-0.3,0.2l0.1-0.4c0.2-1,0.4-2.6,0.7-4.3
		c0.3-1.7,0.6-3.2,0.8-4.2L62,108l0.2,0.3C64.6,111.5,66.1,113.5,66.1,113.5s-1.6-1.9-4.1-5c0.1,0,0.2,0,0.3-0.1
		c-0.1,1-0.4,2.6-0.7,4.3c-0.3,1.7-0.6,3.3-0.8,4.3c-0.1-0.1-0.2-0.1-0.2-0.2C63.9,114.8,66.1,113.5,66.1,113.5"/>
	<polygon clip-path="url(#SVGID_1_)" fill="#FFFFFF" points="70.7,108.9 66.1,113.5 71.2,117 	"/>
	<path clip-path="url(#SVGID_1_)" fill="#231F20" d="M70.7,108.9c0,0,0.4,3.3,0.7,8.1l0,0.4l-0.3-0.2c-0.4-0.3-1.2-0.8-1.9-1.3
		c-1.3-0.8-2.4-1.6-3.2-2.2l-0.2-0.1l0.1-0.1C68.8,110.6,70.7,108.9,70.7,108.9s-1.7,1.9-4.5,4.8c0-0.1,0-0.1,0-0.3
		c0.8,0.5,2,1.3,3.2,2.1c0.7,0.5,1.5,1,1.9,1.3c-0.1,0.1-0.2,0.1-0.3,0.2C70.7,112.2,70.7,108.9,70.7,108.9"/>
	<path clip-path="url(#SVGID_1_)" fill="#231F20" d="M57.8,99.4c0,0,0.1,0.6,0.2,1.6c0,0,0,0,0,0c0,0.6,0,1.4-0.1,2.2
		c-0.1,2.1-0.4,3.8-0.4,3.8s-0.1-1.7,0-3.9c0-0.9,0.1-1.7,0.2-2.2l0,0v0C57.8,100,57.8,99.4,57.8,99.4"/>
	<path clip-path="url(#SVGID_1_)" fill="#231F20" d="M76.5,107.8c0,0-0.2-1.7-0.2-3.9c0-2.2,0.2-3.9,0.2-3.9s0.2,1.7,0.2,3.9
		C76.7,106.1,76.5,107.8,76.5,107.8"/>
	<path clip-path="url(#SVGID_1_)" fill="#231F20" d="M77.8,90c0,0-0.1,1.2-0.3,3.8v0c0,1.2-0.3,3.3-0.6,5.8l0,0l0,0
		c-0.1,0.1-0.2,0.3-0.4,0.5l0,0l0,0c-1.5,1.8-3.9,4.5-6.5,7.5l-0.1,0.1H70c-0.6,0-1.5,0-2.5,0c-0.7,0-1.5,0-2.1,0h-0.1l-0.1-0.1
		c-0.7-0.8-1.4-1.6-2.1-2.4c-0.3-0.4-0.7-0.8-1-1.2c-0.2-0.2-0.3-0.4-0.5-0.6c-0.2-0.2-0.3-0.3-0.5-0.5c-1.3-1.3-2.6-2.4-3.5-3.5
		l0,0l0,0c-0.1-2.9-0.2-5.3-0.3-6.9c0-0.8,0-1.4,0-1.8c0-0.2,0-0.4,0.1-0.5c0-0.1,0-0.2,0-0.2s0,0.1,0,0.2c0,0.1,0,0.3,0,0.5
		c0,0.4,0,1,0,1.8c0.1,1.6,0.3,3.9,0.5,6.9c0,0,0,0,0-0.1c0.9,1,2.2,2.1,3.6,3.4c0.2,0.2,0.3,0.3,0.5,0.5c0.2,0.2,0.3,0.4,0.5,0.5
		c0.3,0.4,0.7,0.8,1,1.1c0.7,0.8,1.4,1.6,2.1,2.4c0,0-0.1,0-0.2-0.1c0.6,0,1.3,0,2.1,0c1,0,1.9,0,2.5,0c-0.1,0-0.1,0.1-0.2,0.1
		c2.6-3,5-5.7,6.6-7.4c0,0,0,0,0,0c0.2-0.2,0.3-0.4,0.4-0.5c0,0,0,0,0,0.1c0.4-2.5,0.7-4.5,0.7-5.7v0C77.7,91.2,77.8,90,77.8,90"/>
	<path clip-path="url(#SVGID_1_)" fill="#231F20" d="M66.5,94.4c0,0-0.1-2.2-0.2-5.5c0,0,0,0.1,0.1,0.1c-0.4-0.3-0.9-0.7-1.5-1.1
		c-0.8-0.6-1.6-1.2-2.3-1.7c-0.4-0.3-0.7-0.5-1-0.7c-0.2-0.1-0.3-0.2-0.5-0.3c0,0-0.1,0-0.1,0l-0.1,0l0,0c0,0,0,0,0,0
		c0,0-0.1,0.1-0.2,0.1c-0.5,0.4-0.8,0.9-1.1,1.2c-0.2,0.3-0.4,0.4-0.4,0.4s0.1-0.2,0.3-0.5c0.2-0.3,0.5-0.8,1-1.3
		c0.1-0.1,0.1-0.1,0.3-0.2c0,0,0,0,0.1,0l0,0l0.1,0c0,0,0.1,0,0.1,0c0.2,0.1,0.4,0.2,0.5,0.3c0.3,0.2,0.7,0.4,1.1,0.7
		c0.7,0.5,1.5,1.1,2.3,1.7c0.6,0.4,1.2,0.9,1.5,1.2l0.1,0.1l0,0.1C66.7,92.2,66.5,94.4,66.5,94.4"/>
	<path clip-path="url(#SVGID_1_)" fill="#FFFFFF" d="M69.8,101.7c1-0.9,0.9-3.2,0.9-3.9H65c-0.1,1,0,2.6,0.9,3.9H69.8z"/>
	<path clip-path="url(#SVGID_1_)" fill="#231F20" d="M66.5,96c0,0,0.1,0,0.2,0.1c0.1,0,0.1,0.1,0.2,0.1c0.1,0,0.2,0,0.3,0.1
		c0.3,0.1,0.6,0,1-0.1c0.3-0.1,0.7-0.4,0.9-0.8c0,0,0,0,0,0c0-1.5-0.1-3.7-0.1-6v-0.5v-0.1l0.1-0.1c2.4-1.4,4.6-2.6,5.7-3.2l0.1,0
		l0,0c0.9,1.2,1.3,1.8,1.3,1.8s-0.4-0.5-1.4-1.7c0,0,0,0,0.1,0c-1,0.7-3.1,2-5.5,3.4c0,0,0.1-0.1,0.1-0.2v0.5c0,2.3,0,4.5-0.1,6v0
		l0,0c-0.2,0.5-0.7,0.8-1.1,0.9c-0.4,0.1-0.7,0.1-1,0c-0.1,0-0.3-0.1-0.3-0.1c-0.1-0.1-0.2-0.1-0.2-0.1C66.6,96,66.5,96,66.5,96"/>
	<path clip-path="url(#SVGID_1_)" fill="#231F20" d="M66,95.7C66,95.7,66,95.8,66,95.7c-0.1,0.1-0.2,0.2-0.3,0.3
		c-0.1,0.1-0.3,0.1-0.5,0.1c-0.2,0-0.4-0.2-0.5-0.4c-0.1-0.4,0-0.7,0.1-1c0.1-0.2,0.2-0.3,0.2-0.3c0,0,0,0.6,0.1,1.2
		c0,0.1,0.1,0.2,0.2,0.2c0.1,0,0.2,0,0.3,0c0.1,0,0.2,0,0.3,0C66,95.7,66,95.7,66,95.7"/>
	<path clip-path="url(#SVGID_1_)" fill="#231F20" d="M65.9,101.7l-3.4-3.9H65C64.8,98.8,65,100.4,65.9,101.7"/>
	<path clip-path="url(#SVGID_1_)" fill="#231F20" d="M70.8,97.8h2.2l-3.1,3.9C70.8,100.8,70.8,98.5,70.8,97.8"/>
	<path clip-path="url(#SVGID_1_)" fill="#231F20" d="M69.3,95.4c0,0,0,0,0.1,0.1c0.1,0,0.2,0.1,0.3,0.1c0.1,0.1,0.3,0.1,0.4,0
		c0,0,0.1-0.2,0.1-0.4c0-0.4-0.1-0.8-0.2-1c0-0.1-0.1-0.2-0.1-0.3c0-0.1-0.1-0.1-0.1-0.1s0,0,0.1,0.1c0.1,0,0.2,0.1,0.3,0.2
		c0.2,0.2,0.4,0.6,0.5,1.1c0,0.1,0,0.3-0.1,0.4c0,0.1-0.2,0.3-0.3,0.3c-0.1,0-0.1,0-0.2,0c-0.1,0-0.1,0-0.2,0
		c-0.1,0-0.2-0.1-0.2-0.1c-0.1-0.1-0.2-0.2-0.3-0.3C69.3,95.4,69.3,95.4,69.3,95.4"/>
	<path clip-path="url(#SVGID_1_)" fill="#231F20" d="M62.4,97.8c0,0,1.2,1.3,3.5,3.8c0,0-0.1,0-0.1,0c0.9,0,2.3,0,4-0.1
		c0,0-0.1,0-0.1,0.1c0.5-0.6,1.2-1.5,2-2.5c0.4-0.5,0.9-1.1,1.1-1.4c0.1,0.2,0.1,0.2,0.2,0.3C66.9,98,62.4,97.8,62.4,97.8
		s4.4-0.2,10.5-0.2l0.4,0l-0.3,0.3c-0.3,0.3-0.7,0.9-1.1,1.4c-0.8,1-1.5,1.9-2,2.5l-0.1,0.1l-0.1,0c-1.6,0-3.1,0-4-0.1l-0.1,0l0,0
		C63.6,99.2,62.4,97.8,62.4,97.8"/>
	<path clip-path="url(#SVGID_1_)" fill="#231F20" d="M74.1,98.8c0,0,0-0.2-0.1-0.4c0-0.2-0.1-0.5-0.2-0.9c-0.1-0.3-0.1-0.6-0.2-0.8
		c-0.1-0.2-0.1-0.4-0.1-0.4c0,0,0.1,0.1,0.3,0.3c0.2,0.2,0.3,0.5,0.4,0.9c0.1,0.4,0.1,0.7,0,0.9C74.2,98.6,74.1,98.8,74.1,98.8"/>
	<path clip-path="url(#SVGID_1_)" fill="#231F20" d="M61.2,99.7c0,0-0.1-0.1-0.4-0.4c-0.1-0.1-0.2-0.3-0.3-0.6
		c0-0.2-0.1-0.5-0.1-0.7c0-0.5,0.2-1,0.4-1.3c0.1-0.2,0.2-0.3,0.3-0.3c0.1-0.1,0.1-0.1,0.1-0.1s0,0-0.1,0.1c0,0.1-0.1,0.2-0.1,0.4
		c-0.1,0.3-0.2,0.7-0.1,1.2c0,0.2,0,0.5,0,0.7c0,0.2,0.1,0.4,0.1,0.5C61.1,99.5,61.2,99.7,61.2,99.7"/>
	<path clip-path="url(#SVGID_1_)" fill="#231F20" d="M74.1,89.3c-0.2-0.1-2.1,0-2.4,0c0,0.7,0.2,1.6,1.2,1.6
		C73.9,90.9,74.1,89.9,74.1,89.3"/>
	<path clip-path="url(#SVGID_1_)" fill="#231F20" d="M62.2,89.3c0.2-0.1,2.1,0,2.4,0c0,0.7-0.2,1.6-1.2,1.6
		C62.4,90.9,62.2,89.9,62.2,89.3"/>
	<path clip-path="url(#SVGID_1_)" fill="#231F20" d="M74.9,90.6c0,0,0-0.1,0-0.3c0-0.1,0-0.2-0.1-0.3c-0.1-0.1-0.2-0.2-0.3-0.2
		c-0.2-0.2-0.5-0.4-0.8-0.6c-0.1,0-0.3,0-0.5,0c-0.2,0-0.4,0-0.7,0c-0.2,0-0.5,0-0.7,0c-0.1,0-0.2,0-0.3,0c-0.1,0-0.1,0-0.2,0
		c0,0,0,0-0.1,0c-0.3,0.1-0.6,0.4-0.8,0.5c0,0,0,0,0-0.1c0,0.6-0.1,0.9-0.1,0.9s0-0.3-0.1-0.9l0,0l0,0c0.2-0.2,0.4-0.5,0.8-0.7
		c0,0,0.1-0.1,0.2-0.1c0.1,0,0.1,0,0.2,0c0.1,0,0.2,0,0.3,0c0.2,0,0.5,0,0.7,0c0.2,0,0.5,0,0.7,0c0.1,0,0.2,0,0.3,0
		c0.1,0,0.3,0,0.4,0.1c0.3,0.2,0.6,0.5,0.8,0.8c0.1,0.1,0.2,0.2,0.3,0.4c0,0.1,0,0.2,0,0.3C75,90.5,74.9,90.6,74.9,90.6"/>
	<path clip-path="url(#SVGID_1_)" fill="#231F20" d="M73.8,89c0,0,0,0.1,0,0.3c0,0.2,0,0.4-0.1,0.8c0,0.1-0.1,0.2-0.1,0.2
		c0,0.1-0.1,0.1-0.2,0.2c-0.2,0.1-0.4,0.2-0.6,0.3c-0.1,0-0.1,0-0.2,0l-0.2,0c-0.1,0-0.2,0-0.4-0.1c-0.3-0.1-0.5-0.3-0.6-0.5
		c-0.2-0.4-0.2-0.9-0.2-1.1l0-0.2h0.2C72.8,88.8,73.8,88.9,73.8,89c0-0.1-0.9,0.1-2.4,0.2c0,0,0.1-0.1,0.2-0.2c0,0.2,0,0.6,0.2,0.9
		c0.2,0.4,0.6,0.5,0.9,0.5c0.2,0,0.4-0.1,0.5-0.1c0.1-0.1,0.1-0.1,0.2-0.1c0.1-0.1,0.1-0.1,0.1-0.2c0.2-0.3,0.2-0.5,0.3-0.7
		C73.8,89.1,73.8,89,73.8,89"/>
	<path clip-path="url(#SVGID_1_)" fill="#231F20" d="M60.8,90.6c0,0,0-0.1-0.1-0.3c0-0.1,0-0.2,0-0.3c0.1-0.1,0.2-0.2,0.3-0.4
		c0.2-0.2,0.5-0.5,0.8-0.8c0.1-0.1,0.3-0.1,0.4-0.1c0.1,0,0.2,0,0.3,0c0.2,0,0.4,0,0.7,0c0.2,0,0.5,0,0.7,0c0.1,0,0.2,0,0.3,0
		c0.1,0,0.1,0,0.2,0c0.1,0,0.2,0,0.2,0.1c0.4,0.2,0.6,0.5,0.8,0.7l0,0l0,0c-0.1,0.6-0.1,0.9-0.1,0.9s0-0.3-0.1-0.9c0,0,0,0,0,0.1
		c-0.2-0.2-0.5-0.4-0.8-0.5c0,0-0.1,0-0.1,0c0,0-0.1,0-0.2,0c-0.1,0-0.2,0-0.3,0c-0.2,0-0.5,0-0.7,0c-0.2,0-0.4,0-0.7,0
		c-0.2,0-0.4,0-0.5,0c-0.3,0.2-0.6,0.4-0.8,0.6C61,89.9,60.9,90,60.9,90c0,0.1,0,0.2-0.1,0.3C60.8,90.5,60.8,90.6,60.8,90.6"/>
	<path clip-path="url(#SVGID_1_)" fill="#231F20" d="M61.9,89c0,0,0,0.1,0,0.3c0,0.2,0.1,0.4,0.3,0.7c0,0.1,0.1,0.1,0.1,0.2
		c0,0.1,0.1,0.1,0.2,0.1c0.1,0.1,0.3,0.1,0.5,0.1c0.3,0,0.8-0.1,0.9-0.5c0.2-0.3,0.2-0.7,0.2-0.9c0.1,0.1,0.1,0.1,0.2,0.2
		C62.9,89.1,61.9,88.9,61.9,89c0-0.1,1-0.2,2.4-0.2h0.2l0,0.2c0,0.3,0,0.7-0.2,1.1c-0.1,0.2-0.4,0.5-0.6,0.5
		c-0.1,0.1-0.2,0.1-0.4,0.1l-0.2,0c-0.1,0-0.1,0-0.2,0c-0.2,0-0.4-0.1-0.6-0.3c-0.1-0.1-0.2-0.1-0.2-0.2c0-0.1-0.1-0.2-0.1-0.2
		c-0.1-0.3-0.1-0.6-0.1-0.8C61.9,89.1,61.9,89,61.9,89"/>
	<path clip-path="url(#SVGID_1_)" fill="#231F20" d="M78.6,72.7c0,0,0,0,0.1,0.1c0.1,0.1,0.2,0.2,0.4,0.4c0.3,0.4,0.7,1.1,0.9,2.2
		c0.3,1,0.4,2.4,0.4,4c0,0.8,0,1.7-0.1,2.7c0,0.5-0.1,1-0.2,1.5c-0.1,0.5-0.1,1-0.3,1.6l-0.1,0.3l-0.1-0.3c0-0.2-0.2-0.6-0.6-0.8
		c-0.1-0.1-0.2-0.1-0.3-0.1c-0.1,0-0.2,0-0.2,0c0,0.2,0,0.5-0.1,0.8c-0.1,1.1-0.2,2.4-0.4,3.8l0,0.1l-0.1,0c-0.1,0-0.4,0-0.7,0
		l-0.1,0l0-0.1c0-0.6,0-2.1,0-3.7c0,0,0,0,0,0.1c-0.2-0.4-0.6-1.3-1.1-2.2l0-0.1l0-0.1c0,0,0-0.1,0.1-0.2c0,0,0,0,0,0
		c0.3-0.9,0.6-2,1-3.1c0.4-1.1,0-2.5-1-3.3c-0.5-0.5-1.1-0.8-1.8-1c-0.3-0.1-0.7-0.2-1-0.2c-0.4-0.1-0.7-0.1-1.1,0
		c-0.7,0.1-1.5,0.3-2.2,0.6c-0.7,0.2-1.5,0.5-2.4,0.5h0c-0.1,0-0.3,0-0.5,0c-0.8-0.1-1.5-0.3-2.1-0.5c-0.7-0.2-1.3-0.4-2-0.5
		c-0.2,0-0.3,0-0.5,0c-0.1,0-0.3,0-0.5,0.1c-0.3,0-0.7,0.1-1,0.2c-0.6,0.2-1.2,0.5-1.7,0.9c-0.5,0.4-0.9,0.9-1.1,1.5
		c-0.2,0.6-0.3,1.2-0.1,1.7c0.3,1.2,0.7,2.3,1,3.4l0,0.1l0,0.1c-0.4,0.8-0.7,1.5-1,2.1c0,0,0-0.1,0-0.1c0,1.6,0.1,2.8,0.1,3.9l0,0.2
		l-0.2,0c-0.4,0-0.7,0-1,0l-0.2,0l0-0.2c0.1-0.9,0-1.8,0-2.6c0-0.8-0.1-1.5-0.2-2.2c0,0,0.1,0.1,0.1,0.1c-0.5-0.1-0.9,0-1.1,0.2
		c-0.3,0.2-0.5,0.5-0.6,0.7l-0.1,0.2l-0.1-0.2c-0.2-0.5-0.2-1-0.2-1.5c0-0.5-0.1-0.9-0.1-1.4c0-0.9,0-1.8,0.1-2.5
		c0.1-1.6,0.3-2.9,0.6-4c0.3-1.1,0.7-1.9,1-2.3c0.2-0.2,0.3-0.4,0.4-0.5c0.1-0.1,0.2-0.2,0.2-0.2s-0.1,0.1-0.2,0.2
		c-0.1,0.1-0.2,0.3-0.4,0.5c-0.3,0.5-0.7,1.3-1,2.4c-0.3,1.1-0.5,2.4-0.6,4c0,0.8,0,1.6,0,2.5c0,0.4,0,0.9,0.1,1.4
		c0,0.5,0.1,1,0.2,1.4c-0.1,0-0.1,0-0.2,0c0.1-0.3,0.4-0.6,0.7-0.8c0.3-0.2,0.8-0.3,1.3-0.2l0.1,0l0,0.1c0,0.7,0.1,1.4,0.2,2.2
		c0.1,0.8,0.1,1.6,0,2.6c0,0-0.1-0.1-0.1-0.2c0.3,0,0.6,0,1,0c0,0-0.1,0.1-0.1,0.2c0-1.2-0.1-2.4-0.1-3.9l0,0l0,0
		c0.3-0.6,0.6-1.3,1-2.1c0,0,0,0.1,0,0.1c-0.3-1.1-0.7-2.2-1.1-3.4c-0.2-0.6-0.1-1.4,0.1-2c0.2-0.7,0.7-1.2,1.2-1.6
		c0.5-0.4,1.2-0.8,1.8-1c0.3-0.1,0.7-0.2,1-0.2c0.2,0,0.3,0,0.5-0.1c0.2,0,0.4,0,0.5,0c1.5,0.1,2.8,0.9,4.1,1c0.2,0,0.4,0,0.5,0l0,0
		l0,0c0.7,0.1,1.5-0.2,2.2-0.4c0.7-0.2,1.5-0.5,2.3-0.6c0.4-0.1,0.8,0,1.2,0c0.4,0.1,0.8,0.1,1.1,0.3c0.7,0.2,1.4,0.6,1.9,1.1
		c1.1,0.9,1.6,2.5,1.1,3.7c-0.3,1.2-0.7,2.2-1,3.1l0,0l0,0c0,0.1-0.1,0.1-0.1,0.2V83c0.4,0.9,0.9,1.9,1,2.2l0,0l0,0
		c0,1.6-0.1,3.1-0.1,3.7c-0.1-0.1-0.1-0.1-0.1-0.1c0.3,0,0.6,0,0.7,0c-0.1,0.1-0.1,0.1-0.1,0.1c0.1-1.4,0.3-2.7,0.4-3.8
		c0-0.3,0.1-0.5,0.1-0.8c0-0.1,0.1-0.2,0.2-0.2c0.1,0,0.2,0,0.2,0c0.1,0,0.2,0.1,0.3,0.1c0.4,0.2,0.6,0.6,0.6,0.9
		c-0.1,0-0.2,0-0.2,0c0.2-0.5,0.2-1,0.3-1.5c0.1-0.5,0.1-1,0.2-1.5c0.1-0.9,0.1-1.8,0.1-2.6c0-1.6-0.1-2.9-0.4-4
		c-0.2-1-0.6-1.7-0.9-2.2c-0.1-0.2-0.3-0.4-0.4-0.4C78.7,72.8,78.6,72.7,78.6,72.7"/>
	<path clip-path="url(#SVGID_1_)" fill="#231F20" d="M77.5,93.8c0,0,0.1,0,0.4,0c0.2-0.1,0.6-0.1,0.9-0.5c0.1-0.1,0.1-0.2,0.2-0.3
		c0.1-0.1,0.1-0.2,0.2-0.3c0.1-0.2,0.3-0.5,0.3-0.7c0.1-0.5,0.2-1.2,0.2-1.9c0.1-1.4,0.2-2.6,0.2-3.5c0-0.4,0-0.8,0-1.1
		c0-0.3,0-0.4,0-0.4s0,0.1,0.1,0.4c0.1,0.2,0.1,0.6,0.2,1.1c0.1,0.9,0.1,2.2,0,3.5c-0.1,0.7-0.1,1.3-0.3,2c-0.1,0.3-0.3,0.5-0.4,0.8
		c-0.1,0.1-0.2,0.2-0.2,0.3c-0.1,0.1-0.2,0.2-0.3,0.3c-0.4,0.3-0.8,0.4-1,0.4C77.6,93.8,77.5,93.8,77.5,93.8"/>
	<path clip-path="url(#SVGID_1_)" fill="#231F20" d="M55.2,85.1l0,0.1c0,0.1,0,0.2-0.1,0.3c0,0.2-0.1,0.6-0.1,1.1
		c0,0.9,0,2.2,0.1,3.6c0,0.7,0.1,1.4,0.2,1.9c0.1,0.6,0.5,0.9,0.8,1.2c0.8,0.5,1.4,0.5,1.4,0.5c0,0-0.6,0.2-1.5-0.3
		c-0.2-0.1-0.4-0.3-0.6-0.5c-0.2-0.2-0.4-0.5-0.4-0.8c-0.1-0.6-0.2-1.3-0.2-2c-0.1-1.4,0-2.7,0.1-3.6c0.1-0.5,0.1-0.8,0.2-1.1
		C55.1,85.4,55.1,85.3,55.2,85.1C55.2,85.2,55.2,85.1,55.2,85.1"/>
	<path clip-path="url(#SVGID_1_)" fill="#231F20" d="M76.5,102.9c0,0-1.2,1.5-2.8,3.1c-1.6,1.6-3.1,2.8-3.1,2.8s1.2-1.5,2.8-3.1
		C75,104.1,76.5,102.9,76.5,102.9"/>
	<path clip-path="url(#SVGID_1_)" fill="#231F20" d="M62.1,108.4c0,0-1.1-1.1-2.3-2.6c-1.2-1.5-2-2.9-2-2.9s1.1,1.1,2.3,2.6
		C61.3,107.1,62.1,108.4,62.1,108.4"/>
	
		<rect x="67.6" y="114.5" transform="matrix(0.9975 7.001455e-02 -7.001455e-02 0.9975 8.2978 -4.454)" clip-path="url(#SVGID_1_)" fill="#FFFFFF" width="0.1" height="3.3"/>
	<rect x="64.5" y="114.2" clip-path="url(#SVGID_1_)" fill="#FFFFFF" width="0.1" height="3.6"/>
	<path clip-path="url(#SVGID_1_)" fill="#231F20" d="M66.5,88.9c0,0-0.5-0.2-1.2-0.7c-0.7-0.4-1.7-1-2.7-1.8c-0.5-0.4-1-0.7-1.4-1
		l-0.1-0.1l-0.1,0l0,0l0,0l0,0h0c0,0,0.1,0,0.1,0l0,0h0c0,0,0,0,0.1,0l0,0c0,0,0,0,0,0c0,0-0.1,0.1-0.1,0.1
		c-0.2,0.1-0.3,0.3-0.5,0.4c-0.6,0.6-1,1-1,1s0.2-0.5,0.7-1.2c0.1-0.2,0.2-0.4,0.4-0.6c0-0.1,0.1-0.1,0.1-0.2c0,0,0.1-0.1,0.1-0.1
		l0.1,0c0,0,0.1,0,0.1,0l0,0l0,0l0.1,0l0,0l0,0l0.1,0c0.1,0,0.2,0.1,0.3,0.1c0.6,0.3,1.1,0.6,1.6,0.9c1.1,0.7,1.9,1.5,2.5,2.1
		C66.2,88.5,66.5,88.9,66.5,88.9"/>
	<path clip-path="url(#SVGID_1_)" fill="#231F20" d="M69.3,88.9c0,0,1.5-1.3,3.5-2.6c0.7-0.4,1.4-0.8,1.9-1l0.3-0.1l0.1,0.2
		c0.8,1.1,1.1,1.9,1.1,1.9s-0.6-0.5-1.6-1.5c0.1,0,0.2,0,0.4,0.1c-0.4,0.3-1.1,0.8-1.8,1.2C71.2,88.2,69.3,88.9,69.3,88.9"/>
	<path clip-path="url(#SVGID_1_)" fill="#231F20" d="M146.2,16.7L146.2,16.7c-2.2,0-4,0.5-5.2,1.4c-1.1-0.2-2.1-0.4-3.1-0.4
		c-11.1,0-16,14-16.4,18c-0.4,3.7,0.5,7.6,2.1,9.3c0.2,0.2,0.3,0.3,0.5,0.4c-0.6,4.4-0.8,8.6-0.6,12.6l0,0.4l0.2,0.4
		c0.3,0.5,0.7,0.8,1.1,1c0,2.8,0.4,6.3,1.3,9c0.7,2.1,2.9,6.1,4.9,9.7l-32,14.8L97.6,94l0.3,1.3l7.2,37.1l0.3,1.3h1.4h82.4h1.3
		l0.3-1.3l9.3-41.8l0.3-1.4l-1.3-0.6l-29-13.5l-5.9-6.4c0.1-0.6,0.3-1.6,0.5-2.4c2.1-0.4,3.9-1.9,5-4.2c1.1-2.3,3.4-11.8,1.7-15.1
		c-0.4-0.8-1.1-1.4-2-1.5c-0.1,0-0.3,0-0.4,0c-0.5,0-1.1,0.1-2,0.6c-0.6-5.7-2.3-14.7-2.9-16.3c-0.1-0.3-0.2-0.7-0.3-1
		c-0.5-1.6-1.1-3.6-3.9-6.2C155.5,18.3,150,16.7,146.2,16.7"/>
	<path clip-path="url(#SVGID_1_)" fill="none" stroke="#FFFFFF" stroke-width="2" d="M146.2,16.7L146.2,16.7c-2.2,0-4,0.5-5.2,1.4
		c-1.1-0.2-2.1-0.4-3.1-0.4c-11.1,0-16,14-16.4,18c-0.4,3.7,0.5,7.6,2.1,9.3c0.2,0.2,0.3,0.3,0.5,0.4c-0.6,4.4-0.8,8.6-0.6,12.6
		l0,0.4l0.2,0.4c0.3,0.5,0.7,0.8,1.1,1c0,2.8,0.4,6.3,1.3,9c0.7,2.1,2.9,6.1,4.9,9.7l-32,14.8L97.6,94l0.3,1.3l7.2,37.1l0.3,1.3h1.4
		h82.4h1.3l0.3-1.3l9.3-41.8l0.3-1.4l-1.3-0.6l-29-13.5l-5.9-6.4c0.1-0.6,0.3-1.6,0.5-2.4c2.1-0.4,3.9-1.9,5-4.2
		c1.1-2.3,3.4-11.8,1.7-15.1c-0.4-0.8-1.1-1.4-2-1.5c-0.1,0-0.3,0-0.4,0c-0.5,0-1.1,0.1-2,0.6c-0.6-5.7-2.3-14.7-2.9-16.3
		c-0.1-0.3-0.2-0.7-0.3-1c-0.5-1.6-1.1-3.6-3.9-6.2C155.5,18.3,150,16.7,146.2,16.7z"/>
	<polygon clip-path="url(#SVGID_1_)" fill="#231F20" points="162.2,68.6 168.9,75.8 198.2,89.4 188.6,133.1 107.3,133.1 99.4,94.1 
		133.1,78.6 	"/>
	<path clip-path="url(#SVGID_1_)" fill="#FFFFFF" d="M162.1,69.2l6.4,6.9l0.1,0.1l0.1,0l28.9,13.4l-9.4,42.9h-80.4L100,94.4
		l33.3-15.3L162.1,69.2z M162.2,68.6l-29.2,10L99.4,94.1l8,39h81.3l9.6-43.7l-29.3-13.6L162.2,68.6z"/>
	<polygon clip-path="url(#SVGID_1_)" fill="#FFFFFF" points="161.4,78.2 134.7,87.9 130.7,133.1 158.4,133.1 	"/>
	<polygon clip-path="url(#SVGID_1_)" fill="#FFFFFF" points="126.5,96.7 126,97.1 128.3,80.6 128.9,80.7 	"/>
	
		<rect x="167.6" y="75.7" transform="matrix(0.995 9.953091e-02 -9.953091e-02 0.995 9.3181 -16.2884)" clip-path="url(#SVGID_1_)" fill="#FFFFFF" width="0.6" height="19.1"/>
	<polygon clip-path="url(#SVGID_1_)" fill="#FFFFFF" points="155.4,77.7 162.1,71.6 161.4,82.8 154.6,88.6 	"/>
	<polygon clip-path="url(#SVGID_1_)" fill="#CCC9C7" points="135.4,89 132.1,130.9 117.2,130.9 106.6,93.4 121.9,102.1 	"/>
	<polygon clip-path="url(#SVGID_1_)" fill="#CCC9C7" points="162.2,87.5 175.1,102.7 188.8,92.8 176.8,130.9 160,130.9 	"/>
	
		<rect x="158.1" y="81.4" transform="matrix(0.6489 0.7608 -0.7608 0.6489 120.5346 -90.5781)" clip-path="url(#SVGID_1_)" fill="#231F20" width="0.6" height="7.9"/>
	<path clip-path="url(#SVGID_1_)" fill="#FFFFFF" d="M134.2,89.4l-3.2,41.8h-15l-10.6-37.5l15.3,8.7L134.2,89.4z M134.9,87.9
		l-1.1,1.1l-13.1,12.8l-15-8.5l-1.3-0.7l0.4,1.4l10.6,37.5l0.1,0.4h0.4h15h0.5l0-0.5l3.2-41.8L134.9,87.9z"/>
	
		<rect x="161.4" y="68.5" transform="matrix(0.9983 5.855659e-02 -5.855659e-02 0.9983 4.8577 -9.333)" clip-path="url(#SVGID_1_)" fill="#FFFFFF" width="0.6" height="19.3"/>
	<path clip-path="url(#SVGID_1_)" fill="#FFFFFF" d="M134.7,81.5l-1.1,6.8l2.7,0.6c1,0.2,11.8,2.3,11.8,2.3l7.9-11.7L134.7,81.5
		l-1.1,6.8"/>
	<path clip-path="url(#SVGID_1_)" fill="#FFFFFF" d="M161.1,87.9L174,103l13.6-9.8l-11.9,38.1h-16.9L161.1,87.9z M160.6,86.4
		l-0.1,1.4l-2.3,43.4l0,0.6h0.6h16.9h0.4l0.1-0.4l11.9-38.1l0.6-1.7l-1.5,1.1l-13.2,9.5l-12.5-14.8L160.6,86.4z"/>
	<polygon clip-path="url(#SVGID_1_)" fill="#231F20" points="142.6,132.3 142.1,132.2 145.3,95.6 145.9,95.7 	"/>
	<polygon clip-path="url(#SVGID_1_)" fill="#231F20" points="161,89.4 155.4,90.9 155.4,94.7 146.7,91.5 145.6,91.2 136.3,88.9 
		136.3,106.1 145.6,97.1 148.7,97.5 155.4,108.3 	"/>
	<path clip-path="url(#SVGID_1_)" fill="#FFFFFF" d="M136.3,88.9l9.3,2.3l1.1,0.3l8.7,3.3v-3.8l5.6-1.5l-5.6,18.9l-6.8-10.9
		l-3.1-0.3l-9.3,8.9V88.9z M135.7,88.2v0.7v17.2v1.3l1-0.9l9.1-8.7l2.5,0.3l6.6,10.6l0.7,1.1l0.4-1.2l5.6-18.9l0.3-1l-1,0.3
		l-5.6,1.5l-0.4,0.1v0.4v3l-7.9-3l0,0l0,0l-1.1-0.3l-9.3-2.3L135.7,88.2z"/>
	
		<rect x="148.3" y="90.7" transform="matrix(0.9999 1.023055e-02 -1.023055e-02 0.9999 0.9744 -1.5156)" clip-path="url(#SVGID_1_)" fill="#FFFFFF" width="0.6" height="7.6"/>
	<path clip-path="url(#SVGID_1_)" fill="#CCC9C7" d="M146.6,115.6c-1,0-1.8-0.8-1.8-1.9c0-1,0.8-1.9,1.8-1.9c1,0,1.8,0.8,1.8,1.9
		C148.4,114.8,147.6,115.6,146.6,115.6 M146.6,112.4c-0.7,0-1.3,0.6-1.3,1.3c0,0.7,0.6,1.3,1.3,1.3c0.7,0,1.3-0.6,1.3-1.3
		C147.8,113,147.2,112.4,146.6,112.4"/>
	<polyline clip-path="url(#SVGID_1_)" fill="#FFFFFF" points="155.4,90.9 155.4,94.7 146.7,91.5 155.4,79 	"/>
	<rect x="155.1" y="79" clip-path="url(#SVGID_1_)" fill="#231F20" width="0.6" height="11.9"/>
	<polygon clip-path="url(#SVGID_1_)" fill="#231F20" points="155.7,95.1 146.3,91.6 155.2,78.8 155.7,79.1 147.2,91.3 155.1,94.3 
		155.1,90.9 155.7,90.9 	"/>
	<path clip-path="url(#SVGID_1_)" fill="#FFFFFF" d="M127.4,41.5c-0.1,0.7-0.3,1.6-0.5,2.7c-0.5,3.3-1.1,8.2-0.8,13.6
		c0.4,0.6,1.3,0.8,1.3,0.8c-0.1,3,0.3,7,1.2,9.7c0.9,2.7,4.7,9.3,5.6,11c0.3,0.6,1,1.7,1.6,2.9c1.1,1.9,2.2,4.2,2.3,5
		c0.1,0.9,3.7,1.6,6.7,1.8c1.8,0.1,3.5,0,4-0.4l7.8-8.9l6.6-7.4l0.2-3c0-1.2,0.9-4.6,0.9-4.6c1.4,0.1,3.5-0.6,4.8-3.3
		c1.3-2.7,3.5-13.8,1-14.2c-0.9-0.2-2.2,1-3.6,2.7c-2.5,3.1-5,8.1-4.9,10.6c-0.4,0.7-2.2,0.9-2.2,0.9c0-1.3-0.2-2.4,0-3.4
		c0.2-1,1.2-17-2.8-19.3c-2.7-0.2-14.8,7.8-19.1,4C136.3,44.5,131.4,43.4,127.4,41.5"/>
	<path clip-path="url(#SVGID_1_)" fill="#CCC9C7" d="M150.6,59.5L150.6,59.5c0.1,3.1-1.4,5.8-3.4,5.9l-2.1,0.2
		c-2,0.1-3.7-2.3-3.8-5.4"/>
	<path clip-path="url(#SVGID_1_)" fill="#CCC9C7" d="M134.2,60.2c-0.3,2.8-1.5,5.1-3,4.7l-1.6-0.5c-1.5-0.4-2.7-2.7-2.3-5.9"/>
	<path clip-path="url(#SVGID_1_)" fill="#231F20" d="M148.8,59.6L148.8,59.6c0,0.7-0.5,1.3-1.2,1.3l-0.7,0c-0.7,0-1.3-0.5-1.3-1.2"
		/>
	<path clip-path="url(#SVGID_1_)" fill="#231F20" d="M131.5,59.5L131.5,59.5c-0.2,0.7-0.7,1.1-1.2,1l-0.5-0.1
		c-0.5-0.1-0.7-0.8-0.6-1.4"/>
	<path clip-path="url(#SVGID_1_)" fill="#231F20" d="M160.4,59.8c0,0,0-0.1,0-0.2c0-0.1,0-0.3,0-0.5c0-0.4,0.2-1.1,0.4-1.9
		c0.5-1.6,1.5-3.9,3.3-6.7c0.5-0.7,0.9-1.4,1.5-2.1c0.6-0.7,1.2-1.4,2.1-2c0.2-0.1,0.5-0.2,0.7-0.3c0.1,0,0.3,0,0.4,0
		c0.2,0,0.3,0.1,0.4,0.2c0.3,0.2,0.4,0.4,0.5,0.7c0.1,0.3,0.2,0.5,0.2,0.8c0.2,1.1,0.2,2.2,0.1,3.4c-0.2,2.3-0.6,4.8-1.3,7.4
		c-0.2,0.6-0.4,1.3-0.7,1.9c-0.1,0.3-0.3,0.6-0.5,0.9c-0.2,0.3-0.4,0.6-0.6,0.9c-0.2,0.3-0.5,0.5-0.8,0.8c-0.3,0.2-0.6,0.4-1,0.6
		c-0.7,0.3-1.5,0.5-2.3,0.5c0.1,0,0.2-0.1,0.4-0.3c-0.2,0.7-0.4,1.8-0.6,3.1c-0.2,1.3-0.2,2.9-0.3,4.5l0,0.1l-0.1,0.1
		c-1.4,1.6-3.3,3.7-5.4,6c-2.1,2.3-4.4,5-6.7,7.6c-0.8,1-1.7,1.9-2.3,2.7l0,0l0,0c-0.2,0.1-0.3,0.2-0.5,0.3
		c-0.2,0.1-0.3,0.1-0.5,0.1c-0.3,0.1-0.6,0.1-0.9,0.1c-0.6,0-1.1,0-1.7,0c-1.1,0-2.2-0.1-3.2-0.3c-1.1-0.2-2.1-0.4-3.1-0.7
		c-0.3-0.1-0.5-0.2-0.8-0.4c-0.1,0-0.1-0.1-0.2-0.1l-0.1-0.1c0,0-0.1-0.1-0.1-0.1c-0.1-0.1-0.2-0.2-0.2-0.3l0-0.1l0,0l0,0
		c0,0.1,0-0.1,0-0.1l0,0c-0.1-0.4-0.3-0.9-0.5-1.3c-0.8-1.8-1.8-3.5-2.7-5.2c-0.9-1.7-1.8-3.3-2.7-4.9c-0.9-1.6-1.7-3.1-2.4-4.6
		c-0.3-0.8-0.7-1.5-1-2.3c-0.1-0.2-0.1-0.3-0.2-0.6c0-0.2-0.1-0.4-0.1-0.6c-0.1-0.4-0.2-0.8-0.3-1.1c-0.6-3-0.7-5.7-0.7-8
		c0.1,0.1,0.1,0.1,0.2,0.2c-0.4-0.1-0.7-0.2-0.9-0.4c-0.2-0.1-0.4-0.3-0.5-0.5l0,0l0,0c-0.2-5.5,0.4-9.5,0.8-12.2
		c0.2-1.4,0.4-2.4,0.5-3c0.1-0.7,0.2-1,0.2-1s-0.1,0.3-0.2,1c-0.1,0.7-0.3,1.7-0.5,3c-0.3,2.7-0.8,6.8-0.5,12.2c0,0,0,0,0-0.1
		c0.2,0.3,0.5,0.5,1.2,0.7l0.2,0V58c0,2.3,0.2,4.9,0.8,7.8c0.1,0.4,0.2,0.7,0.3,1.1c0,0.2,0.1,0.4,0.1,0.6c0,0.2,0.1,0.4,0.2,0.5
		c0.3,0.8,0.6,1.5,1,2.2c0.7,1.5,1.6,3,2.4,4.6c0.9,1.6,1.8,3.2,2.7,4.9c0.9,1.7,1.9,3.4,2.8,5.3c0.2,0.5,0.4,0.9,0.5,1.6
		c0,0.1,0.5,0.4,0.9,0.6c0.9,0.3,2,0.5,3,0.7c1,0.1,2.1,0.2,3.2,0.3c0.5,0,1.1,0,1.6,0c0.3,0,0.5,0,0.8-0.1c0.2,0,0.5-0.1,0.6-0.2
		c0,0,0,0,0,0c0.7-0.8,1.5-1.7,2.3-2.7c2.4-2.7,4.6-5.3,6.8-7.6c2.1-2.3,4-4.4,5.4-6c0,0.1-0.1,0.2-0.1,0.2c0.1-1.6,0.2-3.2,0.4-4.5
		c0.3-1.4,0.5-2.5,0.7-3.2l0.1-0.3l0.3,0c0.7,0.1,1.3-0.1,1.9-0.4c0.3-0.1,0.6-0.3,0.9-0.5c0.3-0.2,0.5-0.4,0.7-0.7
		c0.2-0.3,0.4-0.5,0.6-0.8c0.2-0.3,0.3-0.6,0.5-0.9c0.3-0.6,0.5-1.2,0.6-1.9c0.7-2.5,1.2-4.9,1.4-7.2c0.1-1.1,0.1-2.3,0-3.3
		c-0.1-0.5-0.2-1-0.6-1.3c-0.1-0.1-0.2-0.1-0.3-0.1c-0.1,0-0.2,0-0.3,0c-0.2,0-0.4,0.1-0.6,0.2c-0.8,0.5-1.5,1.2-2,1.8
		c-0.6,0.7-1.1,1.4-1.5,2c-1.8,2.7-2.9,4.9-3.4,6.5c-0.3,0.8-0.4,1.4-0.5,1.9c0,0.2,0,0.4,0,0.5C160.4,59.8,160.4,59.8,160.4,59.8"
		/>
	<path clip-path="url(#SVGID_1_)" fill="#231F20" d="M152.7,59.3c0,0-0.1,0-0.3,0.1c-0.2,0.1-0.5,0.1-0.8,0.1
		c-0.7,0.1-1.7,0.2-3,0.3c-2.5,0.2-6.1,0.6-10,0.8c-1.6,0.1-3.2,0.1-4.6-0.2c-0.7-0.1-1.4-0.3-2-0.5c-0.6-0.2-1.2-0.3-1.7-0.5
		c-2.1-0.7-3.6-1-4-1.3c-0.1,0.2,0-0.1,0-0.1c-0.7-0.1-1-0.4-1.1-0.6c-0.1-0.2-0.2-0.2-0.2-0.2s0,0,0.2,0.2c0.2,0.1,0.5,0.4,1.1,0.5
		l0.2-0.1c0.8,0.1,1.8,0.5,4,1.1c0.5,0.1,1.1,0.3,1.8,0.4c0.6,0.1,1.3,0.3,2,0.4c1.3,0.3,2.9,0.2,4.4,0.1c3.9-0.2,7.4-0.4,10-0.4
		c1.3,0,2.3,0,3,0c0.4,0,0.6,0,0.8,0C152.6,59.3,152.7,59.3,152.7,59.3"/>
	<path clip-path="url(#SVGID_1_)" fill="#231F20" d="M149.9,53.4c0,0-0.3-0.1-0.8-0.2c-0.5-0.1-1.3-0.2-2.2-0.1
		c-1.8,0.1-4.4,0.7-7.2,1c-2.8,0.3-5.5,0.5-7.4,0.1c-0.2,0-0.5-0.1-0.7-0.2c-0.2-0.1-0.4-0.1-0.6-0.2c-0.3-0.2-0.6-0.4-0.8-0.5
		c-0.4-0.3-0.6-0.5-0.6-0.5s0.3,0.1,0.7,0.4c0.2,0.1,0.5,0.3,0.8,0.4c0.2,0.1,0.4,0.1,0.6,0.2c0.2,0.1,0.4,0.1,0.6,0.1
		c1.8,0.2,4.4-0.1,7.2-0.5c2.8-0.3,5.4-0.7,7.3-0.6c1,0.1,1.7,0.2,2.2,0.4C149.6,53.3,149.9,53.4,149.9,53.4"/>
	<path clip-path="url(#SVGID_1_)" fill="#231F20" d="M144,71.7c0,0,0-0.1-0.2-0.2c-0.2-0.1-0.7-0.2-1.4-0.1c0,0,0,0,0.1-0.1
		c0,0.3,0,0.7-0.2,1.3c0,0.2-0.1,0.3-0.3,0.5c-0.1,0.1-0.1,0.1-0.2,0.2l-0.1,0.1c0,0,0,0-0.1,0.1l-0.1,0c-0.3,0.2-0.7,0.4-1.1,0.6
		c-0.4,0.2-0.8,0.4-1.3,0.5c-0.2,0.1-0.5,0.1-0.8,0.2c-0.3,0-0.5,0.1-0.9,0.1c-0.1,0-0.3-0.1-0.3-0.1l0,0l0,0l0,0l-0.1,0l0,0l0,0
		l-0.1-0.1c-0.1-0.1-0.2-0.3-0.3-0.4c-0.2-0.3-0.3-0.5-0.4-0.8c-0.3-0.5-0.5-1.1-0.7-1.6c-0.3-0.8-0.5-1.5-0.7-2.3
		c-0.2-0.8-0.2-1.5-0.2-2.2c0-1.4,0.1-2.7,0.3-3.7c0.1-1,0.3-1.9,0.4-2.5c0.1-0.6,0.2-0.9,0.2-0.9s0,0.3-0.1,0.9
		c0,0.6-0.1,1.4-0.1,2.5c0,1-0.1,2.3,0,3.7c0,0.7,0.1,1.4,0.3,2.1c0.2,0.7,0.4,1.4,0.7,2.2c0.2,0.5,0.4,1.1,0.7,1.6
		c0.1,0.2,0.2,0.5,0.4,0.7c0.1,0.1,0.1,0.2,0.2,0.3c0,0,0,0,0,0l0,0l0,0c-0.2,0.1-0.1,0-0.1,0l0,0l0,0c0,0,0,0,0,0
		c0.1,0,0.1,0,0.1,0c0.2,0,0.4,0,0.7,0c0.2,0,0.5-0.1,0.7-0.1c0.5-0.1,0.9-0.2,1.3-0.4c0.4-0.1,0.8-0.3,1.1-0.5l0.1,0c0,0,0,0,0,0
		l0.1-0.1c0.1-0.1,0.1-0.1,0.2-0.2c0.1-0.1,0.2-0.2,0.2-0.3c0.3-0.5,0.3-0.9,0.4-1.2l0-0.1l0.1,0c0.7,0,1.2,0.1,1.4,0.2
		C144,71.6,144,71.7,144,71.7"/>
	<path clip-path="url(#SVGID_1_)" fill="#231F20" d="M165.1,57.2c0,0,0.1,0,0.1-0.1c0.1-0.1,0.2-0.2,0.3-0.4
		c0.2-0.3,0.5-0.9,0.7-1.6c0.3-0.7,0.5-1.5,0.8-2.5c0.1-0.5,0.3-1,0.4-1.6c0.1-0.5,0.2-1.1,0.1-1.6c0.1,0.1,0.3,0.2,0.5,0.3
		c-0.3,0.1-0.9,0.5-1.3,1.1c-0.9,1.1-1.5,2.3-2.1,3.4c-0.6,1.1-1,2.1-1.4,3c-0.4,0.9-0.6,1.6-0.7,2.1c-0.1,0.5-0.2,0.8-0.2,0.8
		s0-0.3,0.1-0.8c0.1-0.5,0.2-1.3,0.5-2.2c0.3-0.9,0.6-2,1.1-3.2c0.5-1.2,1.1-2.4,2.1-3.6c0.5-0.6,1.2-1.2,1.8-1.4l0.4-0.1l0,0.4
		c0.1,0.8-0.1,1.3-0.2,1.9c-0.1,0.6-0.3,1.1-0.5,1.6c-0.4,1-0.7,1.8-1.1,2.5c-0.4,0.7-0.7,1.2-0.9,1.5c-0.1,0.2-0.3,0.3-0.4,0.3
		C165.1,57.2,165.1,57.2,165.1,57.2"/>
	<path clip-path="url(#SVGID_1_)" fill="#231F20" d="M149.9,67.4c0,0,0-0.3,0.4-0.6c0.1-0.1,0.2-0.1,0.4-0.2c0.1,0,0.1,0,0.2,0
		c0.1,0,0.2,0,0.3,0.1c0.2,0.1,0.2,0.4,0.2,0.6c0,0.2-0.1,0.4-0.2,0.6c-0.2,0.4-0.5,0.8-1.1,0.9l-0.1,0l0,0l0,0h0h0h0l-0.2,0
		c-0.1,0-0.2,0-0.4,0c-0.2,0-0.5,0-0.8,0c-1.1-0.1-2.2-0.5-3.2-1.2c-1-0.7-1.8-1.6-2.4-2.5c-0.6-0.9-0.9-1.7-1.2-2.5
		c-0.2-0.7-0.4-1.4-0.4-1.8c0-0.2,0-0.4,0-0.5c0-0.1,0-0.2,0-0.2s0.1,1,0.8,2.3c0.7,1.3,1.8,3.1,3.6,4.4c0.9,0.6,1.9,1,2.8,1.2
		c0.2,0.1,0.5,0.1,0.7,0.1c0.1,0,0.2,0,0.3,0l0.2,0l0,0l0,0h0h0c-0.1,0,0,0,0,0l0,0l0.1,0c0.3,0,0.6-0.3,0.8-0.6
		c0.2-0.3,0.3-0.6,0.2-0.7c0,0-0.1-0.1-0.1-0.1c-0.1,0-0.1,0-0.2,0c-0.1,0-0.2,0-0.3,0.1C150,67.1,149.9,67.4,149.9,67.4"/>
	<path clip-path="url(#SVGID_1_)" fill="#231F20" d="M130.6,65.8c0,0,0,0-0.1-0.1c-0.1,0-0.2-0.1-0.3-0.1c-0.1,0-0.2,0-0.2,0
		c-0.1,0-0.2,0-0.2,0.1c-0.1,0.1-0.2,0.3-0.2,0.5c0,0.2,0.1,0.4,0.3,0.6c0.2,0.2,0.4,0.2,0.8,0.3c0.5,0.1,1.1-0.4,1.5-1.1
		c0.4-0.7,0.7-1.4,1-2.1c0.3-0.7,0.5-1.3,0.6-1.8c0.3-1.1,0.5-1.8,0.5-1.8s0,0.7-0.1,1.8c-0.1,0.6-0.2,1.2-0.4,2
		c-0.2,0.7-0.5,1.5-0.9,2.3c-0.2,0.4-0.5,0.8-1,1c-0.4,0.3-0.9,0.4-1.4,0.3c-0.3-0.1-0.8-0.3-1.1-0.5c-0.3-0.3-0.4-0.7-0.4-1.1
		c0.1-0.3,0.3-0.6,0.5-0.7c0.1-0.1,0.3-0.1,0.4-0.1c0.1,0,0.2,0,0.3,0.1C130.3,65.5,130.4,65.6,130.6,65.8
		C130.5,65.7,130.6,65.8,130.6,65.8"/>
	<path clip-path="url(#SVGID_1_)" fill="#231F20" d="M149.9,74.5c0,0-0.9,0.6-2.4,1.5c-0.7,0.4-1.7,0.9-2.7,1.4
		c-1.1,0.4-2.3,0.9-3.6,1.2c-0.4,0.1-0.8,0.1-1.2,0.2c-0.4,0.1-0.8,0.1-1.2,0.1c-0.4,0-0.8-0.1-1.1-0.1l-0.2-0.1l-0.1,0
		c-0.1,0-0.1,0-0.1,0l-0.1-0.1c-0.2-0.1-0.3-0.2-0.5-0.3c-0.5-0.4-0.9-0.9-1.2-1.3c-0.3-0.4-0.6-0.7-0.8-1c0.1,0,0.2,0,0.2,0
		c-0.2,0.3-0.3,0.6-0.2,0.9c0,0.3,0,0.5,0.1,0.7c0,0.4,0.1,0.5,0.1,0.5s0-0.2-0.1-0.5c0-0.2-0.1-0.4-0.2-0.7c0-0.3,0-0.7,0.2-1.1
		l0.1-0.2l0.2,0.1c0.3,0.2,0.6,0.5,0.9,0.9c0.4,0.3,0.8,0.8,1.2,1.1c0.4,0.3,1,0.3,1.7,0.3c0.3,0,0.7,0,1-0.1
		c0.4-0.1,0.7-0.1,1.1-0.2c1.3-0.3,2.4-0.7,3.5-1c1-0.4,2-0.7,2.8-1.1C148.9,74.9,149.9,74.5,149.9,74.5"/>
	<path clip-path="url(#SVGID_1_)" fill="#231F20" d="M144,80.7c0,0-0.1,0-0.3,0.1c-0.2,0.1-0.5,0.1-0.8,0.2
		c-0.4,0.1-0.8,0.1-1.3,0.2c-0.5,0-1,0.1-1.6,0c-0.6,0-1.2-0.3-1.6-0.6c-0.4-0.3-0.7-0.8-0.8-1.1c-0.1-0.4-0.2-0.7-0.1-0.9
		c0-0.2,0-0.3,0-0.3s0,0.1,0.1,0.3c0.1,0.2,0.2,0.4,0.4,0.7c0.2,0.3,0.5,0.5,0.8,0.7c0.4,0.2,0.8,0.3,1.3,0.3c0.5,0.1,1,0.1,1.5,0.1
		c0.5,0,0.9,0.1,1.2,0.1c0.4,0.1,0.6,0.1,0.8,0.1C143.9,80.6,144,80.7,144,80.7"/>
	<path clip-path="url(#SVGID_1_)" fill="#FFFFFF" d="M166.4,49.8c-2.5,3.1-5,8.1-4.9,10.6c-0.4,0.7-2.2,0.9-2.2,0.9
		c0-1.3-0.2-2.4,0-3.4c0.2-1,1.2-17-2.8-19.3c-2.7-0.2-14.8,7.8-19.1,4c-1.1,2-6.1,0.9-10-1c-0.1,0.7-0.3,1.6-0.5,2.7
		c-1.7,0.1-3.1-4.3-2.7-8.5c0.4-4.3,6.1-19.6,18.3-15.9c1.7-2.7,10.9-2.4,17.1,3.8c3.1,3,3.1,4.8,3.8,6.7
		C164.1,32.1,166.6,46.3,166.4,49.8"/>
	<path clip-path="url(#SVGID_1_)" fill="#231F20" d="M149.9,78.2c0,0,0-0.2,0.1-0.4c0-0.3,0.1-0.7,0-1.2c-0.1-1-0.5-2.3-1.4-3.3
		c-0.5-0.5-1-1-1.5-1.4c-0.3-0.2-0.5-0.4-0.7-0.5c-0.2-0.1-0.5-0.2-0.7-0.2c-0.5-0.1-0.9-0.2-1.2-0.4c-0.3-0.1-0.4-0.2-0.4-0.2
		s0.2,0,0.4,0.1c0.3,0.1,0.7,0.1,1.2,0.1c0.3,0,0.6,0,0.9,0.1c0.3,0.1,0.6,0.3,0.9,0.4c0.6,0.3,1.2,0.8,1.8,1.4
		c0.5,0.6,0.9,1.3,1.1,2c0.2,0.7,0.2,1.4,0.1,1.9c-0.1,0.5-0.2,0.9-0.3,1.2C150,78.1,149.9,78.2,149.9,78.2"/>
	<path clip-path="url(#SVGID_1_)" fill="#231F20" d="M152.1,76.5c0,0-0.1-0.2-0.3-0.4c-0.2-0.3-0.3-0.6-0.5-1
		c-0.1-0.4-0.1-0.8-0.1-1.1c0-0.1,0-0.3,0-0.4c0-0.1,0-0.1,0-0.1s0,0,0.1,0.1c0.1,0,0.2,0.1,0.3,0.2c0.2,0.3,0.5,0.6,0.6,1.1
		c0.1,0.4,0.1,0.9,0,1.2C152.2,76.3,152.1,76.5,152.1,76.5"/>
	<path clip-path="url(#SVGID_1_)" fill="#231F20" d="M146,17.6c3.7,0,8.6,1.6,12.4,5.5c3.1,3,3.1,4.8,3.8,6.7c0.7,1.8,3.3,16,3,19.5
		c1.3-1.6,2.5-2.8,3.4-2.8c0.1,0,0.1,0,0.2,0c2.5,0.4,0.3,11.5-1,14.2c-1.2,2.5-3.1,3.3-4.5,3.3c-0.1,0-0.2,0-0.3,0
		c0,0-0.9,3.4-0.9,4.6l6.6,7.2l29.3,13.6l-9.3,41.8h-82.4l-7.2-37.1l33.7-15.5c-0.9-1.7-4.8-8.3-5.6-11c-0.9-2.7-1.3-6.7-1.2-9.7
		c0,0-0.9-0.1-1.3-0.8c-0.3-5.4,0.3-10.3,0.8-13.6c0,0,0,0-0.1,0c-1.7,0-3.1-4.3-2.6-8.5c0.4-3.8,5-16.5,14.7-16.5
		c1.1,0,2.4,0.2,3.7,0.6C142,18.2,143.8,17.6,146,17.6 M146,15.9L146,15.9c-2.2,0-4,0.5-5.2,1.4c-1.1-0.2-2.1-0.4-3.1-0.4
		c-11.1,0-16,14-16.4,18c-0.4,3.7,0.5,7.6,2.1,9.3c0.2,0.2,0.3,0.3,0.5,0.4c-0.6,4.4-0.8,8.6-0.6,12.6l0,0.4l0.2,0.4
		c0.3,0.5,0.7,0.8,1.1,1c0,2.8,0.4,6.3,1.3,9c0.7,2.1,2.9,6.1,4.9,9.7l-32,14.8l-1.2,0.6l0.3,1.3l7.2,37.1l0.3,1.3h1.4h82.4h1.3
		l0.3-1.3l9.3-41.8l0.3-1.4l-1.3-0.6l-29-13.5L164,68c0.1-0.6,0.3-1.6,0.5-2.4c2.1-0.4,3.9-1.9,5-4.2c1.1-2.3,3.4-11.8,1.7-15.1
		c-0.4-0.8-1.1-1.4-2-1.5c-0.1,0-0.3,0-0.4,0c-0.5,0-1.1,0.1-2,0.6c-0.6-5.7-2.3-14.7-2.9-16.3c-0.1-0.3-0.2-0.7-0.3-1
		c-0.5-1.6-1.1-3.6-3.9-6.2C155.3,17.4,149.8,15.9,146,15.9"/>
	<path clip-path="url(#SVGID_1_)" fill="#231F20" d="M165.3,48.8c0,0,0-0.3,0-0.8c0-0.3,0-0.6,0-1c0-0.4-0.1-0.9-0.1-1.4
		c-0.2-2.1-0.7-5.2-1.4-9.2c-0.4-2-0.8-4.2-1.4-6.5l-0.1-0.4c0-0.1-0.1-0.3-0.1-0.4c-0.1-0.3-0.2-0.6-0.3-0.9
		c-0.2-0.6-0.4-1.2-0.7-1.8c-0.3-0.6-0.6-1.1-1-1.7c-0.2-0.3-0.4-0.5-0.6-0.8c-0.2-0.2-0.5-0.5-0.7-0.8c-1.9-2-4.5-3.8-7.5-4.7
		c-1.5-0.5-3.1-0.8-4.8-0.8c-0.8,0-1.7,0.1-2.5,0.3c-0.8,0.2-1.6,0.6-2,1.2l-0.1,0.2l-0.2-0.1c-1.7-0.5-3.8-0.8-6-0.2
		c-2.2,0.5-4.3,1.9-6,3.8c-1.8,1.9-3.2,4.3-4.3,6.9c-0.5,1.3-1,2.7-1.3,4.1c-0.2,0.7-0.2,1.4-0.2,2.2c0,0.7,0,1.5,0.1,2.2
		c0.1,1,0.3,2,0.7,2.9c0.2,0.4,0.4,0.9,0.7,1.2c0.3,0.4,0.6,0.6,0.9,0.6c-0.1,0.1-0.3,0.2-0.4,0.4c0.2-0.9,0.3-1.8,0.5-2.7l0.1-0.5
		l0.5,0.2c1.6,0.8,3.3,1.4,5.1,1.8c0.8,0.2,1.7,0.3,2.5,0.3c0.4,0,0.8-0.1,1.2-0.2c0.3-0.1,0.6-0.4,0.8-0.6l0.3-0.4l0.3,0.3
		c0.6,0.5,1.4,0.8,2.3,0.9c0.9,0.1,1.7,0,2.6-0.1c1.7-0.3,3.3-0.9,4.9-1.4c1.6-0.6,3.1-1.2,4.5-1.9c0.7-0.3,1.5-0.6,2.2-0.9
		c0.4-0.1,0.7-0.3,1.1-0.4c0.4-0.1,0.8-0.2,1.2-0.2l0.1,0l0.1,0c0.7,0.4,1.1,1.1,1.4,1.7c0.3,0.6,0.5,1.3,0.7,2
		c0.4,1.3,0.5,2.6,0.7,3.8c0.3,2.5,0.3,4.7,0.3,6.7c0,2-0.1,3.7-0.3,5.2c-0.1,0.4-0.1,0.7-0.1,1c0,0.3,0,0.6,0,0.9
		c0,0.6,0,1.1,0,1.6c-0.1-0.1-0.1-0.1-0.1-0.1c0.8-0.1,1.3-0.2,1.6-0.4c0.3-0.2,0.4-0.3,0.5-0.4c0,0,0,0,0,0c0-1.2,0.4-2.2,0.7-3.2
		c0.3-0.9,0.7-1.7,1.1-2.4c0.7-1.4,1.3-2.4,1.8-3.1c0.5-0.7,0.8-1.2,1.1-1.5C165.2,48.9,165.3,48.8,165.3,48.8s-0.1,0.1-0.3,0.4
		c-0.2,0.3-0.6,0.8-1,1.5c-0.5,0.8-1.1,1.8-1.8,3.2c-0.3,0.7-0.7,1.5-1,2.4c-0.3,0.9-0.7,1.9-0.7,3.1v0l0,0
		c-0.2,0.3-0.6,0.7-2.2,0.9l-0.1,0l0-0.1c0-0.5,0-1-0.1-1.6c0-0.3,0-0.6,0-1c0-0.3,0-0.7,0.1-1.1c0.1-1.5,0.2-3.2,0.2-5.2
		c0-2-0.1-4.2-0.4-6.6c-0.1-1.2-0.3-2.5-0.7-3.7c-0.2-0.6-0.4-1.3-0.7-1.8c-0.3-0.6-0.7-1.1-1.2-1.4c0,0,0.1,0,0.1,0
		c-0.6,0-1.4,0.3-2.1,0.5c-0.7,0.3-1.4,0.6-2.2,0.9c-1.5,0.6-3,1.3-4.6,1.9c-1.6,0.6-3.2,1.2-5,1.5c-0.9,0.2-1.8,0.3-2.8,0.2
		c-1-0.1-2-0.4-2.7-1.1c0.2,0,0.4-0.1,0.6-0.1c-0.3,0.5-0.7,0.8-1.2,1c-0.5,0.2-0.9,0.3-1.4,0.3c-0.9,0-1.8-0.1-2.7-0.3
		c-1.8-0.4-3.5-1-5.2-1.8c0.2-0.1,0.4-0.2,0.6-0.3c-0.2,0.9-0.3,1.8-0.5,2.7l-0.1,0.4l-0.3,0c-0.2,0-0.4,0-0.5-0.1
		c-0.1-0.1-0.3-0.1-0.4-0.2c-0.3-0.2-0.5-0.4-0.6-0.6c-0.4-0.5-0.6-1-0.8-1.4c-0.4-1-0.6-2.1-0.7-3.1c-0.1-0.8-0.1-1.5-0.1-2.3
		c0-0.8,0.1-1.5,0.2-2.3c0.3-1.5,0.8-2.9,1.4-4.3c1.1-2.7,2.6-5.2,4.5-7.2c1.8-2,4.1-3.4,6.5-4c2.3-0.6,4.6-0.2,6.4,0.3
		c-0.2,0.1-0.3,0.1-0.4,0.1c0.6-0.9,1.6-1.3,2.4-1.5c0.9-0.2,1.8-0.3,2.7-0.3c1.8,0,3.4,0.4,5,0.9c3.1,1.1,5.8,2.9,7.7,5
		c0.2,0.3,0.5,0.5,0.7,0.8c0.2,0.3,0.4,0.6,0.7,0.8c0.4,0.6,0.8,1.2,1.1,1.8c0.3,0.6,0.5,1.2,0.7,1.9c0.1,0.3,0.2,0.6,0.3,0.9
		c0,0.2,0.1,0.3,0.1,0.4l0.1,0.4c0.6,2.4,1,4.6,1.3,6.6c0.7,4,1.1,7.1,1.3,9.2c0,0.5,0.1,1,0.1,1.4c0,0.4,0,0.7,0,1
		C165.3,48.5,165.3,48.8,165.3,48.8"/>
	<path clip-path="url(#SVGID_1_)" fill="#231F20" d="M145.6,59.7c0,0,0,0.3,0.3,0.6c0.1,0.1,0.3,0.3,0.5,0.4c0.1,0,0.2,0.1,0.4,0
		c0.1,0,0.3,0,0.4,0c0.3,0,0.6,0,0.8-0.1c0.2-0.1,0.4-0.2,0.5-0.4c0.2-0.3,0.2-0.6,0.2-0.6c0,0,0.1,0.3-0.1,0.7
		c-0.1,0.2-0.2,0.5-0.5,0.6c-0.3,0.2-0.7,0.2-1,0.2c-0.2,0-0.3,0-0.5,0c-0.1,0-0.3-0.1-0.5-0.1c-0.3-0.1-0.5-0.4-0.6-0.6
		C145.5,60,145.6,59.7,145.6,59.7"/>
	<path clip-path="url(#SVGID_1_)" fill="#231F20" d="M129.2,58.9c0,0,0,0.1,0,0.2c0,0.1,0,0.2,0.1,0.4c0,0.2,0.1,0.3,0.2,0.5
		c0.1,0.1,0.1,0.1,0.2,0.2l0.1,0l0,0l0,0c0,0,0,0,0,0h0l0,0l0,0l0.2,0.1c0.3,0.1,0.4,0.1,0.6,0.1c0.2-0.1,0.3-0.2,0.5-0.3
		c0.2-0.2,0.3-0.5,0.3-0.5c0,0,0,0.2-0.2,0.6c-0.1,0.2-0.2,0.4-0.5,0.5c-0.1,0.1-0.3,0.1-0.4,0.1c-0.2,0-0.3,0-0.4-0.1l-0.2-0.1l0,0
		l0,0l0,0l0,0l-0.1,0c-0.1-0.1-0.3-0.2-0.3-0.3c-0.1-0.2-0.2-0.5-0.2-0.7c0-0.2,0.1-0.3,0.1-0.4C129.2,59,129.2,58.9,129.2,58.9"/>
	<polygon clip-path="url(#SVGID_1_)" fill="#FFFFFF" points="145.5,97.3 145.3,89.7 145.9,89.7 146.1,97.3 	"/>
	<line clip-path="url(#SVGID_1_)" fill="#FFFFFF" x1="134.7" y1="81.5" x2="133.6" y2="88.3"/>
	<polygon clip-path="url(#SVGID_1_)" fill="#231F20" points="146.2,91.6 136.2,89.2 133.2,88.5 134.4,81.4 135,81.5 133.9,88.1 
		136.4,88.6 144.9,90.7 143.4,88.4 143.9,88.1 	"/>
	<polygon clip-path="url(#SVGID_1_)" fill="#231F20" points="146.6,91.8 145.5,91.5 145.6,90.9 146.8,91.2 	"/>
	<path clip-path="url(#SVGID_1_)" fill="#FFFFFF" d="M89.1,102.9l0.1-1.7c-0.1-2.1-0.3-5.6-0.3-5.6c-0.4,0.2-2.1-0.4-2.3-1.5
		c-0.3-1-0.5-6.1,0-7.2l0-0.1c-0.3-1.3-0.8-9.7,2-12.3c2.9-2.7,4.2-2.9,10.1-2.4h1.4c5.9-0.5,7.2-0.3,10.1,2.4
		c2.9,2.6,1.6,11.5,1.2,12.4l0.1,0.5c0.3,1,0,6-0.3,6.7c-0.3,0.7-0.9,1.7-2.1,1.5c0.1,0.8-0.6,5.7-0.6,5.7l-0.4,0.5v1.6
		c0,0.6,0,1.8,0,1.8l-10.3,11l-8.4-10.9L89.1,102.9z"/>
	<path clip-path="url(#SVGID_1_)" fill="#231F20" d="M111.2,86.9c0.4-0.9,1.6-9.8-1.2-12.4c-2.9-2.7-4.2-2.9-10.1-2.4h-1.4
		c-5.9-0.5-7.2-0.3-10.1,2.4c-2.8,2.5-2.3,11-2,12.3l0,0.1l0,0c0.2-0.5,0.8-1.2,1.9-1c0,0.5,0.4,3.5,0.2,4.8h1c0,0-0.1-2.3-0.1-3.9
		l1-2.1c0,0-0.8-2.4-1.1-3.5c-0.3-1.1,0.3-2.1,0.3-2.1s1.1-2.2,4.3-2.4c1.9,0,3.6,1.2,5.2,1.1h0.1c1.6,0.1,3.3-1.1,5.2-1.1
		c3.2,0.3,4.3,2.4,4.3,2.4s0.6,1.1,0.3,2.1c-0.3,1.1-1.1,3.5-1.1,3.5l-0.1,0.2l1.1,2.2l-0.1,3.7h0.7c0,0,0.4-4.2,0.4-4.6
		C110,85.7,111.1,86.1,111.2,86.9"/>
	<path clip-path="url(#SVGID_1_)" d="M103,71.9c2.9,0,4.2,0.7,6.3,2.6c2.8,2.6,1.6,11.5,1.2,12.4l0.1,0.5c0.3,1,0,6-0.3,6.7
		c-0.3,0.6-0.8,1.5-1.8,1.5c-0.1,0-0.2,0-0.3,0c0.1,0.8-0.6,5.7-0.6,5.7l-0.4,0.5v1.6h0.9l2.7,3.2c5.2,1.9,16.3,7.8,16.3,7.8
		l4.7,14.7h-21.5h-4.5H105H87h-2.2h-4.6H61.9l7.4-16.4l18.2-8.7l1-1.1l0.1-1.7c-0.1-2.1-0.3-5.6-0.3-5.6c0,0-0.1,0-0.2,0
		c-0.6,0-1.9-0.6-2.2-1.5c-0.3-1-0.5-6.1,0-7.2l0-0.1c-0.3-1.3-0.8-9.7,2-12.3c2.1-2,3.4-2.6,6.3-2.6c1,0,2.2,0.1,3.8,0.2h1.4
		C100.7,72,101.9,71.9,103,71.9 M103,71.4L103,71.4c-0.9,0-2.1,0.1-3.8,0.2h-1.3c-1.7-0.2-2.9-0.2-3.8-0.2c-3.2,0-4.6,0.8-6.7,2.8
		c-2.9,2.7-2.5,11.3-2.1,12.8c-0.5,1.6-0.2,6.4,0,7.3c0.3,1.1,1.5,1.7,2.4,1.9c0.1,1,0.2,3.4,0.3,5.1l-0.1,1.5l-0.8,0.9L69,112.2
		l-0.1,0l-0.1,0.1l-7.4,16.4l-0.8,0.9h1.2h18.4h4.6H87H105h0.9h4.5h21.5h1.1l-0.6-0.9l-4.7-14.7l-0.1-0.1l-0.1-0.1
		c-0.4-0.2-11-5.9-16.3-7.8l-2.6-3.1l-0.2-0.2H108h-0.4V102l0.3-0.4l0.1-0.1l0-0.1c0.1-0.7,0.6-3.8,0.6-5.3c1.2-0.1,1.8-1.3,2.1-1.8
		c0.4-0.9,0.6-6,0.4-7.1l-0.1-0.3c0.4-1.5,1.5-10.1-1.4-12.8C107.5,72.2,106.1,71.4,103,71.4"/>
	<polygon clip-path="url(#SVGID_1_)" fill="#231F20" points="61.9,129.2 69.2,112.7 88.5,103.5 87,129.2 	"/>
	<path clip-path="url(#SVGID_1_)" fill="#FFFFFF" d="M88.5,103.5L87,129.2H61.9l7.4-16.4L88.5,103.5z M88.7,103.2l-0.2,0.1
		l-19.3,9.2l0,0l0,0l-7.4,16.4l-0.2,0.2h0.3H87h0.1l0-0.1l1.5-25.7L88.7,103.2z"/>
	<path clip-path="url(#SVGID_1_)" fill="#231F20" d="M108.9,106.1l-3.9,23.1h26.9l-4.7-14.7C127.1,114.4,112.4,106.5,108.9,106.1"/>
	<path clip-path="url(#SVGID_1_)" fill="#FFFFFF" d="M108.9,106.1c3.5,0.5,18.3,8.3,18.3,8.3l4.7,14.7H105L108.9,106.1 M108.7,105.9
		l0,0.1l-3.9,23.1l0,0.2h0.2h26.9h0.3l-0.2-0.2l-4.7-14.7l0,0l0,0c-0.6-0.3-14.8-7.9-18.3-8.4L108.7,105.9z"/>
	<polygon clip-path="url(#SVGID_1_)" fill="#FFFFFF" points="84.9,129.2 87.8,109.3 88,107.5 88.4,104.7 92.7,110.2 96.7,115.3 
		101.3,110.7 107.1,104.7 107.1,108 107.1,109.6 105.9,129.2 	"/>
	<polygon clip-path="url(#SVGID_1_)" fill="#231F20" points="87,129.2 88.5,102.8 76,116.3 80.3,129.2 	"/>
	<path clip-path="url(#SVGID_1_)" fill="#FFFFFF" d="M88.5,102.8L87,129.2h-6.7L76,116.3L88.5,102.8z M88.7,102.4l-0.3,0.3
		l-12.6,13.5l-0.1,0.1l0,0.1l4.3,12.8l0,0.1h0.1H87h0.1l0-0.1l1.5-26.4L88.7,102.4z"/>
	<polygon clip-path="url(#SVGID_1_)" fill="#231F20" points="107.1,103.5 107.1,109.6 105,129.2 110.3,129.2 118.3,115.3 
		108.1,103.5 	"/>
	<path clip-path="url(#SVGID_1_)" fill="#FFFFFF" d="M108.1,103.5l10.3,11.9l-8,13.8H105l2.2-19.5v-6.2H108.1z M108.1,103.3
		L108.1,103.3h-1H107v0.1v6.2l-2.2,19.5l0,0.2h0.2h5.4h0.1l0-0.1l8-13.8l0-0.1l-0.1-0.1L108.1,103.3L108.1,103.3z"/>
	<polygon clip-path="url(#SVGID_1_)" fill="#231F20" points="107.1,109.6 107.1,108 99,116 101.2,116 	"/>
	<path clip-path="url(#SVGID_1_)" fill="#231F20" d="M87.8,109.3l0.3-1.9c0.5,0.7,6.8,8.9,6.8,8.9h-2.3L87.8,109.3z"/>
	<path clip-path="url(#SVGID_1_)" fill="#231F20" d="M95.3,116c0,0-5.4-2.6-6.7-2.7c-0.6,0.9-0.8,8,1.1,10.3c0.6-0.1,5.6-4,5.6-4
		c0.9,0.6,2.5,0.3,3,0c0,0,2.3,3.9,5.5,4.7c0.8-0.8,2.2-9.1,2.1-9.9c-0.1-0.8-5.9,1-7.3,2C98.5,116.3,98.2,114.9,95.3,116"/>
	<path clip-path="url(#SVGID_1_)" fill="#231F20" d="M98.2,119.6c-0.5,0.3-2.1,0.6-3,0V116c3-1.1,3.2,0.3,3.2,0.3L98.2,119.6z"/>
	<polygon clip-path="url(#SVGID_1_)" fill="#FFFFFF" points="96.7,115.3 92.7,110.2 91.3,118.8 	"/>
	<path clip-path="url(#SVGID_1_)" fill="#231F20" d="M96.7,115.3c0,0-2,1.4-5.4,3.6l-0.3,0.2l0.1-0.4c0.2-1,0.4-2.6,0.7-4.3
		c0.3-1.7,0.6-3.2,0.8-4.2l0.1-0.4l0.2,0.3C95.3,113.3,96.7,115.3,96.7,115.3s-1.6-1.9-4.1-5c0.1,0,0.2,0,0.3-0.1
		c-0.1,1-0.4,2.6-0.7,4.3c-0.3,1.7-0.6,3.3-0.8,4.3c-0.1-0.1-0.2-0.1-0.2-0.2C94.6,116.6,96.7,115.3,96.7,115.3"/>
	<polygon clip-path="url(#SVGID_1_)" fill="#FFFFFF" points="101.3,110.7 96.7,115.3 101.9,118.8 	"/>
	<path clip-path="url(#SVGID_1_)" fill="#231F20" d="M101.3,110.7c0,0,0.4,3.3,0.7,8.1l0,0.4l-0.3-0.2c-0.4-0.3-1.2-0.8-1.9-1.3
		c-1.3-0.8-2.4-1.6-3.2-2.2l-0.2-0.1l0.1-0.1C99.5,112.4,101.3,110.7,101.3,110.7s-1.7,1.9-4.5,4.8c0-0.1,0-0.1,0-0.3
		c0.8,0.5,2,1.3,3.2,2.1c0.7,0.5,1.5,1,1.9,1.3c-0.1,0.1-0.2,0.1-0.3,0.2C101.4,114,101.3,110.7,101.3,110.7"/>
	<path clip-path="url(#SVGID_1_)" fill="#231F20" d="M88.5,101.2c0,0,0.1,0.6,0.2,1.6c0,0,0,0,0,0c0,0.6,0,1.4-0.1,2.2
		c-0.1,2.1-0.4,3.8-0.4,3.8s-0.1-1.7,0-3.9c0.1-0.9,0.1-1.7,0.2-2.2v0v0C88.4,101.8,88.5,101.2,88.5,101.2"/>
	<path clip-path="url(#SVGID_1_)" fill="#231F20" d="M107.1,109.6c0,0-0.2-1.7-0.2-3.9c0-2.2,0.2-3.9,0.2-3.9s0.2,1.7,0.2,3.9
		C107.3,107.9,107.1,109.6,107.1,109.6"/>
	<path clip-path="url(#SVGID_1_)" fill="#231F20" d="M108.5,91.8c0,0-0.1,1.2-0.3,3.8v0c0,1.2-0.3,3.3-0.6,5.8l0,0l0,0
		c-0.1,0.1-0.2,0.3-0.4,0.5l0,0l0,0c-1.5,1.8-3.9,4.5-6.5,7.5l-0.1,0.1h-0.1c-0.6,0-1.5,0-2.5,0c-0.7,0-1.5,0-2.1,0H96l-0.1-0.1
		c-0.7-0.8-1.4-1.6-2.1-2.4c-0.3-0.4-0.7-0.8-1-1.2c-0.2-0.2-0.3-0.4-0.5-0.6c-0.2-0.2-0.3-0.3-0.5-0.5c-1.3-1.3-2.6-2.4-3.5-3.5
		l0,0l0,0c-0.1-2.9-0.2-5.3-0.3-6.9c0-0.8,0-1.4,0-1.8c0-0.2,0-0.4,0.1-0.5c0-0.1,0-0.2,0-0.2s0,0.1,0,0.2c0,0.1,0,0.3,0,0.5
		c0,0.4,0,1,0,1.8c0.1,1.6,0.3,3.9,0.5,6.9c0,0,0,0,0-0.1c0.9,1,2.2,2.1,3.6,3.4c0.2,0.2,0.3,0.3,0.5,0.5c0.2,0.2,0.3,0.4,0.5,0.5
		c0.3,0.4,0.7,0.8,1,1.1c0.7,0.8,1.4,1.6,2.1,2.4c0,0-0.1,0-0.2-0.1c0.6,0,1.3,0,2.1,0c1,0,1.9,0,2.5,0c-0.1,0-0.1,0.1-0.2,0.1
		c2.6-3,5-5.7,6.6-7.4c0,0,0,0,0,0c0.2-0.2,0.3-0.4,0.4-0.5c0,0,0,0,0,0.1c0.4-2.5,0.7-4.5,0.7-5.7v0
		C108.4,93,108.5,91.8,108.5,91.8"/>
	<path clip-path="url(#SVGID_1_)" fill="#231F20" d="M97.2,96.2c0,0-0.1-2.2-0.2-5.5c0,0,0,0.1,0.1,0.1c-0.4-0.3-0.9-0.7-1.5-1.1
		c-0.8-0.6-1.6-1.2-2.3-1.7c-0.4-0.3-0.7-0.5-1-0.7c-0.2-0.1-0.3-0.2-0.5-0.3c0,0-0.1,0-0.1,0l-0.1,0l0,0c0,0,0,0,0,0
		c0,0-0.1,0.1-0.2,0.1c-0.5,0.4-0.8,0.9-1.1,1.2c-0.2,0.3-0.4,0.4-0.4,0.4s0.1-0.2,0.3-0.5c0.2-0.3,0.5-0.8,1-1.3
		c0.1-0.1,0.1-0.1,0.3-0.2c0,0,0,0,0.1,0l0,0l0.1,0c0,0,0.1,0,0.1,0c0.2,0.1,0.4,0.2,0.5,0.3c0.3,0.2,0.7,0.4,1.1,0.7
		c0.7,0.5,1.5,1.1,2.3,1.7c0.6,0.4,1.2,0.9,1.5,1.2l0.1,0.1l0,0.1C97.3,94,97.2,96.2,97.2,96.2"/>
	<path clip-path="url(#SVGID_1_)" fill="#FFFFFF" d="M100.5,103.5c1-0.9,0.9-3.2,0.9-3.9h-5.8c-0.1,1,0,2.6,0.9,3.9H100.5z"/>
	<path clip-path="url(#SVGID_1_)" fill="#231F20" d="M97.2,97.8c0,0,0.1,0,0.2,0.1c0.1,0,0.1,0.1,0.2,0.1c0.1,0,0.2,0,0.3,0.1
		c0.3,0.1,0.6,0,1-0.1c0.3-0.1,0.7-0.4,0.9-0.8c0,0,0,0,0,0c0-1.5-0.1-3.7-0.1-6v-0.5v-0.1l0.1-0.1c2.4-1.4,4.6-2.6,5.7-3.2l0.1,0
		l0,0c0.9,1.2,1.3,1.8,1.3,1.8s-0.4-0.5-1.4-1.7c0,0,0,0,0.1,0c-1,0.7-3.1,2-5.5,3.4c0,0,0.1-0.1,0.1-0.2v0.5c0,2.3,0,4.5-0.1,6v0
		l0,0c-0.2,0.5-0.7,0.8-1.1,0.9c-0.4,0.1-0.7,0.1-1,0c-0.1,0-0.3-0.1-0.3-0.1c-0.1-0.1-0.2-0.1-0.2-0.1
		C97.3,97.8,97.2,97.8,97.2,97.8"/>
	<path clip-path="url(#SVGID_1_)" fill="#231F20" d="M96.7,97.5C96.7,97.5,96.7,97.6,96.7,97.5c-0.1,0.1-0.2,0.2-0.3,0.3
		c-0.1,0.1-0.3,0.1-0.5,0.1c-0.2,0-0.4-0.2-0.5-0.4c-0.1-0.4,0-0.7,0.1-1c0.1-0.2,0.2-0.3,0.2-0.3c0,0,0,0.6,0.1,1.2
		c0,0.1,0.1,0.2,0.2,0.2c0.1,0,0.2,0,0.3,0c0.1,0,0.2,0,0.3,0C96.7,97.5,96.7,97.5,96.7,97.5"/>
	<path clip-path="url(#SVGID_1_)" fill="#231F20" d="M96.5,103.5l-3.4-3.9h2.5C95.5,100.6,95.6,102.2,96.5,103.5"/>
	<path clip-path="url(#SVGID_1_)" fill="#231F20" d="M101.4,99.6h2.2l-3.1,3.9C101.5,102.6,101.4,100.3,101.4,99.6"/>
	<path clip-path="url(#SVGID_1_)" fill="#231F20" d="M99.9,97.2c0,0,0,0,0.1,0.1c0.1,0,0.2,0.1,0.3,0.1c0.1,0.1,0.3,0.1,0.4,0
		c0,0,0.1-0.2,0.1-0.4c0-0.4-0.1-0.8-0.2-1c0-0.1-0.1-0.2-0.1-0.3c0-0.1-0.1-0.1-0.1-0.1s0,0,0.1,0.1c0.1,0,0.2,0.1,0.3,0.2
		c0.2,0.2,0.4,0.6,0.5,1.1c0,0.1,0,0.3-0.1,0.4c0,0.1-0.2,0.3-0.3,0.3c-0.1,0-0.1,0-0.2,0c-0.1,0-0.1,0-0.2,0
		c-0.1,0-0.2-0.1-0.2-0.1c-0.1-0.1-0.2-0.2-0.3-0.3C100,97.2,99.9,97.2,99.9,97.2"/>
	<path clip-path="url(#SVGID_1_)" fill="#231F20" d="M93.1,99.6c0,0,1.2,1.3,3.5,3.8c0,0-0.1,0-0.1,0c0.9,0,2.3,0,4-0.1
		c0,0-0.1,0-0.1,0.1c0.5-0.6,1.2-1.5,2-2.5c0.4-0.5,0.9-1.1,1.1-1.4c0.1,0.2,0.1,0.2,0.2,0.3C97.5,99.8,93.1,99.6,93.1,99.6
		s4.4-0.2,10.5-0.2l0.4,0l-0.3,0.3c-0.3,0.3-0.7,0.9-1.1,1.4c-0.8,1-1.5,1.9-2,2.5l-0.1,0.1l-0.1,0c-1.6,0-3.1,0-4-0.1l-0.1,0l0,0
		C94.2,101,93.1,99.6,93.1,99.6"/>
	<path clip-path="url(#SVGID_1_)" fill="#231F20" d="M104.7,100.6c0,0,0-0.2-0.1-0.4c0-0.2-0.1-0.5-0.2-0.9
		c-0.1-0.3-0.1-0.6-0.2-0.8c-0.1-0.2-0.1-0.4-0.1-0.4c0,0,0.1,0.1,0.3,0.3c0.2,0.2,0.3,0.5,0.4,0.9c0.1,0.4,0.1,0.7,0,0.9
		C104.8,100.4,104.7,100.6,104.7,100.6"/>
	<path clip-path="url(#SVGID_1_)" fill="#231F20" d="M91.8,101.5c0,0-0.1-0.1-0.4-0.4c-0.1-0.1-0.2-0.3-0.3-0.6
		c0-0.2-0.1-0.5-0.1-0.7c0-0.5,0.2-1,0.4-1.3c0.1-0.2,0.2-0.3,0.2-0.3c0.1-0.1,0.1-0.1,0.1-0.1s0,0-0.1,0.1c0,0.1-0.1,0.2-0.1,0.4
		c-0.1,0.3-0.1,0.7-0.1,1.2c0,0.2,0,0.5,0,0.7c0,0.2,0.1,0.4,0.1,0.5C91.8,101.3,91.8,101.5,91.8,101.5"/>
	<path clip-path="url(#SVGID_1_)" fill="#231F20" d="M104.8,91.1c-0.2-0.1-2.1,0-2.4,0c0,0.7,0.2,1.6,1.2,1.6
		C104.6,92.7,104.8,91.7,104.8,91.1"/>
	<path clip-path="url(#SVGID_1_)" fill="#231F20" d="M92.9,91.1c0.2-0.1,2.1,0,2.4,0c0,0.7-0.2,1.6-1.2,1.6
		C93.1,92.7,92.9,91.7,92.9,91.1"/>
	<path clip-path="url(#SVGID_1_)" fill="#231F20" d="M105.6,92.4c0,0,0-0.1,0-0.3c0-0.1,0-0.2-0.1-0.3c-0.1-0.1-0.2-0.2-0.3-0.2
		c-0.2-0.2-0.5-0.4-0.8-0.6c-0.1,0-0.3,0-0.5,0c-0.2,0-0.4,0-0.7,0c-0.2,0-0.5,0-0.7,0c-0.1,0-0.2,0-0.3,0c-0.1,0-0.1,0-0.2,0
		c0,0,0,0-0.1,0c-0.3,0.1-0.6,0.4-0.8,0.5c0,0,0,0,0-0.1c0,0.6-0.1,0.9-0.1,0.9s0-0.3-0.1-0.9l0,0l0,0c0.2-0.2,0.4-0.5,0.8-0.7
		c0,0,0.1-0.1,0.2-0.1c0.1,0,0.1,0,0.2,0c0.1,0,0.2,0,0.3,0c0.2,0,0.5,0,0.7,0c0.2,0,0.5,0,0.7,0c0.1,0,0.2,0,0.3,0
		c0.1,0,0.3,0,0.4,0.1c0.3,0.2,0.6,0.5,0.8,0.8c0.1,0.1,0.2,0.2,0.3,0.4c0,0.1,0,0.2,0,0.3C105.6,92.3,105.6,92.4,105.6,92.4"/>
	<path clip-path="url(#SVGID_1_)" fill="#231F20" d="M104.5,90.8c0,0,0,0.1,0,0.3c0,0.2,0,0.4-0.1,0.8c0,0.1-0.1,0.2-0.1,0.2
		c0,0.1-0.1,0.1-0.2,0.2c-0.2,0.1-0.4,0.2-0.6,0.3c-0.1,0-0.1,0-0.2,0l-0.2,0c-0.1,0-0.2,0-0.4-0.1c-0.3-0.1-0.5-0.3-0.6-0.5
		c-0.2-0.4-0.2-0.9-0.2-1.1l0-0.2h0.2C103.5,90.6,104.5,90.7,104.5,90.8c0-0.1-0.9,0.1-2.4,0.2c0,0,0.1-0.1,0.2-0.2
		c0,0.2,0,0.6,0.2,0.9c0.2,0.4,0.6,0.5,0.9,0.5c0.2,0,0.4-0.1,0.5-0.1c0.1,0,0.1-0.1,0.2-0.1c0.1-0.1,0.1-0.1,0.1-0.2
		c0.2-0.3,0.2-0.5,0.3-0.7C104.5,90.9,104.5,90.8,104.5,90.8"/>
	<path clip-path="url(#SVGID_1_)" fill="#231F20" d="M91.5,92.4c0,0,0-0.1-0.1-0.3c0-0.1,0-0.2,0-0.3c0.1-0.1,0.2-0.2,0.3-0.4
		c0.2-0.2,0.5-0.5,0.8-0.8c0.1-0.1,0.3-0.1,0.4-0.1c0.1,0,0.2,0,0.3,0c0.2,0,0.4,0,0.7,0c0.2,0,0.5,0,0.7,0c0.1,0,0.2,0,0.3,0
		c0.1,0,0.1,0,0.2,0c0.1,0,0.2,0,0.2,0.1c0.4,0.2,0.6,0.5,0.8,0.7l0,0l0,0c0,0.6-0.1,0.9-0.1,0.9s0-0.3-0.1-0.9c0,0,0,0,0,0.1
		c-0.2-0.2-0.5-0.4-0.8-0.5c0,0-0.1,0-0.1,0c0,0-0.1,0-0.2,0c-0.1,0-0.2,0-0.3,0c-0.2,0-0.5,0-0.7,0c-0.2,0-0.4,0-0.7,0
		c-0.2,0-0.4,0-0.5,0c-0.3,0.2-0.6,0.4-0.8,0.6c-0.1,0.1-0.2,0.2-0.3,0.2c0,0.1,0,0.2-0.1,0.3C91.5,92.3,91.5,92.4,91.5,92.4"/>
	<path clip-path="url(#SVGID_1_)" fill="#231F20" d="M92.6,90.8c0,0,0,0.1,0,0.3c0,0.2,0.1,0.4,0.3,0.7c0,0.1,0.1,0.1,0.1,0.2
		c0.1,0.1,0.1,0.1,0.2,0.1c0.1,0.1,0.3,0.1,0.5,0.1c0.3,0,0.8-0.1,0.9-0.5c0.2-0.3,0.2-0.7,0.2-0.9c0.1,0.1,0.1,0.1,0.2,0.2
		C93.5,90.9,92.6,90.7,92.6,90.8c0-0.1,1-0.2,2.4-0.2h0.2l0,0.2c0,0.3,0,0.7-0.2,1.1c-0.1,0.2-0.4,0.5-0.6,0.5
		c-0.1,0.1-0.2,0.1-0.4,0.1l-0.2,0c-0.1,0-0.1,0-0.2,0c-0.2,0-0.4-0.1-0.6-0.3c-0.1-0.1-0.2-0.1-0.2-0.2c0-0.1-0.1-0.2-0.1-0.2
		c-0.1-0.3-0.1-0.6-0.1-0.8C92.6,90.9,92.6,90.8,92.6,90.8"/>
	<path clip-path="url(#SVGID_1_)" fill="#231F20" d="M109.3,74.5c0,0,0,0,0.1,0.1c0.1,0.1,0.2,0.2,0.4,0.4c0.3,0.4,0.7,1.1,0.9,2.2
		c0.3,1,0.4,2.4,0.4,4c0,0.8,0,1.7-0.1,2.7c0,0.5-0.1,1-0.2,1.5c-0.1,0.5-0.1,1-0.3,1.6l-0.1,0.3l-0.1-0.3c0-0.2-0.2-0.6-0.6-0.8
		c-0.1-0.1-0.2-0.1-0.3-0.1c-0.1,0-0.2,0-0.2,0c0,0.2,0,0.5-0.1,0.8c-0.1,1.1-0.2,2.4-0.4,3.8l0,0.1l-0.1,0c-0.1,0-0.4,0-0.7,0
		l-0.1,0l0-0.1c0-0.6,0-2.1,0-3.7c0,0,0,0,0,0.1c-0.2-0.4-0.6-1.3-1.1-2.2l0-0.1l0-0.1c0,0,0-0.1,0.1-0.2c0,0,0,0,0,0
		c0.3-0.9,0.6-2,1-3.1c0.4-1.1,0-2.5-1-3.3c-0.5-0.5-1.1-0.8-1.8-1c-0.3-0.1-0.7-0.2-1-0.2c-0.4-0.1-0.7-0.1-1.1,0
		c-0.7,0.1-1.5,0.3-2.2,0.6c-0.7,0.2-1.5,0.5-2.4,0.5h0c-0.1,0-0.3,0-0.5,0c-0.8-0.1-1.5-0.3-2.1-0.5c-0.7-0.2-1.3-0.4-2-0.5
		c-0.2,0-0.3,0-0.5,0c-0.1,0-0.3,0-0.5,0.1c-0.3,0-0.7,0.1-1,0.2c-0.6,0.2-1.2,0.5-1.7,0.9c-0.5,0.4-0.9,0.9-1.1,1.5
		c-0.2,0.6-0.3,1.2-0.1,1.7c0.3,1.2,0.7,2.3,1,3.4l0,0.1l0,0.1c-0.4,0.8-0.7,1.5-1,2.1c0,0,0-0.1,0-0.1c0,1.6,0.1,2.8,0.1,3.9l0,0.2
		l-0.2,0c-0.4,0-0.7,0-1,0l-0.2,0l0-0.2c0.1-0.9,0-1.8,0-2.6c-0.1-0.8-0.1-1.5-0.2-2.2c0,0,0.1,0.1,0.1,0.1c-0.5-0.1-0.9,0-1.1,0.2
		c-0.3,0.2-0.5,0.5-0.6,0.7l-0.1,0.2L85.8,87c-0.2-0.5-0.2-1-0.2-1.5c0-0.5-0.1-0.9-0.1-1.4c0-0.9,0-1.8,0.1-2.5
		c0.1-1.6,0.3-2.9,0.6-4c0.3-1.1,0.7-1.9,1-2.3c0.2-0.2,0.3-0.4,0.4-0.5c0.1-0.1,0.2-0.2,0.2-0.2s-0.1,0.1-0.2,0.2
		c-0.1,0.1-0.2,0.3-0.4,0.5c-0.3,0.5-0.7,1.3-1,2.4c-0.3,1.1-0.5,2.4-0.6,4c0,0.8,0,1.6,0,2.5c0,0.4,0,0.9,0.1,1.4
		c0,0.5,0.1,1,0.2,1.4c-0.1,0-0.1,0-0.2,0c0.1-0.3,0.3-0.6,0.7-0.8c0.3-0.2,0.8-0.3,1.3-0.2l0.1,0l0,0.1c0,0.7,0.1,1.4,0.2,2.2
		c0.1,0.8,0.1,1.6,0,2.6c0,0-0.1-0.1-0.1-0.2c0.3,0,0.6,0,1,0c0,0-0.1,0.1-0.1,0.2c0-1.2-0.1-2.4-0.1-3.9v0l0,0
		c0.3-0.6,0.6-1.3,1-2.1c0,0,0,0.1,0,0.1c-0.3-1.1-0.7-2.2-1.1-3.4c-0.2-0.6-0.1-1.4,0.1-2c0.2-0.7,0.7-1.2,1.2-1.6
		c0.5-0.4,1.2-0.8,1.8-1c0.3-0.1,0.7-0.2,1-0.2c0.2,0,0.3,0,0.5-0.1c0.2,0,0.4,0,0.5,0c1.5,0.1,2.8,0.9,4.1,1c0.2,0,0.4,0,0.5,0l0,0
		l0,0c0.7,0.1,1.5-0.2,2.2-0.4c0.7-0.2,1.5-0.5,2.3-0.6c0.4-0.1,0.8,0,1.2,0c0.4,0.1,0.8,0.1,1.1,0.3c0.7,0.2,1.4,0.6,1.9,1.1
		c1.1,0.9,1.6,2.5,1.1,3.7c-0.3,1.2-0.7,2.2-1,3.1l0,0l0,0c0,0.1-0.1,0.1-0.1,0.2v-0.1c0.4,0.9,0.9,1.9,1,2.2l0,0l0,0
		c0,1.6-0.1,3.1-0.1,3.7c-0.1-0.1-0.1-0.1-0.1-0.1c0.3,0,0.6,0,0.7,0c-0.1,0.1-0.1,0.1-0.1,0.1c0.1-1.4,0.3-2.7,0.4-3.8
		c0-0.3,0.1-0.5,0.1-0.8c0-0.1,0.1-0.2,0.2-0.2c0.1,0,0.2,0,0.2,0c0.1,0,0.2,0.1,0.3,0.1c0.4,0.2,0.6,0.6,0.6,0.9
		c-0.1,0-0.2,0-0.2,0c0.2-0.5,0.2-1,0.3-1.5c0.1-0.5,0.1-1,0.2-1.5c0.1-0.9,0.1-1.8,0.1-2.6c0-1.6-0.1-2.9-0.4-4
		c-0.2-1-0.6-1.7-0.9-2.2c-0.1-0.2-0.3-0.4-0.4-0.4C109.3,74.6,109.3,74.5,109.3,74.5"/>
	<path clip-path="url(#SVGID_1_)" fill="#231F20" d="M108.1,95.6c0,0,0.1,0,0.4,0c0.2-0.1,0.6-0.1,0.9-0.5c0.1-0.1,0.1-0.2,0.2-0.3
		c0.1-0.1,0.1-0.2,0.2-0.3c0.1-0.2,0.3-0.5,0.3-0.7c0.1-0.5,0.2-1.2,0.2-1.9c0.1-1.4,0.2-2.6,0.2-3.5c0-0.4,0-0.8,0-1.1
		c0-0.3,0-0.4,0-0.4s0,0.1,0.1,0.4c0.1,0.2,0.1,0.6,0.2,1.1c0.1,0.9,0.1,2.2,0,3.5c-0.1,0.7-0.1,1.3-0.3,2c-0.1,0.3-0.3,0.5-0.4,0.8
		c-0.1,0.1-0.2,0.2-0.2,0.3c-0.1,0.1-0.2,0.2-0.3,0.3c-0.4,0.3-0.8,0.4-1,0.4C108.3,95.6,108.1,95.6,108.1,95.6"/>
	<path clip-path="url(#SVGID_1_)" fill="#231F20" d="M85.8,86.9c0,0,0,0,0,0.1c0,0.1,0,0.2-0.1,0.3c0,0.2-0.1,0.6-0.1,1.1
		c0,0.9,0,2.2,0.1,3.6c0,0.7,0.1,1.4,0.2,1.9c0.1,0.6,0.5,0.9,0.8,1.2c0.8,0.5,1.4,0.5,1.4,0.5c0,0-0.6,0.2-1.5-0.3
		c-0.2-0.1-0.4-0.3-0.6-0.5c-0.2-0.2-0.4-0.5-0.4-0.8c-0.1-0.6-0.2-1.3-0.2-2c-0.1-1.4,0-2.7,0.1-3.6c0.1-0.5,0.1-0.8,0.2-1.1
		C85.7,87.2,85.8,87.1,85.8,86.9C85.8,87,85.8,86.9,85.8,86.9"/>
	<path clip-path="url(#SVGID_1_)" fill="#231F20" d="M107.1,104.7c0,0-1.2,1.5-2.8,3.1c-1.6,1.6-3.1,2.8-3.1,2.8s1.2-1.5,2.8-3.1
		C105.7,105.9,107.1,104.7,107.1,104.7"/>
	<path clip-path="url(#SVGID_1_)" fill="#231F20" d="M92.7,110.2c0,0-1.1-1.1-2.3-2.6c-1.2-1.5-2-2.9-2-2.9s1.1,1.1,2.3,2.6
		C91.9,108.9,92.7,110.2,92.7,110.2"/>
	
		<rect x="98.3" y="116.3" transform="matrix(0.9975 7.073584e-02 -7.073584e-02 0.9975 8.589 -6.6612)" clip-path="url(#SVGID_1_)" fill="#FFFFFF" width="0.1" height="3.3"/>
	<rect x="95.2" y="116" clip-path="url(#SVGID_1_)" fill="#FFFFFF" width="0.1" height="3.6"/>
	<path clip-path="url(#SVGID_1_)" fill="#231F20" d="M97.2,90.7c0,0-0.5-0.2-1.2-0.7c-0.7-0.4-1.7-1-2.7-1.8c-0.5-0.4-1-0.7-1.4-1
		l-0.1-0.1l-0.1,0l0,0l0,0l0,0h0c0,0,0.1,0,0.1,0l0,0h0c0,0,0,0,0.1,0l0,0c0,0,0,0,0,0c0,0-0.1,0.1-0.1,0.1
		c-0.2,0.1-0.3,0.3-0.5,0.4c-0.6,0.6-1,1-1,1s0.2-0.5,0.7-1.2c0.1-0.2,0.2-0.4,0.4-0.6c0-0.1,0.1-0.1,0.1-0.2c0,0,0.1-0.1,0.1-0.1
		l0.1,0c0,0,0.1,0,0.1,0l0,0l0,0l0.1,0l0,0l0,0l0.1,0c0.1,0,0.2,0.1,0.3,0.1c0.6,0.3,1.1,0.6,1.6,0.9c1.1,0.7,1.9,1.5,2.5,2.1
		C96.9,90.3,97.2,90.7,97.2,90.7"/>
	<path clip-path="url(#SVGID_1_)" fill="#231F20" d="M99.9,90.7c0,0,1.5-1.3,3.5-2.6c0.7-0.4,1.4-0.8,1.9-1l0.3-0.1l0.1,0.2
		c0.8,1.1,1.1,1.9,1.1,1.9s-0.6-0.5-1.6-1.5c0.1,0,0.2,0,0.4,0.1c-0.4,0.3-1.1,0.8-1.8,1.2C101.8,90,99.9,90.7,99.9,90.7"/>
</g>
</svg>
