<svg xmlns="http://www.w3.org/2000/svg" xmlns:xlink="http://www.w3.org/1999/xlink" viewBox="0 0 178.3 131.2" enable-background="new 0 0 178.3 131.2"><rect x="2.1" y="1.8" fill="#D8505C" width="176.2" height="129.4"/><defs><polyline id="a" points="-37.2,-664.7 826.8,-662.7 847.5,493 -59.7,490.9"/></defs><clipPath id="b"><use xlink:href="#a" overflow="visible"/></clipPath><path clip-path="url(#b)" fill="#fff" d="M55.2 91.2l.1-2.6c-.1-3.2-.4-8.4-.4-8.4-.6.3-3.1-.6-3.5-2.2-.4-1.5-.8-9.1 0-10.7l-.1-.2c-.5-1.9-1.2-14.5 2.9-18.3 4.3-4 6.3-4.3 15.1-3.6h2c8.8-.8 10.7-.4 15 3.6 4.3 3.9 2.4 17.2 1.8 18.5l.1.7c.4 1.5 0 9-.5 10s-1.3 2.5-3.1 2.2c.1 1.2-1 8.6-1 8.6l-.6.8v5.1l-15.3 16.4-12.5-16.3v-3.6z"/><path clip-path="url(#b)" fill="#231F20" d="M88.2 67.3c.5-1.3 2.4-14.6-1.8-18.5-4.3-4-6.3-4.3-15-3.6h-2c-8.8-.8-10.7-.4-15 3.6-4.1 3.8-3.4 16.4-2.9 18.3l.1.2c.3-.7 1.1-1.8 2.8-1.5 0 .7.6 5.3.3 7.1h1.3s-.1-3.4-.2-5.9l1.5-3.2s-1.2-3.6-1.6-5.2c-.4-1.6.4-3.2.4-3.2s1.6-3.3 6.4-3.6c2.8-.1 5.3 1.8 7.7 1.6h.1c2.4.2 4.9-1.7 7.7-1.6 4.8.4 6.4 3.6 6.4 3.6s.9 1.6.4 3.2c-.4 1.6-1.6 5.2-1.6 5.2l-.1.2 1.6 3.3-.1 5.7h1.1s.7-6.3.7-6.9c0-.6 1.6 0 1.8 1.2"/><path clip-path="url(#b)" d="M75.9 44.9c4.3 0 6.2 1 9.4 3.9 4.3 3.9 2.4 17.2 1.8 18.5l.1.7c.4 1.5 0 9-.5 10-.5.9-1.2 2.3-2.7 2.3h-.4c.1 1.2-1 8.6-1 8.6l-.6.8v2.3h1.4l4.1 4.7c7.8 2.8 24.4 11.6 24.4 11.6l7 22h-104.4l11-24.5 27.1-13 1.5-1.7.1-2.6c-.1-3.2-.4-8.4-.4-8.4h-.3c-.8 0-2.9-.9-3.2-2.2-.4-1.5-.8-9.1 0-10.7l-.1-.2c-.5-1.9-1.2-14.5 2.9-18.3 3.2-2.9 5.1-3.9 9.4-3.9 1.5 0 3.4.1 5.6.3h2c2.4-.1 4.3-.2 5.8-.2m0-.8c-1.4 0-3.1.1-5.7.3h-2c-2.6-.2-4.3-.3-5.7-.3-4.7 0-6.8 1.2-10 4.1-4.4 4-3.7 16.8-3.2 19.1-.7 2.4-.3 9.5.1 10.9.4 1.6 2.3 2.6 3.5 2.8.1 1.6.3 5.1.4 7.5l-.1 2.2-1.2 1.3-27 12.9-.1.1-.1.1-11 24.6-1.3 1.4h108.1l-.9-1.3-7-22-.1-.2-.2-.1c-.7-.4-16.4-8.8-24.3-11.6l-3.9-4.6-.2-.3h-.9v-1.3l.4-.6.1-.2v-.2c.2-1.1.8-5.7 1-7.9 1.8-.2 2.7-1.9 3.1-2.7.6-1.3 1-8.9.6-10.6l-.3-.2c.6-2.3 2.3-15-2.1-19.1-3.2-2.9-5.3-4.1-10-4.1"/><polygon clip-path="url(#b)" fill="#231F20" points="14.5,130.4 25.5,105.8 54.3,92 52.1,130.4"/><path clip-path="url(#b)" fill="#fff" d="M54.3 92l-2.2 38.4h-37.6l11-24.5 28.8-13.9zm.3-.3l-.3.2-28.8 13.8-11 24.5-.3.3h38.300000000000004v-.2l2-38.3.1-.3z"/><path clip-path="url(#b)" fill="#231F20" d="M84.7 95.9l-5.8 34.4h40.1l-7-22c0 .1-22-11.7-27.3-12.4"/><path clip-path="url(#b)" fill="#fff" d="M84.7 95.9c5.3.7 27.3 12.4 27.3 12.4l7 22h-40.1l5.8-34.4m-.2-.2v.2l-5.8 34.4v.2h40.7l-.2-.3-7-22c-.9-.5-22.1-11.8-27.3-12.5h-.4z"/><polygon clip-path="url(#b)" fill="#fff" points="48.9,130.4 53.2,100.7 53.6,98 54.2,93.9 60.6,102.1 66.6,109.7 73.4,102.8 82.1,93.9 82.1,98.8 82.1,101.2 80.3,130.4"/><polygon clip-path="url(#b)" fill="#231F20" points="52.1,130.4 54.3,91 35.6,111.2 42.1,130.4"/><path clip-path="url(#b)" fill="#fff" d="M54.3 91l-2.2 39.4h-10l-6.5-19.2 18.7-20.2zm.3-.6l-.4.4-18.8 20.2-.1.1v.1l6.5 19.2v.1h10.399999999999999v-.2l2.3-39.3.1-.6z"/><polygon clip-path="url(#b)" fill="#231F20" points="82.1,92 82.1,101.2 78.9,130.4 86.9,130.4 98.8,109.7 83.5,92"/><path clip-path="url(#b)" fill="#fff" d="M83.5 92l15.3 17.7-11.9 20.6h-8l3.2-29.2v-9.1h1.4zm.1-.2h-1.7v9.399999999999999l-3.2 29.1v.2h8.299999999999999l.1-.1 11.9-20.6.1-.1-.1-.1-15.4-17.8z"/><polygon clip-path="url(#b)" fill="#231F20" points="82.1,101.2 82.1,98.8 70,110.7 73.3,110.7"/><path clip-path="url(#b)" fill="#231F20" d="M53.2 100.7l.4-2.8c.8 1 10.1 13.2 10.1 13.2h-3.4l-7.1-10.4z"/><path clip-path="url(#b)" fill="#231F20" d="M64.4 110.7s-8.1-3.9-10.1-4c-1 1.4-1.2 11.9 1.7 15.3.9-.2 8.4-6 8.4-6 1.4.8 3.7.5 4.4 0 0 0 3.4 5.8 8.2 7 1.2-1.2 3.2-13.6 3.1-14.8-.2-1.2-8.9 1.5-10.9 3 0 0-.4-2.2-4.8-.5"/><path clip-path="url(#b)" fill="#231F20" d="M68.8 116c-.7.5-3.1.8-4.4 0v-5.4c4.4-1.6 4.8.5 4.8.5l-.4 4.9z"/><polygon clip-path="url(#b)" fill="#fff" points="66.6,109.7 60.6,102.1 58.5,114.8"/><path clip-path="url(#b)" fill="#231F20" d="M66.6 109.7s-3 2.1-8 5.3l-.5.3.1-.5c.2-1.5.6-3.9 1-6.4.4-2.5.8-4.8 1.1-6.3l.1-.5.3.4c3.7 4.7 5.9 7.7 5.9 7.7s-2.4-2.8-6.2-7.5c.1 0 .2-.1.4-.1-.2 1.5-.6 3.9-1 6.3-.4 2.5-.9 4.9-1.1 6.4-.2-.1-.3-.2-.4-.2 5.1-3 8.3-4.9 8.3-4.9"/><polygon clip-path="url(#b)" fill="#fff" points="73.4,102.8 66.6,109.7 74.2,114.8"/><path clip-path="url(#b)" fill="#231F20" d="M73.4 102.8s.5 4.9 1.1 12.1v.6l-.5-.3c-.7-.4-1.7-1.1-2.8-1.9-1.9-1.3-3.6-2.5-4.8-3.3l-.3-.2.2-.2c4.4-4.3 7.1-6.8 7.1-6.8s-2.5 2.8-6.6 7.2v-.4c1.2.7 3 1.9 4.8 3.2 1.1.7 2.2 1.5 2.8 1.9-.2.1-.4.2-.4.3-.4-7.3-.6-12.2-.6-12.2"/><path clip-path="url(#b)" fill="#231F20" d="M54.3 88.6s.1.9.3 2.4c0 .8 0 2-.1 3.3-.2 3.2-.6 5.7-.6 5.7s-.2-2.6 0-5.8c.1-1.3.2-2.5.3-3.3 0-1.4.1-2.3.1-2.3"/><path clip-path="url(#b)" fill="#231F20" d="M82.1 101.2s-.3-2.6-.3-5.8c0-3.2.3-5.8.3-5.8s.3 2.6.3 5.8c0 3.2-.3 5.8-.3 5.8"/><path clip-path="url(#b)" fill="#231F20" d="M84.2 74.6s-.1 1.8-.5 5.6c0 1.8-.4 4.9-.9 8.6-.1.1-.3.4-.5.8-2.2 2.6-5.8 6.7-9.6 11.2l-.1.1h-7l-.1-.1c-1.1-1.2-2.1-2.5-3.1-3.6-.5-.6-1-1.2-1.5-1.7-.2-.3-.5-.6-.7-.8-.2-.3-.5-.5-.7-.7-2-2-3.8-3.6-5.2-5.3v-.1c-.2-4.4-.3-7.9-.4-10.3v-2.8c0-.3.1-.5.1-.7v0c0 .2-.1.4-.1.7v2.7c.2 2.4.4 5.9.7 10.3v-.1c1.4 1.5 3.3 3.2 5.3 5.1l.8.8.7.8 1.5 1.7c1 1.2 2 2.4 3.1 3.6l-.2-.1h6.800000000000001c-.1 0-.2.1-.2.1 3.9-4.4 7.5-8.5 9.8-11.1.2-.3.5-.6.6-.8v.1c.6-3.7 1-6.8 1.1-8.5.1-3.7.3-5.5.3-5.5"/><path clip-path="url(#b)" fill="#231F20" d="M67.3 81.1s-.2-3.3-.3-8.2c0 0 .1.1.1.2-.5-.4-1.4-1-2.3-1.7-1.2-.9-2.4-1.8-3.4-2.6l-1.5-1.1c-.2-.2-.5-.3-.7-.4 0 0-.1-.1-.2-.1h-.1s-.2.1-.2.2c-.7.7-1.2 1.3-1.6 1.7-.4.4-.6.7-.6.7s.2-.3.5-.7c.3-.5.7-1.1 1.5-1.9.1-.1.2-.2.4-.3h.2c.1 0 .1 0 .2.1.3.1.6.3.8.4.5.3 1.1.6 1.6 1 1.1.7 2.3 1.6 3.5 2.5.9.7 1.7 1.3 2.2 1.8l.1.1v.1c0 4.9-.2 8.2-.2 8.2"/><path clip-path="url(#b)" fill="#fff" d="M72.2 92c1.4-1.3 1.4-4.8 1.4-5.8h-8.7c-.2 1.4 0 3.9 1.3 5.8h6z"/><path clip-path="url(#b)" fill="#231F20" d="M67.3 83.5s.1 0 .3.1c.1 0 .2.1.4.2.1.1.3.1.5.1.4.1.9 0 1.4-.1.5-.2 1.1-.6 1.3-1.2v.1c-.1-2.3-.1-5.5-.1-9v-.8999999999999999l.2-.1c3.6-2.1 6.8-3.9 8.5-4.8h.1l.1.1c1.3 1.8 1.9 2.6 1.9 2.6s-.7-.8-2.1-2.5h.1c-1.5 1-4.6 2.9-8.3 5.1l.2-.3v.7c0 3.5-.1 6.7-.1 9-.3.8-1 1.1-1.6 1.3-.6.1-1.1.1-1.5 0-.2-.1-.4-.1-.5-.2-.1-.1-.3-.1-.3-.2h-.5"/><path clip-path="url(#b)" fill="#231F20" d="M66.6 83.1l-.1.1-.3.3c-.2.1-.4.2-.7.2-.3 0-.6-.3-.7-.7-.2-.6 0-1.1.2-1.4.2-.3.3-.5.3-.5s-.1.9.1 1.7c.1.2.1.3.2.3.1.1.3.1.5.1s.3 0 .4-.1c0 .1.1 0 .1 0"/><path clip-path="url(#b)" fill="#231F20" d="M66.3 92l-5.1-5.8h3.8c-.3 1.5-.1 3.9 1.3 5.8"/><path clip-path="url(#b)" fill="#231F20" d="M73.6 86.2h3.2l-4.6 5.8c1.4-1.3 1.4-4.8 1.4-5.8"/><path clip-path="url(#b)" fill="#231F20" d="M71.4 82.6s.1 0 .2.1.3.1.5.2.4.1.5 0c.1 0 .1-.3.1-.5 0-.6-.2-1.1-.3-1.5l-.2-.5c-.1-.1-.1-.2-.1-.2s.1 0 .2.1l.4.4c.3.3.6.9.7 1.7 0 .2 0 .4-.1.6-.1.2-.2.4-.5.5h-.3c-.1 0-.2 0-.2-.1-.1-.1-.3-.1-.3-.2-.2-.1-.3-.3-.4-.4-.2-.1-.2-.2-.2-.2"/><path clip-path="url(#b)" fill="#231F20" d="M61.2 86.2s1.9 2 5.3 5.7c0 0-.1 0-.1-.1 1.3 0 3.5-.1 5.9-.1 0 0-.1.1-.2.1.7-.9 1.8-2.3 2.9-3.7.7-.8 1.3-1.6 1.7-2.1.1.2.2.4.2.5-9.1 0-15.7-.3-15.7-.3s6.6-.2 15.7-.3h.6l-.4.5c-.4.5-1 1.3-1.7 2.1-1.2 1.4-2.3 2.8-3 3.7l-.1.1h-.1c-2.4 0-4.6-.1-5.9-.1h-.1l-.1-.1c-3.2-3.8-4.9-5.9-4.9-5.9"/><path clip-path="url(#b)" fill="#231F20" d="M78.5 87.7s0-.2-.1-.6c-.1-.3-.2-.8-.3-1.3-.1-.5-.2-1-.3-1.3-.1-.3-.2-.5-.2-.5s.2.1.4.4c.3.3.5.8.6 1.3.1.5.1 1 0 1.4.1.4-.1.6-.1.6"/><path clip-path="url(#b)" fill="#231F20" d="M59.3 89.1s-.2-.2-.5-.6c-.1-.2-.3-.5-.4-.8-.1-.3-.2-.7-.2-1.1 0-.8.3-1.5.6-1.9.1-.2.3-.4.4-.5l.2-.2s0 .1-.1.2-.1.3-.2.5c-.1.5-.2 1.1-.2 1.8v1c.1.3.1.6.2.8.1.5.2.8.2.8"/><path clip-path="url(#b)" fill="#231F20" d="M78.6 73.6c-.3-.2-3.2 0-3.6 0-.1 1.1.3 2.4 1.8 2.4s1.8-1.6 1.8-2.4"/><path clip-path="url(#b)" fill="#231F20" d="M60.9 73.6c.3-.2 3.2 0 3.6 0 .1 1.1-.3 2.4-1.8 2.4-1.6 0-1.9-1.6-1.8-2.4"/><path clip-path="url(#b)" fill="#231F20" d="M79.8 75.5v-.4c0-.1 0-.3-.1-.4l-.4-.4c-.4-.3-.7-.6-1.2-.9-.1-.1-.5 0-.8 0h-2.9000000000000004c-.5.2-.9.6-1.3.8v-.1c0 .9-.1 1.4-.1 1.4s-.1-.5-.1-1.4v-.1c.3-.3.6-.7 1.2-1.1.1-.1.2-.1.3-.1h.8c.3 0 .7 0 1.1-.1h1.5c.1 0 .4 0 .6.2.5.4.9.8 1.2 1.1.2.2.3.3.4.5v.5c-.1.3-.2.5-.2.5"/><path clip-path="url(#b)" fill="#231F20" d="M78.1 73.1v.4c0 .3 0 .7-.2 1.1-.1.1-.1.2-.2.4l-.3.3c-.2.2-.6.4-.9.4h-.6c-.2 0-.4 0-.6-.1-.4-.1-.7-.5-.9-.8-.3-.7-.3-1.3-.3-1.7v-.3h.2c2.4 0 3.9.2 3.8.3 0-.1-1.4.1-3.6.3l.3-.3c0 .3 0 .9.3 1.4.3.5.9.7 1.4.7.3 0 .5-.1.7-.2l.3-.2.2-.3c.2-.4.3-.7.4-1v-.4"/><path clip-path="url(#b)" fill="#231F20" d="M58.7 75.5s0-.1-.1-.4v-.5c.1-.2.2-.4.4-.5.3-.3.7-.8 1.2-1.1.1-.1.4-.2.6-.2h1.5c.4 0 .7 0 1.1.1h.8l.3.1c.6.4.9.8 1.2 1.1v.1c-.1.9-.1 1.4-.1 1.4s-.1-.5-.1-1.4v.1c-.3-.2-.8-.6-1.3-.8h-3.7c-.5.3-.9.6-1.2.9-.2.1-.3.3-.4.4-.1.2-.1.3-.1.4-.1.1-.1.3-.1.3"/><path clip-path="url(#b)" fill="#231F20" d="M60.4 73.1s0 .2.1.4c.1.3.2.6.4 1l.2.3.3.2c.2.1.4.2.7.2.5 0 1.2-.2 1.4-.7.2-.5.3-1 .3-1.4l.3.3c-2.3-.2-3.7-.4-3.7-.3 0-.1 1.5-.3 3.6-.3h.2v.3c0 .4.1 1.1-.3 1.7-.2.4-.5.7-.9.8-.2.1-.4.1-.6.1h-.6c-.3 0-.7-.2-.9-.4l-.3-.3c-.1-.1-.1-.2-.2-.4-.2-.5-.2-.9-.2-1.1.2-.3.2-.4.2-.4"/><path clip-path="url(#b)" fill="#231F20" d="M85.3 48.8l.2.2c.1.1.3.3.6.7.5.6 1 1.7 1.4 3.2.4 1.5.6 3.5.7 6 0 1.2 0 2.5-.1 4l-.2 2.2c-.1.8-.2 1.5-.5 2.4l-.2.5-.2-.6c-.1-.4-.3-.8-.8-1.2l-.4-.2c-.2 0-.2 0-.2.1 0 .4 0 .8-.1 1.2-.2 1.7-.3 3.6-.5 5.7v.2h-1.5v-.2c0-.9 0-3.2.1-5.5v.1c-.3-.6-.9-1.9-1.6-3.3v-.2s.1-.1.1-.2c.4-1.4.9-3 1.4-4.7.7-1.6 0-3.7-1.5-5-.7-.7-1.7-1.2-2.7-1.5-.5-.2-1-.3-1.6-.4-.5-.1-1.1-.1-1.6 0-1.1.1-2.2.5-3.3.9-1.1.4-2.3.8-3.6.7h-.8c-1.1-.1-2.2-.5-3.2-.8-1-.3-2-.7-3-.8h-.7c-.2 0-.5 0-.7.1l-1.5.3c-.9.3-1.8.8-2.5 1.4-.7.6-1.4 1.3-1.7 2.2-.3.7-.4 1.7-.1 2.5.5 1.8 1 3.5 1.5 5.1v.2c-.6 1.2-1.1 2.2-1.5 3.2v-.1c.1 2.3.1 4.2.2 5.9v.2h-1.9v-.2c.1-1.4 0-2.7 0-3.9-.2-1.2-.3-2.3-.3-3.3.1.1.1.1.1.2-.7-.2-1.3 0-1.7.2-.4.3-.7.7-.9 1.1l-.2.4-.1-.4c-.2-.8-.3-1.5-.3-2.2-.1-.7-.1-1.4-.1-2.1 0-1.3 0-2.6.1-3.8.2-2.4.5-4.4.9-6 .4-1.6 1-2.8 1.5-3.5.2-.4.5-.6.6-.8l.2-.2-.2.2c-.2.2-.4.4-.6.8-.5.7-1 1.9-1.5 3.5-.4 1.6-.7 3.6-.8 6-.1 1.2-.1 2.4 0 3.8l.1 2.1c.1.7.1 1.5.3 2.1h-.3c.2-.5.5-.9 1-1.3.5-.3 1.2-.5 2-.3h.1v.1c.1 1 .2 2.1.3 3.2.1 1.2.2 2.4.1 3.9l-.2-.2h1.5l-.2.2c-.1-1.7-.1-3.6-.2-5.9v-.2c.5-1 .9-1.9 1.5-3.2v.2c-.5-1.6-1.1-3.3-1.6-5.1-.3-1-.2-2 .2-3s1.1-1.8 1.8-2.4c.8-.7 1.7-1.2 2.7-1.5.5-.2 1-.3 1.5-.4l.8-.1h.8c2.2.2 4.1 1.4 6.2 1.6h.7c1.1.1 2.2-.3 3.3-.6 1.1-.4 2.2-.8 3.4-.9.6-.1 1.2-.1 1.8 0 .6.1 1.1.2 1.7.4 1.1.4 2.1.9 2.9 1.7 1.7 1.4 2.4 3.8 1.6 5.6-.5 1.7-1 3.3-1.5 4.7 0 .1-.1.2-.1.2v-.2c.7 1.4 1.3 2.8 1.6 3.3v.2c-.1 2.4-.1 4.6-.1 5.5l-.2-.2h1.1l-.2.2c.2-2.1.4-4.1.6-5.7l.1-1.2c0-.1.1-.3.3-.3h.3c.2 0 .4.1.5.2.6.4.9.9.9 1.4h-.2c.2-.7.4-1.6.5-2.3.1-.8.2-1.5.3-2.2.1-1.4.2-2.7.2-3.9 0-2.4-.2-4.4-.6-5.9-.4-1.5-.9-2.6-1.3-3.2-.2-.3-.4-.5-.5-.7l-.2-.2"/><path clip-path="url(#b)" fill="#231F20" d="M83.6 80.2h.6c.4-.1.9-.2 1.3-.7l.3-.4.3-.5c.2-.3.4-.7.5-1.1.2-.8.2-1.8.3-2.8.2-2 .2-3.9.3-5.2v-2.2s0 .2.1.6c.1.4.2.9.2 1.6.1 1.4.2 3.2 0 5.3-.1 1-.2 2-.4 2.9-.1.5-.4.8-.6 1.2-.1.2-.2.3-.4.5l-.4.4c-.5.5-1.2.5-1.5.6-.4-.1-.6-.2-.6-.2"/><path clip-path="url(#b)" fill="#231F20" d="M50.3 67.3v.2c0 .1-.1.2-.1.4-.1.4-.1.9-.1 1.6 0 1.4.1 3.3.2 5.3.1 1 .1 2 .2 2.9.1.8.7 1.4 1.3 1.8 1.1.8 2 .8 2 .7 0 .1-.9.2-2.2-.4-.3-.2-.6-.4-1-.7-.3-.3-.6-.8-.7-1.2-.2-.9-.3-1.9-.3-3-.1-2.1 0-4 .1-5.4.1-.7.2-1.2.3-1.6 0-.2.1-.3.2-.4.1-.1.1-.2.1-.2"/><path clip-path="url(#b)" fill="#231F20" d="M82.1 93.9s-1.7 2.2-4.1 4.6c-2.4 2.4-4.6 4.2-4.6 4.2s1.7-2.2 4.1-4.6c2.5-2.4 4.6-4.2 4.6-4.2"/><path clip-path="url(#b)" fill="#231F20" d="M60.6 102.1s-1.7-1.6-3.5-3.9-3-4.3-3-4.3 1.7 1.6 3.5 3.9 3 4.3 3 4.3"/><rect x="68.9" y="111.2" transform="matrix(.998 .066 -.066 .998 7.687 -4.326)" clip-path="url(#b)" fill="#fff" width=".2" height="4.9"/><rect x="64.3" y="110.7" clip-path="url(#b)" fill="#fff" width=".2" height="5.4"/><path clip-path="url(#b)" fill="#231F20" d="M67.3 72.9s-.7-.4-1.8-1-2.6-1.6-4.1-2.6c-.8-.5-1.5-1.1-2.1-1.5l-.2-.1h-.1l-.2.1c-.3.2-.5.5-.7.7-.9.9-1.5 1.4-1.5 1.4s.3-.7 1-1.8l.6-.9c.1-.1.1-.2.2-.2 0 0 .1-.1.2-.1l.1-.1.2-.1h.4l.4.1c.9.4 1.6.9 2.4 1.4 1.6 1.1 2.9 2.3 3.8 3.2.9.9 1.4 1.5 1.4 1.5"/><path clip-path="url(#b)" fill="#231F20" d="M71.4 72.9s2.2-2 5.3-3.8c1.1-.6 2.1-1.2 2.9-1.5l.4-.2.2.3c1.1 1.7 1.7 2.8 1.7 2.8s-1-.8-2.4-2.3c.2 0 .3.1.6.1-.6.5-1.6 1.2-2.7 1.8-3.2 1.9-6 2.8-6 2.8"/><path clip-path="url(#b)" fill="#231F20" d="M129.7 46.8c.6 0 1.1.5 1.1 1.1 0 .6-.5 1.1-1.1 1.1h-.4v2.2l.2.2c1.2-1 2.8-1.6 4.6-1.6 4 0 7.3 3.2 7.3 7.3 0 4-3.2 7.3-7.3 7.3-1.6 0-3.1-.5-4.4-1.5l-.4.5v3.8h.4c.6 0 1.1.5 1.1 1.1 0 .6-.5 1.1-1.1 1.1h-.4c0 1.8 0 3.9-.1 6.3h.5c.6 0 1.1.2 1.1.4s-.5.4-1.1.4h-.5c-.1 9.2-.2 21.4-.4 29.7h8.9v2.3l-4.3.7v2.3l4.3.8v3.9h-10.9c-.7 0-1.3-.2-1.5-.7v-39.3h-.6c-.6 0-1.1-.2-1.1-.4s.5-.4 1.1-.4h.6v-6.3h-.6c-.6 0-1.1-.5-1.1-1.1 0-.6.5-1.1 1.1-1.1h.6v-3.8l-.6-.6c-1.2 1-2.8 1.5-4.5 1.5-4 0-7.3-3.2-7.3-7.3 0-4 3.2-7.3 7.3-7.3 1.7 0 3.3.6 4.6 1.6l.5-.5v-1.9h-.6c-.6 0-1.1-.5-1.1-1.1 0-.6.5-1.1 1.1-1.1h5m-2.5 8.5c.3-.9.7-1.8 1.3-2.5l-1.2-1.2-1.3 1.4c.5.6.9 1.4 1.2 2.3m6.7 7.8c3.1 0 5.7-2.5 5.7-5.7 0-3.1-2.5-5.7-5.7-5.7-1.2 0-2.3.4-3.2 1l4.7 4.5-4.6 4.8c.8.7 1.9 1.1 3.1 1.1m-13.8 0c1.3 0 2.5-.5 3.4-1.2l-4.5-4.3 4.5-4.6c-1-.7-2.1-1.2-3.4-1.2-3.1 0-5.7 2.5-5.7 5.7 0 3.1 2.6 5.6 5.7 5.6m9.5-2l3.6-3.8-3.6-3.5c-.8 1-1.3 2.2-1.3 3.6s.5 2.7 1.3 3.7m-4.8-.4c.6-.9 1-2 1-3.2 0-1.2-.4-2.3-1-3.3l-3.2 3.3 3.2 3.2m2.7 2.6l1.2-1.2c-.7-.8-1.2-1.7-1.5-2.7-.3.9-.7 1.7-1.2 2.4l1.5 1.5m2.2-16.9h-5.1c-1 0-1.9.8-1.9 1.9 0 1 .7 1.8 1.7 1.9v.4c-1.3-.8-2.7-1.2-4.2-1.2-4.4 0-8.1 3.6-8.1 8.1 0 4.4 3.6 8 8.1 8 1.5 0 3-.4 4.2-1.2v2.5c-.9.1-1.7.9-1.7 1.9 0 1 .7 1.8 1.7 1.9v4.7c-1 0-1.7.5-1.7 1.2s.6 1.1 1.7 1.2v38.2l.1.2c.3.8 1.2 1.2 2.3 1.2h11.700000000000001v-5.4l-.7-.1-3.6-.7v-.9l3.6-.6.7-.1v-4.1h-8.9c.1-6.5.3-15.9.4-28.1 1-.1 1.6-.5 1.6-1.2s-.6-1.1-1.5-1.2v-4.7c.8-.2 1.5-.9 1.5-1.8s-.6-1.6-1.5-1.8v-2.3c1.2.7 2.6 1.1 4 1.1 4.4 0 8.1-3.6 8.1-8s-3.6-8.1-8.1-8.1c-1.4 0-2.8.4-4 1.1v-.3c.8-.2 1.4-.9 1.4-1.8 0-1.1-.8-1.9-1.8-1.9m2.3 6.6c.6-.3 1.3-.4 1.9-.4 2.7 0 4.9 2.2 4.9 4.9s-2.2 4.9-4.9 4.9c-.7 0-1.3-.1-1.9-.4l3.9-4.1.6-.6-.6-.6-3.9-3.7zm-11.9 9.3c-2.7 0-4.9-2.2-4.9-4.9s2.2-4.9 4.9-4.9c.8 0 1.5.2 2.2.5l-3.8 3.9-.6.6.6.6 3.8 3.6c-.7.4-1.5.6-2.2.6m6.9-9.3l.3-.3.2.1-.3.4c-.1 0-.2-.1-.2-.2m2.7 6.8c-.4-.7-.6-1.5-.6-2.4 0-.9.2-1.7.7-2.4l2.4 2.3-2.5 2.5zm-7.1-2.3l1.9-2c.3.6.4 1.3.4 1.9 0 .7-.1 1.3-.4 1.9l-1.9-1.8zm4.4 4.2l.2-.3c.1.2.3.4.4.7l-.1.1-.5-.5z"/><path clip-path="url(#b)" fill="#CCC9C7" d="M120.2 49.6c-4 0-7.3 3.2-7.3 7.3 0 4 3.2 7.3 7.3 7.3 4 0 7.3-3.2 7.3-7.3 0-4-3.3-7.3-7.3-7.3m-.1 13.1c-3.1 0-5.7-2.5-5.7-5.7 0-3.1 2.5-5.7 5.7-5.7 3.1 0 5.7 2.5 5.7 5.7s-2.6 5.7-5.7 5.7"/><path clip-path="url(#b)" fill="#CCC9C7" d="M134.1 49.6c-4 0-7.3 3.2-7.3 7.3 0 4 3.2 7.3 7.3 7.3 4 0 7.3-3.2 7.3-7.3 0-4-3.3-7.3-7.3-7.3m-.2 13.1c-3.1 0-5.7-2.5-5.7-5.7 0-3.1 2.5-5.7 5.7-5.7 3.1 0 5.7 2.5 5.7 5.7s-2.5 5.7-5.7 5.7"/><path clip-path="url(#b)" fill="#CCC9C7" d="M129.3 63.2l-2 2-2.1-2v51.8c.5 1.1 2.8.9 3.2 0 .5-.9.9-51.8.9-51.8"/><path clip-path="url(#b)" fill="#CCC9C7" d="M127.1 48.9l-8 8.3 6.2 6 2.1 2 2-2 6-6.3-8.3-8zm1.8 12.5l-1.4 1.5-1.5-1.5-4.5-4.3 5.8-6 6 5.8-4.4 4.5z"/><polygon clip-path="url(#b)" fill="#CCC9C7" points="137.7,115.7 127.2,115.7 127.2,105.8 137.7,105.8 137.7,108.1 133.4,108.7 133.4,111 137.7,111.8"/><path clip-path="url(#b)" fill="#231F20" d="M137.7 115.7s0-1.1-.1-3.9c0 0 0 .1.1.1-.8-.1-2.4-.4-4.3-.7h-.2v-.2c0-.3 0-1.3-.1-2.3v-.2h.2c.8-.1 2.5-.4 4.2-.7l-.3.3v-2.3l.4.4h-10.5l.4-.4c0 3.9-.1 7.4-.1 9.9l-.3-.3c6.7.2 10.6.3 10.6.3s-3.9.1-10.5.3h-.3v-.3c-.1-2.6-.1-6-.1-9.9v-.4h11.3v2.9999999999999996h-.3c-1.8.2-3.5.5-4.3.6l.2-.2v2.3c-.1-.1-.1-.2-.2-.2 1.9.4 3.5.7 4.2.9h.1v.1c-.1 2.7-.1 3.8-.1 3.8"/><polygon clip-path="url(#b)" fill="#CCC9C7" points="129.3,51.4 127.3,50.3 125.2,51.5 125.2,47.8 129.3,47.8"/><path clip-path="url(#b)" fill="#CCC9C7" d="M130.7 68c0 .6-.5 1.1-1.1 1.1h-5.1c-.6 0-1.1-.5-1.1-1.1 0-.6.5-1.1 1.1-1.1h5.1c.7.1 1.1.6 1.1 1.1"/><path clip-path="url(#b)" fill="#231F20" d="M130.7 68s0-.3-.2-.6c-.1-.2-.3-.3-.6-.4h-1c-.8 0-1.7.1-2.7.1h-1.6c-.4 0-.9.3-.8.9 0 .4.4.8.8.8h1.6c1 0 1.9.1 2.7.1.4 0 .7.1 1 0 .3-.1.5-.2.6-.4.3-.2.2-.5.2-.5s.1.3-.2.6c-.1.2-.3.4-.6.5l-1 .1c-.8 0-1.7.1-2.7.1h-1.6c-.7 0-1.4-.5-1.3-1.3 0-.7.7-1.3 1.3-1.3h1.6c1 0 1.9.1 2.7.1.4 0 .7 0 1 .1.3.1.5.3.6.5.3.4.2.6.2.6"/><path clip-path="url(#b)" fill="#CCC9C7" d="M130.7 75.8c0 .2-.5.4-1.1.4h-5.1c-.6 0-1.1-.2-1.1-.4s.5-.4 1.1-.4h5.1c.7 0 1.1.1 1.1.4"/><path clip-path="url(#b)" fill="#CCC9C7" d="M130.7 47.8c0 .6-.5 1.1-1.1 1.1h-5.1c-.6 0-1.1-.5-1.1-1.1 0-.6.5-1.1 1.1-1.1h5.1c.7.1 1.1.5 1.1 1.1"/><path clip-path="url(#b)" fill="#231F20" d="M130.7 47.8s0-.3-.2-.6c-.1-.2-.3-.3-.6-.4h-1c-.8 0-1.7.1-2.7.1h-1.6c-.4 0-.9.3-.8.9 0 .4.4.8.8.8h1.6c1 0 1.9.1 2.7.1.4 0 .7.1 1 0 .3-.1.5-.2.6-.4.3-.2.2-.5.2-.5s.1.3-.2.6c-.1.2-.3.4-.6.5l-1 .1c-.8 0-1.7.1-2.7.1h-1.6c-.7 0-1.4-.5-1.3-1.3 0-.7.7-1.3 1.3-1.3h1.6c1 0 1.9.1 2.7.1.4 0 .7 0 1 .1.3.1.5.3.6.5.3.4.2.6.2.6"/><path clip-path="url(#b)" fill="#231F20" d="M151.3 23.6c.6 0 1.1.5 1.1 1.1s-.5 1.1-1.1 1.1h-.3v2.2l.2.2c1.2-1 2.8-1.6 4.6-1.6 4 0 7.3 3.2 7.3 7.3 0 4-3.2 7.2-7.3 7.2-1.6 0-3.1-.5-4.4-1.5l-.4.4v3.8h.4c.6 0 1.1.5 1.1 1.1 0 .6-.5 1.1-1.1 1.1h-.4c0 1.8 0 3.9-.1 6.3h.5c.6 0 1.1.2 1.1.4s-.5.4-1.1.4h-.5c-.1 9.2-.2 21.4-.4 29.7h8.9v2.3l-4.3.7v2.3l4.3.8v3.9h-10.9c-.7 0-1.3-.2-1.5-.7v-39.1h-.6c-.6 0-1.1-.2-1.1-.4s.5-.4 1.1-.4h.6v-6.3h-.6c-.6 0-1.1-.5-1.1-1.1 0-.6.5-1.1 1.1-1.1h.6v-3.7l-.6-.6c-1.2 1-2.8 1.5-4.5 1.5-4 0-7.3-3.2-7.3-7.2s3.2-7.3 7.3-7.3c1.7 0 3.3.6 4.6 1.6l.5-.5v-1.9h-.6c-.6 0-1.1-.5-1.1-1.1s.5-1.1 1.1-1.1h4.9m-2.5 8.3c.3-.9.7-1.8 1.3-2.5l-1.2-1.2-1.3 1.4c.5.6.9 1.4 1.2 2.3m6.8 7.8c3.1 0 5.7-2.5 5.7-5.7 0-3.1-2.5-5.7-5.7-5.7-1.2 0-2.3.4-3.2 1l4.7 4.5-4.6 4.8c.8.7 1.9 1.1 3.1 1.1m-13.9 0c1.3 0 2.5-.5 3.4-1.2l-4.5-4.3 4.5-4.6c-1-.7-2.1-1.2-3.4-1.2-3.1 0-5.7 2.5-5.7 5.7.1 3.1 2.6 5.6 5.7 5.6m9.5-2l3.6-3.8-3.6-3.5c-.8 1-1.3 2.2-1.3 3.6s.5 2.7 1.3 3.7m-4.8-.4c.6-.9 1-2 1-3.2 0-1.2-.4-2.3-1-3.3l-3.2 3.3 3.2 3.2m2.7 2.6l1.2-1.2c-.7-.8-1.2-1.7-1.5-2.7-.3.9-.7 1.7-1.2 2.4l1.5 1.5m2.2-16.9h-5.1c-1 0-1.9.8-1.9 1.9 0 1 .7 1.8 1.7 1.9v.4c-1.3-.8-2.7-1.2-4.2-1.2-4.4 0-8.1 3.6-8.1 8.1 0 4.4 3.6 8 8.1 8 1.5 0 3-.4 4.2-1.2v2.3c-.9.1-1.7.9-1.7 1.9 0 1 .7 1.8 1.7 1.9v4.7c-1 0-1.7.5-1.7 1.2s.6 1.1 1.7 1.2v38.1l.1.2c.3.8 1.2 1.2 2.3 1.2h11.700000000000001v-5.4l-.7-.1-3.6-.7v-.9l3.6-.6.7-.1v-3.8h-8.9c.1-6.5.3-15.9.4-28.1 1-.1 1.6-.5 1.6-1.2s-.6-1.1-1.5-1.2v-4.7c.8-.2 1.5-.9 1.5-1.8s-.6-1.6-1.5-1.8v-2.3c1.2.7 2.6 1.1 4 1.1 4.4 0 8.1-3.6 8.1-8s-3.6-8.1-8.1-8.1c-1.4 0-2.8.4-4 1.1v-.3c.8-.2 1.4-.9 1.4-1.8.1-1.1-.8-1.9-1.8-1.9m2.4 6.6c.6-.3 1.3-.4 1.9-.4 2.7 0 4.9 2.2 4.9 4.9s-2.2 4.9-4.9 4.9c-.7 0-1.3-.1-1.9-.4l3.9-4.1.6-.6-.6-.6-3.9-3.7zm-12 9.3c-2.7 0-4.9-2.2-4.9-4.9s2.2-4.9 4.9-4.9c.8 0 1.5.2 2.2.5l-3.8 3.9-.6.6.6.6 3.8 3.6c-.7.4-1.4.6-2.2.6m6.9-9.3l.3-.3.2.1-.3.4c-.1 0-.1-.1-.2-.2m2.7 6.8c-.4-.7-.6-1.5-.6-2.4 0-.9.2-1.7.7-2.4l2.4 2.3-2.5 2.5zm-7-2.3l1.9-2c.3.6.4 1.3.4 1.9 0 .7-.1 1.3-.4 1.9l-1.9-1.8zm4.3 4.2l.2-.3c.1.2.3.4.4.7l-.1.1-.5-.5z"/><path clip-path="url(#b)" fill="#CCC9C7" d="M141.8 26.5c-4 0-7.3 3.2-7.3 7.3 0 4 3.2 7.2 7.3 7.2 4 0 7.3-3.2 7.3-7.2 0-4.1-3.3-7.3-7.3-7.3m-.1 13c-3.1 0-5.7-2.5-5.7-5.7 0-3.1 2.5-5.7 5.7-5.7 3.1 0 5.7 2.5 5.7 5.7s-2.5 5.7-5.7 5.7"/><path clip-path="url(#b)" fill="#CCC9C7" d="M155.8 26.5c-4 0-7.3 3.2-7.3 7.3 0 4 3.2 7.2 7.3 7.2 4 0 7.3-3.2 7.3-7.2-.1-4.1-3.3-7.3-7.3-7.3m-.2 13c-3.1 0-5.7-2.5-5.7-5.7 0-3.1 2.5-5.7 5.7-5.7 3.1 0 5.7 2.5 5.7 5.7-.1 3.2-2.6 5.7-5.7 5.7"/><path clip-path="url(#b)" fill="#CCC9C7" d="M151 40l-2 2-2.1-2v51.8c.5 1.1 2.8.9 3.2 0 .4-.9.9-51.8.9-51.8"/><path clip-path="url(#b)" fill="#CCC9C7" d="M148.7 25.7l-8 8.3 6.2 6 2.1 2 2-2 6-6.3-8.3-8zm1.8 12.5l-1.4 1.5-1.5-1.5-4.5-4.3 5.8-6 6 5.8-4.4 4.5z"/><polygon clip-path="url(#b)" fill="#CCC9C7" points="159.3,92.6 148.8,92.6 148.8,82.6 159.3,82.6 159.3,84.9 155,85.6 155,87.8 159.3,88.6"/><path clip-path="url(#b)" fill="#231F20" d="M159.3 92.6s0-1.1-.1-3.9c0 0 0 .1.1.1-.8-.1-2.4-.4-4.3-.7h-.2v-.2c0-.3 0-1.3-.1-2.3v-.2h.2c.8-.1 2.5-.4 4.2-.7l-.3.3v-2.3l.4.4h-10.5l.4-.4c0 3.9-.1 7.4-.1 9.9l-.3-.3c6.7.1 10.6.3 10.6.3s-3.9.1-10.5.3h-.3v-.3c-.1-2.6-.1-6-.1-9.9v-.4h11.3v2.9999999999999996h-.3c-1.8.2-3.5.5-4.3.6l.2-.2v2.3c-.1-.1-.1-.2-.2-.2 1.9.4 3.5.7 4.2.9h.1v.1c-.1 2.6-.1 3.8-.1 3.8"/><polygon clip-path="url(#b)" fill="#CCC9C7" points="151,28.3 149,27.1 146.9,28.3 146.9,24.6 151,24.6"/><path clip-path="url(#b)" fill="#CCC9C7" d="M152.4 44.9c0 .6-.5 1.1-1.1 1.1h-5.1c-.6 0-1.1-.5-1.1-1.1 0-.6.5-1.1 1.1-1.1h5.1c.6 0 1.1.5 1.1 1.1"/><path clip-path="url(#b)" fill="#231F20" d="M152.4 44.9s0-.3-.2-.6c-.1-.2-.3-.3-.6-.4h-1c-.8 0-1.7.1-2.7.1h-1.6c-.4 0-.9.3-.8.9 0 .4.4.8.8.8h1.6c1 0 1.9.1 2.7.1.4 0 .7.1 1 0 .3-.1.5-.2.6-.4.2-.3.2-.6.2-.5 0 0 .1.3-.2.6-.1.2-.3.4-.6.5l-1 .1c-.8 0-1.7.1-2.7.1h-1.6c-.7 0-1.4-.5-1.3-1.3 0-.7.7-1.3 1.3-1.3h1.6c1 0 1.9.1 2.7.1.4 0 .7 0 1 .1.3.1.5.3.6.5.2.3.2.6.2.6"/><path clip-path="url(#b)" fill="#CCC9C7" d="M152.4 52.6c0 .2-.5.4-1.1.4h-5.1c-.6 0-1.1-.2-1.1-.4s.5-.4 1.1-.4h5.1c.6 0 1.1.1 1.1.4"/><path clip-path="url(#b)" fill="#CCC9C7" d="M152.4 24.6c0 .6-.5 1.1-1.1 1.1h-5.1c-.6 0-1.1-.5-1.1-1.1s.5-1.1 1.1-1.1h5.1c.6.1 1.1.5 1.1 1.1"/><path clip-path="url(#b)" fill="#231F20" d="M152.4 24.6s0-.3-.2-.6c-.1-.2-.3-.3-.6-.4h-1c-.8 0-1.7.1-2.7.1h-1.6c-.4 0-.9.3-.8.9 0 .4.4.8.8.8h1.6c1 0 1.9.1 2.7.1.4 0 .7.1 1 0 .3-.1.5-.2.6-.4.2-.2.2-.5.2-.5s.1.3-.2.6c-.1.2-.3.4-.6.5l-1 .1c-.8 0-1.7.1-2.7.1h-1.6c-.7 0-1.4-.5-1.3-1.3 0-.7.7-1.3 1.3-1.3h1.6c1 0 1.9.1 2.7.1.4 0 .7 0 1 .1.3.1.5.3.6.5.2.4.2.6.2.6"/></svg>