<?xml version="1.0" encoding="utf-8"?>
<!-- Generator: Adobe Illustrator 18.1.1, SVG Export Plug-In . SVG Version: 6.00 Build 0)  -->
<!DOCTYPE svg PUBLIC "-//W3C//DTD SVG 1.1//EN" "http://www.w3.org/Graphics/SVG/1.1/DTD/svg11.dtd">
<svg version="1.1" id="Layer_1" xmlns="http://www.w3.org/2000/svg" xmlns:xlink="http://www.w3.org/1999/xlink" x="0px" y="0px"
	 viewBox="0 0 178.4 131.3" enable-background="new 0 0 178.4 131.3" xml:space="preserve">
<g>
	<defs>
		<rect id="SVGID_5_" x="2.4" y="2.3" width="176" height="129"/>
	</defs>
	<clipPath id="SVGID_1_">
		<use xlink:href="#SVGID_5_"  overflow="visible"/>
	</clipPath>
	<path clip-path="url(#SVGID_1_)" fill="#D8505C" d="M162.6,131.8c-0.4-1.3,0.2-2.2,1.7-2.8c1.9-0.6,4.5-1.1,6.9-0.9
		c-0.9-0.9-0.6-2.4,0.9-3.7c-2.6,1.1-5.6,0.9-7.8-0.4c-2.6-1.5-2.6-3.7,0-4.8c1.9-0.6,4.5-1.1,6.9-0.9c-0.9-0.9-0.6-2.4,0.9-3.7
		c-2.6,0.9-5.6,0.9-7.8-0.4c-2.6-1.5-2.6-3.7,0-4.8c1.9-0.6,4.5-1.1,6.9-0.9c-0.9-1.1-0.6-2.4,0.9-3.7c-2.6,0.9-5.6,0.9-7.8-0.2
		c-2.6-1.7-2.6-3.9,0-4.8c1.9-0.9,4.5-1.3,6.9-1.1c-0.9-1.1-0.6-2.4,0.9-3.9c-2.6,1.1-5.6,1.1-7.8,0c-2.6-1.5-2.6-3.7,0-4.8
		c1.9-0.6,4.5-1.3,6.9-1.3c-0.9-0.9-0.6-2.2,0.9-3.7c-2.6,1.1-5.6,1.3-7.8,0c-2.6-1.5-2.6-3.7,0-4.8c1.9-0.6,4.5-1.3,6.9-1.3
		c-0.9-0.9-0.6-2.4,0.9-3.7c-2.6,1.1-5.6,1.3-7.8,0c-2.6-1.5-2.6-3.7,0-4.5c1.9-0.9,4.5-1.5,6.9-1.5c-0.9-0.9-0.6-2.4,0.9-3.7
		c-2.6,1.1-5.6,1.3-7.8,0.2c-2.6-1.5-2.6-3.7,0-4.8c1.9-0.9,4.5-1.5,6.9-1.5c-0.9-1.1-0.6-2.4,0.9-3.9c-2.6,1.3-5.6,1.5-7.8,0.4
		c-2.6-1.5-2.6-3.7,0-4.8c1.9-0.9,4.5-1.5,6.9-1.7c-0.9-0.9-0.6-2.2,0.9-3.7c-2.6,1.3-5.6,1.5-7.8,0.4c-2.6-1.5-2.6-3.7,0-4.8
		c1.9-0.9,4.5-1.5,6.9-1.7c-0.9-0.9-0.6-2.2,0.9-3.7c-2.6,1.1-5.6,1.5-7.8,0.4c-2.6-1.3-2.6-3.5,0-4.5c1.9-0.9,4.5-1.7,6.9-1.9
		c-0.9-0.9-0.6-2.4,0.9-3.7c-2.6,1.3-5.6,1.5-7.8,0.6c-2.6-1.5-2.6-3.7,0-4.8c1.9-0.9,4.5-1.7,6.9-1.9c-0.9-0.9-0.6-2.4,0.9-3.9
		c-2.6,1.3-5.6,1.9-7.8,0.9c-2.6-1.5-2.6-3.7,0-4.8c1.9-0.9,4.5-1.7,6.9-1.9c-0.9-1.1-0.6-2.4,0.9-3.9c-2.6,1.3-5.6,1.9-7.8,0.9
		c-2.6-1.3-2.6-3.5,0-4.8c0.9-0.4,1.9-0.9,3-1.1h8c0.6,0.7,0.4,1.9-0.7,3c1.1-0.6,2.4-1.1,3.7-1.5c-0.2-0.4-0.2-1.1,0-1.5h9.1v129.7
		h-10.2c0.4-0.2,0.9-0.2,1.1-0.4c-0.2-0.6,0-1.3,0.4-2.2c-1.3,0.2-2.4,0.2-3.5,0.2c0.4,0.6,0.4,1.5,0,2.4H162.6z M115.1,131.8h-1.7
		v-0.2c-0.9-0.9-0.9-1.5,0-1.3C113.8,130.5,114.4,131.1,115.1,131.8 M70.1,131.8H69c-0.6-0.4-1.3-1.1-1.9-1.7
		c-0.6-0.9-0.6-1.5,0-1.3c0.6,0.2,1.9,1.1,2.6,1.9C69.9,131.1,70.1,131.3,70.1,131.8 M36.6,131.8h-6.1c-0.9-0.4-1.5-0.9-2.2-1.3
		c-1.9-1.1-1.9-2.8,0-3.7c1.9-0.6,5.2,0.2,7.1,1.7C37,129.6,37.3,130.9,36.6,131.8 M27.5,131.8c-0.2-0.2-0.2-0.4-0.7-0.6
		c-2.2-1.1-5.8-1.1-8.2,0.2c0,0.2-0.2,0.2-0.2,0.4H27.5z M16.1,131.8H7.2c-0.4-0.9,0-2.2,0.9-3.2c-1.1,0.6-2.4,1.3-3.7,1.7
		c0.2,0.4,0.2,0.9,0,1.5H-7.1V2.1h25.9c2.2,1.5,1.9,3.7-0.4,4.8c-1.9,0.6-4.5,0.6-6.9,0.2c0.9,1.3,0.6,2.8-0.6,3.9
		c2.4-0.6,5.4-0.2,7.6,1.1c2.6,1.7,2.6,3.9,0,5c-1.9,0.9-4.5,0.9-6.9,0.6c0.9,1.1,0.6,2.6-0.6,3.9c2.4-0.9,5.4-0.4,7.6,0.9
		c2.6,1.5,2.6,3.9,0,5c-1.9,0.9-4.5,0.9-6.9,0.6c0.9,1.3,0.6,2.6-0.6,3.9c2.4-0.9,5.4-0.4,7.6,0.9c2.6,1.5,2.6,3.9,0,5
		c-1.9,0.9-4.5,0.9-6.9,0.9c0.9,1.1,0.6,2.6-0.6,3.9c2.4-1.1,5.4-0.9,7.6,0.4c2.6,1.7,2.6,3.9,0,5.2c-1.9,0.9-4.5,1.1-6.9,0.9
		c0.9,1.1,0.6,2.6-0.6,3.9c2.4-0.9,5.4-0.6,7.6,0.4c2.6,1.5,2.6,3.9,0,5.2c-1.9,0.9-4.5,1.1-6.9,0.9c0.9,1.1,0.6,2.6-0.6,4.1
		c2.4-1.1,5.4-1.1,7.6,0.2c2.6,1.5,2.6,3.7,0,5c-1.9,0.9-4.5,1.3-6.9,1.3c0.9,1.1,0.6,2.6-0.6,3.9c2.4-1.1,5.4-1.1,7.6,0.2
		c2.6,1.5,2.6,3.7,0,5c-1.9,0.9-4.5,1.3-6.9,1.3c0.9,1.1,0.6,2.6-0.6,4.1c2.4-1.3,5.4-1.3,7.6,0c2.6,1.3,2.6,3.7,0,5
		c-1.9,0.9-4.5,1.3-6.9,1.5c0.9,0.9,0.6,2.4-0.6,3.9c2.4-1.3,5.4-1.3,7.6-0.2c2.6,1.5,2.6,3.7,0,5.2c-1.9,0.9-4.5,1.3-6.9,1.5
		c0.9,0.9,0.6,2.4-0.6,4.1c2.4-1.5,5.4-1.5,7.6-0.4c2.6,1.5,2.6,3.7,0,5c-1.9,1.1-4.5,1.5-6.9,1.7c0.9,1.1,0.6,2.6-0.6,4.1
		c2.4-1.5,5.4-1.5,7.6-0.4c2.6,1.3,2.6,3.7,0,5c-1.9,1.1-4.5,1.5-6.9,1.9c0.9,0.9,0.6,2.4-0.6,4.1c2.4-1.5,5.4-1.7,7.6-0.6
		c2.6,1.3,2.6,3.5,0,5C17.8,131.1,16.9,131.3,16.1,131.8 M19.3,2.1c2.4,1.1,5.6,1.7,7.6,1.3c1.1-0.2,1.7-0.6,1.7-1.3H19.3z
		 M50.4,2.1h2.8c0.4,0.9,0.2,1.3-0.7,1.1C51.9,3,51.3,2.5,50.4,2.1 M57.1,2.1h2.4c0.6,0.4,1.1,1.1,1.5,1.5c1.1,1.5,1.1,2.4,0,1.9
		c-0.9-0.4-2.6-1.9-3.7-3.2C57.4,2.1,57.4,2.1,57.1,2.1 M77,2.1h0.9c0,0,0.2,0,0.2,0.2c0.4,0.4,0.4,0.9,0,0.6
		C77.9,2.7,77.5,2.3,77,2.1 M113.6,2.1h1.7c0.2,0,0.4,0.2,0.4,0.4c0.6,0.9,0.6,1.3,0,1.1C115.1,3.4,114.2,2.7,113.6,2.1 M146.2,2.1
		h6c0.9,0.2,1.5,0.4,2.2,0.9c1.9,1.1,1.9,2.6,0,3.5c-1.9,0.9-5.2,0-7.1-1.5C146,3.8,145.5,2.7,146.2,2.1 M155.5,2.1
		c0,0,0.2,0,0.4,0.2c2.2,1.1,6.1,1.3,8.2,0.2c0.4-0.2,0.6-0.4,0.9-0.4H155.5z M87,128.7c-0.2-0.2-0.6-0.4-0.9-0.9
		c-0.2-0.2-0.2-0.4,0-0.2c0.2,0,0.6,0.4,0.9,0.7C87.2,128.5,87.2,128.7,87,128.7 M87,119.5c-0.2-0.2-0.6-0.4-0.9-0.9
		c-0.2-0.2-0.2-0.4,0-0.2c0.2,0,0.6,0.4,0.9,0.7C87.2,119.2,87.2,119.5,87,119.5 M87,109.9c-0.2,0-0.6-0.2-0.9-0.6
		c-0.2-0.2-0.2-0.4,0-0.4c0.2,0.2,0.6,0.4,0.9,0.9C87.2,109.9,87.2,110.2,87,109.9 M87,100.6c-0.2,0-0.6-0.4-0.9-0.6
		c-0.2-0.2-0.2-0.4,0-0.4c0.2,0.2,0.6,0.4,0.9,0.9C87.2,100.6,87.2,100.9,87,100.6 M87,91.4c-0.2,0-0.6-0.4-0.9-0.7
		c-0.2-0.4-0.2-0.4,0-0.4c0.2,0,0.6,0.4,0.9,0.7C87.2,91.4,87.2,91.6,87,91.4 M87,82.1c-0.2-0.2-0.6-0.4-0.9-0.9
		c-0.2-0.2-0.2-0.4,0-0.2c0.2,0,0.6,0.4,0.9,0.7C87.2,82.1,87.2,82.1,87,82.1 M87,72.8c-0.2-0.2-0.6-0.4-0.9-0.9
		c-0.2-0.2-0.2-0.4,0-0.4c0.2,0.2,0.6,0.6,0.9,0.9C87.2,72.6,87.2,72.8,87,72.8 M87,63.5c-0.2-0.2-0.6-0.6-0.9-0.9
		c-0.2-0.2-0.2-0.4,0-0.4c0.2,0.2,0.6,0.4,0.9,0.9C87.2,63.3,87.2,63.5,87,63.5 M87,54c-0.2,0-0.6-0.4-0.9-0.6
		c-0.2-0.4-0.2-0.4,0-0.4c0.2,0.2,0.6,0.4,0.9,0.9C87.2,54,87.2,54.2,87,54 M87,44.7c-0.2,0-0.6-0.4-0.9-0.6c-0.2-0.4-0.2-0.4,0-0.4
		c0.2,0,0.6,0.4,0.9,0.6C87.2,44.7,87.2,44.9,87,44.7 M87,35.4c-0.2-0.2-0.6-0.4-0.9-0.9c-0.2-0.2-0.2-0.4,0-0.2
		c0.2,0,0.6,0.4,0.9,0.7C87.2,35.4,87.2,35.4,87,35.4 M87,26.1c-0.2-0.2-0.6-0.4-0.9-0.9c-0.2-0.2-0.2-0.4,0-0.4
		c0.2,0.2,0.6,0.6,0.9,0.9C87.2,26.1,87.2,26.1,87,26.1 M87,16.8c-0.2-0.2-0.6-0.6-0.9-0.9c-0.2-0.2-0.2-0.4,0-0.4
		c0.2,0.2,0.6,0.4,0.9,0.9C87.2,16.6,87.2,16.8,87,16.8 M87,7.3c-0.2,0-0.6-0.4-0.9-0.6c-0.2-0.4-0.2-0.4,0-0.4
		c0.2,0.2,0.6,0.4,0.9,0.9C87.2,7.3,87.2,7.5,87,7.3 M78.1,125.1c-0.4,0-0.9-0.6-1.3-1.1c-0.4-0.4-0.4-0.9,0-0.7
		c0.4,0.2,0.9,0.7,1.3,1.1C78.5,125.1,78.5,125.3,78.1,125.1 M78.1,115.8c-0.4-0.2-0.9-0.6-1.3-1.3c-0.4-0.4-0.4-0.6,0-0.6
		c0.4,0.2,0.9,0.9,1.3,1.3C78.5,115.6,78.5,115.8,78.1,115.8 M78.1,106.3c-0.4,0-0.9-0.6-1.3-1.1c-0.4-0.4-0.4-0.9,0-0.6
		c0.4,0.2,0.9,0.6,1.3,1.1C78.5,106.3,78.5,106.5,78.1,106.3 M78.1,97c-0.4-0.2-0.9-0.6-1.3-1.3c-0.4-0.4-0.4-0.6,0-0.6
		c0.4,0.2,0.9,0.6,1.3,1.3C78.5,96.8,78.5,97,78.1,97 M78.1,87.5c-0.4,0-0.9-0.6-1.3-1.1c-0.4-0.6-0.4-0.9,0-0.6
		c0.4,0,0.9,0.6,1.3,1.1C78.5,87.5,78.5,87.7,78.1,87.5 M78.1,78.2c-0.4-0.2-0.9-0.9-1.3-1.3c-0.4-0.4-0.4-0.9,0-0.6
		c0.4,0.2,0.9,0.6,1.3,1.3C78.5,78,78.5,78.4,78.1,78.2 M78.1,68.7c-0.4,0-0.9-0.7-1.3-1.1c-0.4-0.6-0.4-0.9,0-0.6
		c0.4,0,0.9,0.6,1.3,1.1C78.5,68.7,78.5,68.9,78.1,68.7 M78.1,59.4c-0.4-0.2-0.9-0.9-1.3-1.3c-0.4-0.4-0.4-0.9,0-0.6
		c0.4,0.2,0.9,0.6,1.3,1.3C78.5,59.1,78.5,59.6,78.1,59.4 M78.1,49.9c-0.4,0-0.9-0.6-1.3-1.3c-0.4-0.4-0.4-0.7,0-0.7
		c0.4,0.2,0.9,0.9,1.3,1.3C78.5,49.9,78.5,50.1,78.1,49.9 M78.1,40.6c-0.4-0.2-0.9-0.9-1.3-1.3c-0.4-0.7-0.4-0.9,0-0.7
		c0.4,0.2,0.9,0.7,1.3,1.3C78.5,40.3,78.5,40.8,78.1,40.6 M78.1,31.1c-0.4,0-0.9-0.6-1.3-1.3c-0.4-0.4-0.4-0.9,0-0.6
		c0.4,0.2,0.9,0.9,1.3,1.3C78.5,31.1,78.5,31.3,78.1,31.1 M78.1,21.8c-0.4-0.2-0.9-0.9-1.3-1.3c-0.4-0.6-0.4-0.9,0-0.6
		c0.4,0.2,0.9,0.6,1.3,1.3C78.5,21.5,78.5,22,78.1,21.8 M78.1,12.2c-0.4,0-0.9-0.6-1.3-1.3c-0.4-0.4-0.4-0.9,0-0.6
		c0.4,0.2,0.9,0.9,1.3,1.3C78.5,12.2,78.5,12.5,78.1,12.2 M69.7,122.5c-0.6-0.2-1.9-1.3-2.6-1.9c-0.6-0.9-0.6-1.5,0-1.3
		c0.6,0.2,1.9,1.1,2.6,1.9C70.3,122.3,70.3,122.7,69.7,122.5 M69.7,113c-0.6-0.2-1.9-1.1-2.6-1.9c-0.6-1.1-0.6-1.5,0-1.3
		c0.6,0.2,1.9,1.1,2.6,2.2C70.3,112.8,70.3,113.2,69.7,113 M69.7,103.5c-0.6-0.2-1.9-1.1-2.6-2.2c-0.6-0.9-0.6-1.3,0-1.1
		c0.6,0.2,1.9,1.1,2.6,2.2C70.3,103.2,70.3,103.7,69.7,103.5 M69.7,93.9c-0.6-0.2-1.9-1.1-2.6-1.9c-0.6-1.1-0.6-1.5,0-1.3
		c0.6,0.2,1.9,1.1,2.6,2.2C70.3,93.7,70.3,94.4,69.7,93.9 M69.7,84.4c-0.6-0.2-1.9-1.1-2.6-2.2c-0.6-0.9-0.6-1.3,0-1.1
		c0.6,0.2,1.9,1.1,2.6,2.2C70.3,84.2,70.3,84.9,69.7,84.4 M69.7,75.1c-0.6-0.4-1.9-1.3-2.6-2.4c-0.6-0.9-0.6-1.3,0-1.1
		c0.6,0.2,1.9,1.1,2.6,2.2C70.3,74.7,70.3,75.4,69.7,75.1 M69.7,65.6c-0.6-0.4-1.9-1.3-2.6-2.4c-0.6-0.9-0.6-1.3,0-1.1
		c0.6,0.2,1.9,1.3,2.6,2.2C70.3,65.4,70.3,65.8,69.7,65.6 M69.7,56.1c-0.6-0.4-1.9-1.3-2.6-2.4c-0.6-0.9-0.6-1.3,0-1.1
		c0.6,0.2,1.9,1.3,2.6,2.2C70.3,55.9,70.3,56.3,69.7,56.1 M69.7,46.6c-0.6-0.2-1.9-1.3-2.6-2.4c-0.6-0.9-0.6-1.5,0-1.1
		c0.6,0.2,1.9,1.3,2.6,2.2C70.3,46.4,70.3,46.8,69.7,46.6 M69.7,37.1c-0.6-0.2-1.9-1.3-2.6-2.4c-0.6-0.9-0.6-1.5,0-1.1
		c0.6,0.2,1.9,1.3,2.6,2.2C70.3,36.9,70.3,37.3,69.7,37.1 M69.7,27.6c-0.6-0.2-1.9-1.3-2.6-2.4c-0.6-0.9-0.6-1.5,0-1.1
		c0.6,0.2,1.9,1.3,2.6,2.4C70.3,27.4,70.3,28,69.7,27.6 M69.7,18.1c-0.6-0.2-1.9-1.3-2.6-2.4c-0.6-0.9-0.6-1.5,0-1.1
		c0.6,0.2,1.9,1.3,2.6,2.4C70.3,17.9,70.3,18.5,69.7,18.1 M69.7,8.6c-0.6-0.2-1.9-1.3-2.6-2.4c-0.6-0.9-0.6-1.5,0-1.1
		c0.6,0.2,1.9,1.3,2.6,2.4C70.3,8.4,70.3,9,69.7,8.6 M61,130.5c-0.9-0.2-2.6-1.5-3.7-2.6c-0.9-1.3-0.9-2.2,0-1.9
		c1.1,0.2,2.8,1.5,3.7,2.6C62.1,129.8,62.1,130.7,61,130.5 M61,120.8c-0.9-0.2-2.6-1.3-3.7-2.6c-0.9-1.3-0.9-1.9,0-1.7
		c1.1,0.2,2.8,1.3,3.7,2.6C62.1,120.1,62.1,121,61,120.8 M61,111.2c-0.9-0.4-2.6-1.5-3.7-2.8c-0.9-1.1-0.9-1.9,0-1.7
		c1.1,0.2,2.8,1.3,3.7,2.6C62.1,110.6,62.1,111.5,61,111.2 M61,101.5c-0.9-0.2-2.6-1.5-3.7-2.8c-0.9-1.1-0.9-1.9,0-1.7
		c1.1,0.2,2.8,1.5,3.7,2.8C62.1,101.1,62.1,101.9,61,101.5 M61,92c-0.9-0.4-2.6-1.5-3.7-2.8c-0.9-1.3-0.9-2.2,0-1.9
		c1.1,0.4,2.8,1.7,3.7,2.8C62.1,91.4,62.1,92.2,61,92 M61,82.3c-0.9-0.2-2.6-1.5-3.7-2.8c-0.9-1.3-0.9-2.2,0-1.7
		c1.1,0.2,2.8,1.5,3.7,2.8C62.1,81.8,62.1,82.7,61,82.3 M61,72.8c-0.9-0.4-2.6-1.7-3.7-2.8c-0.9-1.3-0.9-2.2,0-1.9
		c1.1,0.2,2.8,1.5,3.7,2.8C62.1,72.3,62.1,73,61,72.8 M61,63c-0.9-0.2-2.6-1.5-3.7-2.8c-0.9-1.3-0.9-2.2,0-1.9
		c1.1,0.4,2.8,1.7,3.7,3C62.1,62.6,62.1,63.5,61,63 M61,53.5c-0.9-0.4-2.6-1.7-3.7-3c-0.9-1.3-0.9-2.2,0-1.7
		c1.1,0.2,2.8,1.5,3.7,2.8C62.1,53.1,62.1,54,61,53.5 M61,43.8c-0.9-0.2-2.6-1.5-3.7-2.8c-0.9-1.3-0.9-2.2,0-1.9
		c1.1,0.4,2.8,1.7,3.7,3C62.1,43.4,62.1,44.2,61,43.8 M61,34.3c-0.9-0.4-2.6-1.7-3.7-3c-0.9-1.3-0.9-2.2,0-1.9
		c1.1,0.4,2.8,1.7,3.7,3.2C62.1,33.9,62.1,34.7,61,34.3 M61,24.6c-0.9-0.2-2.6-1.7-3.7-3c-0.9-1.3-0.9-2.2,0-1.7
		c1.1,0.2,2.8,1.7,3.7,3C62.1,24.4,62.1,25,61,24.6 M61,15.1c-0.9-0.4-2.6-1.7-3.7-3.2c-0.9-1.3-0.9-1.9,0-1.7
		c1.1,0.4,2.8,1.7,3.7,3.2C62.1,14.6,62.1,15.5,61,15.1 M52.6,129.6c-1.3,0-3.5-1.1-4.8-2.6c-1.5-1.3-1.5-2.4,0-2.4
		c1.3,0,3.5,1.3,4.8,2.6C53.9,128.5,53.9,129.6,52.6,129.6 M52.6,119.9c-1.3,0-3.5-1.3-4.8-2.6c-1.5-1.5-1.5-2.4,0-2.4
		c1.3,0,3.5,1.1,4.8,2.6C53.9,118.8,53.9,119.9,52.6,119.9 M52.6,110.2c-1.3,0-3.5-1.3-4.8-2.6c-1.5-1.5-1.5-2.6,0-2.6
		c1.3,0.2,3.5,1.3,4.8,2.8C53.9,109.1,53.9,110.2,52.6,110.2 M52.6,100.4c-1.3,0-3.5-1.3-4.8-2.8c-1.5-1.3-1.5-2.6,0-2.4
		c1.3,0,3.5,1.3,4.8,2.8C53.9,99.4,53.9,100.4,52.6,100.4 M52.6,90.7c-1.3-0.2-3.5-1.5-4.8-2.8c-1.5-1.5-1.5-2.6,0-2.6
		c1.3,0.2,3.5,1.5,4.8,3C53.9,89.8,53.9,90.9,52.6,90.7 M52.6,81c-1.3-0.2-3.5-1.5-4.8-3c-1.5-1.5-1.5-2.6,0-2.4
		c1.3,0.2,3.5,1.5,4.8,3C53.9,80.1,53.9,81.2,52.6,81 M52.6,71.3c-1.3-0.2-3.5-1.5-4.8-3c-1.5-1.5-1.5-2.6,0-2.6
		c1.3,0.2,3.5,1.7,4.8,3.2C53.9,70.4,53.9,71.5,52.6,71.3 M52.6,61.5c-1.3-0.2-3.5-1.7-4.8-3.2c-1.5-1.5-1.5-2.6,0-2.4
		c1.3,0.2,3.5,1.7,4.8,3.2C53.9,60.7,53.9,61.7,52.6,61.5 M52.6,51.8c-1.3-0.2-3.5-1.7-4.8-3.2c-1.5-1.5-1.5-2.6,0-2.6
		c1.3,0.4,3.5,1.9,4.8,3.5C53.9,50.9,53.9,52,52.6,51.8 M52.6,42.1c-1.3-0.2-3.5-1.7-4.8-3.5c-1.5-1.5-1.5-2.6,0-2.4
		c1.3,0.2,3.5,1.7,4.8,3.5C53.9,41.2,53.9,42.3,52.6,42.1 M52.6,32.3c-1.3-0.2-3.5-1.9-4.8-3.5c-1.5-1.5-1.5-2.6,0-2.4
		c1.3,0.2,3.5,1.7,4.8,3.5C53.9,31.5,53.9,32.6,52.6,32.3 M52.6,22.6c-1.3-0.4-3.5-1.9-4.8-3.5c-1.5-1.7-1.5-2.8,0-2.6
		c1.3,0.4,3.5,1.9,4.8,3.7C53.9,21.8,53.9,22.8,52.6,22.6 M52.6,12.9c-1.3-0.4-3.5-1.9-4.8-3.7c-1.5-1.5-1.5-2.6,0-2.4
		c1.3,0.2,3.5,1.9,4.8,3.7C53.9,12,53.9,13.1,52.6,12.9 M44,130.3c1.7,0,1.7-1.5,0-3.2c-1.5-1.5-4.3-2.6-5.8-2.2
		c-1.7,0.4-1.7,1.7,0,3C39.6,129.2,42.4,130.3,44,130.3 M44,120.3c-1.5,0-4.3-1.1-5.8-2.4c-1.7-1.3-1.7-2.8,0-3
		c1.5-0.4,4.3,0.6,5.8,2.4C45.7,119,45.7,120.3,44,120.3 M44,110.4c-1.5,0-4.3-1.1-5.8-2.4c-1.7-1.3-1.7-2.8,0-3
		c1.5-0.4,4.3,0.6,5.8,2.4C45.7,109.1,45.7,110.4,44,110.4 M44,100.6c-1.5-0.2-4.3-1.3-5.8-2.6c-1.7-1.5-1.7-2.8,0-3
		c1.5-0.4,4.3,0.6,5.8,2.4C45.7,99.1,45.7,100.6,44,100.6 M44,90.7c-1.5-0.2-4.3-1.3-5.8-2.6c-1.7-1.5-1.7-3,0-3.2
		c1.5-0.2,4.3,0.9,5.8,2.8C45.7,89.4,45.7,90.7,44,90.7 M44,80.8c-1.5,0-4.3-1.3-5.8-2.6c-1.7-1.5-1.7-3,0-3.2
		c1.5-0.2,4.3,1.1,5.8,2.8C45.7,79.5,45.7,81,44,80.8 M44,71c-1.5-0.2-4.3-1.5-5.8-3c-1.7-1.5-1.7-2.8,0-3c1.5-0.2,4.3,1.1,5.8,2.8
		C45.7,69.7,45.7,71,44,71 M44,61.1c-1.5-0.2-4.3-1.5-5.8-3c-1.7-1.5-1.7-3,0-3c1.5-0.2,4.3,1.1,5.8,3C45.7,59.8,45.7,61.1,44,61.1
		 M44,51.2c-1.5-0.2-4.3-1.5-5.8-3c-1.7-1.5-1.7-3,0-3c1.5-0.2,4.3,1.3,5.8,3C45.7,49.9,45.7,51.4,44,51.2 M44,41.2
		c-1.5,0-4.3-1.5-5.8-3c-1.7-1.7-1.7-3,0-3c1.5-0.2,4.3,1.3,5.8,3C45.7,40.1,45.7,41.4,44,41.2 M44,31.5c-1.5-0.2-4.3-1.7-5.8-3.2
		c-1.7-1.7-1.7-3.2,0-3.2c1.5,0,4.3,1.5,5.8,3.5C45.7,30.2,45.7,31.7,44,31.5 M44,21.5c-1.5-0.2-4.3-1.7-5.8-3.2
		c-1.7-1.9-1.7-3.2,0-3.2c1.5,0,4.3,1.5,5.8,3.5C45.7,20.5,45.7,21.8,44,21.5 M44,11.6c-1.5-0.2-4.3-1.7-5.8-3.5
		c-1.7-1.7-1.7-3.2,0-3c1.5,0,4.3,1.5,5.8,3.5C45.7,10.5,45.7,12,44,11.6 M35.5,122.3c1.9-0.4,1.9-2.2,0-3.7
		c-1.9-1.5-5.2-2.4-7.1-1.9c-1.9,0.9-1.9,2.6,0,3.7C30.3,121.8,33.6,122.7,35.5,122.3 M35.5,112.1c1.9-0.2,1.9-1.9,0-3.7
		c-1.9-1.5-5.2-2.4-7.1-1.9c-1.9,0.9-1.9,2.6,0,3.7C30.3,111.9,33.6,112.8,35.5,112.1 M35.5,102.2c1.9-0.4,1.9-1.9,0-3.7
		c-1.9-1.7-5.2-2.6-7.1-2.2c-1.9,0.9-1.9,2.6,0,3.7C30.3,101.7,33.6,102.6,35.5,102.2 M35.5,92c1.9-0.2,1.9-1.9,0-3.7
		c-1.9-1.5-5.2-2.6-7.1-2.2c-1.9,0.9-1.9,2.6,0,3.7C30.3,91.6,33.6,92.4,35.5,92 M35.5,82.1c1.9-0.2,1.9-1.9,0-3.7
		c-1.9-1.7-5.2-2.8-7.1-2.4c-1.9,0.9-1.9,2.6,0,3.7C30.3,81.4,33.6,82.5,35.5,82.1 M35.5,72.1c1.9-0.2,1.9-1.9,0-3.9
		c-1.9-1.5-5.2-2.6-7.1-2.4c-1.9,0.9-1.9,2.6,0,3.9C30.3,71.3,33.6,72.3,35.5,72.1 M35.5,62c1.9-0.2,1.9-1.7,0-3.7
		c-1.9-1.7-5.2-2.8-7.1-2.6c-1.9,0.9-1.9,2.4,0,3.9C30.3,61.3,33.6,62.4,35.5,62 M35.5,52c1.9-0.2,1.9-1.9,0-3.7
		c-1.9-1.7-5.2-3-7.1-2.8c-1.9,0.9-1.9,2.4,0,3.9C30.3,51.2,33.6,52.2,35.5,52 M35.5,41.9c1.9,0,1.9-1.7,0-3.7
		c-1.9-1.7-5.2-3-7.1-2.6c-1.9,0.4-1.9,2.2,0,3.7C30.3,41,33.6,42.3,35.5,41.9 M35.5,31.9c1.9,0,1.9-1.7,0-3.7
		c-1.9-1.7-5.2-3-7.1-2.8c-1.9,0.4-1.9,2.2,0,3.7C30.3,30.8,33.6,32.1,35.5,31.9 M35.5,21.8c1.9,0,1.9-1.5,0-3.7
		c-1.9-1.7-5.2-3-7.1-2.8c-1.9,0.4-1.9,2.2,0,3.7C30.3,20.9,33.6,22,35.5,21.8 M35.5,11.8c1.9,0,1.9-1.7,0-3.7
		c-1.9-1.9-5.2-3.2-7.1-3c-1.9,0.4-1.9,2.2,0,3.7C30.3,10.7,33.6,12,35.5,11.8 M26.9,125.5c2.4-1.1,2.4-3,0-4.5
		c-2.2-1.1-5.8-1.1-8.2,0.2c-2.2,1.3-2.2,3.2,0,4.3C21,126.6,24.7,126.6,26.9,125.5 M26.9,115.1c2.4-0.9,2.4-2.8,0-4.3
		c-2.2-1.3-5.8-1.3-8.2,0c-2.2,1.3-2.2,3.2,0,4.3C21,116.4,24.7,116.4,26.9,115.1 M26.9,105c2.4-0.9,2.4-2.8,0-4.3
		c-2.2-1.3-5.8-1.5-8.2-0.2c-2.2,1.3-2.2,3.2,0,4.5C21,106.1,24.7,106.3,26.9,105 M26.9,94.8c2.4-0.6,2.4-2.6,0-4.3
		c-2.2-1.3-5.8-1.5-8.2-0.4c-2.2,1.3-2.2,3.2,0,4.5C21,95.7,24.7,95.9,26.9,94.8 M26.9,84.7c2.4-0.6,2.4-2.6,0-4.3
		c-2.2-1.5-5.8-1.7-8.2-0.4c-2.2,1.1-2.2,3,0,4.3C21,85.5,24.7,85.7,26.9,84.7 M26.9,74.5c2.4-0.6,2.4-2.6,0-4.3
		c-2.2-1.5-5.8-1.7-8.2-0.6c-2.2,1.1-2.2,3,0,4.3C21,75.1,24.7,75.4,26.9,74.5 M26.9,64.3c2.4-0.6,2.4-2.6,0-4.3
		c-2.2-1.5-5.8-1.9-8.2-0.9c-2.2,1.1-2.2,3,0,4.3C21,65,24.7,65.2,26.9,64.3 M26.9,54.2c2.4-0.6,2.4-2.6,0-4.3
		c-2.2-1.7-5.8-2.2-8.2-1.1c-2.2,1.1-2.2,3,0,4.5C21,54.6,24.7,55,26.9,54.2 M26.9,44c2.4-0.6,2.4-2.6,0-4.3
		c-2.2-1.7-5.8-2.2-8.2-1.3c-2.2,1.1-2.2,3,0,4.5C21,44.2,24.7,44.7,26.9,44 M26.9,33.9c2.4-0.6,2.4-2.6,0-4.3
		c-2.2-1.7-5.8-2.4-8.2-1.3c-2.2,0.9-2.2,2.8,0,4.3C21,34.1,24.7,34.5,26.9,33.9 M26.9,23.7c2.4-0.4,2.4-2.4,0-4.3
		c-2.2-1.9-5.8-2.6-8.2-1.5c-2.2,0.9-2.2,3,0,4.3C21,23.7,24.7,24.4,26.9,23.7 M26.9,13.5c2.4-0.4,2.4-2.4,0-4.3
		c-2.2-1.9-5.8-2.6-8.2-1.7c-2.2,0.9-2.2,3,0,4.3C21,13.3,24.7,14.2,26.9,13.5 M8.1,117.9c-1.1,0.9-2.4,1.3-3.7,1.7
		c0.2,0.9,0.2,1.5-0.2,2.6c1.1-0.4,2.2-0.9,3.2-0.9C6.8,120.5,7,119.2,8.1,117.9 M8.1,107.6c-1.1,0.6-2.4,1.3-3.7,1.5
		c0.2,0.9,0.2,1.7-0.2,2.6c1.1-0.4,2.2-0.6,3.2-0.9C6.8,109.9,7,108.9,8.1,107.6 M8.1,97c-1.1,0.7-2.4,1.3-3.7,1.5
		c0.2,0.9,0.2,1.7-0.2,2.6c1.1-0.4,2.2-0.6,3.2-0.6C6.8,99.6,7,98.3,8.1,97 M8.1,86.4C7,87,5.7,87.7,4.4,88.1
		c0.2,0.6,0.2,1.5-0.2,2.4c1.1-0.4,2.2-0.6,3.2-0.6C6.8,89,7,87.7,8.1,86.4 M8.1,76c-1.1,0.6-2.4,1.1-3.7,1.5
		c0.2,0.7,0.2,1.5-0.2,2.4c1.1-0.2,2.2-0.4,3.2-0.6C6.8,78.4,7,77.1,8.1,76 M8.1,65.4c-1.1,0.6-2.4,1.1-3.7,1.5
		c0.2,0.6,0.2,1.5-0.2,2.4c1.1-0.2,2.2-0.4,3.2-0.6C6.8,67.8,7,66.7,8.1,65.4 M8.1,54.8c-1.1,0.6-2.4,1.3-3.7,1.5
		c0.2,0.6,0.2,1.5-0.2,2.4c1.1-0.2,2.2-0.4,3.2-0.4C6.8,57.4,7,56.1,8.1,54.8 M8.1,44.5c-1.1,0.6-2.4,1.1-3.7,1.3
		c0.2,0.9,0.2,1.5-0.2,2.6c1.1-0.4,2.2-0.6,3.2-0.6C6.8,46.8,7,45.5,8.1,44.5 M8.1,33.9c-1.1,0.6-2.4,1.1-3.7,1.3
		c0.2,0.9,0.2,1.7-0.2,2.6c1.1-0.4,2.2-0.6,3.2-0.6C6.8,36.2,7,35.2,8.1,33.9 M8.1,23.3c-1.1,0.6-2.4,1.1-3.7,1.3
		c0.2,0.9,0.2,1.7-0.2,2.6c1.1-0.4,2.2-0.4,3.2-0.4C6.8,25.6,7,24.6,8.1,23.3 M8.1,12.9c-1.1,0.4-2.4,0.9-3.7,1.3
		c0.2,0.6,0.2,1.5-0.2,2.4c1.1-0.2,2.2-0.4,3.2-0.4C6.8,15.3,7,14,8.1,12.9 M8.1,2.3C7,3,5.7,3.4,4.4,3.6C4.6,4.2,4.6,5.1,4.2,6
		c1.1-0.2,2.2-0.4,3.2-0.4C6.8,4.7,7,3.4,8.1,2.3 M95.8,2.7C96,3,96.5,3.4,96.7,3.6C96.9,4,96.9,4,96.7,4c-0.2-0.2-0.6-0.6-0.9-0.9
		C95.6,3,95.6,2.7,95.8,2.7 M95.8,12c0.2,0.2,0.6,0.6,0.9,0.9c0.2,0.2,0.2,0.4,0,0.4c-0.2-0.2-0.6-0.6-0.9-0.9
		C95.6,12.2,95.6,12,95.8,12 M95.8,21.3c0.2,0.2,0.6,0.6,0.9,0.9c0.2,0.2,0.2,0.4,0,0.4c-0.2-0.2-0.6-0.4-0.9-0.9
		C95.6,21.5,95.6,21.3,95.8,21.3 M95.8,30.6c0.2,0.2,0.6,0.6,0.9,0.9c0.2,0.2,0.2,0.4,0,0.4c-0.2-0.2-0.6-0.6-0.9-0.9
		C95.6,30.8,95.6,30.6,95.8,30.6 M95.8,39.9c0.2,0.2,0.6,0.4,0.9,0.9c0.2,0.2,0.2,0.4,0,0.4c-0.2-0.2-0.6-0.6-0.9-0.9
		C95.6,40.1,95.6,39.9,95.8,39.9 M95.8,49.2c0.2,0.2,0.6,0.4,0.9,0.9c0.2,0.2,0.2,0.4,0,0.4c-0.2-0.2-0.6-0.6-0.9-0.9
		C95.6,49.4,95.6,49.2,95.8,49.2 M95.8,58.5c0.2,0.2,0.6,0.6,0.9,0.9c0.2,0.2,0.2,0.4,0,0.4c-0.2-0.2-0.6-0.6-0.9-0.9
		C95.6,58.7,95.6,58.5,95.8,58.5 M95.8,67.8c0.2,0.2,0.6,0.4,0.9,0.9c0.2,0.2,0.2,0.4,0,0.4c-0.2-0.2-0.6-0.6-0.9-0.9
		C95.6,68,95.6,67.8,95.8,67.8 M95.8,77.1c0.2,0.2,0.6,0.4,0.9,0.9c0.2,0.2,0.2,0.4,0,0.2c-0.2,0-0.6-0.4-0.9-0.7
		C95.6,77.1,95.6,77.1,95.8,77.1 M95.8,86.4c0.2,0,0.6,0.4,0.9,0.9c0.2,0.2,0.2,0.4,0,0.2c-0.2,0-0.6-0.4-0.9-0.6
		C95.6,86.4,95.6,86.4,95.8,86.4 M95.8,95.7c0.2,0,0.6,0.4,0.9,0.9c0.2,0.2,0.2,0.4,0,0.2c-0.2,0-0.6-0.4-0.9-0.6
		C95.6,95.9,95.6,95.7,95.8,95.7 M95.8,105c0.2,0,0.6,0.4,0.9,0.6c0.2,0.4,0.2,0.6,0,0.4c-0.2,0-0.6-0.4-0.9-0.6
		C95.6,105,95.6,105,95.8,105 M95.8,114.3c0.2,0,0.6,0.4,0.9,0.9c0.2,0.2,0.2,0.4,0,0.2c-0.2,0-0.6-0.4-0.9-0.6
		C95.6,114.3,95.6,114.3,95.8,114.3 M95.8,123.6c0.2,0,0.6,0.4,0.9,0.6c0.2,0.4,0.2,0.6,0,0.4c-0.2,0-0.6-0.4-0.9-0.6
		C95.6,123.6,95.6,123.3,95.8,123.6 M104.7,6.6c0.4,0.2,1.1,0.9,1.3,1.3c0.4,0.6,0.4,0.9,0,0.6c-0.2-0.2-0.9-0.6-1.3-1.3
		C104.3,6.8,104.3,6.6,104.7,6.6 M104.7,15.9c0.4,0.2,1.1,0.9,1.3,1.3c0.4,0.4,0.4,0.9,0,0.7c-0.2-0.2-0.9-0.7-1.3-1.3
		C104.3,16.1,104.3,15.9,104.7,15.9 M104.7,25.2c0.4,0.2,1.1,0.9,1.3,1.3c0.4,0.4,0.4,0.9,0,0.6c-0.2-0.2-0.9-0.6-1.3-1.3
		C104.3,25.4,104.3,25.2,104.7,25.2 M104.7,34.5c0.4,0.2,1.1,0.9,1.3,1.3c0.4,0.4,0.4,0.9,0,0.6c-0.2-0.2-0.9-0.9-1.3-1.3
		C104.3,34.7,104.3,34.3,104.7,34.5 M104.7,43.8c0.4,0.2,1.1,0.6,1.3,1.3c0.4,0.4,0.4,0.9,0,0.6c-0.2-0.2-0.9-0.9-1.3-1.3
		C104.3,44,104.3,43.6,104.7,43.8 M104.7,53.1c0.4,0.2,1.1,0.6,1.3,1.3c0.4,0.4,0.4,0.9,0,0.6c-0.2-0.2-0.9-0.9-1.3-1.3
		C104.3,53.3,104.3,52.9,104.7,53.1 M104.7,62.4c0.4,0.2,1.1,0.6,1.3,1.3c0.4,0.4,0.4,0.6,0,0.6c-0.2-0.2-0.9-0.9-1.3-1.3
		C104.3,62.6,104.3,62.2,104.7,62.4 M104.7,71.7c0.4,0.2,1.1,0.6,1.3,1.3c0.4,0.4,0.4,0.6,0,0.6c-0.2-0.2-0.9-0.9-1.3-1.3
		C104.3,71.9,104.3,71.5,104.7,71.7 M104.7,81c0.4,0,1.1,0.7,1.3,1.3c0.4,0.4,0.4,0.6,0,0.6c-0.2-0.2-0.9-0.9-1.3-1.3
		C104.3,81,104.3,80.8,104.7,81 M104.7,90.3c0.4,0,1.1,0.7,1.3,1.1c0.4,0.6,0.4,0.9,0,0.9c-0.2-0.2-0.9-0.9-1.3-1.3
		C104.3,90.3,104.3,90.1,104.7,90.3 M104.7,99.6c0.4,0,1.1,0.6,1.3,1.1c0.4,0.6,0.4,0.9,0,0.6c-0.2,0-0.9-0.6-1.3-1.1
		C104.3,99.6,104.3,99.4,104.7,99.6 M104.7,108.9c0.4,0,1.1,0.6,1.3,1.1c0.4,0.6,0.4,0.9,0,0.6c-0.2,0-0.9-0.6-1.3-1.1
		C104.3,108.9,104.3,108.6,104.7,108.9 M104.7,117.9c0.4,0.2,1.1,0.9,1.3,1.3c0.4,0.4,0.4,0.9,0,0.6c-0.2-0.2-0.9-0.6-1.3-1.3
		C104.3,118.2,104.3,117.9,104.7,117.9 M104.7,127.2c0.4,0.2,1.1,0.9,1.3,1.3c0.4,0.4,0.4,0.9,0,0.6c-0.2-0.2-0.9-0.6-1.3-1.3
		C104.3,127.5,104.3,127.2,104.7,127.2 M113.3,9.7c0.6,0.2,1.7,1.1,2.4,1.9c0.6,1.1,0.6,1.5,0,1.3c-0.6-0.2-1.7-1.1-2.4-1.9
		C112.5,10.1,112.5,9.4,113.3,9.7 M113.3,18.9c0.6,0.2,1.7,1.1,2.4,1.9c0.6,1.1,0.6,1.5,0,1.3c-0.6-0.2-1.7-1.1-2.4-2.2
		C112.5,19.4,112.5,18.7,113.3,18.9 M113.3,28.2c0.6,0.2,1.7,1.1,2.4,1.9c0.6,1.1,0.6,1.5,0,1.3c-0.6-0.2-1.7-1.1-2.4-2.2
		C112.5,28.5,112.5,28,113.3,28.2 M113.3,37.5c0.6,0.2,1.7,1.1,2.4,1.9c0.6,0.9,0.6,1.5,0,1.3c-0.6-0.2-1.7-1.1-2.4-2.2
		C112.5,37.8,112.5,37.3,113.3,37.5 M113.3,46.8c0.6,0.2,1.7,1.1,2.4,1.9c0.6,1.1,0.6,1.5,0,1.3c-0.6-0.2-1.7-1.1-2.4-2.2
		C112.5,47,112.5,46.6,113.3,46.8 M113.3,56.1c0.6,0.2,1.7,1.1,2.4,1.9c0.6,1.1,0.6,1.5,0,1.3c-0.6-0.2-1.7-1.1-2.4-2.2
		C112.5,56.3,112.5,55.9,113.3,56.1 M113.3,65.4c0.6,0.2,1.7,1.1,2.4,1.9c0.6,1.1,0.6,1.5,0,1.3c-0.6-0.2-1.7-1.3-2.4-2.2
		C112.5,65.6,112.5,65.2,113.3,65.4 M113.3,74.7c0.6,0.2,1.7,1.1,2.4,1.9c0.6,1.1,0.6,1.5,0,1.3c-0.6-0.2-1.7-1.3-2.4-2.2
		C112.5,74.9,112.5,74.5,113.3,74.7 M113.3,84c0.6,0.2,1.7,1.1,2.4,1.9c0.6,1.1,0.6,1.5,0,1.3c-0.6-0.2-1.7-1.3-2.4-2.2
		C112.5,84.2,112.5,83.8,113.3,84 M113.3,93.3c0.6,0.2,1.7,1.1,2.4,1.9c0.6,1.1,0.6,1.5,0,1.3c-0.6-0.2-1.7-1.3-2.4-2.2
		C112.5,93.5,112.5,92.9,113.3,93.3 M113.3,102.4c0.6,0.4,1.7,1.3,2.4,2.2c0.6,1.1,0.6,1.5,0,1.3c-0.6-0.2-1.7-1.3-2.4-2.2
		C112.5,102.8,112.5,102.2,113.3,102.4 M113.3,111.7c0.6,0.4,1.7,1.3,2.4,2.2c0.6,1.1,0.6,1.5,0,1.3c-0.6-0.2-1.7-1.3-2.4-2.2
		C112.5,112.1,112.5,111.5,113.3,111.7 M113.3,121c0.6,0.2,1.7,1.3,2.4,2.2c0.6,1.1,0.6,1.5,0,1.3c-0.6-0.2-1.7-1.3-2.4-2.2
		C112.5,121.4,112.5,120.8,113.3,121 M121.8,2.5c1.1,0.2,2.6,1.5,3.7,2.6c0.9,1.1,0.9,1.9,0,1.7c-1.1-0.2-2.6-1.3-3.7-2.6
		C120.7,3,120.7,2.3,121.8,2.5 M121.8,11.8c1.1,0.4,2.6,1.5,3.7,2.6c0.9,1.1,0.9,1.9,0,1.7c-1.1-0.2-2.6-1.3-3.7-2.6
		C120.7,12.2,120.7,11.6,121.8,11.8 M121.8,21.1c1.1,0.4,2.6,1.5,3.7,2.6c0.9,1.1,0.9,1.9,0,1.7c-1.1,0-2.6-1.3-3.7-2.6
		C120.7,21.5,120.7,20.9,121.8,21.1 M121.8,30.4c1.1,0.4,2.6,1.5,3.7,2.6c0.9,1.1,0.9,1.9,0,1.7c-1.1,0-2.6-1.3-3.7-2.6
		C120.7,31.1,120.7,30.2,121.8,30.4 M121.8,39.7c1.1,0.4,2.6,1.5,3.7,2.6c0.9,1.3,0.9,1.9,0,1.7c-1.1,0-2.6-1.3-3.7-2.6
		C120.7,40.1,120.7,39.5,121.8,39.7 M121.8,49c1.1,0.4,2.6,1.5,3.7,2.6c0.9,1.3,0.9,1.9,0,1.9c-1.1-0.2-2.6-1.5-3.7-2.8
		C120.7,49.6,120.7,48.8,121.8,49 M121.8,58.3c1.1,0.4,2.6,1.5,3.7,2.8c0.9,1.1,0.9,1.9,0,1.7c-1.1-0.2-2.6-1.5-3.7-2.8
		C120.7,58.9,120.7,58.1,121.8,58.3 M121.8,67.8c1.1,0.2,2.6,1.5,3.7,2.6c0.9,1.1,0.9,1.9,0,1.7c-1.1-0.2-2.6-1.5-3.7-2.6
		C120.7,68.2,120.7,67.4,121.8,67.8 M121.8,77.1c1.1,0.2,2.6,1.5,3.7,2.6c0.9,1.1,0.9,1.9,0,1.7c-1.1-0.2-2.6-1.5-3.7-2.6
		C120.7,77.5,120.7,76.7,121.8,77.1 M121.8,86.4c1.1,0.2,2.6,1.5,3.7,2.6c0.9,1.1,0.9,1.9,0,1.7c-1.1-0.2-2.6-1.3-3.7-2.6
		C120.7,86.8,120.7,86,121.8,86.4 M121.8,95.7c1.1,0.2,2.6,1.5,3.7,2.6c0.9,1.3,0.9,1.9,0,1.7c-1.1-0.2-2.6-1.3-3.7-2.6
		C120.7,96.1,120.7,95.2,121.8,95.7 M121.8,105c1.1,0.2,2.6,1.5,3.7,2.6c0.9,1.3,0.9,2.2,0,1.7c-1.1,0-2.6-1.3-3.7-2.6
		C120.7,105.4,120.7,104.5,121.8,105 M121.8,114.3c1.1,0.2,2.6,1.5,3.7,2.6c0.9,1.3,0.9,2.2,0,1.7c-1.1,0-2.6-1.3-3.7-2.6
		C120.7,114.7,120.7,113.8,121.8,114.3 M121.8,123.6c1.1,0.2,2.6,1.5,3.7,2.8c0.9,1.1,0.9,1.9,0,1.7c-1.1-0.2-2.6-1.5-3.7-2.8
		C120.7,124,120.7,123.1,121.8,123.6 M130.2,3.4c1.5,0,3.7,1.3,5,2.6c1.3,1.5,1.3,2.6,0,2.4c-1.3,0-3.5-1.3-5-2.8
		C128.9,4.2,128.9,3.2,130.2,3.4 M130.2,12.7c1.5,0.2,3.7,1.5,5,2.8c1.3,1.5,1.3,2.6,0,2.4c-1.3-0.2-3.5-1.3-5-2.8
		C128.9,13.5,128.9,12.5,130.2,12.7 M130.2,22c1.5,0.2,3.7,1.5,5,2.8c1.3,1.5,1.3,2.6,0,2.4c-1.3,0-3.5-1.3-5-2.8
		C128.9,22.8,128.9,22,130.2,22 M130.2,31.5c1.5,0.2,3.7,1.3,5,2.8c1.3,1.5,1.3,2.4,0,2.4c-1.3-0.2-3.5-1.5-5-2.8
		C128.9,32.3,128.9,31.3,130.2,31.5 M130.2,40.8c1.5,0.2,3.7,1.5,5,2.8c1.3,1.5,1.3,2.6,0,2.4c-1.3-0.2-3.5-1.3-5-2.8
		C128.9,41.6,128.9,40.6,130.2,40.8 M130.2,50.1c1.5,0.2,3.7,1.5,5,3c1.3,1.5,1.3,2.4,0,2.4c-1.3-0.2-3.5-1.5-5-3
		C128.9,50.9,128.9,49.9,130.2,50.1 M130.2,59.6c1.5,0.2,3.7,1.5,5,2.8c1.3,1.5,1.3,2.6,0,2.4c-1.3-0.2-3.5-1.3-5-3
		C128.9,60.2,128.9,59.4,130.2,59.6 M130.2,68.9c1.5,0.2,3.7,1.5,5,3c1.3,1.5,1.3,2.4,0,2.2c-1.3,0-3.5-1.3-5-2.8
		C128.9,69.7,128.9,68.7,130.2,68.9 M130.2,78.2c1.5,0.4,3.7,1.7,5,3c1.3,1.5,1.3,2.6,0,2.4c-1.3-0.2-3.5-1.5-5-3
		C128.9,79,128.9,78,130.2,78.2 M130.2,87.7c1.5,0.2,3.7,1.5,5,3c1.3,1.5,1.3,2.4,0,2.2c-1.3,0-3.5-1.3-5-2.8
		C128.9,88.3,128.9,87.5,130.2,87.7 M130.2,97c1.5,0.2,3.7,1.5,5,3c1.3,1.5,1.3,2.6,0,2.4c-1.3-0.2-3.5-1.5-5-3
		C128.9,97.8,128.9,96.8,130.2,97 M130.2,106.3c1.5,0.4,3.7,1.7,5,3c1.3,1.5,1.3,2.6,0,2.4c-1.3-0.2-3.5-1.5-5-3
		C128.9,107.1,128.9,106.1,130.2,106.3 M130.2,115.8c1.5,0.2,3.7,1.5,5,3c1.3,1.5,1.3,2.6,0,2.4c-1.3-0.2-3.5-1.5-5-3
		C128.9,116.4,128.9,115.3,130.2,115.8 M130.2,125.1c1.5,0.2,3.7,1.7,5,3c1.3,1.5,1.3,2.6,0,2.4c-1.3-0.2-3.5-1.5-5-3
		C128.9,125.9,128.9,124.9,130.2,125.1 M138.8,3.2c-1.7,0.2-1.7,1.5,0,2.8c1.7,1.5,4.3,2.4,5.8,2.2c1.7-0.2,1.7-1.5,0-2.8
		C143.2,3.8,140.6,3,138.8,3.2 M138.8,12.7c1.7-0.2,4.3,0.6,5.8,2.2c1.7,1.3,1.7,2.6,0,2.8c-1.5,0.2-4.1-0.6-5.8-2.2
		C137.1,14.2,137.1,12.9,138.8,12.7 M138.8,22c1.7,0,4.3,0.9,5.8,2.4c1.7,1.3,1.7,2.6,0,2.8c-1.5,0.2-4.1-0.6-5.8-2.2
		C137.1,23.5,137.1,22.2,138.8,22 M138.8,31.5c1.7-0.2,4.3,0.9,5.8,2.2c1.7,1.5,1.7,2.8,0,3c-1.5,0.2-4.1-0.9-5.8-2.4
		C137.1,33,137.1,31.7,138.8,31.5 M138.8,40.8c1.7,0,4.3,1.1,5.8,2.4c1.7,1.5,1.7,2.8,0,3c-1.5,0.2-4.1-0.9-5.8-2.4
		C137.1,42.3,137.1,41,138.8,40.8 M138.8,50.3c1.7,0,4.3,0.9,5.8,2.4c1.7,1.5,1.7,2.8,0,3c-1.5,0-4.1-1.1-5.8-2.6
		C137.1,51.8,137.1,50.3,138.8,50.3 M138.8,59.8c1.7-0.2,4.3,0.9,5.8,2.4c1.7,1.5,1.7,2.8,0,3c-1.5,0-4.1-1.1-5.8-2.6
		C137.1,61.1,137.1,59.8,138.8,59.8 M138.8,69.1c1.7,0,4.3,1.1,5.8,2.6c1.7,1.5,1.7,2.8,0,3c-1.5,0-4.1-1.1-5.8-2.6
		C137.1,70.6,137.1,69.3,138.8,69.1 M138.8,78.6c1.7,0,4.3,1.1,5.8,2.6c1.7,1.5,1.7,2.8,0,3c-1.5,0-4.1-1.3-5.8-2.8
		C137.1,79.9,137.1,78.6,138.8,78.6 M138.8,87.9c1.7,0,4.3,1.3,5.8,2.8c1.7,1.5,1.7,2.8,0,3c-1.5,0-4.1-1.3-5.8-2.8
		C137.1,89.4,137.1,87.9,138.8,87.9 M138.8,97.4c1.7,0,4.3,1.3,5.8,2.8c1.7,1.3,1.7,2.8,0,2.8c-1.5,0.2-4.1-1.1-5.8-2.8
		C137.1,98.7,137.1,97.4,138.8,97.4 M138.8,106.7c1.7,0.2,4.3,1.5,5.8,3c1.7,1.3,1.7,2.8,0,2.8c-1.5,0-4.1-1.3-5.8-2.8
		C137.1,108,137.1,106.7,138.8,106.7 M138.8,116.2c1.7,0,4.3,1.3,5.8,3c1.7,1.3,1.7,2.8,0,2.8c-1.5,0-4.1-1.3-5.8-3
		C137.1,117.5,137.1,116.2,138.8,116.2 M138.8,125.5c1.7,0.2,4.3,1.5,5.8,3c1.7,1.7,1.7,2.8,0,3c-1.5,0-4.1-1.3-5.8-3
		C137.1,126.8,137.1,125.5,138.8,125.5 M147.3,10.9c-1.9,0.2-1.9,1.7,0,3.5c1.9,1.5,5.2,2.4,7.1,1.5c1.9-0.6,1.9-2.4,0-3.5
		C152.5,11.4,149.2,10.5,147.3,10.9 M147.3,20.5c-1.9,0.2-1.9,1.7,0,3.5c1.9,1.5,5.2,2.4,7.1,1.7c1.9-0.9,1.9-2.4,0-3.7
		C152.5,20.9,149.2,20,147.3,20.5 M147.3,30c-1.9,0.2-1.9,1.7,0,3.5c1.9,1.5,5.2,2.4,7.1,1.7c1.9-0.9,1.9-2.4,0-3.5
		C152.5,30.4,149.2,29.5,147.3,30 M147.3,39.5c-1.9,0.2-1.9,1.7,0,3.5c1.9,1.5,5.2,2.4,7.1,1.7c1.9-0.6,1.9-2.2,0-3.5
		C152.5,39.9,149.2,39,147.3,39.5 M147.3,49c-1.9,0.2-1.9,1.7,0,3.5c1.9,1.5,5.2,2.6,7.1,1.9c1.9-0.9,1.9-2.4,0-3.7
		C152.5,49.4,149.2,48.6,147.3,49 M147.3,58.5c-1.9,0.2-1.9,1.7,0,3.5c1.9,1.5,5.2,2.6,7.1,1.9c1.9-0.6,1.9-2.4,0-3.7
		C152.5,59.1,149.2,58.1,147.3,58.5 M147.3,68c-1.9,0.2-1.9,1.7,0,3.5c1.9,1.5,5.2,2.6,7.1,1.9c1.9-0.6,1.9-2.2,0-3.5
		C152.5,68.7,149.2,67.6,147.3,68 M147.3,77.3c-1.9,0.4-1.9,1.9,0,3.7c1.9,1.5,5.2,2.6,7.1,1.9c1.9-0.4,1.9-2.2,0-3.5
		C152.5,78.2,149.2,77.1,147.3,77.3 M147.3,86.8c-1.9,0.2-1.9,1.9,0,3.7c1.9,1.5,5.2,2.6,7.1,2.2c1.9-0.6,1.9-2.2,0-3.5
		C152.5,87.7,149.2,86.6,147.3,86.8 M147.3,96.5c-1.9,0-1.9,1.7,0,3.5c1.9,1.5,5.2,2.6,7.1,2.2c1.9-0.4,1.9-2.2,0-3.5
		C152.5,97.2,149.2,96.1,147.3,96.5 M147.3,106.1c-1.9,0-1.9,1.7,0,3.5c1.9,1.5,5.2,2.8,7.1,2.2c1.9-0.4,1.9-1.9,0-3.5
		C152.5,106.7,149.2,105.6,147.3,106.1 M147.3,115.3c-1.9,0.2-1.9,1.7,0,3.7c1.9,1.7,5.2,2.8,7.1,2.4c1.9-0.4,1.9-2.2,0-3.7
		C152.5,116.4,149.2,115.1,147.3,115.3 M147.3,124.9c-1.9,0.2-1.9,1.7,0,3.7c1.9,1.7,5.2,2.8,7.1,2.4c1.9-0.4,1.9-1.9,0-3.5
		C152.5,125.9,149.2,124.6,147.3,124.9 M155.9,7.7c-2.4,1.1-2.4,2.8,0,4.1c2.2,1.3,6.1,1.5,8.2,0.4c2.4-1.1,2.4-3,0-4.1
		C162,6.8,158.1,6.6,155.9,7.7 M155.9,17.4c-2.4,0.9-2.4,2.6,0,4.1c2.2,1.3,6.1,1.3,8.2,0.4c2.4-1.3,2.4-3,0-4.3
		C162,16.6,158.1,16.4,155.9,17.4 M155.9,26.9c-2.4,0.9-2.4,2.8,0,4.1c2.2,1.3,6.1,1.5,8.2,0.4c2.4-1.1,2.4-2.8,0-4.1
		C162,26.1,158.1,25.9,155.9,26.9 M155.9,36.5c-2.4,0.9-2.4,2.8,0,4.1c2.2,1.5,6.1,1.7,8.2,0.6c2.4-1.1,2.4-2.8,0-4.1
		C162,35.8,158.1,35.6,155.9,36.5 M155.9,46.2c-2.4,0.9-2.4,2.6,0,4.1c2.2,1.3,6.1,1.5,8.2,0.7c2.4-1.1,2.4-3,0-4.1
		C162,45.5,158.1,45.3,155.9,46.2 M155.9,55.7c-2.4,0.9-2.4,2.6,0,4.1c2.2,1.5,6.1,1.7,8.2,0.9c2.4-1.1,2.4-3,0-4.1
		C162,55,158.1,54.8,155.9,55.7 M155.9,65.4c-2.4,0.6-2.4,2.6,0,4.1c2.2,1.3,6.1,1.7,8.2,0.6c2.4-0.9,2.4-2.8,0-4.1
		C162,64.8,158.1,64.6,155.9,65.4 M155.9,74.9c-2.4,0.6-2.4,2.6,0,4.1c2.2,1.5,6.1,1.7,8.2,0.9c2.4-1.1,2.4-2.8,0-4.1
		C162,74.5,158.1,74.1,155.9,74.9 M155.9,84.4c-2.4,0.9-2.4,2.6,0,4.1c2.2,1.5,6.1,1.9,8.2,1.1c2.4-1.1,2.4-2.8,0-4.1
		C162,84,158.1,83.8,155.9,84.4 M155.9,94.2c-2.4,0.6-2.4,2.4,0,4.1c2.2,1.5,6.1,1.9,8.2,1.1c2.4-1.1,2.4-2.8,0-4.1
		C162,93.7,158.1,93.3,155.9,94.2 M155.9,103.7c-2.4,0.6-2.4,2.6,0,4.1c2.2,1.5,6.1,1.9,8.2,1.1c2.4-0.9,2.4-2.8,0-4.1
		C162,103.5,158.1,103,155.9,103.7 M155.9,113.4c-2.4,0.4-2.4,2.4,0,4.1c2.2,1.5,6.1,1.9,8.2,1.1c2.4-0.9,2.4-2.8,0-4.1
		C162,113,158.1,112.5,155.9,113.4 M155.9,122.9c-2.4,0.7-2.4,2.4,0,4.1c2.2,1.5,6.1,2.2,8.2,1.3c2.4-0.9,2.4-2.8,0-4.1
		C162,122.7,158.1,122.3,155.9,122.9 M174.7,14.8c1.1-0.6,2.4-1.1,3.7-1.3c-0.2-0.9,0-1.5,0.4-2.4c-1.3,0.4-2.4,0.4-3.5,0.6
		C176,12.7,175.8,13.8,174.7,14.8 M174.7,24.8c1.1-0.6,2.4-1.1,3.7-1.5c-0.2-0.6,0-1.5,0.4-2.4c-1.3,0.4-2.4,0.6-3.5,0.6
		C176,22.4,175.8,23.5,174.7,24.8 M174.7,34.5c1.1-0.6,2.4-1.1,3.7-1.3c-0.2-0.9,0-1.5,0.4-2.4c-1.3,0.2-2.4,0.4-3.5,0.7
		C176,32.1,175.8,33.4,174.7,34.5 M174.7,44.2c1.1-0.4,2.4-1.1,3.7-1.3c-0.2-0.6,0-1.5,0.4-2.4c-1.3,0.4-2.4,0.6-3.5,0.6
		C176,42.1,175.8,43.2,174.7,44.2 M174.7,54.2c1.1-0.6,2.4-1.1,3.7-1.3c-0.2-0.9,0-1.5,0.4-2.4c-1.3,0.2-2.4,0.4-3.5,0.4
		C176,51.8,175.8,52.9,174.7,54.2 M174.7,63.9c1.1-0.6,2.4-1.1,3.7-1.3c-0.2-0.6,0-1.5,0.4-2.4c-1.3,0.4-2.4,0.6-3.5,0.6
		C176,61.5,175.8,62.8,174.7,63.9 M174.7,73.8c1.1-0.6,2.4-1.1,3.7-1.3c-0.2-0.9,0-1.5,0.4-2.4c-1.3,0.2-2.4,0.4-3.5,0.4
		C176,71.5,175.8,72.6,174.7,73.8 M174.7,83.6c1.1-0.6,2.4-1.1,3.7-1.3c-0.2-0.6,0-1.5,0.4-2.4c-1.3,0.4-2.4,0.4-3.5,0.6
		C176,81.2,175.8,82.5,174.7,83.6 M174.7,93.3c1.1-0.6,2.4-0.9,3.7-1.1c-0.2-0.9,0-1.5,0.4-2.4c-1.3,0.2-2.4,0.4-3.5,0.4
		C176,91.1,175.8,92.2,174.7,93.3 M174.7,103.2c1.1-0.6,2.4-1.1,3.7-1.3c-0.2-0.6,0-1.5,0.4-2.4c-1.3,0.4-2.4,0.4-3.5,0.4
		C176,100.9,175.8,101.9,174.7,103.2 M174.7,113c1.1-0.6,2.4-0.9,3.7-1.1c-0.2-0.9,0-1.5,0.4-2.4c-1.3,0.2-2.4,0.4-3.5,0.4
		C176,110.8,175.8,111.9,174.7,113 M174.7,122.7c1.1-0.4,2.4-0.9,3.7-1.1c-0.2-0.6,0-1.5,0.4-2.4c-1.3,0.4-2.4,0.4-3.5,0.4
		C176,120.5,175.8,121.6,174.7,122.7"/>
</g>
<g>
	<defs>
		<polygon id="SVGID_7_" points="-235.9,-337.9 628.1,-335.9 648.8,819.8 -258.4,817.7 		"/>
	</defs>
	<clipPath id="SVGID_2_">
		<use xlink:href="#SVGID_7_"  overflow="visible"/>
	</clipPath>
	<path clip-path="url(#SVGID_2_)" fill="#231F20" d="M45.1,74.2c-5.3-1.7-12.1,4.7-15.4,14.5c-3.2,9.7-1.6,19,3.7,20.8
		c5.3,1.7,12.1-4.7,15.4-14.5C52,85.3,50.3,76,45.1,74.2 M42.9,92.8c-0.3,1-0.7,2-1.1,2.9c-0.4,1-0.9,1.9-1.4,2.7
		c-0.6,1-1.2,1.8-1.9,2.5c-0.7,0.7-1.4,1.3-2.1,1.7c-0.9,0.5-1.7,0.6-2.5,0.4c-0.6-0.2-1.1-0.6-1.5-1.3c-0.4-0.6-0.6-1.4-0.8-2.2
		c-0.1-0.7-0.2-1.6-0.2-2.5c0-2.2,0.4-4.8,1.3-7.4c2.2-6.5,6.2-11,9-10.1C44.6,80.3,45.1,86.3,42.9,92.8"/>
	<path clip-path="url(#SVGID_2_)" fill="#231F20" d="M31.6,96.9c1-1.1,2.3-2,3.4-2.9c0.9-0.7,1.8-1.4,2.8-2.1c-0.1,0-0.2,0-0.3-0.1
		c-2,2.5-4,5-6,7.5c-0.1,0.1,0.2,0.1,0.3,0c2-2.5,4-5,6-7.5c0.1-0.1-0.2-0.1-0.3-0.1c-0.9,0.7-1.8,1.3-2.6,2c-1.2,0.9-2.5,1.9-3.6,3
		C31.3,96.9,31.6,97,31.6,96.9"/>
	<path clip-path="url(#SVGID_2_)" fill="#231F20" d="M32.6,101.6c1.8-3.2,3.5-6.5,5.2-9.7c-0.1,0-0.2,0-0.3,0
		c-1.2,3.7-2.5,7.3-3.7,11c0,0.1,0.3,0.1,0.3,0c1.2-3.7,2.5-7.3,3.7-11c0-0.1-0.2-0.1-0.3,0c-1.7,3.2-3.3,6.6-5.2,9.7
		C32.3,101.6,32.6,101.7,32.6,101.6"/>
	<path clip-path="url(#SVGID_2_)" fill="#231F20" d="M36.6,102.5c-0.1-0.6,0.1-1.3,0.1-1.8c0.1-1.2,0.3-2.4,0.5-3.6
		c0.2-1.6,0.5-3.3,0.7-4.9h-0.3c0.2,2.9,0.5,5.7,0.7,8.6c0,0.1,0.3,0.1,0.3,0c-0.2-2.9-0.5-5.7-0.7-8.6c0-0.1-0.3-0.1-0.3,0
		c-0.3,1.6-0.5,3.3-0.7,4.9c-0.2,1.1-0.3,2.3-0.5,3.4c-0.1,0.6-0.3,1.4-0.1,2C36.3,102.6,36.6,102.5,36.6,102.5"/>
	<path clip-path="url(#SVGID_2_)" fill="#231F20" d="M40.5,98.3c-0.9-2.1-1.8-4.3-2.7-6.5c-0.1,0-0.2,0-0.3,0.1
		c1.4,1.3,2.7,2.5,4.1,3.8c0.1,0.1,0.4,0,0.3-0.1c-1.4-1.3-2.7-2.5-4.1-3.8c0,0-0.3-0.1-0.3,0.1c0.9,2.1,1.8,4.3,2.7,6.5
		C40.3,98.4,40.6,98.4,40.5,98.3"/>
	<path clip-path="url(#SVGID_2_)" fill="#231F20" d="M66.8,98.3c-4.3-0.2-12.5-6-13.3-7.2c-0.8-1.2-5.4-11,1.3-12.9
		c6.7-2,23.4,14.4,23.3,17.9C78,99.6,68.5,98.6,66.8,98.3"/>
	<path clip-path="url(#SVGID_2_)" fill="#FFFFFF" d="M88.9,46.9l-0.4-4.1c1.4,0,2.4-3.2,2.4-5.4c0-0.8-0.1-1.4-0.4-1.8
		c0-0.5-0.1-1-0.2-1.5c-0.4-2.2-1.5-5-4.9-7.8c-1.2-2.8-5.9-4-7.3-4.1c-1.5-0.2-3.8,0-3.8,0c-2.4-1.7-17.7,4.9-10.9,14.8
		c0,0,0.3,1.8,1.1,2c-1.1,1.5-0.8,4.4,1.1,8c1.8,3.6,3.3,3.4,3.3,3.4l-0.5,0.3c-3.8-1.2-11,5.2-15.6,6.3c-4.5,1.1-5.1,0.6-10.6-7.5
		c-0.2,0.1-0.6,0.3-1.1,0.7l0.1,0c-0.5-1.5-1.5-3.9-2.2-4.9c-1.1-1.5-2.1-0.9-2.8,0c0,0-1-0.1-1.4,0c-0.3,0.2-0.8,1.5-0.8,1.5
		c-0.8,0-2.2-1.2-2.7,2l1.6-0.9c0.4,1.7,2.5,3.8,4.2,5.1c-1.2,0.8-2.1,1.5-2.1,1.5l1.2,1.2c0,0,0.3-0.2,1.1,0.2
		c0.8,0.3-1.6,1.3-0.9,1.6c0.7,0.2,2.2,0.6,2.5,1.1c0.3,0.5,1.5,3.8,3.5,5.5c0.8,0.7,1.8,1.5,2.9,2.2c-0.2,0.9-10.3,15.2-10.3,15.2
		c-0.7-1.2-2.2-6-6.3-1.2c-4.1,4.7,0.8,10.7,2.6,12.8c1.7,2.1,5.3,4.1,7.8,2.4c1.2-0.5,3.4-1.9,3.9-4.6c1,0.6,2.9,1,2.9,1l7.5-13.7
		c0,0,1.2-1.5,1.6,4.3c0.2,3.1,3.6,10.8,8.9,12.2c1.3,0.3,3,0.7,5,1c6.1,1,14.6,1.4,21.1-2.7C98.4,87.4,93.4,48.9,88.9,46.9
		 M65.4,75.5c-1.1,0.2-5.4-9.3-5.4-9.3c2,0,4.8,0.2,6.3,0.8c1.5,0.7,2.5,7.8,2.5,7.8S67,76.8,65.4,75.5"/>
	<path clip-path="url(#SVGID_2_)" fill="#D8505C" d="M68.3,50.5l0.5-0.3c1.1-0.4,2.3-0.5,3.5-0.4c1.3,0.1,2.5,0.4,3.1,0.7
		c1.2,0.7,8.3,10.3,9.6,10.9c1.3,0.7,2.2,0,2.2,0c0.6-1.6,1.1-8.6,0-13.6l0,0c1.2-0.3,1.9-0.4,1.9-0.4L89,46.8
		c4.6,1.9,9.5,40.5,0.9,45.8c-6.5,4-15,3.7-21.1,2.7c-2-0.3-3.7-0.7-5-1c-5.3-1.3-9.3-9.1-8.9-12.2c0.4-3-0.1-1.8-0.4-1.1
		c-0.3,0.7-1.3,0.2-1-0.7c0.3-0.9-0.2-2.5-0.2-2.5l-7.5,13.7c0,0-1.9-0.3-2.9-1c-0.8-0.4-1.7-0.9-2.6-1.6c-2.3-1.8-4.6-4.5-5.4-7.7
		c0,0,10.1-14.2,10.3-15.2L45,66c1.9,1.1,2.6,1.5,4.3,1.5c1.7,0,8.5-1.5,10.8-1.5c0,0,4.3,9.4,5.4,9.3c1.6,1.3,3.3-0.6,3.3-0.6
		s-1.1-7.4-2.6-8c0.8,0.2,1.7,0.5,2.6,0.9c0.2,1.2,3.5,10.4,9.9,9.3C85,75.7,78,55,68.3,50.5"/>
	<path clip-path="url(#SVGID_2_)" fill="#231F20" d="M60.6,66.3c1.9,0.1,3.4,0.3,4.3,0.7c0.5,0.5,1.4,3.4,1.8,6.5
		c-0.3,0.2-0.7,0.5-1,0.5c-0.1,0-0.3,0-0.6-0.2l-0.3-0.3l-0.1,0C63.9,72.8,62.2,69.9,60.6,66.3 M59,65.3c0,0,4.2,9.3,5.4,9.3
		c0,0,0,0,0,0c0.4,0.3,0.8,0.5,1.2,0.5c1.2,0,2.1-1.1,2.1-1.1s-1-7.1-2.5-7.8C63.8,65.5,61,65.3,59,65.3"/>
	<path clip-path="url(#SVGID_2_)" fill="#231F20" d="M72,21c0.5,0,0.9,0.1,1.1,0.3c0,0,1.1-0.1,2.2-0.1c0.6,0,1.2,0,1.6,0.1
		c1.5,0.2,6.2,1.3,7.3,4.1c3.5,2.8,4.6,5.5,4.9,7.8c0.1,0.5,0.1,1,0.2,1.5c0.3,0.4,0.4,1,0.4,1.8c0,2.2-1.1,5.4-2.4,5.4h0l0.4,4.1
		c4.6,1.9,9.5,40.5,0.9,45.8c-4.1,2.5-9,3.3-13.5,3.3c-2.7,0-5.3-0.3-7.6-0.7c-2-0.3-3.7-0.7-5-1c-5.3-1.3-9.3-9.1-8.9-12.2
		C52.9,75,52.2,77,52.2,77l-7.5,13.7c0,0-1.9-0.3-2.9-1c-0.5,2.7-2.7,4.1-3.8,4.6c-0.7,0.4-1.4,0.6-2.1,0.6c-2.1,0-4.4-1.5-5.7-3
		c-1.7-2.1-6.7-8-2.6-12.8c1.3-1.5,2.4-2,3.2-2c1.8,0,2.7,2.5,3.1,3.3c0,0,10.1-14.2,10.3-15.2c-1-0.7-2.1-1.6-2.9-2.2
		c-2-1.7-3.1-5-3.5-5.5c-0.3-0.5-1.8-0.8-2.5-1.1c-0.7-0.2,1.7-1.3,0.9-1.6c-0.4-0.2-0.7-0.2-0.9-0.2c-0.2,0-0.3,0-0.3,0l-1.2-1.2
		c0,0,0.9-0.7,2.1-1.5c-0.7-0.5-1.5-1.2-2.2-2c-0.8-0.9-1.5-1.8-1.9-2.7c-0.1-0.2-0.1-0.3-0.1-0.5l-1.6,0.9c0.3-1.8,0.9-2.2,1.5-2.2
		c0.4,0,0.9,0.2,1.2,0.2c0,0,0.5-1.3,0.8-1.5c0.1-0.1,0.3-0.1,0.5-0.1c0.4,0,0.8,0.1,0.8,0.1c0.4-0.5,0.9-0.9,1.4-0.9
		c0.4,0,0.8,0.2,1.3,0.8c0,0.1,0.1,0.1,0.1,0.2c0.4,0.5,0.7,1.2,1.1,2c0.4,1,0.8,2,1.1,2.8l-0.1,0c0.5-0.3,0.9-0.6,1.1-0.7
		c2.8,4.2,4.3,6.3,5.8,7.3c0.7,0.5,1.4,0.6,2.2,0.6c0.2,0,0.5,0,0.7,0c0.6-0.1,1.2-0.2,1.9-0.4c4.2-1,10.6-6.4,14.6-6.4
		c0.4,0,0.7,0,1,0.1l0.5-0.3c0,0,0,0,0,0c-0.2,0-1.6-0.2-3.3-3.4c-1.8-3.6-2.1-6.5-1.1-8c-0.8-0.2-1.1-2-1.1-2
		C56.2,27.1,67.8,21,72,21 M72,20c-3.1,0-9.2,2.8-11.5,7.2c-1.1,2-1.8,5.3,0.8,9.2c0.1,0.5,0.3,1.3,0.7,1.8
		c-0.8,1.9-0.3,4.9,1.4,8.2c0.5,1,1,1.7,1.5,2.3c-2.3,0.4-4.9,1.9-7.4,3.4c-2.2,1.2-4.4,2.5-6.1,2.9c-0.6,0.1-1.2,0.3-1.8,0.4
		c-0.2,0-0.4,0-0.6,0c-0.6,0-1.1-0.1-1.6-0.5c-1.3-0.9-3-3.2-5.5-7l-0.5-0.7l-0.8,0.3c0,0-0.1,0-0.2,0.1c-0.2-0.6-0.5-1.2-0.7-1.8
		c-0.5-1-0.9-1.8-1.2-2.2c-0.1-0.1-0.1-0.1-0.2-0.2c-0.6-0.7-1.3-1.1-2-1.1c-0.8,0-1.4,0.5-1.8,0.8c-0.1,0-0.3,0-0.4,0
		c-0.4,0-0.7,0.1-1,0.2c-0.2,0.1-0.5,0.3-1,1.3c-0.2,0-0.4-0.1-0.6-0.1c-1.9,0-2.3,2.3-2.5,3l-0.4,2.1l1.8-1l0.6-0.3
		c0.4,0.8,1,1.6,1.8,2.4c0.4,0.4,0.9,0.9,1.3,1.3c-0.6,0.5-1,0.8-1,0.8l-0.9,0.7l0.8,0.8l1.2,1.2l0.1,0.1c-0.2,0.3-0.4,0.6-0.3,1
		c0.1,0.4,0.4,0.7,0.8,0.9c0.2,0.1,0.4,0.1,0.6,0.2c0.4,0.1,1.2,0.4,1.5,0.5c0.1,0.1,0.2,0.4,0.3,0.6c0.6,1.3,1.7,3.7,3.4,5.1
		c0.7,0.6,1.4,1.2,2.2,1.8c-1.3,2.1-5.6,8.3-8.9,12.9c-0.6-1.1-1.6-2.4-3.3-2.4c-1.3,0-2.5,0.8-3.9,2.4c-4.7,5.4,0.8,11.9,2.6,14
		c1.4,1.7,4,3.4,6.5,3.4c1,0,1.8-0.2,2.6-0.7c1.5-0.6,3.2-2,4-4.1c1,0.4,2,0.5,2.1,0.6l0.7,0.1l0.3-0.6l5.9-10.7
		c0,0.1,0.1,0.3,0.2,0.4c0.3,0.4,0.7,0.6,1.1,0.7c-0.2,3.6,3.9,11.5,9.7,12.9c1.8,0.4,3.4,0.8,5.1,1.1c2.7,0.4,5.3,0.7,7.8,0.7
		c5.6,0,10.3-1.2,14-3.5c6-3.7,5.4-19.5,4.9-26.1C93.7,60.2,92,48,88.9,45.4l-0.3-2.9c0.2-0.1,0.3-0.2,0.5-0.4
		c1.2-1.2,1.9-3.8,1.9-5.7c0-0.9-0.2-1.6-0.5-2.1c0-0.5-0.1-0.9-0.2-1.4c-0.5-3.1-2.2-5.8-5.1-8.2c-0.7-1.4-2-2.5-4-3.4
		c-1.7-0.7-3.3-1.1-4.1-1.2c-0.5-0.1-1.1-0.1-1.8-0.1c-0.8,0-1.6,0-2,0.1C73,20.1,72.6,20,72,20"/>
	<path clip-path="url(#SVGID_2_)" fill="#231F20" d="M43.8,65.3c1.4,0.8,2.6,1.5,4.2,1.5c1,0.1,2.1-0.2,3.2-0.4
		c2.8-0.5,5.6-1.2,8.4-1.1c2,0,3.9,0.2,5.8,0.7c0.6,0.2,1.2,0.4,1.8,0.6c0.3,0.1,0.5,0.1,0.5,0.4c0.1,0.3,0.2,0.5,0.3,0.8
		c0.7,2.1,1.8,4.1,3.3,5.7c1.5,1.7,3.6,2.9,6,2.7c1.5-0.1,2.4-1.1,2.8-2.5c0.5-2,0.1-4.2-0.3-6.1c-0.6-2.6-1.6-5.1-2.8-7.5
		c-2.1-4.1-5.2-8.4-9.5-10.5c-0.1,0-0.4,0-0.2,0.1c4.9,2.3,8.2,7.6,10.3,12.4c1.1,2.4,1.9,4.9,2.3,7.5c0.2,1.7,0.4,3.8-0.6,5.3
		c-1.4,2-4.6,1-6.2-0.1c-2-1.4-3.3-3.6-4.3-5.8c-0.3-0.7-0.6-1.4-0.8-2.1c-0.1-0.4-0.8-0.5-1.2-0.6c-1-0.3-2-0.6-3-0.8
		c-2.8-0.5-5.7-0.4-8.5,0.1c-1.9,0.3-3.7,0.7-5.6,0.9c-0.7,0.1-1.5,0.2-2.2,0.1c-1.2-0.1-2.3-0.9-3.4-1.5
		C44,65.1,43.7,65.2,43.8,65.3"/>
	<path clip-path="url(#SVGID_2_)" fill="#231F20" d="M67.8,49.5c1.2-0.4,2.4-0.5,3.7-0.4c0.9,0.1,2.1,0.2,2.9,0.8
		c0.6,0.4,1.1,1.1,1.6,1.7c1.7,2,3.3,4,4.9,6c0.7,0.8,1.3,1.6,2.1,2.4c0.6,0.6,1.1,1,2,1.1c0.4,0.1,0.9,0,1.3-0.2
		c0.2-0.1,0.3-0.5,0.3-0.7c0.3-1.3,0.4-2.7,0.4-4.1c0.1-3,0-6-0.6-8.9c0-0.1-0.3-0.1-0.3,0c0.8,3.5,0.8,7.3,0.5,10.9
		c-0.1,0.6-0.1,1.2-0.2,1.8c0,0.2-0.1,0.4-0.1,0.6c-0.1,0.3-0.2,0.4-0.6,0.5c-1.3,0.4-2.1-0.7-2.9-1.5c-1.7-1.9-3.3-3.9-4.9-5.9
		c-0.7-0.9-1.5-1.8-2.2-2.6c-0.4-0.4-0.8-1-1.3-1.2c-0.9-0.5-2.1-0.6-3.1-0.7c-1.2-0.1-2.4,0-3.6,0.4C67.5,49.4,67.7,49.5,67.8,49.5
		"/>
	<path clip-path="url(#SVGID_2_)" fill="#231F20" d="M74.5,49.8c4.6-1.1,9.1-2.1,13.7-3.2c0,0,0.1,0,0.1-0.1c0-0.2,0-0.4,0-0.6
		c0-0.1-0.3-0.1-0.3,0c0,0.2,0,0.6,0.1,0.6c-0.1,0-0.2,0-0.2,0.1c-0.4,0.1-0.8,0.2-1.2,0.3c-1.5,0.3-3,0.7-4.6,1
		c-2.6,0.6-5.1,1.1-7.7,1.8C74.1,49.7,74.4,49.8,74.5,49.8"/>
	<path clip-path="url(#SVGID_2_)" fill="#231F20" d="M77.5,45.7c-2.1,1.1-4.2,2.2-6.3,3.2C71,49,71.3,49.1,71.4,49
		c2.1-1,4.2-2.1,6.3-3.2C77.8,45.7,77.6,45.7,77.5,45.7"/>
	<path clip-path="url(#SVGID_2_)" fill="#231F20" d="M44.7,90.6C39.6,89.7,35.3,84.9,34,80c0-0.1-0.3-0.1-0.3,0
		c1.4,5,5.7,9.8,11,10.7C44.8,90.7,44.9,90.6,44.7,90.6"/>
	<path clip-path="url(#SVGID_2_)" fill="#231F20" d="M27.3,79c-0.7,2.2-0.1,5,0.7,7.1c1.6,4.3,5.5,7,9.8,8.3c0.1,0,0.3-0.1,0.1-0.1
		c-4.4-1.3-8.1-4-9.8-8.4c-0.7-2-1.2-4.7-0.6-6.8C27.7,78.9,27.4,78.9,27.3,79"/>
	<path clip-path="url(#SVGID_2_)" fill="#231F20" d="M64.3,74.6c-0.2,1.7,0.4,3.6,1.2,5.1c0.7,1.5,1.9,2.8,3.7,2.7
		c0,0,0.1,0,0.1-0.1c0.1-0.5,0-1.2-0.1-1.7c-0.1-0.9-0.3-1.9-0.5-2.8c-0.2-1.3-0.5-2.6-0.8-3.9c0-0.1-0.3-0.1-0.3,0
		c0.2,1.1,0.5,2.2,0.7,3.3c0.3,1.5,0.7,3.1,0.7,4.7c0,0.4,0,0.4-0.4,0.3c-0.5,0-1-0.3-1.3-0.6c-0.7-0.6-1.2-1.5-1.6-2.3
		c-0.7-1.4-1.2-3.2-1-4.8C64.6,74.5,64.3,74.5,64.3,74.6"/>
	<path clip-path="url(#SVGID_2_)" fill="#231F20" d="M39.3,88.1c0.9-1.4,1.6-2.9,2.4-4.3c1.3-2.3,2.6-4.6,4-6.9
		c1.1-1.8,2.3-3.7,3.9-5.1c0.2-0.2,0.5-0.4,0.7-0.4c0.2-0.1,0.6,1,0.6,1.2c0.2,0.4,0.5,2.1,1.2,1.9c0.4-0.1,0.3-1.5,0.3-1.8
		c0-1.2-0.1-2.5,0-3.7c0-0.4,0-0.9,0.3-1.2c0.4-0.4,0.8,0.4,0.9,0.6c0.2,0.5,0.3,1.1,0.3,1.6c0,0.9-0.1,1.8-0.1,2.7
		c0,0.4-0.2,1.2,0.1,1.6c0.7,0.7,1.4-1.6,1.5-1.9c0.1-0.1,0.5,0.8,0.5,0.9c0.1,0.2,0.1,0.4,0.2,0.6c0.1,0.2,0.1,0.5,0.2,0.7
		c0.4,1.8,0.8,3.7,1.3,5.5c1.6,5.5,4.4,11.7,9.8,14.4c0.1,0,0.4,0,0.2-0.1c-5.1-2.6-7.8-8.4-9.5-13.6c-0.6-1.9-1.1-3.9-1.5-5.9
		c-0.1-0.6-0.3-1.2-0.5-1.8c-0.1-0.3-0.3-0.8-0.7-0.8c-0.4-0.1-0.5,0.5-0.6,0.8c-0.1,0.4-0.3,0.7-0.5,1c-0.3,0.5-0.3-0.2-0.3-0.4
		c0-0.9,0.1-1.8,0.1-2.7c0-0.9,0.2-3.2-1.1-3.4c-0.8-0.1-0.9,0.7-1,1.3c-0.1,1.2,0,2.5,0,3.7c0,0.5,0,0.9,0,1.4c0,0.1,0,0.3-0.1,0.4
		c0.1-0.1-0.3-0.6-0.3-0.7c-0.3-0.6-0.5-1.1-0.7-1.7c-0.1-0.2-0.3-0.7-0.5-0.8c-0.5-0.1-0.9,0.4-1.3,0.6c-0.7,0.6-1.2,1.3-1.7,2
		c-1.9,2.6-3.5,5.4-5.1,8.2c-1.1,2-2.2,4.1-3.4,6C39,88.1,39.3,88.2,39.3,88.1"/>
	<path clip-path="url(#SVGID_2_)" fill="#231F20" d="M62.5,36c-0.3-2,0.1-4.1,0.7-6c1.5-4.7,5.6-7.5,10.2-8.7c0.2,0-0.1-0.1-0.1-0.1
		c-4.6,1.2-8.5,3.9-10.2,8.5c-0.7,2-1.1,4.3-0.8,6.4C62.2,36.1,62.5,36.1,62.5,36"/>
	<path clip-path="url(#SVGID_2_)" fill="#231F20" d="M77,21.2c-4.3,0.5-7.7,3.6-10.3,6.9c-1.2,1.5-2.2,3.2-3.1,4.9
		c-0.6,1.1-1.1,2.2-1.4,3.3c0,0.1,0.3,0.1,0.3,0c0.8-2.7,2.4-5.3,4-7.5c2.5-3.5,6.1-7,10.6-7.5C77.3,21.3,77.1,21.2,77,21.2"/>
	<path clip-path="url(#SVGID_2_)" fill="#231F20" d="M70.7,23.9c-0.7,0.4-1,1.4-1.3,2.1c-0.4,1.2-0.6,2.6-0.5,3.9
		c0.1,1.5,0.7,2.8,1.7,3.9c1.3,1.4,3.3,2,5.1,2.3c0.1,0,0.3-0.1,0.1-0.1c-2.7-1-3.8-4.3-3.5-7c0.4-4.1,4.3-6.2,7.9-6.8
		c0.2,0,0.1-0.2-0.1-0.1c-3.7,0.6-7.3,2.6-8.1,6.5c-0.5,2.8,0.8,6.4,3.6,7.5c0,0,0.1-0.1,0.1-0.1c-2-0.3-3.9-1-5.2-2.5
		c-0.9-1-1.4-2.4-1.5-3.8c-0.1-1.2,0.1-2.5,0.5-3.6c0.2-0.7,0.6-1.6,1.2-2C71.1,24,70.8,23.9,70.7,23.9"/>
	<path clip-path="url(#SVGID_2_)" fill="#231F20" d="M73.4,25.9c2.4,1.5,2,5.3,2.1,7.8c0.1,1.6,0.3,3.2,1.1,4.5
		c0.8,1.3,2,1.9,3.4,2.3c0,0,0.3,0,0.2-0.1c-2.2-2.4-2.1-5.9-2.2-9c-0.1-2.7-0.2-5.8-2.8-7.4c-0.1,0-0.4,0-0.3,0.1
		c2.7,1.6,2.7,5.1,2.7,7.9c0.1,2.9,0.1,6.2,2.2,8.5c0.1,0,0.1-0.1,0.2-0.1c-0.8-0.3-1.5-0.5-2.2-1c-0.7-0.5-1.2-1.3-1.5-2.1
		c-0.6-1.5-0.7-3.2-0.7-4.7c-0.1-2.3,0.1-5.4-2.1-6.8C73.5,25.8,73.3,25.9,73.4,25.9"/>
	<path clip-path="url(#SVGID_2_)" fill="#231F20" d="M89.7,35c0.4,0,0.4-0.3,0-0.3C89.3,34.8,89.3,35,89.7,35"/>
	<path clip-path="url(#SVGID_2_)" fill="#231F20" d="M78.2,22.7c2.1,0.5,4.6,1.7,4.7,4.1c0,0.1,0.3,0.1,0.3,0
		c-0.2-2.4-2.8-3.7-4.9-4.2C78.3,22.5,78,22.6,78.2,22.7"/>
	<path clip-path="url(#SVGID_2_)" fill="#231F20" d="M88.6,39.3c-0.1,1.1-0.7,2.1-1.5,2.8c-1.2,1.2-3.5,1.1-5,0.5
		c-2.8-1.2-2.4-4.9-2.2-7.4c0.2-2.5,0.8-5.1,0.3-7.6c-0.4-2-1.7-3.6-3.6-4.2c-0.1,0-0.4,0-0.2,0.1c2.6,0.9,3.7,3.5,3.8,6.2
		c0,3.1-0.8,6.2-0.6,9.4c0.1,1.1,0.4,2.3,1.2,3c0.8,0.8,2.4,1.3,3.5,1.2c1.2-0.1,2.4-0.2,3.3-1.1c0.7-0.7,1.3-1.7,1.4-2.7
		C89,39.3,88.7,39.2,88.6,39.3"/>
	<path clip-path="url(#SVGID_2_)" fill="#231F20" d="M84.4,25.5c0.4,0,0.4-0.3,0-0.3C84,25.2,84,25.5,84.4,25.5"/>
	<path clip-path="url(#SVGID_2_)" fill="#231F20" d="M79.9,36.7c0.1-2,0.6-4,1.3-5.9c0.4-1,0.8-1.9,1.4-2.9c0.5-0.9,1.1-1.9,2-2.5
		c0.1-0.1-0.2-0.1-0.3-0.1c-0.8,0.6-1.4,1.6-1.9,2.4c-0.6,0.9-1.1,2-1.5,3c-0.7,1.9-1.2,3.9-1.3,6C79.6,36.8,79.9,36.8,79.9,36.7"/>
	<path clip-path="url(#SVGID_2_)" fill="#231F20" d="M84.2,25.4c-0.5,2.1-0.7,4.3-0.5,6.5c0.1,1.7,0.5,3.6,1.6,4.9
		c0.6,0.7,1.6,0.9,2.5,0.8c1.5-0.2,1.9-1.8,1.9-3.1c0-0.1-0.3-0.1-0.3,0c0,1.4-0.5,3-2.1,3c-1.2,0-2-0.9-2.5-1.9
		c-0.7-1.5-0.9-3.3-0.9-4.9c0-1.8,0.2-3.5,0.6-5.2C84.5,25.3,84.2,25.3,84.2,25.4"/>
	<path clip-path="url(#SVGID_2_)" fill="#231F20" d="M84.2,25.4c0.2,2.7,0.8,5.6,2.1,8.1c0.5,0.9,1.1,1.8,2.1,2
		c1,0.2,1.2-1.6,1.3-2.3c0-0.1-0.3-0.1-0.3,0c0,0.5-0.1,0.9-0.2,1.3c0,0.1-0.3,0.8-0.5,0.8c-0.3,0-0.6-0.1-0.8-0.3
		c-0.9-0.6-1.4-1.8-1.8-2.7c-0.9-2.2-1.4-4.6-1.6-6.9C84.5,25.3,84.2,25.3,84.2,25.4"/>
	<path clip-path="url(#SVGID_2_)" fill="#231F20" d="M76.8,38.6c-0.8,1.8-0.4,4.6,1.4,5.6c0.8,0.5,2.1,0.5,3,0.4
		c1-0.1,1.9-0.8,2.6-1.6c0.1-0.1-0.2-0.1-0.3,0c-0.8,0.9-1.7,1.5-2.9,1.5c-1.1,0.1-2.3-0.2-3-1.1c-1-1.3-1.2-3.3-0.6-4.8
		C77.2,38.6,76.9,38.5,76.8,38.6"/>
	<path clip-path="url(#SVGID_2_)" fill="#231F20" d="M86.3,42.7c-0.7,1.4-1.8,2.5-3.2,3.2c-2.1,1-5.1,0.5-6.6-1.4
		c-1.8-2.3-1.2-5.9-0.4-8.5c0-0.1-0.3-0.1-0.3,0c-0.9,2.9-1.5,7.1,1.1,9.3c1.6,1.3,4.1,1.6,6,0.8c1.6-0.6,2.9-1.9,3.6-3.4
		C86.6,42.7,86.3,42.6,86.3,42.7"/>
	<path clip-path="url(#SVGID_2_)" fill="#231F20" d="M71.7,36.1c-1.9,2.3-0.2,2.8,0.2,2.8c0.4,0,1.5-0.4,1.7-0.8
		C73.6,38.1,73.2,37.3,71.7,36.1"/>
	<path clip-path="url(#SVGID_2_)" fill="#231F20" d="M77.9,39.7c0,1,0.4,2,1.1,2.7c0.9,0.9,2.3,0.7,3.4,0.4c0.2-0.1-0.1-0.1-0.2-0.1
		c-1.3,0.4-2.6,0.4-3.4-0.8c-0.4-0.6-0.6-1.4-0.6-2.2C78.2,39.6,77.9,39.6,77.9,39.7"/>
	<path clip-path="url(#SVGID_2_)" fill="#231F20" d="M65.6,38.2c0-0.4-0.1-0.7-0.2-0.8c-0.1-0.2-0.7-0.7-1.2-1l0,0
		c-0.3,0.4-1.4,1.9,0.4,2.7C64.8,39.1,65.6,38.2,65.6,38.2L65.6,38.2z"/>
	<path clip-path="url(#SVGID_2_)" fill="#231F20" d="M70.7,24c-2.3,1.9-4.2,4.2-5.8,6.8c-1.1,1.7-2.2,3.6-2.8,5.6
		c0,0.1,0.2,0.1,0.3,0c0.4-0.2,1-0.4,1.4-0.2c0.4,0.2,0.9,0.6,1.2,0.9c0.3,0.3,0.2,0.8,0.3,1.1c0.1,0.6,0.1,1.2-0.1,1.7
		c-0.1,0.3-0.3,0.5-0.5,0.8c-0.4,0.5-0.8,0.5-0.4,1.1c0.4,0.7,1.5,1.1,2.3,1c0.2,0,0.1-0.1-0.1-0.1c-0.5,0.1-1-0.1-1.4-0.4
		c-0.2-0.2-0.9-0.7-0.5-1.1c0.3-0.2,0.5-0.5,0.7-0.8c0.5-0.8,0.4-1.8,0.3-2.8c-0.1-0.7-0.8-1.1-1.4-1.4c-0.7-0.4-1.3-0.2-2,0.2
		c0.1,0,0.2,0,0.3,0c0.5-1.9,1.6-3.7,2.6-5.4c1.6-2.6,3.5-5,5.9-6.9C71.1,24,70.8,23.9,70.7,24"/>
	<path clip-path="url(#SVGID_2_)" fill="#231F20" d="M66.4,45.1c0.4,0.2,0.7,0.2,1.1,0.1c1-0.2,1.9,0.1,2.8,0.4
		c0.7,0.2-0.4,0.3-0.7,0.2c-0.3-0.1-0.6-0.4-0.9-0.5c-0.7-0.1-1.5,0.2-2-0.3C66.6,45,66.3,45.1,66.4,45.1c0.3,0.3,0.8,0.3,1.2,0.4
		c0.4,0.1,0.9-0.1,1.2,0.1c0.6,0.3,1.6,0.9,2.1,0.1c0,0,0-0.1,0-0.1c-0.6-0.2-1.3-0.4-1.9-0.6c-0.3-0.1-0.6-0.1-0.8-0.1
		c-0.4,0-1.1,0.3-1.5,0C66.6,45,66.3,45.1,66.4,45.1"/>
	<path clip-path="url(#SVGID_2_)" fill="#231F20" d="M71.3,96.3c0,0,20.4-35.2,23.2-36.6c3.1-0.7,8.7-0.4,9.8-0.3
		c1.1,0,1.7,0.2,1.6,1.2c-0.2,1-7.5,37.9-8.7,40.4c-1.1,2.5-2.3,3.2-3,3.5c-0.8,0.2-17.1,0-17.1,0L71.3,96.3z"/>
	<path clip-path="url(#SVGID_2_)" fill="#231F20" d="M68.3,36.8c0.6-0.5,2.3-1.5,3-0.9c0.7,0.6,1.4,1.2,1.9,2c0.2,0.3-0.8,0.6-1,0.6
		c-0.4,0.1-0.7,0.1-1-0.1c-1-0.6,0-1.9,0.4-2.5c0.1-0.1-0.2-0.1-0.3,0c-0.6,0.8-1.4,2.2-0.2,2.7c0.7,0.3,2,0,2.4-0.7
		c0.1-0.1-0.4-0.5-0.4-0.6c-0.5-0.6-1.2-1.4-1.8-1.7c-0.4-0.2-1.3,0.1-1.7,0.3c-0.5,0.2-1.1,0.5-1.6,0.8
		C68,36.8,68.2,36.8,68.3,36.8"/>
	<path clip-path="url(#SVGID_2_)" fill="#231F20" d="M63.9,36.2c-0.5,0.7-0.9,1.6-0.2,2.3c0.8,0.8,1.3,0.1,1.9-0.5
		c0.1-0.1-0.2-0.1-0.3,0c-0.2,0.2-0.4,0.4-0.6,0.6c-0.2,0.2-0.3,0.2-0.6,0.1c-0.2-0.1-0.4-0.3-0.5-0.6c-0.3-0.6,0.2-1.4,0.5-1.8
		C64.2,36.1,64,36.1,63.9,36.2"/>
	<circle clip-path="url(#SVGID_2_)" fill="#FFFFFF" cx="66.5" cy="107.6" r="10.9"/>
	<path clip-path="url(#SVGID_2_)" fill="#231F20" d="M67.2,91.9c-8.5,0-15.4,6.6-15.4,14.8c0,8.2,6.9,14.8,15.4,14.8
		c8.5,0,15.4-6.6,15.4-14.8C82.7,98.5,75.8,91.9,67.2,91.9 M63.7,112.8c-3.4,0-6.2-3-6.2-6.7c0-3.7,2.8-6.7,6.2-6.7
		c3.4,0,6.2,3,6.2,6.7C69.8,109.8,67.1,112.8,63.7,112.8"/>
	<path clip-path="url(#SVGID_2_)" fill="#231F20" d="M89.8,65.7c-1.5-0.2-3.7,0.1-4.6,1.5c-0.4,0.5,0,1.5,0.1,2.1
		c0.2,0.7,0.4,1.4,0.9,1.9c0.1,0.1,0.3,0,0.3,0c-0.7-0.9-1.1-2.3-1.1-3.4c0-0.7,0.5-1.1,1.1-1.4c1-0.5,2.1-0.7,3.2-0.6
		C89.8,65.8,90,65.7,89.8,65.7"/>
	<path clip-path="url(#SVGID_2_)" fill="#231F20" d="M30.5,51.5c-0.7,0.3-1.6-0.1-2-1c-0.4-0.9-0.2-1.8,0.5-2.2l2.6-1.5
		c0,0.1,0.1,0.3,0.1,0.5c0.3,0.9,1,1.8,1.9,2.7L30.5,51.5z"/>
	<path clip-path="url(#SVGID_2_)" fill="#231F20" d="M38.5,43.8c1.9-0.7,4.1-1.4,5.7-0.9c2.1,0.6,4.2,7.8,5.4,12.6l0.2,1
		c-1.1,0.1-2,0-2.9-0.6l-0.1-0.5c-1-4.2-2.6-10-4-10.1c-0.8-0.1-2.1,0.4-3.4,0.9l-0.5,0.2c-0.4-0.8-0.8-1.6-1.1-2
		c0-0.1-0.1-0.1-0.1-0.2L38.5,43.8z"/>
	<path clip-path="url(#SVGID_2_)" fill="#231F20" d="M40,49c-1.5,1-3,2.1-4.5,3.1c-0.1,0.1,0.2,0.1,0.3,0.1c1.5-1,3-2.1,4.5-3.1
		C40.3,49,40,48.9,40,49"/>
	<path clip-path="url(#SVGID_2_)" fill="#231F20" d="M84.2,25.4c-2.7,4-4.2,10.3-0.1,14c1,0.9,2.4,1.5,3.7,0.9c1.8-0.7,2-3.2,2-4.8
		c0-0.2,0-0.4,0-0.5c0-0.1-0.3-0.1-0.3,0c0.1,1.7,0,4.1-1.7,5.1c-1.4,0.9-3-0.2-4-1.2c-3.5-3.8-2-9.6,0.6-13.4
		C84.5,25.3,84.3,25.3,84.2,25.4"/>
	<path clip-path="url(#SVGID_2_)" fill="#231F20" d="M98.4,87.4C91,87.4,85,93.2,85,100.3s6,12.9,13.4,12.9
		c7.4,0,13.4-5.8,13.4-12.9S105.9,87.4,98.4,87.4 M95.3,105.6c-3,0-5.4-2.6-5.4-5.8c0-3.2,2.4-5.8,5.4-5.8c3,0,5.4,2.6,5.4,5.8
		C100.7,103,98.3,105.6,95.3,105.6"/>
	<path clip-path="url(#SVGID_2_)" fill="#231F20" d="M144.7,23.8c0.8,0,1.4,0.6,1.4,1.4c0,0.8-0.6,1.4-1.4,1.4h-0.5v2.9l0.3,0.3
		c1.6-1.3,3.8-2.2,6-2.2c5.3,0,9.6,4.3,9.6,9.6c0,5.3-4.3,9.6-9.6,9.6c-2.2,0-4.1-0.7-5.7-1.9l-0.6,0.6c0,0,0,1.9,0,5h0.5
		c0.8,0,1.4,0.6,1.4,1.4c0,0.8-0.6,1.4-1.4,1.4h-0.6c0,2.4-0.1,5.2-0.1,8.3h0.6c0.8,0,1.4,0.2,1.4,0.5c0,0.3-0.6,0.5-1.4,0.5H144
		c-0.1,12.2-0.3,28.3-0.5,39.2h11.7v3l-5.6,0.9v3l5.6,1.1v5.2h-13.9v-0.1c-0.2,0-0.3,0-0.5,0c-0.9,0-1.7-0.3-2-1V62.6H138
		c-0.8,0-1.4-0.2-1.4-0.5c0-0.3,0.6-0.5,1.4-0.5h0.8v-8.3H138c-0.8,0-1.4-0.6-1.4-1.4c0-0.8,0.6-1.4,1.4-1.4h0.8v-5l-0.8-0.7
		c-1.6,1.3-3.7,2-5.9,2c-5.3,0-9.6-4.3-9.6-9.6c0-5.3,4.3-9.6,9.6-9.6c2.3,0,4.4,0.8,6,2.1l0.6-0.7v-2.5H138c-0.8,0-1.4-0.6-1.4-1.4
		c0-0.8,0.6-1.4,1.4-1.4H144.7 M141.4,34.5c0.4-1.2,1-2.4,1.8-3.3l-1.6-1.6l-1.7,1.8C140.5,32.3,141,33.4,141.4,34.5 M150.3,44.9
		c4.1,0,7.5-3.3,7.5-7.5c0-4.1-3.4-7.5-7.5-7.5c-1.6,0-3.1,0.5-4.3,1.4l6.1,5.9l-6.1,6.3C147.3,44.4,148.7,44.9,150.3,44.9
		 M132,44.9c1.7,0,3.3-0.6,4.5-1.6l-5.9-5.7l5.9-6.1c-1.3-1-2.8-1.6-4.5-1.6c-4.1,0-7.5,3.3-7.5,7.5C124.6,41.5,127.9,44.9,132,44.9
		 M144.6,42.2l4.8-5l-4.8-4.6c-1.1,1.3-1.8,3-1.8,4.8C142.8,39.2,143.5,40.9,144.6,42.2 M138.2,41.6c0.8-1.2,1.3-2.7,1.3-4.2
		c0-1.6-0.5-3.1-1.4-4.3l-4.2,4.4L138.2,41.6 M141.8,45.1l1.5-1.6c-0.9-1-1.6-2.2-2-3.6c-0.3,1.2-0.9,2.3-1.6,3.2l0.1,0.1
		L141.8,45.1 M144.7,22.8H138c-1.4,0-2.5,1.1-2.5,2.5c0,1.3,1,2.3,2.2,2.4v0.5c-1.7-1-3.6-1.6-5.6-1.6c-5.9,0-10.6,4.8-10.6,10.6
		c0,5.9,4.8,10.6,10.6,10.6c2,0,3.9-0.6,5.6-1.6v3.2c-1.2,0.1-2.2,1.2-2.2,2.4c0,1.3,1,2.3,2.2,2.4v6.2c-1.4,0.1-2.2,0.7-2.2,1.6
		c0,0.9,0.9,1.5,2.2,1.6v50.2v0.2l0.1,0.2c0.4,1,1.5,1.6,3,1.6c0.1,0,0.1,0,0.2,0l0.4,0h13.9h1.1v-1.1v-5.2v-0.9l-0.9-0.2l-4.8-0.9
		v-1.2l4.7-0.7l0.9-0.1v-0.9v-3v-1.1h-1.1h-10.7c0.2-8.5,0.3-21,0.5-37.1c1.3-0.1,2.1-0.7,2.1-1.6c0-0.9-0.8-1.5-2-1.6l0.1-6.2
		c1.1-0.2,2-1.2,2-2.4c0-1.2-0.8-2.2-1.9-2.4l0-3.1c1.6,0.9,3.4,1.4,5.3,1.4c5.9,0,10.6-4.8,10.6-10.6c0-5.9-4.8-10.6-10.6-10.6
		c-1.9,0-3.7,0.5-5.3,1.4v-0.4c1.1-0.3,1.9-1.2,1.9-2.4C147.2,23.9,146.1,22.8,144.7,22.8 M147.8,31.5c0.8-0.3,1.7-0.5,2.5-0.5
		c3.5,0,6.4,2.9,6.4,6.4c0,3.5-2.9,6.4-6.4,6.4c-0.9,0-1.7-0.2-2.5-0.5l5.2-5.4l0.7-0.8l-0.8-0.7L147.8,31.5z M132,43.8
		c-3.5,0-6.4-2.9-6.4-6.4c0-3.5,2.9-6.4,6.4-6.4c1,0,2,0.2,2.9,0.7l-5,5.2l-0.7,0.8l0.8,0.7l5,4.8C134,43.6,133,43.8,132,43.8
		 M141.1,31.5l0.4-0.4l0.2,0.2c-0.1,0.2-0.2,0.4-0.4,0.6C141.3,31.7,141.2,31.6,141.1,31.5 M144.7,40.5c-0.5-1-0.8-2-0.8-3.1
		c0-1.1,0.3-2.2,0.9-3.2l3.1,3L144.7,40.5z M135.4,37.5l2.5-2.6c0.4,0.8,0.5,1.7,0.5,2.6c0,0.9-0.2,1.7-0.5,2.5L135.4,37.5z
		 M141.1,43c0.1-0.1,0.2-0.3,0.3-0.4c0.2,0.3,0.4,0.6,0.6,0.9l-0.2,0.2L141.1,43z"/>
	<path clip-path="url(#SVGID_2_)" fill="#CCC9C7" d="M132.2,27.6c-5.3,0-9.6,4.3-9.6,9.6c0,5.3,4.3,9.6,9.6,9.6
		c5.3,0,9.6-4.3,9.6-9.6C141.8,31.9,137.5,27.6,132.2,27.6 M132,44.9c-4.1,0-7.5-3.4-7.5-7.5c0-4.1,3.4-7.5,7.5-7.5
		c4.1,0,7.5,3.4,7.5,7.5C139.5,41.5,136.2,44.9,132,44.9"/>
	<path clip-path="url(#SVGID_2_)" fill="#CCC9C7" d="M150.5,27.6c-5.3,0-9.6,4.3-9.6,9.6c0,5.3,4.3,9.6,9.6,9.6
		c5.3,0,9.6-4.3,9.6-9.6C160.1,31.9,155.8,27.6,150.5,27.6 M150.3,44.9c-4.1,0-7.5-3.4-7.5-7.5c0-4.1,3.4-7.5,7.5-7.5
		c4.1,0,7.5,3.4,7.5,7.5C157.8,41.5,154.4,44.9,150.3,44.9"/>
	<path clip-path="url(#SVGID_2_)" fill="#CCC9C7" d="M144.2,45.5l-2.6,2.7l-2.8-2.7v68.4c0.6,1.4,3.6,1.2,4.2,0
		C143.6,112.7,144.2,45.5,144.2,45.5"/>
	<path clip-path="url(#SVGID_2_)" fill="#CCC9C7" d="M141.2,26.6l-10.6,11l8.2,7.9l2.8,2.7l2.6-2.7l8-8.3L141.2,26.6z M143.6,43.1
		l-1.9,1.9l-2-1.9l-5.9-5.7l7.6-7.9l7.9,7.6L143.6,43.1z"/>
	<polygon clip-path="url(#SVGID_2_)" fill="#CCC9C7" points="155.2,114.9 141.4,114.9 141.4,101.8 155.2,101.8 155.2,104.8 
		149.6,105.6 149.6,108.6 155.2,109.7 	"/>
	<path clip-path="url(#SVGID_2_)" fill="#231F20" d="M155.2,114.9c0,0,0-1.5-0.1-5.2c0,0,0.1,0.1,0.1,0.1c-1-0.2-3.1-0.5-5.6-0.9
		l-0.2,0l0-0.2c0-0.5,0-1.7-0.1-3l0-0.3l0.3,0c1-0.2,3.2-0.6,5.6-1c-0.1,0.1-0.2,0.2-0.4,0.4c0-0.6,0-1.8,0-3
		c0.1,0.1,0.3,0.3,0.5,0.5c-2.1,0-5.6,0-9.1,0.1c-1.7,0-3.3,0-4.7,0c0.2-0.2,0.4-0.4,0.5-0.5c0,5.2-0.1,9.7-0.2,13.1
		c-0.2-0.2-0.2-0.2-0.3-0.3C150.1,114.7,155.2,114.9,155.2,114.9s-5.1,0.2-13.9,0.3l-0.3,0l0-0.4c-0.1-3.4-0.1-7.9-0.2-13.1l0-0.5
		h0.5c1.4,0,3.1,0,4.7,0c3.6,0,7,0,9.1,0.1l0.5,0l0,0.5c0,1.2,0,2.4,0,3l0,0.4l-0.4,0c-2.4,0.3-4.6,0.6-5.6,0.8
		c0.1-0.1,0.2-0.3,0.3-0.3c0,1.3-0.1,2.5-0.1,3c-0.1-0.1-0.2-0.2-0.2-0.3c2.5,0.5,4.6,1,5.6,1.2l0.1,0l0,0.1
		C155.3,113.4,155.2,114.9,155.2,114.9"/>
	<polygon clip-path="url(#SVGID_2_)" fill="#CCC9C7" points="144.2,30 141.6,28.5 138.8,30 138.8,25.2 144.2,25.2 	"/>
	<path clip-path="url(#SVGID_2_)" fill="#CCC9C7" d="M146.1,51.9c0,0.8-0.6,1.4-1.4,1.4H138c-0.8,0-1.4-0.6-1.4-1.4
		c0-0.8,0.6-1.4,1.4-1.4h6.7C145.5,50.5,146.1,51.1,146.1,51.9"/>
	<path clip-path="url(#SVGID_2_)" fill="#231F20" d="M146.1,51.9c0,0,0-0.3-0.3-0.8c-0.2-0.2-0.5-0.4-0.8-0.5c-0.4-0.1-0.8,0-1.3,0
		c-1,0-2.2,0.1-3.5,0.1c-0.7,0-1.4,0-2.1,0c-0.6,0-1.1,0.5-1.1,1.1c0,0.5,0.5,1.1,1.1,1.1c0.7,0,1.4,0,2.1,0c1.3,0,2.5,0.1,3.5,0.1
		c0.5,0,1,0.1,1.3,0c0.4-0.1,0.6-0.3,0.8-0.5C146.1,52.3,146.1,51.9,146.1,51.9c0,0,0.1,0.3-0.2,0.8c-0.1,0.2-0.4,0.5-0.9,0.6
		c-0.4,0.1-0.9,0.1-1.4,0.1c-1,0-2.2,0.1-3.5,0.1c-0.7,0-1.4,0-2.1,0c-0.9,0-1.8-0.7-1.8-1.7c0-0.9,0.9-1.7,1.8-1.7
		c0.7,0,1.4,0,2.1,0c1.3,0,2.5,0.1,3.5,0.1c0.5,0,1,0,1.4,0.1c0.4,0.1,0.7,0.4,0.9,0.6C146.2,51.6,146.1,51.9,146.1,51.9"/>
	<path clip-path="url(#SVGID_2_)" fill="#CCC9C7" d="M146.1,62.1c0,0.3-0.6,0.5-1.4,0.5H138c-0.8,0-1.4-0.2-1.4-0.5
		c0-0.3,0.6-0.5,1.4-0.5h6.7C145.5,61.6,146.1,61.8,146.1,62.1"/>
	<path clip-path="url(#SVGID_2_)" fill="#CCC9C7" d="M146.1,25.2c0,0.8-0.6,1.4-1.4,1.4H138c-0.8,0-1.4-0.6-1.4-1.4
		c0-0.8,0.6-1.4,1.4-1.4h6.7C145.5,23.8,146.1,24.5,146.1,25.2"/>
	<path clip-path="url(#SVGID_2_)" fill="#231F20" d="M146.1,25.2c0,0,0-0.3-0.3-0.8c-0.2-0.2-0.5-0.4-0.8-0.5c-0.4-0.1-0.8,0-1.3,0
		c-1,0-2.2,0.1-3.5,0.1c-0.7,0-1.4,0-2.1,0c-0.6,0-1.1,0.5-1.1,1.1c0,0.5,0.5,1.1,1.1,1.1c0.7,0,1.4,0,2.1,0c1.3,0,2.5,0.1,3.5,0.1
		c0.5,0,1,0.1,1.3,0c0.4-0.1,0.6-0.3,0.8-0.5C146.1,25.6,146.1,25.2,146.1,25.2c0,0,0.1,0.3-0.2,0.8c-0.1,0.2-0.4,0.5-0.9,0.6
		c-0.4,0.1-0.9,0.1-1.4,0.1c-1,0-2.2,0.1-3.5,0.1c-0.7,0-1.4,0-2.1,0c-0.9,0-1.8-0.7-1.8-1.7c0-0.9,0.9-1.7,1.8-1.7
		c0.7,0,1.4,0,2.1,0c1.3,0,2.5,0.1,3.5,0.1c0.5,0,1,0,1.4,0.1c0.4,0.1,0.7,0.4,0.9,0.6C146.2,24.9,146.1,25.2,146.1,25.2"/>
</g>
</svg>
