<svg xmlns="http://www.w3.org/2000/svg" xmlns:xlink="http://www.w3.org/1999/xlink" viewBox="0 0 177.2 130" enable-background="new 0 0 177.2 130"><rect x="142.7" y="20.1" fill="#D8505C" width="34.9" height="50.1"/><rect x="144.3" y=".1" fill="#D8505C" width="33.3" height="20"/><polygon fill="#AEB0B3" points="145.2,0.1 145.2,20.3 177.6,20.3 177.6,20 145.3,20 145.3,0.1"/><rect x="134.6" y="70.4" fill="#D8505C" width="43" height="50.2"/><polygon fill="#AEB0B3" points="136.2,70.3 136.2,120.7 177.6,120.7 177.6,120.4 136.3,120.4 136.3,70.6 177.6,70.6 177.6,70.3"/><defs><rect id="a" x="2" y=".1" width="175.6" height="129.8"/></defs><clipPath id="b"><use xlink:href="#a" overflow="visible"/></clipPath><path clip-path="url(#b)" fill="#fff" d="M198.1 48.5c-2-2.6-5.5-5.5-5.7-9-.2-3.4-1-11.4-1-11.4h-5.4s-.9 7.9-1 11.4c-.1 1.4-.7 2.7-1.5 4h-.1v.1c-.6.9-1.3 1.7-2 2.5 0-.3-.1-.5-.1-.6-.5-.7-1.4-1.7-2.9-2.3-1.5-.6-.7-10.2-.7-10.2h1.2l-.9-5.2h-5.1l-.9 5.2h1.2s.9 9.6-.7 10.2c-1.5.6-2.4 1.6-2.9 2.3v-5c-.1-.6-1.3-.6-1.5-.6-.2 0-1.5.1-1.5.6v7.7c-.2 0-.5 0-.7.1 0-3-.1-5-.2-5-.5 0-3.1-1-3.1-1.8v-7.7l.7-1v-5h-6.3v5l.7 1v7.7c0 .8-2.6 1.8-3.1 1.8s0 28.1 0 28.1h23.800000000000004v.1h1v.1h18.8c1.1-4.4 1.9-20.5-.1-23.1"/><polygon clip-path="url(#b)" fill="#CBCDCF" points="168,40 168,40 168.1,40"/><path clip-path="url(#b)" fill="#fff" d="M186.6 98.6v-7.7c-.1-.6-1.3-.6-1.5-.6-.2 0-1.5.1-1.5.6v7.7c-.2 0-.5 0-.7.1 0-3-.1-5-.2-5-.5 0-3.1-1-3.1-1.8v-7.7l.7-1v-5h-6.3v5l.7 1v7.7c0 .8-2.6 1.8-3.1 1.8-.1 0-.2 2.2-.2 5.3-.4-.3-.8-.4-1.2-.4v-7.7c-.1-.6-1.3-.6-1.5-.6-.2 0-1.5.1-1.5.6v7.7c-.6-.1-1.2.3-1.7.9-.5-2.7-1.3-4.4-2.7-4.2v-6.5c.8-1.7.3-3.4-2.2-3.4s-3.1 1.7-2.2 3.4v6.5c-5.5-.7-2.4 26.5-2.4 26.5h33.8v-20.4c-.5-.7-1.9-3-3.2-2.8"/><path clip-path="url(#b)" fill="#CBCDCF" d="M168.5 90.3z"/><polygon clip-path="url(#b)" fill="#CBCDCF" points="160.3,85.3 160.3,85.3 160.3,85.3"/><path clip-path="url(#b)" fill="#fff" d="M161.7 21.4h7.8v-.1h15.8s.4-31.2 0-31.2-2.4-1.1-2.4-2v-8.5l.5-1.1-6.5-5.5h-5l6.5 5.5.5 1.1v8.5c0 .9-2 2-2.4 2-.2 0-.2 4.7-.2 10.4-1.1-.2-2-.5-2-.7v-2.1l1.1-.7v-3.6h-7c-.4-.4-.8-.6-1.3-.6v-10c.8-1.7.3-3.4-2.2-3.4s-3.1 1.7-2.2 3.4v10c-1.6-.2-2.5 2.2-2.9 5.6-.3-.1-.5-.2-.8-.2v-7.7c-.1-.6-1.3-.6-1.5-.6-.2 0-1.5.1-1.5.6v7.7c-1.3-.2-2.7 2.1-2.7 2.7v20.4h8.4z"/><path clip-path="url(#b)" fill="#CCC9C7" d="M197 47.3c-1.4-1.8-3.1-3.4-4.4-5.4-.7-1-1.1-2.1-1.3-3.3l-.2-2.7c-.2-3-.5-6-.9-8.9 0-.1-.1-.1-.2-.1h-5.3c-.1 0-.2 0-.2.1l-.6 5.8-.4 4.3c0 .7-.1 1.4-.2 2.1-.1.6-.4 1.2-.6 1.7-.1.2-.6 1.3-.7 1.3 0 0-.2 0-.2.1 0 .3-.6.9-.8 1.1-.4.5-.8 1-1.3 1.5h.4c-.1-.8-.6-1.3-1.2-1.8-.4-.4-.9-.7-1.3-.9-.3-.2-.6-.2-.9-.5-.7-1.1-.6-2.9-.6-4.1 0-1.5 0-3.1.1-4.6 0-.4.1-.8.1-1.1v-.1c-.2.1-.2.1-.1.1h1.2s.2 0 .2-.1c-.3-1.7-.6-3.4-.9-5.2 0-.1-.1-.1-.2-.1h-5.1c-.1 0-.2 0-.2.1-.3 1.7-.6 3.4-.9 5.2 0 .1.1.1.2.1h1.1c.2 0-.1-.1-.1 0 0 .3 0 .6.1.9.1 1.4.2 2.9.2 4.3s0 2.9-.4 4.3c-.2.7-.7.7-1.3 1-.9.5-1.5 1.2-2.1 2h.4v-4.7c0-1.2-2.4-1.2-3.1-.6-.4.3-.3.8-.3 1.2v6.7h-.1c-.2 0-.4.1-.6.2.1 0 .2 0 .3.1 0-1.6.1-3.2-.1-4.8 0-.1 0-.3-.2-.3-.6 0-1.2-.3-1.7-.6-.4-.2-1.3-.6-1.3-1.2v-7.4c0-.5.7-.9.7-1.3v-5c0-.1-.1-.1-.2-.1h-6.3s-.2 0-.2.1v4.800000000000001c0 .4.3.6.5.9.4.7.2 1.8.2 2.6v4.4c0 .4.1.9 0 1.2-.3.7-1.5 1.1-2.1 1.3-.5.2-.9 0-1 .6-.2 1.6-.1 3.3-.1 5 0 7.6.1 15.2.2 22.8 0 .1.1.1.2.1h23.6c0 .1.1.1.2.1h.7999999999999999c0 .1.1.1.2.1h18.8c.1 0 .2 0 .2-.1 1-4 1.1-8.3 1.2-12.3 0-2.3 0-4.5-.2-6.8-.1-1.4-.2-3-1-4.1-.1-.1-.4 0-.3 0 .6.8.7 1.9.9 2.8.2 1.5.3 3 .3 4.5.1 3.5-.1 7.1-.4 10.6-.1 1.4-.3 2.8-.6 4.1 0 .2-.1.5-.2.7 0 .2 0 .2.1.2h-18.599999999999998c0-.1-.1-.1-.2-.1h-.7999999999999999c0-.1-.1-.1-.2-.1h-23.8c.2 0 .2.1.2-.1v-3.0999999999999996l-.1-7.7c-.1-5.1-.2-10.3 0-15.5 0-.5 0-1 .1-1.5 0-.1.4-.1.7-.2.7-.2 1.3-.5 1.9-.9.8-.6.6-1.6.6-2.5v-5.8c0-.3-.3-.6-.5-.9-.5-.7-.2-2.1-.2-3v-2.2h5.9v4.5c0 .4-.1.6-.4.9-.4.6-.3 1.2-.3 1.9v4.1c0 .7-.3 2 .2 2.5.6.8 2 1.3 3 1.4.3 0 .2 4.6.2 5 0 .1.2.1.3.1l.6-.1s.2 0 .2-.1v-7.6c0-.7 1.2-.7 1.8-.6 1.1.1.9.7.9 1.5v4c0 .1.3.1.4 0 .6-.8 1.4-1.5 2.3-2 .4-.2.7-.3 1-.7.5-1 .5-2.3.5-3.3.1-2.2 0-4.4-.2-6.5 0-.1-.1-.1-.2-.1h-1.1c-.2 0 .1.1.1 0s0-.3.1-.4l.5-3c.1-.4.1-.8.2-1.3 0-.1 0-.2.1-.3 0-.2-.1 0-.1 0h4.9l-.1-.1v.3l.2 1.3c.2 1 .3 2 .5 3.1l.1.4c0 .2 0 .1.2.1h-1.2c-.1 0-.2 0-.2.1-.2 2.2-.3 4.3-.2 6.5 0 1.1 0 2.3.5 3.3.3.6 1 .7 1.4 1 .8.5 1.9 1.4 2 2.4 0 .1.3.1.4 0l1.3-1.5c.2-.2.8-.8.8-1.1 0-.1-.2.2.1 0 .4-.3.7-1.2 1-1.7.8-1.7.7-3.6.8-5.4.2-2.8.5-5.5.8-8.3 0 .1-.3.1.1.1h5.1000000000000005l-.1.1.9 9.2.2 2.5c.1 1 .6 2 1.1 2.9 1.2 2.1 3.1 3.7 4.5 5.6-.3.2.1.1 0 0"/><path clip-path="url(#b)" fill="#9C9EA1" d="M166.8 38.8c.3 0 .3-.2.1-.2h-.1c-.2.1-.2.2 0 .2l.1-.2h-.1c-.2.1-.2.2 0 .2"/><path clip-path="url(#b)" fill="#CCC9C7" d="M185.5 97.4v-7.699999999999999c0-.7-1.4-.7-1.9-.7s-1.5.1-1.5.8v7.500000000000001c0-.2-.6 0-.7.1.1 0 .2 0 .3.1 0-1.6.1-3.2-.1-4.8 0-.1 0-.3-.2-.3-.6 0-1.2-.3-1.7-.6-.4-.2-1.3-.6-1.3-1.2v-7.4c0-.5.7-.9.7-1.3v-5c0-.1-.1-.1-.2-.1h-6.3s-.2 0-.2.1v5l.7 1.3v7.4c0 .6-.9 1-1.3 1.2-.5.3-1.1.5-1.7.6-.2 0-.2.2-.2.3-.3 1.6-.1 3.4-.1 5h.3c-.3-.2-.6-.3-.9-.4-.1 0-.2.2-.2 0v-7.5c0-.7-1.3-.8-1.8-.8s-1.6.1-1.6.8v7.5c0-.4-1.6.8-1.7.8h.3c-.3-1.6-.8-4.5-3-4.3.1 0 .2.1.2.1v-6.5c0-.2.2-.6.3-.8.1-.4.1-.7 0-1.1-.2-1.3-1.6-1.6-2.7-1.6-1 0-2.4.3-2.7 1.5-.3 1 .3 1.8.3 2.7v5.9l.2-.1c-1.4-.1-2.1 1.2-2.5 2.3-.7 2.2-.8 4.6-.9 6.9-.2 5.1.1 10.3.6 15.4.1.7.1 1.4.2 2 0 .1.1.1.2.1h33.599999999999994s.2 0 .2-.1v-19.700000000000003c0-.6 0-1-.3-1.5-.5-1-1.5-2.1-2.7-2-.2 0-.1.2.1.2 1.2-.1 2.5 1.8 2.5 2.9v20.099999999999998h-33.3c.1 0 .1.2.1-.1 0-.2 0-.4-.1-.6l-.2-2.3c-.5-5.3-.8-10.6-.5-15.9.1-1.8.3-3.6.8-5.2.3-.9.9-2.4 2.1-2.3.1 0 .2 0 .2-.1v-4.9c0-.4.2-1.3 0-1.7-.8-1.8 0-3.3 2.1-3.3 2-.1 2.8 1.4 2.2 3.1-.2.5-.1 1.2-.1 1.7v5.1c0 .1.2.1.2.1 1.8-.1 2.3 2.9 2.5 4.1 0 .1.3.1.3 0 .4-.4.9-.8 1.5-.8 0 0 .2 0 .2-.1v-7.6000000000000005c0-.5 1-.6 1.3-.6.3 0 1.3.1 1.3.6v7.700000000000001c0 .1.1.1.2.1l1 .3c.1 0 .3.1.3 0 0-.5-.2-5.1.3-5.2.9-.1 2.7-.8 3-1.7.1-.3 0-.7 0-1v-6.199999999999999c0-.1.1-.5 0-.6-.2-.3-.7-.8-.7-1.1v-4.9h5.9c.2 0-.1-.1-.1 0v4.9c0 .2-.5.8-.7 1-.1.1 0 .4 0 .6v5.5c0 .7-.2 1.6.3 2.2.4.4 1.1.7 1.6.9.2.1 1.2.3 1.2.4.2.4.1 1.2.1 1.7 0 1.1 0 2.2.1 3.3 0 .1.3.1.3.1l.6-.1s.2 0 .2-.1v-7.8c0-.5 1-.6 1.3-.6.4 0 1.3.1 1.3.6v7.700000000000001c.6.1.9.1.9 0"/><path clip-path="url(#b)" fill="#9C9EA1" d="M167.3 89.2c.3 0 .3-.2.1-.2h-.1c-.3 0-.3.2 0 .2l.1-.2h-.1c-.3 0-.3.2 0 .2"/><path clip-path="url(#b)" fill="#9C9EA1" d="M159 84.1h.1c.2 0 .1-.2 0-.2-.2.1-.2.2-.1.2v-.2h.1c-.1.1-.3.2-.1.2"/><path clip-path="url(#b)" fill="#CCC9C7" d="M160.5 20.2h7.8c.1 0 .2 0 .2-.1h10.8s.2 0 .2-.1v.1h4.5s.2 0 .2-.1c.1-9 .2-18 .2-27 0-1.3.1-2.7-.1-4.1 0-.1 0-.2-.1-.2-.7-.3-1.3-.5-1.8-1-.9-.8-.6-2.2-.6-3.3v-5.800000000000001c0-.4.2-.7.4-1 .4-.7-6.3-1.7-6.3-2.5v-3.4c0-.1-.1-.1-.2-.1h-5s-.2 0-.2.1l6.5 5.5.5 1.2v8.299999999999999c0 .7-.5 1.1-1 1.5-.3.2-.7.5-1.1.6-.1 0-.2 0-.3.1-.1.2-.1.6-.1.8 0 .7 0 1.5-.1 2.2v7.3c.1 0 .2 0 .3-.1-.4-.1-1.9-.2-1.9-.8v-1.6c0-.7.7-.6 1.1-1.1.2-.3 0-1.3 0-1.6v-2c0-.1-.1-.1-.2-.1h-6.5c-.5 0-.5-.2-.9-.4-.1 0-.7-.3-.7 0v-10l.3-1c.1-.4 0-.7-.1-1.1-.2-.6-.7-1-1.3-1.3-1.2-.5-3-.3-3.8.8-.7 1 0 1.9 0 2.9v9.7l.2-.1c-2.5-.2-2.9 4-3.1 5.7.1 0 .2 0 .3-.1-.2-.1-.4-.2-.7-.2h-.1v-7.3999999999999995c0-.7-.9-.8-1.5-.9-.4 0-1.9 0-1.9.7v7.800000000000001c.1 0 .2-.1.2-.1-1.8-.1-3 1.9-3 3.5v19.8c0 .1.1.1.2.1h8.7c.2 0 .2-.2 0-.2h-8.5c-.2 0 .1.1.1-.1v-20.2c0-1.1 1.4-2.8 2.5-2.7.1 0 .2 0 .2-.1v-7.7c0-.5 1-.6 1.3-.6.3 0 1.3.1 1.3.5v7.800000000000001c0 .1.1.1.2.1.2.1.5.1.7.1.1 0 .3.1.3-.1.2-1.3.5-5.7 2.7-5.5.1 0 .2 0 .2-.1v-9.7c0-.3 0-.4-.2-.7-.4-.9-.2-1.9.6-2.5 1.1-.8 3.1-.5 3.8.6.2.3.2.8.2 1.2l-.4 1.2v10.100000000000001c0 .1.1.1.2.1 1 0 .8.6 1.4.6h6.9c.2 0-.1-.1-.1 0v3.4c0 .3-.3.4-.6.6-.1.1-.5.2-.5.4v1.5c0 .4-.1.6.2.8.5.3 1.2.4 1.8.5.1 0 .3 0 .3-.1v-7.6c0-.7 0-1.4.1-2.1 0-.5-.1-.6.3-.7 1-.4 2.2-1.1 2.2-2.3v-7.8l-.5-1.7-6.5-3.7v-1.5c0-.2 0-.1-.1-.1h4.9c-.1 0-.1-.1-.1.1v1.6l6.5 3.6c0 .4-.3.8-.5 1.1-.1.2-.1.4-.1.6v7.8c0 1.1 1.3 1.9 2.2 2.2.3.1.2 0 .2.2v.6c.2 4.6.1 9.3.1 13.9 0 5-.1 10-.1 14.9v1.5c0 .2.2 0 .1 0h-4.6c-.1 0-.2 0-.2.1 0-.1.3-.1.1-.1h-10.9c-.1 0-.2 0-.2.1h-7.5c-.2-.1-.2 0 0 0"/><rect x="149.4" y="20.2" clip-path="url(#b)" fill="#231F20" width="34.6" height=".7"/><rect x="148.6" y="20" clip-path="url(#b)" fill="#231F20" width="35.5" height="1"/><rect x="143.7" y="70" clip-path="url(#b)" fill="#231F20" width="40.4" height=".7"/><rect x="142.7" y="69.9" clip-path="url(#b)" fill="#231F20" width="41.4" height="1"/><rect x="148.3" y="120.5" clip-path="url(#b)" fill="#231F20" width="35.8" height=".7"/><rect x="147.4" y="120.3" clip-path="url(#b)" fill="#231F20" width="36.7" height="1"/><rect x="135" y="-14.2" clip-path="url(#b)" fill="#fff" width="16.3" height="175"/><path clip-path="url(#b)" fill="#fff" d="M151.3 165.6h-16.3v-179.8h16.3v179.8zm.5-181.6h-17.199999999999996v183.40000000000003h17.099999999999998v-183.40000000000003z"/><line clip-path="url(#b)" stroke="#231F20" stroke-width="2" stroke-miterlimit="10" x1="151.3" y1="-17.4" x2="151.3" y2="163.5" fill="none"/><path clip-path="url(#b)" fill="#231F20" d="M18.6 54.7c.6 0 1 .5 1 1 0 .6-.5 1-1 1h-.3v2.1l.2.2c1.2-1 2.7-1.6 4.4-1.6 3.8 0 6.9 3.1 6.9 6.9 0 3.8-3.1 6.9-6.9 6.9-1.6 0-3-.5-4.1-1.4l-.4.4v3.6h.4c.6 0 1 .5 1 1 0 .6-.5 1-1 1h-.4c0 1.7 0 3.7-.1 5.9h.5c.6 0 1 .2 1 .4s-.5.4-1 .4h-.5c-.1 8.8-.2 20.3-.4 28.2h8.4v2.2l-4 .6v2.1l4 .8v3.7h-10.4c-.6 0-1.2-.2-1.4-.7v-36.8h-.6c-.6 0-1-.2-1-.4s.5-.4 1-.4h.6v-5.9h-.6c-.6 0-1-.4-1-1s.5-1 1-1h.6v-3.6l-.5-.5c-1.2.9-2.6 1.5-4.2 1.5-3.8 0-6.9-3.1-6.9-6.9 0-3.8 3.1-6.9 6.9-6.9 1.6 0 3.1.6 4.3 1.5l.5-.5v-1.8h-.6c-.6 0-1-.5-1-1 0-.6.5-1 1-1h4.6m-2.4 7.7c.3-.9.7-1.7 1.3-2.4l-1.2-1.1-1.2 1.3c.5.6.9 1.4 1.1 2.2m6.5 7.5c3 0 5.4-2.4 5.4-5.4 0-3-2.4-5.4-5.4-5.4-1.1 0-2.2.4-3.1 1l4.4 4.3-4.4 4.6c.9.5 1.9.9 3.1.9m-13.2 0c1.2 0 2.4-.4 3.3-1.1l-4.3-4.1 4.2-4.4c-.9-.7-2-1.1-3.2-1.1-3 0-5.4 2.4-5.4 5.4 0 2.8 2.4 5.3 5.4 5.3m9-2l3.4-3.6-3.3-3.3c-.8.9-1.3 2.1-1.3 3.4 0 1.4.5 2.6 1.2 3.5m-4.6-.4c.6-.9 1-1.9 1-3 0-1.2-.4-2.2-1-3.1l-3.1 3.2 3.1 2.9m2.6 2.5l1.1-1.2c-.6-.7-1.1-1.6-1.4-2.6-.2.8-.7 1.6-1.2 2.3l1.5 1.5m2.1-16.1h-4.8c-1 0-1.8.8-1.8 1.8 0 .9.7 1.7 1.6 1.8v.4c-1.2-.7-2.6-1.2-4-1.2-4.2 0-7.6 3.4-7.6 7.6 0 4.2 3.4 7.7 7.6 7.7 1.4 0 2.8-.4 4-1.2v2.3c-.9.1-1.6.8-1.6 1.8 0 .9.7 1.7 1.6 1.8v4.4c-1 0-1.6.5-1.6 1.1 0 .7.6 1.1 1.6 1.1v36.300000000000004l.1.1c.3.7 1.1 1.2 2.1 1.2h11.200000000000001v-5.1l-.6-.1-3.4-.6v-.9l3.4-.5.6-.1v-3.6000000000000005h-8.5c.1-6.1.2-15.1.4-26.7.9-.1 1.5-.5 1.5-1.1 0-.6-.6-1-1.5-1.1v-4.5c.8-.2 1.4-.9 1.4-1.7 0-.8-.6-1.6-1.4-1.7v-2.2c1.2.7 2.5 1 3.8 1 4.2 0 7.6-3.4 7.6-7.6 0-4.2-3.4-7.6-7.6-7.6-1.3 0-2.6.4-3.8 1v-.3c.8-.2 1.4-.9 1.4-1.7.1-1.1-.7-1.9-1.7-1.9m2.2 6.3c.6-.2 1.2-.4 1.8-.4 2.6 0 4.6 2.1 4.6 4.6 0 2.5-2.1 4.6-4.6 4.6-.6 0-1.3-.1-1.8-.4l3.7-3.9.5-.5-.5-.5-3.7-3.5zm-11.3 8.9c-2.6 0-4.6-2.1-4.6-4.6 0-2.6 2.1-4.6 4.6-4.6.7 0 1.4.2 2.1.5l-3.6 3.7-.5.5.5.6 3.6 3.4c-.7.3-1.4.5-2.1.5m6.6-8.9l.3-.3.1.1-.3.4s-.1-.1-.1-.2m2.5 6.5c-.4-.7-.6-1.4-.6-2.2 0-.8.2-1.6.6-2.3l2.3 2.2-2.3 2.3zm-6.7-2.2l1.8-1.9c.3.6.4 1.2.4 1.9 0 .6-.1 1.2-.4 1.8l-1.8-1.8zm4.1 4l.2-.3.4.6-.1.1-.5-.4z"/><path clip-path="url(#b)" fill="#CCC9C7" d="M9.6 57.4c-3.8 0-6.9 3.1-6.9 6.9 0 3.8 3.1 6.9 6.9 6.9 3.8 0 6.9-3.1 6.9-6.9 0-3.8-3.1-6.9-6.9-6.9m-.1 12.5c-3 0-5.4-2.4-5.4-5.4 0-3 2.4-5.4 5.4-5.4 3 0 5.4 2.4 5.4 5.4 0 2.9-2.4 5.4-5.4 5.4"/><path clip-path="url(#b)" fill="#CCC9C7" d="M22.8 57.4c-3.8 0-6.9 3.1-6.9 6.9 0 3.8 3.1 6.9 6.9 6.9 3.8 0 6.9-3.1 6.9-6.9 0-3.8-3.1-6.9-6.9-6.9m-.1 12.5c-3 0-5.4-2.4-5.4-5.4 0-3 2.4-5.4 5.4-5.4 3 0 5.4 2.4 5.4 5.4-.1 2.9-2.5 5.4-5.4 5.4"/><path clip-path="url(#b)" fill="#CCC9C7" d="M18.3 70.3l-1.9 1.9-2-1.9v49.2c.4 1 2.6.9 3 0 .5-.9.9-49.2.9-49.2"/><path clip-path="url(#b)" fill="#CCC9C7" d="M16.1 56.7l-7.6 7.9 5.9 5.7 2 1.9 1.9-1.9 5.7-5.9-7.9-7.7zm1.8 11.9l-1.4 1.4-1.4-1.4-4.2-4.1 5.5-5.7 5.7 5.5-4.2 4.3z"/><polygon clip-path="url(#b)" fill="#CCC9C7" points="26.2,120.2 16.2,120.2 16.2,110.8 26.2,110.8 26.2,112.9 22.2,113.6 22.2,115.7 26.2,116.5"/><path clip-path="url(#b)" fill="#231F20" d="M26.2 120.2s0-1.1-.1-3.7c0 0 0 .1.1.1-.7-.1-2.2-.4-4.1-.7h-.2v-2.6000000000000005h.2c.8-.1 2.3-.4 4-.7l-.3.3v-2.2l.3.3h-10l.4-.4c0 3.7-.1 7-.1 9.4l-.2-.2c6.3.3 10 .4 10 .4s-3.7.1-10 .2h-.2v-.3c-.1-2.4-.1-5.7-.1-9.4v-.4h10.7v2.8h-.3c-1.7.2-3.3.5-4.1.6l.2-.2v2.2c-.1-.1-.1-.2-.2-.2 1.8.4 3.3.7 4 .9h.1v.1c-.1 2.7-.1 3.7-.1 3.7"/><polygon clip-path="url(#b)" fill="#CCC9C7" points="18.3,59.2 16.4,58.1 14.4,59.2 14.4,55.7 18.3,55.7"/><path clip-path="url(#b)" fill="#CCC9C7" d="M19.6 74.9c0 .6-.5 1-1 1h-4.8c-.6 0-1-.4-1-1s.5-1 1-1h4.8c.6 0 1 .5 1 1"/><path clip-path="url(#b)" fill="#231F20" d="M19.6 74.9s0-.2-.2-.6c-.1-.2-.3-.3-.6-.3h-1c-.7 0-1.6 0-2.5.1h-1.5c-.4 0-.8.3-.8.8 0 .4.4.8.8.8h1.5c.9 0 1.8.1 2.5.1.4 0 .7.1 1 0 .3 0 .5-.2.6-.3.3-.3.2-.6.2-.6s.1.2-.2.6c-.1.2-.3.4-.6.4l-1 .1c-.7 0-1.6 0-2.5.1h-1.5c-.6 0-1.3-.5-1.3-1.3 0-.7.6-1.3 1.3-1.2h1.5c.9 0 1.8.1 2.5.1.4 0 .7 0 1 .1.3.1.5.3.6.4.3.5.2.7.2.7"/><path clip-path="url(#b)" fill="#CCC9C7" d="M19.6 82.2c0 .2-.5.4-1 .4h-4.8c-.6 0-1-.2-1-.4s.5-.4 1-.4h4.8c.6.1 1 .2 1 .4"/><path clip-path="url(#b)" fill="#CCC9C7" d="M19.6 55.7c0 .6-.5 1-1 1h-4.8c-.6 0-1-.5-1-1 0-.6.5-1 1-1h4.8c.6 0 1 .4 1 1"/><path clip-path="url(#b)" fill="#231F20" d="M19.6 55.7s0-.2-.2-.6c-.1-.2-.3-.3-.6-.3h-1c-.7 0-1.6 0-2.5.1h-1.5c-.4 0-.8.3-.8.8 0 .4.4.8.8.8h1.5c.9 0 1.8.1 2.5.1.4 0 .7.1 1 0 .3 0 .5-.2.6-.3.3-.3.2-.6.2-.6s.1.2-.2.6c-.1.2-.3.4-.6.4l-1 .1c-.7 0-1.6.1-2.5.1h-1.5c-.6 0-1.3-.5-1.3-1.3 0-.7.6-1.3 1.3-1.2h1.5c.9 0 1.8.1 2.5.1.4 0 .7 0 1 .1.3.1.5.3.6.5.3.4.2.6.2.6"/><path clip-path="url(#b)" fill="#231F20" d="M38.8 36.3c.6 0 1 .5 1 1 0 .6-.5 1-1 1h-.3v2.1l.2.2c1.2-1 2.7-1.6 4.4-1.6 3.8 0 6.9 3.1 6.9 6.9 0 3.8-3.1 6.9-6.9 6.9-1.6 0-3-.5-4.1-1.4l-.4.4v3.6h.4c.6 0 1 .5 1 1 0 .6-.5 1-1 1h-.4c0 1.7 0 3.7-.1 5.9h.5c.6 0 1 .2 1 .4s-.5.4-1 .4h-.5c-.2 8.9-.4 20.5-.5 28.3h8.4v2.2l-4 .6v2.1l4 .8v3.7h-10.4c-.6 0-1.2-.2-1.4-.7v-36.9h-.6c-.6 0-1-.2-1-.4s.5-.4 1-.4h.6v-5.9h-.6c-.6 0-1-.5-1-1 0-.6.5-1 1-1h.6v-3.6l-.5-.5c-1.2.9-2.6 1.5-4.2 1.5-3.8 0-6.9-3.1-6.9-6.9 0-3.8 3.1-6.9 6.9-6.9 1.6 0 3.1.6 4.3 1.5l.5-.5v-1.8h-.7c-.6 0-1-.5-1-1 0-.6.5-1 1-1h4.8m-2.4 7.7c.3-.9.7-1.7 1.3-2.4l-1.2-1.1-1.2 1.3c.5.6.9 1.4 1.1 2.2m6.5 7.5c3 0 5.4-2.4 5.4-5.4 0-3-2.4-5.4-5.4-5.4-1.1 0-2.2.4-3.1 1l4.4 4.3-4.4 4.6c.9.5 1.9.9 3.1.9m-13.2 0c1.2 0 2.4-.4 3.3-1.1l-4.3-4.1 4.2-4.4c-.9-.7-2-1.1-3.3-1.1-3 0-5.4 2.4-5.4 5.4.2 2.9 2.6 5.3 5.5 5.3m9.1-2l3.4-3.6-3.4-3.3c-.8.9-1.3 2.1-1.3 3.5 0 1.3.5 2.5 1.3 3.4m-4.6-.4c.6-.9 1-1.9 1-3 0-1.2-.4-2.2-1-3.1l-3.1 3.2 3.1 2.9m2.5 2.5l1.1-1.2c-.6-.7-1.1-1.6-1.4-2.6-.2.8-.7 1.6-1.2 2.3l1.5 1.5m2.1-16h-4.8c-1 0-1.8.8-1.8 1.8 0 .9.7 1.7 1.6 1.8v.4c-1.2-.7-2.6-1.2-4-1.2-4.2 0-7.6 3.4-7.6 7.6s3.4 7.6 7.6 7.6c1.4 0 2.8-.4 4-1.2v2.3c-.9.1-1.6.8-1.6 1.8 0 .9.7 1.7 1.6 1.8v4.4c-1 0-1.6.5-1.6 1.1 0 .7.6 1.1 1.6 1.1v36.300000000000004l.1.1c.3.7 1.1 1.2 2.1 1.2h11.200000000000001v-5.1l-.6-.1-3.4-.6v-.9l3.4-.5.6-.1v-3.6000000000000005h-8.5c.1-6.1.2-15.1.4-26.7.9-.1 1.5-.5 1.5-1.1 0-.6-.6-1-1.5-1.1v-4.5c.8-.2 1.4-.9 1.4-1.7 0-.8-.6-1.6-1.4-1.7v-2.2c1.2.7 2.5 1 3.8 1 4.2 0 7.6-3.4 7.6-7.6s-3.4-7.6-7.6-7.6c-1.3 0-2.6.4-3.8 1v-.4c.8-.2 1.4-.9 1.4-1.7.1-1-.7-1.7-1.7-1.7m2.3 6.2c.6-.2 1.2-.4 1.8-.4 2.6 0 4.6 2.1 4.6 4.6 0 2.5-2.1 4.6-4.6 4.6-.6 0-1.3-.1-1.8-.4l3.7-3.9.5-.5-.5-.5-3.7-3.5zm-11.4 8.9c-2.6 0-4.6-2.1-4.6-4.6 0-2.6 2.1-4.6 4.6-4.6.7 0 1.4.2 2.1.5l-3.6 3.7-.5.5.5.5 3.6 3.4c-.7.4-1.3.6-2.1.6m6.6-8.9l.3-.3.1.1-.3.4s-.1-.1-.1-.2m2.6 6.5c-.4-.7-.6-1.5-.6-2.2 0-.8.2-1.6.6-2.3l2.3 2.2-2.3 2.3zm-6.8-2.2l1.8-1.9c.3.6.4 1.2.4 1.9 0 .6-.1 1.2-.4 1.8l-1.8-1.8zm4.2 4l.2-.3.4.6-.1.1-.5-.4z"/><path clip-path="url(#b)" fill="#CCC9C7" d="M29.8 39.1c-3.8 0-6.9 3.1-6.9 6.9 0 3.8 3.1 6.9 6.9 6.9 3.8 0 6.9-3.1 6.9-6.9 0-3.9-3.1-6.9-6.9-6.9m-.1 12.4c-3 0-5.4-2.4-5.4-5.4 0-3 2.4-5.4 5.4-5.4 3 0 5.4 2.4 5.4 5.4 0 3-2.4 5.4-5.4 5.4"/><path clip-path="url(#b)" fill="#CCC9C7" d="M43.1 39.1c-3.8 0-6.9 3.1-6.9 6.9 0 3.8 3.1 6.9 6.9 6.9 3.8 0 6.9-3.1 6.9-6.9-.1-3.9-3.1-6.9-6.9-6.9m-.2 12.4c-3 0-5.4-2.4-5.4-5.4 0-3 2.4-5.4 5.4-5.4 3 0 5.4 2.4 5.4 5.4 0 3-2.4 5.4-5.4 5.4"/><path clip-path="url(#b)" fill="#CCC9C7" d="M38.5 51.9l-1.9 1.9-2-1.9v49.2c.4 1 2.6.9 3 0 .5-.9.9-49.2.9-49.2"/><path clip-path="url(#b)" fill="#CCC9C7" d="M36.3 38.3l-7.6 7.9 5.9 5.7 2 1.9 1.9-1.9 5.7-5.9-7.9-7.7zm1.8 11.9l-1.3 1.4-1.4-1.4-4.2-4.1 5.5-5.7 5.7 5.5-4.3 4.3z"/><polygon clip-path="url(#b)" fill="#CCC9C7" points="46.4,101.8 36.4,101.8 36.4,92.4 46.4,92.4 46.4,94.6 42.4,95.2 42.4,97.3 46.4,98.1"/><path clip-path="url(#b)" fill="#231F20" d="M46.4 101.8s0-1.1-.1-3.7c0 0 0 .1.1.1-.7-.1-2.2-.4-4.1-.7h-.1v-2.5000000000000004h.2c.8-.1 2.3-.4 4-.7l-.3.3v-2.2l.3.3h-10l.4-.4c0 3.7-.1 7-.1 9.4l-.2-.2c6.2.2 9.9.3 9.9.3s-3.7.1-10 .2h-.2v-.3c-.1-2.4-.1-5.7-.1-9.4v-.4h10.7v2.8h-.3c-1.7.2-3.3.5-4.1.6l.2-.2v2.1c-.1-.1-.1-.2-.2-.2 1.8.4 3.3.7 4 .9h.1v.1c0 2.8-.1 3.8-.1 3.8"/><polygon clip-path="url(#b)" fill="#CCC9C7" points="38.5,40.8 36.6,39.7 34.6,40.8 34.6,37.3 38.5,37.3"/><path clip-path="url(#b)" fill="#CCC9C7" d="M39.9 56.5c0 .6-.5 1-1 1h-4.9c-.6 0-1-.5-1-1 0-.6.5-1 1-1h4.8c.6 0 1.1.5 1.1 1"/><path clip-path="url(#b)" fill="#231F20" d="M39.9 56.5s0-.2-.2-.6c-.1-.2-.3-.3-.6-.3h-1c-.7 0-1.6 0-2.5.1h-1.5c-.4 0-.8.3-.8.8 0 .4.4.8.8.8h1.5c.9 0 1.8.1 2.5.1.4 0 .7.1 1 0 .3 0 .5-.2.6-.3.2-.3.1-.6.2-.6 0 0 .1.2-.2.6-.1.2-.3.4-.6.4l-1 .1c-.7 0-1.6 0-2.5.1h-1.5c-.6 0-1.3-.5-1.3-1.3 0-.7.6-1.3 1.3-1.2h1.5c.9 0 1.8.1 2.5.1.4 0 .7 0 1 .1.3.1.5.3.6.4.2.5.1.7.2.7"/><path clip-path="url(#b)" fill="#CCC9C7" d="M39.9 63.9c0 .2-.5.4-1 .4h-4.9c-.6 0-1-.2-1-.4s.5-.4 1-.4h4.8c.6 0 1.1.1 1.1.4"/><path clip-path="url(#b)" fill="#CCC9C7" d="M39.9 37.3c0 .6-.5 1-1 1h-4.9c-.6 0-1-.5-1-1 0-.6.5-1 1-1h4.8c.6 0 1.1.5 1.1 1"/><path clip-path="url(#b)" fill="#231F20" d="M39.9 37.3s0-.2-.2-.6c-.1-.2-.3-.3-.6-.3h-1c-.7 0-1.6 0-2.5.1h-1.5c-.4 0-.8.3-.8.8 0 .4.4.8.8.8h1.5c.9 0 1.8.1 2.5.1.4 0 .7.1 1 0 .3 0 .5-.2.6-.3.2-.3.1-.6.2-.6 0 0 .1.2-.2.6-.1.2-.3.4-.6.4l-1 .1c-.7 0-1.6.1-2.5.1h-1.5c-.6 0-1.3-.5-1.3-1.3 0-.7.6-1.3 1.3-1.2h1.5c.9 0 1.8.1 2.5.1.4 0 .7 0 1 .1.3.1.5.3.6.4.2.5.1.7.2.7"/><path clip-path="url(#b)" fill="#fff" d="M58.4 101.1l.1-1.7c-.1-2.1-.3-5.6-.3-5.6-.4.2-2.1-.4-2.3-1.5-.3-1-.5-6.1 0-7.2v-.1c-.3-1.3-.8-9.7 2-12.3 2.9-2.7 4.2-2.9 10.1-2.4h1.4c5.9-.5 7.2-.3 10.1 2.4 2.9 2.6 1.6 11.5 1.2 12.4l.1.5c.3 1 0 6-.3 6.7-.3.7-.9 1.7-2.1 1.5.1.8-.6 5.7-.6 5.7l-.4.5v3.4000000000000004l-10.3 11-8.4-10.9-.3-2.4z"/><path clip-path="url(#b)" fill="#231F20" d="M80.5 85.1c.4-.9 1.6-9.8-1.2-12.4-2.9-2.7-4.2-2.9-10.1-2.4h-1.4c-5.9-.5-7.2-.3-10.1 2.4-2.8 2.5-2.3 11-2 12.3v.1c.2-.5.8-1.2 1.9-1 0 .5.4 3.5.2 4.8h1s-.1-2.3-.1-3.9l1-2.1s-.8-2.4-1.1-3.5c-.3-1.1.3-2.1.3-2.1s1.1-2.2 4.3-2.4l5.2 1.1h.1l5.2-1.1c3.2.3 4.3 2.4 4.3 2.4s.6 1.1.3 2.1c-.3 1.1-1.1 3.5-1.1 3.5v.1l1.1 2.2-.1 3.7h.7s.4-4.2.4-4.6c0-.4 1.1 0 1.2.8"/><path clip-path="url(#b)" d="M72.3 70.1c2.9 0 4.2.7 6.3 2.6 2.8 2.6 1.6 11.5 1.2 12.4l.1.5c.3 1 0 6-.3 6.7-.3.6-.8 1.5-1.8 1.5h-.3c.1.8-.6 5.7-.6 5.7l-.4.5v1.6h.9l2.7 3.2c5.2 1.9 16.3 7.8 16.3 7.8l4.7 14.7h-69.9l7.4-16.4 18.2-8.7 1-1.1.1-1.7c-.1-2.1-.3-5.6-.3-5.6h-.2c-.6 0-1.9-.6-2.2-1.5-.3-1-.5-6.1 0-7.2v-.1c-.3-1.3-.8-9.7 2-12.3 2.1-2 3.4-2.6 6.3-2.6 1 0 2.2.1 3.8.2h1.4c1.4-.1 2.6-.2 3.6-.2m0-.5c-.9 0-2.1.1-3.8.2h-1.3c-1.7-.2-2.9-.2-3.8-.2-3.2 0-4.6.8-6.7 2.8-2.9 2.7-2.5 11.3-2.1 12.8-.5 1.6-.2 6.4 0 7.3.3 1.1 1.5 1.7 2.4 1.9.1 1 .2 3.4.3 5.1l-.1 1.5-.8.9-18.1 8.7h-.1l-.1.1-7.3 16.3-.8.9h72.29999999999998l-.6-.9-4.7-14.7-.1-.1-.1-.1c-.5-.2-11-5.9-16.3-7.8l-2.6-3.1-.2-.2h-.7v-.9l.3-.4.1-.1v-.1c.1-.7.6-3.8.6-5.3 1.2-.1 1.8-1.3 2.1-1.8.4-.9.6-6 .4-7.1l-.1-.3c.4-1.5 1.5-10.1-1.4-12.8-2.1-1.8-3.5-2.6-6.7-2.6"/><polygon clip-path="url(#b)" fill="#231F20" points="31.2,127.4 38.6,110.9 57.9,101.7 56.4,127.4"/><path clip-path="url(#b)" fill="#fff" d="M57.9 101.7l-1.5 25.7h-25.2l7.4-16.4 19.3-9.3zm.1-.3l-.2.1-19.3 9.2-7.4 16.4-.2.2h25.6v-.1l1.5-25.7v-.1z"/><path clip-path="url(#b)" fill="#231F20" d="M78.2 104.3l-3.9 23.1h26.9l-4.7-14.7c0-.1-14.8-7.9-18.3-8.4"/><path clip-path="url(#b)" fill="#fff" d="M78.2 104.3c3.5.5 18.3 8.3 18.3 8.3l4.7 14.7h-26.9l3.9-23m-.1-.2v.1l-3.9 23.1v.2h27.4l-.2-.2-4.7-14.7c-.6-.3-14.8-7.9-18.3-8.4l-.3-.1z"/><polygon clip-path="url(#b)" fill="#fff" points="54.2,127.4 57.1,107.5 57.4,105.7 57.8,102.9 62.1,108.4 66.1,113.5 70.7,108.9 76.5,102.9 76.5,106.2 76.5,107.8 75.2,127.4"/><polygon clip-path="url(#b)" fill="#231F20" points="56.4,127.4 57.9,101 45.3,114.5 49.6,127.4"/><path clip-path="url(#b)" fill="#fff" d="M57.9 101l-1.5 26.4h-6.7l-4.3-12.8 12.5-13.6zm.1-.4l-.3.3-12.6 13.5-.1.1v.1l4.3 12.8v.1h6.8999999999999995v-.1l1.8-26.4v-.4z"/><polygon clip-path="url(#b)" fill="#231F20" points="76.5,101.7 76.5,107.8 74.3,127.4 79.7,127.4 87.7,113.5 77.4,101.7"/><path clip-path="url(#b)" fill="#fff" d="M77.4 101.7l10.3 11.9-8 13.8h-5.4l2.2-19.5v-6.2h.9zm.1-.2h-1.1v6.3l-2.2 19.5v.2h5.7v-.1l8-13.8v-.1l-.1-.1-10.3-11.9z"/><polygon clip-path="url(#b)" fill="#231F20" points="76.5,107.8 76.5,106.2 68.4,114.2 70.5,114.2"/><path clip-path="url(#b)" fill="#231F20" d="M57.1 107.5l.3-1.9c.5.7 6.8 8.9 6.8 8.9h-2.3l-4.8-7z"/><path clip-path="url(#b)" fill="#231F20" d="M64.6 114.2s-5.4-2.6-6.7-2.7c-.6.9-.8 8 1.1 10.3.6-.1 5.6-4 5.6-4 .9.6 2.5.3 3 0 0 0 2.3 3.9 5.5 4.7.8-.8 2.2-9.1 2.1-9.9-.1-.8-5.9 1-7.3 2-.1-.1-.3-1.5-3.3-.4"/><path clip-path="url(#b)" fill="#231F20" d="M67.6 117.8c-.5.3-2.1.6-3 0v-3.6c3-1.1 3.2.3 3.2.3l-.2 3.3z"/><polygon clip-path="url(#b)" fill="#fff" points="66.1,113.5 62.1,108.4 60.6,117"/><path clip-path="url(#b)" fill="#231F20" d="M66.1 113.5s-2 1.4-5.4 3.6l-.3.2.1-.4c.2-1 .4-2.6.7-4.3.3-1.7.6-3.2.8-4.2v-.4l.2.3 3.9 5.2s-1.6-1.9-4.1-5c.1 0 .2 0 .3-.1-.1 1-.4 2.6-.7 4.3-.3 1.7-.6 3.3-.8 4.3-.1-.1-.2-.1-.2-.2 3.3-2 5.5-3.3 5.5-3.3"/><polygon clip-path="url(#b)" fill="#fff" points="70.7,108.9 66.1,113.5 71.2,117"/><path clip-path="url(#b)" fill="#231F20" d="M70.7 108.9s.4 3.3.7 8.1v.4l-.3-.2-1.9-1.3c-1.3-.8-2.4-1.6-3.2-2.2l-.2-.1.1-.1c2.9-2.9 4.8-4.6 4.8-4.6s-1.7 1.9-4.5 4.8v-.3c.8.5 2 1.3 3.2 2.1l1.9 1.3-.3.2c-.3-4.8-.3-8.1-.3-8.1"/><path clip-path="url(#b)" fill="#231F20" d="M57.8 99.4s.1.6.2 1.6c0 .6 0 1.4-.1 2.2-.1 2.1-.4 3.8-.4 3.8s-.1-1.7 0-3.9c0-.9.1-1.7.2-2.2.1-.9.1-1.5.1-1.5"/><path clip-path="url(#b)" fill="#231F20" d="M76.5 107.8s-.2-1.7-.2-3.9.2-3.9.2-3.9.2 1.7.2 3.9-.2 3.9-.2 3.9"/><path clip-path="url(#b)" fill="#231F20" d="M77.8 90s-.1 1.2-.3 3.8c0 1.2-.3 3.3-.6 5.8-.1.1-.2.3-.4.5-1.5 1.8-3.9 4.5-6.5 7.5l-.1.1h-4.6l-.1-.1-2.1-2.4-1-1.2-.5-.6-.5-.5c-1.3-1.3-2.6-2.4-3.5-3.5-.1-2.9-.2-5.3-.3-6.9v-1.8c0-.2 0-.4.1-.5v2.3c.1 1.6.3 3.9.5 6.9v-.1c.9 1 2.2 2.1 3.6 3.4l.5.5c.2.2.3.4.5.5.3.4.7.8 1 1.1l2.1 2.4s-.1 0-.2-.1h4.6l-.2.1c2.6-3 5-5.7 6.6-7.4.2-.2.3-.4.4-.5v.1c.4-2.5.7-4.5.7-5.7.2-2.5.3-3.7.3-3.7"/><path clip-path="url(#b)" fill="#231F20" d="M66.5 94.4s-.1-2.2-.2-5.5c0 0 0 .1.1.1-.4-.3-.9-.7-1.5-1.1-.8-.6-1.6-1.2-2.3-1.7-.4-.3-.7-.5-1-.7l-.5-.3h-.2s-.1.1-.2.1c-.5.4-.8.9-1.1 1.2-.2.3-.4.4-.4.4s.1-.2.3-.5c.2-.3.5-.8 1-1.3.1-.1.1-.1.3-.2h.30000000000000004c.2.1.4.2.5.3.3.2.7.4 1.1.7.7.5 1.5 1.1 2.3 1.7.6.4 1.2.9 1.5 1.2l.1.1v.1c.1 3.2-.1 5.4-.1 5.4"/><path clip-path="url(#b)" fill="#fff" d="M69.8 101.7c1-.9.9-3.2.9-3.9h-5.7c-.1 1 0 2.6.9 3.9h3.9z"/><path clip-path="url(#b)" fill="#231F20" d="M66.5 96s.1 0 .2.1l.2.1c.1 0 .2 0 .3.1.3.1.6 0 1-.1.3-.1.7-.4.9-.8 0-1.5-.1-3.7-.1-6v-.6l.1-.1c2.4-1.4 4.6-2.6 5.7-3.2h.1c.9 1.2 1.3 1.8 1.3 1.8s-.4-.5-1.4-1.7h.1c-1 .7-3.1 2-5.5 3.4 0 0 .1-.1.1-.2v.5c0 2.3 0 4.5-.1 6-.2.5-.7.8-1.1.9-.4.1-.7.1-1 0-.1 0-.3-.1-.3-.1-.1-.1-.2-.1-.2-.1h-.3"/><path clip-path="url(#b)" fill="#231F20" d="M66 95.7l-.3.3c-.1.1-.3.1-.5.1s-.4-.2-.5-.4c-.1-.4 0-.7.1-1 .1-.2.2-.3.2-.3s0 .6.1 1.2c0 .1.1.2.2.2h.6l.1-.1"/><path clip-path="url(#b)" fill="#231F20" d="M65.9 101.7l-3.4-3.9h2.5c-.2 1 0 2.6.9 3.9"/><path clip-path="url(#b)" fill="#231F20" d="M70.8 97.8h2.2l-3.1 3.9c.9-.9.9-3.2.9-3.9"/><path clip-path="url(#b)" fill="#231F20" d="M69.3 95.4l.1.1.3.1c.1.1.3.1.4 0 0 0 .1-.2.1-.4 0-.4-.1-.8-.2-1l-.1-.3c0-.1-.1-.1-.1-.1l.1.1c.1 0 .2.1.3.2.2.2.4.6.5 1.1 0 .1 0 .3-.1.4 0 .1-.2.3-.3.3h-.4c-.1 0-.2-.1-.2-.1l-.3-.3-.1-.1"/><path clip-path="url(#b)" fill="#231F20" d="M62.4 97.8s1.2 1.3 3.5 3.8h-.1c.9 0 2.3 0 4-.1 0 0-.1 0-.1.1.5-.6 1.2-1.5 2-2.5.4-.5.9-1.1 1.1-1.4.1.2.1.2.2.3-6.1 0-10.6-.2-10.6-.2s4.4-.2 10.5-.2h.4l-.3.3c-.3.3-.7.9-1.1 1.4-.8 1-1.5 1.9-2 2.5l-.1.1h-.1c-1.6 0-3.1 0-4-.1h-.1c-2-2.6-3.2-4-3.2-4"/><path clip-path="url(#b)" fill="#231F20" d="M74.1 98.8s0-.2-.1-.4c0-.2-.1-.5-.2-.9-.1-.3-.1-.6-.2-.8-.1-.2-.1-.4-.1-.4l.3.3c.2.2.3.5.4.9.1.4.1.7 0 .9 0 .2-.1.4-.1.4"/><path clip-path="url(#b)" fill="#231F20" d="M61.2 99.7l-.4-.4c-.1-.1-.2-.3-.3-.6l-.1-.7c0-.5.2-1 .4-1.3.1-.2.2-.3.3-.3l.1-.1-.1.1c0 .1-.1.2-.1.4-.1.3-.2.7-.1 1.2v.7c0 .2.1.4.1.5.1.3.2.5.2.5"/><path clip-path="url(#b)" fill="#231F20" d="M74.1 89.3c-.2-.1-2.1 0-2.4 0 0 .7.2 1.6 1.2 1.6s1.2-1 1.2-1.6"/><path clip-path="url(#b)" fill="#231F20" d="M62.2 89.3c.2-.1 2.1 0 2.4 0 0 .7-.2 1.6-1.2 1.6s-1.2-1-1.2-1.6"/><path clip-path="url(#b)" fill="#231F20" d="M74.9 90.6v-.3c0-.1 0-.2-.1-.3-.1-.1-.2-.2-.3-.2-.2-.2-.5-.4-.8-.6h-2.5c-.3.1-.6.4-.8.5v-.1c0 .6-.1.9-.1.9s0-.3-.1-.9c.2-.2.4-.5.8-.7 0 0 .1-.1.2-.1h2.1999999999999997c.1 0 .3 0 .4.1.3.2.6.5.8.8.1.1.2.2.3.4v.3c.1.1 0 .2 0 .2"/><path clip-path="url(#b)" fill="#231F20" d="M73.8 89v.3c0 .2 0 .4-.1.8 0 .1-.1.2-.1.2 0 .1-.1.1-.2.2l-.6.3h-.4c-.1 0-.2 0-.4-.1-.3-.1-.5-.3-.6-.5-.2-.4-.2-.9-.2-1.1v-.2h.2c1.4-.1 2.4 0 2.4.1 0-.1-.9.1-2.4.2l.2-.2c0 .2 0 .6.2.9.2.4.6.5.9.5.2 0 .4-.1.5-.1.1-.1.1-.1.2-.1.1-.1.1-.1.1-.2.2-.3.2-.5.3-.7v-.3"/><path clip-path="url(#b)" fill="#231F20" d="M60.8 90.6s0-.1-.1-.3v-.3c.1-.1.2-.2.3-.4l.8-.8c.1-.1.3-.1.4-.1h2.2c.1 0 .2 0 .2.1.4.2.6.5.8.7-.1.6-.1.9-.1.9s0-.3-.1-.9v.1c-.2-.2-.5-.4-.8-.5h-2.5c-.3.2-.6.4-.8.6-.1.2-.2.3-.2.3 0 .1 0 .2-.1.3v.3"/><path clip-path="url(#b)" fill="#231F20" d="M61.9 89v.3c0 .2.1.4.3.7l.1.2c0 .1.1.1.2.1.1.1.3.1.5.1.3 0 .8-.1.9-.5.2-.3.2-.7.2-.9l.2.2c-1.4-.1-2.4-.3-2.4-.2 0-.1 1-.2 2.4-.2h.2v.2c0 .3 0 .7-.2 1.1-.1.2-.4.5-.6.5-.1.1-.2.1-.4.1h-.4c-.2 0-.4-.1-.6-.3-.1-.1-.2-.1-.2-.2s-.1-.2-.1-.2c-.1-.3-.1-.6-.1-.8v-.2"/><path clip-path="url(#b)" fill="#231F20" d="M78.6 72.7l.1.1.4.4c.3.4.7 1.1.9 2.2.3 1 .4 2.4.4 4 0 .8 0 1.7-.1 2.7 0 .5-.1 1-.2 1.5s-.1 1-.3 1.6l-.1.3-.1-.3c0-.2-.2-.6-.6-.8-.1-.1-.2-.1-.3-.1h-.2c0 .2 0 .5-.1.8-.1 1.1-.2 2.4-.4 3.8v.1h-.8999999999999999v-3.7c-.2-.4-.6-1.3-1.1-2.2v-.2s0-.1.1-.2c.3-.9.6-2 1-3.1s0-2.5-1-3.3c-.5-.5-1.1-.8-1.8-1-.3-.1-.7-.2-1-.2-.4-.1-.7-.1-1.1 0-.7.1-1.5.3-2.2.6-.7.2-1.5.5-2.4.5h-.5c-.8-.1-1.5-.3-2.1-.5-.7-.2-1.3-.4-2-.5h-.5c-.1 0-.3 0-.5.1-.3 0-.7.1-1 .2-.6.2-1.2.5-1.7.9s-.9.9-1.1 1.5c-.2.6-.3 1.2-.1 1.7.3 1.2.7 2.3 1 3.4v.2c-.4.8-.7 1.5-1 2.1v-.1c0 1.6.1 2.8.1 3.9v.2h-1.4v-.2c.1-.9 0-1.8 0-2.6s-.1-1.5-.2-2.2l.1.1c-.5-.1-.9 0-1.1.2-.3.2-.5.5-.6.7l-.1.2-.1-.2c-.2-.5-.2-1-.2-1.5l-.1-1.4c0-.9 0-1.8.1-2.5.1-1.6.3-2.9.6-4s.7-1.9 1-2.3c.2-.2.3-.4.4-.5l.2-.2-.2.2c-.1.1-.2.3-.4.5-.3.5-.7 1.3-1 2.4-.3 1.1-.5 2.4-.6 4v2.5c0 .4 0 .9.1 1.4 0 .5.1 1 .2 1.4h-.2c.1-.3.4-.6.7-.8.3-.2.8-.3 1.3-.2h.1v.1c0 .7.1 1.4.2 2.2.1.8.1 1.6 0 2.6 0 0-.1-.1-.1-.2h1s-.1.1-.1.2c0-1.2-.1-2.4-.1-3.9.3-.6.6-1.3 1-2.1v.1c-.3-1.1-.7-2.2-1.1-3.4-.2-.6-.1-1.4.1-2 .2-.7.7-1.2 1.2-1.6.5-.4 1.2-.8 1.8-1 .3-.1.7-.2 1-.2.2 0 .3 0 .5-.1h.5c1.5.1 2.8.9 4.1 1h.5c.7.1 1.5-.2 2.2-.4.7-.2 1.5-.5 2.3-.6.4-.1.8 0 1.2 0 .4.1.8.1 1.1.3.7.2 1.4.6 1.9 1.1 1.1.9 1.6 2.5 1.1 3.7-.3 1.2-.7 2.2-1 3.1l-.1.2v-.4c.4.9.9 1.9 1 2.2 0 1.6-.1 3.1-.1 3.7l-.1-.1h.7l-.1.1c.1-1.4.3-2.7.4-3.8l.1-.8c0-.1.1-.2.2-.2h.2l.3.1c.4.2.6.6.6.9h-.2c.2-.5.2-1 .3-1.5l.2-1.5c.1-.9.1-1.8.1-2.6 0-1.6-.1-2.9-.4-4-.2-1-.6-1.7-.9-2.2-.1-.2-.3-.4-.4-.4.8-.1.7-.2.7-.2"/><path clip-path="url(#b)" fill="#231F20" d="M77.5 93.8h.4c.2-.1.6-.1.9-.5l.2-.3.2-.3c.1-.2.3-.5.3-.7.1-.5.2-1.2.2-1.9.1-1.4.2-2.6.2-3.5v-1.5s0 .1.1.4c.1.2.1.6.2 1.1.1.9.1 2.2 0 3.5-.1.7-.1 1.3-.3 2l-.4.8c-.1.1-.2.2-.2.3l-.3.3c-.4.3-.8.4-1 .4-.4-.1-.5-.1-.5-.1"/><path clip-path="url(#b)" fill="#231F20" d="M55.2 85.1v.1c0 .1 0 .2-.1.3 0 .2-.1.6-.1 1.1 0 .9 0 2.2.1 3.6 0 .7.1 1.4.2 1.9.1.6.5.9.8 1.2.8.5 1.4.5 1.4.5s-.6.2-1.5-.3c-.2-.1-.4-.3-.6-.5-.2-.2-.4-.5-.4-.8-.1-.6-.2-1.3-.2-2-.1-1.4 0-2.7.1-3.6.1-.5.1-.8.2-1.1 0-.1 0-.2.1-.4"/><path clip-path="url(#b)" fill="#231F20" d="M76.5 102.9s-1.2 1.5-2.8 3.1c-1.6 1.6-3.1 2.8-3.1 2.8s1.2-1.5 2.8-3.1c1.6-1.6 3.1-2.8 3.1-2.8"/><path clip-path="url(#b)" fill="#231F20" d="M62.1 108.4s-1.1-1.1-2.3-2.6c-1.2-1.5-2-2.9-2-2.9s1.1 1.1 2.3 2.6c1.2 1.6 2 2.9 2 2.9"/><rect x="67.6" y="114.5" transform="matrix(.998 .07 -.07 .998 8.298 -4.454)" clip-path="url(#b)" fill="#fff" width=".1" height="3.3"/><rect x="64.5" y="114.2" clip-path="url(#b)" fill="#fff" width=".1" height="3.6"/><path clip-path="url(#b)" fill="#231F20" d="M66.5 88.9s-.5-.2-1.2-.7c-.7-.4-1.7-1-2.7-1.8-.5-.4-1-.7-1.4-1l-.1-.1h.1l-.1.1-.5.4-1 1s.2-.5.7-1.2c.1-.2.2-.4.4-.6l.1-.2.1-.1h.4l.3.1c.6.3 1.1.6 1.6.9 1.1.7 1.9 1.5 2.5 2.1.5.7.8 1.1.8 1.1"/><path clip-path="url(#b)" fill="#231F20" d="M69.3 88.9s1.5-1.3 3.5-2.6c.7-.4 1.4-.8 1.9-1l.3-.1.1.2c.8 1.1 1.1 1.9 1.1 1.9s-.6-.5-1.6-1.5c.1 0 .2 0 .4.1-.4.3-1.1.8-1.8 1.2-2 1.1-3.9 1.8-3.9 1.8"/><path clip-path="url(#b)" fill="#231F20" d="M146.2 16.7c-2.2 0-4 .5-5.2 1.4-1.1-.2-2.1-.4-3.1-.4-11.1 0-16 14-16.4 18-.4 3.7.5 7.6 2.1 9.3.2.2.3.3.5.4-.6 4.4-.8 8.6-.6 12.6v.4l.2.4c.3.5.7.8 1.1 1 0 2.8.4 6.3 1.3 9 .7 2.1 2.9 6.1 4.9 9.7l-32 14.8-1.4.7.3 1.3 7.2 37.1.3 1.3h85.10000000000001l.3-1.3 9.3-41.8.3-1.4-1.3-.6-29-13.5-5.9-6.4c.1-.6.3-1.6.5-2.4 2.1-.4 3.9-1.9 5-4.2 1.1-2.3 3.4-11.8 1.7-15.1-.4-.8-1.1-1.4-2-1.5h-.4c-.5 0-1.1.1-2 .6-.6-5.7-2.3-14.7-2.9-16.3l-.3-1c-.5-1.6-1.1-3.6-3.9-6.2-4.4-4.3-9.9-5.9-13.7-5.9"/><path clip-path="url(#b)" stroke="#fff" stroke-width="2" d="M146.2 16.7c-2.2 0-4 .5-5.2 1.4-1.1-.2-2.1-.4-3.1-.4-11.1 0-16 14-16.4 18-.4 3.7.5 7.6 2.1 9.3.2.2.3.3.5.4-.6 4.4-.8 8.6-.6 12.6v.4l.2.4c.3.5.7.8 1.1 1 0 2.8.4 6.3 1.3 9 .7 2.1 2.9 6.1 4.9 9.7l-32 14.8-1.4.7.3 1.3 7.2 37.1.3 1.3h85.10000000000001l.3-1.3 9.3-41.8.3-1.4-1.3-.6-29-13.5-5.9-6.4c.1-.6.3-1.6.5-2.4 2.1-.4 3.9-1.9 5-4.2 1.1-2.3 3.4-11.8 1.7-15.1-.4-.8-1.1-1.4-2-1.5h-.4c-.5 0-1.1.1-2 .6-.6-5.7-2.3-14.7-2.9-16.3l-.3-1c-.5-1.6-1.1-3.6-3.9-6.2-4.4-4.3-9.9-5.9-13.7-5.9z" fill="none"/><polygon clip-path="url(#b)" fill="#231F20" points="162.2,68.6 168.9,75.8 198.2,89.4 188.6,133.1 107.3,133.1 99.4,94.1 133.1,78.6"/><path clip-path="url(#b)" fill="#fff" d="M162.1 69.2l6.4 6.9.1.1h.1l28.9 13.4-9.4 42.9h-80.4l-7.8-38.1 33.3-15.3 28.8-9.9zm.1-.6l-29.2 10-33.6 15.5 8 39h81.3l9.6-43.7-29.3-13.6-6.8-7.2z"/><polygon clip-path="url(#b)" fill="#fff" points="161.4,78.2 134.7,87.9 130.7,133.1 158.4,133.1"/><polygon clip-path="url(#b)" fill="#fff" points="126.5,96.7 126,97.1 128.3,80.6 128.9,80.7"/><rect x="167.6" y="75.7" transform="matrix(.995 .1 -.1 .995 9.318 -16.288)" clip-path="url(#b)" fill="#fff" width=".6" height="19.1"/><polygon clip-path="url(#b)" fill="#fff" points="155.4,77.7 162.1,71.6 161.4,82.8 154.6,88.6"/><polygon clip-path="url(#b)" fill="#CCC9C7" points="135.4,89 132.1,130.9 117.2,130.9 106.6,93.4 121.9,102.1"/><polygon clip-path="url(#b)" fill="#CCC9C7" points="162.2,87.5 175.1,102.7 188.8,92.8 176.8,130.9 160,130.9"/><rect x="158.1" y="81.4" transform="matrix(.649 .761 -.761 .649 120.535 -90.578)" clip-path="url(#b)" fill="#231F20" width=".6" height="7.9"/><path clip-path="url(#b)" fill="#fff" d="M134.2 89.4l-3.2 41.8h-15l-10.6-37.5 15.3 8.7 13.5-13zm.7-1.5l-1.1 1.1-13.1 12.8-15-8.5-1.3-.7.4 1.4 10.6 37.5.1.4h15.9v-.5l3.2-41.8.3-1.7z"/><rect x="161.4" y="68.5" transform="matrix(.998 .059 -.059 .998 4.858 -9.333)" clip-path="url(#b)" fill="#fff" width=".6" height="19.3"/><path clip-path="url(#b)" fill="#fff" d="M134.7 81.5l-1.1 6.8 2.7.6c1 .2 11.8 2.3 11.8 2.3l7.9-11.7-21.3 2-1.1 6.8"/><path clip-path="url(#b)" fill="#fff" d="M161.1 87.9l12.9 15.1 13.6-9.8-11.9 38.1h-16.9l2.3-43.4zm-.5-1.5l-.1 1.4-2.3 43.4v.6h17.9l.1-.4 11.9-38.1.6-1.7-1.5 1.1-13.2 9.5-12.5-14.8-.9-1z"/><polygon clip-path="url(#b)" fill="#231F20" points="142.6,132.3 142.1,132.2 145.3,95.6 145.9,95.7"/><polygon clip-path="url(#b)" fill="#231F20" points="161,89.4 155.4,90.9 155.4,94.7 146.7,91.5 145.6,91.2 136.3,88.9 136.3,106.1 145.6,97.1 148.7,97.5 155.4,108.3"/><path clip-path="url(#b)" fill="#fff" d="M136.3 88.9l9.3 2.3 1.1.3 8.7 3.3v-3.8l5.6-1.5-5.6 18.9-6.8-10.9-3.1-.3-9.3 8.9v-17.2zm-.6-.7v19.2l1-.9 9.1-8.7 2.5.3 6.6 10.6.7 1.1.4-1.2 5.6-18.9.3-1-1 .3-5.6 1.5-.4.1v3.4l-7.9-3-1.1-.3-9.3-2.3-.9-.2z"/><rect x="148.3" y="90.7" transform="matrix(1 .01 -.01 1 .974 -1.516)" clip-path="url(#b)" fill="#fff" width=".6" height="7.6"/><path clip-path="url(#b)" fill="#CCC9C7" d="M146.6 115.6c-1 0-1.8-.8-1.8-1.9 0-1 .8-1.9 1.8-1.9s1.8.8 1.8 1.9c0 1.1-.8 1.9-1.8 1.9m0-3.2c-.7 0-1.3.6-1.3 1.3 0 .7.6 1.3 1.3 1.3.7 0 1.3-.6 1.3-1.3-.1-.7-.7-1.3-1.3-1.3"/><polyline clip-path="url(#b)" fill="#fff" points="155.4,90.9 155.4,94.7 146.7,91.5 155.4,79"/><rect x="155.1" y="79" clip-path="url(#b)" fill="#231F20" width=".6" height="11.9"/><polygon clip-path="url(#b)" fill="#231F20" points="155.7,95.1 146.3,91.6 155.2,78.8 155.7,79.1 147.2,91.3 155.1,94.3 155.1,90.9 155.7,90.9"/><path clip-path="url(#b)" fill="#fff" d="M127.4 41.5c-.1.7-.3 1.6-.5 2.7-.5 3.3-1.1 8.2-.8 13.6.4.6 1.3.8 1.3.8-.1 3 .3 7 1.2 9.7.9 2.7 4.7 9.3 5.6 11 .3.6 1 1.7 1.6 2.9 1.1 1.9 2.2 4.2 2.3 5 .1.9 3.7 1.6 6.7 1.8 1.8.1 3.5 0 4-.4l7.8-8.9 6.6-7.4.2-3c0-1.2.9-4.6.9-4.6 1.4.1 3.5-.6 4.8-3.3 1.3-2.7 3.5-13.8 1-14.2-.9-.2-2.2 1-3.6 2.7-2.5 3.1-5 8.1-4.9 10.6-.4.7-2.2.9-2.2.9 0-1.3-.2-2.4 0-3.4s1.2-17-2.8-19.3c-2.7-.2-14.8 7.8-19.1 4-1.2 1.8-6.1.7-10.1-1.2"/><path clip-path="url(#b)" fill="#CCC9C7" d="M150.6 59.5c.1 3.1-1.4 5.8-3.4 5.9l-2.1.2c-2 .1-3.7-2.3-3.8-5.4"/><path clip-path="url(#b)" fill="#CCC9C7" d="M134.2 60.2c-.3 2.8-1.5 5.1-3 4.7l-1.6-.5c-1.5-.4-2.7-2.7-2.3-5.9"/><path clip-path="url(#b)" fill="#231F20" d="M148.8 59.6c0 .7-.5 1.3-1.2 1.3h-.7c-.7 0-1.3-.5-1.3-1.2"/><path clip-path="url(#b)" fill="#231F20" d="M131.5 59.5c-.2.7-.7 1.1-1.2 1l-.5-.1c-.5-.1-.7-.8-.6-1.4"/><path clip-path="url(#b)" fill="#231F20" d="M160.4 59.8v-.7c0-.4.2-1.1.4-1.9.5-1.6 1.5-3.9 3.3-6.7.5-.7.9-1.4 1.5-2.1.6-.7 1.2-1.4 2.1-2l.7-.3h.4c.2 0 .3.1.4.2.3.2.4.4.5.7.1.3.2.5.2.8.2 1.1.2 2.2.1 3.4-.2 2.3-.6 4.8-1.3 7.4-.2.6-.4 1.3-.7 1.9-.1.3-.3.6-.5.9l-.6.9c-.2.3-.5.5-.8.8-.3.2-.6.4-1 .6-.7.3-1.5.5-2.3.5.1 0 .2-.1.4-.3-.2.7-.4 1.8-.6 3.1-.2 1.3-.2 2.9-.3 4.5v.1l-.1.1c-1.4 1.6-3.3 3.7-5.4 6-2.1 2.3-4.4 5-6.7 7.6-.8 1-1.7 1.9-2.3 2.7l-.5.3c-.2.1-.3.1-.5.1-.3.1-.6.1-.9.1h-1.7c-1.1 0-2.2-.1-3.2-.3-1.1-.2-2.1-.4-3.1-.7-.3-.1-.5-.2-.8-.4l-.2-.1-.1-.1-.1-.1c-.1-.1-.2-.2-.2-.3v-.2c-.1-.4-.3-.9-.5-1.3-.8-1.8-1.8-3.5-2.7-5.2-.9-1.7-1.8-3.3-2.7-4.9-.9-1.6-1.7-3.1-2.4-4.6l-1-2.3c-.1-.2-.1-.3-.2-.6l-.1-.6c-.1-.4-.2-.8-.3-1.1-.6-3-.7-5.7-.7-8l.2.2c-.4-.1-.7-.2-.9-.4-.2-.1-.4-.3-.5-.5-.2-5.5.4-9.5.8-12.2.2-1.4.4-2.4.5-3 .1-.7.2-1 .2-1s-.1.3-.2 1-.3 1.7-.5 3c-.3 2.7-.8 6.8-.5 12.2v-.1c.2.3.5.5 1.2.7h.2v.4c0 2.3.2 4.9.8 7.8l.3 1.1.1.6c0 .2.1.4.2.5.3.8.6 1.5 1 2.2.7 1.5 1.6 3 2.4 4.6.9 1.6 1.8 3.2 2.7 4.9.9 1.7 1.9 3.4 2.8 5.3.2.5.4.9.5 1.6 0 .1.5.4.9.6.9.3 2 .5 3 .7 1 .1 2.1.2 3.2.3h1.6c.3 0 .5 0 .8-.1.2 0 .5-.1.6-.2.7-.8 1.5-1.7 2.3-2.7 2.4-2.7 4.6-5.3 6.8-7.6 2.1-2.3 4-4.4 5.4-6 0 .1-.1.2-.1.2.1-1.6.2-3.2.4-4.5.3-1.4.5-2.5.7-3.2l.1-.3h.3c.7.1 1.3-.1 1.9-.4.3-.1.6-.3.9-.5.3-.2.5-.4.7-.7l.6-.8.5-.9c.3-.6.5-1.2.6-1.9.7-2.5 1.2-4.9 1.4-7.2.1-1.1.1-2.3 0-3.3-.1-.5-.2-1-.6-1.3-.1-.1-.2-.1-.3-.1h-.3c-.2 0-.4.1-.6.2-.8.5-1.5 1.2-2 1.8-.6.7-1.1 1.4-1.5 2-1.8 2.7-2.9 4.9-3.4 6.5-.3.8-.4 1.4-.5 1.9v.5l-.2.2"/><path clip-path="url(#b)" fill="#231F20" d="M152.7 59.3s-.1 0-.3.1c-.2.1-.5.1-.8.1-.7.1-1.7.2-3 .3-2.5.2-6.1.6-10 .8-1.6.1-3.2.1-4.6-.2-.7-.1-1.4-.3-2-.5-.6-.2-1.2-.3-1.7-.5-2.1-.7-3.6-1-4-1.3-.1.2 0-.1 0-.1-.7-.1-1-.4-1.1-.6-.1-.2-.2-.2-.2-.2l.2.2c.2.1.5.4 1.1.5l.2-.1c.8.1 1.8.5 4 1.1.5.1 1.1.3 1.8.4.6.1 1.3.3 2 .4 1.3.3 2.9.2 4.4.1 3.9-.2 7.4-.4 10-.4h3.8c.1-.1.2-.1.2-.1"/><path clip-path="url(#b)" fill="#231F20" d="M149.9 53.4s-.3-.1-.8-.2-1.3-.2-2.2-.1c-1.8.1-4.4.7-7.2 1-2.8.3-5.5.5-7.4.1-.2 0-.5-.1-.7-.2l-.6-.2c-.3-.2-.6-.4-.8-.5-.4-.3-.6-.5-.6-.5s.3.1.7.4c.2.1.5.3.8.4l.6.2c.2.1.4.1.6.1 1.8.2 4.4-.1 7.2-.5 2.8-.3 5.4-.7 7.3-.6 1 .1 1.7.2 2.2.4.6.1.9.2.9.2"/><path clip-path="url(#b)" fill="#231F20" d="M144 71.7s0-.1-.2-.2-.7-.2-1.4-.1l.1-.1c0 .3 0 .7-.2 1.3 0 .2-.1.3-.3.5l-.2.2-.1.1-.1.1h-.1c-.3.2-.7.4-1.1.6-.4.2-.8.4-1.3.5-.2.1-.5.1-.8.2-.3 0-.5.1-.9.1-.1 0-.3-.1-.3-.1h-.1l-.1-.1-.3-.4c-.2-.3-.3-.5-.4-.8-.3-.5-.5-1.1-.7-1.6-.3-.8-.5-1.5-.7-2.3-.2-.8-.2-1.5-.2-2.2 0-1.4.1-2.7.3-3.7.1-1 .3-1.9.4-2.5.1-.6.2-.9.2-.9s0 .3-.1.9c0 .6-.1 1.4-.1 2.5 0 1-.1 2.3 0 3.7 0 .7.1 1.4.3 2.1.2.7.4 1.4.7 2.2.2.5.4 1.1.7 1.6.1.2.2.5.4.7l.2.3c-.2.1-.1 0-.1 0h.7999999999999999l.7-.1c.5-.1.9-.2 1.3-.4.4-.1.8-.3 1.1-.5h.1l.1-.1.2-.2c.1-.1.2-.2.2-.3.3-.5.3-.9.4-1.2v-.1h.1c.7 0 1.2.1 1.4.2.1 0 .1.1.1.1"/><path clip-path="url(#b)" fill="#231F20" d="M165.1 57.2s.1 0 .1-.1c.1-.1.2-.2.3-.4.2-.3.5-.9.7-1.6.3-.7.5-1.5.8-2.5.1-.5.3-1 .4-1.6.1-.5.2-1.1.1-1.6.1.1.3.2.5.3-.3.1-.9.5-1.3 1.1-.9 1.1-1.5 2.3-2.1 3.4-.6 1.1-1 2.1-1.4 3-.4.9-.6 1.6-.7 2.1-.1.5-.2.8-.2.8s0-.3.1-.8.2-1.3.5-2.2c.3-.9.6-2 1.1-3.2.5-1.2 1.1-2.4 2.1-3.6.5-.6 1.2-1.2 1.8-1.4l.4-.1v.4c.1.8-.1 1.3-.2 1.9-.1.6-.3 1.1-.5 1.6-.4 1-.7 1.8-1.1 2.5-.4.7-.7 1.2-.9 1.5-.1.2-.3.3-.4.3l-.1.2"/><path clip-path="url(#b)" fill="#231F20" d="M149.9 67.4s0-.3.4-.6c.1-.1.2-.1.4-.2h.2c.1 0 .2 0 .3.1.2.1.2.4.2.6 0 .2-.1.4-.2.6-.2.4-.5.8-1.1.9h-1.5c-1.1-.1-2.2-.5-3.2-1.2s-1.8-1.6-2.4-2.5c-.6-.9-.9-1.7-1.2-2.5-.2-.7-.4-1.4-.4-1.8v-.7s.1 1 .8 2.3c.7 1.3 1.8 3.1 3.6 4.4.9.6 1.9 1 2.8 1.2.2.1.5.1.7.1h.6c.3 0 .6-.3.8-.6.2-.3.3-.6.2-.7l-.1-.1h-.2c-.1 0-.2 0-.3.1-.3.3-.4.6-.4.6"/><path clip-path="url(#b)" fill="#231F20" d="M130.6 65.8l-.1-.1-.3-.1h-.2c-.1 0-.2 0-.2.1-.1.1-.2.3-.2.5s.1.4.3.6c.2.2.4.2.8.3.5.1 1.1-.4 1.5-1.1.4-.7.7-1.4 1-2.1.3-.7.5-1.3.6-1.8.3-1.1.5-1.8.5-1.8s0 .7-.1 1.8c-.1.6-.2 1.2-.4 2-.2.7-.5 1.5-.9 2.3-.2.4-.5.8-1 1-.4.3-.9.4-1.4.3-.3-.1-.8-.3-1.1-.5-.3-.3-.4-.7-.4-1.1.1-.3.3-.6.5-.7.1-.1.3-.1.4-.1.1 0 .2 0 .3.1l.4.4"/><path clip-path="url(#b)" fill="#231F20" d="M149.9 74.5s-.9.6-2.4 1.5c-.7.4-1.7.9-2.7 1.4-1.1.4-2.3.9-3.6 1.2l-1.2.2c-.4.1-.8.1-1.2.1-.4 0-.8-.1-1.1-.1l-.2-.1h-.2l-.1-.1-.5-.3c-.5-.4-.9-.9-1.2-1.3-.3-.4-.6-.7-.8-1h.2c-.2.3-.3.6-.2.9 0 .3 0 .5.1.7 0 .4.1.5.1.5s0-.2-.1-.5c0-.2-.1-.4-.2-.7 0-.3 0-.7.2-1.1l.1-.2.2.1c.3.2.6.5.9.9l1.2 1.1c.4.3 1 .3 1.7.3.3 0 .7 0 1-.1l1.1-.2c1.3-.3 2.4-.7 3.5-1 1-.4 2-.7 2.8-1.1 1.6-.7 2.6-1.1 2.6-1.1"/><path clip-path="url(#b)" fill="#231F20" d="M144 80.7s-.1 0-.3.1c-.2.1-.5.1-.8.2-.4.1-.8.1-1.3.2-.5 0-1 .1-1.6 0-.6 0-1.2-.3-1.6-.6-.4-.3-.7-.8-.8-1.1-.1-.4-.2-.7-.1-.9v-.3s0 .1.1.3c.1.2.2.4.4.7.2.3.5.5.8.7.4.2.8.3 1.3.3.5.1 1 .1 1.5.1s.9.1 1.2.1c.4.1.6.1.8.1.3 0 .4.1.4.1"/><path clip-path="url(#b)" fill="#fff" d="M166.4 49.8c-2.5 3.1-5 8.1-4.9 10.6-.4.7-2.2.9-2.2.9 0-1.3-.2-2.4 0-3.4s1.2-17-2.8-19.3c-2.7-.2-14.8 7.8-19.1 4-1.1 2-6.1.9-10-1-.1.7-.3 1.6-.5 2.7-1.7.1-3.1-4.3-2.7-8.5.4-4.3 6.1-19.6 18.3-15.9 1.7-2.7 10.9-2.4 17.1 3.8 3.1 3 3.1 4.8 3.8 6.7.7 1.7 3.2 15.9 3 19.4"/><path clip-path="url(#b)" fill="#231F20" d="M149.9 78.2s0-.2.1-.4c0-.3.1-.7 0-1.2-.1-1-.5-2.3-1.4-3.3-.5-.5-1-1-1.5-1.4-.3-.2-.5-.4-.7-.5-.2-.1-.5-.2-.7-.2-.5-.1-.9-.2-1.2-.4-.3-.1-.4-.2-.4-.2s.2 0 .4.1c.3.1.7.1 1.2.1.3 0 .6 0 .9.1l.9.4c.6.3 1.2.8 1.8 1.4.5.6.9 1.3 1.1 2 .2.7.2 1.4.1 1.9s-.2.9-.3 1.2c-.2.3-.3.4-.3.4"/><path clip-path="url(#b)" fill="#231F20" d="M152.1 76.5s-.1-.2-.3-.4c-.2-.3-.3-.6-.5-1-.1-.4-.1-.8-.1-1.1v-.5l.1.1c.1 0 .2.1.3.2.2.3.5.6.6 1.1.1.4.1.9 0 1.2 0 .2-.1.4-.1.4"/><path clip-path="url(#b)" fill="#231F20" d="M146 17.6c3.7 0 8.6 1.6 12.4 5.5 3.1 3 3.1 4.8 3.8 6.7.7 1.8 3.3 16 3 19.5 1.3-1.6 2.5-2.8 3.4-2.8h.2c2.5.4.3 11.5-1 14.2-1.2 2.5-3.1 3.3-4.5 3.3h-.3s-.9 3.4-.9 4.6l6.6 7.2 29.3 13.6-9.3 41.8h-82.4l-7.2-37.1 33.7-15.5c-.9-1.7-4.8-8.3-5.6-11-.9-2.7-1.3-6.7-1.2-9.7 0 0-.9-.1-1.3-.8-.3-5.4.3-10.3.8-13.6h-.1c-1.7 0-3.1-4.3-2.6-8.5.4-3.8 5-16.5 14.7-16.5 1.1 0 2.4.2 3.7.6.8-.9 2.6-1.5 4.8-1.5m0-1.7c-2.2 0-4 .5-5.2 1.4-1.1-.2-2.1-.4-3.1-.4-11.1 0-16 14-16.4 18-.4 3.7.5 7.6 2.1 9.3.2.2.3.3.5.4-.6 4.4-.8 8.6-.6 12.6v.4l.2.4c.3.5.7.8 1.1 1 0 2.8.4 6.3 1.3 9 .7 2.1 2.9 6.1 4.9 9.7l-32 14.8-1.2.6.3 1.3 7.2 37.1.3 1.3h85.10000000000001l.3-1.3 9.3-41.8.3-1.4-1.3-.6-29-13.5-6.1-6.2c.1-.6.3-1.6.5-2.4 2.1-.4 3.9-1.9 5-4.2 1.1-2.3 3.4-11.8 1.7-15.1-.4-.8-1.1-1.4-2-1.5h-.4c-.5 0-1.1.1-2 .6-.6-5.7-2.3-14.7-2.9-16.3l-.3-1c-.5-1.6-1.1-3.6-3.9-6.2-4.4-4.5-9.9-6-13.7-6"/><path clip-path="url(#b)" fill="#231F20" d="M165.3 48.8v-1.8c0-.4-.1-.9-.1-1.4-.2-2.1-.7-5.2-1.4-9.2-.4-2-.8-4.2-1.4-6.5l-.1-.4-.1-.4-.3-.9c-.2-.6-.4-1.2-.7-1.8-.3-.6-.6-1.1-1-1.7l-.6-.8c-.2-.2-.5-.5-.7-.8-1.9-2-4.5-3.8-7.5-4.7-1.5-.5-3.1-.8-4.8-.8-.8 0-1.7.1-2.5.3-.8.2-1.6.6-2 1.2l-.1.2-.2-.1c-1.7-.5-3.8-.8-6-.2-2.2.5-4.3 1.9-6 3.8-1.8 1.9-3.2 4.3-4.3 6.9-.5 1.3-1 2.7-1.3 4.1-.2.7-.2 1.4-.2 2.2 0 .7 0 1.5.1 2.2.1 1 .3 2 .7 2.9.2.4.4.9.7 1.2.3.4.6.6.9.6-.1.1-.3.2-.4.4l.5-2.7.1-.5.5.2c1.6.8 3.3 1.4 5.1 1.8.8.2 1.7.3 2.5.3.4 0 .8-.1 1.2-.2.3-.1.6-.4.8-.6l.3-.4.3.3c.6.5 1.4.8 2.3.9.9.1 1.7 0 2.6-.1 1.7-.3 3.3-.9 4.9-1.4 1.6-.6 3.1-1.2 4.5-1.9l2.2-.9 1.1-.4c.4-.1.8-.2 1.2-.2h.2c.7.4 1.1 1.1 1.4 1.7.3.6.5 1.3.7 2 .4 1.3.5 2.6.7 3.8.3 2.5.3 4.7.3 6.7s-.1 3.7-.3 5.2c-.1.4-.1.7-.1 1v2.5l-.1-.1c.8-.1 1.3-.2 1.6-.4.3-.2.4-.3.5-.4 0-1.2.4-2.2.7-3.2.3-.9.7-1.7 1.1-2.4.7-1.4 1.3-2.4 1.8-3.1.5-.7.8-1.2 1.1-1.5-.5-.4-.4-.5-.4-.5s-.1.1-.3.4c-.2.3-.6.8-1 1.5-.5.8-1.1 1.8-1.8 3.2-.3.7-.7 1.5-1 2.4-.3.9-.7 1.9-.7 3.1-.2.3-.6.7-2.2.9h-.1v-.1c0-.5 0-1-.1-1.6v-1c0-.3 0-.7.1-1.1.1-1.5.2-3.2.2-5.2s-.1-4.2-.4-6.6c-.1-1.2-.3-2.5-.7-3.7-.2-.6-.4-1.3-.7-1.8-.3-.6-.7-1.1-1.2-1.4h.1c-.6 0-1.4.3-2.1.5-.7.3-1.4.6-2.2.9-1.5.6-3 1.3-4.6 1.9-1.6.6-3.2 1.2-5 1.5-.9.2-1.8.3-2.8.2-1-.1-2-.4-2.7-1.1l.6-.1c-.3.5-.7.8-1.2 1-.5.2-.9.3-1.4.3-.9 0-1.8-.1-2.7-.3-1.8-.4-3.5-1-5.2-1.8l.6-.3-.5 2.7-.1.4h-.3c-.2 0-.4 0-.5-.1l-.4-.2c-.3-.2-.5-.4-.6-.6-.4-.5-.6-1-.8-1.4-.4-1-.6-2.1-.7-3.1-.1-.8-.1-1.5-.1-2.3 0-.8.1-1.5.2-2.3.3-1.5.8-2.9 1.4-4.3 1.1-2.7 2.6-5.2 4.5-7.2 1.8-2 4.1-3.4 6.5-4 2.3-.6 4.6-.2 6.4.3-.2.1-.3.1-.4.1.6-.9 1.6-1.3 2.4-1.5.9-.2 1.8-.3 2.7-.3 1.8 0 3.4.4 5 .9 3.1 1.1 5.8 2.9 7.7 5l.7.8c.2.3.4.6.7.8.4.6.8 1.2 1.1 1.8.3.6.5 1.2.7 1.9l.3.9c0 .2.1.3.1.4l.1.4c.6 2.4 1 4.6 1.3 6.6.7 4 1.1 7.1 1.3 9.2 0 .5.1 1 .1 1.4v1c-.3.7-.3 1-.3 1"/><path clip-path="url(#b)" fill="#231F20" d="M145.6 59.7s0 .3.3.6c.1.1.3.3.5.4.1 0 .2.1.4 0h.4c.3 0 .6 0 .8-.1.2-.1.4-.2.5-.4.2-.3.2-.6.2-.6s.1.3-.1.7c-.1.2-.2.5-.5.6-.3.2-.7.2-1 .2h-.5c-.1 0-.3-.1-.5-.1-.3-.1-.5-.4-.6-.6 0-.4.1-.7.1-.7"/><path clip-path="url(#b)" fill="#231F20" d="M129.2 58.9v.2c0 .1 0 .2.1.4 0 .2.1.3.2.5l.2.2h.1l.2.1c.3.1.4.1.6.1l.5-.3c.2-.2.3-.5.3-.5s0 .2-.2.6c-.1.2-.2.4-.5.5-.1.1-.3.1-.4.1-.2 0-.3 0-.4-.1l-.2-.1h-.1c-.1-.1-.3-.2-.3-.3-.1-.2-.2-.5-.2-.7 0-.2.1-.3.1-.4v-.3"/><polygon clip-path="url(#b)" fill="#fff" points="145.5,97.3 145.3,89.7 145.9,89.7 146.1,97.3"/><line clip-path="url(#b)" fill="#fff" x1="134.7" y1="81.5" x2="133.6" y2="88.3"/><polygon clip-path="url(#b)" fill="#231F20" points="146.2,91.6 136.2,89.2 133.2,88.5 134.4,81.4 135,81.5 133.9,88.1 136.4,88.6 144.9,90.7 143.4,88.4 143.9,88.1"/><polygon clip-path="url(#b)" fill="#231F20" points="146.6,91.8 145.5,91.5 145.6,90.9 146.8,91.2"/><path clip-path="url(#b)" fill="#fff" d="M89.1 102.9l.1-1.7c-.1-2.1-.3-5.6-.3-5.6-.4.2-2.1-.4-2.3-1.5-.3-1-.5-6.1 0-7.2v-.1c-.3-1.3-.8-9.7 2-12.3 2.9-2.7 4.2-2.9 10.1-2.4h1.4c5.9-.5 7.2-.3 10.1 2.4 2.9 2.6 1.6 11.5 1.2 12.4l.1.5c.3 1 0 6-.3 6.7-.3.7-.9 1.7-2.1 1.5.1.8-.6 5.7-.6 5.7l-.4.5v3.4000000000000004l-10.3 11-8.4-10.9-.3-2.4z"/><path clip-path="url(#b)" fill="#231F20" d="M111.2 86.9c.4-.9 1.6-9.8-1.2-12.4-2.9-2.7-4.2-2.9-10.1-2.4h-1.4c-5.9-.5-7.2-.3-10.1 2.4-2.8 2.5-2.3 11-2 12.3v.1c.2-.5.8-1.2 1.9-1 0 .5.4 3.5.2 4.8h1s-.1-2.3-.1-3.9l1-2.1s-.8-2.4-1.1-3.5c-.3-1.1.3-2.1.3-2.1s1.1-2.2 4.3-2.4l5.2 1.1h.1l5.2-1.1c3.2.3 4.3 2.4 4.3 2.4s.6 1.1.3 2.1c-.3 1.1-1.1 3.5-1.1 3.5l-.1.2 1.1 2.2-.1 3.7h.7s.4-4.2.4-4.6c.1-.5 1.2-.1 1.3.7"/><path clip-path="url(#b)" d="M103 71.9c2.9 0 4.2.7 6.3 2.6 2.8 2.6 1.6 11.5 1.2 12.4l.1.5c.3 1 0 6-.3 6.7-.3.6-.8 1.5-1.8 1.5h-.3c.1.8-.6 5.7-.6 5.7l-.4.5v1.6h.9l2.7 3.2c5.2 1.9 16.3 7.8 16.3 7.8l4.7 14.7h-69.9l7.4-16.4 18.2-8.7 1-1.1.1-1.7c-.1-2.1-.3-5.6-.3-5.6h-.2c-.6 0-1.9-.6-2.2-1.5-.3-1-.5-6.1 0-7.2v-.1c-.3-1.3-.8-9.7 2-12.3 2.1-2 3.4-2.6 6.3-2.6 1 0 2.2.1 3.8.2h1.4c1.3-.1 2.5-.2 3.6-.2m0-.5c-.9 0-2.1.1-3.8.2h-1.3c-1.7-.2-2.9-.2-3.8-.2-3.2 0-4.6.8-6.7 2.8-2.9 2.7-2.5 11.3-2.1 12.8-.5 1.6-.2 6.4 0 7.3.3 1.1 1.5 1.7 2.4 1.9.1 1 .2 3.4.3 5.1l-.1 1.5-.8.9-18.1 8.5h-.1l-.1.1-7.4 16.4-.8.9h72.39999999999998l-.6-.9-4.7-14.7-.1-.1-.1-.1c-.4-.2-11-5.9-16.3-7.8l-2.6-3.1-.2-.2h-.8v-.7l.3-.4.1-.1v-.1c.1-.7.6-3.8.6-5.3 1.2-.1 1.8-1.3 2.1-1.8.4-.9.6-6 .4-7.1l-.1-.3c.4-1.5 1.5-10.1-1.4-12.8-2.1-1.9-3.5-2.7-6.6-2.7"/><polygon clip-path="url(#b)" fill="#231F20" points="61.9,129.2 69.2,112.7 88.5,103.5 87,129.2"/><path clip-path="url(#b)" fill="#fff" d="M88.5 103.5l-1.5 25.7h-25.1l7.4-16.4 19.2-9.3zm.2-.3l-.2.1-19.3 9.2-7.4 16.4-.2.2h25.500000000000004v-.1l1.5-25.7.1-.1z"/><path clip-path="url(#b)" fill="#231F20" d="M108.9 106.1l-3.9 23.1h26.9l-4.7-14.7c-.1-.1-14.8-8-18.3-8.4"/><path clip-path="url(#b)" fill="#fff" d="M108.9 106.1c3.5.5 18.3 8.3 18.3 8.3l4.7 14.7h-26.9l3.9-23m-.2-.2v.1l-3.9 23.1v.2h27.4l-.2-.2-4.7-14.7c-.6-.3-14.8-7.9-18.3-8.4l-.3-.1z"/><polygon clip-path="url(#b)" fill="#fff" points="84.9,129.2 87.8,109.3 88,107.5 88.4,104.7 92.7,110.2 96.7,115.3 101.3,110.7 107.1,104.7 107.1,108 107.1,109.6 105.9,129.2"/><polygon clip-path="url(#b)" fill="#231F20" points="87,129.2 88.5,102.8 76,116.3 80.3,129.2"/><path clip-path="url(#b)" fill="#fff" d="M88.5 102.8l-1.5 26.4h-6.7l-4.3-12.9 12.5-13.5zm.2-.4l-.3.3-12.6 13.5-.1.1v.1l4.3 12.8v.1h7.1v-.1l1.5-26.4.1-.4z"/><polygon clip-path="url(#b)" fill="#231F20" points="107.1,103.5 107.1,109.6 105,129.2 110.3,129.2 118.3,115.3 108.1,103.5"/><path clip-path="url(#b)" fill="#fff" d="M108.1 103.5l10.3 11.9-8 13.8h-5.4l2.2-19.5v-6.2h.9zm0-.2h-1.1v6.3l-2.2 19.5v.2h5.7v-.1l8-13.8v-.1l-.1-.1-10.3-11.9z"/><polygon clip-path="url(#b)" fill="#231F20" points="107.1,109.6 107.1,108 99,116 101.2,116"/><path clip-path="url(#b)" fill="#231F20" d="M87.8 109.3l.3-1.9c.5.7 6.8 8.9 6.8 8.9h-2.3l-4.8-7z"/><path clip-path="url(#b)" fill="#231F20" d="M95.3 116s-5.4-2.6-6.7-2.7c-.6.9-.8 8 1.1 10.3.6-.1 5.6-4 5.6-4 .9.6 2.5.3 3 0 0 0 2.3 3.9 5.5 4.7.8-.8 2.2-9.1 2.1-9.9-.1-.8-5.9 1-7.3 2-.1-.1-.4-1.5-3.3-.4"/><path clip-path="url(#b)" fill="#231F20" d="M98.2 119.6c-.5.3-2.1.6-3 0v-3.6c3-1.1 3.2.3 3.2.3l-.2 3.3z"/><polygon clip-path="url(#b)" fill="#fff" points="96.7,115.3 92.7,110.2 91.3,118.8"/><path clip-path="url(#b)" fill="#231F20" d="M96.7 115.3s-2 1.4-5.4 3.6l-.3.2.1-.4c.2-1 .4-2.6.7-4.3.3-1.7.6-3.2.8-4.2l.1-.4.2.3c2.4 3.2 3.8 5.2 3.8 5.2s-1.6-1.9-4.1-5c.1 0 .2 0 .3-.1-.1 1-.4 2.6-.7 4.3-.3 1.7-.6 3.3-.8 4.3-.1-.1-.2-.1-.2-.2 3.4-2 5.5-3.3 5.5-3.3"/><polygon clip-path="url(#b)" fill="#fff" points="101.3,110.7 96.7,115.3 101.9,118.8"/><path clip-path="url(#b)" fill="#231F20" d="M101.3 110.7s.4 3.3.7 8.1v.4l-.3-.2-1.9-1.3c-1.3-.8-2.4-1.6-3.2-2.2l-.2-.1.1-.1c3-2.9 4.8-4.6 4.8-4.6s-1.7 1.9-4.5 4.8v-.3c.8.5 2 1.3 3.2 2.1l1.9 1.3-.3.2c-.2-4.8-.3-8.1-.3-8.1"/><path clip-path="url(#b)" fill="#231F20" d="M88.5 101.2s.1.6.2 1.6c0 .6 0 1.4-.1 2.2-.1 2.1-.4 3.8-.4 3.8s-.1-1.7 0-3.9c.1-.9.1-1.7.2-2.2 0-.9.1-1.5.1-1.5"/><path clip-path="url(#b)" fill="#231F20" d="M107.1 109.6s-.2-1.7-.2-3.9.2-3.9.2-3.9.2 1.7.2 3.9-.2 3.9-.2 3.9"/><path clip-path="url(#b)" fill="#231F20" d="M108.5 91.8s-.1 1.2-.3 3.8c0 1.2-.3 3.3-.6 5.8-.1.1-.2.3-.4.5-1.5 1.8-3.9 4.5-6.5 7.5l-.1.1h-4.6000000000000005l-.1-.1-2.1-2.4-1-1.2-.5-.6-.5-.5c-1.3-1.3-2.6-2.4-3.5-3.5-.1-2.9-.2-5.3-.3-6.9v-1.8c0-.2 0-.4.1-.5v2.3c.1 1.6.3 3.9.5 6.9v-.1c.9 1 2.2 2.1 3.6 3.4l.5.5c.2.2.3.4.5.5.3.4.7.8 1 1.1l2.1 2.4s-.1 0-.2-.1h4.6l-.2.1c2.6-3 5-5.7 6.6-7.4.2-.2.3-.4.4-.5v.1c.4-2.5.7-4.5.7-5.7.2-2.5.3-3.7.3-3.7"/><path clip-path="url(#b)" fill="#231F20" d="M97.2 96.2s-.1-2.2-.2-5.5c0 0 0 .1.1.1-.4-.3-.9-.7-1.5-1.1-.8-.6-1.6-1.2-2.3-1.7-.4-.3-.7-.5-1-.7l-.5-.3h-.2s-.1.1-.2.1c-.5.4-.8.9-1.1 1.2-.2.3-.4.4-.4.4s.1-.2.3-.5c.2-.3.5-.8 1-1.3.1-.1.1-.1.3-.2h.30000000000000004c.2.1.4.2.5.3.3.2.7.4 1.1.7.7.5 1.5 1.1 2.3 1.7.6.4 1.2.9 1.5 1.2l.1.1v.1c0 3.2-.1 5.4-.1 5.4"/><path clip-path="url(#b)" fill="#fff" d="M100.5 103.5c1-.9.9-3.2.9-3.9h-5.8c-.1 1 0 2.6.9 3.9h4z"/><path clip-path="url(#b)" fill="#231F20" d="M97.2 97.8s.1 0 .2.1l.2.1c.1 0 .2 0 .3.1.3.1.6 0 1-.1.3-.1.7-.4.9-.8 0-1.5-.1-3.7-.1-6v-.6l.1-.1c2.4-1.4 4.6-2.6 5.7-3.2h.1c.9 1.2 1.3 1.8 1.3 1.8s-.4-.5-1.4-1.7h.1c-1 .7-3.1 2-5.5 3.4 0 0 .1-.1.1-.2v.5c0 2.3 0 4.5-.1 6-.2.5-.7.8-1.1.9-.4.1-.7.1-1 0-.1 0-.3-.1-.3-.1-.1-.1-.2-.1-.2-.1h-.3"/><path clip-path="url(#b)" fill="#231F20" d="M96.7 97.5l-.3.3c-.1.1-.3.1-.5.1s-.4-.2-.5-.4c-.1-.4 0-.7.1-1 .1-.2.2-.3.2-.3s0 .6.1 1.2c0 .1.1.2.2.2h.6l.1-.1"/><path clip-path="url(#b)" fill="#231F20" d="M96.5 103.5l-3.4-3.9h2.5c-.1 1 0 2.6.9 3.9"/><path clip-path="url(#b)" fill="#231F20" d="M101.4 99.6h2.2l-3.1 3.9c1-.9.9-3.2.9-3.9"/><path clip-path="url(#b)" fill="#231F20" d="M99.9 97.2l.1.1.3.1c.1.1.3.1.4 0 0 0 .1-.2.1-.4 0-.4-.1-.8-.2-1l-.1-.3c0-.1-.1-.1-.1-.1l.1.1c.1 0 .2.1.3.2.2.2.4.6.5 1.1 0 .1 0 .3-.1.4 0 .1-.2.3-.3.3h-.4c-.1 0-.2-.1-.2-.1l-.3-.3c0-.1-.1-.1-.1-.1"/><path clip-path="url(#b)" fill="#231F20" d="M93.1 99.6s1.2 1.3 3.5 3.8h-.1c.9 0 2.3 0 4-.1 0 0-.1 0-.1.1.5-.6 1.2-1.5 2-2.5.4-.5.9-1.1 1.1-1.4.1.2.1.2.2.3-6.2 0-10.6-.2-10.6-.2s4.4-.2 10.5-.2h.4l-.3.3c-.3.3-.7.9-1.1 1.4-.8 1-1.5 1.9-2 2.5l-.1.1h-.1c-1.6 0-3.1 0-4-.1h-.1c-2.1-2.6-3.2-4-3.2-4"/><path clip-path="url(#b)" fill="#231F20" d="M104.7 100.6s0-.2-.1-.4c0-.2-.1-.5-.2-.9-.1-.3-.1-.6-.2-.8-.1-.2-.1-.4-.1-.4l.3.3c.2.2.3.5.4.9.1.4.1.7 0 .9 0 .2-.1.4-.1.4"/><path clip-path="url(#b)" fill="#231F20" d="M91.8 101.5l-.4-.4c-.1-.1-.2-.3-.3-.6l-.1-.7c0-.5.2-1 .4-1.3.1-.2.2-.3.2-.3l.1-.1-.1.1c0 .1-.1.2-.1.4-.1.3-.1.7-.1 1.2v.7c0 .2.1.4.1.5.3.3.3.5.3.5"/><path clip-path="url(#b)" fill="#231F20" d="M104.8 91.1c-.2-.1-2.1 0-2.4 0 0 .7.2 1.6 1.2 1.6s1.2-1 1.2-1.6"/><path clip-path="url(#b)" fill="#231F20" d="M92.9 91.1c.2-.1 2.1 0 2.4 0 0 .7-.2 1.6-1.2 1.6s-1.2-1-1.2-1.6"/><path clip-path="url(#b)" fill="#231F20" d="M105.6 92.4v-.3c0-.1 0-.2-.1-.3-.1-.1-.2-.2-.3-.2-.2-.2-.5-.4-.8-.6h-2.5c-.3.1-.6.4-.8.5v-.1c0 .6-.1.9-.1.9s0-.3-.1-.9c.2-.2.4-.5.8-.7 0 0 .1-.1.2-.1h2.1999999999999997c.1 0 .3 0 .4.1.3.2.6.5.8.8.1.1.2.2.3.4v.5"/><path clip-path="url(#b)" fill="#231F20" d="M104.5 90.8v.3c0 .2 0 .4-.1.8 0 .1-.1.2-.1.2 0 .1-.1.1-.2.2l-.6.3h-.4c-.1 0-.2 0-.4-.1-.3-.1-.5-.3-.6-.5-.2-.4-.2-.9-.2-1.1v-.2h.2c1.4-.1 2.4 0 2.4.1 0-.1-.9.1-2.4.2l.2-.2c0 .2 0 .6.2.9.2.4.6.5.9.5.2 0 .4-.1.5-.1l.2-.1c.1-.1.1-.1.1-.2.2-.3.2-.5.3-.7v-.3"/><path clip-path="url(#b)" fill="#231F20" d="M91.5 92.4s0-.1-.1-.3v-.3c.1-.1.2-.2.3-.4l.8-.8c.1-.1.3-.1.4-.1h2.2c.1 0 .2 0 .2.1.4.2.6.5.8.7 0 .6-.1.9-.1.9s0-.3-.1-.9v.1c-.2-.2-.5-.4-.8-.5h-2.5c-.3.2-.6.4-.8.6-.1.1-.2.2-.3.2 0 .1 0 .2-.1.3.1.3.1.4.1.4"/><path clip-path="url(#b)" fill="#231F20" d="M92.6 90.8v.3c0 .2.1.4.3.7l.1.2c.1.1.1.1.2.1.1.1.3.1.5.1.3 0 .8-.1.9-.5.2-.3.2-.7.2-.9l.2.2c-1.5-.1-2.4-.3-2.4-.2 0-.1 1-.2 2.4-.2h.2v.2c0 .3 0 .7-.2 1.1-.1.2-.4.5-.6.5-.1.1-.2.1-.4.1h-.4c-.2 0-.4-.1-.6-.3-.1-.1-.2-.1-.2-.2s-.1-.2-.1-.2c-.1-.3-.1-.6-.1-.8v-.2"/><path clip-path="url(#b)" fill="#231F20" d="M109.3 74.5l.1.1.4.4c.3.4.7 1.1.9 2.2.3 1 .4 2.4.4 4 0 .8 0 1.7-.1 2.7 0 .5-.1 1-.2 1.5s-.1 1-.3 1.6l-.1.3-.1-.3c0-.2-.2-.6-.6-.8-.1-.1-.2-.1-.3-.1h-.2c0 .2 0 .5-.1.8-.1 1.1-.2 2.4-.4 3.8v.1h-.8999999999999999v-3.7c-.2-.4-.6-1.3-1.1-2.2v-.2s0-.1.1-.2c.3-.9.6-2 1-3.1s0-2.5-1-3.3c-.5-.5-1.1-.8-1.8-1-.3-.1-.7-.2-1-.2-.4-.1-.7-.1-1.1 0-.7.1-1.5.3-2.2.6-.7.2-1.5.5-2.4.5h-.5c-.8-.1-1.5-.3-2.1-.5-.7-.2-1.3-.4-2-.5h-.5c-.1 0-.3 0-.5.1-.3 0-.7.1-1 .2-.6.2-1.2.5-1.7.9s-.9.9-1.1 1.5c-.2.6-.3 1.2-.1 1.7.3 1.2.7 2.3 1 3.4v.2c-.4.8-.7 1.5-1 2.1v-.1c0 1.6.1 2.8.1 3.9v.2h-1.4v-.2c.1-.9 0-1.8 0-2.6-.1-.8-.1-1.5-.2-2.2l.1.1c-.5-.1-.9 0-1.1.2-.3.2-.5.5-.6.7l-.1.2.2-.3c-.2-.5-.2-1-.2-1.5l-.1-1.4c0-.9 0-1.8.1-2.5.1-1.6.3-2.9.6-4s.7-1.9 1-2.3c.2-.2.3-.4.4-.5l.2-.2-.2.2c-.1.1-.2.3-.4.5-.3.5-.7 1.3-1 2.4-.3 1.1-.5 2.4-.6 4v2.5c0 .4 0 .9.1 1.4 0 .5.1 1 .2 1.4h-.2c.1-.3.3-.6.7-.8.3-.2.8-.3 1.3-.2h.1v.1c0 .7.1 1.4.2 2.2.1.8.1 1.6 0 2.6 0 0-.1-.1-.1-.2h1s-.1.1-.1.2c0-1.2-.1-2.4-.1-3.9.3-.6.6-1.3 1-2.1v.1c-.3-1.1-.7-2.2-1.1-3.4-.2-.6-.1-1.4.1-2 .2-.7.7-1.2 1.2-1.6.5-.4 1.2-.8 1.8-1 .3-.1.7-.2 1-.2.2 0 .3 0 .5-.1h.5c1.5.1 2.8.9 4.1 1h.5c.7.1 1.5-.2 2.2-.4.7-.2 1.5-.5 2.3-.6.4-.1.8 0 1.2 0 .4.1.8.1 1.1.3.7.2 1.4.6 1.9 1.1 1.1.9 1.6 2.5 1.1 3.7-.3 1.2-.7 2.2-1 3.1l-.1.2v-.1c.4.9.9 1.9 1 2.2 0 1.6-.1 3.1-.1 3.7l-.1-.1h.7l-.1.1c.1-1.4.3-2.7.4-3.8l.1-.8c0-.1.1-.2.2-.2h.2l.3.1c.4.2.6.6.6.9h-.2c.2-.5.2-1 .3-1.5l.2-1.5c.1-.9.1-1.8.1-2.6 0-1.6-.1-2.9-.4-4-.2-1-.6-1.7-.9-2.2-.1-.2-.3-.4-.4-.4.4-.3.4-.4.4-.4"/><path clip-path="url(#b)" fill="#231F20" d="M108.1 95.6h.4c.2-.1.6-.1.9-.5l.2-.3.2-.3c.1-.2.3-.5.3-.7.1-.5.2-1.2.2-1.9.1-1.4.2-2.6.2-3.5v-1.5s0 .1.1.4c.1.2.1.6.2 1.1.1.9.1 2.2 0 3.5-.1.7-.1 1.3-.3 2l-.4.8c-.1.1-.2.2-.2.3l-.3.3c-.4.3-.8.4-1 .4-.3-.1-.5-.1-.5-.1"/><path clip-path="url(#b)" fill="#231F20" d="M85.8 86.9v.1c0 .1 0 .2-.1.3 0 .2-.1.6-.1 1.1 0 .9 0 2.2.1 3.6 0 .7.1 1.4.2 1.9.1.6.5.9.8 1.2.8.5 1.4.5 1.4.5s-.6.2-1.5-.3c-.2-.1-.4-.3-.6-.5-.2-.2-.4-.5-.4-.8-.1-.6-.2-1.3-.2-2-.1-1.4 0-2.7.1-3.6.1-.5.1-.8.2-1.1 0-.1.1-.2.1-.4"/><path clip-path="url(#b)" fill="#231F20" d="M107.1 104.7s-1.2 1.5-2.8 3.1c-1.6 1.6-3.1 2.8-3.1 2.8s1.2-1.5 2.8-3.1c1.7-1.6 3.1-2.8 3.1-2.8"/><path clip-path="url(#b)" fill="#231F20" d="M92.7 110.2s-1.1-1.1-2.3-2.6c-1.2-1.5-2-2.9-2-2.9s1.1 1.1 2.3 2.6c1.2 1.6 2 2.9 2 2.9"/><rect x="98.3" y="116.3" transform="matrix(.998 .071 -.071 .998 8.589 -6.661)" clip-path="url(#b)" fill="#fff" width=".1" height="3.3"/><rect x="95.2" y="116" clip-path="url(#b)" fill="#fff" width=".1" height="3.6"/><path clip-path="url(#b)" fill="#231F20" d="M97.2 90.7s-.5-.2-1.2-.7c-.7-.4-1.7-1-2.7-1.8-.5-.4-1-.7-1.4-1l-.1-.1h.1l-.1.1-.5.4-1 1s.2-.5.7-1.2c.1-.2.2-.4.4-.6l.1-.2.1-.1h.4l.3.1c.6.3 1.1.6 1.6.9 1.1.7 1.9 1.5 2.5 2.1.5.7.8 1.1.8 1.1"/><path clip-path="url(#b)" fill="#231F20" d="M99.9 90.7s1.5-1.3 3.5-2.6c.7-.4 1.4-.8 1.9-1l.3-.1.1.2c.8 1.1 1.1 1.9 1.1 1.9s-.6-.5-1.6-1.5c.1 0 .2 0 .4.1-.4.3-1.1.8-1.8 1.2-2 1.1-3.9 1.8-3.9 1.8"/></svg>