<svg xmlns="http://www.w3.org/2000/svg" xmlns:xlink="http://www.w3.org/1999/xlink" viewBox="0 0 178.1 130.7" enable-background="new 0 0 178.1 130.7"><rect x="2.5" y="2.3" fill="#CCC9C7" width="175.7" height="128.4"/><circle fill="#fff" cx="66.6" cy="110" r="10.9"/><defs><rect id="a" x="2.5" y="2.3" width="175.7" height="128.4"/></defs><clipPath id="b"><use xlink:href="#a" overflow="visible"/></clipPath><path clip-path="url(#b)" fill="#fff" d="M161.5 131.3c-.4-1.3.2-2.2 1.7-2.8 1.9-.6 4.5-1.1 6.9-.9-.9-.9-.6-2.4.9-3.7-2.6 1.1-5.6.9-7.8-.4-2.6-1.5-2.6-3.7 0-4.8 1.9-.6 4.5-1.1 6.9-.9-.9-.9-.6-2.4.9-3.7-2.6.9-5.6.9-7.8-.4-2.6-1.5-2.6-3.7 0-4.8 1.9-.6 4.5-1.1 6.9-.9-.9-1.1-.6-2.4.9-3.7-2.6.9-5.6.9-7.8-.2-2.6-1.7-2.6-3.9 0-4.8 1.9-.9 4.5-1.3 6.9-1.1-.9-1.1-.6-2.4.9-3.9-2.6 1.1-5.6 1.1-7.8 0-2.6-1.5-2.6-3.7 0-4.8 1.9-.6 4.5-1.3 6.9-1.3-.9-.9-.6-2.2.9-3.7-2.6 1.1-5.6 1.3-7.8 0-2.6-1.5-2.6-3.7 0-4.8 1.9-.6 4.5-1.3 6.9-1.3-.9-.9-.6-2.4.9-3.7-2.6 1.1-5.6 1.3-7.8 0-2.6-1.5-2.6-3.7 0-4.5 1.9-.9 4.5-1.5 6.9-1.5-.9-.9-.6-2.4.9-3.7-2.6 1.1-5.6 1.3-7.8.2-2.6-1.5-2.6-3.7 0-4.8 1.9-.9 4.5-1.5 6.9-1.5-.9-1.1-.6-2.4.9-3.9-2.6 1.3-5.6 1.5-7.8.4-2.6-1.5-2.6-3.7 0-4.8 1.9-.9 4.5-1.5 6.9-1.7-.9-.9-.6-2.2.9-3.7-2.6 1.3-5.6 1.5-7.8.4-2.6-1.5-2.6-3.7 0-4.8 1.9-.9 4.5-1.5 6.9-1.7-.9-.9-.6-2.2.9-3.7-2.6 1.1-5.6 1.5-7.8.4-2.6-1.3-2.6-3.5 0-4.5 1.9-.9 4.5-1.7 6.9-1.9-.9-.9-.6-2.4.9-3.7-2.6 1.3-5.6 1.5-7.8.6-2.6-1.5-2.6-3.7 0-4.8 1.9-.9 4.5-1.7 6.9-1.9-.9-.9-.6-2.4.9-3.9-2.6 1.3-5.6 1.9-7.8.9-2.6-1.5-2.6-3.7 0-4.8 1.9-.9 4.5-1.7 6.9-1.9-.9-1.1-.6-2.4.9-3.9-2.6 1.3-5.6 1.9-7.8.9-2.6-1.3-2.6-3.5 0-4.8.9-.4 1.9-.9 3-1.1h8c.6.6.4 1.9-.7 3 1.1-.6 2.4-1.1 3.7-1.5-.2-.4-.2-1.1 0-1.5h9.1v129.7h-10.2c.4-.2.9-.2 1.1-.4-.2-.6 0-1.3.4-2.2-1.3.2-2.4.2-3.5.2.4.6.4 1.5 0 2.4h-12.6zm-47.6 0h-1.7v-.2c-.9-.9-.9-1.5 0-1.3.4.2 1.1.9 1.7 1.5m-45 0h-1.1c-.6-.4-1.3-1.1-1.9-1.7-.6-.9-.6-1.5 0-1.3.6.2 1.9 1.1 2.6 1.9.2.5.4.7.4 1.1m-33.5 0h-6.1c-.9-.4-1.5-.9-2.2-1.3-1.9-1.1-1.9-2.8 0-3.7 1.9-.6 5.2.2 7.1 1.7 1.7 1.2 1.9 2.4 1.2 3.3m-9 0c-.2-.2-.2-.4-.7-.6-2.2-1.1-5.8-1.1-8.2.2l-.2.4h9.1zm-11.5 0h-8.9c-.4-.9 0-2.2.9-3.2-1.1.6-2.4 1.3-3.7 1.7.2.4.2.9 0 1.5h-11.4v-129.7h25.9c2.2 1.5 1.9 3.7-.4 4.8-2 .6-4.6.6-6.9.2.9 1.3.6 2.8-.6 3.9 2.4-.6 5.4-.2 7.6 1.1 2.6 1.7 2.6 3.9 0 5-1.9.9-4.5.9-6.9.6.9 1.1.6 2.6-.6 3.9 2.4-.9 5.4-.4 7.6.9 2.6 1.5 2.6 3.9 0 5-1.9.9-4.5.9-6.9.6.9 1.3.6 2.6-.6 3.9 2.4-.9 5.4-.4 7.6.9 2.6 1.5 2.6 3.9 0 5-1.9.9-4.5.9-6.9.9.9 1.1.6 2.6-.6 3.9 2.4-1.1 5.4-.9 7.6.4 2.6 1.7 2.6 3.9 0 5.2-1.9.9-4.5 1.1-6.9.9.9 1.1.6 2.6-.6 3.9 2.4-.9 5.4-.6 7.6.4 2.6 1.5 2.6 3.9 0 5.2-1.9.9-4.5 1.1-6.9.9.3.9.1 2.4-1.2 3.9 2.4-1.1 5.4-1.1 7.6.2 2.6 1.5 2.6 3.7 0 5-1.9.9-4.5 1.3-6.9 1.3.9 1.1.6 2.6-.6 3.9 2.4-1.1 5.4-1.1 7.6.2 2.6 1.5 2.6 3.7 0 5-1.9.9-4.5 1.3-6.9 1.3.7 1.1.5 2.6-.8 4.1 2.4-1.3 5.4-1.3 7.6 0 2.6 1.3 2.6 3.7 0 5-1.9.9-4.5 1.3-6.9 1.5.9.9.6 2.4-.6 3.9 2.4-1.3 5.4-1.3 7.6-.2 2.6 1.5 2.6 3.7 0 5.2-1.9.9-4.5 1.3-6.9 1.5.9.9.6 2.4-.6 4.1 2.4-1.5 5.4-1.5 7.6-.4 2.6 1.5 2.6 3.7 0 5-1.9 1.1-4.5 1.5-6.9 1.7.9 1.1.6 2.6-.6 4.1 2.4-1.5 5.4-1.5 7.6-.4 2.6 1.3 2.6 3.7 0 5-1.9 1.1-4.5 1.5-6.9 1.9.9.9.6 2.4-.6 4.1 2.4-1.5 5.4-1.7 7.6-.6 2.6 1.3 2.6 3.5 0 5-1.1.3-1.9.5-2.8.9m3.2-129.7c2.4 1.1 5.6 1.7 7.6 1.3 1.1-.2 1.7-.6 1.7-1.3h-9.3zm31.2 0h2.8c.4.9.2 1.3-.7 1.1-.6-.2-1.3-.6-2.1-1.1m6.7 0h2.4c.6.4 1.1 1.1 1.5 1.5 1.1 1.5 1.1 2.4 0 1.9-.9-.4-2.6-1.9-3.7-3.2 0-.2 0-.2-.2-.2m19.9 0h.9s.2 0 .2.2c.4.4.4.9 0 .6-.3-.1-.7-.6-1.1-.8m36.5 0h1.7c.2 0 .4.2.4.4.6.9.6 1.3 0 1.1-.6-.2-1.5-.8-2.1-1.5m32.6 0h6.1c.9.2 1.5.4 2.2.9 1.9 1.1 1.9 2.6 0 3.5-1.9.9-5.2 0-7.1-1.5-1.4-1.1-1.8-2.2-1.2-2.9m9.3 0s.2 0 .4.2c2.2 1.1 6.1 1.3 8.2.2.4-.2.6-.4.9-.4h-9.5zm-68.5 126.7c-.2-.2-.7-.4-.9-.9-.2-.2-.2-.4 0-.2.2 0 .6.4.9.7.2.2.2.4 0 .4m0-9.3c-.2-.2-.7-.4-.9-.9-.2-.2-.2-.4 0-.2.2 0 .6.4.9.7.2.2.2.4 0 .4m0-9.5c-.2 0-.7-.2-.9-.6-.2-.2-.2-.4 0-.4.2.2.6.4.9.9.2.1.2.3 0 .1m0-9.3c-.2 0-.7-.4-.9-.6-.2-.2-.2-.4 0-.4.2.2.6.4.9.9.2.1.2.3 0 .1m0-9.3c-.2 0-.7-.4-.9-.7-.2-.4-.2-.4 0-.4s.6.4.9.7c.2.4.2.6 0 .4m0-9.3c-.2-.2-.7-.4-.9-.9-.2-.2-.2-.4 0-.2.2 0 .6.4.9.7.2.4.2.4 0 .4m0-9.3c-.2-.2-.7-.4-.9-.9-.2-.2-.2-.4 0-.4l.9.9c.2.2.2.4 0 .4m0-9.3c-.2-.2-.7-.6-.9-.9-.2-.2-.2-.4 0-.4.2.2.6.4.9.9.2.2.2.4 0 .4m0-9.5c-.2 0-.7-.4-.9-.6-.2-.4-.2-.4 0-.4.2.2.6.4.9.9.2.1.2.3 0 .1m0-9.3c-.2 0-.7-.4-.9-.7-.2-.4-.2-.4 0-.4l.9.6c.2.5.2.7 0 .5m0-9.3c-.2-.2-.7-.4-.9-.9-.2-.2-.2-.4 0-.2.2 0 .6.4.9.6.2.5.2.5 0 .5m0-9.3c-.2-.2-.7-.4-.9-.9-.2-.2-.2-.4 0-.4l.9.9c.2.4.2.4 0 .4m0-9.3c-.2-.2-.7-.6-.9-.9-.2-.2-.2-.4 0-.4.2.2.6.4.9.9.2.2.2.4 0 .4m0-9.5c-.2 0-.7-.4-.9-.6-.2-.4-.2-.4 0-.4.2.2.6.4.9.9.2.1.2.3 0 .1m-8.9 117.8c-.4 0-.9-.6-1.3-1.1-.4-.4-.4-.9 0-.7.4.2.9.7 1.3 1.1.5.7.5.9 0 .7m0-9.3c-.4-.2-.9-.6-1.3-1.3-.4-.4-.4-.6 0-.6.4.2.9.9 1.3 1.3.5.4.5.6 0 .6m0-9.5c-.4 0-.9-.6-1.3-1.1-.4-.4-.4-.9 0-.6.4.2.9.6 1.3 1.1.5.6.5.8 0 .6m0-9.3c-.4-.2-.9-.6-1.3-1.3-.4-.4-.4-.6 0-.6.4.2.9.6 1.3 1.3.5.4.5.6 0 .6m0-9.5c-.4 0-.9-.6-1.3-1.1-.4-.6-.4-.9 0-.6.4 0 .9.6 1.3 1.1.5.6.5.8 0 .6m0-9.3c-.4-.2-.9-.9-1.3-1.3s-.4-.9 0-.6c.4.2.9.6 1.3 1.3.5.4.5.8 0 .6m0-9.5c-.4 0-.9-.7-1.3-1.1-.4-.6-.4-.9 0-.6.4 0 .9.6 1.3 1.1.5.6.5.8 0 .6m0-9.3c-.4-.2-.9-.9-1.3-1.3s-.4-.9 0-.6c.4.2.9.6 1.3 1.3.5.4.5.8 0 .6m0-9.5c-.4 0-.9-.6-1.3-1.3-.4-.4-.4-.6 0-.6.4.2.9.9 1.3 1.3.5.6.5.8 0 .6m0-9.3c-.4-.2-.9-.9-1.3-1.3-.4-.6-.4-.9 0-.6.4.2.9.6 1.3 1.3.5.4.5.8 0 .6m0-9.5c-.4 0-.9-.6-1.3-1.3-.4-.4-.4-.9 0-.6.4.2.9.9 1.3 1.3.5.6.5.8 0 .6m0-9.3c-.4-.2-.9-.9-1.3-1.3-.4-.6-.4-.9 0-.6.4.2.9.6 1.3 1.3.5.4.5.8 0 .6m0-9.5c-.4 0-.9-.6-1.3-1.3-.4-.4-.4-.9 0-.6.4.2.9.9 1.3 1.3.5.6.5.8 0 .6m-8.4 110.2c-.6-.2-1.9-1.3-2.6-1.9-.6-.9-.6-1.5 0-1.3.6.2 1.9 1.1 2.6 1.9.7 1.1.7 1.5 0 1.3m0-9.5c-.6-.2-1.9-1.1-2.6-1.9-.6-1.1-.6-1.5 0-1.3.6.2 1.9 1.1 2.6 2.2.7.8.7 1.2 0 1m0-9.5c-.6-.2-1.9-1.1-2.6-2.2-.6-.9-.6-1.3 0-1.1.6.2 1.9 1.1 2.6 2.2.7.9.7 1.3 0 1.1m0-9.5c-.6-.2-1.9-1.1-2.6-1.9-.6-1.1-.6-1.5 0-1.3.6.2 1.9 1.1 2.6 2.2.7.8.7 1.4 0 1m0-9.5c-.6-.2-1.9-1.1-2.6-2.2-.6-.9-.6-1.3 0-1.1.6.2 1.9 1.1 2.6 2.2.7.9.7 1.5 0 1.1m0-9.3c-.6-.4-1.9-1.3-2.6-2.4-.6-.9-.6-1.3 0-1.1.6.2 1.9 1.1 2.6 2.2.7.9.7 1.5 0 1.3m0-9.5c-.6-.4-1.9-1.3-2.6-2.4-.6-.9-.6-1.3 0-1.1.6.2 1.9 1.3 2.6 2.2.7 1.1.7 1.5 0 1.3m0-9.5c-.6-.4-1.9-1.3-2.6-2.4-.6-.9-.6-1.3 0-1.1.6.2 1.9 1.3 2.6 2.2.7 1 .7 1.5 0 1.3m0-9.5c-.6-.2-1.9-1.3-2.6-2.4-.6-.9-.6-1.5 0-1.1.6.2 1.9 1.3 2.6 2.2.7 1 .7 1.5 0 1.3m0-9.6c-.6-.2-1.9-1.3-2.6-2.4-.6-.9-.6-1.5 0-1.1.6.2 1.9 1.3 2.6 2.2.7 1.1.7 1.6 0 1.3m0-9.5c-.6-.2-1.9-1.3-2.6-2.4-.6-.9-.6-1.5 0-1.1.6.2 1.9 1.3 2.6 2.4.7.9.7 1.6 0 1.1m0-9.5c-.6-.2-1.9-1.3-2.6-2.4-.6-.9-.6-1.5 0-1.1.6.2 1.9 1.3 2.6 2.4.7.9.7 1.6 0 1.1m0-9.5c-.6-.2-1.9-1.3-2.6-2.4-.6-.9-.6-1.5 0-1.1.6.2 1.9 1.3 2.6 2.4.7.9.7 1.5 0 1.1m-8.6 121.9c-.9-.2-2.6-1.5-3.7-2.6-.9-1.3-.9-2.2 0-1.9 1.1.2 2.8 1.5 3.7 2.6 1 1.3 1 2.1 0 1.9m0-9.7c-.9-.2-2.6-1.3-3.7-2.6-.9-1.3-.9-1.9 0-1.7 1.1.2 2.8 1.3 3.7 2.6 1 1 1 1.9 0 1.7m0-9.5c-.9-.4-2.6-1.5-3.7-2.8-.9-1.1-.9-1.9 0-1.7 1.1.2 2.8 1.3 3.7 2.6 1 1.2 1 2.1 0 1.9m0-9.7c-.9-.2-2.6-1.5-3.7-2.8-.9-1.1-.9-1.9 0-1.7 1.1.2 2.8 1.5 3.7 2.8 1 1.2 1 2.1 0 1.7m0-9.6c-.9-.4-2.6-1.5-3.7-2.8-.9-1.3-.9-2.2 0-1.9 1.1.4 2.8 1.7 3.7 2.8 1 1.3 1 2.2 0 1.9m0-9.7c-.9-.2-2.6-1.5-3.7-2.8-.9-1.3-.9-2.2 0-1.7 1.1.2 2.8 1.5 3.7 2.8 1 1.3 1 2.1 0 1.7m0-9.5c-.9-.4-2.6-1.7-3.7-2.8-.9-1.3-.9-2.2 0-1.9 1.1.2 2.8 1.5 3.7 2.8 1 1.5 1 2.1 0 1.9m0-9.7c-.9-.2-2.6-1.5-3.7-2.8-.9-1.3-.9-2.2 0-1.9 1.1.4 2.8 1.7 3.7 3 1 1.2 1 2.1 0 1.7m0-9.5c-.9-.4-2.6-1.7-3.7-3-.9-1.3-.9-2.2 0-1.7 1.1.2 2.8 1.5 3.7 2.8 1 1.4 1 2.3 0 1.9m0-9.8c-.9-.2-2.6-1.5-3.7-2.8-.9-1.3-.9-2.2 0-1.9 1.1.4 2.8 1.7 3.7 3 1 1.3 1 2.2 0 1.7m0-9.5c-.9-.4-2.6-1.7-3.7-3-.9-1.3-.9-2.2 0-1.9 1.1.4 2.8 1.7 3.7 3.2 1 1.3 1 2.2 0 1.7m0-9.7c-.9-.2-2.6-1.7-3.7-3-.9-1.3-.9-2.2 0-1.7 1.1.2 2.8 1.7 3.7 3 1 1.5 1 2.1 0 1.7m0-9.5c-.9-.4-2.6-1.7-3.7-3.2-.9-1.3-.9-1.9 0-1.7 1.1.4 2.8 1.7 3.7 3.2 1 1.3 1 2.1 0 1.7m-8.5 114.6c-1.3 0-3.5-1.1-4.8-2.6-1.5-1.3-1.5-2.4 0-2.4 1.3 0 3.5 1.3 4.8 2.6 1.3 1.3 1.3 2.4 0 2.4m0-9.8c-1.3 0-3.5-1.3-4.8-2.6-1.5-1.5-1.5-2.4 0-2.4 1.3 0 3.5 1.1 4.8 2.6 1.3 1.3 1.3 2.4 0 2.4m0-9.7c-1.3 0-3.5-1.3-4.8-2.6-1.5-1.5-1.5-2.6 0-2.6 1.3.2 3.5 1.3 4.8 2.8 1.3 1.3 1.3 2.4 0 2.4m0-9.7c-1.3 0-3.5-1.3-4.8-2.8-1.5-1.3-1.5-2.6 0-2.4 1.3 0 3.5 1.3 4.8 2.8 1.3 1.3 1.3 2.4 0 2.4m0-9.8c-1.3-.2-3.5-1.5-4.8-2.8-1.5-1.5-1.5-2.6 0-2.6 1.3.2 3.5 1.5 4.8 3 1.3 1.6 1.3 2.7 0 2.4m0-9.7c-1.3-.2-3.5-1.5-4.8-3-1.5-1.5-1.5-2.6 0-2.4 1.3.2 3.5 1.5 4.8 3 1.3 1.6 1.3 2.6 0 2.4m0-9.7c-1.3-.2-3.5-1.5-4.8-3-1.5-1.5-1.5-2.6 0-2.6 1.3.2 3.5 1.7 4.8 3.2 1.3 1.5 1.3 2.6 0 2.4m0-9.7c-1.3-.2-3.5-1.7-4.8-3.2-1.5-1.5-1.5-2.6 0-2.4 1.3.2 3.5 1.7 4.8 3.2 1.3 1.5 1.3 2.6 0 2.4m0-9.8c-1.3-.2-3.5-1.7-4.8-3.2-1.5-1.5-1.5-2.6 0-2.6 1.3.4 3.5 1.9 4.8 3.5 1.3 1.5 1.3 2.6 0 2.3m0-9.7c-1.3-.2-3.5-1.7-4.8-3.5-1.5-1.5-1.5-2.6 0-2.4 1.3.2 3.5 1.7 4.8 3.5 1.3 1.6 1.3 2.6 0 2.4m0-9.7c-1.3-.2-3.5-1.9-4.8-3.5-1.5-1.5-1.5-2.6 0-2.4 1.3.2 3.5 1.7 4.8 3.5 1.3 1.5 1.3 2.6 0 2.4m0-9.7c-1.3-.4-3.5-1.9-4.8-3.5-1.5-1.7-1.5-2.8 0-2.6 1.3.4 3.5 1.9 4.8 3.7 1.3 1.5 1.3 2.6 0 2.4m0-9.8c-1.3-.4-3.5-1.9-4.8-3.7-1.5-1.5-1.5-2.6 0-2.4 1.3.2 3.5 1.9 4.8 3.7 1.3 1.6 1.3 2.7 0 2.4m-8.6 117.4c1.7 0 1.7-1.5 0-3.2-1.5-1.5-4.3-2.6-5.8-2.2-1.7.4-1.7 1.7 0 3 1.5 1.3 4.3 2.4 5.8 2.4m0-9.9c-1.5 0-4.3-1.1-5.8-2.4-1.7-1.3-1.7-2.8 0-3 1.5-.4 4.3.6 5.8 2.4 1.7 1.7 1.7 3 0 3m0-10c-1.5 0-4.3-1.1-5.8-2.4-1.7-1.3-1.7-2.8 0-3 1.5-.4 4.3.6 5.8 2.4 1.7 1.7 1.7 3 0 3m0-9.7c-1.5-.2-4.3-1.3-5.8-2.6-1.7-1.5-1.7-2.8 0-3 1.5-.4 4.3.6 5.8 2.4 1.7 1.7 1.7 3.2 0 3.2m0-10c-1.5-.2-4.3-1.3-5.8-2.6-1.7-1.5-1.7-3 0-3.2 1.5-.2 4.3.9 5.8 2.8 1.7 1.7 1.7 3 0 3m0-9.9c-1.5 0-4.3-1.3-5.8-2.6-1.7-1.5-1.7-3 0-3.2 1.5-.2 4.3 1.1 5.8 2.8 1.7 1.7 1.7 3.2 0 3m0-9.7c-1.5-.2-4.3-1.5-5.8-3-1.7-1.5-1.7-2.8 0-3 1.5-.2 4.3 1.1 5.8 2.8 1.7 1.9 1.7 3.2 0 3.2m0-10c-1.5-.2-4.3-1.5-5.8-3-1.7-1.5-1.7-3 0-3 1.5-.2 4.3 1.1 5.8 3 1.7 1.7 1.7 3 0 3m0-9.9c-1.5-.2-4.3-1.5-5.8-3-1.7-1.5-1.7-3 0-3 1.5-.2 4.3 1.3 5.8 3 1.7 1.7 1.7 3.2 0 3m0-9.9c-1.5 0-4.3-1.5-5.8-3-1.7-1.7-1.7-3 0-3 1.5-.2 4.3 1.3 5.8 3 1.7 1.9 1.7 3.2 0 3m0-9.8c-1.5-.2-4.3-1.7-5.8-3.2-1.7-1.7-1.7-3.2 0-3.2 1.5 0 4.3 1.5 5.8 3.5 1.7 1.6 1.7 3.1 0 2.9m0-9.9c-1.5-.2-4.3-1.7-5.8-3.2-1.7-1.9-1.7-3.2 0-3.2 1.5 0 4.3 1.5 5.8 3.5 1.7 1.8 1.7 3.1 0 2.9m0-10c-1.5-.2-4.3-1.7-5.8-3.5-1.7-1.7-1.7-3.2 0-3 1.5 0 4.3 1.5 5.8 3.5 1.7 2 1.7 3.5 0 3m-8.4 110.7c1.9-.4 1.9-2.2 0-3.7s-5.2-2.4-7.1-1.9c-1.9.9-1.9 2.6 0 3.7 1.9 1.5 5.1 2.3 7.1 1.9m0-10.2c1.9-.2 1.9-1.9 0-3.7-1.9-1.5-5.2-2.4-7.1-1.9-1.9.9-1.9 2.6 0 3.7 1.9 1.7 5.1 2.6 7.1 1.9m0-9.9c1.9-.4 1.9-1.9 0-3.7-1.9-1.7-5.2-2.6-7.1-2.2-1.9.9-1.9 2.6 0 3.7 1.9 1.8 5.1 2.6 7.1 2.2m0-10.2c1.9-.2 1.9-1.9 0-3.7-1.9-1.5-5.2-2.6-7.1-2.2-1.9.9-1.9 2.6 0 3.7 1.9 1.8 5.1 2.7 7.1 2.2m0-9.9c1.9-.2 1.9-1.9 0-3.7-1.9-1.7-5.2-2.8-7.1-2.4-1.9.9-1.9 2.6 0 3.7 1.9 1.8 5.1 2.8 7.1 2.4m0-9.9c1.9-.2 1.9-1.9 0-3.9-1.9-1.5-5.2-2.6-7.1-2.4-1.9.9-1.9 2.6 0 3.9 1.9 1.5 5.1 2.6 7.1 2.4m0-10.2c1.9-.2 1.9-1.7 0-3.7-1.9-1.7-5.2-2.8-7.1-2.6-1.9.9-1.9 2.4 0 3.9 1.9 1.7 5.1 2.8 7.1 2.4m0-9.9c1.9-.2 1.9-1.9 0-3.7-1.9-1.7-5.2-3-7.1-2.8-1.9.9-1.9 2.4 0 3.9 1.9 1.7 5.1 2.8 7.1 2.6m0-10.2c1.9 0 1.9-1.7 0-3.7-1.9-1.7-5.2-3-7.1-2.6-1.9.4-1.9 2.2 0 3.7 1.9 1.7 5.1 3 7.1 2.6m0-9.9c1.9 0 1.9-1.7 0-3.7-1.9-1.7-5.2-3-7.1-2.8-1.9.4-1.9 2.2 0 3.7 1.9 1.7 5.1 3 7.1 2.8m0-10.2c1.9 0 1.9-1.5 0-3.7-1.9-1.7-5.2-3-7.1-2.8-1.9.4-1.9 2.2 0 3.7 1.9 1.9 5.1 3 7.1 2.8m0-9.9c1.9 0 1.9-1.7 0-3.7-1.9-1.9-5.2-3.2-7.1-3-1.9.4-1.9 2.2 0 3.7 1.9 1.9 5.1 3.2 7.1 3m-8.7 113.6c2.4-1.1 2.4-3 0-4.5-2.2-1.1-5.8-1.1-8.2.2-2.2 1.3-2.2 3.2 0 4.3 2.4 1.1 6.1 1.1 8.2 0m0-10.3c2.4-.9 2.4-2.8 0-4.3-2.2-1.3-5.8-1.3-8.2 0-2.2 1.3-2.2 3.2 0 4.3 2.4 1.3 6.1 1.3 8.2 0m0-10.2c2.4-.9 2.4-2.8 0-4.3-2.2-1.3-5.8-1.5-8.2-.2-2.2 1.3-2.2 3.2 0 4.5 2.4 1.1 6.1 1.3 8.2 0m0-10.1c2.4-.6 2.4-2.6 0-4.3-2.2-1.3-5.8-1.5-8.2-.4-2.2 1.3-2.2 3.2 0 4.5 2.4 1 6.1 1.2 8.2.2m0-10.2c2.4-.6 2.4-2.6 0-4.3-2.2-1.5-5.8-1.7-8.2-.4-2.2 1.1-2.2 3 0 4.3 2.4 1.3 6.1 1.5 8.2.4m0-10.2c2.4-.6 2.4-2.6 0-4.3-2.2-1.5-5.8-1.7-8.2-.6-2.2 1.1-2.2 3 0 4.3 2.4 1.3 6.1 1.5 8.2.6m0-10.1c2.4-.6 2.4-2.6 0-4.3-2.2-1.5-5.8-1.9-8.2-.9-2.2 1.1-2.2 3 0 4.3 2.4 1.5 6.1 1.7 8.2.9m0-10.2c2.4-.6 2.4-2.6 0-4.3-2.2-1.7-5.8-2.2-8.2-1.1-2.2 1.1-2.2 3 0 4.5 2.4 1.4 6.1 1.8 8.2.9m0-10.1c2.4-.6 2.4-2.6 0-4.3-2.2-1.7-5.8-2.2-8.2-1.3-2.2 1.1-2.2 3 0 4.5 2.4 1.3 6.1 1.7 8.2 1.1m0-10.2c2.4-.6 2.4-2.6 0-4.3-2.2-1.7-5.8-2.4-8.2-1.3-2.2.9-2.2 2.8 0 4.3 2.4 1.5 6.1 1.9 8.2 1.3m0-10.2c2.4-.4 2.4-2.4 0-4.3-2.2-1.9-5.8-2.6-8.2-1.5-2.2.9-2.2 3 0 4.3 2.4 1.5 6.1 2.2 8.2 1.5m0-10.1c2.4-.4 2.4-2.4 0-4.3-2.2-1.9-5.8-2.6-8.2-1.7-2.2.9-2.2 3 0 4.3 2.4 1.5 6.1 2.3 8.2 1.7m-18.8 104.4c-1.1.9-2.4 1.3-3.7 1.7.2.9.2 1.5-.2 2.6 1.1-.4 2.2-.9 3.2-.9-.6-.8-.4-2.1.7-3.4m0-10.4c-1.1.6-2.4 1.3-3.7 1.5.2.9.2 1.7-.2 2.6 1.1-.4 2.2-.6 3.2-.9-.6-.8-.4-1.9.7-3.2m0-10.6c-1.1.7-2.4 1.3-3.7 1.5.2.9.2 1.7-.2 2.6 1.1-.4 2.2-.6 3.2-.6-.6-.9-.4-2.2.7-3.5m0-10.6c-1.1.6-2.4 1.3-3.7 1.7.3.7.3 1.6-.2 2.4 1.1-.4 2.2-.6 3.2-.6-.6-.9-.4-2.2.7-3.5m0-10.4c-1.1.6-2.4 1.1-3.7 1.5.2.7.2 1.5-.2 2.4 1.1-.2 2.2-.4 3.2-.6-.6-.9-.4-2.2.7-3.3m0-10.5c-1.1.6-2.4 1.1-3.7 1.5.3.6.3 1.5-.2 2.3 1.1-.2 2.2-.4 3.2-.6-.6-.9-.4-1.9.7-3.2m0-10.6c-1.1.6-2.4 1.3-3.7 1.5.2.6.2 1.5-.2 2.4 1.1-.2 2.2-.4 3.2-.4-.6-.9-.4-2.2.7-3.5m0-10.4c-1.1.6-2.4 1.1-3.7 1.3.2.9.2 1.5-.2 2.6 1.1-.4 2.2-.6 3.2-.6-.6-.9-.4-2.2.7-3.3m0-10.6c-1.1.6-2.4 1.1-3.7 1.3.2.9.2 1.7-.2 2.6 1.1-.4 2.2-.6 3.2-.6-.6-.9-.4-2 .7-3.3m0-10.6c-1.1.6-2.4 1.1-3.7 1.3.3.9.3 1.7-.2 2.6 1.1-.4 2.2-.4 3.2-.4-.6-1.1-.4-2.2.7-3.5m0-10.4c-1.1.4-2.4.9-3.7 1.3.2.6.2 1.5-.2 2.4 1.1-.2 2.2-.4 3.2-.4-.6-.9-.4-2.2.7-3.3m0-10.6c-1.1.7-2.4 1.1-3.7 1.3.3.7.3 1.6-.2 2.4 1.1-.2 2.2-.4 3.2-.4-.6-.9-.4-2.2.7-3.3m87.8.5l.9.9c.2.4.2.4 0 .4l-.9-.9c-.2-.2-.2-.4 0-.4m0 9.3l.9.9c.2.2.2.4 0 .4l-.9-.9c-.2-.2-.2-.4 0-.4m0 9.3l.9.9c.2.2.2.4 0 .4-.2-.2-.6-.4-.9-.9-.2-.2-.2-.4 0-.4m0 9.3l.9.9c.2.2.2.4 0 .4l-.9-.9c-.2-.2-.2-.4 0-.4m0 9.3c.2.2.6.4.9.9.2.2.2.4 0 .4-.2-.2-.6-.7-.9-.9-.2-.2-.2-.4 0-.4m0 9.2c.2.2.6.4.9.9.2.2.2.4 0 .4l-.9-.9c-.2-.1-.2-.4 0-.4m0 9.3l.9.9c.2.2.2.4 0 .4l-.9-.9c-.2-.1-.2-.4 0-.4m0 9.3c.2.2.6.4.9.9.2.2.2.4 0 .4l-.9-.9c-.2-.1-.2-.4 0-.4m0 9.3c.2.2.6.4.9.9.2.2.2.4 0 .2-.2 0-.6-.4-.9-.7-.2-.4-.2-.4 0-.4m0 9.3c.2 0 .6.4.9.9.2.2.2.4 0 .2-.2 0-.6-.4-.9-.6-.2-.5-.2-.5 0-.5m0 9.3c.2 0 .6.4.9.9.2.2.2.4 0 .2-.2 0-.6-.4-.9-.6-.2-.3-.2-.5 0-.5m0 9.3c.2 0 .6.4.9.6.2.4.2.6 0 .4-.2 0-.6-.4-.9-.6-.2-.4-.2-.4 0-.4m0 9.3c.2 0 .6.4.9.9.2.2.2.4 0 .2-.2 0-.6-.4-.9-.6-.2-.5-.2-.5 0-.5m0 9.3c.2 0 .6.4.9.6.2.4.2.6 0 .4-.2 0-.6-.4-.9-.6-.2-.4-.2-.6 0-.4m8.8-116.9c.4.2 1.1.9 1.3 1.3.4.6.4.9 0 .6-.2-.2-.9-.6-1.3-1.3-.4-.4-.4-.6 0-.6m0 9.3c.4.2 1.1.9 1.3 1.3.4.4.4.9 0 .7-.2-.2-.9-.7-1.3-1.3-.4-.5-.4-.7 0-.7m0 9.3c.4.2 1.1.9 1.3 1.3.4.4.4.9 0 .6-.2-.2-.9-.6-1.3-1.3-.4-.4-.4-.6 0-.6m0 9.2c.4.2 1.1.9 1.3 1.3.4.4.4.9 0 .6l-1.3-1.3c-.4-.3-.4-.8 0-.6m0 9.3c.4.2 1.1.7 1.3 1.3.4.4.4.9 0 .6l-1.3-1.3c-.4-.3-.4-.8 0-.6m0 9.3c.4.2 1.1.6 1.3 1.3.4.4.4.9 0 .6l-1.3-1.3c-.4-.3-.4-.8 0-.6m0 9.3c.4.2 1.1.6 1.3 1.3.4.4.4.6 0 .6l-1.3-1.3c-.4-.4-.4-.8 0-.6m0 9.3c.4.2 1.1.6 1.3 1.3.4.4.4.6 0 .6l-1.3-1.3c-.4-.4-.4-.8 0-.6m0 9.3c.4 0 1.1.7 1.3 1.3.4.4.4.6 0 .6l-1.3-1.3c-.4-.6-.4-.8 0-.6m0 9.3c.4 0 1.1.7 1.3 1.1.4.6.4.9 0 .9l-1.3-1.3c-.4-.7-.4-.9 0-.7m0 9.3c.4 0 1.1.6 1.3 1.1.4.6.4.9 0 .6-.2 0-.9-.6-1.3-1.1-.4-.6-.4-.8 0-.6m0 9.3c.4 0 1.1.6 1.3 1.1.4.6.4.9 0 .6-.2 0-.9-.6-1.3-1.1-.4-.6-.4-.8 0-.6m0 9.1c.4.2 1.1.9 1.3 1.3.4.4.4.9 0 .6-.2-.2-.9-.6-1.3-1.3-.4-.4-.4-.6 0-.6m0 9.3c.4.2 1.1.9 1.3 1.3.4.4.4.9 0 .6-.2-.2-.9-.6-1.3-1.3-.4-.4-.4-.6 0-.6m8.7-117.6c.6.2 1.7 1.1 2.4 1.9.6 1.1.6 1.5 0 1.3-.6-.2-1.7-1.1-2.4-1.9-.9-.9-.9-1.5 0-1.3m0 9.3c.6.2 1.7 1.1 2.4 1.9.6 1.1.6 1.5 0 1.3-.6-.2-1.7-1.1-2.4-2.2-.9-.6-.9-1.2 0-1m0 9.3c.6.2 1.7 1.1 2.4 1.9.6 1.1.6 1.5 0 1.3-.6-.2-1.7-1.1-2.4-2.2-.9-.8-.9-1.2 0-1m0 9.3c.6.2 1.7 1.1 2.4 1.9.6.9.6 1.5 0 1.3-.6-.2-1.7-1.1-2.4-2.2-.9-.8-.9-1.2 0-1m0 9.3c.6.2 1.7 1.1 2.4 1.9.6 1.1.6 1.5 0 1.3-.6-.2-1.7-1.1-2.4-2.2-.9-.8-.9-1.2 0-1m0 9.3c.6.2 1.7 1.1 2.4 1.9.6 1.1.6 1.5 0 1.3-.6-.2-1.7-1.1-2.4-2.2-.9-.8-.9-1.3 0-1m0 9.3c.6.2 1.7 1.1 2.4 1.9.6 1.1.6 1.5 0 1.3-.6-.2-1.7-1.3-2.4-2.2-.9-.8-.9-1.3 0-1m0 9.3c.6.2 1.7 1.1 2.4 1.9.6 1.1.6 1.5 0 1.3-.6-.2-1.7-1.3-2.4-2.2-.9-.8-.9-1.3 0-1m0 9.2c.6.2 1.7 1.1 2.4 1.9.6 1.1.6 1.5 0 1.3-.6-.2-1.7-1.3-2.4-2.2-.9-.7-.9-1.2 0-1m0 9.3c.6.2 1.7 1.1 2.4 1.9.6 1.1.6 1.5 0 1.3-.6-.2-1.7-1.3-2.4-2.2-.9-.7-.9-1.4 0-1m0 9.1c.6.4 1.7 1.3 2.4 2.2.6 1.1.6 1.5 0 1.3-.6-.2-1.7-1.3-2.4-2.2-.9-.9-.9-1.5 0-1.3m0 9.3c.6.4 1.7 1.3 2.4 2.2.6 1.1.6 1.5 0 1.3-.6-.2-1.7-1.3-2.4-2.2-.9-.9-.9-1.5 0-1.3m0 9.3c.6.2 1.7 1.3 2.4 2.2.6 1.1.6 1.5 0 1.3-.6-.2-1.7-1.3-2.4-2.2-.9-.9-.9-1.5 0-1.3m8.4-118.4c1.1.2 2.6 1.5 3.7 2.6.9 1.1.9 1.9 0 1.7-1.1-.2-2.6-1.3-3.7-2.6s-1.1-2 0-1.7m0 9.3c1.1.4 2.6 1.5 3.7 2.6.9 1.1.9 1.9 0 1.7-1.1-.2-2.6-1.3-3.7-2.6s-1.1-2 0-1.7m0 9.2c1.1.4 2.6 1.5 3.7 2.6.9 1.1.9 1.9 0 1.7-1.1 0-2.6-1.3-3.7-2.6-1.1-1.2-1.1-1.9 0-1.7m0 9.3c1.1.4 2.6 1.5 3.7 2.6.9 1.1.9 1.9 0 1.7-1.1 0-2.6-1.3-3.7-2.6-1.1-1-1.1-1.9 0-1.7m0 9.3c1.1.4 2.6 1.5 3.7 2.6.9 1.3.9 1.9 0 1.7-1.1 0-2.6-1.3-3.7-2.6-1.1-1.2-1.1-1.9 0-1.7m0 9.3c1.1.4 2.6 1.5 3.7 2.6.9 1.3.9 1.9 0 1.9-1.1-.2-2.6-1.5-3.7-2.8-1.1-1-1.1-1.9 0-1.7m0 9.3c1.1.4 2.6 1.5 3.7 2.8.9 1.1.9 1.9 0 1.7-1.1-.2-2.6-1.5-3.7-2.8-1.1-1-1.1-1.9 0-1.7m0 9.5c1.1.2 2.6 1.5 3.7 2.6.9 1.1.9 1.9 0 1.7-1.1-.2-2.6-1.5-3.7-2.6-1.1-1.2-1.1-2.1 0-1.7m0 9.3c1.1.2 2.6 1.5 3.7 2.6.9 1.1.9 1.9 0 1.7-1.1-.2-2.6-1.5-3.7-2.6-1.1-1.2-1.1-2.1 0-1.7m0 9.3c1.1.2 2.6 1.5 3.7 2.6.9 1.1.9 1.9 0 1.7-1.1-.2-2.6-1.3-3.7-2.6-1.1-1.2-1.1-2.1 0-1.7m0 9.3c1.1.2 2.6 1.5 3.7 2.6.9 1.3.9 1.9 0 1.7-1.1-.2-2.6-1.3-3.7-2.6-1.1-1.2-1.1-2.1 0-1.7m0 9.3c1.1.2 2.6 1.5 3.7 2.6.9 1.3.9 2.2 0 1.7-1.1 0-2.6-1.3-3.7-2.6s-1.1-2.1 0-1.7m0 9.3c1.1.2 2.6 1.5 3.7 2.6.9 1.3.9 2.2 0 1.7-1.1 0-2.6-1.3-3.7-2.6s-1.1-2.1 0-1.7m0 9.3c1.1.2 2.6 1.5 3.7 2.8.9 1.1.9 1.9 0 1.7-1.1-.2-2.6-1.5-3.7-2.8-1.1-1.3-1.1-2.1 0-1.7m8.4-120.2c1.5 0 3.7 1.3 5 2.6 1.3 1.5 1.3 2.6 0 2.4-1.3 0-3.5-1.3-5-2.8-1.3-1.3-1.3-2.4 0-2.2m0 9.3c1.5.2 3.7 1.5 5 2.8 1.3 1.5 1.3 2.6 0 2.4-1.3-.2-3.5-1.3-5-2.8-1.3-1.5-1.3-2.6 0-2.4m0 9.3c1.5.2 3.7 1.5 5 2.8 1.3 1.5 1.3 2.6 0 2.4-1.3 0-3.5-1.3-5-2.8-1.3-1.5-1.3-2.4 0-2.4m0 9.5c1.5.2 3.7 1.3 5 2.8 1.3 1.5 1.3 2.4 0 2.4-1.3-.2-3.5-1.5-5-2.8-1.3-1.5-1.3-2.6 0-2.4m0 9.3c1.5.2 3.7 1.5 5 2.8 1.3 1.5 1.3 2.6 0 2.4-1.3-.2-3.5-1.3-5-2.8-1.3-1.5-1.3-2.6 0-2.4m0 9.3c1.5.2 3.7 1.5 5 3 1.3 1.5 1.3 2.4 0 2.4-1.3-.2-3.5-1.5-5-3-1.3-1.5-1.3-2.6 0-2.4m0 9.5c1.5.2 3.7 1.5 5 2.8 1.3 1.5 1.3 2.6 0 2.4-1.3-.2-3.5-1.3-5-3-1.3-1.5-1.3-2.4 0-2.2m0 9.3c1.5.2 3.7 1.5 5 3 1.3 1.5 1.3 2.4 0 2.2-1.3 0-3.5-1.3-5-2.8-1.3-1.5-1.3-2.6 0-2.4m0 9.3c1.5.4 3.7 1.7 5 3 1.3 1.5 1.3 2.6 0 2.4-1.3-.2-3.5-1.5-5-3-1.3-1.5-1.3-2.6 0-2.4m0 9.5c1.5.2 3.7 1.5 5 3 1.3 1.5 1.3 2.4 0 2.2-1.3 0-3.5-1.3-5-2.8-1.3-1.7-1.3-2.6 0-2.4m0 9.3c1.5.2 3.7 1.5 5 3 1.3 1.5 1.3 2.6 0 2.4-1.3-.2-3.5-1.5-5-3-1.3-1.5-1.3-2.6 0-2.4m0 9.3c1.5.4 3.7 1.7 5 3 1.3 1.5 1.3 2.6 0 2.4-1.3-.2-3.5-1.5-5-3-1.3-1.5-1.3-2.6 0-2.4m0 9.5c1.5.2 3.7 1.5 5 3 1.3 1.5 1.3 2.6 0 2.4-1.3-.2-3.5-1.5-5-3-1.3-1.7-1.3-2.8 0-2.4m0 9.3c1.5.2 3.7 1.7 5 3 1.3 1.5 1.3 2.6 0 2.4-1.3-.2-3.5-1.5-5-3-1.3-1.5-1.3-2.6 0-2.4m8.7-121.9c-1.7.2-1.7 1.5 0 2.8 1.7 1.5 4.3 2.4 5.8 2.2 1.7-.2 1.7-1.5 0-2.8-1.5-1.5-4.1-2.4-5.8-2.2m0 9.5c1.7-.2 4.3.6 5.8 2.2 1.7 1.3 1.7 2.6 0 2.8-1.5.2-4.1-.6-5.8-2.2-1.8-1.3-1.8-2.6 0-2.8m0 9.3c1.7 0 4.3.9 5.8 2.4 1.7 1.3 1.7 2.6 0 2.8-1.5.2-4.1-.6-5.8-2.2-1.8-1.5-1.8-2.8 0-3m0 9.5c1.7-.2 4.3.9 5.8 2.2 1.7 1.5 1.7 2.8 0 3-1.5.2-4.1-.9-5.8-2.4-1.8-1.3-1.8-2.6 0-2.8m0 9.3c1.7 0 4.3 1.1 5.8 2.4 1.7 1.5 1.7 2.8 0 3-1.5.2-4.1-.9-5.8-2.4-1.8-1.5-1.8-2.8 0-3m0 9.5c1.7 0 4.3.9 5.8 2.4 1.7 1.5 1.7 2.8 0 3-1.5 0-4.1-1.1-5.8-2.6-1.8-1.3-1.8-2.8 0-2.8m0 9.5c1.7-.2 4.3.9 5.8 2.4 1.7 1.5 1.7 2.8 0 3-1.5 0-4.1-1.1-5.8-2.6-1.8-1.5-1.8-2.8 0-2.8m0 9.3c1.7 0 4.3 1.1 5.8 2.6 1.7 1.5 1.7 2.8 0 3-1.5 0-4.1-1.1-5.8-2.6-1.8-1.5-1.8-2.8 0-3m0 9.5c1.7 0 4.3 1.1 5.8 2.6 1.7 1.5 1.7 2.8 0 3-1.5 0-4.1-1.3-5.8-2.8-1.8-1.5-1.8-2.8 0-2.8m0 9.3c1.7 0 4.3 1.3 5.8 2.8 1.7 1.5 1.7 2.8 0 3-1.5 0-4.1-1.3-5.8-2.8-1.8-1.5-1.8-3 0-3m0 9.5c1.7 0 4.3 1.3 5.8 2.8 1.7 1.3 1.7 2.8 0 2.8-1.5.2-4.1-1.1-5.8-2.8-1.8-1.5-1.8-2.8 0-2.8m0 9.3c1.7.2 4.3 1.5 5.8 3 1.7 1.3 1.7 2.8 0 2.8-1.5 0-4.1-1.3-5.8-2.8-1.8-1.7-1.8-3 0-3m0 9.6c1.7 0 4.3 1.3 5.8 3 1.7 1.3 1.7 2.8 0 2.8-1.5 0-4.1-1.3-5.8-3-1.8-1.6-1.8-2.8 0-2.8m0 9.2c1.7.2 4.3 1.5 5.8 3 1.7 1.7 1.7 2.8 0 3-1.5 0-4.1-1.3-5.8-3-1.8-1.7-1.8-3 0-3m8.4-114.5c-1.9.2-1.9 1.7 0 3.5 1.9 1.5 5.2 2.4 7.1 1.5 1.9-.7 1.9-2.4 0-3.5s-5.1-1.9-7.1-1.5m0 9.5c-1.9.2-1.9 1.7 0 3.5 1.9 1.5 5.2 2.4 7.1 1.7 1.9-.9 1.9-2.4 0-3.7-1.9-1.1-5.1-1.9-7.1-1.5m0 9.5c-1.9.2-1.9 1.7 0 3.5 1.9 1.5 5.2 2.4 7.1 1.7 1.9-.9 1.9-2.4 0-3.5-1.9-1.3-5.1-2.1-7.1-1.7m0 9.5c-1.9.2-1.9 1.7 0 3.5 1.9 1.5 5.2 2.4 7.1 1.7 1.9-.7 1.9-2.2 0-3.5-1.9-1.2-5.1-2.1-7.1-1.7m0 9.5c-1.9.2-1.9 1.7 0 3.5 1.9 1.5 5.2 2.6 7.1 1.9 1.9-.9 1.9-2.4 0-3.7-1.9-1.2-5.1-2.1-7.1-1.7m0 9.5c-1.9.2-1.9 1.7 0 3.5 1.9 1.5 5.2 2.6 7.1 1.9 1.9-.6 1.9-2.4 0-3.7-1.9-1-5.1-2.1-7.1-1.7m0 9.6c-1.9.2-1.9 1.7 0 3.5 1.9 1.5 5.2 2.6 7.1 1.9 1.9-.6 1.9-2.2 0-3.5-1.9-1.3-5.1-2.4-7.1-1.9m0 9.2c-1.9.4-1.9 1.9 0 3.7 1.9 1.5 5.2 2.6 7.1 1.9 1.9-.4 1.9-2.2 0-3.5-1.9-1.2-5.1-2.3-7.1-2.1m0 9.6c-1.9.2-1.9 1.9 0 3.7 1.9 1.5 5.2 2.6 7.1 2.2 1.9-.6 1.9-2.2 0-3.5-1.9-1.6-5.1-2.7-7.1-2.4m0 9.7c-1.9 0-1.9 1.7 0 3.5 1.9 1.5 5.2 2.6 7.1 2.2 1.9-.4 1.9-2.2 0-3.5-1.9-1.6-5.1-2.6-7.1-2.2m0 9.5c-1.9 0-1.9 1.7 0 3.5 1.9 1.5 5.2 2.8 7.1 2.2 1.9-.4 1.9-1.9 0-3.5s-5.1-2.6-7.1-2.2m0 9.3c-1.9.2-1.9 1.7 0 3.7 1.9 1.7 5.2 2.8 7.1 2.4 1.9-.4 1.9-2.2 0-3.7-1.9-1.3-5.1-2.6-7.1-2.4m0 9.5c-1.9.2-1.9 1.7 0 3.7 1.9 1.7 5.2 2.8 7.1 2.4 1.9-.4 1.9-1.9 0-3.5-1.9-1.5-5.1-2.8-7.1-2.6m8.7-117.2c-2.4 1.1-2.4 2.8 0 4.1 2.2 1.3 6.1 1.5 8.2.4 2.4-1.1 2.4-3 0-4.1-2.2-1.2-6.1-1.4-8.2-.4m0 9.8c-2.4.9-2.4 2.6 0 4.1 2.2 1.3 6.1 1.3 8.2.4 2.4-1.3 2.4-3 0-4.3-2.2-1.1-6.1-1.3-8.2-.2m0 9.5c-2.4.9-2.4 2.8 0 4.1 2.2 1.3 6.1 1.5 8.2.4 2.4-1.1 2.4-2.8 0-4.1-2.2-1.3-6.1-1.5-8.2-.4m0 9.5c-2.4.9-2.4 2.8 0 4.1 2.2 1.5 6.1 1.7 8.2.7 2.4-1.1 2.4-2.8 0-4.1-2.2-1.4-6.1-1.6-8.2-.7m0 9.7c-2.4.9-2.4 2.6 0 4.1 2.2 1.3 6.1 1.5 8.2.6 2.4-1.1 2.4-3 0-4.1-2.2-1.2-6.1-1.4-8.2-.6m0 9.5c-2.4.9-2.4 2.6 0 4.1 2.2 1.5 6.1 1.7 8.2.9 2.4-1.1 2.4-3 0-4.1-2.2-1.5-6.1-1.7-8.2-.9m0 9.8c-2.4.6-2.4 2.6 0 4.1 2.2 1.3 6.1 1.7 8.2.6 2.4-.9 2.4-2.8 0-4.1-2.2-1.3-6.1-1.5-8.2-.6m0 9.5c-2.4.6-2.4 2.6 0 4.1 2.2 1.5 6.1 1.7 8.2.9 2.4-1.1 2.4-2.8 0-4.1-2.2-1.4-6.1-1.8-8.2-.9m0 9.5c-2.4.9-2.4 2.6 0 4.1 2.2 1.5 6.1 1.9 8.2 1.1 2.4-1.1 2.4-2.8 0-4.1-2.2-1.6-6.1-1.8-8.2-1.1m0 9.7c-2.4.6-2.4 2.4 0 4.1 2.2 1.5 6.1 1.9 8.2 1.1 2.4-1.1 2.4-2.8 0-4.1-2.2-1.5-6.1-2-8.2-1.1m0 9.5c-2.4.6-2.4 2.6 0 4.1 2.2 1.5 6.1 1.9 8.2 1.1 2.4-.9 2.4-2.8 0-4.1-2.2-1.3-6.1-1.7-8.2-1.1m0 9.7c-2.4.4-2.4 2.4 0 4.1 2.2 1.5 6.1 1.9 8.2 1.1 2.4-.9 2.4-2.8 0-4.1-2.2-1.5-6.1-1.9-8.2-1.1m0 9.6c-2.4.6-2.4 2.4 0 4.1 2.2 1.5 6.1 2.2 8.2 1.3 2.4-.9 2.4-2.8 0-4.1-2.2-1.6-6.1-2-8.2-1.3m18.8-108.1c1.1-.6 2.4-1.1 3.7-1.3-.2-.9 0-1.5.4-2.4-1.3.4-2.4.4-3.5.6.7.9.4 2-.6 3.1m0 9.9c1.1-.6 2.4-1.1 3.7-1.5-.2-.6 0-1.5.4-2.4-1.3.4-2.4.6-3.5.6.7.9.4 2-.6 3.3m0 9.7c1.1-.6 2.4-1.1 3.7-1.3-.2-.9 0-1.5.4-2.4-1.3.2-2.4.4-3.5.6.7.8.4 2.1-.6 3.1m0 9.8c1.1-.4 2.4-1.1 3.7-1.3-.2-.6 0-1.5.4-2.4-1.3.4-2.4.7-3.5.7.7.8.4 1.9-.6 3m0 9.9c1.1-.6 2.4-1.1 3.7-1.3-.2-.9 0-1.5.4-2.4-1.3.2-2.4.4-3.5.4.7.9.4 2-.6 3.3m0 9.7c1.1-.6 2.4-1.1 3.7-1.3-.2-.6 0-1.5.4-2.4-1.3.4-2.4.6-3.5.6.7.8.4 2.1-.6 3.1m0 10c1.1-.6 2.4-1.1 3.7-1.3-.2-.9 0-1.5.4-2.4-1.3.2-2.4.4-3.5.4.7.9.4 2-.6 3.3m0 9.7c1.1-.6 2.4-1.1 3.7-1.3-.2-.6 0-1.5.4-2.4-1.3.4-2.4.4-3.5.6.7.7.4 2-.6 3.1m0 9.7c1.1-.6 2.4-.9 3.7-1.1-.2-.9 0-1.5.4-2.4-1.3.2-2.4.4-3.5.4.7 1 .4 2.1-.6 3.1m0 10c1.1-.6 2.4-1.1 3.7-1.3-.2-.6 0-1.5.4-2.4-1.3.4-2.4.4-3.5.4.7.9.4 2-.6 3.3m0 9.7c1.1-.6 2.4-.9 3.7-1.1-.2-.9 0-1.5.4-2.4-1.3.2-2.4.4-3.5.4.7.9.4 2-.6 3.1m0 9.7c1.1-.4 2.4-.9 3.7-1.1-.2-.6 0-1.5.4-2.4-1.3.4-2.4.4-3.5.4.7 1 .4 2.1-.6 3.1"/><ellipse fill="#fff" cx="97.1" cy="100.8" rx="7.8" ry="8.7"/><defs><polyline id="c" points="-444.8,-337.9 419.2,-335.9 439.8,819.8 -467.4,817.7"/></defs><clipPath id="d"><use xlink:href="#c" overflow="visible"/></clipPath><path clip-path="url(#d)" fill="#231F20" d="M46.9 74.7c-5.3-1.7-12.1 4.7-15.4 14.5-3.2 9.7-1.6 19.1 3.7 20.8 5.3 1.7 12.1-4.7 15.4-14.5 3.2-9.7 1.6-19.1-3.7-20.8m-2.1 18.6c-.3 1-.7 2-1.1 2.9-.4 1-.9 1.9-1.4 2.7-.6 1-1.2 1.8-1.9 2.5s-1.4 1.3-2.1 1.7c-.9.5-1.7.6-2.5.4-.6-.2-1.1-.6-1.5-1.3-.4-.6-.6-1.4-.8-2.2-.1-.7-.2-1.6-.2-2.5 0-2.2.4-4.8 1.3-7.4 2.2-6.5 6.2-11 9-10.1 2.8.8 3.3 6.8 1.2 13.3"/><path clip-path="url(#d)" fill="#231F20" d="M33.5 97.4c1-1.1 2.3-2 3.4-2.9.9-.7 1.8-1.4 2.8-2.1-.1 0-.2 0-.3-.1l-6 7.5c-.1.1.2.1.3 0l6-7.5c.1-.1-.2-.1-.3-.1-.9.7-1.8 1.3-2.6 2-1.2.9-2.5 1.9-3.6 3-.1.2.2.2.3.2"/><path clip-path="url(#d)" fill="#231F20" d="M34.5 102.1c1.8-3.2 3.5-6.5 5.2-9.7h-.3l-3.7 11c0 .1.3.1.3 0l3.7-11c0-.1-.2-.1-.3 0-1.7 3.2-3.3 6.6-5.2 9.7 0 0 .2.1.3 0"/><path clip-path="url(#d)" fill="#231F20" d="M38.5 102.9c-.1-.6.1-1.3.1-1.8.1-1.2.3-2.4.5-3.6l.7-4.9h-.3l.7 8.6c0 .1.3.1.3 0l-.7-8.6c0-.1-.3-.1-.3 0-.3 1.6-.5 3.3-.7 4.9l-.5 3.4c-.1.6-.3 1.4-.1 2 0 .1.3.1.3 0"/><path clip-path="url(#d)" fill="#231F20" d="M42.4 98.8c-.9-2.1-1.8-4.3-2.7-6.5-.1 0-.2 0-.3.1l4.1 3.8c.1.1.4 0 .3-.1l-4.1-3.8s-.3-.1-.3.1l2.7 6.4c0 .1.3.1.3 0"/><path clip-path="url(#d)" fill="#231F20" d="M68.6 98.8c-4.3-.2-12.5-6-13.3-7.2-.8-1.2-5.4-11 1.3-12.9 6.7-2 23.4 14.4 23.3 17.9-.1 3.5-9.6 2.5-11.3 2.2"/><path clip-path="url(#d)" fill="#fff" d="M90.7 47.4l-.4-4.1c1.4 0 2.4-3.2 2.4-5.4 0-.8-.1-1.4-.4-1.8 0-.5-.1-1-.2-1.5-.4-2.2-1.5-5-4.9-7.8-1.2-2.8-5.9-4-7.3-4.1-1.5-.2-3.8 0-3.8 0-2.4-1.7-17.7 4.9-10.9 14.8 0 0 .3 1.8 1.1 2-1.1 1.5-.8 4.4 1.1 8 1.8 3.6 3.3 3.4 3.3 3.4l-.5.3c-3.8-1.2-11 5.2-15.6 6.3-4.5 1.1-5.1.6-10.6-7.5-.2.1-.6.3-1.1.7h.1c-.5-1.5-1.5-3.9-2.2-4.9-1.1-1.5-2.1-.9-2.8 0 0 0-1-.1-1.4 0-.3.2-.8 1.5-.8 1.5-.8 0-2.2-1.2-2.7 2l1.6-.9c.4 1.7 2.5 3.8 4.2 5.1-1.2.8-2.1 1.5-2.1 1.5l1.2 1.2s.3-.2 1.1.2c.8.3-1.6 1.3-.9 1.6.7.2 2.2.6 2.5 1.1.3.5 1.5 3.8 3.5 5.5.8.7 1.8 1.5 2.9 2.2-.2.9-10.3 15.2-10.3 15.2-.7-1.2-2.2-6-6.3-1.2-4.1 4.7.8 10.7 2.6 12.8 1.7 2.1 5.3 4.1 7.8 2.4 1.2-.5 3.4-1.9 3.9-4.6 1 .6 2.9 1 2.9 1l7.3-14s1.2-1.5 1.6 4.3c.2 3.1 3.6 10.8 8.9 12.2 1.3.3 3 .7 5 1 6.1 1 14.6 1.4 21.1-2.7 8.6-5.3 3.7-43.9-.9-45.8m-23.5 28.6c-1.1.2-5.4-9.3-5.4-9.3 2 0 4.8.2 6.3.8 1.5.7 2.5 7.8 2.5 7.8s-1.7 2-3.4.7"/><path clip-path="url(#d)" fill="#D8505C" d="M70.2 51l.5-.3c1.1-.4 2.3-.5 3.5-.4 1.3.1 2.5.4 3.1.7 1.2.7 8.3 10.3 9.6 10.9 1.3.7 2.2 0 2.2 0 .6-1.6 1.1-8.6 0-13.6 1.2-.3 1.9-.4 1.9-.4l-.2-.6c4.6 1.9 9.5 40.5.9 45.8-6.5 4-15 3.7-21.1 2.7-2-.3-3.7-.7-5-1-5.3-1.3-9.3-9.1-8.9-12.2.4-3-.1-1.8-.4-1.1-.3.7-1.3.2-1-.7.3-.9-.2-2.5-.2-2.5l-7.5 13.7s-1.9-.3-2.9-1c-.8-.4-1.7-.9-2.6-1.6-2.3-1.8-4.6-4.5-5.4-7.7 0 0 10.1-14.2 10.3-15.2h-.2c1.9 1.1 2.6 1.5 4.3 1.5 1.7 0 8.5-1.5 10.8-1.5 0 0 4.3 9.4 5.4 9.3 1.6 1.3 3.3-.6 3.3-.6s-1.1-7.4-2.6-8c.8.2 1.7.5 2.6.9.2 1.2 3.5 10.4 9.9 9.3 6.4-1.2-.7-21.9-10.3-26.4"/><path clip-path="url(#d)" fill="#231F20" d="M62.4 66.8c1.9.1 3.4.3 4.3.7.5.5 1.4 3.4 1.8 6.5-.3.2-.7.5-1 .5-.1 0-.3 0-.6-.2l-.3-.3h-.1c-.8-.7-2.4-3.7-4.1-7.2m-1.6-1s4.2 9.3 5.4 9.3c.4.3.8.5 1.2.5 1.2 0 2.1-1.1 2.1-1.1s-1-7.1-2.5-7.8c-1.4-.7-4.2-.9-6.2-.9"/><path clip-path="url(#d)" fill="#231F20" d="M73.9 21.5c.5 0 .9.1 1.1.3 0 0 1.1-.1 2.2-.1.6 0 1.2 0 1.6.1 1.5.2 6.2 1.3 7.3 4.1 3.5 2.8 4.6 5.5 4.9 7.8l.2 1.5c.3.4.4 1 .4 1.8 0 2.2-1.1 5.4-2.4 5.4l.4 4.1c4.6 1.9 9.5 40.5.9 45.8-4.1 2.5-8.9 3.3-13.5 3.3-2.7 0-5.3-.3-7.6-.7-2-.3-3.7-.7-5-1-5.3-1.3-9.3-9.1-8.9-12.2-.9-6.3-1.6-4.3-1.6-4.3l-7.5 13.7s-1.9-.3-2.9-1c-.5 2.7-2.7 4.1-3.8 4.6-.7.4-1.4.6-2.1.6-2.1 0-4.4-1.5-5.7-3-1.7-2.1-6.7-8-2.6-12.8 1.3-1.5 2.4-2 3.2-2 1.8 0 2.7 2.5 3.1 3.3 0 0 10.1-14.2 10.3-15.2-1-.7-2.1-1.6-2.9-2.2-2-1.7-3.1-5-3.5-5.5-.3-.5-1.8-.8-2.5-1.1-.7-.2 1.7-1.3.9-1.6-.4-.2-.7-.2-.9-.2h-.3l-1-1s.9-.7 2.1-1.5c-.7-.5-1.5-1.2-2.2-2-.8-.9-1.5-1.8-1.9-2.7-.1-.2-.1-.3-.1-.5l-1.6.9c.3-1.8.9-2.2 1.5-2.2.4 0 .9.2 1.2.2 0 0 .5-1.3.8-1.5.1-.1.3-.1.5-.1.4 0 .8.1.8.1.4-.5.9-.9 1.4-.9.4 0 .8.2 1.3.8l.1.2c.4.5.7 1.2 1.1 2 .4 1 .8 2 1.1 2.8h-.1l1.1-.7c2.8 4.2 4.3 6.3 5.8 7.3.7.5 1.4.6 2.2.6h.7c.6-.1 1.2-.2 1.9-.4 4.2-1 10.6-6.4 14.6-6.4.4 0 .7 0 1 .1l.5-.3c-.2 0-1.6-.2-3.3-3.4-1.8-3.6-2.1-6.5-1.1-8-.8-.2-1.1-2-1.1-2-5.9-8.8 5.7-14.9 9.9-14.9m0-1c-3.1 0-9.2 2.8-11.5 7.2-1.1 2-1.8 5.3.8 9.2.1.5.3 1.3.7 1.8-.8 1.9-.3 4.9 1.4 8.2.5 1 1 1.7 1.5 2.3-2.3.4-4.9 1.9-7.4 3.4-2.2 1.2-4.4 2.5-6.1 2.9l-1.8.4h-.6c-.6 0-1.1-.1-1.6-.5-1.3-.9-3-3.2-5.5-7l-.5-.7-.8.3s-.1 0-.2.1l-.7-1.8c-.5-1-.9-1.8-1.2-2.2l-.2-.2c-.6-.7-1.3-1.1-2-1.1-.8 0-1.4.5-1.8.8h-.4c-.4 0-.7.1-1 .2-.2.1-.5.3-1 1.3l-.6-.1c-1.9 0-2.3 2.3-2.5 3l-.4 2.1 1.8-1 .6-.3c.4.8 1 1.6 1.8 2.4l1.3 1.3c-.6.5-1 .8-1 .8l-.9.7.8.8 1.2 1.2.1.1c-.2.3-.4.6-.3 1 .1.4.4.7.8.9l.6.2c.4.1 1.2.4 1.5.5.1.1.2.4.3.6.6 1.3 1.7 3.7 3.4 5.1.7.6 1.4 1.2 2.2 1.8-1.3 2.1-5.6 8.3-8.9 12.9-.6-1.1-1.6-2.4-3.3-2.4-1.3 0-2.5.8-3.9 2.4-4.7 5.4.8 11.9 2.6 14 1.4 1.7 4 3.4 6.5 3.4 1 0 1.8-.2 2.6-.7 1.5-.7 3.2-2 4-4.1 1 .4 2 .5 2.1.6l.7.1.3-.6 5.9-10.7.2.4c.3.4.7.6 1.1.7-.2 3.6 3.9 11.5 9.7 12.9 1.8.4 3.4.8 5.1 1.1 2.7.4 5.3.7 7.8.7 5.6 0 10.3-1.2 14-3.5 6-3.7 5.4-19.5 4.9-26.1-.5-6.4-2.3-18.6-5.4-21.2l-.3-2.9c.2-.1.3-.2.5-.4 1.2-1.2 1.9-3.8 1.9-5.7 0-.9-.2-1.6-.5-2.1 0-.5-.1-.9-.2-1.4-.5-3.1-2.2-5.8-5.1-8.2-.7-1.4-2-2.5-4-3.4-1.7-.7-3.3-1.1-4.1-1.2-.5-.1-1.1-.1-1.8-.1-.8 0-1.6 0-2 .1-.2-.3-.7-.3-1.2-.3"/><path clip-path="url(#d)" fill="#231F20" d="M45.7 65.8c1.4.8 2.6 1.5 4.2 1.5 1 .1 2.1-.2 3.2-.4 2.8-.5 5.6-1.1 8.4-1.1 2 0 3.9.2 5.8.7l1.8.6c.3.1.5.1.5.4l.3.8c.7 2.1 1.8 4.1 3.3 5.7 1.5 1.7 3.6 2.9 6 2.7 1.5-.1 2.4-1.1 2.8-2.5.5-2 .1-4.2-.3-6.1-.6-2.6-1.6-5.1-2.8-7.5-2.1-4.1-5.2-8.4-9.5-10.5-.1 0-.4 0-.2.1 4.9 2.3 8.2 7.6 10.3 12.4 1.1 2.4 1.9 4.9 2.3 7.5.2 1.7.4 3.8-.6 5.3-1.4 2-4.6 1-6.2-.1-2-1.4-3.3-3.6-4.3-5.8-.3-.7-.6-1.4-.8-2.1-.1-.4-.8-.5-1.2-.6-1-.3-2-.6-3-.8-2.8-.5-5.7-.4-8.5.1-1.9.3-3.7.7-5.6.9-.7.1-1.5.2-2.2.1-1.2-.1-2.3-.9-3.4-1.5-.2 0-.5.1-.3.2"/><path clip-path="url(#d)" fill="#231F20" d="M69.7 49.9c1.2-.4 2.4-.5 3.7-.4.9.1 2.1.2 2.9.8.6.4 1.1 1.1 1.6 1.7 1.7 2 3.3 4 4.9 6 .7.8 1.3 1.6 2.1 2.4.6.6 1.1 1 2 1.1.4.1.9 0 1.3-.2.2-.1.3-.5.3-.7.3-1.3.4-2.7.4-4.1.1-3 0-6-.6-8.9 0-.1-.3-.1-.3 0 .8 3.5.8 7.3.5 10.9l-.2 1.8-.1.6c-.1.3-.2.4-.6.5-1.3.4-2.1-.7-2.9-1.5-1.7-1.9-3.3-3.9-4.9-5.9-.7-.9-1.4-1.8-2.2-2.6-.4-.4-.8-1-1.3-1.2-.9-.5-2.1-.6-3.1-.7-1.2-.1-2.4 0-3.6.4-.3 0 0 .1.1 0"/><path clip-path="url(#d)" fill="#231F20" d="M76.3 50.3l13.7-3.2s.1 0 .1-.1v-.6c0-.1-.3-.1-.3 0 0 .2 0 .6.1.6-.1 0-.2 0-.2.1l-1.2.3-4.5 1c-2.6.6-5.1 1.1-7.7 1.8-.3 0-.1.1 0 .1"/><path clip-path="url(#d)" fill="#231F20" d="M79.3 46.2c-2.1 1.1-4.2 2.2-6.3 3.2-.1.1.1.1.2.1 2.1-1 4.2-2.1 6.3-3.2.2-.1-.1-.1-.2-.1"/><path clip-path="url(#d)" fill="#231F20" d="M46.6 91.1c-5.1-.9-9.4-5.6-10.8-10.6 0-.1-.3-.1-.3 0 1.4 5 5.7 9.8 11 10.7.1 0 .3-.1.1-.1"/><path clip-path="url(#d)" fill="#231F20" d="M29.2 79.5c-.7 2.2-.1 5 .7 7.1 1.6 4.3 5.5 7 9.8 8.3.1 0 .3-.1.2-.1-4.4-1.3-8.1-4-9.8-8.4-.7-2-1.2-4.7-.6-6.8 0-.2-.3-.2-.3-.1"/><path clip-path="url(#d)" fill="#231F20" d="M66.1 75.1c-.2 1.7.4 3.6 1.2 5.1.7 1.5 1.9 2.8 3.7 2.7 0 0 .1 0 .1-.1.1-.5 0-1.2-.1-1.7-.1-.9-.3-1.9-.5-2.8-.2-1.3-.5-2.6-.8-3.9 0-.1-.3-.1-.3 0l.7 3.3c.3 1.5.7 3.1.7 4.7 0 .4 0 .4-.4.4-.5 0-1-.3-1.3-.6-.7-.6-1.2-1.5-1.6-2.3-.7-1.4-1.2-3.2-1-4.8-.1-.1-.4-.1-.4 0"/><path clip-path="url(#d)" fill="#231F20" d="M41.2 88.6c.9-1.4 1.6-2.9 2.4-4.3 1.3-2.3 2.6-4.6 4-6.9 1.1-1.8 2.3-3.7 3.9-5.1.2-.2.5-.4.7-.4.2-.1.6 1 .6 1.2.2.4.5 2.1 1.2 1.9.5-.1.3-1.5.3-1.8 0-1.2-.1-2.5 0-3.7 0-.4 0-.9.3-1.2.3-.4.8.4.9.6.2.5.3 1.1.3 1.6l-.1 2.7c0 .4-.2 1.2.1 1.6.7.7 1.4-1.6 1.5-1.9.1-.1.5.8.5.9l.2.6.2.7c.4 1.8.8 3.7 1.3 5.5 1.6 5.5 4.4 11.7 9.8 14.4.1 0 .4 0 .2-.1-5.1-2.6-7.8-8.4-9.5-13.6-.6-1.9-1.1-3.9-1.5-5.9-.1-.6-.3-1.2-.5-1.8-.1-.3-.3-.8-.7-.8-.4-.1-.5.5-.6.8-.1.4-.3.7-.5 1-.2.4-.2-.2-.2-.4l.1-2.7c0-.9.2-3.2-1.1-3.4-.8-.2-.9.7-1 1.3-.1 1.2 0 2.5 0 3.7v1.4c0 .1 0 .3-.1.4.1-.1-.3-.6-.3-.7-.3-.6-.5-1.1-.7-1.7-.1-.2-.3-.7-.5-.8-.5-.1-.9.4-1.3.6-.7.6-1.2 1.3-1.7 2-1.9 2.6-3.5 5.4-5.1 8.2-1.1 2-2.2 4.1-3.4 6-.1.1.2.1.3.1"/><path clip-path="url(#d)" fill="#231F20" d="M64.3 36.5c-.3-2 .1-4.1.7-6 1.5-4.7 5.6-7.5 10.2-8.7.2 0-.1-.1-.2-.1-4.6 1.2-8.5 3.9-10.2 8.5-.7 2-1.1 4.3-.8 6.4 0 0 .3 0 .3-.1"/><path clip-path="url(#d)" fill="#231F20" d="M78.8 21.7c-4.3.5-7.7 3.6-10.3 6.9-1.2 1.5-2.2 3.2-3.1 4.9-.6 1.1-1.1 2.2-1.4 3.3 0 .1.3.1.3 0 .8-2.7 2.4-5.3 4-7.5 2.5-3.5 6.1-7 10.6-7.5.2 0 .1-.2-.1-.1"/><path clip-path="url(#d)" fill="#231F20" d="M72.6 24.4c-.7.4-1 1.4-1.3 2.1-.4 1.2-.6 2.6-.5 3.9.1 1.5.7 2.8 1.7 3.9 1.3 1.4 3.3 2 5.1 2.3.1 0 .3-.1.1-.1-2.7-1-3.8-4.3-3.5-7 .4-4.1 4.3-6.2 7.9-6.8.2 0 .1-.2-.1-.1-3.7.6-7.3 2.6-8.1 6.5-.5 2.8.8 6.4 3.6 7.5l.1-.1c-2-.3-3.9-1-5.2-2.5-.9-1-1.4-2.4-1.5-3.8-.1-1.2.1-2.5.5-3.6.2-.7.6-1.6 1.2-2 .3-.2 0-.2 0-.2"/><path clip-path="url(#d)" fill="#231F20" d="M75.2 26.4c2.5 1.5 2 5.3 2.1 7.8.1 1.6.3 3.2 1.1 4.5.8 1.3 2 1.9 3.4 2.3 0 0 .3 0 .2-.1-2.2-2.4-2.1-5.9-2.2-9-.1-2.7-.2-5.8-2.8-7.4-.1 0-.4 0-.3.1 2.7 1.6 2.7 5.1 2.7 7.9.1 2.9.1 6.2 2.2 8.5l.2-.1c-.8-.3-1.5-.5-2.2-1-.7-.5-1.2-1.3-1.5-2.1-.6-1.5-.7-3.2-.7-4.7-.1-2.3.1-5.4-2.1-6.8l-.1.1"/><path clip-path="url(#d)" fill="#231F20" d="M91.5 35.5c.4 0 .4-.3 0-.3s-.3.3 0 .3"/><path clip-path="url(#d)" fill="#231F20" d="M80 23.1c2.1.5 4.6 1.7 4.7 4.1 0 .1.3.1.3 0-.2-2.4-2.8-3.7-4.9-4.2 0 0-.2.1-.1.1"/><path clip-path="url(#d)" fill="#231F20" d="M90.5 39.8c-.1 1.1-.7 2.1-1.5 2.8-1.2 1.2-3.5 1.1-5 .5-2.8-1.2-2.4-4.9-2.2-7.4.2-2.5.8-5.1.3-7.6-.4-2-1.7-3.6-3.6-4.2-.1 0-.4 0-.2.1 2.6.9 3.7 3.5 3.8 6.2 0 3.1-.8 6.2-.6 9.4.1 1.1.4 2.3 1.2 3 .8.8 2.4 1.3 3.5 1.2 1.2-.1 2.4-.2 3.3-1.1.7-.7 1.3-1.7 1.4-2.7-.1-.3-.4-.3-.4-.2"/><path clip-path="url(#d)" fill="#231F20" d="M86.2 26c.4 0 .4-.3 0-.3s-.4.3 0 .3"/><path clip-path="url(#d)" fill="#231F20" d="M81.7 37.2c.1-2 .6-4 1.3-5.9.4-1 .8-1.9 1.4-2.9.5-.9 1.1-1.9 2-2.5.1-.1-.2-.1-.3-.1-.8.6-1.4 1.6-1.9 2.4-.6.9-1.1 2-1.5 3-.7 1.9-1.2 3.9-1.3 6 0 .1.3.1.3 0"/><path clip-path="url(#d)" fill="#231F20" d="M86 25.9c-.5 2.1-.7 4.3-.5 6.5.1 1.7.5 3.6 1.6 4.9.6.7 1.6.9 2.5.8 1.5-.2 1.9-1.8 1.9-3.1 0-.1-.3-.1-.3 0 0 1.4-.5 3-2.1 3-1.2 0-2-.9-2.5-1.9-.7-1.5-.9-3.3-.9-4.9 0-1.8.2-3.5.6-5.2.1-.2-.2-.2-.3-.1"/><path clip-path="url(#d)" fill="#231F20" d="M86 25.9c.2 2.7.8 5.6 2.1 8.1.5.9 1.1 1.8 2.1 2 1 .2 1.2-1.6 1.3-2.3 0-.1-.3-.1-.3 0 0 .5-.1.9-.2 1.3 0 .1-.3.8-.5.8-.3 0-.6-.1-.8-.3-.9-.6-1.4-1.8-1.8-2.7-.9-2.2-1.4-4.6-1.6-6.9 0-.1-.3-.1-.3 0"/><path clip-path="url(#d)" fill="#231F20" d="M78.7 39.1c-.8 1.8-.4 4.6 1.4 5.6.8.5 2.1.5 3 .4 1-.1 1.9-.8 2.6-1.6.1-.1-.2-.1-.3 0-.8.9-1.7 1.5-2.9 1.5-1.1.1-2.3-.2-3-1.1-1-1.3-1.2-3.3-.6-4.8.1-.1-.2-.1-.2 0"/><path clip-path="url(#d)" fill="#231F20" d="M88.1 43.2c-.7 1.4-1.8 2.5-3.2 3.2-2.1 1-5.1.5-6.6-1.4-1.8-2.3-1.2-5.9-.4-8.5 0-.1-.3-.1-.3 0-.9 2.9-1.5 7.1 1.1 9.3 1.6 1.3 4.1 1.6 6 .8 1.6-.6 2.9-1.9 3.6-3.4.2-.1-.1-.1-.2 0"/><path clip-path="url(#d)" fill="#231F20" d="M73.5 36.6c-1.8 2.3-.2 2.8.2 2.8s1.5-.4 1.7-.8c0 0-.4-.8-1.9-2"/><path clip-path="url(#d)" fill="#231F20" d="M79.7 40.2c0 1 .4 2 1.1 2.7.9.9 2.3.7 3.4.4.2-.1-.1-.1-.2-.1-1.3.4-2.6.4-3.4-.8-.4-.6-.6-1.4-.6-2.2 0-.1-.3-.1-.3 0"/><path clip-path="url(#d)" fill="#231F20" d="M67.4 38.6c0-.4-.1-.7-.2-.8-.1-.2-.7-.7-1.2-1-.3.4-1.4 1.9.4 2.7.2.1 1-.9 1-.9z"/><path clip-path="url(#d)" fill="#231F20" d="M72.5 24.4c-2.3 1.9-4.2 4.2-5.8 6.8-1.1 1.7-2.2 3.6-2.8 5.6 0 .1.2.1.3 0 .4-.2 1-.4 1.4-.2.4.2.9.6 1.2.9.3.3.2.8.3 1.1.1.6.1 1.2-.1 1.7-.1.3-.3.5-.5.8-.4.5-.8.5-.4 1.1.4.7 1.5 1.1 2.3 1 .2 0 .1-.1-.1-.1-.5.1-1-.1-1.4-.4-.2-.2-.9-.7-.5-1.1.3-.2.5-.5.7-.8.5-.8.4-1.8.3-2.8-.1-.7-.8-1.1-1.4-1.4-.7-.4-1.3-.2-2 .2h.3c.5-1.9 1.6-3.7 2.6-5.4 1.6-2.6 3.5-5 5.9-6.9.1-.1-.2-.1-.3-.1"/><path clip-path="url(#d)" fill="#231F20" d="M68.3 45.6c.3.2.7.2 1.1.1 1-.2 1.9.1 2.8.4.7.2-.4.3-.7.2l-.9-.5c-.7-.1-1.5.2-2-.3-.1 0-.4 0-.3.1.3.3.8.3 1.2.4.4.1.9-.1 1.2.1.6.3 1.6.9 2.1.1v-.1l-1.9-.6c-.3-.1-.5-.1-.8-.1-.4 0-1.1.3-1.5 0l-.3.2"/><path clip-path="url(#d)" fill="#231F20" d="M73.1 96.8s20.4-35.2 23.2-36.6c3.1-.7 8.7-.4 9.8-.3 1.1 0 1.8.2 1.6 1.2-.2 1-7.5 37.9-8.7 40.4-1.1 2.5-2.3 3.2-3 3.5-.8.2-17.1 0-17.1 0l-5.8-8.2z"/><path clip-path="url(#d)" fill="#231F20" d="M70.2 37.2c.6-.5 2.3-1.5 3-.9.7.6 1.4 1.2 1.9 2 .2.3-.8.6-1 .6-.4.1-.7.1-1-.1-1-.6 0-1.9.4-2.5.1-.1-.2-.1-.3 0-.6.8-1.4 2.2-.2 2.7.7.3 2 0 2.4-.7.1-.1-.4-.5-.4-.6-.5-.6-1.2-1.4-1.8-1.7-.4-.2-1.3.1-1.7.3-.5.2-1.1.5-1.6.8-.1.1.2.2.3.1"/><path clip-path="url(#d)" fill="#231F20" d="M65.7 36.6c-.5.7-.9 1.6-.2 2.3.8.8 1.3.1 1.9-.5.1-.1-.2-.1-.3 0l-.6.6c-.2.2-.3.2-.6.1-.2-.1-.4-.3-.5-.6-.3-.6.2-1.4.5-1.8.2-.1-.1-.1-.2-.1"/><path clip-path="url(#d)" fill="#231F20" d="M69.1 92.4c-8.5 0-15.4 6.6-15.4 14.8 0 8.2 6.9 14.8 15.4 14.8s15.4-6.6 15.4-14.8c0-8.2-6.9-14.8-15.4-14.8m-3.6 20.8c-3.4 0-6.2-3-6.2-6.7s2.8-6.7 6.2-6.7c3.4 0 6.2 3 6.2 6.7s-2.8 6.7-6.2 6.7"/><path clip-path="url(#d)" fill="#231F20" d="M91.6 66.2c-1.5-.2-3.7.1-4.6 1.5-.4.5 0 1.5.1 2.1.2.7.4 1.4.9 1.9.1.1.3 0 .3 0-.7-.9-1.1-2.3-1.1-3.4 0-.7.5-1.1 1.1-1.4 1-.5 2.1-.7 3.2-.6.2 0 .3-.1.1-.1"/><path clip-path="url(#d)" fill="#231F20" d="M32.4 52c-.7.3-1.6-.1-2-1-.4-.9-.2-1.8.5-2.2l2.6-1.5.1.5c.3.9 1 1.8 1.9 2.7l-3.1 1.5z"/><path clip-path="url(#d)" fill="#231F20" d="M40.3 44.3c1.9-.7 4.1-1.4 5.7-.9 2.1.6 4.2 7.8 5.4 12.6l.2 1c-1.1.1-2 0-2.9-.6l-.1-.5c-1-4.2-2.6-10-4-10.1-.8-.1-2.1.4-3.4.9l-.5.2c-.4-.8-.8-1.6-1.1-2l-.1-.2.8-.4z"/><path clip-path="url(#d)" fill="#231F20" d="M41.8 49.4l-4.5 3.1c-.1.1.2.1.3.1l4.5-3.1c.1-.1-.2-.1-.3-.1"/><path clip-path="url(#d)" fill="#231F20" d="M86.1 25.8c-2.7 4-4.2 10.3-.1 14 1 .9 2.4 1.5 3.7.9 1.8-.7 2-3.2 2-4.8v-.5c0-.1-.3-.1-.3 0 .1 1.7 0 4.1-1.7 5.1-1.4.9-3-.2-4-1.2-3.5-3.8-2-9.6.6-13.4.1-.1-.2-.1-.2-.1"/><path clip-path="url(#d)" fill="#231F20" d="M100.3 87.9c-7.4 0-13.4 5.8-13.4 12.9 0 7.1 6 12.9 13.4 12.9s13.4-5.8 13.4-12.9c0-7.2-6-12.9-13.4-12.9m-3.1 18.2c-3 0-5.4-2.6-5.4-5.8 0-3.2 2.4-5.8 5.4-5.8 3 0 5.4 2.6 5.4 5.8-.1 3.2-2.5 5.8-5.4 5.8"/><path clip-path="url(#d)" fill="#231F20" d="M146.5 24.3c.8 0 1.4.6 1.4 1.4s-.6 1.4-1.4 1.4h-.5v2.9l.3.3c1.7-1.3 3.8-2.2 6.1-2.2 5.3 0 9.6 4.3 9.6 9.6s-4.3 9.6-9.6 9.6c-2.2 0-4.1-.7-5.7-1.9l-.6.6v5h.5c.8 0 1.4.6 1.4 1.4 0 .8-.6 1.4-1.4 1.4h-.6c0 2.4-.1 5.2-.1 8.3h.6c.8 0 1.4.2 1.4.5s-.6.5-1.4.5h-.7c-.1 12.2-.3 28.3-.5 39.2h11.7v3l-5.6.9v3l5.6 1.1v5.2h-14.4c-.9 0-1.7-.3-2-1v-51.4h-.8c-.8 0-1.4-.2-1.4-.5s.6-.5 1.4-.5h.8v-8.3h-.8c-.8 0-1.4-.6-1.4-1.4 0-.8.6-1.4 1.4-1.4h.8v-5l-.8-.7c-1.6 1.3-3.7 2-5.9 2-5.3 0-9.6-4.3-9.6-9.6s4.3-9.6 9.6-9.6c2.3 0 4.4.8 6 2.1l.6-.7v-2.5h-.8c-.8 0-1.4-.6-1.4-1.4s.6-1.4 1.4-1.4h6.8m-3.3 10.8c.4-1.2 1-2.4 1.8-3.3l-1.6-1.6-1.7 1.8c.6.9 1.2 1.9 1.5 3.1m8.9 10.4c4.1 0 7.5-3.3 7.5-7.5 0-4.1-3.3-7.5-7.5-7.5-1.6 0-3.1.5-4.3 1.4l6.2 5.9-6.1 6.3c1.2.9 2.7 1.4 4.2 1.4m-18.2 0c1.7 0 3.3-.6 4.5-1.6l-5.9-5.7 5.9-6.1c-1.3-1-2.8-1.6-4.5-1.6-4.1 0-7.5 3.4-7.5 7.5s3.4 7.5 7.5 7.5m12.5-2.8l4.8-5-4.8-4.6c-1.1 1.3-1.8 3-1.8 4.8.1 1.9.7 3.5 1.8 4.8m-6.4-.5c.8-1.2 1.3-2.7 1.3-4.2 0-1.6-.5-3.1-1.4-4.3l-4.2 4.4 4.3 4.1m3.6 3.5l1.5-1.6c-.9-1-1.6-2.2-2-3.6-.3 1.2-.9 2.3-1.6 3.2l.1.1 2 1.9m2.9-22.4h-6.7c-1.4 0-2.5 1.1-2.5 2.5 0 1.3 1 2.3 2.2 2.4v.5c-1.7-1-3.6-1.6-5.6-1.6-5.9 0-10.6 4.8-10.6 10.6 0 5.9 4.8 10.6 10.6 10.6 2 0 3.9-.5 5.6-1.6v3.2c-1.2.1-2.2 1.2-2.2 2.4 0 1.3 1 2.3 2.2 2.4v6.4c-1.4.1-2.2.7-2.2 1.6 0 .9.9 1.5 2.2 1.6v50.400000000000006l.1.2c.4 1 1.5 1.6 3 1.6h15.6v-7.200000000000001l-.9-.2-4.8-.9v-1.1l4.7-.7.9-.1v-5h-11.799999999999999c.2-8.5.3-21 .5-37.1 1.3-.1 2.1-.7 2.1-1.6 0-.9-.8-1.5-2-1.6l.1-6.2c1.1-.2 2-1.2 2-2.4s-.8-2.2-1.9-2.4v-3.1c1.6.9 3.4 1.4 5.3 1.4 5.9 0 10.6-4.8 10.6-10.6 0-5.9-4.8-10.6-10.6-10.6-1.9 0-3.7.5-5.3 1.4v-.4c1.1-.3 1.9-1.2 1.9-2.4s-1.1-2.4-2.5-2.4m3.1 8.8c.8-.3 1.7-.5 2.5-.5 3.5 0 6.4 2.9 6.4 6.4 0 3.5-2.9 6.4-6.4 6.4-.9 0-1.7-.2-2.5-.5l5.2-5.4.7-.8-.8-.7-5.1-4.9zm-15.7 12.3c-3.5 0-6.4-2.9-6.4-6.4 0-3.5 2.9-6.4 6.4-6.4 1 0 2 .2 2.9.7l-5 5.2-.7.8.8.7 5 4.8c-1.1.4-2 .6-3 .6m9.1-12.3l.4-.4.2.2c-.1.2-.2.4-.4.6-.1-.2-.1-.3-.2-.4m3.6 9c-.5-1-.8-2-.8-3.1s.3-2.2.9-3.2l3.1 3-3.2 3.3zm-9.4-3.1l2.5-2.6c.4.8.5 1.7.5 2.6 0 .9-.2 1.7-.5 2.5l-2.5-2.5zm5.7 5.5l.3-.4.6.9-.2.2-.7-.7z"/><path clip-path="url(#d)" fill="#CCC9C7" d="M134 28.1c-5.3 0-9.6 4.3-9.6 9.6s4.3 9.6 9.6 9.6 9.6-4.3 9.6-9.6-4.3-9.6-9.6-9.6m-.1 17.3c-4.1 0-7.5-3.4-7.5-7.5s3.4-7.5 7.5-7.5 7.5 3.4 7.5 7.5-3.4 7.5-7.5 7.5"/><path clip-path="url(#d)" fill="#CCC9C7" d="M152.4 28.1c-5.3 0-9.6 4.3-9.6 9.6s4.3 9.6 9.6 9.6 9.6-4.3 9.6-9.6-4.3-9.6-9.6-9.6m-.3 17.3c-4.1 0-7.5-3.4-7.5-7.5s3.4-7.5 7.5-7.5 7.5 3.4 7.5 7.5-3.3 7.5-7.5 7.5"/><path clip-path="url(#d)" fill="#CCC9C7" d="M146.1 45.9l-2.6 2.7-2.8-2.7v68.4c.6 1.4 3.6 1.2 4.2 0 .6-1.2 1.2-68.4 1.2-68.4"/><path clip-path="url(#d)" fill="#CCC9C7" d="M143.1 27.1l-10.6 11 8.2 7.9 2.8 2.7 2.6-2.7 8-8.3-11-10.6zm2.4 16.5l-1.9 1.9-2-1.9-5.9-5.7 7.6-7.9 7.9 7.6-5.7 6z"/><polygon clip-path="url(#d)" fill="#CCC9C7" points="157.1,115.4 143.2,115.4 143.2,102.3 157.1,102.3 157.1,105.2 151.5,106.1 151.5,109.1 157.1,110.2"/><path clip-path="url(#d)" fill="#231F20" d="M157.1 115.4s0-1.5-.1-5.2l.1.1c-1-.2-3.1-.5-5.6-.9h-.2v-.2c0-.5 0-1.7-.1-3v-.3h.3c1-.2 3.2-.6 5.6-1l-.4.4v-3l.5.5c-2.1 0-5.6 0-9.1.1h-4.7l.5-.5c0 5.2-.1 9.7-.2 13.1l-.3-.3c8.5 0 13.7.2 13.7.2s-5.1.2-13.9.3h-.3v-.4c-.1-3.4-.1-7.9-.2-13.1v-.5h5.2c3.6 0 7 0 9.1.1h.5v3.9h-.4c-2.4.3-4.6.6-5.6.8.1-.1.2-.3.3-.3 0 1.3-.1 2.5-.1 3-.1-.1-.2-.2-.2-.3 2.5.5 4.6 1 5.6 1.2h.1v.1c-.1 3.7-.1 5.2-.1 5.2"/><polygon clip-path="url(#d)" fill="#CCC9C7" points="146.1,30.5 143.5,29 140.7,30.5 140.7,25.7 146.1,25.7"/><path clip-path="url(#d)" fill="#CCC9C7" d="M147.9 52.4c0 .8-.6 1.4-1.4 1.4h-6.7c-.8 0-1.4-.6-1.4-1.4 0-.8.6-1.4 1.4-1.4h6.7c.8 0 1.4.6 1.4 1.4"/><path clip-path="url(#d)" fill="#231F20" d="M147.9 52.4s0-.3-.3-.8c-.2-.2-.5-.4-.8-.5-.4-.1-.8 0-1.3 0-1 0-2.2.1-3.5.1h-2.1c-.6 0-1.1.5-1.1 1.1 0 .5.5 1.1 1.1 1.1h2.1c1.3 0 2.5.1 3.5.1.5 0 1 .1 1.3 0 .4-.1.7-.3.8-.5.4-.3.3-.6.3-.6s.1.3-.2.8c-.2.2-.4.5-.9.6-.4.1-.9.1-1.4.1-1 0-2.2.1-3.5.1h-2.1c-.9 0-1.8-.7-1.8-1.7 0-.9.9-1.7 1.8-1.7h2.1c1.3 0 2.5.1 3.5.1.5 0 1 0 1.4.1.4.1.7.4.9.6.3.7.2 1 .2 1"/><path clip-path="url(#d)" fill="#CCC9C7" d="M147.9 62.6c0 .3-.6.5-1.4.5h-6.7c-.8 0-1.4-.2-1.4-.5s.6-.5 1.4-.5h6.7c.8-.1 1.4.2 1.4.5"/><path clip-path="url(#d)" fill="#CCC9C7" d="M147.9 25.7c0 .8-.6 1.4-1.4 1.4h-6.7c-.8 0-1.4-.6-1.4-1.4 0-.8.6-1.4 1.4-1.4h6.7c.8 0 1.4.6 1.4 1.4"/><path clip-path="url(#d)" fill="#231F20" d="M147.9 25.7s0-.3-.3-.8c-.2-.2-.5-.4-.8-.5-.4-.1-.8 0-1.3 0-1 0-2.2.1-3.5.1h-2.1c-.6 0-1.1.5-1.1 1.1 0 .5.5 1.1 1.1 1.1h2.1c1.3 0 2.5.1 3.5.1.5 0 1 .1 1.3 0 .4-.1.7-.3.8-.5.4-.2.3-.6.3-.6s.1.3-.2.8c-.2.2-.4.5-.9.6-.4.1-.9.1-1.4.1-1 0-2.2.1-3.5.1h-2.1c-.9 0-1.8-.7-1.8-1.7 0-.9.9-1.7 1.8-1.7h2.1c1.3 0 2.5.1 3.5.1.5 0 1 0 1.4.1.4.1.7.4.9.6.3.7.2 1 .2 1"/></svg>