<?xml version="1.0" encoding="utf-8"?>
<!-- Generator: Adobe Illustrator 18.1.1, SVG Export Plug-In . SVG Version: 6.00 Build 0)  -->
<!DOCTYPE svg PUBLIC "-//W3C//DTD SVG 1.1//EN" "http://www.w3.org/Graphics/SVG/1.1/DTD/svg11.dtd">
<svg version="1.1" id="Layer_1" xmlns="http://www.w3.org/2000/svg" xmlns:xlink="http://www.w3.org/1999/xlink" x="0px" y="0px"
	 viewBox="0 0 178.8 131.7" enable-background="new 0 0 178.8 131.7" xml:space="preserve">
<rect x="2.5" y="2.1" fill="#D8505C" width="176.3" height="129.5"/>
<g>
	<defs>
		<rect id="SVGID_3_" x="2.2" y="3.5" width="174.8" height="128.2"/>
	</defs>
	<clipPath id="SVGID_1_">
		<use xlink:href="#SVGID_3_"  overflow="visible"/>
	</clipPath>
	<path clip-path="url(#SVGID_1_)" fill="#FFFFFF" d="M63.9,83.8l0.1-3.1c-0.2-3.8-0.5-10.1-0.5-10.1c-0.7,0.3-3.8-0.8-4.2-2.6
		c-0.5-1.8-0.9-10.9,0-12.9l-0.1-0.2c-0.6-2.3-1.5-17.5,3.5-22.1c5.2-4.8,7.6-5.2,18.1-4.3h2.5c10.6-0.9,12.9-0.5,18.1,4.3
		c5.1,4.7,2.9,20.7,2.2,22.3l0.1,0.8c0.5,1.9,0,10.9-0.6,12.1c-0.6,1.2-1.6,3-3.8,2.7C99.5,72,98.2,81,98.2,81l-0.7,0.9v2.9
		c0,1,0,3.3,0,3.3l-18.5,19.8L63.9,88.2L63.9,83.8z"/>
	<path clip-path="url(#SVGID_1_)" fill="#231F20" d="M103.7,55c0.7-1.6,2.9-17.6-2.2-22.3c-5.2-4.8-7.6-5.2-18.1-4.3h-2.5
		c-10.6-0.9-12.9-0.5-18.1,4.3c-5,4.6-4.1,19.8-3.5,22.1l0.1,0.2l0,0c0.4-0.8,1.4-2.2,3.4-1.8c0,0.9,0.7,6.4,0.4,8.6h1.8
		c0,0-0.2-4.1-0.2-7.1l1.9-3.8c0,0-1.4-4.4-1.9-6.3c-0.5-1.9,0.5-3.8,0.5-3.8s2-3.9,7.7-4.4c3.4-0.1,6.4,2.2,9.3,1.9h0.1
		c2.9,0.2,5.9-2,9.3-1.9c5.7,0.5,7.7,4.4,7.7,4.4s1.1,1.9,0.5,3.8c-0.5,1.9-1.9,6.3-1.9,6.3l-0.1,0.3l1.9,4l-0.1,6.7h1.3
		c0,0,0.8-7.5,0.8-8.3C101.5,52.8,103.4,53.6,103.7,55"/>
	<path clip-path="url(#SVGID_1_)" d="M88.8,28c5.2,0,7.5,1.2,11.3,4.7c5.1,4.7,2.9,20.7,2.2,22.3l0.1,0.8c0.5,1.9,0,10.9-0.6,12.1
		c-0.6,1.1-1.5,2.7-3.3,2.7c-0.2,0-0.3,0-0.5,0C98.3,72,97,81,97,81l-0.7,0.9v2.9H98l4.9,5.7c9.4,3.4,29.4,14,29.4,14l8.5,26.5
		h-38.7h-8h-1.6H60.2h-3.9H48H14.9l13.2-29.6l32.7-15.7l1.9-2l0.1-3.1c-0.2-3.8-0.5-10.1-0.5-10.1c-0.1,0-0.2,0.1-0.3,0.1
		c-1,0-3.5-1-3.9-2.7c-0.5-1.8-0.9-10.9,0-12.9l-0.1-0.2c-0.6-2.3-1.5-17.5,3.5-22.1c3.8-3.5,6.1-4.7,11.3-4.7c1.8,0,4,0.1,6.8,0.4
		H82C84.8,28.2,87,28,88.8,28 M88.8,27L88.8,27c-1.7,0-3.7,0.1-6.8,0.4h-2.4c-3.1-0.3-5.2-0.4-6.8-0.4c-5.7,0-8.2,1.5-12,5
		c-5.3,4.9-4.5,20.3-3.8,23.1c-0.9,2.9-0.3,11.5,0.1,13.2c0.5,1.9,2.8,3.1,4.2,3.4c0.1,1.9,0.4,6.2,0.5,9.1l-0.1,2.7L60.2,85
		l-32.5,15.6l-0.2,0.1l-0.1,0.1l-13.2,29.6l-1.5,1.7h2.2H48h8.2h3.9h32.3h1.6h8h38.7h1.9l-1.1-1.6l-8.5-26.5l-0.1-0.2l-0.2-0.1
		c-0.8-0.4-19.8-10.6-29.3-14l-4.8-5.5l-0.3-0.3H98h-0.7v-1.6l0.5-0.7l0.1-0.2l0-0.2c0.2-1.3,1-6.9,1.2-9.5c2.2-0.3,3.2-2.3,3.7-3.2
		c0.8-1.6,1.2-10.7,0.7-12.7l-0.1-0.6c0.7-2.7,2.8-18.1-2.6-23.1C97.1,28.5,94.5,27,88.8,27"/>
	<polygon clip-path="url(#SVGID_1_)" fill="#231F20" points="14.9,131.1 28.1,101.5 62.9,84.8 60.2,131.1 	"/>
	<path clip-path="url(#SVGID_1_)" fill="#FFFFFF" d="M62.9,84.8l-2.7,46.2H14.9l13.3-29.6L62.9,84.8z M63.1,84.4l-0.4,0.2L28,101.3
		l0,0l0,0l-13.2,29.6l-0.4,0.4h0.6h45.3h0.2l0-0.2l2.7-46.2L63.1,84.4z"/>
	<path clip-path="url(#SVGID_1_)" fill="#231F20" d="M99.5,89.6l-7,41.5h48.4l-8.5-26.5C132.3,104.6,105.8,90.4,99.5,89.6"/>
	<path clip-path="url(#SVGID_1_)" fill="#FFFFFF" d="M99.5,89.6c6.4,0.8,32.9,15,32.9,15l8.5,26.5H92.5L99.5,89.6 M99.3,89.3l0,0.2
		l-7,41.5l-0.1,0.3h0.3h48.4h0.5l-0.3-0.4l-8.5-26.5l0,0l0,0c-1.1-0.6-26.6-14.2-33-15L99.3,89.3z"/>
	<polygon clip-path="url(#SVGID_1_)" fill="#FFFFFF" points="56.3,131.1 61.5,95.3 62,92 62.7,87.1 70.4,97 77.7,106.2 85.9,97.8 
		96.4,87.1 96.4,93 96.4,95.9 94.1,131.1 	"/>
	<polygon clip-path="url(#SVGID_1_)" fill="#231F20" points="60.2,131.1 62.9,83.6 40.3,107.9 48.1,131.1 	"/>
	<path clip-path="url(#SVGID_1_)" fill="#FFFFFF" d="M62.9,83.6l-2.7,47.5H48.1l-7.8-23.1L62.9,83.6z M63.2,82.9l-0.5,0.5
		l-22.6,24.4l-0.1,0.1l0,0.1l7.8,23.1l0.1,0.2h0.2h12.1h0.2l0-0.2l2.7-47.5L63.2,82.9z"/>
	<polygon clip-path="url(#SVGID_1_)" fill="#231F20" points="96.4,84.8 96.4,95.9 92.5,131.1 102.1,131.1 116.5,106.2 98,84.8 	"/>
	<path clip-path="url(#SVGID_1_)" fill="#FFFFFF" d="M98,84.8l18.5,21.4l-14.4,24.9h-9.7l3.9-35.2V84.8H98z M98.1,84.6H98h-1.6h-0.2
		v0.2v11.1L92.2,131l0,0.3h0.3h9.7h0.1l0.1-0.1l14.4-24.9l0.1-0.2l-0.1-0.1L98.1,84.6L98.1,84.6z"/>
	<polygon clip-path="url(#SVGID_1_)" fill="#231F20" points="96.4,95.9 96.4,93 81.8,107.3 85.7,107.3 	"/>
	<path clip-path="url(#SVGID_1_)" fill="#231F20" d="M61.5,95.3L62,92c0.9,1.2,12.2,15.9,12.2,15.9h-4.1L61.5,95.3z"/>
	<path clip-path="url(#SVGID_1_)" fill="#231F20" d="M75,107.3c0,0-9.7-4.7-12.1-4.8c-1.2,1.6-1.4,14.4,2.1,18.5
		c1-0.2,10.1-7.2,10.1-7.2c1.6,1,4.5,0.6,5.3,0c0,0,4.1,7,9.9,8.4c1.4-1.4,3.9-16.4,3.7-17.9c-0.2-1.4-10.7,1.9-13.2,3.6
		C80.8,107.9,80.3,105.4,75,107.3"/>
	<path clip-path="url(#SVGID_1_)" fill="#231F20" d="M80.3,113.8c-0.8,0.6-3.7,1-5.3,0v-6.5c5.3-2,5.8,0.6,5.8,0.6L80.3,113.8z"/>
	<polygon clip-path="url(#SVGID_1_)" fill="#FFFFFF" points="77.7,106.2 70.4,97 67.8,112.4 	"/>
	<path clip-path="url(#SVGID_1_)" fill="#231F20" d="M77.7,106.2c0,0-3.7,2.5-9.7,6.4l-0.5,0.4l0.1-0.7c0.3-1.9,0.7-4.7,1.2-7.8
		c0.5-3,1-5.8,1.4-7.6l0.1-0.7l0.4,0.5C75,102.5,77.7,106.2,77.7,106.2s-2.9-3.4-7.5-9c0.1,0,0.3-0.1,0.5-0.1
		c-0.3,1.8-0.7,4.7-1.2,7.7c-0.5,3-1,5.9-1.4,7.7c-0.2-0.1-0.4-0.2-0.4-0.3C73.8,108.4,77.7,106.2,77.7,106.2"/>
	<polygon clip-path="url(#SVGID_1_)" fill="#FFFFFF" points="85.9,97.8 77.7,106.2 86.9,112.4 	"/>
	<path clip-path="url(#SVGID_1_)" fill="#231F20" d="M85.9,97.8c0,0,0.7,5.9,1.3,14.6l0.1,0.7l-0.6-0.4c-0.8-0.5-2.1-1.4-3.4-2.3
		c-2.3-1.5-4.4-3-5.7-3.9l-0.3-0.2l0.3-0.3C82.6,100.9,85.9,97.8,85.9,97.8s-3,3.4-8,8.6c0-0.1,0-0.3,0-0.5c1.4,0.9,3.6,2.3,5.8,3.8
		c1.3,0.9,2.6,1.8,3.4,2.3c-0.2,0.1-0.4,0.3-0.5,0.3C86,103.8,85.9,97.8,85.9,97.8"/>
	<path clip-path="url(#SVGID_1_)" fill="#231F20" d="M62.8,80.7c0,0,0.2,1.1,0.3,2.9c0,0,0,0,0,0c0,1,0,2.5-0.1,4
		c-0.2,3.8-0.8,6.9-0.8,6.9s-0.2-3.1,0-6.9c0.1-1.6,0.2-3,0.4-4l0,0v0C62.7,81.8,62.8,80.7,62.8,80.7"/>
	<path clip-path="url(#SVGID_1_)" fill="#231F20" d="M96.4,95.9c0,0-0.4-3.1-0.4-7c0-3.9,0.4-7,0.4-7s0.4,3.1,0.4,7
		C96.7,92.8,96.4,95.9,96.4,95.9"/>
	<path clip-path="url(#SVGID_1_)" fill="#231F20" d="M98.8,63.9c0,0-0.2,2.1-0.5,6.8v0c0,2.2-0.5,5.9-1,10.4l0,0.1l0,0
		c-0.1,0.1-0.4,0.5-0.7,0.9l0,0l0,0c-2.7,3.2-6.9,8.1-11.6,13.5l-0.1,0.1h-0.2c-1,0-2.7,0-4.5,0c-1.3,0-2.6,0-3.8,0h-0.2l-0.1-0.1
		c-1.3-1.5-2.5-3-3.7-4.4c-0.6-0.7-1.2-1.4-1.8-2.1c-0.3-0.3-0.6-0.7-0.9-1c-0.3-0.3-0.6-0.6-0.9-0.9c-2.4-2.4-4.6-4.4-6.3-6.3
		l0-0.1l0-0.1c-0.2-5.3-0.4-9.5-0.5-12.4c0-1.4,0-2.6,0.1-3.3c0-0.4,0.1-0.7,0.1-0.8c0-0.2,0-0.3,0-0.3s0,0.1,0,0.3
		c0,0.2-0.1,0.5-0.1,0.9c-0.1,0.7,0,1.9,0.1,3.3c0.2,2.9,0.5,7.1,0.8,12.4c0,0,0-0.1,0-0.1c1.7,1.8,4,3.8,6.4,6.2
		c0.3,0.3,0.6,0.6,0.9,0.9c0.3,0.3,0.6,0.7,0.9,1c0.6,0.7,1.2,1.4,1.8,2.1c1.2,1.4,2.5,2.9,3.8,4.4c-0.1,0-0.2-0.1-0.3-0.1
		c1.1,0,2.4,0,3.8,0c1.7,0,3.5,0,4.5,0c-0.1,0.1-0.2,0.1-0.3,0.1c4.7-5.4,9-10.2,11.8-13.3c0,0,0,0,0,0c0.3-0.4,0.6-0.8,0.7-0.9
		c0,0,0,0.1,0,0.1c0.7-4.5,1.2-8.1,1.3-10.3v0C98.6,66,98.8,63.9,98.8,63.9"/>
	<path clip-path="url(#SVGID_1_)" fill="#231F20" d="M78.5,71.7c0,0-0.2-4-0.3-9.9c0,0,0.1,0.2,0.1,0.3c-0.6-0.5-1.7-1.3-2.7-2.1
		c-1.5-1.1-2.8-2.2-4.1-3.1c-0.6-0.5-1.2-0.9-1.8-1.3c-0.3-0.2-0.6-0.4-0.8-0.5c-0.1,0-0.1-0.1-0.2-0.1l-0.1,0l-0.1,0c0.1,0,0,0,0,0
		c0,0-0.2,0.1-0.3,0.2c-0.9,0.8-1.5,1.6-1.9,2.1c-0.4,0.5-0.7,0.8-0.7,0.8s0.2-0.3,0.6-0.9c0.4-0.6,0.9-1.4,1.8-2.3
		c0.1-0.1,0.2-0.2,0.5-0.3c0,0,0,0,0.1,0l0.1,0l0.1,0c0.1,0,0.2,0,0.2,0.1c0.4,0.1,0.7,0.3,1,0.5c0.6,0.4,1.3,0.8,1.9,1.2
		c1.3,0.9,2.8,1.9,4.2,3c1.1,0.8,2.1,1.6,2.7,2.1l0.1,0.1l0,0.2C78.7,67.7,78.5,71.7,78.5,71.7"/>
	<path clip-path="url(#SVGID_1_)" fill="#FFFFFF" d="M84.4,84.8c1.7-1.6,1.7-5.8,1.7-7H75.6c-0.2,1.7,0,4.7,1.6,7H84.4z"/>
	<path clip-path="url(#SVGID_1_)" fill="#231F20" d="M78.5,74.6c0,0,0.1,0.1,0.4,0.2c0.1,0.1,0.3,0.1,0.4,0.2
		c0.2,0.1,0.4,0.1,0.6,0.1c0.5,0.1,1.1,0.1,1.7-0.1c0.6-0.2,1.3-0.7,1.6-1.4c0,0,0,0,0,0.1c-0.1-2.7-0.2-6.6-0.2-10.8v-0.9v-0.2
		l0.2-0.1c4.4-2.6,8.2-4.7,10.2-5.8l0.1-0.1l0.1,0.1c1.6,2.2,2.3,3.2,2.3,3.2s-0.8-0.9-2.6-3c0,0,0.1,0,0.2,0
		c-1.9,1.2-5.6,3.6-10,6.2c0.1-0.1,0.1-0.2,0.2-0.3v0.9c0,4.2-0.1,8.1-0.2,10.8v0l0,0c-0.4,0.9-1.2,1.3-1.9,1.6
		c-0.7,0.2-1.3,0.2-1.8,0c-0.2-0.1-0.5-0.1-0.6-0.2c-0.2-0.1-0.3-0.2-0.4-0.2C78.6,74.6,78.5,74.6,78.5,74.6"/>
	<path clip-path="url(#SVGID_1_)" fill="#231F20" d="M77.6,74.1c0,0,0,0-0.1,0.1c-0.1,0.1-0.2,0.2-0.4,0.3c-0.2,0.1-0.5,0.2-0.8,0.2
		c-0.4,0-0.7-0.4-0.8-0.8c-0.2-0.8,0-1.3,0.2-1.7c0.2-0.4,0.4-0.6,0.4-0.6c0,0-0.1,1.1,0.2,2.1c0.1,0.2,0.2,0.3,0.3,0.4
		c0.2,0.1,0.4,0.1,0.6,0.1c0.2,0,0.4,0,0.5-0.1C77.5,74.2,77.6,74.1,77.6,74.1"/>
	<path clip-path="url(#SVGID_1_)" fill="#231F20" d="M77.3,84.8l-6.2-7h4.5C75.4,79.6,75.6,82.5,77.3,84.8"/>
	<path clip-path="url(#SVGID_1_)" fill="#231F20" d="M86.1,77.8H90l-5.6,7C86.1,83.2,86.1,79.1,86.1,77.8"/>
	<path clip-path="url(#SVGID_1_)" fill="#231F20" d="M83.4,73.5c0,0,0.1,0,0.2,0.1c0.1,0.1,0.3,0.2,0.6,0.2c0.2,0.1,0.5,0.1,0.7,0.1
		c0.1,0,0.2-0.3,0.1-0.7c0-0.7-0.2-1.4-0.4-1.8c-0.1-0.2-0.2-0.4-0.2-0.6c-0.1-0.1-0.1-0.2-0.1-0.2s0.1,0.1,0.2,0.1
		c0.1,0.1,0.3,0.2,0.5,0.4c0.4,0.4,0.8,1.1,0.8,2c0,0.2,0,0.5-0.1,0.7c-0.1,0.2-0.3,0.5-0.6,0.6c-0.1,0.1-0.3,0-0.4,0
		c-0.1,0-0.2,0-0.3-0.1c-0.2-0.1-0.3-0.2-0.4-0.3c-0.2-0.2-0.4-0.3-0.5-0.5C83.5,73.6,83.4,73.5,83.4,73.5"/>
	<path clip-path="url(#SVGID_1_)" fill="#231F20" d="M71.1,77.8c0,0,2.2,2.4,6.3,6.8c0,0-0.1,0-0.2-0.1c1.5,0,4.2-0.1,7.1-0.1
		c0,0-0.2,0.1-0.3,0.1c0.8-1,2.2-2.7,3.5-4.5c0.8-1,1.6-2,2-2.5c0.1,0.3,0.2,0.4,0.3,0.6C79.1,78.1,71.1,77.8,71.1,77.8
		s8-0.3,18.9-0.4l0.7,0l-0.5,0.6c-0.5,0.6-1.2,1.5-2,2.5c-1.4,1.7-2.8,3.4-3.6,4.4l-0.1,0.1l-0.2,0c-2.9,0-5.6-0.1-7.1-0.1l-0.1,0
		L77.1,85C73.2,80.4,71.1,77.8,71.1,77.8"/>
	<path clip-path="url(#SVGID_1_)" fill="#231F20" d="M92.1,79.6c0,0,0-0.3-0.1-0.7c-0.1-0.4-0.2-0.9-0.4-1.5
		c-0.1-0.6-0.2-1.2-0.3-1.5c-0.1-0.4-0.2-0.7-0.2-0.7c0,0,0.3,0.1,0.5,0.5c0.3,0.4,0.6,0.9,0.7,1.6c0.1,0.7,0.1,1.3,0,1.7
		C92.2,79.3,92,79.6,92.1,79.6"/>
	<path clip-path="url(#SVGID_1_)" fill="#231F20" d="M68.8,81.3c0,0-0.3-0.3-0.6-0.7c-0.2-0.3-0.3-0.6-0.5-1
		c-0.1-0.4-0.2-0.8-0.2-1.3c0-1,0.3-1.8,0.7-2.3c0.2-0.3,0.3-0.5,0.5-0.6c0.1-0.1,0.2-0.2,0.2-0.2s0,0.1-0.1,0.2
		c-0.1,0.2-0.2,0.4-0.2,0.7c-0.1,0.5-0.3,1.3-0.3,2.2c0,0.4,0.1,0.8,0.1,1.2c0.1,0.3,0.1,0.7,0.2,1C68.7,81,68.8,81.3,68.8,81.3"/>
	<path clip-path="url(#SVGID_1_)" fill="#231F20" d="M92.1,62.6c-0.4-0.2-3.8,0-4.4,0c-0.1,1.3,0.3,2.9,2.2,2.9
		C91.8,65.5,92.1,63.6,92.1,62.6"/>
	<path clip-path="url(#SVGID_1_)" fill="#231F20" d="M70.7,62.6c0.4-0.2,3.8,0,4.4,0c0.1,1.3-0.3,2.9-2.2,2.9
		C71.1,65.5,70.7,63.6,70.7,62.6"/>
	<path clip-path="url(#SVGID_1_)" fill="#231F20" d="M93.6,64.9c0,0,0-0.2,0-0.5c0-0.1,0-0.3-0.1-0.5c-0.1-0.1-0.3-0.3-0.5-0.4
		c-0.4-0.3-0.9-0.7-1.5-1.1c-0.2-0.1-0.5-0.1-0.9-0.1c-0.4,0-0.8,0-1.2,0c-0.4,0-0.9,0-1.3,0c-0.2,0-0.4,0-0.6,0c-0.1,0-0.2,0-0.3,0
		c-0.1,0-0.1,0-0.2,0c-0.6,0.3-1.1,0.7-1.5,1c0-0.1,0-0.1,0-0.1c-0.1,1.1-0.2,1.6-0.2,1.6s-0.1-0.6-0.2-1.6l0-0.1l0.1-0.1
		c0.4-0.4,0.8-0.9,1.5-1.3c0.1-0.1,0.2-0.1,0.4-0.1c0.1,0,0.2,0,0.3,0c0.2,0,0.4,0,0.6,0c0.4,0,0.8,0,1.3-0.1c0.4,0,0.8,0,1.2,0
		c0.2,0,0.4,0,0.6,0c0.2,0,0.5,0.1,0.7,0.2c0.6,0.4,1,1,1.4,1.4c0.2,0.2,0.3,0.4,0.5,0.6c0,0.2,0,0.4,0,0.6
		C93.6,64.7,93.6,64.9,93.6,64.9"/>
	<path clip-path="url(#SVGID_1_)" fill="#231F20" d="M91.6,62c0,0,0,0.2,0,0.5c0,0.3,0,0.8-0.3,1.4c-0.1,0.1-0.2,0.3-0.2,0.4
		c-0.1,0.1-0.2,0.3-0.4,0.4c-0.3,0.2-0.8,0.4-1.1,0.5c-0.1,0-0.1,0-0.3,0l-0.3,0c-0.2,0-0.4-0.1-0.7-0.2c-0.5-0.2-0.9-0.5-1.1-1
		c-0.4-0.8-0.4-1.6-0.3-2.1l0-0.3h0.3C89.8,61.7,91.6,61.9,91.6,62c0-0.1-1.7,0.1-4.4,0.3c0.1-0.1,0.2-0.2,0.3-0.3
		c0,0.4,0,1.1,0.3,1.7c0.3,0.7,1.1,0.9,1.7,0.9c0.4,0,0.6-0.1,0.9-0.3c0.1-0.1,0.2-0.2,0.3-0.3c0.1-0.1,0.2-0.2,0.3-0.3
		c0.3-0.5,0.4-0.9,0.5-1.2C91.6,62.2,91.6,62,91.6,62"/>
	<path clip-path="url(#SVGID_1_)" fill="#231F20" d="M68.2,64.9c0,0,0-0.2-0.1-0.5c0-0.2,0-0.4,0-0.6c0.1-0.2,0.3-0.4,0.5-0.6
		c0.4-0.4,0.8-0.9,1.4-1.4c0.2-0.2,0.5-0.2,0.7-0.2c0.2,0,0.4,0,0.6,0c0.4,0,0.8,0,1.2,0c0.4,0,0.9,0,1.3,0.1c0.2,0,0.4,0,0.6,0
		c0.1,0,0.2,0,0.3,0c0.1,0,0.3,0.1,0.4,0.1c0.7,0.4,1.1,0.9,1.5,1.3l0.1,0.1l0,0.1c-0.1,1.1-0.2,1.6-0.2,1.6s-0.1-0.6-0.2-1.6
		c0,0,0,0.1,0,0.1c-0.4-0.3-0.9-0.7-1.5-1c-0.1,0-0.1,0-0.2,0c-0.1,0-0.2,0-0.3,0c-0.2,0-0.4,0-0.6,0c-0.4,0-0.8,0-1.3,0
		c-0.4,0-0.8,0-1.2,0c-0.4,0-0.8,0-0.9,0.1c-0.6,0.4-1,0.8-1.5,1.1c-0.2,0.2-0.4,0.3-0.5,0.4c-0.1,0.2-0.1,0.4-0.1,0.5
		C68.2,64.7,68.2,64.9,68.2,64.9"/>
	<path clip-path="url(#SVGID_1_)" fill="#231F20" d="M70.2,62c0,0,0,0.2,0.1,0.5c0.1,0.3,0.2,0.7,0.5,1.2c0.1,0.1,0.2,0.2,0.3,0.3
		c0.1,0.1,0.2,0.2,0.3,0.3c0.2,0.1,0.5,0.2,0.9,0.3c0.6,0,1.4-0.2,1.7-0.9c0.3-0.6,0.3-1.2,0.3-1.7c0.2,0.1,0.2,0.2,0.3,0.3
		C71.9,62.1,70.2,61.9,70.2,62c0-0.1,1.8-0.3,4.4-0.3h0.3l0,0.3c0,0.5,0.1,1.3-0.3,2.1c-0.2,0.4-0.6,0.8-1.1,1
		c-0.2,0.1-0.5,0.2-0.7,0.2l-0.3,0c-0.2,0-0.2,0-0.3,0c-0.3,0-0.8-0.2-1.1-0.5c-0.1-0.1-0.3-0.3-0.4-0.4c-0.1-0.1-0.2-0.3-0.2-0.4
		c-0.2-0.6-0.3-1-0.3-1.4C70.2,62.2,70.2,62,70.2,62"/>
	<path clip-path="url(#SVGID_1_)" fill="#231F20" d="M100.2,32.7c0,0,0.1,0.1,0.2,0.2c0.2,0.2,0.4,0.4,0.7,0.8
		c0.5,0.8,1.2,2,1.7,3.9c0.5,1.8,0.8,4.2,0.8,7.2c0,1.5,0,3.1-0.2,4.8c-0.1,0.9-0.2,1.8-0.3,2.7c-0.1,0.9-0.2,1.9-0.6,2.9l-0.2,0.6
		l-0.1-0.6c-0.1-0.4-0.4-1-1-1.4c-0.2-0.1-0.3-0.2-0.5-0.2c-0.2,0-0.3,0-0.3,0.1c0,0.4-0.1,0.9-0.1,1.4c-0.2,2-0.4,4.4-0.7,6.9
		l0,0.2l-0.2,0c-0.2,0-0.8,0-1.3,0l-0.2,0l0-0.2c0-1.1,0-3.8,0.1-6.7c0,0,0,0.1,0,0.1c-0.3-0.7-1.1-2.3-1.9-4L96,51.3l0.1-0.1
		c0,0,0.1-0.2,0.1-0.3c0,0,0,0,0,0c0.5-1.7,1.1-3.6,1.7-5.6c0.8-2,0-4.4-1.8-6c-0.9-0.8-2-1.4-3.2-1.9c-0.6-0.2-1.2-0.4-1.9-0.4
		c-0.7-0.1-1.3-0.1-1.9,0c-1.3,0.2-2.6,0.6-4,1c-1.3,0.4-2.8,0.9-4.3,0.8h0.1c-0.2,0-0.6,0-0.9,0c-1.4-0.1-2.6-0.6-3.8-1
		c-1.2-0.4-2.4-0.8-3.6-0.9c-0.3,0-0.6,0-0.9,0c-0.3,0-0.6,0-0.9,0.1c-0.6,0.1-1.2,0.2-1.8,0.4c-1.1,0.4-2.2,0.9-3.1,1.7
		c-0.9,0.7-1.7,1.6-2,2.6c-0.4,1-0.5,2.1-0.2,3.1c0.6,2.1,1.3,4.2,1.9,6.1l0,0.1l-0.1,0.1c-0.7,1.5-1.3,2.7-1.9,3.8
		c0-0.1,0-0.1,0-0.1c0.1,2.8,0.1,5,0.2,7.1l0,0.3l-0.3,0c-0.7,0-1.3,0-1.8,0l-0.3,0l0-0.3c0.2-1.7,0-3.2,0-4.6
		c-0.1-1.4-0.2-2.7-0.3-3.9c0.1,0.1,0.1,0.1,0.2,0.2c-0.8-0.2-1.5-0.1-2.1,0.3c-0.5,0.3-0.9,0.8-1.1,1.3L58,55.6l-0.1-0.4
		c-0.3-1-0.3-1.8-0.4-2.7c-0.1-0.9-0.1-1.7-0.1-2.5c0-1.6,0-3.2,0.1-4.6c0.2-2.9,0.6-5.3,1.1-7.2c0.5-1.9,1.2-3.4,1.9-4.2
		c0.3-0.4,0.6-0.7,0.8-0.9c0.2-0.2,0.3-0.3,0.3-0.3s-0.1,0.1-0.3,0.3c-0.2,0.2-0.4,0.5-0.7,0.9c-0.6,0.9-1.3,2.3-1.8,4.2
		c-0.5,1.9-0.9,4.4-1,7.2c-0.1,1.4-0.1,2.9,0,4.6c0,0.8,0.1,1.6,0.2,2.5c0.1,0.8,0.1,1.8,0.4,2.5c-0.1,0-0.2,0-0.3,0
		c0.3-0.6,0.6-1.1,1.2-1.5c0.6-0.4,1.5-0.6,2.4-0.4l0.2,0l0,0.2c0.1,1.2,0.2,2.5,0.3,3.9c0.1,1.4,0.3,2.9,0.1,4.8
		c-0.1-0.1-0.1-0.2-0.3-0.3c0.5,0,1,0,1.8,0c-0.1,0.1-0.2,0.2-0.3,0.3c-0.1-2.1-0.2-4.3-0.3-7.1l0-0.1l0-0.1
		c0.5-1.1,1.1-2.3,1.8-3.8c0,0.1,0,0.1,0,0.2c-0.6-1.9-1.3-4-1.9-6.1c-0.4-1.2-0.2-2.4,0.2-3.6c0.4-1.2,1.3-2.1,2.2-2.9
		c1-0.8,2.1-1.4,3.3-1.8c0.6-0.2,1.2-0.3,1.9-0.4c0.3-0.1,0.6-0.1,1-0.1c0.3,0,0.7,0,1,0c2.6,0.2,5,1.6,7.4,1.9c0.3,0,0.6,0,0.8,0
		l0,0l0,0c1.3,0.1,2.7-0.4,4-0.8c1.3-0.4,2.7-0.9,4.1-1.1c0.7-0.1,1.4-0.1,2.1,0c0.7,0.1,1.4,0.3,2,0.5c1.3,0.4,2.5,1.1,3.4,2
		c2,1.7,2.9,4.6,2,6.7c-0.6,2.1-1.2,4-1.8,5.6l0,0l0,0c-0.1,0.1-0.1,0.2-0.1,0.3v-0.3c0.8,1.7,1.6,3.3,1.9,4l0,0.1l0,0.1
		c-0.1,2.8-0.1,5.6-0.2,6.7c-0.1-0.1-0.2-0.2-0.2-0.2c0.6,0,1.2,0,1.3,0c-0.1,0.1-0.2,0.2-0.2,0.2c0.3-2.5,0.5-4.9,0.7-6.9
		c0-0.5,0.1-1,0.1-1.4c0-0.2,0.2-0.4,0.3-0.4c0.2,0,0.3,0,0.4,0c0.2,0,0.4,0.1,0.6,0.3c0.7,0.4,1.1,1.1,1.1,1.7c-0.1,0-0.3,0-0.3,0
		c0.3-0.9,0.4-1.9,0.6-2.8c0.1-0.9,0.2-1.8,0.3-2.7c0.2-1.7,0.2-3.3,0.2-4.8c0-2.9-0.3-5.3-0.7-7.2c-0.4-1.8-1.1-3.1-1.6-3.9
		c-0.3-0.4-0.5-0.6-0.6-0.8C100.3,32.8,100.2,32.7,100.2,32.7"/>
	<path clip-path="url(#SVGID_1_)" fill="#231F20" d="M98.2,70.6c0,0,0.2,0,0.7,0c0.4-0.1,1.1-0.3,1.6-0.8c0.1-0.1,0.3-0.3,0.4-0.5
		c0.1-0.2,0.2-0.4,0.4-0.6c0.2-0.4,0.5-0.9,0.6-1.3c0.2-1,0.3-2.2,0.4-3.4c0.2-2.5,0.3-4.7,0.3-6.3c0-0.8,0-1.5,0-1.9
		c0-0.5,0-0.7,0-0.7s0.1,0.2,0.2,0.7c0.1,0.4,0.2,1.1,0.3,1.9c0.2,1.6,0.2,3.9,0,6.4c-0.1,1.2-0.2,2.4-0.5,3.5
		c-0.2,0.6-0.5,1-0.7,1.4c-0.1,0.2-0.3,0.4-0.4,0.6c-0.2,0.2-0.3,0.3-0.5,0.5c-0.7,0.6-1.4,0.7-1.8,0.7
		C98.4,70.7,98.2,70.6,98.2,70.6"/>
	<path clip-path="url(#SVGID_1_)" fill="#231F20" d="M58,55.1c0,0,0,0.1,0,0.2c0,0.1-0.1,0.3-0.1,0.5c-0.1,0.5-0.1,1.1-0.1,1.9
		c0,1.6,0.1,3.9,0.2,6.4c0.1,1.2,0.1,2.5,0.3,3.5c0.1,1,0.9,1.7,1.5,2.1c1.4,0.9,2.5,0.9,2.4,0.8c0,0.1-1.1,0.3-2.6-0.5
		c-0.4-0.2-0.8-0.5-1.1-0.8c-0.4-0.3-0.7-0.9-0.8-1.5c-0.2-1.1-0.3-2.3-0.4-3.6c-0.1-2.5-0.1-4.9,0.1-6.5c0.1-0.8,0.2-1.5,0.4-1.9
		c0.1-0.2,0.1-0.4,0.2-0.5C58,55.1,58,55.1,58,55.1"/>
	<path clip-path="url(#SVGID_1_)" fill="#231F20" d="M96.4,87.1c0,0-2.1,2.7-5,5.6c-2.9,3-5.5,5.1-5.5,5.1s2.1-2.7,5-5.6
		C93.8,89.2,96.4,87.1,96.4,87.1"/>
	<path clip-path="url(#SVGID_1_)" fill="#231F20" d="M70.4,97c0,0-2-2-4.2-4.7c-2.1-2.7-3.6-5.2-3.6-5.2s2,2,4.2,4.7
		C69,94.5,70.4,97,70.4,97"/>
	
		<rect x="80.4" y="107.9" transform="matrix(0.9975 7.078970e-02 -7.078970e-02 0.9975 8.0511 -5.4238)" clip-path="url(#SVGID_1_)" fill="#FFFFFF" width="0.2" height="5.9"/>
	<rect x="74.9" y="107.3" clip-path="url(#SVGID_1_)" fill="#FFFFFF" width="0.2" height="6.5"/>
	<path clip-path="url(#SVGID_1_)" fill="#231F20" d="M78.5,61.8c0,0-0.8-0.4-2.2-1.2c-1.3-0.8-3.1-1.9-4.9-3.2
		c-0.9-0.6-1.8-1.3-2.6-1.8l-0.2-0.1l-0.2-0.1l-0.1,0l0,0l0,0h0c0,0,0.2,0,0.1,0l0,0h0c0,0,0.1,0,0.1,0l0,0c0,0,0,0-0.1,0
		c-0.1,0-0.2,0.1-0.2,0.2c-0.3,0.3-0.6,0.5-0.9,0.8c-1.1,1-1.8,1.7-1.8,1.7s0.4-0.9,1.2-2.2c0.2-0.3,0.4-0.7,0.7-1.1
		c0.1-0.1,0.2-0.2,0.3-0.3c0,0,0.1-0.1,0.2-0.2l0.1-0.1c0.1,0,0.2-0.1,0.3-0.1l0.1,0l0,0l0.1,0l0,0l0.1,0l0.2,0
		c0.1,0,0.3,0.1,0.5,0.2c1.1,0.5,1.9,1,2.9,1.7c1.9,1.3,3.5,2.8,4.5,3.8C77.9,61.1,78.5,61.8,78.5,61.8"/>
	<path clip-path="url(#SVGID_1_)" fill="#231F20" d="M83.4,61.8c0,0,2.6-2.4,6.4-4.6c1.3-0.8,2.6-1.4,3.5-1.8l0.5-0.2l0.2,0.3
		c1.4,2.1,2,3.4,2,3.4s-1.2-1-2.9-2.8c0.2,0,0.4,0.1,0.7,0.1c-0.8,0.6-1.9,1.4-3.2,2.2C86.8,60.7,83.4,61.8,83.4,61.8"/>
	<path clip-path="url(#SVGID_1_)" fill="#231F20" d="M150.8,17.8c0.7,0,1.3,0.6,1.3,1.3c0,0.7-0.6,1.3-1.3,1.3h-0.4v2.6l0.3,0.2
		c1.5-1.2,3.4-2,5.5-2c4.8,0,8.7,3.9,8.7,8.7c0,4.8-3.9,8.7-8.7,8.7c-2,0-3.8-0.7-5.2-1.8l-0.5,0.6c0,0,0,1.7,0,4.6h0.5
		c0.7,0,1.3,0.6,1.3,1.3c0,0.7-0.6,1.3-1.3,1.3h-0.5c0,2.2,0,4.7-0.1,7.5h0.6c0.7,0,1.3,0.2,1.3,0.5c0,0.3-0.6,0.5-1.3,0.5h-0.6
		c-0.1,11.1-0.3,25.7-0.5,35.6h10.7v2.7l-5.1,0.8v2.7l5.1,1v4.7h-12.6v0c-0.2,0-0.3,0-0.5,0c-0.8,0-1.6-0.3-1.8-0.9V53h-0.7
		c-0.7,0-1.3-0.2-1.3-0.5c0-0.3,0.6-0.5,1.3-0.5h0.7v-7.5h-0.7c-0.7,0-1.3-0.6-1.3-1.3c0-0.7,0.6-1.3,1.3-1.3h0.7v-4.6l-0.7-0.7
		c-1.5,1.2-3.3,1.8-5.4,1.8c-4.8,0-8.7-3.9-8.7-8.7c0-4.8,3.9-8.7,8.7-8.7c2.1,0,4,0.7,5.5,1.9l0.6-0.6v-2.3h-0.7
		c-0.7,0-1.3-0.6-1.3-1.3c0-0.7,0.6-1.3,1.3-1.3H150.8 M147.8,27.5c0.3-1.1,0.9-2.2,1.6-3l-1.5-1.4l-1.6,1.6
		C147,25.5,147.5,26.4,147.8,27.5 M155.9,36.9c3.8,0,6.8-3,6.8-6.8c0-3.8-3-6.8-6.8-6.8c-1.4,0-2.8,0.5-3.9,1.2l5.6,5.4l-5.6,5.8
		C153.2,36.5,154.5,36.9,155.9,36.9 M139.3,36.9c1.6,0,3-0.5,4.1-1.4l-5.4-5.2l5.4-5.6c-1.1-0.9-2.6-1.4-4.1-1.4
		c-3.8,0-6.8,3-6.8,6.8C132.5,33.9,135.6,36.9,139.3,36.9 M150.7,34.4l4.4-4.5l-4.3-4.2c-1,1.2-1.6,2.7-1.6,4.4
		C149.1,31.8,149.7,33.3,150.7,34.4 M144.9,34c0.8-1.1,1.2-2.4,1.2-3.9c0-1.5-0.5-2.8-1.3-3.9l-3.9,4L144.9,34 M148.2,37.1l1.4-1.5
		c-0.8-0.9-1.4-2-1.8-3.3c-0.3,1.1-0.8,2.1-1.5,2.9l0.1,0.1L148.2,37.1 M150.8,16.8h-6.1c-1.2,0-2.2,1-2.2,2.2c0,1.2,0.9,2.1,2,2.2
		v0.5c-1.5-0.9-3.3-1.5-5.1-1.5c-5.3,0-9.7,4.3-9.7,9.7c0,5.3,4.3,9.7,9.7,9.7c1.8,0,3.6-0.5,5.1-1.5v2.9c-1.1,0.1-2,1.1-2,2.2
		c0,1.2,0.9,2.1,2,2.2v5.6c-1.2,0.1-2,0.6-2,1.4c0,0.8,0.8,1.4,2,1.4v45.7v0.2l0.1,0.2c0.4,0.9,1.4,1.5,2.7,1.5c0.1,0,0.1,0,0.2,0
		l0.3,0h12.6h1v-1v-4.7V95l-0.8-0.1l-4.3-0.8V93l4.3-0.7l0.8-0.1v-0.8v-2.7v-1h-1h-9.7c0.1-7.8,0.3-19.1,0.5-33.7
		c1.2-0.1,1.9-0.6,1.9-1.4c0-0.8-0.7-1.3-1.9-1.4l0.1-5.6c1-0.2,1.8-1.1,1.8-2.2c0-1.1-0.8-2-1.8-2.2l0-2.8c1.5,0.8,3.1,1.3,4.8,1.3
		c5.3,0,9.7-4.3,9.7-9.7c0-5.3-4.3-9.7-9.7-9.7c-1.7,0-3.3,0.4-4.8,1.3v-0.3c1-0.2,1.7-1.1,1.7-2.2
		C153.1,17.8,152.1,16.8,150.8,16.8 M153.6,24.7c0.7-0.3,1.5-0.5,2.3-0.5c3.2,0,5.8,2.6,5.8,5.8c0,3.2-2.6,5.8-5.8,5.8
		c-0.8,0-1.6-0.2-2.3-0.5l4.7-4.9l0.7-0.7l-0.7-0.7L153.6,24.7z M139.3,35.9c-3.2,0-5.8-2.6-5.8-5.8c0-3.2,2.6-5.8,5.8-5.8
		c0.9,0,1.8,0.2,2.6,0.6l-4.6,4.7l-0.7,0.7l0.7,0.7l4.5,4.4C141.1,35.7,140.2,35.9,139.3,35.9 M147.6,24.7l0.4-0.4l0.2,0.2
		c-0.1,0.2-0.2,0.3-0.3,0.5C147.7,25,147.7,24.9,147.6,24.7 M150.8,32.9c-0.5-0.9-0.8-1.8-0.8-2.8c0-1,0.3-2,0.8-2.9l2.8,2.7
		L150.8,32.9z M142.4,30.2l2.3-2.4c0.3,0.7,0.5,1.5,0.5,2.3c0,0.8-0.2,1.6-0.5,2.3L142.4,30.2z M147.6,35.2c0.1-0.1,0.2-0.3,0.2-0.4
		c0.2,0.3,0.3,0.5,0.5,0.8l-0.2,0.2L147.6,35.2z"/>
	<path clip-path="url(#SVGID_1_)" fill="#CCC9C7" d="M139.4,21.2c-4.8,0-8.7,3.9-8.7,8.7c0,4.8,3.9,8.7,8.7,8.7
		c4.8,0,8.7-3.9,8.7-8.7C148.1,25.1,144.2,21.2,139.4,21.2 M139.3,36.9c-3.8,0-6.8-3-6.8-6.8c0-3.8,3-6.8,6.8-6.8
		c3.8,0,6.8,3,6.8,6.8C146.1,33.9,143.1,36.9,139.3,36.9"/>
	<path clip-path="url(#SVGID_1_)" fill="#CCC9C7" d="M156.1,21.2c-4.8,0-8.7,3.9-8.7,8.7c0,4.8,3.9,8.7,8.7,8.7
		c4.8,0,8.7-3.9,8.7-8.7C164.8,25.1,160.9,21.2,156.1,21.2 M155.9,36.9c-3.8,0-6.8-3-6.8-6.8c0-3.8,3-6.8,6.8-6.8
		c3.8,0,6.8,3,6.8,6.8C162.7,33.9,159.7,36.9,155.9,36.9"/>
	<path clip-path="url(#SVGID_1_)" fill="#CCC9C7" d="M150.4,37.4l-2.4,2.5l-2.5-2.4v62.2c0.5,1.3,3.3,1.1,3.8,0
		C149.9,98.5,150.4,37.4,150.4,37.4"/>
	<path clip-path="url(#SVGID_1_)" fill="#CCC9C7" d="M147.7,20.3l-9.6,10l7.4,7.2l2.5,2.4l2.4-2.5l7.2-7.5L147.7,20.3z M149.9,35.3
		l-1.7,1.8l-1.8-1.8l-5.3-5.2l6.9-7.2l7.2,6.9L149.9,35.3z"/>
	<polygon clip-path="url(#SVGID_1_)" fill="#CCC9C7" points="160.4,100.5 147.8,100.5 147.8,88.6 160.4,88.6 160.4,91.3 155.3,92.1 
		155.3,94.9 160.4,95.8 	"/>
	<path clip-path="url(#SVGID_1_)" fill="#231F20" d="M160.4,100.5c0,0,0-1.4-0.1-4.7c0,0,0.1,0.1,0.1,0.1c-0.9-0.2-2.8-0.5-5.1-0.8
		l-0.2,0l0-0.2c0-0.4,0-1.5-0.1-2.7l0-0.2l0.3,0c1-0.2,2.9-0.5,5.1-0.9c0,0.1-0.2,0.2-0.3,0.4c0-0.5,0-1.6,0-2.7
		c0.1,0.1,0.3,0.3,0.4,0.4c-1.9,0-5.1,0-8.3,0.1c-1.5,0-3,0-4.3,0c0.2-0.2,0.3-0.3,0.5-0.5c0,4.7-0.1,8.9-0.2,11.9
		c-0.1-0.1-0.2-0.2-0.3-0.3C155.7,100.4,160.4,100.5,160.4,100.5s-4.7,0.2-12.6,0.3l-0.3,0l0-0.3c-0.1-3.1-0.1-7.2-0.2-11.9l0-0.5
		h0.5c1.3,0,2.8,0,4.3,0c3.2,0,6.4,0,8.3,0.1l0.4,0l0,0.4c0,1.1,0,2.2,0,2.7l0,0.3l-0.3,0c-2.2,0.3-4.2,0.6-5.1,0.7
		c0.1-0.1,0.2-0.3,0.3-0.3c0,1.2-0.1,2.3-0.1,2.7c-0.1-0.1-0.2-0.2-0.2-0.2c2.3,0.5,4.1,0.9,5.1,1.1l0.1,0l0,0.1
		C160.4,99.2,160.4,100.5,160.4,100.5"/>
	<polygon clip-path="url(#SVGID_1_)" fill="#CCC9C7" points="150.4,23.4 148,22 145.5,23.4 145.5,19 150.4,19 	"/>
	<path clip-path="url(#SVGID_1_)" fill="#CCC9C7" d="M152.1,43.3c0,0.7-0.6,1.3-1.3,1.3h-6.1c-0.7,0-1.3-0.6-1.3-1.3
		c0-0.7,0.6-1.3,1.3-1.3h6.1C151.5,42,152.1,42.6,152.1,43.3"/>
	<path clip-path="url(#SVGID_1_)" fill="#231F20" d="M152.1,43.3c0,0,0-0.3-0.3-0.7c-0.1-0.2-0.4-0.4-0.7-0.4c-0.4,0-0.8,0-1.2,0
		c-0.9,0-2,0.1-3.2,0.1c-0.6,0-1.2,0-1.9,0c-0.5,0-1,0.4-1,1c0,0.5,0.5,1,1,1c0.7,0,1.3,0,1.9,0c1.2,0,2.3,0.1,3.2,0.1
		c0.4,0,0.9,0.1,1.2,0c0.3-0.1,0.6-0.2,0.7-0.4C152.1,43.6,152.1,43.3,152.1,43.3c0,0,0.1,0.3-0.2,0.8c-0.1,0.2-0.4,0.5-0.8,0.6
		c-0.4,0.1-0.8,0.1-1.2,0.1c-0.9,0-2,0.1-3.2,0.1c-0.6,0-1.2,0-1.9,0c-0.8,0-1.6-0.6-1.6-1.6c0-0.8,0.8-1.6,1.6-1.5
		c0.7,0,1.3,0,1.9,0c1.2,0,2.3,0.1,3.2,0.1c0.4,0,0.9,0,1.2,0.1c0.4,0.1,0.6,0.3,0.8,0.6C152.2,43,152.1,43.3,152.1,43.3"/>
	<path clip-path="url(#SVGID_1_)" fill="#CCC9C7" d="M152.1,52.6c0,0.3-0.6,0.5-1.3,0.5h-6.1c-0.7,0-1.3-0.2-1.3-0.5
		c0-0.3,0.6-0.5,1.3-0.5h6.1C151.5,52.1,152.1,52.3,152.1,52.6"/>
	<path clip-path="url(#SVGID_1_)" fill="#CCC9C7" d="M152.1,19c0,0.7-0.6,1.3-1.3,1.3h-6.1c-0.7,0-1.3-0.6-1.3-1.3
		c0-0.7,0.6-1.3,1.3-1.3h6.1C151.5,17.8,152.1,18.3,152.1,19"/>
	<path clip-path="url(#SVGID_1_)" fill="#231F20" d="M152.1,19c0,0,0-0.3-0.3-0.7c-0.1-0.2-0.4-0.4-0.7-0.4c-0.4,0-0.8,0-1.2,0
		c-0.9,0-2,0.1-3.2,0.1c-0.6,0-1.2,0-1.9,0c-0.5,0-1,0.4-1,1c0,0.5,0.5,1,1,1c0.7,0,1.3,0,1.9,0c1.2,0,2.3,0.1,3.2,0.1
		c0.4,0,0.9,0.1,1.2,0c0.3-0.1,0.6-0.2,0.7-0.4C152.1,19.4,152.1,19,152.1,19c0,0,0.1,0.3-0.2,0.8c-0.1,0.2-0.4,0.5-0.8,0.6
		c-0.4,0.1-0.8,0.1-1.2,0.1c-0.9,0-2,0.1-3.2,0.1c-0.6,0-1.2,0-1.9,0c-0.8,0-1.6-0.6-1.6-1.6c0-0.8,0.8-1.6,1.6-1.5
		c0.7,0,1.3,0,1.9,0c1.2,0,2.3,0.1,3.2,0.1c0.4,0,0.9,0,1.2,0.1c0.4,0.1,0.6,0.3,0.8,0.6C152.2,18.7,152.1,19,152.1,19"/>
	<path clip-path="url(#SVGID_1_)" fill="#FFFFFF" d="M13.3,99.9l0.1-3.1c-0.2-3.8-0.5-10.1-0.5-10.1c-0.7,0.3-3.8-0.8-4.2-2.6
		c-0.5-1.8-0.9-10.9,0-12.9L8.6,71C8,68.6,7.1,53.4,12.1,48.8c5.2-4.8,7.6-5.2,18.1-4.3h2.5c10.6-0.9,12.9-0.5,18.1,4.3
		c5.1,4.7,2.9,20.7,2.2,22.3l0.1,0.8c0.5,1.9,0,10.9-0.6,12.1c-0.6,1.2-1.6,3-3.8,2.7c0.2,1.4-1.2,10.3-1.2,10.3L47,98v2.9
		c0,1,0,3.3,0,3.3l-18.5,19.8l-15.2-19.7L13.3,99.9z"/>
	<path clip-path="url(#SVGID_1_)" fill="#231F20" d="M53.1,71.1c0.7-1.6,2.9-17.6-2.2-22.3c-5.2-4.8-7.6-5.2-18.1-4.3h-2.5
		c-10.6-0.9-12.9-0.5-18.1,4.3C7.2,53.4,8,68.6,8.7,71l0.1,0.2l0,0c0.4-0.8,1.4-2.2,3.4-1.8c0,0.9,0.7,6.4,0.4,8.6h1.8
		c0,0-0.2-4.1-0.2-7.1l1.8-3.8c0,0-1.4-4.4-1.9-6.3c-0.5-1.9,0.5-3.8,0.5-3.8s2-3.9,7.7-4.4c3.4-0.1,6.4,2.2,9.3,1.9h0.1
		c2.9,0.2,5.9-2,9.3-1.9c5.7,0.5,7.7,4.4,7.7,4.4s1.1,1.9,0.5,3.8c-0.5,1.9-1.9,6.3-1.9,6.3l-0.1,0.3l1.9,4L48.9,78h1.3
		c0,0,0.8-7.5,0.8-8.3C51,69,52.9,69.7,53.1,71.1"/>
	<path clip-path="url(#SVGID_1_)" d="M38.3,44.1c5.2,0,7.5,1.2,11.3,4.7c5.1,4.7,2.9,20.7,2.2,22.3L52,72c0.5,1.9,0,10.9-0.6,12.1
		c-0.6,1.1-1.5,2.7-3.3,2.7c-0.2,0-0.3,0-0.5,0c0.2,1.4-1.2,10.3-1.2,10.3L45.8,98v2.9h1.6l4.9,5.7c9.4,3.4,29.4,14,29.4,14
		l8.5,26.5H51.6h-8h-1.6H9.6H5.7h-8.2h-33.2l13.2-29.6l32.7-15.7l1.9-2l0.1-3.1c-0.2-3.8-0.5-10.1-0.5-10.1c-0.1,0-0.2,0.1-0.3,0.1
		c-1,0-3.5-1-3.9-2.7c-0.5-1.8-0.9-10.9,0-12.9L7.4,71c-0.6-2.3-1.5-17.5,3.5-22.1c3.8-3.5,6.1-4.7,11.3-4.7c1.8,0,4,0.1,6.8,0.4
		h2.5C34.3,44.3,36.5,44.1,38.3,44.1 M38.3,43.1L38.3,43.1c-1.7,0-3.7,0.1-6.8,0.4h-2.4c-3.1-0.3-5.2-0.4-6.8-0.4
		c-5.7,0-8.2,1.5-12,5C5,53,5.7,68.4,6.4,71.2C5.6,74,6.1,82.7,6.5,84.4c0.5,1.9,2.8,3.1,4.2,3.4c0.1,1.9,0.4,6.2,0.5,9.1l-0.1,2.7
		l-1.5,1.6l-32.5,15.6l-0.2,0.1l-0.1,0.1l-13.2,29.6l-1.5,1.7h2.2h33.2h8.2h3.9h32.3h1.6h8h38.7h1.9l-1.1-1.6l-8.5-26.5l-0.1-0.2
		l-0.2-0.1c-0.8-0.4-19.8-10.6-29.3-14l-4.8-5.5l-0.3-0.3h-0.5h-0.7v-1.6l0.5-0.7l0.1-0.2l0-0.2c0.2-1.3,1-6.9,1.2-9.5
		c2.2-0.3,3.2-2.3,3.7-3.2c0.8-1.6,1.2-10.7,0.7-12.7l-0.1-0.6c0.7-2.7,2.8-18.1-2.6-23.1C46.5,44.6,44,43.1,38.3,43.1"/>
	<polygon clip-path="url(#SVGID_1_)" fill="#231F20" points="-35.7,147.2 -22.4,117.6 12.3,100.9 9.7,147.2 	"/>
	<path clip-path="url(#SVGID_1_)" fill="#FFFFFF" d="M12.3,100.9l-2.7,46.2h-45.3l13.3-29.6L12.3,100.9z M12.6,100.5l-0.4,0.2
		l-34.7,16.6l0,0l0,0L-35.8,147l-0.4,0.4h0.6H9.7h0.2l0-0.2l2.7-46.2L12.6,100.5z"/>
	<path clip-path="url(#SVGID_1_)" fill="#231F20" d="M48.9,105.7l-7,41.5h48.4l-8.5-26.5C81.8,120.7,55.3,106.5,48.9,105.7"/>
	<path clip-path="url(#SVGID_1_)" fill="#FFFFFF" d="M48.9,105.7c6.4,0.8,32.9,15,32.9,15l8.5,26.5H41.9L48.9,105.7 M48.7,105.4
		l0,0.2l-7,41.5l-0.1,0.3h0.3h48.4h0.5l-0.3-0.4L82,120.5l0,0l0,0c-1.1-0.6-26.6-14.2-33-15L48.7,105.4z"/>
	<polygon clip-path="url(#SVGID_1_)" fill="#FFFFFF" points="5.8,147.2 10.9,111.5 11.4,108.1 12.1,103.2 19.9,113.1 27.1,122.3 
		35.4,113.9 45.8,103.2 45.8,109.2 45.8,112 43.6,147.2 	"/>
	<polygon clip-path="url(#SVGID_1_)" fill="#231F20" points="9.7,147.2 12.3,99.7 -10.3,124.1 -2.5,147.2 	"/>
	<path clip-path="url(#SVGID_1_)" fill="#FFFFFF" d="M12.3,99.7l-2.7,47.5H-2.5l-7.8-23.1L12.3,99.7z M12.6,99l-0.5,0.5l-22.6,24.4
		l-0.1,0.1l0,0.1l7.8,23.1l0.1,0.2h0.2H9.7h0.2l0-0.2l2.7-47.5L12.6,99z"/>
	<polygon clip-path="url(#SVGID_1_)" fill="#231F20" points="45.8,100.9 45.8,112 41.9,147.2 51.6,147.2 66,122.3 47.5,100.9 	"/>
	<path clip-path="url(#SVGID_1_)" fill="#FFFFFF" d="M47.5,100.9L66,122.3l-14.4,24.9h-9.7l3.9-35.2v-11.1H47.5z M47.6,100.7h-0.1
		h-1.6h-0.2v0.2V112l-3.9,35.1l0,0.3h0.3h9.7h0.1l0.1-0.1l14.4-24.9l0.1-0.2l-0.1-0.1L47.6,100.7L47.6,100.7z"/>
	<polygon clip-path="url(#SVGID_1_)" fill="#231F20" points="45.8,112 45.8,109.2 31.2,123.4 35.1,123.4 	"/>
	<path clip-path="url(#SVGID_1_)" fill="#231F20" d="M10.9,111.5l0.5-3.3c0.9,1.2,12.2,15.9,12.2,15.9h-4.1L10.9,111.5z"/>
	<path clip-path="url(#SVGID_1_)" fill="#231F20" d="M24.5,123.4c0,0-9.7-4.7-12.1-4.8c-1.2,1.6-1.4,14.4,2.1,18.5
		c1-0.2,10.1-7.2,10.1-7.2c1.6,1,4.5,0.6,5.3,0c0,0,4.1,7,9.9,8.4c1.4-1.4,3.9-16.4,3.7-17.9c-0.2-1.4-10.7,1.9-13.2,3.6
		C30.2,124.1,29.8,121.5,24.5,123.4"/>
	<path clip-path="url(#SVGID_1_)" fill="#231F20" d="M29.8,129.9c-0.8,0.6-3.7,1-5.3,0v-6.5c5.3-2,5.8,0.6,5.8,0.6L29.8,129.9z"/>
	<polygon clip-path="url(#SVGID_1_)" fill="#FFFFFF" points="27.1,122.3 19.9,113.1 17.3,128.5 	"/>
	<path clip-path="url(#SVGID_1_)" fill="#231F20" d="M27.1,122.3c0,0-3.7,2.5-9.7,6.4l-0.5,0.4l0.1-0.7c0.3-1.9,0.7-4.7,1.2-7.8
		c0.5-3,1-5.8,1.4-7.6l0.1-0.7l0.4,0.5C24.5,118.6,27.1,122.3,27.1,122.3s-2.9-3.4-7.5-9c0.1,0,0.3-0.1,0.5-0.1
		c-0.3,1.8-0.7,4.7-1.2,7.7c-0.5,3-1,5.9-1.4,7.7c-0.2-0.1-0.4-0.3-0.4-0.3C23.3,124.5,27.1,122.3,27.1,122.3"/>
	<polygon clip-path="url(#SVGID_1_)" fill="#FFFFFF" points="35.4,113.9 27.1,122.3 36.3,128.5 	"/>
	<path clip-path="url(#SVGID_1_)" fill="#231F20" d="M35.4,113.9c0,0,0.7,5.9,1.3,14.6l0.1,0.7l-0.6-0.4c-0.8-0.5-2.1-1.4-3.4-2.3
		c-2.3-1.5-4.4-3-5.7-3.9l-0.3-0.2l0.3-0.3C32,117,35.4,113.9,35.4,113.9s-3,3.4-8,8.6c0-0.1,0-0.3,0-0.5c1.4,0.9,3.6,2.3,5.8,3.8
		c1.3,0.9,2.6,1.8,3.4,2.3c-0.2,0.1-0.4,0.3-0.5,0.3C35.5,119.9,35.4,113.9,35.4,113.9"/>
	<path clip-path="url(#SVGID_1_)" fill="#231F20" d="M12.3,96.8c0,0,0.2,1.1,0.3,2.9c0,0,0,0,0,0c0,1,0,2.5-0.1,4
		c-0.2,3.8-0.8,6.9-0.8,6.9s-0.2-3.1,0-6.9c0.1-1.6,0.2-3,0.4-4l0,0v0C12.2,97.9,12.3,96.8,12.3,96.8"/>
	<path clip-path="url(#SVGID_1_)" fill="#231F20" d="M45.8,112c0,0-0.4-3.1-0.4-7c0-3.9,0.4-7,0.4-7s0.4,3.1,0.4,7
		C46.2,108.9,45.8,112,45.8,112"/>
	<path clip-path="url(#SVGID_1_)" fill="#231F20" d="M48.3,80c0,0-0.2,2.1-0.5,6.8v0c0,2.2-0.5,5.9-1,10.4l0,0.1l0,0
		c-0.1,0.1-0.4,0.5-0.7,0.9l0,0l0,0c-2.7,3.2-6.9,8.1-11.6,13.5l-0.1,0.1h-0.2c-1,0-2.7,0-4.5,0c-1.3,0-2.6,0-3.8,0h-0.2l-0.1-0.1
		c-1.3-1.5-2.5-3-3.7-4.4c-0.6-0.7-1.2-1.4-1.8-2.1c-0.3-0.3-0.6-0.7-0.9-1c-0.3-0.3-0.6-0.6-0.9-0.9c-2.4-2.4-4.6-4.4-6.3-6.3
		l0-0.1l0-0.1c-0.2-5.3-0.4-9.5-0.5-12.4c0-1.4,0-2.6,0.1-3.3c0-0.4,0.1-0.7,0.1-0.8c0-0.2,0-0.3,0-0.3s0,0.1,0,0.3
		c0,0.2-0.1,0.5-0.1,0.9c-0.1,0.8,0,1.9,0.1,3.3c0.2,2.9,0.5,7.1,0.8,12.4c0,0,0-0.1,0-0.1c1.7,1.8,4,3.8,6.4,6.2
		c0.3,0.3,0.6,0.6,0.9,0.9c0.3,0.3,0.6,0.7,0.9,1c0.6,0.7,1.2,1.4,1.8,2.1c1.2,1.4,2.5,2.9,3.8,4.4c-0.1,0-0.2-0.1-0.3-0.1
		c1.1,0,2.4,0,3.8,0c1.7,0,3.5,0,4.5,0c-0.1,0.1-0.2,0.1-0.3,0.1c4.7-5.4,9-10.2,11.8-13.3c0,0,0,0,0,0c0.3-0.4,0.6-0.8,0.7-0.9
		c0,0,0,0.1,0,0.1c0.7-4.5,1.2-8.1,1.3-10.3v0C48.1,82.1,48.3,80,48.3,80"/>
	<path clip-path="url(#SVGID_1_)" fill="#231F20" d="M27.9,87.8c0,0-0.2-4-0.3-9.9c0,0,0.1,0.2,0.1,0.3c-0.6-0.5-1.7-1.3-2.7-2.1
		C23.6,75,22.2,74,20.9,73c-0.6-0.5-1.2-0.9-1.8-1.3c-0.3-0.2-0.6-0.4-0.8-0.5c-0.1,0-0.1-0.1-0.2-0.1l-0.1,0l-0.1,0c0.1,0,0,0,0,0
		c0,0-0.2,0.1-0.3,0.2c-0.9,0.8-1.5,1.6-1.9,2.1c-0.4,0.5-0.7,0.8-0.7,0.8s0.2-0.3,0.6-0.9c0.4-0.6,0.9-1.4,1.8-2.3
		c0.1-0.1,0.2-0.2,0.5-0.3c0,0,0,0,0.1,0l0.1,0l0.1,0c0.1,0,0.2,0,0.2,0.1c0.4,0.1,0.7,0.3,1,0.5c0.6,0.4,1.3,0.8,1.9,1.2
		c1.3,0.9,2.8,1.9,4.2,3c1.1,0.8,2.1,1.6,2.7,2.1l0.1,0.1l0,0.2C28.2,83.8,27.9,87.8,27.9,87.8"/>
	<path clip-path="url(#SVGID_1_)" fill="#FFFFFF" d="M33.9,100.9c1.7-1.6,1.7-5.8,1.7-7H25.1c-0.2,1.7,0,4.7,1.6,7H33.9z"/>
	<path clip-path="url(#SVGID_1_)" fill="#231F20" d="M27.9,90.7c0,0,0.1,0.1,0.4,0.2c0.1,0.1,0.3,0.1,0.4,0.2
		c0.2,0.1,0.4,0.1,0.6,0.1c0.5,0.1,1.1,0.1,1.7-0.1c0.6-0.2,1.3-0.7,1.6-1.5c0,0,0,0,0,0.1c-0.1-2.7-0.2-6.6-0.2-10.8v-0.9v-0.2
		l0.2-0.1c4.4-2.6,8.2-4.7,10.2-5.8l0.1-0.1l0.1,0.1c1.6,2.2,2.3,3.2,2.3,3.2s-0.8-0.9-2.6-3c0,0,0.1,0,0.2,0
		c-1.9,1.2-5.6,3.6-10,6.2c0.1-0.1,0.1-0.2,0.2-0.3v0.9c0,4.2-0.1,8.1-0.2,10.8v0l0,0c-0.4,0.9-1.2,1.3-1.9,1.6
		c-0.7,0.2-1.3,0.2-1.8,0c-0.2-0.1-0.5-0.1-0.6-0.2c-0.2-0.1-0.3-0.2-0.4-0.2C28.1,90.7,27.9,90.7,27.9,90.7"/>
	<path clip-path="url(#SVGID_1_)" fill="#231F20" d="M27,90.2c0,0,0,0-0.1,0.1c-0.1,0.1-0.2,0.2-0.4,0.3c-0.2,0.1-0.5,0.2-0.8,0.2
		c-0.4,0-0.7-0.4-0.8-0.8c-0.2-0.8,0-1.3,0.2-1.7c0.2-0.4,0.4-0.6,0.4-0.6c0,0-0.1,1.1,0.2,2.1c0.1,0.2,0.2,0.3,0.3,0.4
		c0.2,0.1,0.4,0.1,0.6,0.1c0.2,0,0.4,0,0.5-0.1C27,90.3,27,90.2,27,90.2"/>
	<path clip-path="url(#SVGID_1_)" fill="#231F20" d="M26.7,100.9l-6.2-7h4.5C24.9,95.7,25.1,98.6,26.7,100.9"/>
	<path clip-path="url(#SVGID_1_)" fill="#231F20" d="M35.6,93.9h3.9l-5.6,7C35.6,99.3,35.6,95.2,35.6,93.9"/>
	<path clip-path="url(#SVGID_1_)" fill="#231F20" d="M32.9,89.6c0,0,0.1,0,0.2,0.1c0.1,0.1,0.3,0.2,0.6,0.2c0.2,0.1,0.5,0.1,0.7,0.1
		c0.1,0,0.2-0.3,0.1-0.7c0-0.7-0.2-1.4-0.4-1.8c-0.1-0.2-0.2-0.4-0.2-0.6c-0.1-0.1-0.1-0.2-0.1-0.2s0.1,0.1,0.2,0.1
		c0.1,0.1,0.3,0.2,0.5,0.4c0.4,0.4,0.8,1.1,0.8,2c0,0.2,0,0.5-0.1,0.7c-0.1,0.2-0.3,0.5-0.6,0.6c-0.1,0.1-0.3,0-0.4,0
		c-0.1,0-0.2,0-0.3-0.1c-0.2-0.1-0.3-0.2-0.4-0.3c-0.2-0.2-0.4-0.3-0.5-0.5C32.9,89.7,32.9,89.6,32.9,89.6"/>
	<path clip-path="url(#SVGID_1_)" fill="#231F20" d="M20.5,93.9c0,0,2.2,2.4,6.3,6.8c0,0-0.1,0-0.2-0.1c1.5,0,4.2-0.1,7.1-0.1
		c0,0-0.2,0.1-0.3,0.1c0.8-1,2.2-2.7,3.5-4.5c0.8-1,1.6-2,2-2.5c0.1,0.3,0.2,0.4,0.3,0.6C28.5,94.2,20.5,93.9,20.5,93.9
		s8-0.3,18.9-0.4l0.7,0l-0.5,0.6c-0.5,0.6-1.2,1.5-2,2.5c-1.4,1.7-2.8,3.4-3.6,4.4l-0.1,0.1l-0.2,0c-2.9,0-5.6-0.1-7.1-0.1l-0.1,0
		l-0.1-0.1C22.6,96.5,20.5,93.9,20.5,93.9"/>
	<path clip-path="url(#SVGID_1_)" fill="#231F20" d="M41.5,95.7c0,0,0-0.3-0.1-0.7c-0.1-0.4-0.2-0.9-0.4-1.5
		c-0.1-0.6-0.2-1.2-0.3-1.5c-0.1-0.4-0.2-0.7-0.2-0.7c0,0,0.3,0.1,0.5,0.5c0.3,0.4,0.6,0.9,0.7,1.6c0.1,0.7,0.1,1.3,0,1.7
		C41.7,95.5,41.5,95.7,41.5,95.7"/>
	<path clip-path="url(#SVGID_1_)" fill="#231F20" d="M18.3,97.4c0,0-0.3-0.3-0.6-0.7c-0.2-0.3-0.3-0.6-0.5-1
		c-0.1-0.4-0.2-0.8-0.2-1.3c0-1,0.3-1.8,0.7-2.3c0.2-0.3,0.3-0.5,0.5-0.6c0.1-0.1,0.2-0.2,0.2-0.2s0,0.1-0.1,0.2
		c-0.1,0.2-0.2,0.4-0.2,0.7c-0.1,0.5-0.3,1.3-0.3,2.2c0,0.4,0.1,0.8,0.1,1.2c0.1,0.4,0.1,0.7,0.2,1C18.2,97.1,18.3,97.4,18.3,97.4"
		/>
	<path clip-path="url(#SVGID_1_)" fill="#231F20" d="M41.6,78.8c-0.4-0.2-3.8,0-4.4,0c-0.1,1.3,0.3,2.9,2.2,2.9
		C41.2,81.6,41.6,79.7,41.6,78.8"/>
	<path clip-path="url(#SVGID_1_)" fill="#231F20" d="M20.2,78.8c0.4-0.2,3.8,0,4.4,0c0.1,1.3-0.3,2.9-2.2,2.9
		C20.5,81.6,20.2,79.7,20.2,78.8"/>
	<path clip-path="url(#SVGID_1_)" fill="#231F20" d="M43.1,81c0,0,0-0.2,0-0.5c0-0.1,0-0.3-0.1-0.5c-0.1-0.1-0.3-0.3-0.5-0.4
		c-0.4-0.3-0.9-0.7-1.5-1.1c-0.2-0.1-0.5-0.1-0.9-0.1c-0.4,0-0.8,0-1.2,0c-0.4,0-0.9,0-1.3,0c-0.2,0-0.4,0-0.6,0c-0.1,0-0.2,0-0.3,0
		c-0.1,0-0.1,0-0.2,0c-0.6,0.3-1.1,0.7-1.5,1c0-0.1,0-0.1,0-0.1c-0.1,1.1-0.2,1.6-0.2,1.6s-0.1-0.6-0.2-1.6l0-0.1l0.1-0.1
		c0.4-0.4,0.8-0.9,1.5-1.3c0.1-0.1,0.2-0.1,0.4-0.1c0.1,0,0.2,0,0.3,0c0.2,0,0.4,0,0.6,0c0.4,0,0.8,0,1.3-0.1c0.4,0,0.8,0,1.2,0
		c0.2,0,0.4,0,0.6,0c0.2,0,0.5,0.1,0.7,0.2c0.6,0.4,1,1,1.4,1.4c0.2,0.2,0.3,0.4,0.5,0.6c0,0.2,0,0.4,0,0.6
		C43.1,80.8,43.1,81,43.1,81"/>
	<path clip-path="url(#SVGID_1_)" fill="#231F20" d="M41,78.1c0,0,0,0.2,0,0.5c0,0.3,0,0.8-0.3,1.4c-0.1,0.1-0.2,0.3-0.2,0.4
		c-0.1,0.1-0.2,0.3-0.4,0.4c-0.3,0.2-0.8,0.4-1.1,0.5c-0.1,0-0.1,0-0.3,0l-0.3,0c-0.2,0-0.4-0.1-0.7-0.2c-0.5-0.2-0.9-0.5-1.1-1
		c-0.4-0.8-0.4-1.6-0.3-2.1l0-0.3h0.3C39.3,77.8,41.1,78,41,78.1c0-0.1-1.7,0.1-4.4,0.3c0.1-0.1,0.2-0.2,0.3-0.3
		c0,0.4,0,1.1,0.3,1.7c0.3,0.7,1.1,0.9,1.7,0.9c0.4,0,0.6-0.1,0.9-0.3c0.1-0.1,0.2-0.2,0.3-0.3c0.1-0.1,0.2-0.2,0.3-0.3
		c0.3-0.5,0.4-0.9,0.5-1.2C41,78.3,41,78.1,41,78.1"/>
	<path clip-path="url(#SVGID_1_)" fill="#231F20" d="M17.6,81c0,0,0-0.2-0.1-0.5c0-0.2,0-0.4,0-0.6c0.1-0.2,0.3-0.4,0.5-0.6
		c0.4-0.4,0.8-0.9,1.4-1.4c0.2-0.2,0.5-0.2,0.7-0.2c0.2,0,0.4,0,0.6,0c0.4,0,0.8,0,1.2,0c0.4,0,0.9,0,1.3,0.1c0.2,0,0.4,0,0.6,0
		c0.1,0,0.2,0,0.3,0c0.1,0,0.3,0.1,0.4,0.1c0.7,0.4,1.1,0.9,1.5,1.3l0.1,0.1l0,0.1c-0.1,1.1-0.2,1.6-0.2,1.6s-0.1-0.6-0.2-1.6
		c0,0,0,0.1,0,0.1c-0.4-0.3-0.9-0.7-1.5-1c-0.1,0-0.1,0-0.2,0c-0.1,0-0.2,0-0.3,0c-0.2,0-0.4,0-0.6,0c-0.4,0-0.8,0-1.3,0
		c-0.4,0-0.8,0-1.2,0c-0.4,0-0.8,0-0.9,0.1c-0.6,0.4-1,0.8-1.5,1.1c-0.2,0.2-0.4,0.3-0.5,0.4c-0.1,0.2-0.1,0.4-0.1,0.5
		C17.6,80.8,17.6,81,17.6,81"/>
	<path clip-path="url(#SVGID_1_)" fill="#231F20" d="M19.6,78.1c0,0,0,0.2,0.1,0.5c0.1,0.3,0.2,0.7,0.5,1.2c0.1,0.1,0.2,0.2,0.3,0.3
		c0.1,0.1,0.2,0.2,0.3,0.3c0.2,0.1,0.5,0.2,0.9,0.3c0.6,0,1.4-0.2,1.7-0.9c0.3-0.6,0.3-1.2,0.3-1.7c0.2,0.1,0.2,0.2,0.3,0.3
		C21.3,78.2,19.7,78,19.6,78.1c0-0.1,1.8-0.3,4.4-0.3h0.3l0,0.3c0,0.5,0.1,1.3-0.3,2.1c-0.2,0.4-0.6,0.8-1.1,1
		c-0.2,0.1-0.5,0.2-0.7,0.2l-0.3,0c-0.2,0-0.2,0-0.3,0c-0.3,0-0.8-0.2-1.1-0.5c-0.1-0.1-0.3-0.3-0.4-0.4c-0.1-0.1-0.2-0.3-0.2-0.4
		c-0.2-0.6-0.3-1-0.3-1.4C19.6,78.3,19.6,78.1,19.6,78.1"/>
	<path clip-path="url(#SVGID_1_)" fill="#231F20" d="M49.7,48.8c0,0,0.1,0.1,0.2,0.2c0.2,0.2,0.4,0.4,0.7,0.8c0.5,0.8,1.2,2,1.7,3.9
		c0.5,1.8,0.8,4.2,0.8,7.2c0,1.5,0,3.1-0.2,4.8c-0.1,0.9-0.2,1.8-0.3,2.7c-0.1,0.9-0.2,1.9-0.6,2.9l-0.2,0.6l-0.1-0.6
		c-0.1-0.4-0.4-1-1-1.4c-0.2-0.1-0.3-0.2-0.5-0.2c-0.2,0-0.3,0-0.3,0.1c0,0.4-0.1,0.9-0.1,1.4c-0.2,2-0.4,4.4-0.7,6.9l0,0.2l-0.2,0
		c-0.2,0-0.8,0-1.3,0l-0.2,0l0-0.2c0-1.1,0-3.8,0.1-6.7c0,0,0,0.1,0,0.1c-0.3-0.7-1.1-2.3-1.9-4l-0.1-0.1l0.1-0.1
		c0,0,0.1-0.2,0.1-0.3c0,0,0,0,0,0c0.5-1.7,1.1-3.6,1.7-5.6c0.8-2,0-4.4-1.8-6c-0.9-0.8-2-1.4-3.2-1.9c-0.6-0.2-1.2-0.4-1.9-0.4
		c-0.7-0.1-1.3-0.1-1.9,0c-1.3,0.2-2.6,0.6-4,1c-1.3,0.4-2.8,0.9-4.3,0.8h0.1c-0.2,0-0.6,0-0.9,0c-1.4-0.1-2.6-0.6-3.8-1
		c-1.2-0.4-2.4-0.8-3.6-0.9c-0.3,0-0.6,0-0.9,0c-0.3,0-0.6,0-0.9,0.1c-0.6,0.1-1.2,0.2-1.8,0.4c-1.1,0.4-2.2,0.9-3.1,1.7
		c-0.9,0.7-1.7,1.6-2,2.6c-0.4,1-0.5,2.1-0.2,3.1c0.6,2.1,1.3,4.2,1.9,6.1l0,0.1L15,67.2c-0.7,1.5-1.3,2.7-1.9,3.8
		c0-0.1,0-0.1,0-0.1c0.1,2.8,0.1,5,0.2,7.1l0,0.3l-0.3,0c-0.7,0-1.3,0-1.8,0l-0.3,0l0-0.3c0.2-1.7,0-3.2,0-4.6
		c-0.1-1.4-0.2-2.7-0.3-3.9c0.1,0.1,0.1,0.1,0.2,0.2c-0.8-0.2-1.5-0.1-2.1,0.3c-0.5,0.3-0.9,0.8-1.1,1.3l-0.2,0.4l-0.1-0.4
		c-0.3-1-0.3-1.8-0.4-2.7c-0.1-0.9-0.1-1.7-0.1-2.5c0-1.6,0-3.2,0.1-4.6c0.2-2.9,0.6-5.3,1.1-7.2c0.5-1.9,1.2-3.4,1.9-4.2
		c0.3-0.4,0.6-0.7,0.8-0.9c0.2-0.2,0.3-0.3,0.3-0.3s-0.1,0.1-0.3,0.3c-0.2,0.2-0.4,0.5-0.7,0.9c-0.6,0.9-1.3,2.3-1.8,4.2
		c-0.5,1.9-0.9,4.4-1,7.2c-0.1,1.4-0.1,2.9,0,4.6c0,0.8,0.1,1.6,0.2,2.5c0.1,0.8,0.1,1.8,0.4,2.5c-0.1,0-0.2,0-0.3,0
		C7.6,70.5,8,70,8.6,69.6c0.6-0.4,1.5-0.6,2.4-0.4l0.2,0l0,0.2c0.1,1.2,0.2,2.5,0.3,3.9c0.1,1.4,0.3,2.9,0.1,4.8
		c-0.1-0.1-0.1-0.2-0.3-0.3c0.5,0,1,0,1.8,0c-0.1,0.1-0.2,0.2-0.3,0.3c-0.1-2.1-0.2-4.3-0.3-7.1l0-0.1l0-0.1
		c0.5-1.1,1.1-2.3,1.8-3.8c0,0.1,0,0.1,0,0.2c-0.6-1.9-1.3-4-1.9-6.1c-0.4-1.2-0.2-2.4,0.2-3.6c0.4-1.2,1.3-2.1,2.2-2.9
		c1-0.8,2.1-1.4,3.3-1.8c0.6-0.2,1.2-0.3,1.9-0.4c0.3-0.1,0.6-0.1,1-0.1c0.3,0,0.7,0,1,0c2.6,0.2,5,1.6,7.4,1.9c0.3,0,0.6,0,0.8,0
		l0,0l0,0c1.3,0.1,2.7-0.4,4-0.8c1.3-0.4,2.7-0.9,4.1-1.1c0.7-0.1,1.4-0.1,2.1,0c0.7,0.1,1.4,0.3,2,0.5c1.3,0.4,2.5,1.1,3.4,2
		c2,1.7,2.9,4.6,2,6.7c-0.6,2.1-1.2,4-1.8,5.6l0,0l0,0c-0.1,0.1-0.1,0.2-0.1,0.3v-0.3c0.8,1.7,1.6,3.3,1.9,4l0,0.1l0,0.1
		c-0.1,2.8-0.1,5.6-0.2,6.7c-0.1-0.1-0.2-0.2-0.2-0.2c0.6,0,1.2,0,1.3,0c-0.1,0.1-0.2,0.2-0.2,0.2c0.3-2.5,0.5-4.9,0.7-6.9
		c0-0.5,0.1-1,0.1-1.4c0-0.2,0.2-0.4,0.3-0.4c0.2,0,0.3,0,0.4,0c0.2,0,0.4,0.1,0.6,0.3c0.7,0.4,1.1,1.1,1.1,1.7c-0.1,0-0.3,0-0.3,0
		c0.3-0.9,0.4-1.9,0.6-2.8c0.1-0.9,0.2-1.8,0.3-2.7c0.2-1.7,0.2-3.3,0.2-4.8c0-2.9-0.3-5.3-0.7-7.2c-0.4-1.8-1.1-3.1-1.6-3.9
		c-0.3-0.4-0.5-0.6-0.6-0.8C49.8,48.9,49.7,48.8,49.7,48.8"/>
	<path clip-path="url(#SVGID_1_)" fill="#231F20" d="M47.6,86.8c0,0,0.2,0,0.7,0c0.4-0.1,1.1-0.3,1.6-0.8c0.1-0.1,0.3-0.3,0.4-0.5
		c0.1-0.2,0.2-0.4,0.4-0.6c0.2-0.4,0.5-0.9,0.6-1.3c0.2-1,0.3-2.2,0.4-3.4c0.2-2.5,0.3-4.7,0.3-6.3c0-0.8,0-1.5,0-1.9
		c0-0.5,0-0.7,0-0.7s0.1,0.2,0.2,0.7c0.1,0.4,0.2,1.1,0.3,1.9c0.2,1.6,0.2,3.9,0,6.4c-0.1,1.2-0.2,2.4-0.5,3.5
		c-0.2,0.6-0.5,1-0.7,1.4c-0.1,0.2-0.3,0.4-0.4,0.6c-0.2,0.2-0.3,0.3-0.5,0.5c-0.7,0.6-1.4,0.7-1.8,0.7
		C47.9,86.8,47.6,86.8,47.6,86.8"/>
	<path clip-path="url(#SVGID_1_)" fill="#231F20" d="M7.5,71.2c0,0,0,0.1,0,0.2c0,0.1-0.1,0.3-0.1,0.5c-0.1,0.5-0.1,1.1-0.1,1.9
		c0,1.6,0.1,3.9,0.2,6.4c0.1,1.2,0.1,2.5,0.3,3.5c0.1,1,0.9,1.7,1.5,2.1c1.4,0.9,2.5,0.9,2.4,0.8c0,0.1-1.1,0.3-2.6-0.5
		c-0.4-0.2-0.8-0.5-1.1-0.8c-0.4-0.3-0.7-0.9-0.8-1.5c-0.2-1.1-0.3-2.3-0.4-3.6c-0.2-2.5-0.1-4.9,0.1-6.5C7,73,7.1,72.3,7.2,71.9
		c0.1-0.2,0.1-0.4,0.2-0.5C7.5,71.2,7.5,71.2,7.5,71.2"/>
	<path clip-path="url(#SVGID_1_)" fill="#231F20" d="M45.8,103.2c0,0-2.1,2.7-5,5.6c-2.9,3-5.5,5.1-5.5,5.1s2.1-2.7,5-5.6
		C43.2,105.3,45.8,103.2,45.8,103.2"/>
	<path clip-path="url(#SVGID_1_)" fill="#231F20" d="M19.9,113.1c0,0-2-2-4.2-4.7c-2.1-2.7-3.6-5.2-3.6-5.2s2,2,4.2,4.7
		C18.4,110.6,19.9,113.1,19.9,113.1"/>
	
		<rect x="29.9" y="124" transform="matrix(0.9975 7.038949e-02 -7.038949e-02 0.9975 9.0127 -1.797)" clip-path="url(#SVGID_1_)" fill="#FFFFFF" width="0.2" height="5.9"/>
	<rect x="24.3" y="123.4" clip-path="url(#SVGID_1_)" fill="#FFFFFF" width="0.2" height="6.5"/>
	<path clip-path="url(#SVGID_1_)" fill="#231F20" d="M27.9,77.9c0,0-0.8-0.4-2.2-1.2c-1.3-0.8-3.1-1.9-4.9-3.2
		c-0.9-0.6-1.8-1.3-2.6-1.8l-0.2-0.1l-0.2-0.1l-0.1,0l0,0l0,0h0c0,0,0.2,0,0.1,0l0,0h0c0,0,0.1,0,0.1,0l0,0c0,0,0,0-0.1,0
		c-0.1,0-0.2,0.1-0.2,0.2c-0.3,0.3-0.6,0.5-0.9,0.8c-1.1,1-1.8,1.7-1.8,1.7s0.4-0.9,1.2-2.2c0.2-0.3,0.4-0.7,0.7-1.1
		c0.1-0.1,0.2-0.2,0.3-0.3c0,0,0.1-0.1,0.2-0.2l0.1-0.1c0.1,0,0.2-0.1,0.3-0.1l0.1,0l0,0l0.1,0l0,0l0.1,0l0.2,0
		c0.1,0,0.3,0.1,0.5,0.2c1.1,0.5,1.9,1,2.9,1.7c1.9,1.3,3.5,2.8,4.5,3.8C27.3,77.2,27.9,77.9,27.9,77.9"/>
	<path clip-path="url(#SVGID_1_)" fill="#231F20" d="M32.9,77.9c0,0,2.6-2.4,6.4-4.6c1.3-0.8,2.6-1.4,3.5-1.8l0.5-0.2l0.2,0.3
		c1.4,2.1,2,3.4,2,3.4s-1.2-1-2.9-2.8c0.2,0,0.4,0.1,0.7,0.1c-0.8,0.6-1.9,1.4-3.2,2.2C36.3,76.8,32.9,77.9,32.9,77.9"/>
</g>
</svg>
