<?xml version="1.0" encoding="utf-8"?>
<!-- Generator: Adobe Illustrator 18.1.1, SVG Export Plug-In . SVG Version: 6.00 Build 0)  -->
<!DOCTYPE svg PUBLIC "-//W3C//DTD SVG 1.1//EN" "http://www.w3.org/Graphics/SVG/1.1/DTD/svg11.dtd">
<svg version="1.1" id="Layer_1" xmlns="http://www.w3.org/2000/svg" xmlns:xlink="http://www.w3.org/1999/xlink" x="0px" y="0px"
	 viewBox="0 0 177.2 130.2" enable-background="new 0 0 177.2 130.2" xml:space="preserve">
<rect x="2.8" y="3.1" fill="#D8505C" width="174.4" height="127.1"/>
<g>
	<defs>
		<polygon id="SVGID_3_" points="-646.2,-332.4 217.8,-330.4 238.4,825.3 -668.8,823.2 		"/>
	</defs>
	<clipPath id="SVGID_1_">
		<use xlink:href="#SVGID_3_"  overflow="visible"/>
	</clipPath>
	<path clip-path="url(#SVGID_1_)" fill="#231F20" d="M159.2,63.6c0,1.2-1,2.1-2.1,2.1c-1.2,0-2.1-1-2.1-2.1v-0.7h-4.4l-0.4,0.4
		c2,2.5,3.3,5.7,3.3,9.2c0,8-6.5,14.5-14.5,14.5c-8,0-14.5-6.5-14.5-14.5c0-3.3,1.1-6.3,2.9-8.7l-0.9-0.9c0,0-2.9,0-7.6-0.1v0.8
		c0,1.2-1,2.1-2.1,2.1c-1.2,0-2.1-1-2.1-2.1v-0.8c-3.6,0-7.8-0.1-12.5-0.1v1c0,1.2-0.4,2.1-0.8,2.1c-0.4,0-0.8-1-0.8-2.1v-1
		c-18.5-0.2-42.8-0.5-59.3-0.8v17.8h-4.5l-1.3-8.5h-4.5l-1.6,8.5h-7.9v-21h0.1c0-0.3-0.1-0.5-0.1-0.8c0-1.3,0.5-2.6,1.5-3h77.7v-1.2
		c0-1.2,0.4-2.1,0.8-2.1c0.4,0,0.8,1,0.8,2.1v1.2h12.5v-1.2c0-1.2,1-2.1,2.1-2.1c1.2,0,2.1,1,2.1,2.1v1.2h7.6l1.1-1.2
		c-1.9-2.5-3.1-5.6-3.1-8.9c0-8,6.5-14.5,14.5-14.5c8,0,14.5,6.5,14.5,14.5c0,3.5-1.2,6.6-3.2,9.1l1,1h3.8v-1.2c0-1.2,1-2.1,2.1-2.1
		c1.2,0,2.1,1,2.1,2.1V63.6 M143,58.6c1.9,0.5,3.6,1.5,5.1,2.7l2.4-2.5l-2.7-2.6C146.3,57.2,144.8,58.1,143,58.6 M127.3,72.1
		c0,6.3,5.1,11.3,11.3,11.3c6.3,0,11.3-5.1,11.3-11.3c0-2.4-0.8-4.6-2.1-6.5l-9,9.3l-9.6-9.3C128.1,67.5,127.3,69.7,127.3,72.1
		 M127.3,44.4c0,2.6,0.9,5,2.4,6.9l8.7-9l9.3,8.9c1.5-1.9,2.4-4.3,2.4-6.8c0-6.3-5.1-11.3-11.3-11.3
		C132.4,33.1,127.3,38.2,127.3,44.4 M131.4,63.4l7.5,7.3l7-7.2c-2-1.7-4.5-2.7-7.3-2.7C135.9,60.8,133.4,61.8,131.4,63.4
		 M132.2,53.8c1.8,1.3,4,2,6.4,2c2.4,0,4.7-0.8,6.5-2.1l-6.7-6.4L132.2,53.8 M127,59.2l2.4,2.3c1.6-1.3,3.4-2.4,5.4-3
		c-1.8-0.5-3.4-1.4-4.8-2.5l-0.1,0.1L127,59.2 M160.8,63.6V53.5c0-2.1-1.7-3.7-3.7-3.7c-1.9,0-3.5,1.5-3.7,3.3h-0.8
		c1.6-2.5,2.4-5.5,2.4-8.5c0-8.9-7.2-16.1-16.1-16.1c-8.9,0-16.1,7.2-16.1,16.1c0,3,0.8,5.9,2.4,8.5h-4.9c-0.2-1.9-1.8-3.3-3.7-3.3
		c-1.9,0-3.5,1.5-3.7,3.3h-9.3c-0.1-2-1-3.3-2.4-3.3c-1.4,0-2.3,1.3-2.4,3.3H22.8h-0.3l-0.3,0.1c-1.5,0.7-2.4,2.3-2.4,4.5
		c0,0.1,0,0.2,0,0.2l0,0.5v21v1.6h1.6h7.9h1.3l0.2-1.3l1.4-7.2h1.8l1.1,7.2l0.2,1.4h1.4h4.5h1.6v-1.6V63.4
		c12.9,0.2,31.8,0.5,56.2,0.8c0.2,1.9,1,3.1,2.4,3.1c1.3,0,2.2-1.2,2.4-3.1l9.4,0.1c0.3,1.7,1.8,3,3.7,3c1.8,0,3.3-1.3,3.6-2.9
		l4.7,0c-1.4,2.4-2.1,5.2-2.1,8c0,8.9,7.2,16.1,16.1,16.1c8.9,0,16.1-7.2,16.1-16.1c0-2.8-0.7-5.6-2.1-8h0.6
		c0.4,1.6,1.9,2.9,3.6,2.9C159.1,67.3,160.8,65.7,160.8,63.6 M147.6,68.3c0.5,1.2,0.8,2.5,0.8,3.8c0,5.4-4.4,9.7-9.7,9.7
		c-5.4,0-9.7-4.4-9.7-9.7c0-1.3,0.3-2.6,0.8-3.9l8.1,7.8l1.2,1.1l1.1-1.1L147.6,68.3z M128.9,44.4c0-5.4,4.4-9.7,9.7-9.7
		c5.4,0,9.7,4.4,9.7,9.7c0,1.5-0.4,3-1.1,4.3l-7.9-7.6l-1.2-1.1l-1.1,1.1l-7.3,7.5C129.3,47.4,128.9,45.9,128.9,44.4 M147.6,58.2
		l0.6,0.6l-0.3,0.3c-0.3-0.2-0.6-0.4-0.9-0.5C147.2,58.5,147.4,58.3,147.6,58.2 M133.9,63.6c1.5-0.8,3.1-1.3,4.7-1.3
		c1.7,0,3.3,0.5,4.8,1.3l-4.6,4.7L133.9,63.6z M138.6,49.5l4,3.8c-1.2,0.5-2.5,0.8-3.9,0.8c-1.3,0-2.6-0.3-3.8-0.8L138.6,49.5z
		 M130.2,58.2c0.2,0.1,0.4,0.3,0.6,0.4c-0.4,0.3-0.9,0.5-1.3,0.9l-0.3-0.3L130.2,58.2z"/>
	<path clip-path="url(#SVGID_1_)" fill="#CCC9C7" d="M153.4,44.7c0-8-6.5-14.5-14.5-14.5c-8,0-14.5,6.5-14.5,14.5
		c0,8,6.5,14.5,14.5,14.5C147,59.2,153.4,52.7,153.4,44.7 M127.3,44.4c0-6.3,5.1-11.3,11.3-11.3c6.3,0,11.3,5.1,11.3,11.3
		c0,6.3-5.1,11.3-11.3,11.3C132.4,55.8,127.3,50.7,127.3,44.4"/>
	<path clip-path="url(#SVGID_1_)" fill="#CCC9C7" d="M153.4,72.5c0-8-6.5-14.5-14.5-14.5c-8,0-14.5,6.5-14.5,14.5
		c0,8,6.5,14.5,14.5,14.5C147,87,153.4,80.5,153.4,72.5 M127.3,72.1c0-6.3,5.1-11.3,11.3-11.3c6.3,0,11.3,5.1,11.3,11.3
		c0,6.3-5.1,11.3-11.3,11.3C132.4,83.4,127.3,78.4,127.3,72.1"/>
	<path clip-path="url(#SVGID_1_)" fill="#CCC9C7" d="M126.4,62.9l-4.1-3.9l4.1-4.2H22.8c-2.1,0.9-1.9,5.5,0,6.4
		C24.6,62,126.4,62.9,126.4,62.9"/>
	<path clip-path="url(#SVGID_1_)" fill="#CCC9C7" d="M155,58.4l-16.6-16l-12,12.4l-4.1,4.2l4.1,3.9L138.9,75L155,58.4z M130,62
		l-2.9-2.8l2.9-3l8.6-8.9l11.9,11.5l-11.5,11.9L130,62z"/>
	<polygon clip-path="url(#SVGID_1_)" fill="#CCC9C7" points="21.3,79.6 21.3,58.6 41.1,58.6 41.1,79.6 36.6,79.6 35.3,71.1 
		30.7,71.1 29.1,79.6 	"/>
	<path clip-path="url(#SVGID_1_)" fill="#231F20" d="M21.3,79.6c0,0,2.3-0.1,7.9-0.2c0,0-0.1,0.1-0.2,0.2c0.3-1.6,0.8-4.7,1.4-8.6
		l0-0.3l0.3,0c0.7,0,2.5-0.1,4.5-0.1l0.4,0l0.1,0.4c0.3,1.6,0.9,4.9,1.5,8.5c-0.1-0.1-0.4-0.3-0.6-0.5c0.8,0,2.6,0,4.5-0.1
		c-0.1,0.1-0.4,0.4-0.7,0.7c0-3.2-0.1-8.4-0.1-13.8c0-2.5,0-5,0-7.2c0.3,0.3,0.5,0.5,0.8,0.8c-7.9,0-14.8-0.1-19.9-0.3
		c0.2-0.2,0.4-0.4,0.5-0.5C21.5,71.8,21.3,79.6,21.3,79.6s-0.3-7.8-0.5-21l0-0.5l0.5,0c5.1-0.1,12-0.2,19.9-0.3l0.8,0v0.8
		c0,2.2,0,4.6,0,7.2c0,5.4-0.1,10.6-0.1,13.8l0,0.7l-0.7,0c-1.9,0-3.7-0.1-4.5-0.1l-0.6,0l-0.1-0.5c-0.5-3.6-1-6.9-1.2-8.5
		c0.2,0.2,0.4,0.4,0.5,0.4c-2,0-3.8-0.1-4.5-0.1c0.2-0.1,0.3-0.3,0.4-0.3c-0.8,3.8-1.5,6.9-1.8,8.5l0,0.2l-0.2,0
		C23.5,79.6,21.3,79.6,21.3,79.6"/>
	<polygon clip-path="url(#SVGID_1_)" fill="#CCC9C7" points="149.8,62.9 152.1,58.9 149.8,54.7 157.1,54.7 157.1,62.9 	"/>
	<path clip-path="url(#SVGID_1_)" fill="#CCC9C7" d="M116.7,65.7c-1.2,0-2.1-1-2.1-2.1V53.5c0-1.2,1-2.1,2.1-2.1
		c1.2,0,2.1,1,2.1,2.1v10.1C118.8,64.8,117.8,65.7,116.7,65.7"/>
	<path clip-path="url(#SVGID_1_)" fill="#231F20" d="M116.7,65.7c0,0,0.5,0,1.2-0.5c0.3-0.2,0.6-0.7,0.7-1.2c0.1-0.6,0-1.3,0-2
		c0-1.5-0.1-3.3-0.2-5.3c0-1,0-2.1-0.1-3.2c0-0.9-0.7-1.7-1.7-1.7c-0.8,0-1.7,0.8-1.6,1.7c0,1.1,0,2.1-0.1,3.2
		c-0.1,2-0.1,3.8-0.2,5.3c0,0.7-0.1,1.5,0,2c0.1,0.6,0.4,1,0.7,1.2C116.1,65.8,116.7,65.7,116.7,65.7c0,0-0.5,0.1-1.3-0.3
		c-0.4-0.2-0.8-0.7-0.9-1.3c-0.1-0.7-0.1-1.3-0.1-2.1c0-1.5-0.1-3.3-0.2-5.3c0-1,0-2.1-0.1-3.2c-0.1-1.3,1.1-2.7,2.6-2.7
		c1.4,0,2.6,1.3,2.5,2.7c0,1.1,0,2.1-0.1,3.2c-0.1,2-0.1,3.8-0.2,5.3c-0.1,0.7,0,1.5-0.1,2.1c-0.2,0.7-0.6,1.1-0.9,1.3
		C117.2,65.9,116.6,65.7,116.7,65.7"/>
	<path clip-path="url(#SVGID_1_)" fill="#CCC9C7" d="M101.2,65.7c-0.4,0-0.8-1-0.8-2.1V53.5c0-1.2,0.4-2.1,0.8-2.1
		c0.4,0,0.8,1,0.8,2.1v10.1C102,64.8,101.7,65.7,101.2,65.7"/>
	<path clip-path="url(#SVGID_1_)" fill="#CCC9C7" d="M157.1,65.7c-1.2,0-2.1-1-2.1-2.1V53.5c0-1.2,1-2.1,2.1-2.1
		c1.2,0,2.1,1,2.1,2.1v10.1C159.2,64.8,158.3,65.7,157.1,65.7"/>
	<path clip-path="url(#SVGID_1_)" fill="#231F20" d="M157.1,65.7c0,0,0.5,0,1.2-0.5c0.3-0.2,0.6-0.7,0.7-1.2c0.1-0.6,0-1.3,0-2
		c0-1.5-0.1-3.3-0.2-5.3c0-1,0-2.1-0.1-3.2c0-0.9-0.7-1.7-1.7-1.7c-0.8,0-1.7,0.8-1.6,1.7c0,1.1,0,2.1-0.1,3.2
		c-0.1,2-0.1,3.8-0.2,5.3c0,0.7-0.1,1.5,0,2c0.1,0.6,0.4,1,0.7,1.2C156.6,65.8,157.1,65.7,157.1,65.7c0,0-0.5,0.1-1.3-0.3
		c-0.4-0.2-0.8-0.7-0.9-1.3c-0.1-0.7-0.1-1.3-0.1-2.1c0-1.5-0.1-3.3-0.2-5.3c0-1,0-2.1-0.1-3.2c-0.1-1.3,1.1-2.7,2.6-2.7
		c1.4,0,2.6,1.3,2.5,2.7c0,1.1,0,2.1-0.1,3.2c-0.1,2-0.1,3.8-0.2,5.3c-0.1,0.7,0,1.5-0.1,2.1c-0.2,0.7-0.6,1.1-0.9,1.3
		C157.6,65.9,157.1,65.7,157.1,65.7"/>
</g>
</svg>
