<svg xmlns="http://www.w3.org/2000/svg" xmlns:xlink="http://www.w3.org/1999/xlink" viewBox="0 0 178.3 130.9" enable-background="new 0 0 178.3 130.9"><rect x="2.1" y="2.6" fill="#D8505C" width="176.2" height="128.3"/><defs><rect id="a" x="2.1" y="2.6" width="176.2" height="128.3"/></defs><clipPath id="b"><use xlink:href="#a" overflow="visible"/></clipPath><path clip-path="url(#b)" fill="#fff" d="M65 7.3c-.5 3.9-2.5 4.1-2.8 4-.3-.1-.3-.1-1.3-.5 0 .3-.2 1-.5 2v7.1l.4.4h.1c.2-.6.4-.9.4-.9.3.4 11.1 7.7 13 9.1.5 5 6.6 38.3 6.6 38.3l-44.5 32.5-14.7-60.3 8.9-.4 9.9-8.5c-.2-2-.3-3.4-.3-3.4l1.8 1.9 2.5-2.7c-.9-.8-3.5-2.9-5.8-10.6-.4-.8-.5-14.1-.4-14.7.1-3.3-1.6-3.1-2.1-3.2-.5-.1 0-4.5 2.9-7.8 2-2.3 4.7-6.2 11.1-5.9 6.3.3 11.6 3.6 12.8 9.7 1.2 6.1 0 9.4 0 9.4 1.1.1 2.3 1.4 2 4.5"/><path clip-path="url(#b)" fill="#fff" d="M-13.7 33.3v128l205.3-.6c.5-2-.2-13.6-.3-16.5-.1-2.8-2-23.6-2.4-26-.5-2.4-1.7-7.6-4.6-10.2 0 0 4.5-3.6 4.2-5.9-1.8-3.4-6.8-30.9-7.3-32.2-.4-.5-.9-1.1-1.5-1.6l-3.8-44-23.1-16.8-2.6-4.2-.5.6-.4-7.6s.3-2.5.4-7.4c.1-4.9-9.7-6.9-12.4-7.2-2.7-.3-5-.5-5.3 1.4-2.3.9-11.1 1.1-11.4 3.4-.3 2.3 2.3 9 3.4 8.5.1 1 1.1 10.3 1.1 10.8 1.5 1.6 6.1 8.8 6.5 9.1v1.7h.4l-9 5.9-4.9 52.1-1 6.5 1.5 2.9c.5 2.5 1.9 11.2 1.9 11.2-.9 3.7-1.8 7.5-2.4 10.2-2.3-5.3-9.8-28.8-9.9-29.4l.1-.2c1.6.6 3.6.7 4 .7 1.3 0 2.7-.5 3.7-1.1.7-.4.9-.6.8-.9 1.3-7.3-1.5-17-2-18.6h-.1l3.9-8c-.2-2.2-8.6-14.9-10.1-15.2 1.4-.9 4.3-9.8.5-16.4.2-.5.6-2 .7-3 0-1.1-1.6-9-7.6-12.5-.5-3.4-6.6-6.2-10.1-5.9-3.3.5-12 1.7-15.4 7-3.4 5.3.8 10.1 1.2 10.4-1 1.2-4.7 11.8-3.2 20.5-1 .6-1.7 1.1-1.9 1.3-2.3-1.7-5.3-2.6-8.6-2.7-6.5-.3-10.3 3.1-11.4 6-1.1 3-1.3 6.6-.8 6.8.5.1.1 1.3 0 4.6 0 .3-.4 2.8-.7 5.4l.1-.4c-.5.5-.8 1.2-.8 1.9 0 .5.2 1 .5 1.5v-.4c-.1 1.5-.2 2.7 0 3 1.9 6.6 5.7 12.6 7.5 15l-.1.1-2.6 2.8-1.9-1.9s-.5 1.9-.8 4.5l-7.8 6.7-.3-.4s1.7-23 1.5-31.2c-.2-8.2-2.7-12-4-13-1.2-.9-7.5-3.8-14.9-6.5 6.4 1.5 16.6-10 3.9-22.1 1.5-9.2-6.3-17.7-15.8-14.8.1-1.2-7-1.8-6.6 2.1-1.1-1.2-5.1 0-3.7 3.5-1.4-1.5-15.7 1.7-7.8 17-2.1.5-3.4 4.3-2 8.3l-9.3 3.4z"/><path clip-path="url(#b)" fill="#CCC9C7" d="M132.3 69.2l-.8.3c-.8.3-1.5.5-2.1.8-1.2.5-2.1 1-2.3 1.5-.3.5-4 14-6.9 25.4-1.8 6.8-3.3 12.9-3.6 15.1.2 1 2.6 5.9 5 8l-.2-5.9c2.5.7 9.4 5 9.7 7.9 0 .8-.9 11.3-.9 11.3h-.1l1 3c.4 1 2.4 1.7 3.3 1.7 1.7-13.2 6.1-31 6.1-31l4.4-.6.2-.2c-13.9-12.2-9-20.9-10.4-22.6-1.4-1.7-.2-5.4.1-8.5l-.1.1c-1.2-.8-2-2.1-2.2-4.1-.1-.8 0-1.6.3-2.5l-.5.3z"/><path clip-path="url(#b)" fill="#CCC9C7" d="M176.5 68.5c.1-.3-5.1-2.8-6.3-3.5l-1.3-.6c1.2 1.8 2.2 4 2.7 6.7 1.9 11.1-2.2 22.8-7.1 21.4l-.3.6c-.5 1.9 1.3 4.9 3.7 6.7 2.4 1.8 8.4 5.1 8.4 5.1l.2-36.4z"/><path clip-path="url(#b)" fill="#231F20" d="M143.8 85.3c0-.1.9.5 2.3.4.7 0 1.5-.3 2.4-.8.5-.2.8-.5 1.5-.8.2-.1.6 0 .7 0l.2.1h.1c.1-.2-.6 1.6-.3.8l-.8-.3c-1.1-.4-2.1-.9-2.9-1.1-.9-.2-1.8 0-2.5.2s-1.3.5-1.7.6c-.4.1-.6.2-.6.2l.6-.3c.4-.2.9-.5 1.6-.9.7-.3 1.6-.7 2.7-.5 1.1.1 2.1.6 3.2 1l.8.3-.3.8h-.1l-.2-.1h-.1c-.4.1-.9.4-1.4.6-.9.4-1.9.7-2.7.6-1.7-.1-2.5-.9-2.5-.8"/><path clip-path="url(#b)" fill="#231F20" d="M139 83.8s.1.8 0 2c0 1.2-.1 3-.3 4.8-.1.9-.2 1.8-.2 2.6v.2s.1.2 0 .2l.3.4c.2.2.5.4.7.5.5.2 1 .3 1.4.3.3-.1.5-.1.5-.1s-.2.1-.5.2-.9.2-1.5 0c-.3-.1-.7-.2-1-.5-.2-.1-.3-.3-.5-.5-.1-.2-.1-.2-.1-.4l-.1-.4c-.1-.9 0-1.8.1-2.7.2-1.9.5-3.6.8-4.8.2-1 .4-1.8.4-1.8"/><path clip-path="url(#b)" fill="#231F20" d="M150.8 81.8s-.5-.2-1.3-.7c-.8-.4-2-.8-3.3-.9-1.3-.1-2.5 0-3.4.2-.9.2-1.5.3-1.5.3s.5-.3 1.3-.7c.9-.4 2.2-.8 3.6-.6 1.5.2 2.7.8 3.4 1.4.9.5 1.2 1 1.2 1"/><path clip-path="url(#b)" fill="#fff" d="M122.3 132.5l-.5-12.3c-2.4-2.1-4.7-7-5-8 .1-.9.5-2.6 1-4.8l-7.3-20.3c0 1.5-1.1 8.2-1.1 8.2s.5 8.9-.6 11.4c-1 2.5-2.9 3.4-3.4 3.4-.1.8-1.3 8.9-1.3 8.9l-.6.9v1.7l1.4.3 4.9 5.3 12.5 5.3z"/><path clip-path="url(#b)" fill="#231F20" d="M157.3 92.9v.4c0 .3 0 .6-.1 1.1-.1 1-.5 2.4-1.3 4s-2.1 3.5-3.9 5.3c-.9.9-1.9 1.8-3.1 2.6-.6.4-1.2.8-2 1.1-.4.2-.7.3-1.1.4-.4.1-.9.2-1.4-.1-1.3-1.1-3.5-3-5.3-5.3-2.5-3-4.4-6.4-5.1-9.8-.4-1.7-.5-3.3-.4-4.8l.1-2.2c0-.3 0-.7-.1-1 0-.2-.3-.5-.4-.8-.6-1.3-.4-2.5-.3-3.5.1-1 .3-1.9.5-2.6.3-1.4.4-2.2.4-2.2s0 .8-.2 2.2c-.1.7-.2 1.6-.3 2.6-.1 1-.2 2.2.4 3.2.1.1.2.2.2.4l.1.2.1.3c.1.4.1.7.1 1.1v2.2c0 1.5.2 3 .6 4.6.8 3.2 2.6 6.4 5.1 9.4 1.8 2.2 3.9 4.1 5.2 5.2h-.1c.4.2 1.2 0 1.8-.3.7-.3 1.3-.6 1.9-1 1.2-.7 2.2-1.6 3.1-2.4 1.8-1.7 3.1-3.4 4-5 .9-1.6 1.3-2.9 1.5-3.9.1-.5.2-.8.2-1.1-.2-.1-.2-.3-.2-.3"/><path clip-path="url(#b)" fill="#231F20" d="M141.4 99.3s0 .1.1.4c.1.2.3.6.7.9.4.2 1 .2 1.6-.1.6-.3 1.3-.8 1.6-1.4v-.1l.1-.1c.4-.3.9-.9 1.4-1.5.1.1.3.4.5.7-.2 0-.4.1-.7.1-3.1.7-5.8.7-6.9.5l.1-.1c0-.1.1 0 .1.1 0 0 .1.1.2.1l.3.2c.2.1.4.1.5.2.3.1.4.1.4.1s-.1 0-.4-.1c-.1 0-.3 0-.6-.1-.1 0-.2-.1-.4-.1-.1-.1-.3 0-.4-.4v-.1h.2c1.1-.1 3.7-.5 6.7-1.1.3 0 .5-.1.7-.1l1.3-.2-.9.9c-.6.7-1.2 1.3-1.7 1.6.1-.1.1-.1.1-.2-.5 1-1.4 1.4-2.1 1.6-.7.2-1.5.2-1.9-.2-.4-.4-.5-.8-.6-1.1v-.4"/><path clip-path="url(#b)" fill="#231F20" d="M152.2 61s-.8-1.4-1.2-3.3c-.4-1.9-.3-3.5-.3-3.5s.8 1.4 1.2 3.3c.4 1.9.3 3.5.3 3.5"/><path clip-path="url(#b)" fill="#231F20" d="M132.3 84.1s.3-.2.8-.5 1.3-.5 2.2-.5c.9 0 1.7.5 2.1.8.5.4.6.7.6.7s-.3-.2-.8-.3c-.5-.1-1.2-.3-2-.3h-2c-.5.1-.9.1-.9.1"/><path clip-path="url(#b)" fill="#231F20" d="M132.8 85.3s1.1.1 2.1.2c.9.1 2-.2 2-.2s-.1.2-.4.5c-.3.3-.9.6-1.6.6-.7 0-1.2-.4-1.5-.6-.5-.3-.6-.5-.6-.5"/><path clip-path="url(#b)" fill="#fff" d="M143.9 75.6c-1.1 1.3-10.8 3.2-11.5-4-.7-7.2 14-17.4 20-11.7 4.7-3.5 16.6-1.8 19.1 10.9 2.1 12-3 24.8-8.3 20.8-.2 1.3-8.3 3-9-2.2-.7-5.2 2.4-9.3 2.5-10.5-.6-.4-9.8 1.4-12.8-3.3"/><path clip-path="url(#b)" fill="#231F20" d="M132.3 81.8s.1-.3.3-.7c.1-.2.3-.4.6-.7.3-.2.6-.4 1-.5.8-.2 1.6 0 2 .3.4.3.5.6.6.6 0 0-.3-.1-.8-.2-.4-.1-1 0-1.6.2-.3.1-.6.2-.8.3l-.7.3-.6.4"/><path clip-path="url(#b)" fill="#231F20" d="M175 104.6s-.9-.4-2.4-1.1c-.7-.3-1.6-.8-2.5-1.3l-1.5-.8c-.5-.3-1-.6-1.5-1-2.2-1.4-3.5-3.4-4.1-4.9-.1-.4-.2-.8-.3-1.1v-.9c.1-.4.1-.7.1-.7v.7c0 .2.1.5.2.8.1.3.2.6.4 1 .7 1.4 2.1 3.1 4.2 4.4l1.5 1 1.4.9c.9.6 1.7 1.1 2.4 1.6l2.1 1.4"/><path clip-path="url(#b)" fill="#231F20" d="M150.5 113.3s-.1-.5-.1-1.2c0-.4 0-.8-.1-1.2l-.1-1.5c-.1-1-.4-1.9-.6-2.5-.3-.7-.4-1.1-.4-1.1s.3.4.8.9 1 1.5 1.2 2.7c.1.6.1 1.1 0 1.6 0 .5-.1.9-.2 1.3l-.5 1"/><path clip-path="url(#b)" fill="#231F20" d="M142.7 75.6c0-.1.5 1.2 2.6 2.1 1 .5 2.4.8 4.1 1 .8.1 1.8.1 2.8.1.5 0 1 0 1.5-.1h1.2000000000000002c.1 0 .3 0 .5.1h.1v.1c-.1.7-.4 1.3-.7 1.9-.3.6-.6 1.3-.8 2.1-.5 1.5-.9 3.2-.9 5l.1 1.4c0 .4.2.9.4 1.3.4.8 1.2 1.5 2.2 1.8 1 .3 2 .4 3.1.2.5-.1 1.1-.2 1.6-.4.3-.1.5-.2.7-.3.2-.1.4-.3.4-.4v-.6l.5.4c.7.5 1.5.8 2.3.6.9-.2 1.6-.8 2.3-1.6 1.3-1.6 2.1-3.8 2.7-6.2.6-2.4.9-5 .9-7.6 0-2.7-.3-5.4-1.2-8.1-.7-2.1-1.8-4-3.2-5.6-1.4-1.5-3.2-2.7-5-3.3-3.6-1.3-7.4-.8-9.5.7l-.3.2-.2-.2c-1.1-1-2.6-1.5-4-1.5-1.4-.1-2.9.3-4.2.7-2.7.9-5 2.4-6.8 4.1-1.9 1.7-3.4 3.6-4.1 5.6-.2.5-.3 1-.4 1.5 0 .5-.1 1 0 1.5l.1.7c0 .2.2.4.2.7.1.5.4.8.6 1.2 1.1 1.4 2.7 1.9 4.1 2.1 1.4.2 2.6.1 3.5-.1.9-.1 1.6-.4 2.1-.6.6-.3.7-.5.7-.5s-.2.2-.6.4c-.4.2-1.1.5-2.1.7-.9.2-2.1.3-3.5.2-1.4-.2-3.1-.6-4.3-2.1-.3-.4-.6-.8-.7-1.2l-.3-.7-.1-.7-.1-.4v-1.2000000000000002c.1-.5.2-1.1.4-1.6.7-2.1 2.2-4.1 4.1-5.9 1.9-1.7 4.2-3.3 7-4.3 1.4-.5 2.9-.8 4.5-.8s3.2.5 4.5 1.7h-.5c2.4-1.7 6.4-2.3 10.3-.9 1.9.7 3.8 1.9 5.4 3.5 1.5 1.6 2.7 3.7 3.4 5.9.9 2.8 1.2 5.6 1.2 8.3 0 2.7-.3 5.4-.9 7.8-.6 2.4-1.5 4.7-2.9 6.5-.7.9-1.6 1.6-2.7 1.9-1.1.2-2.2-.2-2.9-.8.2-.1.5-.2.5-.2-.2.5-.5.7-.8.8-.3.2-.6.3-.9.4-.6.2-1.2.3-1.7.4-1.2.1-2.3 0-3.4-.3-1.1-.4-2-1.1-2.5-2.1-.2-.5-.4-1-.4-1.5s0-1-.1-1.4c0-1.9.4-3.7 1-5.2.5-1.5 1.3-2.8 1.6-3.8l.1.1c-2.2.1-4.3.2-6 0-1.7-.2-3.1-.6-4.1-1.1-1-.5-1.7-1.1-2-1.5-.3-.7-.5-.9-.5-.9"/><path clip-path="url(#b)" fill="#CCC9C7" d="M134.3 135.5c1.7-13.2 6.1-31 6.1-31l4.4-.6c-.2 1.5-.9 19.2-.5 20 .4.8 4.6 5.4 6.4 6.4 1.2-.4 14.3-9.8 25.5-24.2v4.8c-.8 1.7-9.3 13-10.7 15.5-1.3 2.4-2.3 5.8 0 7.9 2.3 2.1 10.8 6.5 10.8 6.5v9.7c-.8.3-8.5.6-10.7.5-2.2 0-16.8-2.6-16.8-2.6s-7.4-10.5-7.8-10.8c-.3-.3-3.3.4-3.3.4l-3.4-2.5z"/><path clip-path="url(#b)" fill="#231F20" d="M175 109.1s-.5.7-1.6 2c-1 1.3-2.5 3.2-4.6 5.5-2 2.3-4.7 5-7.8 8-.8.7-1.6 1.5-2.5 2.3-.9.7-1.8 1.5-2.7 2.3-1.9 1.5-3.8 3.1-6.2 4.6l-.2.1-.2-.1c-1.6-1-3.2-2.6-5-4.5-.2-.2-.4-.5-.7-.7l-.7-.8c-.1-.2-.2-.2-.3-.5-.1-.2-.1-.5-.1-.7v-5.4c.1-5.3.3-10.4.6-14.2l.5.5c-1.9.2-3.2.4-4.4.6l.3-.3c-2.3 9.4-4 17.1-5 22.5-1 5.4-1.5 8.4-1.5 8.4s.4-3 1.2-8.4c.9-5.4 2.3-13.2 4.5-22.6l.1-.2h.3c1.2-.2 2.5-.4 4.4-.7l.5-.1v.5c-.2 3.7-.4 8.8-.6 14.1 0 1.5-.1 2.9 0 4.3v1.3h-.1l-.1.1h-.1c-.2.2.3-.2.2-.2v.1l.1.1.1.2.6.7.6.7c1.7 1.9 3.3 3.5 4.7 4.4h-.3c1-.6 2.1-1.4 3.1-2.1 1-.8 2-1.5 2.9-2.3.9-.8 1.8-1.5 2.7-2.2.9-.8 1.7-1.5 2.5-2.2 3.2-2.9 5.9-5.5 8-7.7 2.2-2.2 3.7-4.1 4.8-5.3 1.4-1.4 2-2.1 2-2.1"/><path clip-path="url(#b)" fill="#231F20" d="M175.2 143.9s-2-.9-5.3-2.6c-1.6-.9-3.5-1.9-5.5-3.3-1.1-.7-1.8-2.1-1.9-3.5-.1-1.4.3-2.8.8-4.1.3-.7.6-1.3 1-1.8l1.1-1.7c.7-1.1 1.5-2.1 2.2-3.1l3.8-5.1c.5-.7 1-1.4 1.5-1.9.4-.6.8-1.1 1.1-1.5.6-.8.9-1.3.9-1.3s-.3.5-.8 1.4c-.3.4-.6 1-.9 1.6-.4.6-.8 1.3-1.3 2-1 1.5-2.2 3.3-3.6 5.3-.7 1-1.4 2-2.1 3.1-.3.5-.7 1.1-1.1 1.6-.4.5-.7 1.1-.9 1.8-.5 1.2-.9 2.5-.8 3.7.1 1.2.6 2.3 1.5 2.9 1.8 1.5 3.7 2.6 5.2 3.5 3.1 1.9 5.1 3 5.1 3"/><path clip-path="url(#b)" fill="#231F20" d="M164 58.7s.4.1 1 .2c.3 0 .7.1 1.1 0 .2 0 .4-.1.5-.2.1-.1.2-.2.2-.4 0 .1 0 .2.1.3-.2-.2-.4-.6-.6-1-.5-1.4-.4-2.6-.3-3.5.1-.9.2-1.4.2-1.4s.1.5.3 1.4c.2.8.3 2 .7 3.2.1.4.3.6.4.8l.1.2v.1c-.1.4-.3.7-.7.9-.3.2-.6.2-.9.2-.5 0-.9-.2-1.2-.3-.6-.2-.9-.5-.9-.5"/><path clip-path="url(#b)" fill="#231F20" d="M164.5 51.5h-1.4c-.8 0-1.9-.1-3.2-.3h-.7999999999999999c-.2 0-.5.1-.7.2-.5.2-.9.4-1.2.6-.3.2-.6.4-.8.5-.2.2-.3.2-.3.2s.1-.1.2-.3c.1-.2.3-.5.6-.8.3-.3.7-.6 1.2-.9.3-.1.5-.3.9-.4l.3-.1h.7c1.3.2 2.4.5 3.2.7.8.3 1.3.6 1.3.6"/><path clip-path="url(#b)" fill="#231F20" d="M159.2 54.6h-.7c-.2 0-.5-.1-.8-.4-.3-.2-.5-.6-.6-1l-.1-.1.1-.2c.2-.4.8-1 1.6-1.2 1.4-.3 2.4.3 3.1.7.7.4 1 .7 1 .7s-.5-.1-1.2-.3c-.7-.2-1.8-.5-2.7-.2-.5.1-.9.5-1.2.7 0-.1.1-.3.1-.3.2 1.6 1.5 1.6 1.4 1.6"/><path clip-path="url(#b)" fill="#231F20" d="M170.6 54.3c-.1 0 1.2 0 1.5-1.5 0 .1 0 .2.1.3-.3-.2-.7-.6-1.2-.7-.9-.2-1.9.1-2.7.2-.7.2-1.2.3-1.2.3s.4-.3 1-.7c.6-.4 1.7-1 3.1-.7.8.2 1.3.8 1.6 1.2l.1.2-.1.1c-.2.4-.4.7-.6 1-.3.2-.6.3-.8.4h-.5c-.2-.1-.3-.1-.3-.1"/><path clip-path="url(#b)" fill="#fff" d="M158.5 45.5c-1.2 2.5-5 7.2-9 6.8-2.1 1.8.1 5.6 1.5 6.6-1.4-.4-3.2-.8-5-.2-1.2-2.1-2.4-3.5-.5-6.8-2.7-6 .5-17.6 13.1-20.3 12-1.7 18.5 13.2 15.8 18-1.8 1.2-8.9 2.8-12.2-4.6l-3.7.5z"/><path clip-path="url(#b)" fill="#231F20" d="M157.3 45.5s1-.2 3.8-.6c.5 1 1.3 2.8 3.4 4.2 1 .7 2.4 1.2 3.9 1.3 1.5.1 3.2-.2 4.7-1 0 0 0 .1-.1.1.7-1.4.6-3.4.1-5.3-.5-2-1.4-4-2.7-5.9-1.3-1.9-3.1-3.7-5.3-4.9-2.2-1.2-4.9-1.7-7.6-1.3-1.4.4-3.8.9-5.9 2.2-1.7 1-3.1 2.3-4.3 3.7-1.2 1.5-2 3.1-2.6 4.7-1.2 3.3-1 6.7 0 9.1l.1.2-.1.2c-.8 1.3-1.1 2.6-.9 3.7.3 1.1.9 2 1.3 2.8-.2-.1-.3-.1-.4-.1 1.2-.4 2.2-.3 3.1-.2.8.1 1.5.3 2.1.5-.1.2-.2.3-.2.4-.8-.7-1.3-1.4-1.6-2.1-.4-.7-.6-1.4-.7-2-.2-1.2.2-2.3.9-2.9h.2c2.1.2 3.7-.8 4.9-1.7 1.2-.9 2-1.8 2.6-2.6.6-.8 1-1.3 1.2-1.7 0-.7.1-.8.1-.8l-.3.6c-.2.4-.6 1-1.2 1.8s-1.4 1.7-2.5 2.7c-.6.5-1.3.9-2.1 1.3s-1.8.6-2.9.5h.1c-.6.5-.9 1.4-.7 2.6.2 1.1.9 2.6 2.2 3.8l.8.7-1-.3c-.6-.2-1.2-.3-2-.4-.8-.1-1.7-.1-2.8.2l-.2.1-.1-.2c-.5-.8-1.1-1.7-1.5-3-.3-1.3.1-2.8.9-4.2v.3c-1.1-2.6-1.3-6.2-.1-9.6.6-1.7 1.5-3.5 2.7-5 1.3-1.5 2.8-2.8 4.6-3.9 2.2-1.4 4.7-2 6.1-2.3 2.9-.4 5.8.2 8.1 1.5 2.4 1.3 4.2 3.2 5.5 5.2 1.3 2 2.2 4.1 2.7 6.2.4 2 .5 4.1-.3 5.7v.1h-.1c-1.7.9-3.4 1.1-5 1-1.6-.1-3-.7-4-1.4-2.1-1.5-2.9-3.4-3.4-4.4h.1c-2.6.2-3.6.4-3.6.4"/><path clip-path="url(#b)" fill="#231F20" d="M120.5 120.4s-.2-.2-.5-.4c-.3-.3-.7-.8-1.3-1.4-1-1.3-2.4-3.3-3.5-6.1v-.1c.9-4.8 2.4-11.4 4.3-18.7 2-7.6 4-14.5 5.5-19.5l.6-1.8.1-.4.1-.2.2-.2c.2-.3.4-.4.6-.5.9-.5 1.7-.8 2.4-1.1 1.4-.5 2.1-.7 2.1-.7s-.8.3-2.1.8c-.7.3-1.5.6-2.3 1.2-.2.2-.4.3-.5.5l-.1.1-.1.2-.1.4-.5 1.8c-1.3 5-3.1 11.9-5.1 19.6-1.9 7.2-3.6 13.8-4.7 18.5v-.1c1 2.7 2.2 4.8 3.1 6.1.5.7.9 1.2 1.2 1.5.4.3.6.5.6.5"/><path clip-path="url(#b)" fill="#231F20" d="M129 133.7s.1-4.6.5-11.4v.1c-.1-.6-.8-1.7-1.7-2.6-1.4-1.4-3-2.5-4.5-3.4-1.5-.9-2.9-1.7-4.2-2-1.3-.3-2.4-.7-3-1.2-.1-.1-.3-.2-.4-.4l-.2-.3c-.1-.2-.2-.2-.2-.2l.2.2.2.3c.1.1.2.2.4.3.6.4 1.7.6 3 .9 1.4.2 2.9.9 4.4 1.7 1.6.9 3.2 2 4.7 3.5 1 1 1.8 2.1 1.9 3.1-.4 6.8-1.1 11.4-1.1 11.4"/><path clip-path="url(#b)" fill="#231F20" d="M129.9 136.8s-.5-1.4-1.4-3.7l.1.1c-1-.3-2.2-.6-3.6-1-.3-.1-.7-.2-1.1-.3-.4-.1-.8-.2-1-.2-.3 0-.6.1-.9.3l-.4.3c-.1.1-.2.3-.2.3h-.9c0-.6-.1-1.7-.1-2.8-.4-8.4-.2-15.3-.2-15.3s.7 6.8 1.1 15.3c0 1.1.1 2.2.1 2.8h-.9c.1-.4.2-.6.4-.8l.6-.5c.4-.3.9-.4 1.4-.4.5.1.9.2 1.2.3.4.1.7.2 1 .4 1.3.5 2.5.9 3.5 1.2h.1v.1c.8 2.5 1.2 3.9 1.2 3.9"/><path clip-path="url(#b)" fill="#231F20" d="M134.3 93.6s-.2 2-.4 5.3c-.1 1.6-.4 3.6-.3 5.7.2 2.2.4 4.5.6 7 .3 4.9.5 9.3.6 12.5v.1l-.1.1c-1.3 1.3-2.7 1.8-3.6 1.8h-1.1c-.2 0-.4-.1-.4-.1h.4c.2 0 .6 0 1.1-.1.9-.2 2.2-.8 3.3-2 0 0 0 .1-.1.2-.3-3.2-.7-7.6-1.1-12.5-.2-2.5-.3-4.9-.4-7 0-2.2.4-4.1.6-5.8.5-3.2.9-5.2.9-5.2"/><path clip-path="url(#b)" fill="#231F20" d="M175.2 68.2c.1-.1-1.6-.5-3.3-1.4-1.8-.9-3-2.1-3-2.1s1.6.3 3.4 1.3c1.8.9 3 2.1 2.9 2.2"/><path clip-path="url(#b)" fill="#231F20" d="M169.7 101.5s.5-.9 1.1-2.5c.6-1.6 1.3-3.8 2.2-6.4v-1.0999999999999999c-.1-5.9.3-10.7.3-10.7s.5 4.8.6 10.7v1.4000000000000001c-.9 2.6-1.9 4.8-2.7 6.3-.4.8-.7 1.4-1 1.7-.3.4-.5.6-.5.6"/><path clip-path="url(#b)" fill="#231F20" d="M119.1 97.3s-.8-3.8-2.3-11v.1c-.3-.5-1-1.6-1.3-3.1v-.1c.6-6.9 1.5-16.7 2.5-27.4 1.2-13 2.4-24.7 3.2-31.1v-.1h.1c6.1-3.8 9.1-5.7 9.1-5.7s-3 2-8.9 6c0 0 0-.1.1-.1-.5 6.5-1.4 18.2-2.6 31.2-.5 5.3-1 10.5-1.5 15.1s-1 8.8-1.4 12.3v-.1c.3 1.3 1 2.5 1.2 3 1.1 7.1 1.8 11 1.8 11"/><path clip-path="url(#b)" fill="#231F20" d="M128.3 70.4s1.2-9.4 3.2-20.8c2-11.5 4.1-20.7 4.1-20.7s-1.2 9.4-3.2 20.8c-2 11.5-4.1 20.7-4.1 20.7"/><path clip-path="url(#b)" fill="#231F20" d="M135.7 23.1s-.7-.6-1.1-1.5c-.4-.9-.3-1.8-.3-1.8s.7.6 1.1 1.5c.4.8.3 1.8.3 1.8"/><path clip-path="url(#b)" fill="#231F20" d="M175 31.9s-.2-1.1-1-5.2v.1c-2.5-1.8-11.6-8.2-22-15.8l-1.2-.9-.1-.1v-.1c-.9-1.6-1.8-3-2.6-4.3h.7c-4 5-7.2 9-9.2 11.3v-.1c-.8 3.6-1.2 5.4-1.5 6.3l-.1.2-.1-.2c-1.6-3.6-2-4.6-2-4.6s.4.9 2.2 4.5h-.1c.1-.9.5-2.8 1.2-6.3 1.8-2.4 4.9-6.5 8.8-11.5l.4-.5.3.5c.8 1.2 1.7 2.7 2.6 4.3l-.1-.1 1.2.9c10.4 7.6 19.3 14.4 21.7 16.3.8 4.1.9 5.3.9 5.3"/><path clip-path="url(#b)" fill="#231F20" d="M176.2 31.9l-.9-5.3-23-16.9s-12.5 22.1-20.6 59.8c.2-.1.5-.2.8-.3l.3-.1c1.5-4.7 7.8-9.7 13.3-10.7v.2c-1.2-2.1-2.4-3.5-.5-6.8-2.7-6 .5-17.6 13.1-20.3 12-1.7 18.5 13.2 15.8 18-.4.3-1 .5-1.8.7v.4c.8 2.2.7 7.5.3 8.9-.3 1.1-2 3.8-2.9 5.1h.1c1.2.7 6.4 3.2 6.3 3.5l-.3-36.2z"/><path clip-path="url(#b)" fill="#231F20" d="M148 5.9s-.5-2.3-.8-5.8c0-.4 0-1 .1-1.7.2-4.1.8-7.4.8-7.4s.3 3.4.1 7.5c0 .6-.1 1.3-.1 1.6v-.1c0 3.5-.1 5.9-.1 5.9"/><path clip-path="url(#b)" fill="#231F20" d="M128.3 10.2s-.2.3-.7.4c-.5.1-1.3.1-2.2-.2h-.2v-.2c-.1-.7-.2-1.9-.3-3.1-.2-3.3.1-6 .1-6s.6 2.7.8 6c.1 1.2.1 2.3 0 3.1-.1-.1-.2-.2-.2-.3.8.4 1.5.6 2 .6.5-.1.7-.3.7-.3"/><path clip-path="url(#b)" fill="#231F20" d="M128.8 8.7s.2 0 .5.1c.2.1.4.2.5.5.1.1 0 .4-.2.6-.2.1-.4.1-.5.1-.2 0-.3-.1-.4-.1l-.3-.2c-.2-.1-.1-.1-.4 0-.2.1-.3 0-.4 0-.1 0-.1-.1-.1-.1s.3 0 .4-.1l.2-.2c.2-.1.3 0 .4 0l.3.1.3.1h.1c0-.1-.1-.3-.2-.4 0-.3-.2-.4-.2-.4"/><path clip-path="url(#b)" fill="#231F20" d="M135.7 11.8s-.4.1-1 .3c-.6.1-1.4.4-2.3.6-.9.2-1.7.3-2.3.3-.6.1-1 .1-1 .1s.3-.2.9-.5c.6-.3 1.4-.6 2.4-.8.9-.2 1.8-.2 2.5-.1.5 0 .8.1.8.1"/><path clip-path="url(#b)" fill="#231F20" d="M122.5 2.6l.3-.3c.2-.2.5-.3.9-.3s.8.1.9.3l.3.3s-.7.3-1.2.3c-.3 0-.6-.1-.8-.2-.2 0-.4-.1-.4-.1"/><path clip-path="url(#b)" fill="#CCC9C7" d="M85.2 70.3l6.2-6.4s2.7-1.7 3.4-2.1c.8.1 1.1 1.5.8 1.9 0 0-.4.7-.9 1.1.2 0 1.1 1.5 1.1 2.1.3 1 1.3 3.5.7 2.9l4.3.8c-.3-.7 0-1.1-.1-1.4-.1-.3-1-1.2-1-1.2s0-1.2.1-1.7c-.7-.1-1.5-.2-1.2-1.5.3-1.3 8.2-1.5 9.2-.9s1.8 3.6 1.7 4c0 0 7.9-15.4 9.1-17.9-2.4-4.9-8.7-14.3-10.3-15.1-1.2 0-2.5 0-3.8-.2l.1.1c.2 1.9 2.2 18.2-5 23.3-7.6 5.4-17.4 1.1-21-2.9l.3.3c.4 2.7-1.3 6.7-2.9 7.7-.6.5-1.2-.7-1.6-1.9 0 0-.2.9-.6 2h.1v7.3c.2.6.2 1.4.2 1.4s4.1-2.2 11.1-1.7"/><path clip-path="url(#b)" fill="#231F20" d="M124.9 3.4s-.2.6-1 .6c-.1 0-.3-.1-.3-.1l-.1-.1-.1-.1v-.1c-.1-.1-.1-.3-.1-.4 0-.2.1-.3 0-.3 0 0 .1.1.3.1.2.1.4.1.4.1.3 0 1 .3.9.3"/><path clip-path="url(#b)" fill="#231F20" d="M143.3-2.6s-.2-.4.1-1.2c.1-.4.4-.9.9-1.3.2-.2.5-.4.9-.6.3-.2.8-.2 1.3.1.6.5 1.2 1.6 1.3 3 .1 1.4-.2 2.9-.8 4.6v-.1c0 .9.1 2.7.1 4.7v.1h-.1c-2.3 2.7-5.8 6.7-9.5 11l-2.1 2.4-.2.2-.3-.1c-1.7-.4-3.3-.7-4.8-1l-.3-.1v-.3c0-.7-.1-1.3-.1-1.9 0 .1.1.2.1.2-3.1-4-5.4-7.1-6.8-8.9v-.2c.1-3.1.1-4.5.2-5.2-.6-1.7-.7-2-.8-2.3v0c.1.2.2.6.9 2.2 0 .7.1 2.1.1 5.2v-.1c1.4 1.7 3.9 4.7 7 8.6l.1.1v.1c0 .6.1 1.2.1 1.9-.1-.1-.2-.2-.3-.4 1.4.3 3.1.6 4.8 1l-.4.1 2.1-2.4c3.7-4.3 7.3-8.2 9.7-10.8 0 .1-.1.2-.1.2v-4.4c.6-1.5.9-3.1.9-4.4 0-1.3-.5-2.3-1.1-2.8-.3-.2-.7-.2-1.1-.1-.3.1-.6.3-.9.5-.5.4-.7.9-.9 1.2-.1.8.1 1.2 0 1.2"/><path clip-path="url(#b)" fill="#231F20" d="M120.3 97.3l-2.1-11s-1.1-2.2-1.3-3c.4-1.8 5.6-58.6 5.6-58.6l9-5.9 4.1.9v.1l1.4 3.3-4.3-1.1-2.9 8.9 7.1-1.9-7.4 41.5v-.1c-1.2.5-2.1 1-2.3 1.5-.3.4-4 13.9-6.9 25.4"/><polygon clip-path="url(#b)" fill="#231F20" points="145.9,20.3 138.6,23.8 135.7,23.1 131.5,21.9 128.6,30.8 135.7,28.9 137.2,28.6 141.6,31.4"/><path clip-path="url(#b)" fill="#fff" d="M141.7 31.6l-4.5-2.9-8.8 2.3.1-.3 2.9-9 7.2 1.9 7.6-3.6-4.5 11.6zm-4.5-3.2l4.3 2.7 4.1-10.5-7 3.4-2.9-.8-4.1-1.1-2.8 8.5 8.4-2.2z"/><rect x="136.9" y="23.5" transform="matrix(.977 .213 -.213 .977 8.741 -28.651)" clip-path="url(#b)" fill="#fff" width=".3" height="5.3"/><rect x="137.7" y="23.7" transform="matrix(.96 .28 -.28 .96 12.841 -37.547)" clip-path="url(#b)" fill="#fff" width=".3" height="4.9"/><path clip-path="url(#b)" fill="#231F20" d="M130.4 69.5s.7-3.5 2-9.1c.3-1.4.7-2.9 1-4.6.4-1.6.9-3.4 1.4-5.2.5-1.8 1.1-3.8 1.6-5.7.6-2 1.3-4 2-6.1 2.7-8.3 5.9-15.6 8.3-20.8 2.5-5.2 4.3-8.2 4.3-8.2s-1.6 3.2-3.9 8.4c-2.2 5.3-5.2 12.6-7.9 20.9-.7 2.1-1.4 4.1-2 6-.6 2-1.2 3.9-1.7 5.7-.6 1.8-1.1 3.5-1.6 5.1-.4 1.6-.8 3.1-1.2 4.5-1.4 5.7-2.3 9.1-2.3 9.1"/><path clip-path="url(#b)" fill="#231F20" d="M171.7 59.5v-1.4c0-.8-.1-1.9-.1-3.1v-3.1c0-.4-.1-.7-.1-1v-.4s.1.1.2.3c.1.2.3.5.4.9.3.8.5 1.9.5 3.2 0 1.3-.1 2.4-.3 3.2-.1.4-.2.7-.3.9-.2.4-.3.5-.3.5"/><path clip-path="url(#b)" fill="#231F20" d="M116.5 107.5s-2.1-4.4-4.1-10c-2-5.6-3.2-10.3-3.2-10.3s2.1 4.4 4.1 10c2 5.6 3.2 10.3 3.2 10.3"/><path clip-path="url(#b)" fill="#231F20" d="M106.1 75l.2-.2c.1-.1.3-.4.4-.7.3-.6.6-1.7.8-2.9.1-.6.2-1.3.3-2.1 0-.4.1-.8.1-1.1 0-.3-.2-.7-.3-1.1l-.4-1.2-.3-.6-.3-.5-.3-.2-.1-.1h-.1c-.2-.1-.4-.1-.6-.1-.4-.1-.9-.1-1.4-.1-2 0-3.9.1-5.5.4-.4.1-.8.2-1 .3-.1 0-.2.5-.2.7 0 .5.5.6 1 .7h.2v.2c-.1.4-.1.8-.2 1 0 .3 0 .5-.1.6v-.1c.4.4.6.8.8 1.1.1.1.2.4.1.5v.4c0 .5.1.7.1.7s-.1-.2-.2-.7c-.1-.2.1-.6-.2-.8-.2-.3-.5-.7-.9-1v-.7999999999999999c0-.3.1-.7.1-1.1l.2.3c-.2 0-.5 0-.8-.2-.3-.1-.7-.5-.7-.9v-.7c0-.2 0-.1.1-.2l.3-.4c.4-.3.8-.4 1.2-.5 1.7-.4 3.6-.6 5.7-.6.5 0 1 0 1.5.1.3 0 .5.1.8.2l.2.1h.1l.1.1.1.1.2.2.5.7.3.6c.2.4.3.9.4 1.3.1.4.2.8.2 1.3s-.1.8-.2 1.2l-.5 2.1c-.4 1.2-.7 2.2-1.1 2.9-.2.3-.4.5-.5.7 0 .3-.1.4-.1.4"/><path clip-path="url(#b)" fill="#CCC9C7" d="M74.1 35c-1.3-5.1 1-18.9 3.4-20.7 0 0-3.8-3.2-1.8-8.8 2.6-6.4 11.7-8 17.1-8.1 5.4-.1 8.5 3.8 8.9 5.8 6 3.2 7.8 11.5 7.7 12.4-.1.9-.4 2.4-.8 3 4.4 7.3.3 15.4-.4 16.4-3.8.1-8.4-1-9.8-1.6l-.1-.1c3.7-4.9 4.5-10.8 4.3-13.6v-.1c-.9-.4-1.7-1-1.9-1.8-1.2 1-6.6 0-7.9-9.4-1 1.2-3.4 5.9-1.1 10.4-.6-.1-3.2-2.4-3.3-6.8-1.2 1.3-1.6 6.6-.8 8.1-1-.5-2.3-1.9-2.9-2.8 0 1.7.5 9.2 0 10.4-.5 1.2-1.6 3.4-4.9 3.2-.5.5-3.3 2.3-5.4 3.7l-.3.4z"/><path clip-path="url(#b)" fill="#231F20" d="M104.9 66.5s-1.4.2-3.2.2c-1.7 0-3.2-.2-3.2-.2s1.4-.2 3.2-.2c1.8 0 3.2.2 3.2.2"/><path clip-path="url(#b)" fill="#231F20" d="M104.2 69.5s-1 .2-2.3.2c-1.3 0-2.3-.1-2.3-.1s1-.2 2.3-.2c1.3-.1 2.3.1 2.3.1"/><path clip-path="url(#b)" fill="#231F20" d="M108.3 78.4s.3 0 .7.1c.5.1 1.2.1 2 0 .8-.2 1.7-.5 2.7-1l.7-.4c.2-.1.4-.3.4-.3.1 0-.2-.3-.3-.5-.2-.3-.4-.5-.5-.8-1.5-2.2-2.7-4.2-3.6-5.7-.2-.3-.4-.7-.7-.8-.2-.2-.5-.3-.7-.4-.4-.2-.7-.3-.7-.3s.3.1.7.2c.2.1.5.1.8.3.4.2.6.5.9.8 1.1 1.4 2.5 3.3 3.9 5.4.2.3.4.5.5.8l.3.4c.1.1.2.4.2.7-.1.6-.6.8-.8.9-.3.2-.5.3-.8.4-1.1.5-2.1.8-3 .8-.9 0-1.6-.1-2.1-.3l-.6-.3"/><path clip-path="url(#b)" fill="#231F20" d="M115.2 76.4v-.7c0-.5.1-1.1.1-2-.1-1.7-.2-3.9-.6-6.4-.3-2.5-.7-4.8-1-6.4-.3-1.6-.5-2.7-.5-2.7s.4.9.9 2.6c.5 1.6 1.1 3.9 1.4 6.4.4 2.5.3 4.9.1 6.6-.1.8-.3 1.5-.4 2v.6"/><path clip-path="url(#b)" fill="#231F20" d="M108.3 68.1s3.5-7.6 8.7-18.1v.4c-.4-.8-1.2-2.2-2-3.6-1.4-2.4-2.9-4.6-4.2-6.6-.7-1-1.3-1.9-2-2.8-.6-.8-1.3-1.6-1.9-2.1h.1c-1.6-.1-3-.1-4.2-.4-.6-.1-1.2-.2-1.7-.3-.5-.1-1-.3-1.4-.4-.8-.2-1.4-.4-1.9-.6-.4-.2-.6-.2-.6-.2s.2.1.6.2c.4.1 1.1.3 1.9.5.4.1.9.2 1.4.3.5.1 1.1.1 1.7.2 1.2.2 2.6.2 4.1.2h.1c.9.6 1.5 1.3 2.2 2.1.7.8 1.4 1.8 2.1 2.7 1.4 2 2.9 4.2 4.3 6.6.8 1.4 1.6 2.8 2 3.6l.1.2-.1.2c-5.2 10.6-9.3 17.9-9.3 17.9"/><path clip-path="url(#b)" fill="#231F20" d="M101.7 63.8s0-.4-.1-1.1c0-.7-.2-1.8-.4-3.1-.5-2.6-1.5-6.1-2.6-9.9-1.1-3.9-1.9-7.5-2.4-10.1-.5-2.6-.8-4.2-.8-4.2s.5 1.6 1.2 4.1c.7 2.5 1.8 6.1 2.8 9.9 1.2 3.9 2 7.5 2.2 10.1.1 1.3.2 2.4.1 3.2.1.7 0 1.1 0 1.1"/><path clip-path="url(#b)" fill="#CCC9C7" d="M2 39.3l2.8-.3s-1.8 16.9-.9 18.9 2.6 4.5 5.8 4h.1c-.5.7-1 1.4-1.4 2.1.2 1.4 2.5 7.7 2.7 8.2.3-.7.7-1.4 1.3-2.1.4 2.1 1.7 9.3 5.7 10.1h.1c.7 2.3 1.4 4.3 1.6 4.7-.9 1.4-5 6.9-15.8 12.3l-2-57.9z"/><path clip-path="url(#b)" fill="#CCC9C7" d="M35.5 52.2c-1.2-.9-3.1-1.8-6.1-2.4l2.5-4.5c-1.9-.9-2.6-4.8-2.2-6 4 1.6 8.7 3 11.7 4.8-.6 1.8-3 3.1-4.4 3.2l-1.3 4.7-.2.2z"/><path clip-path="url(#b)" fill="#231F20" d="M90.6 67.4s.5-.7 1.3-1.3c.8-.7 1.6-1.1 1.6-1.1s-.5.7-1.3 1.3c-.9.7-1.6 1.1-1.6 1.1"/><path clip-path="url(#b)" fill="#231F20" d="M92.6 68.5s.3-.5.8-.9 1.1-.6 1.1-.6-.3.5-.8.9c-.5.5-1.1.6-1.1.6"/><path clip-path="url(#b)" fill="#231F20" d="M90.1 64.1s-.9-1.8-2.2-4.7c-.7-1.5-1.2-3.3-1.9-5.3-.4-1-.6-2.1-.9-3.2-.3-1.1-.6-2.3-.8-3.5-.9-4.8-1.4-9.2-1.5-12.4-.2-3.2-.2-5.2-.2-5.2s.2 2 .6 5.1c.4 3.2 1.1 7.5 2 12.2.2 1.2.5 2.3.8 3.4.3 1.1.4 2.2.8 3.2.6 2 1.1 3.8 1.6 5.3 1 3.2 1.7 5.1 1.7 5.1"/><path clip-path="url(#b)" fill="#231F20" d="M96.1 69.3c-.3 0-.5 0-.8-.1l.1-.3c1 .3 2.4-.1 2.9-.9l.2.2c-.5.7-1.5 1.1-2.4 1.1"/><path clip-path="url(#b)" fill="#231F20" d="M77.4 55.3s.1.1.4.3c.2.2.6.5 1.1.9 1 .7 2.4 1.7 4.4 2.4 2 .8 4.5 1.4 7.3 1.4 1.4-.1 2.9-.2 4.3-.8.4-.1.7-.2 1-.4l1-.5 1-.6.3-.2.2-.2.4-.4c.6-.5 1.1-1.1 1.6-1.7.4-.7.8-1.3 1.1-2 .2-.3.3-.7.4-1l.3-1.1c.3-.7.4-1.4.6-2.1.6-2.8.8-5.3.8-7.5.1-2.2 0-3.9-.1-5.1-.1-1.2-.1-1.9-.1-1.9s.1.7.3 1.9c.1 1.2.3 2.9.4 5.1 0 2.2 0 4.8-.5 7.6-.2.7-.3 1.4-.5 2.2l-.3 1.1c-.1.4-.3.7-.5 1.1-.3.8-.7 1.4-1.1 2.2-.5.6-1 1.4-1.7 1.9l-.5.4c-.1.1-.1.1-.3.2l-.3.2-1 .6c-.4.2-.8.4-1.1.5-.4.2-.8.3-1.1.4-1.5.5-3.1.7-4.5.7-2.9 0-5.5-.8-7.5-1.7-2-.9-3.4-2-4.3-2.7-.5-.4-.8-.7-1-1-.4-.1-.5-.2-.5-.2"/><path clip-path="url(#b)" fill="#231F20" d="M83 29.1s1.1 1 2.8 2.6c.9.8 2 1.8 3.2 2.9l.9.8c.1.1.3.3.5.4l.3.2s.2 0 .3.1c.8.3 1.7.4 2.7.4l-.3.1c.5-.4 1.3-1.1 2.1-2 3.1-3.3 4.6-7.2 5.3-10 .4-1.4.5-2.6.6-3.5v-1c0 .2.1.5.1 1 0 .8 0 2.1-.3 3.6-.5 3-1.9 7.1-5.1 10.6-.8.9-1.7 1.6-2.2 2l-.1.1h-.2c-1 0-2-.1-2.9-.5-.1-.1-.2-.1-.4-.2l-.3-.2c-.2-.1-.4-.3-.5-.4l-1-.9c-1.2-1.2-2.2-2.2-3-3.1-1.5-1.9-2.5-3-2.5-3"/><path clip-path="url(#b)" fill="#231F20" d="M93.6 26.9s.5.2 1.4 0c.4-.1 1-.3.9-.6 0-.5 0-1.2.1-1.8.1-2.7.5-4.9.5-4.9s.5 2.2.4 5c0 .7-.1 1.3-.2 2 0 .5-.5.7-.8.8-.3.1-.6.1-.8.1-1.1-.2-1.6-.6-1.5-.6"/><path clip-path="url(#b)" fill="#231F20" d="M93.3 25.4s-.2 0-.4.2l-.3.2c-.1.1-.2.2-.1.2 0 0 .1 0 .1.1h-.1c.3 0 .7-.1.9.1.2.1.2.2.2.2s-.1-.1-.3-.1c-.2 0-.4 0-.7.1h-.1l-.2-.2c-.1-.3.1-.6.3-.6.2-.1.3-.1.4-.2h.3"/><path clip-path="url(#b)" fill="#231F20" d="M90.1 29.7s.6.4 1.7.8c.5.2 1.2.4 1.9.6.1 0 .3.1.5.1.1 0 .2 0 .3-.1.2-.2.5-.5.6-.8.1-.2.1-.5.1-.5.3.1.4.2.6.3-.9.3-1.8.1-2.3 0-.7 0-1.3-.1-1.8-.1-1-.2-1.6-.3-1.6-.3s.6-.1 1.6-.2c.5-.1 1.1-.1 1.8-.1s1.4.1 2-.1l.5-.3.1.5c.1.3 0 .7-.2 1.1-.2.5-.5.9-1 1.2-.2.2-.6.3-.8.2l-.6-.1c-.8-.3-1.4-.6-1.9-.9-1-.7-1.5-1.3-1.5-1.3"/><path clip-path="url(#b)" fill="#231F20" d="M87.5 17.8s.3-.2.8-.5c.5-.2 1.4-.5 2.4-.4 1 .1 1.7.6 2.2 1 .5.4.7.7.7.7s-.4-.1-.9-.3c-.6-.1-1.3-.4-2.1-.5-.8-.1-1.6-.1-2.1-.1-.6.1-1 .1-1 .1"/><path clip-path="url(#b)" fill="#231F20" d="M35.5 34.1c-1.4 2-3.7 3.8-7.2 4.9l.1-.2c4.2 1.8 9.8 3.3 13.1 5.4l.2.5 1.6-7.6.9-6.4.5-4.5-.1-.3-2.6 2.7-1.7 1.6-4.9 4 .1-.1z"/><path clip-path="url(#b)" fill="#231F20" d="M91 20.7s-.4.2-1.2.3c-.4.1-.9 0-1.5-.1l-1.6-.8-.8-.4.9-.4c.2-.1.6-.2.9-.4l1.1-.4.5-.1h.6000000000000001c.8.1 1.3.6 1.7.9.4.4.6.7.7 1 .1.3.1.4.1.4s-.3-.5-1.1-1.1c-.4-.2-.9-.5-1.4-.5h-.4l-.5.2c-.3.1-.6.2-1 .4s-.8.3-1 .4c0-.3.1-.6.1-.8.6.4 1 .7 1.4 1 .4.2.8.3 1.2.4.8.1 1.3 0 1.3 0"/><path clip-path="url(#b)" fill="#231F20" d="M98.3 21.2s.5.1 1.2 0c.4 0 .8-.2 1.2-.4.4-.2.8-.6 1.4-1 0 .2 0 .5.1.8-.3-.1-.7-.2-1-.4l-.9-.4-.5-.2h-.4c-.5 0-1 .3-1.4.5-.8.5-1.1 1.1-1.1 1.1s0-.2.1-.4c.1-.3.3-.6.7-1 .4-.4.8-.8 1.7-.9h.6l.5.1c.3.1.7.2 1.1.4.4.2.7.3.9.4l.9.4-.8.4c-.5.2-1 .6-1.6.8-.6.2-1.1.2-1.5.1-.8 0-1.2-.3-1.2-.3"/><path clip-path="url(#b)" fill="#231F20" d="M71.1 36.2s.6-.4 1.9-1.3c.6-.4 1.4-1 2.3-1.6.9-.6 2-1.4 3.2-2.3h.2c.9 0 2-.1 3-.8.5-.3.9-.8 1.2-1.3.1-.3.3-.5.4-.9l.2-.9c.1-2.8-.2-6-.2-9.6v-1.3l.8 1.1c.4.6 1.5 1.9 2.8 2.6l-.6.6c-.5-1-.5-2.2-.5-3.7.1-1.4.2-3 1-4.5.1-.2.2-.3.3-.4l.7-.9.1 1.2c.1 1.3.3 2.6.9 3.7.3.6.6 1.1 1 1.6.2.2.4.4.6.7.2.2.4.4.6.4l-.5.6c-1-2-1.1-4.1-.8-6 .4-1.9 1-3.5 2.1-4.8l.5-.6-.3.7c.4 3.6 1.7 6.6 3.4 8.2 1.7 1.6 3.6 1.7 4.2 1.2l.1-.1v.1c.3.9 1.1 1.4 1.6 1.7.6.3 1 .4 1.4.5.7.2.9.1.9.1s-.2.1-.9-.1c-.3-.1-.8-.2-1.4-.5-.5-.3-1.3-.7-1.7-1.7h.1c-.6.6-2.6.6-4.5-1s-3.2-4.7-3.8-8.3c.2 0 .3.1.6.2-1.7 2.3-2.8 6.4-1 10l.5 1-1-.4c-.8-.4-1.2-.8-1.6-1.4-.4-.5-.8-1.1-1.1-1.7-.6-1.2-.8-2.7-1-4.1l.8.3-.2.3c-.6 1.2-.8 2.8-.9 4.1-.1 1.3 0 2.6.4 3.2l.6 1.3-1.2-.7c-1.6-.9-2.6-2.2-3.1-3 .3-.1.6-.2.7-.2 0 3.5.3 6.7 0 9.6-.1.4-.1.8-.3 1.1-.1.3-.3.6-.5.9-.4.6-.8 1.1-1.4 1.4-1.1.7-2.3.8-3.2.8.1 0 .1 0 .1-.1-1.2.9-2.3 1.6-3.3 2.2-1 .6-1.8 1.1-2.4 1.5-1.2.9-1.8 1.3-1.8 1.3"/><path clip-path="url(#b)" fill="#231F20" d="M72.9 35s0-.1-.1-.4c0-.2-.2-.6-.2-1.1-.1-.9-.2-2.4-.2-4.2.1-1.8.2-4.1.7-6.7.2-1.3.5-2.7.9-4.2.2-.7.4-1.5.7-2.2.3-.7.6-1.5 1.3-2.2v.5c-1.3-1.2-2.3-3.1-2.5-5.2-.2-2.1.4-4.5 2-6.4.8-1 1.7-1.8 2.8-2.5 1.1-.7 2.2-1.2 3.4-1.7 2.4-.9 5.1-1.4 7.8-1.6 2.3-.2 4.9-.1 7 1.1 2.1 1.1 3.8 2.8 4.3 5l-.2-.3c3.3 1.8 5.2 4.9 6.4 7.7.6 1.4 1.1 2.8 1.3 4.2.2.8 0 1.5-.1 2.1-.1.7-.3 1.3-.7 1.9v-.3c1.4 2.4 1.9 4.9 1.9 7 0 2.1-.3 4-.7 5.4-.8 2.9-1.8 4.2-1.8 4.2s.9-1.4 1.6-4.2c.4-1.4.7-3.2.6-5.3-.1-2.1-.7-4.5-2.1-6.8l-.1-.1.1-.2c.3-.5.5-1.1.6-1.7.1-.6.2-1.3.1-1.9-.3-1.3-.7-2.7-1.4-4.1-1.2-2.7-3.1-5.6-6.2-7.2l-.2-.1-.1-.2c-.5-1.8-2-3.4-3.9-4.4-1.9-1-4.2-1.2-6.5-.9-2.6.2-5.2.7-7.6 1.5-1.2.4-2.3 1-3.3 1.6-1 .7-1.9 1.4-2.6 2.3-1.4 1.7-2 3.9-1.9 5.9.1 2 1 3.7 2.2 4.8l.2.2-.3.2c-.5.5-.9 1.3-1.2 1.9l-.8 2.2c-.4 1.4-.7 2.8-1 4.1-.5 2.6-.7 4.8-.9 6.6-.1 1.8-.1 3.2 0 4.2 0 .5.1.8.2 1.1.5.3.5.4.5.4"/><path clip-path="url(#b)" fill="#231F20" d="M73.1 28.3s-6-3.7-13.6-8.9c.1 0 .4-.1.7-.2-.1.2-.2.6-.4 1-3.5 8.9-6.8 15.9-6.8 15.9s2.5-7.3 6-16.1c.2-.4.3-.8.4-1l.2-.5.5.3c7.4 5.1 13 9.5 13 9.5"/><path clip-path="url(#b)" fill="#231F20" d="M44 49.7s0-3.3.6-7.2c.6-4 1.5-7.1 1.5-7.1s0 3.3-.6 7.2c-.5 4-1.5 7.1-1.5 7.1"/><path clip-path="url(#b)" fill="#231F20" d="M40.4 44.5s-.1-1.8.4-3.9c.5-2.1 1.3-3.7 1.3-3.7s.1 1.8-.4 3.9c-.5 2.1-1.3 3.7-1.3 3.7"/><path clip-path="url(#b)" fill="#231F20" d="M34.1 33.9s.9-1.1 2.3-2.2c1.3-1.1 2.6-1.8 2.6-1.8s-.9 1.1-2.3 2.2c-1.3 1.1-2.6 1.8-2.6 1.8"/><path clip-path="url(#b)" fill="#231F20" d="M40.7 28.3s.5-.7 1.2-1.5 1.4-1.2 1.4-1.2-.5.7-1.2 1.5c-.7.7-1.4 1.2-1.4 1.2"/><path clip-path="url(#b)" fill="#231F20" d="M44.5 32.2s0-1.7.3-4.2l.1.3c-.3-.3-.7-.7-1.1-1.2-.3-.4-.6-.7-.8-1 .4-.1.6-.2.8-.2-.4 2.7-.9 4.5-.9 4.5s-.1-1.9.1-4.6l.1-1 .7.7c.2.2.5.6.8.9.4.5.8 1 1 1.3l.1.2v.2c-.6 2.5-1.2 4.1-1.2 4.1"/><path clip-path="url(#b)" fill="#fff" d="M63 2.7c1.5-5.3-.3-11-.7-12h-24c-1.1 1.1-2.6 5.5-2.2 6.5.4 1 1.4.4 3 2.2-.3-1.6.1-3.8 1.1-5.2 1-1.4 3.8-2.6 5.8-2.2 2.1.4 2.1 1.5 2.8 2.2.7.7 5 2.4 11.5 3.2-.2 1.1-2.2 4.4-2.2 4.4l2 4.9 1.3 1.4c-.9-1.7 0-4.5.5-5"/><path clip-path="url(#b)" fill="#231F20" d="M47.5 33.4s-.9-1.9-2.3-5.1l-.1-.2.2-.1c2.1-1.4 5-3.3 8.3-5.3 2.1-1.3 4.2-2.5 5.5-3.2l-.2.3c.3-5.6.6-9 .6-9s.1 3.5.1 9.1v.1l-.2.1c-1.3.8-3.3 2.1-5.4 3.4-3.3 2-6.3 3.8-8.5 5 0-.1.1-.3.1-.3 1.3 3.2 1.9 5.2 1.9 5.2"/><path clip-path="url(#b)" fill="#231F20" d="M60.9 3s.3-.2.9-.3c.3-.1.7-.1 1.1.2.4.2.7.7 1 1.2.6 1.1.4 2.7-.1 4.3-.3.8-.7 1.7-1.3 2.5-.2.2-.4.4-.6.5-.1.1-.3.1-.5.1-.1 0-.2 0-.4-.1-.6-.2-.9-.6-1.4-1 .1 0 .3-.1.5-.1-.3 1.2-.5 2.5-.9 4-.2.7-.4 1.5-.6 2.3-.1.4-.2.8-.4 1.1-.2.5-.5.8-.8 1.1-1.1 1.3-2.3 2.6-3.7 3.8-1.3 1.2-2.8 2.5-4.5 3.5l-.8.5h-1.5l-1.3-.1c-.8-.1-1.6-.2-2.5-.6-1-.9-1.7-1.8-2.3-2.7l-.9-1.4c-.3-.5-.5-.9-.7-1.4-.9-1.9-1.4-3.7-1.8-5.3-.1-4.7.1-8 .2-9.4-.2-.5-.3-.8-.4-1 0-.2-.1-.3-.1-.4.6-3.7.7-4.5.7-4.5s-.1.8-.6 4.5c0 .1 0 .2.1.4s.2.5.4 1c.1 1.4 0 4.7.2 9.3.5 1.6 1 3.4 1.9 5.1l.7 1.4c.3.5.5.9.9 1.4.6.9 1.3 1.8 2.1 2.5h-.1c.5.2 1.3.3 2.1.4l1.2.1h1l.7-.4c1.6-.9 3-2.1 4.4-3.4 1.3-1.2 2.6-2.4 3.7-3.7.3-.3.5-.6.7-.9.1-.4.3-.8.4-1.1.3-.7.4-1.5.6-2.2.4-1.4.7-2.7 1-3.9l.1-.5.4.3c.4.3.8.7 1.1.9 0 0 .2 0 .3.1l.2-.1c.2-.1.3-.2.5-.4.6-.7 1-1.5 1.3-2.3.6-1.5.8-3.1.3-4.1-.3-.5-.5-1-.9-1.2-.4-.3-.8-.3-1-.2-.3.1-.6.3-.6.2"/><path clip-path="url(#b)" fill="#231F20" d="M44.9 14.6s-.7.1-1.8-.1c-.3-.1-.6-.1-.9-.3-.2-.1-.3-.1-.5-.3-.3-.3-.3-.5-.3-.7-.1-.8-.1-1.6 0-2.5.2-1.7.6-3.2.9-4.3.3-1.1.7-1.7.7-1.7s-.1.7-.3 1.8c-.1 1.2-.3 2.7-.5 4.3-.1.8-.2 1.6-.1 2.3v.30000000000000004l-.1.1c-.1.1.1-.2.1-.1h.1l.1.1c.1.1.1.1.2.1.2.1.5.3.8.4.9.4 1.6.6 1.6.6"/><path clip-path="url(#b)" fill="#231F20" d="M43.6 18s.2.2.4.5l.1.1h.1c.1 0 .3 0 .4.1.3 0 .6.1 1 .1l1.2.1h.6c.2-.1.1.1.3-.3.5-.9 1.3-1.7 2-2.6 0 0 0-.1.1-.1l.5.7c-.6.2-1.1.4-1.6.5l-.8.2c-.3 0-.5.1-.7.1-1 .1-1.9-.1-2.7-.2-.7-.1-1.3-.2-1.7-.2h-.49999999999999994c.1 0 .3-.1.5-.1.4-.1 1-.1 1.8-.1.7 0 1.6.1 2.5-.1l.7-.1.7-.2c.5-.1 1-.3 1.5-.5l1.7-.6-1.2 1.4-.1.1c-.8.8-1.5 1.6-2 2.4l-.4.1s-.2.1-.3.2l-.3.1h-.8c-.5-.1-.9-.2-1.2-.3-.4-.1-.7-.2-1-.3l-.4-.1c-.1 0-.1 0-.2-.1 0-.1-.1-.1-.1-.1 0-.5-.1-.7-.1-.7"/><path clip-path="url(#b)" fill="#231F20" d="M53.8 3.8s-.5 0-1.2-.1c-.7 0-1.7-.1-2.7-.1-1.1 0-2-.1-2.7 0-.3 0-.6.1-.8.1-.2.1-.3.1-.3.1l.2-.2c.2-.1.4-.3.8-.4.7-.3 1.7-.5 2.8-.4 1.1 0 2.1.3 2.8.6.8.2 1.1.4 1.1.4"/><path clip-path="url(#b)" fill="#fff" d="M4 38.8l4.5-.8h.1c-1.7-2.8-3.6-6.1-3.7-7.4-.1-2.4 1-9.6 1-9.6.3-.2.6-.4 1-.9.8 1.3 8 .8 10.4-5.7 1.1.3 3.2-.1 3.2-.9-.6 2.3 3.3 8.8 6.6 8.4-4.1 1.4-6.2 8.7-2.9 14.1 1.1.8 2.5 1.6 4.2 2.3l-.1.2c14.1-4.6 8.5-18.5 2.7-22.6 1.7-14.3-11.8-16.8-15.8-15.2-3.1-1.5-7.4.2-6.7 2.6-2.3-1.8-4.7 1.3-3.4 3.8 0 0-1-1.1-1.4-.7l.3 32.4z"/><path clip-path="url(#b)" fill="#231F20" d="M45.7 34.8l-5.6 3.3-1.4-12.4 7 7.8h1.9l7.8-4.6-4.4 10.6-3.2-4.2c-.6.1-1.8.1-2.1-.5"/><path clip-path="url(#b)" fill="#fff" d="M50.9 39.7l-3.3-4.3c-.2.1-.4.1-.7.1-.6 0-1.1-.2-1.3-.5l-5.6 3.3-1.5-13.1 7.3 8.1h1.8l8.2-4.8-4.9 11.2zm-3.2-4.7l.1.1 3.1 4 4.2-9.9-7.5 4.4h-2l-6.7-7.4 1.4 11.7 5.5-3.3.1.1c.2.4.7.5 1.1.5.3 0 .5 0 .7-.1v-.1z"/><path clip-path="url(#b)" fill="#231F20" d="M37.2 4.2s.1-.3.4-.7c.2-.2.4-.4.7-.6.3-.1.7-.3 1.1-.3.8-.1 1.5.2 1.9.4.5.2.7.4.7.4s-.3.1-.8.1-1.1 0-1.8.1l-.9.1-.7.2c-.3.2-.6.3-.6.3"/><path clip-path="url(#b)" fill="#231F20" d="M49.3 7.7s.4 0 1.1-.1c.7-.1 1.7-.3 2.8-.6l-.3.4c0-.2-.2-.5-.4-.8l-.4-.3-.3-.2h-.30000000000000004c-1.5-.3-3.3 0-4.3.2l-.2.1-.1.1-.2.2c-.1.2 0 .4 0 .5.1.3.1.5.1.5s-.1-.2-.3-.5c-.1-.1-.2-.3-.2-.6 0-.1.1-.3.2-.4l.1-.1.4-.2c.6-.3 1.3-.5 2.1-.7.8-.1 1.7-.3 2.7 0h.5l.3.2c.3.2.5.4.6.6.3.4.5.9.5 1.3v.3l-.3.1c-1.2.2-2.3.2-3 .2-.7-.2-1.1-.2-1.1-.2"/><path clip-path="url(#b)" fill="#231F20" d="M40.7 7.6l-.6.3c-.4.2-1.2.3-1.9.2h-.1l-.1-.1c-.3-.2-.6-.4-1-.8-.1-.2-.4-.5-.3-1 0-.2.2-.4.4-.6.1-.1.1-.1.2-.1l.1-.1h.1c1.6-.4 2.8 0 3.8.3.4.2.8.3 1 .5l.3.3s-.1-.1-.4-.1c-.3 0-.6-.1-1.1-.1-.9-.1-2.2-.2-3.4.1h-.1l-.1.1s0 .1.1.3c.2.3.5.6.7.7-.1 0-.1 0-.1-.1.8.2 1.4.3 1.8.2h.7"/><path clip-path="url(#b)" fill="#231F20" d="M60.8 3.1l-.2.2c-.1.2-.2.4-.3.8-.1.4-.2.9-.3 1.6 0 .7 0 1.5.4 2.3l.2.4-.4-.4c-.2-.2-.7-.7-1.3-1.4-.4-.9-1.2-2.7-2.1-4.9v-.2c.4-.8 1.4-2.5 2.1-4.4 0 0 .1.2.2.3-1.7-.2-3.6-.4-5.7-.9-.5-.1-1-.2-1.5-.4-.5-.1-1.1-.3-1.6-.5l-1.6-.6-.9-.4-.4-.2-.4-.4c-1-2.3-3.9-2.2-6-1.1-.3.1-.5.3-.8.5-.2.2-.4.3-.7.5l-.3.4c-.1.1-.1.2-.2.4l-.4.8c-.4 1.2-.6 2.5-.4 3.7l.2 1.2-.9-.9-.6-.6c-.3-.3-.6-.5-1-.6-.2-.1-.4-.1-.6-.3-.1-.1-.2-.1-.4-.3l-.2-.2c0-.1-.1-.1-.1-.1l-.1-.1c-.1-.2-.1-.2-.1-.3v-.4c0-.2 0-.5.1-.7l.3-1.3c.2-.6.5-1.4.8-2.1.3-.7.7-1.4 1.2-2.1l.2-.1h.2c10.1 0 18.4.1 24 .2h.1v.1c1.3 3.8 1.3 7 1.1 9-.1 1-.3 1.8-.4 2.3-.1.5-.2.8-.2.8s0-.3.1-.8.3-1.3.3-2.3c.1-2 0-5.1-1.3-8.9 0 0 .1.1.2.1-5.5.1-13.9.2-24 .2l.3-.1c-.4.4-.7 1.1-1 1.8-.3.7-.6 1.4-.8 2.2l-.3 1.2c-.1.4-.1.8 0 1l.1.1h.1s.1.1.2.1c.1.1.4.1.6.2.4.2.9.5 1.2.7.3.3.6.5.7.7-.3.1-.6.3-.8.4-.2-1.5 0-2.9.5-4.2.1-.3.3-.6.5-.9.1-.2.1-.3.3-.5l.3-.2.8-.7c.3-.2.6-.4.9-.5 1.2-.6 2.6-.9 3.9-.7.4 0 .6.1.9.2.3.1.7.3.9.5.6.4.9 1 1.2 1.4l.2.2.4.3.8.3 1.5.6c.5.2 1 .4 1.5.5.5.2 1 .3 1.5.4 2 .5 3.9.8 5.6 1.1l.3.1-.1.3c-.8 2.1-1.8 3.7-2.3 4.5v-.2c.8 2.2 1.6 4.1 1.9 4.9.6.6 1.1 1.2 1.3 1.4-.1 0-.1.1-.1.1-.4-.9-.4-1.7-.3-2.4.2-.8.3-1.3.5-1.7.1-.4.3-.7.4-.8l.1-.2"/><path clip-path="url(#b)" fill="#231F20" d="M27.1 38.7s.7-.3 1.9-.8c.7-.2 1.3-.8 2.2-1.3l1.2-1 .6-.6.6-.7.6-.8.5-.9c.4-.6.5-1.3.7-2 .3-1.5.4-3.1 0-4.8-.7-3.3-2.5-7-5.8-9.5l-.2-.1v-.3c.1-1.6.3-4.5-.7-7.1-.5-1.7-1.6-3.1-2.7-4.3-1.2-1.2-2.6-2-4-2.6-1.4-.6-2.9-.9-4.2-1.1-1.3-.1-2.6-.1-3.7.3h-.1l-.1-.1c-3.6-1.6-7.1.5-6.4 2.3l.2.5-.5-.3c-.5-.3-1-.5-1.5-.5s-.9.3-1.2.6c-.7.6-.8 1.4-.9 1.9-.1 1.2.3 1.7.3 1.8-.5-.6-.9-.8-1.1-.8-.2 0-.2.1-.2.1s0-.1.2-.1.6.2 1.1.8c0-.1-.5-.6-.4-1.8 0-.6.2-1.3.8-2 .3-.3.8-.6 1.3-.7.6-.1 1.2.1 1.7.5l-.2.2c-.1-.5-.1-1.1.2-1.6.3-.5.9-1 1.5-1.3 1.3-.6 3.3-.9 5.3 0h-.3c1.2-.5 2.5-.5 4-.4 1.4.1 3 .4 4.5 1s3.1 1.5 4.3 2.8c1.3 1.3 2.4 2.8 3 4.7 1 2.8.8 5.8.7 7.5-.1-.2-.1-.3-.2-.4 3.5 2.7 5.3 6.6 6 10.1.3 1.8.2 3.5-.2 5-.3.7-.4 1.5-.8 2.1-.2.3-.4.6-.5.9l-.6.8-.6.7-.7.6-1.3 1c-.9.5-1.6 1-2.3 1.2-1.3.2-2 .5-2 .5"/><path clip-path="url(#b)" fill="#231F20" d="M4.6 21.2s-.1.5-.1 1.5c-.1 1-.2 2.4-.3 4.1 0 .4-.1.9-.1 1.4v1.5c0 .5-.1 1.1.1 1.5l.6 1.5c1 2 2.4 4.2 3.8 6.4.7 1.2 1.5 2.3 1.9 3.2-.1-.1-.1-.1-.1-.2.8.6 1.8.8 2.8.6 1-.1 1.9-.5 2.7-.9.4-.2.8-.4 1.2-.7.3-.3.6-.5 1-.8.6-.5 1.1-1.1 1.6-1.6.9-1 1.6-1.8 2.1-2.4.5-.6.7-.9.7-.9s-.2.3-.6 1c-.4.6-1.1 1.5-1.9 2.6-.5.5-.9 1.2-1.5 1.7-.3.3-.6.6-1 .9l-1.2.8c-.9.5-1.8.9-2.9 1.1-1.1.2-2.4.1-3.5-.7h-.1l-.1-.1c-.3-.6-1.1-1.8-1.8-3-1.6-2.5-2.9-4.6-3.9-6.8-.2-.5-.5-1.1-.6-1.6-.2-.6 0-1.2 0-1.7l.1-1.5.2-1.4c.2-1.8.5-3.1.6-4.1.2-.9.3-1.4.3-1.4"/><path clip-path="url(#b)" fill="#231F20" d="M43.4 88.7s.2-4.5.6-12.3c.2-3.9.4-8.6.6-13.9 0-1.3 0-2.7.1-4.1 0-1.4.1-2.9-.1-4.3-.2-1.5-.4-2.9-.9-4.4-.5-1.4-1.1-2.9-2-4.1-1.9-1.9-6.2-3.5-10.6-5.1-3-1.1-6-2.1-8.3-3.9h-.1v-.1c-1.7-2.8-2-6.1-1.4-8.8.6-2.7 2.2-5.1 4.5-5.9.1.3.1.5.2.7-1.5.1-2.6-.7-3.4-1.4-.8-.8-1.5-1.6-2-2.5-.5-.8-.9-1.7-1.2-2.5-.3-.8-.4-1.6-.2-2.4l.4-1.9v1.9c0 .4-.2.6-.4.7l-.6.3c-.4.1-.7.2-1 .2-.6.1-1.1 0-1.5-.1.1-.1.2-.1.2-.1-.8 2.1-2.1 3.6-3.4 4.5-1.3.9-2.6 1.4-3.7 1.6-1.1.2-1.9.2-2.5 0-.6-.1-.9-.4-.9-.5-.8.9-1.4 1-1.7 1.2l-.3.1.3-.2c.3-.2.9-.3 1.7-1.2.1.1.3.4.9.5.6.1 1.4.1 2.5-.1 1-.2 2.3-.7 3.6-1.7 1.3-1 2.5-2.4 3.2-4.4l.1-.2h.2c.4.1.8.1 1.4.1.3 0 .6-.1.9-.2.3-.1.7-.3.7-.6.1 0 .2 0 .4.1-.1.6 0 1.4.3 2.1.3.8.7 1.5 1.2 2.3.5.8 1.1 1.6 1.9 2.3.8.7 1.8 1.3 2.9 1.2l2.8-.3-2.8 1.1c-2 .7-3.4 2.9-4 5.4-.6 2.5-.2 5.6 1.3 8.1l-.1-.1c2.1 1.6 5.1 2.6 8.1 3.8 4.4 1.6 8.8 3.2 10.9 5.3 1 1.4 1.7 2.9 2.1 4.4.5 1.5.7 3.1.9 4.6.1 1.5 0 3 0 4.4 0 1.4-.1 2.8-.1 4.1-.3 5.4-.6 10.1-.8 14-.6 7.8-.9 12.3-.9 12.3"/><path clip-path="url(#b)" fill="#fff" d="M12.5 70c.4 2.1 1.7 9.3 5.7 10.1h.1c-.8-2.7-1.7-5.8-1.9-7 2.7-2 7-7.4 8.4-9.4 4 3.6 9.9 6 12.5 6.8.6 2.6.8 5.8.6 8.4h.4c.4.2 4.1-.7 3.9-1.8-.1-1.2-.4-6.7-.8-8.6-.6-5.2-2.7-10.4-3.7-11.9-.2-1.4.3-5.2-8.2-6.9-8.5-1.7-15.7 5.4-16.7 9.1-1 3.7-1.2 7.6-.3 11.2"/><path clip-path="url(#b)" fill="#231F20" d="M2.8 39s.9-.6 2.2-.9c1.3-.2 2.4 0 2.4 0s-1 .7-2.3.9c-1.2.2-2.3 0-2.3 0"/><path clip-path="url(#b)" fill="#231F20" d="M8.6 61.6s-.4 0-1 .1c-.7 0-1.7-.1-2.7-.9-1-.8-2-1.9-2.5-3.6-.3-1.7-.2-3.4-.1-5.3.2-3.7.6-7 .9-9.4.3-2.4.6-3.9.6-3.9s-.1 1.5-.2 3.9c-.2 2.5-.4 5.8-.5 9.5-.1 1.8-.2 3.6 0 5.1.4 1.4 1.2 2.6 2 3.4.8.8 1.8 1 2.5 1.1h1"/><path clip-path="url(#b)" fill="#231F20" d="M28.5 39s-.1.7.2 1.7c.2 1 .7 2.5 1.7 3.5.2.2.4.3.5.4l.4.3-.2.4c-1.5 2.5-2.8 4.3-2.8 4.3s.7-2.1 2.1-4.7c0 .2.1.3.2.6-.2-.1-.5-.3-.8-.6-1.3-1.4-1.4-3-1.5-4.1 0-.6 0-1 .1-1.3 0-.3.1-.4.1-.5"/><path clip-path="url(#b)" fill="#231F20" d="M40.2 43.9s-.1.6-.6 1.5c-.6.8-1.7 1.8-3.3 2.1-.2 0-.4 0-.5.1.2-.2.3-.2.4-.3-.7 2.6-1.6 4.6-1.6 4.6s.1-2.1.8-4.8l.1-.3.4-.1c.1 0 .2 0 .4-.1 1.3-.3 2.4-.9 3.1-1.5.3-.3.6-.6.7-.8 0-.3.1-.4.1-.4"/><path clip-path="url(#b)" fill="#231F20" d="M14.1 34s-.2.2-.7.3c-.5 0-1.3-.1-2.1-.6l-.1-.1v-.2c0-.9 0-2.1.1-3.4.3-3.5.9-6.2.9-6.2s.2 2.9 0 6.3c-.1 1.3-.3 2.6-.4 3.4-.1-.1-.1-.2-.1-.3.6.5 1.3.8 1.8.8.3.2.6 0 .6 0"/><path clip-path="url(#b)" fill="#231F20" d="M17.9 35.4s-.1.1-.3.2c-.2.1-.6.3-1 .4-.9.2-2.1.4-3.4.3-2.7-.1-4.8-.9-4.8-.9s2.2-.1 4.8 0c1.3.1 2.5.2 3.3.2.9 0 1.4-.2 1.4-.2"/><path clip-path="url(#b)" fill="#231F20" d="M21.7 23.8h-.3c-.2 0-.4-.1-.7-.1-.6-.1-1.4-.1-2.4-.2l-3.4-.2s.3-.2 1-.4c.6-.2 1.5-.4 2.5-.3 1 0 1.9.3 2.5.6.3.1.5.3.7.4 0 .1.1.2.1.2"/><path clip-path="url(#b)" fill="#231F20" d="M5 23.3s.3-.2.8-.4 1.3-.3 2.1-.3 1.6.2 2.1.5c.5.2.7.5.7.5s-.4-.1-.9-.1h-2c-.8 0-1.5-.1-2-.1-.4-.1-.8-.1-.8-.1"/><path clip-path="url(#b)" fill="#231F20" d="M19.3 26.3s.1-.1.4-.3c.2-.2.5-.5.8-.9v.4l-.6-.3c-.2-.1-.5-.2-.7-.2-.3 0-.5-.1-.8-.2l-.5-.1h-.4c-.7 0-1.3 0-1.9.1-.1 0-.3 0-.4.1 0 0 .1-.1 0-.1v-.1c0 .1.2.3.3.5.6.6 1.1 1 1.1 1s-.1 0-.4-.1c-.2-.1-.6-.2-1-.5-.2-.1-.4-.3-.6-.7v-.4c0-.1.1-.2.2-.2l.1-.1.5-.2c.6-.2 1.3-.2 2-.3h.5l.5.1.9.3c.3.1.5.3.7.4l.6.5.2.2-.2.2c-.4.4-.8.6-1.1.7-.1.2-.2.2-.2.2"/><path clip-path="url(#b)" fill="#231F20" d="M6.4 25.7s-.2 0-.5-.1-.7-.4-1.1-.8l-.2-.2.2-.2c.3-.2.7-.5 1.2-.7.5-.2 1.1-.4 1.6-.4.8 0 1.3.3 1.9.5.3.1.5.3.7.5l.1.1s.1.1.1.2v.30000000000000004c0 .2-.1.3-.2.4-.4.3-.7.4-1 .5-.1 0-.2.1-.2.1s.1-.1.3-.2c.2-.1.5-.3.7-.6.1-.1.1-.3 0-.2-.1-.1-.4-.2-.6-.3-.5-.1-1.1-.3-1.5-.3-.6 0-1 .1-1.4.2-.5.1-.8.3-1.1.4 0-.1 0-.3.1-.4.3.4.5.8.7 1 0 .1.2.2.2.2"/><path clip-path="url(#b)" fill="#231F20" d="M41.8 90.5c1.9 1.1 3.8 2.3 5.2 3.6 1.3 1.4 1.4 8.5 1.1 15.7-.3 7.2-1 9.3-.7 10.3.1.2.4 1 .8 2.1l7-34.7 1.1-5.3.6-4.8-.3-.4-2.6 2.7-2.7 2.6-9.5 8.2z"/><path clip-path="url(#b)" fill="#231F20" d="M16.5 36.1s0 .1-.1.3c-.1.2-.1.5-.4.9-.2.3-.6.7-1.1 1-.5.3-1.2.4-1.7.4-.7 0-1.3-.1-1.8-.5s-.6-.9-.7-1.3c-.2-.7-.4-1.2-.4-1.2s.4.3.8 1c.2.3.5.7.8.9.3.2.8.2 1.3.2.6 0 1.1 0 1.5-.2.4-.1.8-.3 1-.5.3-.2.5-.5.6-.6.1-.3.2-.4.2-.4"/><rect x="46.4" y="80" transform="matrix(.65 .76 -.76 .65 81.757 -5.197)" clip-path="url(#b)" fill="#fff" width=".3" height="12.5"/><path clip-path="url(#b)" fill="#231F20" d="M71.9 35.7c-6.8-4.2-14.4-2.1-17.6.5l6.7-17.1 12.8 9.2c-.2 2.7-.1 5.1.3 6.8-1.1.7-1.9 1.2-1.9 1.2l-.3-.6z"/><path clip-path="url(#b)" fill="#CCC9C7" d="M41.3 68.3c.2-1 0-7-.9-9.4-2.3-4.5-22.4-11-32 4.8.2 1.4 2.5 7.7 2.7 8.2 3.1-7.1 21.1-19 30.2-3.6"/><path clip-path="url(#b)" fill="#CCC9C7" d="M42.3 90.2l-2.3 25.1.1.2c3.8-.7 6.8-1.2 7.2-1.2h-.4c-.1-.5-.1-1-.2-1.6h2.6c.1-.8.1-1.8.2-2.8.3-7.2.3-14.3-1.1-15.7-1.7-1.5-3.9-2.9-6.1-4z"/><path clip-path="url(#b)" fill="#CCC9C7" d="M3.9 127.8l3.1 1.2c.4-1.3.8-2.7 1.3-4.2h-.1c1.4-.1 9.3-1.9 13.9-4.5.6-.3 1.4-.7 2.4-1-9.1-13.3-17.9-20.9-19-21.6l-1.5-.8-.1 30.9z"/><path clip-path="url(#b)" fill="#231F20" d="M2.8 88.7s.2 0 .4.1c.3 0 .7 0 1.2.1 1 0 2.4 0 4 .1 3.1.1 5.7.6 5.7.6s-2.6.4-5.7.3c-1.6-.1-3-.3-4-.5-.5-.1-.9-.3-1.2-.4-.3-.2-.4-.3-.4-.3"/><path clip-path="url(#b)" fill="#231F20" d="M11.5 58.7s.1-.5.4-1.2c.3-.8.9-1.8 1.9-2.9 1-1.1 2.3-2.3 3.9-3.4 1.7-1 3.7-1.9 6-2.2 2.3-.3 4.5.1 6.4.7 1.9.6 3.5 1.4 4.6 2.4 1.1 1 1.5 2.3 1.6 3.1.1.4 0 .7 0 .9v0c0-.2-.1-.5-.1-.9-.2-.8-.6-1.9-1.7-2.8-1.1-.9-2.7-1.6-4.5-2-1.8-.5-3.9-.8-6-.5-4.3.5-7.7 3-9.7 5-1 1-1.7 2-2.1 2.7-.5.6-.6 1.1-.7 1.1"/><path clip-path="url(#b)" fill="#231F20" d="M40.1 68.3s-.1-.2-.4-.6c-.2-.4-.6-1-1.2-1.6-1.1-1.3-3-3.3-6.1-4.4-3.1-1.1-7.2-.9-11.3.9-2 .9-4.1 2.1-6 3.7-1.9 1.6-3.8 3.5-4.9 5.8l-.4.9-.4-.9c-.8-2-1.9-4.9-2.8-8.3v-.2l.1-.2c0-.1.1-.2.2-.3 2.2-3.6 5.4-6.5 8.9-8 3.5-1.6 7.2-2 10.5-1.8 3.2.2 6.1 1 8.3 2 2.2 1 3.9 2.2 4.6 3.5.5 1.7.6 3.1.7 4.4.1 1.2.1 2.2.1 2.9.2 1.6.1 2.2.1 2.2s.1-.6 0-2.1c0-.7-.1-1.7-.2-2.9s-.3-2.7-.8-4.3c-.7-1.2-2.4-2.3-4.5-3.2-2.2-.9-5-1.6-8.1-1.7-3.1-.1-6.7.3-10.1 1.9-3.4 1.5-6.4 4.3-8.5 7.7l-.2.3c0-.1 0-.2.1-.3.8 3.1 2 6.4 2.7 8.1h-.8c1.2-2.6 3.2-4.5 5.2-6.1 2-1.6 4.1-2.8 6.2-3.7 4.2-1.8 8.5-1.9 11.6-.7 3.1 1.2 5 3.2 6.1 4.6.5.7.9 1.3 1.1 1.7.1.5.2.7.2.7"/><path clip-path="url(#b)" fill="#231F20" d="M37 78.7s.7-.1 1.8-.6c.5-.2 1.2-.5 1.6-1l.1-.1v-.2c0-.2 0-.4-.1-.6l-.1-1.3c-.1-1.8-.2-3.5-.2-4.7-.1-1.2-.1-2-.1-2s.2.7.5 1.9c.2 1.2.5 2.8.6 4.7 0 .5.1.9.1 1.3v.6c0 .3 0 .2-.1.4l-.1.3v.2c-.7.7-1.5.8-2.1.9-1.2.4-1.9.3-1.9.2"/><path clip-path="url(#b)" fill="#231F20" d="M16.9 80s-.7 0-1.7-.6-2.1-1.9-2.8-3.5c-.7-1.6-.9-3.1-1.1-4.2-.1-1.1-.1-1.8-.1-1.8s.2.7.6 1.7c.4 1 .8 2.5 1.5 4 .6 1.5 1.4 2.8 2.2 3.5.2.2.4.3.6.4l.5.3c.1.1.3.2.3.2"/><path clip-path="url(#b)" fill="#231F20" d="M14.1 73.5l.9-.6c.5-.5 1.2-1.1 2.1-2 1.6-1.8 3.9-4.5 6.1-7.6l.3-.4.4.3c.1.1.3.3.6.5 3 2.5 6.3 4.2 8.6 5.3 1.2.6 2.2 1 2.9 1.2.3.1.6.2.8.3.2.1.3.1.3.1h-.3c-.2 0-.5-.1-.8-.2-.7-.2-1.8-.5-3-.9-2.5-.9-5.9-2.4-9-5.1-.2-.2-.5-.4-.6-.5.3 0 .5-.1.7-.1-2.3 3.2-4.7 5.7-6.5 7.4-.9.9-1.7 1.5-2.3 1.9-.8.2-1.2.4-1.2.4"/><path clip-path="url(#b)" fill="#231F20" d="M36 70.3s.2.6.4 1.8c.2 1.2.4 2.9.5 5.1 0 1.1 0 2.3-.1 3.5 0 .6-.1 1.3-.3 2l-.1.5-.3.5c-.2.4-.4.6-.6.9-.9 1.1-1.9 2.2-3 3.3-.6.5-1.1 1.1-1.8 1.6-.2.1-.3.2-.5.4l-.7.3c-.4.1-.9.2-1.3.2-.7.1-1.5.1-1.9.1h-.1l-.1-.1c-2.6-1.6-5.1-3.2-7.2-4.8-.1-.1-.3-.2-.4-.4-.2-.2-.2-.2-.3-.5l-.3-.9c-.2-.6-.4-1.2-.5-1.7-.3-1.1-.6-2.1-.9-3.1-.5-1.9-.9-3.4-1.1-4.5-.2-1.1-.3-1.6-.3-1.6s.2.6.4 1.6.8 2.5 1.4 4.4c.3.9.7 1.9 1 3l.6 1.7.3.9.2.3.3.3c2.1 1.5 4.6 3 7.2 4.6-.1 0-.1 0-.2-.1.4 0 1.1 0 1.8-.1.4 0 .8-.1 1.1-.2.2 0 .3-.1.4-.2.1-.1.3-.2.4-.4l1.7-1.5c1.1-1 2.1-2.1 3-3.2l.6-.8c.1-.1.2-.3.2-.4l.1-.5c.2-.6.3-1.2.3-1.9.2-1.2.2-2.4.3-3.5.1-2.1 0-3.8-.1-5 0-1-.1-1.6-.1-1.6"/><path clip-path="url(#b)" fill="#231F20" d="M18.6 84.7s-.1.3-.4.7c-.3.4-.7 1.1-1.3 1.8-.6.7-1.3 1.5-2.2 2.4-.9.8-1.9 1.7-3.1 2.5l-1.7 1.2c-.6.4-1.1.7-1.6 1-1.1.6-2 1.1-2.8 1.5-1.7.8-2.7 1.2-2.7 1.2s.9-.6 2.5-1.6c.8-.5 1.7-1.1 2.7-1.8.5-.3 1-.7 1.6-1l1.6-1.2c1.1-.8 2.1-1.7 3.1-2.4.9-.8 1.7-1.5 2.4-2.1 1.2-1.3 1.9-2.2 1.9-2.2"/><path clip-path="url(#b)" fill="#231F20" d="M52 130.9s-1.3-2.7-3.3-7.2c-.5-1.1-1-2.3-1.6-3.7-.2-.9 0-1.6 0-2.3l.2-2.3c.3-3.2.4-6.7.5-10.4v-5.4c-.1-1.7-.2-3.5-.7-4.8 0-.1-.1-.3-.3-.5 0 0-.1-.1 0-.1l-.1-.1-.2-.2-.9-.7c-.6-.5-1.2-.9-1.8-1.3-.6-.4-1.2-.8-1.7-1.1-.6-.3-1.1-.7-1.6-.9-2.1-1.2-3.9-2-5.2-2.6-1.2-.5-1.9-.9-1.9-.9s.7.2 2 .7c1.3.5 3.1 1.2 5.3 2.3l1.7.9c.6.3 1.2.6 1.8 1 .6.4 1.3.8 1.9 1.3l.9.7.2.2.1.1c.1.1.1.1.1.2.1.1.2.3.3.6.7 1.7.7 3.3.9 5.1.1 1.8.1 3.6.1 5.5-.1 3.7-.3 7.3-.6 10.5-.1.8-.2 1.6-.3 2.3-.1.7-.2 1.5-.1 2.1.5 1.3.9 2.6 1.4 3.7 1.8 4.5 2.9 7.3 2.9 7.3"/><path clip-path="url(#b)" fill="#CCC9C7" d="M48.2 131.3c-1.4-6-1.1-19.8-1.1-20.6-1 .1-20.6 3.4-25.2 6-4.6 2.6-12.5 4.3-13.9 4.5h.1c-1 3.3-1.9 6.3-2.2 7.6 0 .2-.2.8-.5 1.5l.2.1c1.8 17.5-1 22.9-1.6 28.5 0 .4-.2 1.8-.2 1.8h13l24.1-26.1 7.3-3.3z"/><path clip-path="url(#b)" fill="#231F20" d="M4.1 97.5l.9.6c.6.4 1.4 1.1 2.4 2 1 .8 2.1 1.9 3.4 3.1 1.2 1.3 2.6 2.6 3.8 4.1 1.3 1.5 2.5 3 3.5 4.4 1 1.4 2 2.6 2.7 3.7 1.4 2.2 2.3 3.6 2.3 3.6s-1-1.2-2.6-3.3c-.8-1-1.8-2.2-2.9-3.5-1.1-1.3-2.3-2.8-3.6-4.3-1.3-1.5-2.6-2.9-3.7-4.2-1.2-1.2-2.2-2.4-3.1-3.3l-2.2-2.2c-.6-.5-.9-.7-.9-.7"/><path clip-path="url(#b)" fill="#231F20" d="M50.1 45.9l-5.6 26h-.1c-.5 8.3-1 16.5-1 16.5l-.1.4 8-6.9 2.7-2.6 2.6-2.7.3-.2c-3.3-3.6-7.2-13.9-7.5-15.1-.3-1.4.3-5.6.3-5.6s.5-1-.1-2.5.7-3.3.8-6.6l-.3-.7z"/><path clip-path="url(#b)" fill="#231F20" d="M38.6 115.1s.1-5.7.7-12.6c.6-6.9 1.6-12.5 1.6-12.5s-.1 5.7-.7 12.6c-.6 6.9-1.6 12.5-1.6 12.5"/><path clip-path="url(#b)" fill="#231F20" d="M45.5 114.1s-.2-.5-.3-1.3c-.2-.8-.3-1.9-.3-3.2 0-1.2.2-2.4.4-3.2.2-.8.4-1.3.4-1.3v1.3c0 .8.1 1.9.1 3.1 0 1.2-.1 2.3-.1 3.1-.1.9-.2 1.5-.2 1.5"/><path clip-path="url(#b)" fill="#231F20" d="M46.8 133.3s-.1-.5-.3-1.3c-.2-.9-.4-2.2-.6-3.8-.3-3.3-.5-8.2-.4-14.1l.4.4c-2.4.4-6.4 1.1-10.4 2-4 .8-7.9 1.7-11.3 2.7-.9.3-1.6.5-2.4.8-.8.4-1.5.7-2.2 1.1-1.5.7-2.9 1.2-4.2 1.6-5.2 1.6-8.6 2-8.6 2s3.3-.6 8.4-2.4c1.3-.5 2.6-1 4-1.7.7-.4 1.4-.8 2.2-1.1.8-.3 1.6-.7 2.5-.9 3.4-1.1 7.3-2 11.3-2.9 4.1-.8 8-1.5 10.5-1.8l.4-.1v.4c-.2 5.9-.2 10.7-.1 14 .1 1.7.2 3 .4 3.8.3.8.4 1.3.4 1.3"/><path clip-path="url(#b)" fill="#D8505C" d="M47.9 112.5s-.6.5-1.3.5c-.7 0-1.3-.5-1.3-.5s.6-.5 1.3-.5c.7 0 1.3.5 1.3.5"/><path clip-path="url(#b)" fill="#231F20" d="M10.3 113.3s-1.2 5.6-3.2 12.4c-.8 2.5-1.5 4.9-2.1 6.5v-.1c0 .3-.1.5-.2.8-.1.2-.2.4-.2.6-.2.4-.3.8-.5 1.1l-.8 1.7c-.5.9-.7 1.4-.7 1.4s.2-.5.5-1.5c.2-.5.4-1.1.6-1.8.2-.7.6-1.6.7-2.3v-.1c.4-1.6 1-4 1.8-6.6 2-6.7 4.1-12.1 4.1-12.1"/><path clip-path="url(#b)" fill="#231F20" d="M2.6 127.6s.8-.2 1.7.1c.8.3 1.4 1 1.4 1s-.8.2-1.7-.1c-.9-.3-1.4-1-1.4-1"/><path clip-path="url(#b)" fill="#231F20" d="M4.4 130.7s.3 1.8.5 4.8.2 7.1-.2 11.6c-.5 4.5-1.3 8.6-1.9 11.4-.2.7-.3 1.4-.5 1.9l-.1.4v.2s-.1-.1-.2 0l.3-.6c.3-.8.5-1.2.5-1.2l-.3 1.2c-.1.2-.1.4-.2.7 0 0 0 .1-.1.1 0 .1-.2 0-.2 0v-.4c0-.1 0-.3.1-.4.1-.6.2-1.2.3-2 .4-2.9 1-7 1.5-11.4.5-4.5.7-8.5.7-11.5-.1-2.9-.2-4.8-.2-4.8"/><path clip-path="url(#b)" fill="#231F20" d="M35.1 87.2s.1.8.1 2.2c.1 1.4.2 3.4.2 5.9 0 2.5-.1 5.5-.8 8.8-.4 1.6-1 3.3-2 4.9-.5.8-1.2 1.5-1.9 2.2l-1.2.8c-.3.2-.5.2-.8.3l-.8.1c-1.1 0-2.1-.6-2.8-1.2-.7-.6-1.4-1.3-1.9-2.1-1.1-1.5-2-3-2.7-4.5-1.5-3-2.5-5.8-3.3-8.2-.8-2.4-1.3-4.3-1.7-5.7-.3-1.4-.4-2.1-.4-2.1s.1.8.5 2.1 1 3.3 1.9 5.6c.9 2.3 2.1 5.1 3.6 8 .8 1.4 1.6 2.9 2.7 4.3.5.7 1.1 1.4 1.8 1.9.7.6 1.5 1 2.2 1l.6-.1c.2-.1.4-.2.5-.2.4-.3.8-.5 1.1-.8.6-.5 1.2-1.2 1.7-1.9 1-1.4 1.6-3 2-4.6.8-3.2 1-6.1 1.1-8.6.1-2.5.1-4.5.1-5.9.2-1.5.2-2.2.2-2.2"/><path clip-path="url(#b)" fill="#231F20" d="M72.8 63.4s.2 2.8.3 7.3v.2l-.1.1c-1.3.9-3.4 2.2-5.6 3.5-3.5 2.1-6.7 3.9-8.8 5 0-.1.1-.2.1-.2.5 2.4.8 3.7.8 3.7s-.4-1.3-1.2-3.6v-.1l.1-.1c1.9-1.3 5-3.3 8.5-5.5 2.2-1.3 4.3-2.6 5.7-3.3l-.2.3c.2-4.6.4-7.3.4-7.3"/><rect x="55.1" y="76.3" transform="matrix(.725 .689 -.689 .725 69.097 -16.523)" clip-path="url(#b)" fill="#fff" width=".3" height="3.8"/><path clip-path="url(#b)" fill="#231F20" d="M57.7 83.7s0-1.8.4-4.3c0 .1 0 .2.1.3-.3-.3-.7-.8-1.1-1.3-.3-.4-.6-.7-.7-.9.4-.1.6-.2.8-.2-.4 2.8-1 4.8-1 4.8s-.1-2 .2-4.9l.1-1 .7.8c.2.2.5.5.7.9.4.5.8 1 1 1.4l.1.2v.2c-.7 2.3-1.3 4-1.3 4"/><path clip-path="url(#b)" fill="#231F20" d="M48.1 122s1.1-7.9 3-17.4c1.9-9.6 3.9-17.3 3.9-17.3s-1.1 7.9-3 17.4c-1.9 9.6-3.9 17.3-3.9 17.3"/><path clip-path="url(#b)" fill="#231F20" d="M58.8 84.8l.8-1.7 1.1.5.1 1.1 7.9-4.2-3.8 9.1-3.9-2.8s-1.2.1-2.1-.7l-7.7 2.4c-.3-1.1.2-9.6.7-11.4.4.7 6.9 7.7 6.9 7.7"/><path clip-path="url(#b)" fill="#fff" d="M64.9 89.7l-4-2.8h-.1c-.3 0-1.2-.1-2-.7l-7.8 2.5v-.2c-.3-1.1.2-9.6.7-11.5l.1-.3.2.3c.4.5 5.7 6.4 6.7 7.5l.7-1.6 1.3.6.1.9 8.1-4.3-4 9.6zm-3.9-3.1l3.8 2.6 3.6-8.5-7.8 4.2-.1-1.2-.8-.4-.8 1.8-.2-.2c-.2-.3-5.5-6-6.7-7.4-.5 2.1-.9 9.4-.7 10.9l7.6-2.4h.1c.7.6 1.5.7 1.8.7.1-.1.1-.1.2-.1z"/><path clip-path="url(#b)" fill="#231F20" d="M74.6 71.3s-.1-.1-.9-1.5c-.4.8-6.9 13-11.1 29-2.1 8.1-3.1 15.6-3.1 21v.1l-.1.1c-5.6 4.5-9 7.1-9 7.1s3.3-2.8 8.7-7.5l-.1.2c-.2-5.4.6-13.2 2.8-21.3 2.1-8.1 5.1-15.1 7.4-20.2 2.4-5.1 4.3-8.2 4.5-8.6.8 1.5.9 1.6.9 1.6"/><path clip-path="url(#b)" fill="#231F20" d="M49.9 126.5s1.5-9.1 3.9-20.1c2.4-11.1 4.8-19.9 4.8-19.9s-1.5 9.1-3.9 20.1c-2.4 11.1-4.8 19.9-4.8 19.9"/><path clip-path="url(#b)" fill="#231F20" d="M25.9 84.5s.1 0 .3-.1c.2 0 .5 0 .8-.2.7-.2 1.6-.7 2.5-1.3 0 .2.1.5.2.8h-2.5c-.6 0-1.1.1-1.5.1-.9.2-1.5.2-1.5.2s.5-.3 1.3-.6c.4-.2.9-.3 1.5-.4l.9-.2h1.8l1.4.1-1.1.8c-1.1.7-2.1 1-2.9 1-.4.1-.7 0-.9-.1-.2 0-.3-.1-.3-.1"/><path clip-path="url(#b)" fill="#231F20" d="M70.5 48.5l.9-3.7s-12.8-6.4-19.9-.4l-.2 1.8c-.2-.5-.2-5.6 1.9-8.8 2.1-3.2 12-7 20.2-.7 5.6 4.4 4.1 15 3.6 16.2-1.3-.2-1.9.7-1.9 5.5l-1.1-1.2c-.1.1.2-5.2-3.5-8.7"/><path clip-path="url(#b)" fill="#231F20" d="M17.7 73.3s.1-.3.5-.7c.4-.4 1-.8 1.8-.9.8-.1 1.5.1 1.9.4.4.2.7.5.7.5h-.8c-.5 0-1.1 0-1.7.1-.6.1-1.2.2-1.7.3-.4.2-.7.3-.7.3"/><path clip-path="url(#b)" fill="#231F20" d="M33.7 71.6s-.4-.1-.9-.2-1.2-.2-2-.2-1.5 0-1.9.1c-.3 0-.5.2-.6.2-.1.1-.2.1-.2.1s0-.1.1-.2.2-.3.5-.5c.5-.4 1.3-.7 2.2-.6.9 0 1.7.4 2.1.7.4.4.7.6.7.6"/><path clip-path="url(#b)" fill="#231F20" d="M28.2 75.4s.1-.1.2-.3c.1-.2.3-.5.5-.8l.3-.6c.2-.2.5-.5.9-.6l.9-.1h4l-.4.4c-.4.5-.8.9-1.1 1.1-.3.2-.4.4-.4.4s.1-.2.3-.5c.2-.3.5-.8.8-1.3.1.1.2.3.3.5-.3.1-.7.2-1.1.2-.2 0-.4.1-.7.1h-.8c-.7 0-1.3-.1-1.8-.1-.2 0-.3.1-.5.2s-.3.3-.5.5c-.3.3-.6.6-.8.7 0 .1-.1.2-.1.2"/><path clip-path="url(#b)" fill="#231F20" d="M34.8 74.9s-.8.2-1.7.2c-.9 0-1.7-.2-1.7-.2s.8-.2 1.7-.2c1 0 1.7.2 1.7.2"/><path clip-path="url(#b)" fill="#231F20" d="M23.5 75.8s-.1-.1-.3-.2c-.2-.1-.5-.3-.8-.6l-.5-.5c-.2-.1-.3-.2-.5-.2-.4 0-1.1.1-1.8.2h-.8c-.2 0-.5 0-.7-.1-.4 0-.8-.1-1.1-.2.1-.2.2-.3.2-.5.3.5.6 1 .8 1.3.2.3.3.5.3.5s-.2-.1-.4-.3c-.3-.2-.7-.5-1.2-1.1l-.4-.4.6-.1c.3 0 .7 0 1.1-.1h.7c.2 0 .5 0 .7-.1h.9c.4 0 .6-.1 1 0 .4 0 .7.3.9.5.2.2.3.4.4.6.2.4.4.6.5.8.3.4.4.5.4.5"/><path clip-path="url(#b)" fill="#231F20" d="M16.9 75.8s.8-.2 1.7-.3c.9-.1 1.7.1 1.7.1s-.8.2-1.7.3c-1 0-1.7-.1-1.7-.1"/><path clip-path="url(#b)" fill="#231F20" d="M24.4 75.6s.7 2 1.1 4.6c.1.4.1.8.1 1-.1-.1-.1-.2-.1-.3.7.6 1.6.6 2 .3.5-.3.5-.8.5-.8-.1 0 .2.4-.3 1-.2.3-.7.5-1.2.6-.5.1-1.1-.1-1.7-.5l-.1-.1v-.2c0-.2-.1-.6-.2-1-.2-2.5-.1-4.6-.1-4.6"/><path clip-path="url(#b)" fill="#231F20" d="M74.4 53.3h.2c.1 0 .4-.1.6-.1.5 0 1.6.1 2.2 1.1.6 1 .6 2.5.3 4.1-.2.8-.4 1.7-.8 2.5-.4.9-.9 1.8-1.9 2.5-.1.1-.4.2-.7.1-.3-.1-.4-.3-.6-.5-.3-.4-.5-1-.7-1.6h.6c-.4 1.2-.7 2.7-1.2 4.2-.2.7-.5 1.5-.7 2.3l-.2.6-.1.3-.2.3c-.2.4-.5.8-.8 1.1-1.1 1.4-2.5 2.7-3.9 4.1-1.5 1.3-3 2.6-5 3.5-.3.2-.7.3-1.1.4-.3.1-.8.2-1.2.2h-.8999999999999999l-.4-.1c-.4-.2-.7-.4-1-.7-1.1-1-1.9-2.2-2.6-3.4-1.4-2.4-2.4-4.7-3.4-6.9-.5-1.1-.9-2.2-1.2-3.2-.2-.5-.4-1-.5-1.5-.2-.5-.3-1-.3-1.5 0-2 .3-3.7.5-5 .2-.7.2-1.4 0-2-.1-.3-.2-.6-.2-1 0-.3 0-.6.1-.9.2-1.2.5-2.1.7-2.8.2-.7.2-1.3.3-1.7 0-.4.1-.6.1-.6v.6c0 .4-.1.9-.2 1.7-.2.6-.4 1.6-.6 2.7-.4 1.1.9 2.3.3 4-.1 1.4-.4 3.1-.3 5 0 .5.1.9.3 1.4l.6 1.5c.4 1 .8 2.1 1.3 3.1 1 2.2 2 4.5 3.4 6.8.7 1.1 1.5 2.3 2.4 3.2.2.2.5.4.8.5 0 0 .2.1.1.1h.3c.2 0 .4.1.5 0 .5-.1 1.2-.3 1.8-.6 1.8-.8 3.3-2.1 4.8-3.3 1.4-1.3 2.8-2.6 3.9-3.9.3-.3.5-.7.7-1 0-.1.1-.2.1-.2l.1-.3.2-.6c.3-.8.5-1.6.8-2.3.5-1.5.9-2.8 1.3-4.1l.3-1 .2 1c.1.6.3 1.1.6 1.5.1.2.3.3.4.4h.2c.8-.5 1.3-1.5 1.8-2.3.4-.8.7-1.7.9-2.4.4-1.6.4-3-.1-4s-1.5-1.2-2-1.2h-.6c-.2-.1-.3-.1-.3-.1"/><path clip-path="url(#b)" fill="#231F20" d="M56.2 52.8h-3.4c-.9 0-1.7 0-2.4-.1-.6 0-1 .1-1 .1s.3-.3.9-.5c.6-.2 1.5-.4 2.5-.4s1.9.2 2.5.5c.5.2.9.4.9.4"/><path clip-path="url(#b)" fill="#231F20" d="M68 54.3s-.1 0-.3-.1c-.2-.1-.5-.2-.9-.3-.7-.2-1.7-.4-2.9-.6-1.1-.2-2.1-.4-2.9-.5-.7-.1-1.2-.1-1.2-.1s.5-.2 1.2-.3c.8-.1 1.9-.2 3.1 0 1.2.2 2.2.6 2.9 1.1.3.2.6.4.8.5.1.2.2.3.2.3"/><path clip-path="url(#b)" fill="#231F20" d="M58.6 65c-1.3-.4-2-.3-2.7.5-.7.8-1.9 1.1-2.3.9.4 1.7 3.2 1.7 4.2 1.2s1.4-1.3 1.4-1.3c1 1.6 4.3 2.7 5.9 1.6 0 0-1.2-.8-1.5-1.5-.3-.7-2-2.3-4.3-1.1l-.7-.3z"/><path clip-path="url(#b)" fill="#231F20" d="M58.2 64.4s-.2 0-.5.1c-.3 0-.8.1-1.4-.3-.3-.2-.5-.4-.7-.8-.1-.2-.2-.4-.2-.6 0-.2-.1-.3-.1-.6 0-.8 0-1.6.1-2.5.2-.9.3-1.7.5-2.4s.5-1.4.7-1.9c.5-1 .8-1.7.8-1.7s-.1.7-.4 1.8c-.1.6-.2 1.2-.4 1.9-.1.7-.2 1.5-.4 2.4-.1 1.6-.6 3.3.2 3.9.4.3.8.4 1.1.5.5.2.7.2.7.2"/><path clip-path="url(#b)" fill="#231F20" d="M60.4 64.6l-.3-.1v-.1c-.1-.1-.4-.3-.8-.3-.2 0-.4.1-.5.2l-.2-.2c.6-.5 1.2-.2 1.5-.1h.1c.1-.5 0-1.1-.3-1.2l.1-.3c.7.2.6 1.3.5 1.7l-.1.4z"/><path clip-path="url(#b)" fill="#231F20" d="M58.2 65.2l.4-.2c.3-.2.8-.3 1.4-.3.6 0 1.4.2 2.2.8.4.3.6.8.9 1.1.3.3.7.7 1.1 1l.4.3-.4.3c-.7.5-1.7.7-2.8.5-1.1-.2-2.2-.6-3.2-1.5-.2-.2-.4-.4-.5-.6h.8c-.2.3-.5.6-.8.8-.3.3-.5.4-.9.6-.7.3-1.4.3-2 .3-.6-.1-1.2-.2-1.7-.5s-.9-.8-1-1.3l-.1-.7.5.2c.2.1.6 0 1-.1.3-.1.6-.3.9-.5.2-.2.5-.4.8-.6.3-.1.6-.2.8-.2 1 0 1.4.4 1.4.3 0 0-.5-.2-1.4-.1-.2 0-.5.1-.7.3-.2.2-.4.4-.7.6-.2.2-.6.5-1 .7-.4.1-.8.4-1.4.2.1-.1.2-.2.4-.3.2.7 1.1 1.1 2.1 1.2.5 0 1.1 0 1.5-.3.2-.1.5-.3.7-.5.2-.2.4-.4.5-.6l.4-.6.4.5c.1.1.2.3.4.5 1.6 1.4 4 1.7 5 1.1v.6c-.5-.4-.9-.7-1.2-1.1-.3-.5-.5-.9-.7-1.1-.6-.6-1.3-.9-1.9-.9-.6-.1-1.1 0-1.3.1h-.3"/><path clip-path="url(#b)" fill="#231F20" d="M58.7 72.2s-.1-.3-.1-.6l-.1-.6-.1-.7v-.3c.2.1.3.2.4.3-1-.1-1.7-.4-1.7-.4s.7-.4 1.7-.4h.3l.1.3c0 .1.1.2.1.4.1.3.1.6 0 .9 0 .3-.1.5-.2.7-.3.2-.4.4-.4.4"/><path clip-path="url(#b)" fill="#231F20" d="M69.3 48.5l.4.4.5.5c.1.1.2.2.3.4.1.1.2.3.3.5.9 1.3 2 3.6 2.1 7v-.1l1.1 1.1s-.2.1-.3.1v-2.7c0-.6.1-1.2.3-1.8.1-.3.3-.7.6-1 .3-.3.8-.3 1.2-.2 0 0-.2.1-.3.2.4-1.7.5-3.7.4-5.8-.1-2.1-.4-4.4-1.5-6.6-.2-.6-.6-1-.9-1.6-.4-.4-.7-.9-1.2-1.3l-.3-.3-.2-.1-.1-.2-.8-.5c-.5-.4-1.1-.7-1.7-1-2.3-1.2-5-1.8-7.8-1.6-1.9.1-3.7.5-5.3 1.2-.8.4-1.6.8-2.3 1.3-.4.2-.7.5-.9.8-.2.1-.3.3-.4.5l-.2.2-.1.1c-.9 1.4-1.3 3-1.5 4.5-.1.7-.2 1.5-.2 2.2v1.5s0 .1.1.2c.6-.2-.8.3-.7.2v-.4c.1-.8.2-1.3.2-1.8v-.1l.1-.1c2.4-2 5.3-2.6 7.8-2.6s4.6.4 6.3.9c3.5 1 5.5 2 6 2.3-.9 3.3-1 3.7-1 3.7s.1-.4.9-3.7c-.6-.2-2.6-1.2-6.1-2-1.7-.4-3.8-.8-6.2-.7-2.4.1-5.1.7-7.3 2.6l.1-.2c-.1.5-.1 1-.2 1.8v0c.1 0-1.3.4-.7.2 0-.1-.1-.1-.1-.3l-.1-.5v-1.1c0-.7.1-1.5.2-2.3.2-1.6.6-3.2 1.6-4.8l.2-.3c.1-.2.1-.2.2-.3.1-.2.2-.3.4-.5.3-.3.7-.7 1.1-.9.8-.6 1.6-1 2.5-1.4 1.8-.7 3.7-1.2 5.6-1.3 2.9-.1 5.8.5 8.2 1.8.6.3 1.2.6 1.7 1l.8.6.2.1.2.2.5.5c.5.4.9 1 1.3 1.5.3.6.7 1.1.9 1.7 1.1 2.3 1.3 4.7 1.4 6.9 0 2.2-.1 4.2-.6 6.1v.1h-.2c-.3-.1-.6 0-.8.1-.2.2-.3.4-.4.7-.2.6-.3 1.2-.3 1.7-.1 1.1-.1 2-.1 2.7v.4l-.3-.3c-.5-.5-1-1-1.1-1.2v-.1c0-3.3-1-5.6-1.8-7l-.3-.5-.3-.4-.5-.6c-.5-.1-.6-.3-.6-.3"/><path clip-path="url(#b)" fill="#231F20" d="M44.5 72.2s.8-5.9 2.3-13.1c1.5-7.2 3.2-12.9 3.2-12.9s-.8 5.9-2.3 13.1c-1.5 7.2-3.2 12.9-3.2 12.9"/><path clip-path="url(#b)" fill="#231F20" d="M67 58.3s0-.3-.2-.8-.7-1.1-1.4-1.4c-.2-.1-.4-.2-.6-.2-.2 0-.4-.1-.7-.1h-.8c-.3 0-.5.1-.8.2-.5.1-1 .4-1.4.9-.2.2-.4.5-.5.7 0 .1-.1.2-.1.4l-.1.5c0 1 1.1 2.1 2.1 2.3 1.1.3 2.1.2 2.9-.2.8-.4 1.3-1 1.4-1.4.2-.6.2-.9.2-.9s0 .3-.1.8-.5 1.2-1.4 1.8c-.8.5-2.1.8-3.3.5-.7-.1-1.3-.5-1.9-1-.5-.5-1-1.2-1-2.2l.1-.5c0-.2.1-.4.2-.6.2-.4.4-.7.7-.9.5-.5 1.2-.8 1.8-1 .6-.2 1.3-.1 1.8 0 .3 0 .6.1.8.2l.7.3c.8.5 1.2 1.3 1.4 1.8.2.5.2.8.2.8"/><path clip-path="url(#b)" fill="#231F20" d="M55.9 57.8s0-.3-.2-.8-.7-1.1-1.4-1.4c-.2-.1-.4-.2-.6-.2-.2 0-.4-.1-.7-.1h-.8c-.3 0-.5.1-.8.2-.5.1-1 .4-1.4.9-.2.2-.4.5-.5.7 0 .1-.1.2-.1.4l-.1.5c0 1 1.1 2.1 2.1 2.3 1.1.3 2.1.2 2.9-.2.8-.4 1.3-1 1.4-1.4.2-.6.2-.9.2-.9s0 .3-.1.8-.5 1.2-1.4 1.8c-.8.5-2.1.8-3.3.5-.7-.1-1.3-.5-1.9-1-.5-.5-1-1.2-1-2.2l.1-.5c0-.2.1-.4.2-.6.2-.4.4-.7.7-.9.5-.5 1.2-.8 1.8-1 .6-.2 1.3-.1 1.8 0 .3 0 .6.2.8.2l.7.3c.8.5 1.2 1.3 1.4 1.8.3.5.2.8.2.8"/><path clip-path="url(#b)" fill="#231F20" d="M60 59s-.9.2-2 .2c-1.1-.1-1.9-.4-1.9-.4s.9-.2 2-.1c1 0 1.9.3 1.9.3"/><path clip-path="url(#b)" fill="#231F20" d="M74.1 54.9s-1.4 1.1-3.3 2c-1.9.9-3.7 1.2-3.7 1.2s1.4-1.1 3.3-2c1.9-.9 3.7-1.2 3.7-1.2"/><path clip-path="url(#b)" fill="#231F20" d="M66.3 85.9c-3.7 9.5-7.3 22-7.1 34.1l-8.7 7.2h.1c.9 2 1.8 4.1 1.8 4.1l17.2-8.3 1.4-2-.4-10.9s10.4-2.2 10.7-3.8c3.3-21.6-15.6-9.5-14.5-11-.3-.9-1-6.7-.5-9.4"/><path clip-path="url(#b)" fill="#231F20" d="M2.8 39s.9-.6 2.2-.9c1.3-.2 2.4 0 2.4 0s-1 .7-2.3.9c-1.2.2-2.3 0-2.3 0"/><path clip-path="url(#b)" fill="#231F20" d="M83.9 70.4s2.3-2.9 5.9-6.6c.4-.3 1.1-.7 1.9-1.2.5-.3 1.1-.6 1.5-.9l.1-.1h.1c.6.1.9.6 1.1.9.2.4.2.7.2 1.2 0 .1 0 .2-.1.3v.2l-.1.1-.3.4-.7.6c-.1-.2-.2-.4-.2-.6.1 0 .2 0 .3.1l.1.1.1.2.2.3.3.6c.2.4.3.7.3 1.2v-.1c.3.9.7 1.6.7 2.2 0 .6-.2.8-.2.8s.2-.3.1-.8-.6-1.1-1-2.1v-.1c0-.2-.2-.6-.3-.9l-.3-.5-.2-.3-.1-.1s0 .1.1 0c0-.1.1-.2 0-.3l-.2-.3.5-.6c.1-.1.2-.2.2-.3l.1-.1v-.2c0-.4-.3-1.1-.6-1.1.1 0 .2 0 .3-.1-.5.3-1 .6-1.5 1-.7.4-1.4.9-1.9 1.1l.1-.1c-3.7 3.7-6.5 6.1-6.5 6.1"/><path clip-path="url(#b)" fill="#fff" d="M99.7 85.5c-.4-.2-3.6 0-4.1 0-.1 1.3.3 2.7 2.1 2.7 1.7 0 2-1.9 2-2.7"/><path clip-path="url(#b)" fill="#231F20" d="M99.7 85.5s.5.6.3 2l-.2.6c-.1.2-.2.4-.4.6-.1.2-.5.4-.8.5l-.2.1h-.1l-.3.1h-1.3l-.5-.1c-.3-.1-.6-.3-.9-.5-.3-.2-.5-.6-.7-.9-.6-1.1-.4-2-.3-2.5l.3-1.4 1 .1c1.1.2 2.3.4 3 .7.3.1.7.3.9.4.1.2.2.3.2.3-.1-.1-1.5.8-4.1 1.3l1.3-1.2c.1.3.2.8.3 1-.1.1.8.8 1.4.3.3-.3.6-.6.8-.9.2-.4.3-.5.3-.5"/><path clip-path="url(#b)" fill="#fff" d="M79.1 84.9s0 .2.1.5.2.7.4 1.1c.1.1.2.2.2.3l.3.3c.2.1.4.2.8.2.6 0 1.3-.2 1.6-.8.3-.5.3-1.2.3-1.6l.3.3c-2.4-.2-4-.4-4-.3 0-.1 1.7-.3 4.1-.3h.3v.3c0 .4.1 1.2-.3 1.9-.2.4-.6.8-1 .9-.2.1-.4.1-.6.1h-.6c-.3 0-.8-.2-1-.4-.1-.1-.3-.2-.3-.4-.1-.1-.2-.3-.2-.4-.2-.5-.2-1-.2-1.3-.2-.3-.2-.4-.2-.4"/><path clip-path="url(#b)" stroke="#fff" stroke-miterlimit="10" d="M79.1 84.9s0 .2.1.5.2.7.4 1.1c.1.1.2.2.2.3l.3.3c.2.1.4.2.8.2.6 0 1.3-.2 1.6-.8.3-.5.3-1.2.3-1.6l.3.3c-2.4-.2-4-.4-4-.3 0-.1 1.7-.3 4.1-.3h.3v.3c0 .4.1 1.2-.3 1.9-.2.4-.6.8-1 .9-.2.1-.4.1-.6.1h-.6c-.3 0-.8-.2-1-.4-.1-.1-.3-.2-.3-.4-.1-.1-.2-.3-.2-.4-.2-.5-.2-1-.2-1.3-.2-.3-.2-.4-.2-.4z" fill="none"/><path clip-path="url(#b)" fill="#fff" d="M110.6 78.3c.6-1.5 2.7-16.5-2.1-21-4.9-4.5-7.1-4.9-17.1-4.1h-2.3c-9.9-.9-12.2-.4-17.1 4.1-4.7 4.3-3.9 18.6-3.3 20.8l.1.2c.4-.8 1.3-2.1 3.2-1.7 0 .8.7 6 .4 8.1h1.7s-.1-3.8-.2-6.7l1.7-3.6s-1.3-4.1-1.8-5.9c-.5-1.8.5-3.6.5-3.6s1.8-3.7 7.2-4.1c3.2-.1 6 2 8.7 1.8h.1c2.7.2 5.5-1.9 8.7-1.8 5.4.4 7.2 4.1 7.2 4.1s1 1.8.5 3.6-1.8 5.9-1.8 5.9l-.1.3 1.8 3.8-.1 6.3h1.3s.7-7.1.7-7.8c.1-.8 1.9-.1 2.1 1.3"/><path clip-path="url(#b)" fill="#231F20" d="M110.6 78.3s0-.2-.2-.5-.6-.9-1.4-1.1c-.1 0-.2 0-.3.1-.1.1-.1.2-.1.3 0 .2 0 .5-.1.8 0 .6-.1 1.2-.2 1.9-.1 1.4-.3 3.1-.5 5v.1h-1.5000000000000002v-.1c0-.9 0-3.4.1-6.3-.2-.5-1-2.1-1.8-3.9v-.1c.4-1.4.9-3 1.5-4.9.1-.5.3-1 .4-1.4.1-.5.1-1 0-1.5-.2-1-.7-2-1.5-2.9-1.5-1.7-4-2.8-6.6-2.8-1.3.1-2.6.5-4 .9-1.3.4-2.8 1-4.4.9-1.6.1-3.4-.5-5.2-1.1-.9-.3-1.9-.6-3-.6-1 0-2.2.2-3.2.6-1.1.4-2.1 1-3 1.8-.2.5-.6 1-.9 1.5-.3.5-.5 1.1-.6 1.7-.1.6-.1 1.2 0 1.8l.6 1.9c.4 1.3.8 2.6 1.2 4v.1l-.1.1c-.3.7-1 2.2-1.7 3.6v-.2c0 1.4.1 4 .2 6.7v.4h-2.3000000000000003l.1-.4c.1-.4.1-1.3.1-2.1-.1-2-.3-4-.4-5.9.1.1.2.2.3.4-.6-.1-1.2-.1-1.7.2-.5.3-.8.8-1.1 1.3l-.1.2h-.2l-.4.1-.1-.3c-.4-2-.4-4-.5-5.9 0-1.9.1-3.8.3-5.7.2-1.9.5-3.7 1.1-5.4.6-1.7 1.4-3.4 2.7-4.6 1.3-1.1 2.6-2.2 4-3 1.5-.8 3.1-1.1 4.6-1.2 3.1-.2 5.9.1 8.4.3h2.3c3.1-.2 6.1-.5 9-.2 1.4.2 2.8.6 4 1.2 1.2.6 2.2 1.4 3.2 2.2.5.4.9.8 1.3 1.2.4.4.8.9 1 1.5.6 1 .9 2.1 1.1 3.1.5 2.1.6 4 .6 5.7.1 3.4-.3 6.1-.5 7.9-.1.9-.3 1.6-.4 2 0 .4-.1.6-.1.6l.2-.7c.1-.4.2-1.1.3-2 .2-1.8.5-4.4.4-7.8-.1-1.7-.2-3.6-.7-5.7-.3-1-.6-2.1-1.1-3-.3-.5-.6-1-1-1.4l-1.3-1.2c-.9-.8-2-1.6-3.1-2.2-1.2-.6-2.5-1-3.9-1.1-2.8-.3-5.8 0-8.9.3h-2.3c-2.6-.2-5.4-.5-8.4-.2-1.5.1-3 .5-4.4 1.2-1.4.7-2.6 1.8-3.9 2.9-1.2 1.1-2 2.6-2.5 4.3-.5 1.7-.8 3.4-1 5.3-.2 1.8-.3 3.7-.3 5.6 0 1.9.1 3.9.5 5.7l-.4-.3-.3.2c.3-.6.7-1.2 1.4-1.6.7-.4 1.5-.5 2.2-.3l.3.1v.3c.1 1.8.4 3.9.4 5.9 0 .9 0 1.7-.1 2.2-.1-.2-.3-.3-.4-.4h1.7c-.1.2-.3.3-.4.4-.1-2.6-.2-5.2-.2-6.7v-.2c.7-1.4 1.4-2.9 1.7-3.6v.3l-1.2-4-.6-2c-.2-.7-.2-1.4 0-2.1.1-.7.4-1.3.7-1.9.4-.6.8-1.1 1.3-1.5 1-.9 2.1-1.5 3.2-1.9 1.2-.4 2.3-.6 3.5-.6 1.1.1 2.2.4 3.1.7 1.9.6 3.6 1.3 5 1.2 1.4.1 2.8-.4 4.1-.8 1.3-.4 2.7-.9 4.1-.9 2.8 0 5.4 1.2 7 3 .4.5.8.9 1 1.5.2.5.4 1.1.5 1.6.1.6.1 1.1 0 1.6l-.4 1.5c-.6 1.8-1.1 3.5-1.6 4.9v-.1c.8 1.8 1.5 3.4 1.7 3.9-.1 2.9-.1 5.4-.2 6.3l-.1-.1h1.3l-.1.1c.2-2 .4-3.6.5-5 .1-.7.1-1.3.2-1.9 0-.3 0-.5.1-.8 0-.1 0-.3.1-.4.1-.1.2-.1.3-.1.9.2 1.3.8 1.4 1.1.6.3.6.4.6.4"/><path clip-path="url(#b)" fill="#fff" d="M73.1 105.4l.1-2.9c-.2-3.6-.5-9.5-.5-9.5-.6.3-3.5-.7-4-2.5-.4-1.7-.9-10.3 0-12.2l-.1-.2c-.6-2.2-1.4-16.5 3.3-20.8 4.9-4.5 7.1-4.9 17.1-4.1h2.3c9.9-.9 12.2-.4 17.1 4.1 4.8 4.4 2.7 19.5 2.1 21l.1.8c.4 1.7 0 10.2-.6 11.4-.6 1.2-1.5 2.8-3.6 2.5.1 1.3-1.1 9.7-1.1 9.7l-.6.9v5.9l-17.4 18.7-14.3-18.5.1-4.3z"/><path clip-path="url(#b)" stroke="#fff" stroke-width="2" stroke-miterlimit="10" d="M73.1 105.4l.1-2.9c-.2-3.6-.5-9.5-.5-9.5-.6.3-3.5-.7-4-2.5-.4-1.7-.9-10.3 0-12.2l-.1-.2c-.6-2.2-1.4-16.5 3.3-20.8 4.9-4.5 7.1-4.9 17.1-4.1h2.3c9.9-.9 12.2-.4 17.1 4.1 4.8 4.4 2.7 19.5 2.1 21l.1.8c.4 1.7 0 10.2-.6 11.4-.6 1.2-1.5 2.8-3.6 2.5.1 1.3-1.1 9.7-1.1 9.7l-.6.9v5.9l-17.4 18.7-14.3-18.5.1-4.3z" fill="none"/><path clip-path="url(#b)" fill="#fff" d="M96.6 52.9c4.9 0 7.1 1.1 10.7 4.4 4.8 4.4 2.7 19.5 2.1 21l.1.8c.4 1.7 0 10.2-.6 11.4-.5 1.1-1.4 2.6-3.1 2.6h-.5c.1 1.3-1.1 9.7-1.1 9.7l-.6.9v2.8h1.5l4.6 5.4c8.9 3.2 27.7 13.2 27.7 13.2l8 24.9h-118.4l12.5-28 30.7-14.7 1.8-1.9.1-2.9c-.2-3.6-.5-9.5-.5-9.5l-.3.1c-1 0-3.3-1-3.7-2.5-.4-1.7-.9-10.3 0-12.2l-.1-.2c-.6-2.2-1.4-16.5 3.3-20.8 3.6-3.3 5.8-4.4 10.7-4.4 1.7 0 3.8.1 6.4.4h2.3c2.6-.4 4.7-.5 6.4-.5m0-.9c-1.6 0-3.5.1-6.4.4h-2.2c-3-.3-4.9-.4-6.5-.4-5.4 0-7.7 1.4-11.3 4.7-5 4.6-4.2 19.1-3.6 21.7-.8 2.7-.3 10.8.1 12.4.5 1.8 2.6 2.9 4 3.2.1 1.8.3 5.8.5 8.6l-.1 2.5-1.4 1.5-30.6 14.7-.2.1-.1.1-12.5 27.9-1.4 1.6h122.3l-1.1-1.5-8-24.9-.1-.2-.2-.1c-.8-.4-18.6-9.9-27.5-13.2l-4.5-5.2-.3-.3h-1v-1.5l.5-.6.1-.2v-.2c.2-1.2.9-6.5 1.1-8.9 2.1-.3 3-2.2 3.5-3.1.7-1.5 1.1-10.1.7-12l-.1-.5c.7-2.6 2.6-17.1-2.4-21.7-3.5-3.6-5.9-4.9-11.3-4.9"/><path clip-path="url(#b)" stroke="#fff" stroke-width="2" stroke-miterlimit="10" d="M96.6 52.9c4.9 0 7.1 1.1 10.7 4.4 4.8 4.4 2.7 19.5 2.1 21l.1.8c.4 1.7 0 10.2-.6 11.4-.5 1.1-1.4 2.6-3.1 2.6h-.5c.1 1.3-1.1 9.7-1.1 9.7l-.6.9v2.8h1.5l4.6 5.4c8.9 3.2 27.7 13.2 27.7 13.2l8 24.9h-118.4l12.5-28 30.7-14.7 1.8-1.9.1-2.9c-.2-3.6-.5-9.5-.5-9.5l-.3.1c-1 0-3.3-1-3.7-2.5-.4-1.7-.9-10.3 0-12.2l-.1-.2c-.6-2.2-1.4-16.5 3.3-20.8 3.6-3.3 5.8-4.4 10.7-4.4 1.7 0 3.8.1 6.4.4h2.3c2.6-.4 4.7-.5 6.4-.5m0-.9c-1.6 0-3.5.1-6.4.4h-2.2c-3-.3-4.9-.4-6.5-.4-5.4 0-7.7 1.4-11.3 4.7-5 4.6-4.2 19.1-3.6 21.7-.8 2.7-.3 10.8.1 12.4.5 1.8 2.6 2.9 4 3.2.1 1.8.3 5.8.5 8.6l-.1 2.5-1.4 1.5-30.6 14.7-.2.1-.1.1-12.5 27.9-1.4 1.6h122.3l-1.1-1.5-8-24.9-.1-.2-.2-.1c-.8-.4-18.6-9.9-27.5-13.2l-4.5-5.2-.3-.3h-1v-1.5l.5-.6.1-.2v-.2c.2-1.2.9-6.5 1.1-8.9 2.1-.3 3-2.2 3.5-3.1.7-1.5 1.1-10.1.7-12l-.1-.5c.7-2.6 2.6-17.1-2.4-21.7-3.5-3.6-5.9-4.9-11.3-4.9z" fill="none"/><polygon clip-path="url(#b)" fill="#fff" points="27,149.8 39.5,122 72.2,106.3 69.7,149.8"/><polygon clip-path="url(#b)" stroke="#fff" stroke-miterlimit="10" points="27,149.8 39.5,122 72.2,106.3 69.7,149.8" fill="none"/><path clip-path="url(#b)" fill="#fff" d="M72.2 106.3l-2.5 43.5h-42.7l12.5-27.8 32.7-15.7zm.3-.3l-.4.2-32.7 15.7-12.5 27.8-.4.4h43.300000000000004v-.2l2.5-43.5.2-.4z"/><path clip-path="url(#b)" stroke="#fff" stroke-miterlimit="10" d="M72.2 106.3l-2.5 43.5h-42.7l12.5-27.8 32.7-15.7m.3-.3l-.4.2-32.7 15.7-12.5 27.8-.4.4h43.300000000000004v-.2l2.5-43.5.2-.4z" fill="none"/><path clip-path="url(#b)" fill="#fff" d="M106.6 110.8l-6.6 39.1h45.5l-8-24.9c.1-.1-24.9-13.4-30.9-14.2"/><path clip-path="url(#b)" stroke="#fff" stroke-miterlimit="10" d="M106.6 110.8l-6.6 39.1h45.5l-8-24.9c.1-.1-24.9-13.4-30.9-14.2z" fill="none"/><path clip-path="url(#b)" fill="#fff" d="M106.6 110.8c6 .8 30.9 14.1 30.9 14.1l8 24.9h-45.5l6.6-39m-.2-.3v.2l-6.6 39.1v.3h46.3l-.3-.4-8-24.9c-1-.5-25.1-13.4-31-14.1l-.4-.2z"/><path clip-path="url(#b)" stroke="#fff" stroke-miterlimit="10" d="M106.6 110.8c6 .8 30.9 14.1 30.9 14.1l8 24.9h-45.5l6.6-39m-.2-.3v.2l-6.6 39.1v.3h46.3l-.3-.4-8-24.9c-1-.5-25.1-13.4-31-14.1l-.4-.2z" fill="none"/><polygon clip-path="url(#b)" fill="#fff" points="66,149.8 70.9,116.2 71.3,113.1 72,108.5 79.3,117.8 86.1,126.5 93.9,118.5 103.7,108.5 103.7,114.1 103.7,116.8 101.6,149.8"/><polygon clip-path="url(#b)" stroke="#fff" stroke-miterlimit="10" points="66,149.8 70.9,116.2 71.3,113.1 72,108.5 79.3,117.8 86.1,126.5 93.9,118.5 103.7,108.5 103.7,114.1 103.7,116.8 101.6,149.8" fill="none"/><polygon clip-path="url(#b)" fill="#fff" points="69.7,149.8 72.2,105.2 50.9,128.1 58.3,149.8"/><polygon clip-path="url(#b)" stroke="#fff" stroke-miterlimit="10" points="69.7,149.8 72.2,105.2 50.9,128.1 58.3,149.8" fill="none"/><path clip-path="url(#b)" fill="#fff" d="M72.2 105.2l-2.5 44.7h-11.4l-7.3-21.8 21.2-22.9zm.3-.6l-.5.4-21.3 22.9-.1.1v.1l7.3 21.8.1.2h11.799999999999999v-.2l2.5-44.7.2-.6z"/><path clip-path="url(#b)" stroke="#fff" stroke-miterlimit="10" d="M72.2 105.2l-2.5 44.7h-11.4l-7.3-21.8 21.2-22.9m.3-.6l-.5.4-21.3 22.9-.1.1v.1l7.3 21.8.1.2h11.799999999999999v-.2l2.5-44.7.2-.6z" fill="none"/><polygon clip-path="url(#b)" fill="#fff" points="103.7,106.3 103.7,116.8 100,149.9 109.1,149.9 122.7,126.4 105.3,106.3"/><polygon clip-path="url(#b)" stroke="#fff" stroke-miterlimit="10" points="103.7,106.3 103.7,116.8 100,149.9 109.1,149.9 122.7,126.4 105.3,106.3" fill="none"/><path clip-path="url(#b)" fill="#fff" d="M105.3 106.3l17.4 20.1-13.5 23.4h-9.2l3.7-33.1v-10.4h1.6zm.1-.2h-1.8v10.6l-3.7 33v.3h9.5l.1-.1 13.5-23.4.1-.1-.1-.1-17.6-20.2z"/><path clip-path="url(#b)" stroke="#fff" stroke-miterlimit="10" d="M105.3 106.3l17.4 20.1-13.5 23.4h-9.2l3.7-33.1v-10.4h1.6m.1-.2h-1.8v10.6l-3.7 33v.3h9.5l.1-.1 13.5-23.4.1-.1-.1-.1-17.6-20.2z" fill="none"/><polygon clip-path="url(#b)" fill="#fff" points="103.7,116.8 103.7,114.1 90,127.5 93.7,127.5"/><polygon clip-path="url(#b)" stroke="#fff" stroke-miterlimit="10" points="103.7,116.8 103.7,114.1 90,127.5 93.7,127.5" fill="none"/><path clip-path="url(#b)" fill="#fff" d="M70.9 116.2l.5-3.1c.9 1.2 11.5 15 11.5 15h-3.9l-8.1-11.9z"/><path clip-path="url(#b)" stroke="#fff" stroke-miterlimit="10" d="M70.9 116.2l.5-3.1c.9 1.2 11.5 15 11.5 15h-3.9l-8.1-11.9z" fill="none"/><path clip-path="url(#b)" fill="#fff" d="M83.6 127.5s-9.1-4.4-11.4-4.5c-1.1 1.5-1.4 13.5 1.9 17.4 1-.2 9.5-6.8 9.5-6.8 1.5 1 4.3.6 5 0 0 0 3.9 6.6 9.3 7.9 1.4-1.4 3.7-15.5 3.5-16.8-.2-1.4-10.1 1.7-12.4 3.4 0 0-.4-2.4-5.4-.6"/><path clip-path="url(#b)" stroke="#fff" stroke-miterlimit="10" d="M83.6 127.5s-9.1-4.4-11.4-4.5c-1.1 1.5-1.4 13.5 1.9 17.4 1-.2 9.5-6.8 9.5-6.8 1.5 1 4.3.6 5 0 0 0 3.9 6.6 9.3 7.9 1.4-1.4 3.7-15.5 3.5-16.8-.2-1.4-10.1 1.7-12.4 3.4 0 0-.4-2.4-5.4-.6z" fill="none"/><path clip-path="url(#b)" fill="#fff" d="M88.6 133.6c-.8.6-3.5 1-5 0v-6.1c5-1.8 5.4.6 5.4.6l-.4 5.5z"/><path clip-path="url(#b)" stroke="#fff" stroke-miterlimit="10" d="M88.6 133.6c-.8.6-3.5 1-5 0v-6.1c5-1.8 5.4.6 5.4.6l-.4 5.5z" fill="none"/><polygon clip-path="url(#b)" fill="#fff" points="86.1,126.5 79.3,117.8 76.9,132.2"/><polygon clip-path="url(#b)" stroke="#fff" stroke-miterlimit="10" points="86.1,126.5 79.3,117.8 76.9,132.2" fill="none"/><path clip-path="url(#b)" fill="#fff" d="M86.1 126.5s-3.5 2.4-9.1 6l-.5.3.1-.6c.3-1.8.7-4.5 1.2-7.3l1.3-7.2.1-.6.4.5c4 5.4 6.5 8.9 6.5 8.9s-2.8-3.2-7-8.5c.1 0 .3-.1.5-.1-.3 1.7-.7 4.4-1.2 7.2s-1 5.5-1.3 7.3c-.2-.1-.4-.2-.4-.3 5.8-3.6 9.4-5.6 9.4-5.6"/><path clip-path="url(#b)" stroke="#fff" d="M86.1 126.5s-3.5 2.4-9.1 6l-.5.3.1-.6c.3-1.8.7-4.5 1.2-7.3l1.3-7.2.1-.6.4.5c4 5.4 6.5 8.9 6.5 8.9s-2.8-3.2-7-8.5c.1 0 .3-.1.5-.1-.3 1.7-.7 4.4-1.2 7.2s-1 5.5-1.3 7.3c-.2-.1-.4-.2-.4-.3 5.8-3.6 9.4-5.6 9.4-5.6z" fill="none"/><polygon clip-path="url(#b)" fill="#fff" points="93.9,118.5 86.1,126.5 94.8,132.2"/><polygon clip-path="url(#b)" stroke="#fff" stroke-miterlimit="10" points="93.9,118.5 86.1,126.5 94.8,132.2" fill="none"/><path clip-path="url(#b)" fill="#fff" d="M93.9 118.5s.6 5.6 1.2 13.7v.7l-.6-.4c-.7-.5-2-1.3-3.2-2.1-2.1-1.4-4.1-2.8-5.4-3.7l-.3-.2.2-.2c4.9-4.8 8.1-7.8 8.1-7.8s-2.9 3.2-7.5 8.1v-.4l5.5 3.6c1.2.8 2.5 1.7 3.2 2.2-.2.1-.4.2-.5.3-.6-8.1-.7-13.8-.7-13.8"/><path clip-path="url(#b)" stroke="#fff" d="M93.9 118.5s.6 5.6 1.2 13.7v.7l-.6-.4c-.7-.5-2-1.3-3.2-2.1-2.1-1.4-4.1-2.8-5.4-3.7l-.3-.2.2-.2c4.9-4.8 8.1-7.8 8.1-7.8s-2.9 3.2-7.5 8.1v-.4l5.5 3.6c1.2.8 2.5 1.7 3.2 2.2-.2.1-.4.2-.5.3-.6-8.1-.7-13.8-.7-13.8z" fill="none"/><path clip-path="url(#b)" fill="#fff" d="M72.1 102.5s.1 1 .3 2.7c0 .9 0 2.3-.1 3.8-.2 3.6-.7 6.5-.7 6.5s-.2-2.9 0-6.5c.1-1.5.2-2.8.3-3.8.1-1.7.2-2.7.2-2.7"/><path clip-path="url(#b)" stroke="#fff" stroke-miterlimit="10" d="M72.1 102.5s.1 1 .3 2.7c0 .9 0 2.3-.1 3.8-.2 3.6-.7 6.5-.7 6.5s-.2-2.9 0-6.5c.1-1.5.2-2.8.3-3.8.1-1.7.2-2.7.2-2.7z" fill="none"/><path clip-path="url(#b)" fill="#fff" d="M103.7 116.8s-.3-3-.3-6.6c0-3.6.3-6.6.3-6.6s.3 3 .3 6.6c.1 3.6-.3 6.6-.3 6.6"/><path clip-path="url(#b)" stroke="#fff" stroke-miterlimit="10" d="M103.7 116.8s-.3-3-.3-6.6c0-3.6.3-6.6.3-6.6s.3 3 .3 6.6c.1 3.6-.3 6.6-.3 6.6z" fill="none"/><path clip-path="url(#b)" fill="#fff" d="M106 86.6s-.2 2-.5 6.4c0 2.1-.4 5.5-1 9.8v.1c-.1.1-.4.5-.6.9-2.5 3-6.5 7.6-10.9 12.7l-.1.1h-8.1l-.1-.1c-1.2-1.4-2.4-2.8-3.5-4.1-.6-.7-1.1-1.3-1.7-1.9l-.8-.9c-.3-.3-.5-.6-.8-.8-2.2-2.2-4.4-4.1-6-6v-.1c-.2-5-.4-9-.5-11.7v-3.1c0-.4.1-.6.1-.8v0c0 .2-.1.4-.1.8-.1.7 0 1.8.1 3.1.2 2.7.5 6.7.8 11.7v-.1c1.6 1.7 3.7 3.6 6 5.8l.9.9.8.9c.5.6 1.1 1.3 1.7 1.9 1.1 1.3 2.3 2.7 3.5 4.1l-.3-.1h7.7l-.3.1c4.4-5 8.5-9.6 11.1-12.5.3-.4.5-.7.6-.9v.1c.6-4.2 1.2-7.7 1.2-9.7.6-4.6.8-6.6.8-6.6"/><path clip-path="url(#b)" stroke="#fff" stroke-miterlimit="10" d="M106 86.6s-.2 2-.5 6.4c0 2.1-.4 5.5-1 9.8v.1c-.1.1-.4.5-.6.9-2.5 3-6.5 7.6-10.9 12.7l-.1.1h-8.1l-.1-.1c-1.2-1.4-2.4-2.8-3.5-4.1-.6-.7-1.1-1.3-1.7-1.9l-.8-.9c-.3-.3-.5-.6-.8-.8-2.2-2.2-4.4-4.1-6-6v-.1c-.2-5-.4-9-.5-11.7v-3.1c0-.4.1-.6.1-.8v0c0 .2-.1.4-.1.8-.1.7 0 1.8.1 3.1.2 2.7.5 6.7.8 11.7v-.1c1.6 1.7 3.7 3.6 6 5.8l.9.9.8.9c.5.6 1.1 1.3 1.7 1.9 1.1 1.3 2.3 2.7 3.5 4.1l-.3-.1h7.7l-.3.1c4.4-5 8.5-9.6 11.1-12.5.3-.4.5-.7.6-.9v.1c.6-4.2 1.2-7.7 1.2-9.7.6-4.6.8-6.6.8-6.6z" fill="none"/><path clip-path="url(#b)" fill="#fff" d="M86.9 94s-.2-3.7-.3-9.3c0 0 .1.1.1.2-.6-.5-1.6-1.2-2.6-1.9-1.4-1-2.7-2-3.9-2.9-.6-.4-1.2-.8-1.7-1.2l-.8-.5-.2-.1h-.2s-.2.1-.3.2c-.8.7-1.4 1.5-1.8 2-.4.5-.6.8-.6.8s.2-.3.5-.8c.4-.5.8-1.3 1.7-2.1.1-.1.2-.2.4-.3h.30000000000000004c.1 0 .1 0 .2.1l.9.4c.6.3 1.2.7 1.8 1.1 1.3.8 2.6 1.8 4 2.8 1 .8 2 1.5 2.5 2l.1.1v.1c.1 5.5-.1 9.3-.1 9.3"/><path clip-path="url(#b)" stroke="#fff" stroke-miterlimit="10" d="M86.9 94s-.2-3.7-.3-9.3c0 0 .1.1.1.2-.6-.5-1.6-1.2-2.6-1.9-1.4-1-2.7-2-3.9-2.9-.6-.4-1.2-.8-1.7-1.2l-.8-.5-.2-.1h-.2s-.2.1-.3.2c-.8.7-1.4 1.5-1.8 2-.4.5-.6.8-.6.8s.2-.3.5-.8c.4-.5.8-1.3 1.7-2.1.1-.1.2-.2.4-.3h.30000000000000004c.1 0 .1 0 .2.1l.9.4c.6.3 1.2.7 1.8 1.1 1.3.8 2.6 1.8 4 2.8 1 .8 2 1.5 2.5 2l.1.1v.1c.1 5.5-.1 9.3-.1 9.3z" fill="none"/><path clip-path="url(#b)" fill="#fff" d="M92.5 106.3c1.6-1.5 1.6-5.4 1.6-6.6h-9.8c-.2 1.6 0 4.4 1.5 6.6h6.7z"/><path clip-path="url(#b)" stroke="#fff" stroke-miterlimit="10" d="M92.5 106.3c1.6-1.5 1.6-5.4 1.6-6.6h-9.8c-.2 1.6 0 4.4 1.5 6.6h6.7z" fill="none"/><path clip-path="url(#b)" fill="#fff" d="M86.9 96.7s.1 0 .3.1c.1 0 .2.1.4.2s.4.1.6.1c.4.1 1 0 1.6-.1.6-.2 1.3-.7 1.5-1.4v.1c-.1-2.6-.2-6.2-.2-10.2v-1l.2-.1c4.1-2.4 7.7-4.4 9.6-5.4l.1-.1.1.1c1.5 2 2.2 3 2.2 3s-.8-.9-2.4-2.8h.2c-1.8 1.1-5.2 3.3-9.4 5.8 0-.1.1-.2.2-.3v.8c0 4-.1 7.6-.2 10.2-.4.9-1.2 1.3-1.8 1.5-.7.1-1.3.1-1.7 0l-.6-.2c-.2-.1-.3-.2-.4-.2-.2-.1-.3-.1-.3-.1"/><path clip-path="url(#b)" stroke="#fff" stroke-miterlimit="10" d="M86.9 96.7s.1 0 .3.1c.1 0 .2.1.4.2s.4.1.6.1c.4.1 1 0 1.6-.1.6-.2 1.3-.7 1.5-1.4v.1c-.1-2.6-.2-6.2-.2-10.2v-1l.2-.1c4.1-2.4 7.7-4.4 9.6-5.4l.1-.1.1.1c1.5 2 2.2 3 2.2 3s-.8-.9-2.4-2.8h.2c-1.8 1.1-5.2 3.3-9.4 5.8 0-.1.1-.2.2-.3v.8c0 4-.1 7.6-.2 10.2-.4.9-1.2 1.3-1.8 1.5-.7.1-1.3.1-1.7 0l-.6-.2c-.2-.1-.3-.2-.4-.2-.2-.1-.3-.1-.3-.1z" fill="none"/><path clip-path="url(#b)" fill="#fff" d="M86 96.3l-.1.1c-.1.1-.2.2-.4.3-.2.1-.4.2-.8.2s-.7-.4-.8-.7c-.2-.7 0-1.3.2-1.6l.3-.6s-.1 1.1.1 2c.1.2.1.3.3.4.1.1.4.1.5.1.2 0 .3 0 .4-.1l.3-.1"/><path clip-path="url(#b)" stroke="#fff" stroke-miterlimit="10" d="M86 96.3l-.1.1c-.1.1-.2.2-.4.3-.2.1-.4.2-.8.2s-.7-.4-.8-.7c-.2-.7 0-1.3.2-1.6l.3-.6s-.1 1.1.1 2c.1.2.1.3.3.4.1.1.4.1.5.1.2 0 .3 0 .4-.1l.3-.1z" fill="none"/><path clip-path="url(#b)" fill="#fff" d="M85.7 106.3l-5.8-6.6h4.3c-.2 1.7 0 4.5 1.5 6.6"/><path clip-path="url(#b)" stroke="#fff" stroke-miterlimit="10" d="M85.7 106.3l-5.8-6.6h4.3c-.2 1.7 0 4.5 1.5 6.6z" fill="none"/><path clip-path="url(#b)" fill="#fff" d="M94 99.8h3.7l-5.3 6.6c1.7-1.6 1.6-5.5 1.6-6.6"/><path clip-path="url(#b)" stroke="#fff" stroke-miterlimit="10" d="M94 99.8h3.7l-5.3 6.6c1.7-1.6 1.6-5.5 1.6-6.6z" fill="none"/><path clip-path="url(#b)" fill="#fff" d="M91.5 95.7s.1 0 .2.1.3.2.5.2c.2.1.5.1.6.1.1 0 .2-.3.1-.6 0-.6-.2-1.3-.4-1.7-.1-.2-.2-.4-.2-.5-.1-.1-.1-.2-.1-.2s.1 0 .2.1.3.2.4.4c.3.4.7 1 .8 1.9 0 .2 0 .4-.1.7-.1.2-.3.5-.5.5-.1.1-.2 0-.3 0-.1 0-.2 0-.3-.1-.2-.1-.3-.1-.4-.2l-.4-.4c0-.2-.1-.3-.1-.3"/><path clip-path="url(#b)" stroke="#fff" stroke-miterlimit="10" d="M91.5 95.7s.1 0 .2.1.3.2.5.2c.2.1.5.1.6.1.1 0 .2-.3.1-.6 0-.6-.2-1.3-.4-1.7-.1-.2-.2-.4-.2-.5-.1-.1-.1-.2-.1-.2s.1 0 .2.1.3.2.4.4c.3.4.7 1 .8 1.9 0 .2 0 .4-.1.7-.1.2-.3.5-.5.5-.1.1-.2 0-.3 0-.1 0-.2 0-.3-.1-.2-.1-.3-.1-.4-.2l-.4-.4c0-.2-.1-.3-.1-.3z" fill="none"/><path clip-path="url(#b)" fill="#fff" d="M79.9 99.8s2.1 2.2 6 6.4c0 0-.1 0-.2-.1 1.4 0 4-.1 6.7-.1 0 0-.1.1-.2.1.8-1 2-2.6 3.3-4.2.7-.9 1.5-1.8 1.9-2.4.1.3.2.4.3.6-10.3-.1-17.8-.3-17.8-.3s7.5-.3 17.8-.3h.7l-.4.5c-.4.5-1.2 1.5-1.9 2.4-1.3 1.6-2.6 3.2-3.4 4.2l-.1.1h-.1c-2.8 0-5.3-.1-6.7-.1h-.1l-.1-.1c-3.7-4.4-5.7-6.7-5.7-6.7"/><path clip-path="url(#b)" stroke="#fff" stroke-miterlimit="10" d="M79.9 99.8s2.1 2.2 6 6.4c0 0-.1 0-.2-.1 1.4 0 4-.1 6.7-.1 0 0-.1.1-.2.1.8-1 2-2.6 3.3-4.2.7-.9 1.5-1.8 1.9-2.4.1.3.2.4.3.6-10.3-.1-17.8-.3-17.8-.3s7.5-.3 17.8-.3h.7l-.4.5c-.4.5-1.2 1.5-1.9 2.4-1.3 1.6-2.6 3.2-3.4 4.2l-.1.1h-.1c-2.8 0-5.3-.1-6.7-.1h-.1l-.1-.1c-3.7-4.4-5.7-6.7-5.7-6.7z" fill="none"/><path clip-path="url(#b)" fill="#fff" d="M99.7 101.4s0-.3-.1-.6c-.1-.4-.2-.9-.3-1.5-.1-.6-.2-1.1-.3-1.4-.1-.4-.2-.6-.2-.6s.2.1.5.4c.3.3.5.9.7 1.5.1.6.1 1.2 0 1.6-.2.4-.4.6-.3.6"/><path clip-path="url(#b)" stroke="#fff" stroke-miterlimit="10" d="M99.7 101.4s0-.3-.1-.6c-.1-.4-.2-.9-.3-1.5-.1-.6-.2-1.1-.3-1.4-.1-.4-.2-.6-.2-.6s.2.1.5.4c.3.3.5.9.7 1.5.1.6.1 1.2 0 1.6-.2.4-.4.6-.3.6z" fill="none"/><path clip-path="url(#b)" fill="#fff" d="M77.8 103.1s-.2-.2-.6-.7c-.1-.2-.3-.6-.4-.9-.1-.4-.2-.8-.2-1.3 0-.9.3-1.7.6-2.2.2-.3.3-.4.4-.5l.2-.2s0 .1-.1.2-.1.4-.2.6c-.1.5-.3 1.2-.2 2 0 .4 0 .8.1 1.1l.2.9c.1.6.2 1 .2 1"/><path clip-path="url(#b)" stroke="#fff" stroke-miterlimit="10" d="M77.8 103.1s-.2-.2-.6-.7c-.1-.2-.3-.6-.4-.9-.1-.4-.2-.8-.2-1.3 0-.9.3-1.7.6-2.2.2-.3.3-.4.4-.5l.2-.2s0 .1-.1.2-.1.4-.2.6c-.1.5-.3 1.2-.2 2 0 .4 0 .8.1 1.1l.2.9c.1.6.2 1 .2 1z" fill="none"/><path clip-path="url(#b)" fill="#fff" d="M101.1 87.6v-.4c0-.1 0-.3-.1-.5-.1-.1-.3-.3-.5-.4-.4-.3-.8-.7-1.4-1.1-.1-.1-.5-.1-.9-.1h-3.4c-.6.2-1.1.7-1.4.9v-.1c-.1 1-.2 1.5-.2 1.5s.1-.4 0-1.4v-.1l.1-.1c.3-.4.7-.8 1.4-1.2.1-.1.2-.1.3-.1h.8999999999999999c.4 0 .8 0 1.2-.1h1.7999999999999998c.1 0 .5 0 .6.2.5.4 1 .9 1.3 1.3l.5.6v.5c-.2.4-.2.6-.2.6"/><path clip-path="url(#b)" stroke="#fff" stroke-miterlimit="10" d="M101.1 87.6v-.4c0-.1 0-.3-.1-.5-.1-.1-.3-.3-.5-.4-.4-.3-.8-.7-1.4-1.1-.1-.1-.5-.1-.9-.1h-3.4c-.6.2-1.1.7-1.4.9v-.1c-.1 1-.2 1.5-.2 1.5s.1-.4 0-1.4v-.1l.1-.1c.3-.4.7-.8 1.4-1.2.1-.1.2-.1.3-.1h.8999999999999999c.4 0 .8 0 1.2-.1h1.7999999999999998c.1 0 .5 0 .6.2.5.4 1 .9 1.3 1.3l.5.6v.5c-.2.4-.2.6-.2.6z" fill="none"/><path clip-path="url(#b)" fill="#fff" d="M99.2 84.9v.5c0 .3 0 .8-.2 1.3l-.2.4c-.1.1-.2.2-.3.4-.3.2-.7.4-1 .4h-.6l-.6-.1c-.4-.1-.8-.5-1-.9-.4-.7-.3-1.5-.3-1.9v-.3h.3c2.2-.2 3.9.1 3.9.2 0-.1-1.6.1-4.1.3l.3-.3c0 .4 0 1 .3 1.6.3.6 1 .8 1.6.8.4 0 .6-.1.8-.2l.3-.3c.1-.1.2-.2.2-.3.3-.4.4-.9.4-1.1.2-.4.2-.5.2-.5"/><path clip-path="url(#b)" stroke="#fff" stroke-miterlimit="10" d="M99.2 84.9v.5c0 .3 0 .8-.2 1.3l-.2.4c-.1.1-.2.2-.3.4-.3.2-.7.4-1 .4h-.6l-.6-.1c-.4-.1-.8-.5-1-.9-.4-.7-.3-1.5-.3-1.9v-.3h.3c2.2-.2 3.9.1 3.9.2 0-.1-1.6.1-4.1.3l.3-.3c0 .4 0 1 .3 1.6.3.6 1 .8 1.6.8.4 0 .6-.1.8-.2l.3-.3c.1-.1.2-.2.2-.3.3-.4.4-.9.4-1.1.2-.4.2-.5.2-.5z" fill="none"/><path clip-path="url(#b)" fill="#fff" d="M77.2 87.6s0-.1-.1-.4v-.5c.1-.2.3-.4.5-.6.3-.4.8-.9 1.3-1.3.1-.1.5-.2.6-.2h1.7999999999999998c.4 0 .8 0 1.2.1h.8999999999999999l.4.1c.7.4 1.1.9 1.4 1.2l.1.1v.1c-.1 1-.2 1.5-.2 1.5s-.3-.7-.4-1.7v.1c-.4-.3-.9-.7-1.4-.9h-3.4c-.4 0-.7 0-.9.1-.6.4-1 .7-1.4 1.1-.2.1-.4.3-.5.4-.1.2-.1.4-.1.5.2.1.2.3.2.3"/><path clip-path="url(#b)" stroke="#fff" stroke-miterlimit="10" d="M77.2 87.6s0-.1-.1-.4v-.5c.1-.2.3-.4.5-.6.3-.4.8-.9 1.3-1.3.1-.1.5-.2.6-.2h1.7999999999999998c.4 0 .8 0 1.2.1h.8999999999999999l.4.1c.7.4 1.1.9 1.4 1.2l.1.1v.1c-.1 1-.2 1.5-.2 1.5s-.3-.7-.4-1.7v.1c-.4-.3-.9-.7-1.4-.9h-3.4c-.4 0-.7 0-.9.1-.6.4-1 .7-1.4 1.1-.2.1-.4.3-.5.4-.1.2-.1.4-.1.5.2.1.2.3.2.3z" fill="none"/><path clip-path="url(#b)" fill="#fff" d="M107.3 57.3l.2.2c.1.2.4.4.6.8.5.7 1.1 1.9 1.6 3.7.4 1.7.7 4 .8 6.8 0 1.4 0 2.9-.2 4.5-.1.8-.2 1.6-.3 2.5-.1.9-.2 1.7-.5 2.7l-.2.5-.1-.6c-.1-.4-.4-1-.9-1.3-.1-.1-.3-.2-.5-.2s-.3 0-.3.1l-.1 1.3c-.2 1.9-.4 4.1-.6 6.5v.2h-1.7v-.2c0-1 0-3.6.1-6.3v.1c-.3-.6-1-2.2-1.8-3.7l-.1-.1.1-.1s.1-.1.1-.3c.5-1.6 1-3.4 1.6-5.3.7-1.9 0-4.2-1.7-5.6-.8-.8-1.9-1.4-3-1.7-.6-.2-1.2-.3-1.8-.4-.6-.1-1.2-.1-1.8 0-1.2.1-2.5.6-3.7 1-1.3.4-2.6.9-4.1.8h-.8c-1.3-.1-2.5-.5-3.6-.9s-2.3-.7-3.4-.9h-.8c-.2 0-.6 0-.8.1-.6.1-1.1.2-1.6.4-1.1.3-2.1.9-2.9 1.6-.8.7-1.6 1.5-1.9 2.5-.4 1-.5 2-.2 2.9.6 2 1.2 3.9 1.8 5.8v.1l-.1.1c-.7 1.4-1.2 2.5-1.8 3.6v-.1c.1 2.6.1 4.7.2 6.7v.3h-2.3v-.3c.2-1.6 0-3.1 0-4.4-.1-1.3-.2-2.5-.3-3.7l.2.2c-.8-.2-1.5-.1-1.9.3-.5.3-.8.8-1 1.3l-.2.4-.1-.4c-.3-.9-.3-1.7-.4-2.5-.1-.8-.1-1.6-.1-2.4 0-1.5 0-3 .1-4.3.2-2.7.5-5 1.1-6.8.5-1.8 1.2-3.2 1.7-4 .3-.4.5-.7.7-.9l.3-.3-.3.3c-.2.2-.4.5-.7.9-.6.8-1.2 2.2-1.7 4-.5 1.8-.8 4.1-.9 6.8-.1 1.3-.1 2.8 0 4.3l.1 2.3c.1.8.1 1.7.4 2.4h-.3c.2-.5.6-1 1.2-1.4.6-.4 1.4-.6 2.2-.4h.1v.2c.1 1.1.2 2.4.3 3.7.1 1.3.2 2.8.1 4.5l-.2-.3h1.7l-.2.3c-.1-2-.2-4.1-.3-6.7v-.6c.5-1.1 1.1-2.2 1.7-3.6v.2c-.6-1.8-1.2-3.7-1.8-5.8-.3-1.1-.2-2.3.2-3.4s1.2-2 2.1-2.8c.9-.7 2-1.3 3.1-1.7.6-.2 1.2-.3 1.8-.4l.9-.1h.9c2.5.2 4.7 1.5 7 1.8h.8c1.3.1 2.5-.3 3.8-.7 1.3-.4 2.5-.9 3.9-1 .7-.1 1.4-.1 2 0 .6.1 1.3.3 1.9.5 1.2.4 2.3 1.1 3.2 1.9 1.9 1.6 2.7 4.3 1.9 6.3-.6 2-1.2 3.7-1.7 5.3l-.1.3v-.2c.7 1.6 1.5 3.1 1.8 3.8v.2c-.1 2.7-.1 5.2-.1 6.3l-.2-.2h1.3l-.2.2c.2-2.4.5-4.6.7-6.5 0-.5.1-.9.1-1.3 0-.2.2-.3.3-.4h.4c.2 0 .4.1.6.2.7.4 1 1.1 1.1 1.6h-.3c.3-.8.4-1.8.5-2.6.1-.9.2-1.7.3-2.5.1-1.6.2-3.1.2-4.5 0-2.7-.2-5-.7-6.7-.4-1.7-1-2.9-1.5-3.7-.2-.4-.5-.6-.6-.8-.3-.2-.4-.3-.4-.3"/><path clip-path="url(#b)" stroke="#fff" stroke-miterlimit="10" d="M107.3 57.3l.2.2c.1.2.4.4.6.8.5.7 1.1 1.9 1.6 3.7.4 1.7.7 4 .8 6.8 0 1.4 0 2.9-.2 4.5-.1.8-.2 1.6-.3 2.5-.1.9-.2 1.7-.5 2.7l-.2.5-.1-.6c-.1-.4-.4-1-.9-1.3-.1-.1-.3-.2-.5-.2s-.3 0-.3.1l-.1 1.3c-.2 1.9-.4 4.1-.6 6.5v.2h-1.7v-.2c0-1 0-3.6.1-6.3v.1c-.3-.6-1-2.2-1.8-3.7l-.1-.1.1-.1s.1-.1.1-.3c.5-1.6 1-3.4 1.6-5.3.7-1.9 0-4.2-1.7-5.6-.8-.8-1.9-1.4-3-1.7-.6-.2-1.2-.3-1.8-.4-.6-.1-1.2-.1-1.8 0-1.2.1-2.5.6-3.7 1-1.3.4-2.6.9-4.1.8h-.8c-1.3-.1-2.5-.5-3.6-.9s-2.3-.7-3.4-.9h-.8c-.2 0-.6 0-.8.1-.6.1-1.1.2-1.6.4-1.1.3-2.1.9-2.9 1.6-.8.7-1.6 1.5-1.9 2.5-.4 1-.5 2-.2 2.9.6 2 1.2 3.9 1.8 5.8v.1l-.1.1c-.7 1.4-1.2 2.5-1.8 3.6v-.1c.1 2.6.1 4.7.2 6.7v.3h-2.3v-.3c.2-1.6 0-3.1 0-4.4-.1-1.3-.2-2.5-.3-3.7l.2.2c-.8-.2-1.5-.1-1.9.3-.5.3-.8.8-1 1.3l-.2.4-.1-.4c-.3-.9-.3-1.7-.4-2.5-.1-.8-.1-1.6-.1-2.4 0-1.5 0-3 .1-4.3.2-2.7.5-5 1.1-6.8.5-1.8 1.2-3.2 1.7-4 .3-.4.5-.7.7-.9l.3-.3-.3.3c-.2.2-.4.5-.7.9-.6.8-1.2 2.2-1.7 4-.5 1.8-.8 4.1-.9 6.8-.1 1.3-.1 2.8 0 4.3l.1 2.3c.1.8.1 1.7.4 2.4h-.3c.2-.5.6-1 1.2-1.4.6-.4 1.4-.6 2.2-.4h.1v.2c.1 1.1.2 2.4.3 3.7.1 1.3.2 2.8.1 4.5l-.2-.3h1.7l-.2.3c-.1-2-.2-4.1-.3-6.7v-.6c.5-1.1 1.1-2.2 1.7-3.6v.2c-.6-1.8-1.2-3.7-1.8-5.8-.3-1.1-.2-2.3.2-3.4s1.2-2 2.1-2.8c.9-.7 2-1.3 3.1-1.7.6-.2 1.2-.3 1.8-.4l.9-.1h.9c2.5.2 4.7 1.5 7 1.8h.8c1.3.1 2.5-.3 3.8-.7 1.3-.4 2.5-.9 3.9-1 .7-.1 1.4-.1 2 0 .6.1 1.3.3 1.9.5 1.2.4 2.3 1.1 3.2 1.9 1.9 1.6 2.7 4.3 1.9 6.3-.6 2-1.2 3.7-1.7 5.3l-.1.3v-.2c.7 1.6 1.5 3.1 1.8 3.8v.2c-.1 2.7-.1 5.2-.1 6.3l-.2-.2h1.3l-.2.2c.2-2.4.5-4.6.7-6.5 0-.5.1-.9.1-1.3 0-.2.2-.3.3-.4h.4c.2 0 .4.1.6.2.7.4 1 1.1 1.1 1.6h-.3c.3-.8.4-1.8.5-2.6.1-.9.2-1.7.3-2.5.1-1.6.2-3.1.2-4.5 0-2.7-.2-5-.7-6.7-.4-1.7-1-2.9-1.5-3.7-.2-.4-.5-.6-.6-.8-.3-.2-.4-.3-.4-.3z" fill="none"/><path clip-path="url(#b)" fill="#fff" d="M105.4 93h.7c.4-.1 1-.2 1.5-.8.1-.1.2-.3.4-.4l.3-.5c.2-.4.5-.8.5-1.3.2-.9.3-2 .4-3.2.2-2.3.3-4.4.3-5.9v-2.5s.1.2.1.6c.1.4.2 1 .3 1.8.1 1.5.2 3.7 0 6-.1 1.2-.2 2.3-.5 3.3-.1.6-.4.9-.7 1.3-.1.2-.3.4-.4.5-.2.2-.3.3-.5.4-.6.5-1.3.6-1.7.6-.4.1-.7.1-.7.1"/><path clip-path="url(#b)" stroke="#fff" stroke-miterlimit="10" d="M105.4 93h.7c.4-.1 1-.2 1.5-.8.1-.1.2-.3.4-.4l.3-.5c.2-.4.5-.8.5-1.3.2-.9.3-2 .4-3.2.2-2.3.3-4.4.3-5.9v-2.5s.1.2.1.6c.1.4.2 1 .3 1.8.1 1.5.2 3.7 0 6-.1 1.2-.2 2.3-.5 3.3-.1.6-.4.9-.7 1.3-.1.2-.3.4-.4.5-.2.2-.3.3-.5.4-.6.5-1.3.6-1.7.6-.4.1-.7.1-.7.1z" fill="none"/><path clip-path="url(#b)" fill="#fff" d="M67.6 78.3v.2c0 .1-.1.3-.1.5-.1.4-.1 1.1-.1 1.8 0 1.6.1 3.7.2 6.1.1 1.2.1 2.3.3 3.3.1.9.8 1.6 1.4 2 1.3.9 2.3.9 2.3.8 0 .1-1 .3-2.5-.5-.4-.2-.7-.4-1.1-.8-.3-.3-.7-.9-.8-1.4-.2-1.1-.3-2.2-.4-3.4-.1-2.4 0-4.6.1-6.1.1-.8.2-1.4.4-1.8.1-.2.1-.4.2-.5.1-.1.1-.2.1-.2"/><path clip-path="url(#b)" stroke="#fff" stroke-miterlimit="10" d="M67.6 78.3v.2c0 .1-.1.3-.1.5-.1.4-.1 1.1-.1 1.8 0 1.6.1 3.7.2 6.1.1 1.2.1 2.3.3 3.3.1.9.8 1.6 1.4 2 1.3.9 2.3.9 2.3.8 0 .1-1 .3-2.5-.5-.4-.2-.7-.4-1.1-.8-.3-.3-.7-.9-.8-1.4-.2-1.1-.3-2.2-.4-3.4-.1-2.4 0-4.6.1-6.1.1-.8.2-1.4.4-1.8.1-.2.1-.4.2-.5.1-.1.1-.2.1-.2z" fill="none"/><path clip-path="url(#b)" fill="#fff" d="M103.7 108.5s-2 2.5-4.7 5.3-5.2 4.8-5.2 4.8 2-2.5 4.7-5.3c2.8-2.8 5.2-4.8 5.2-4.8"/><path clip-path="url(#b)" stroke="#fff" stroke-miterlimit="10" d="M103.7 108.5s-2 2.5-4.7 5.3-5.2 4.8-5.2 4.8 2-2.5 4.7-5.3c2.8-2.8 5.2-4.8 5.2-4.8z" fill="none"/><path clip-path="url(#b)" fill="#fff" d="M79.3 117.8s-1.9-1.9-3.9-4.4c-2-2.6-3.4-4.9-3.4-4.9s1.9 1.9 3.9 4.4c2.1 2.6 3.4 4.9 3.4 4.9"/><path clip-path="url(#b)" stroke="#fff" stroke-miterlimit="10" d="M79.3 117.8s-1.9-1.9-3.9-4.4c-2-2.6-3.4-4.9-3.4-4.9s1.9 1.9 3.9 4.4c2.1 2.6 3.4 4.9 3.4 4.9z" fill="none"/><rect x="88.7" y="128.1" transform="matrix(.997 .073 -.073 .997 9.743 -6.109)" clip-path="url(#b)" fill="#fff" width=".2" height="5.5"/><rect x="88.7" y="128.1" transform="matrix(.997 .073 -.073 .997 9.743 -6.109)" clip-path="url(#b)" stroke="#fff" stroke-miterlimit="10" width=".2" height="5.5" fill="none"/><rect x="83.5" y="127.5" clip-path="url(#b)" fill="#fff" width=".2" height="6.1"/><rect x="83.5" y="127.5" clip-path="url(#b)" stroke="#fff" stroke-miterlimit="10" width=".2" height="6.1" fill="none"/><path clip-path="url(#b)" fill="#fff" d="M86.9 84.7s-.8-.4-2-1.1c-1.2-.7-2.9-1.8-4.7-3-.9-.6-1.7-1.3-2.4-1.7l-.2-.1-.2-.1h0c-.1 0-.1.1-.2.2-.3.2-.6.5-.8.8-1 1-1.7 1.6-1.7 1.6s.4-.8 1.1-2.1c.2-.3.4-.6.7-1l.3-.3s.1-.1.2-.1l.1-.1c.1 0 .2-.1.2-.1h.5c.1 0 .3.1.4.2 1 .4 1.8 1 2.8 1.6 1.8 1.3 3.3 2.6 4.3 3.6s1.6 1.7 1.6 1.7"/><path clip-path="url(#b)" stroke="#fff" stroke-miterlimit="10" d="M86.9 84.7s-.8-.4-2-1.1c-1.2-.7-2.9-1.8-4.7-3-.9-.6-1.7-1.3-2.4-1.7l-.2-.1-.2-.1h0c-.1 0-.1.1-.2.2-.3.2-.6.5-.8.8-1 1-1.7 1.6-1.7 1.6s.4-.8 1.1-2.1c.2-.3.4-.6.7-1l.3-.3s.1-.1.2-.1l.1-.1c.1 0 .2-.1.2-.1h.5c.1 0 .3.1.4.2 1 .4 1.8 1 2.8 1.6 1.8 1.3 3.3 2.6 4.3 3.6s1.6 1.7 1.6 1.7z" fill="none"/><path clip-path="url(#b)" fill="#fff" d="M91.5 84.7s2.5-2.3 6-4.3c1.2-.7 2.4-1.3 3.2-1.7l.4-.2.2.3c1.3 1.9 1.9 3.2 1.9 3.2s-1.1-.9-2.7-2.6l.6.1c-.7.6-1.8 1.3-3 2-3.4 2.1-6.6 3.2-6.6 3.2"/><path clip-path="url(#b)" stroke="#fff" stroke-miterlimit="10" d="M91.5 84.7s2.5-2.3 6-4.3c1.2-.7 2.4-1.3 3.2-1.7l.4-.2.2.3c1.3 1.9 1.9 3.2 1.9 3.2s-1.1-.9-2.7-2.6l.6.1c-.7.6-1.8 1.3-3 2-3.4 2.1-6.6 3.2-6.6 3.2z" fill="none"/><path clip-path="url(#b)" fill="#fff" d="M73.7 104.8l.1-2.8c-.2-3.5-.5-9.2-.5-9.2-.6.3-3.4-.7-3.9-2.4-.4-1.7-.8-10 0-11.8l-.1-.2c-.6-2.1-1.3-16 3.2-20.2 4.7-4.4 6.9-4.8 16.6-3.9h2.2c9.6-.8 11.8-.4 16.6 3.9 4.7 4.3 2.6 18.9 2 20.4l.1.8c.4 1.7 0 9.9-.6 11.1-.6 1.1-1.5 2.8-3.5 2.5.1 1.3-1.1 9.4-1.1 9.4l-.6.8v5.7l-16.9 18.1-13.9-18 .3-4.2z"/><path clip-path="url(#b)" fill="#231F20" d="M110.1 78.5c.6-1.5 2.7-16.1-2-20.4-4.7-4.4-6.9-4.8-16.6-3.9h-2.2c-9.7-.8-11.8-.4-16.6 3.9-4.6 4.2-3.8 18.1-3.2 20.2l.1.2c.4-.8 1.3-2 3.1-1.6 0 .8.6 5.8.4 7.9h1.6s-.1-3.7-.2-6.5l1.7-3.5s-1.3-4-1.8-5.7c-.5-1.7.5-3.5.5-3.5s1.8-3.6 7-4c3.1-.1 5.9 2 8.5 1.8h.1c2.6.2 5.4-1.8 8.5-1.8 5.2.4 7 4 7 4s1 1.8.5 3.5-1.8 5.7-1.8 5.7l-.1.3 1.7 3.6-.1 6.1h1.2s.7-6.9.7-7.6c0-.7 1.8 0 2 1.3"/><path clip-path="url(#b)" d="M96.5 53.9c4.8 0 6.9 1.1 10.4 4.3 4.7 4.3 2.6 18.9 2 20.4l.1.8c.4 1.7 0 9.9-.6 11.1-.5 1-1.3 2.5-3 2.5h-.4c.1 1.3-1.1 9.4-1.1 9.4l-.6.8v2.7h1.5l4.5 5.2c8.6 3.1 26.9 12.8 26.9 12.8l17.7 24.2h-137.79999999999998l25-27 29.9-14.3 1.7-1.8.1-2.8c-.2-3.5-.5-9.2-.5-9.2h-.3c-.9 0-3.2-.9-3.6-2.4-.4-1.7-.8-10 0-11.8l-.1-.2c-.6-2.1-1.3-16 3.2-20.2 3.5-3.2 5.6-4.3 10.4-4.3 1.7 0 3.7.1 6.2.4h2.2c2.6-.5 4.6-.6 6.2-.6m0-.9c-1.5 0-3.4.1-6.3.4h-2.2c-2.8-.2-4.7-.4-6.3-.4-5.2 0-7.5 1.3-11 4.5-4.8 4.4-4.1 18.5-3.5 21.1-.8 2.6-.3 10.5.1 12.1.4 1.8 2.5 2.8 3.9 3.1.1 1.7.3 5.7.4 8.3l-.1 2.5-1.4 1.5-29.7 14.2-.2.1-.1.1-25 27-1.4 1.5h141.8l-1-1.4-17.5-24.3-.1-.2-.2-.1c-.7-.4-18.1-9.7-26.8-12.8l-4.4-5-.3-.3h-1v-1.5l.4-.6.1-.2v-.2c.2-1.2.9-6.3 1-8.7 2-.2 3-2.1 3.4-3 .7-1.4 1.1-9.8.6-11.6l-.1-.5c.7-2.5 2.5-16.6-2.4-21.1-3.2-3.2-5.5-4.5-10.7-4.5"/><polygon clip-path="url(#b)" fill="#231F20" points="16.1,148 41.1,121 72.8,105.8 70.4,148"/><path clip-path="url(#b)" fill="#fff" d="M72.8 105.8l-2.4 42.2h-54.3l25-27 31.7-15.2zm.3-.4l-.3.2-31.8 15.2-25 27-.3.4h55v-.2l2.4-42.3v-.3z"/><path clip-path="url(#b)" fill="#231F20" d="M106.2 110.1l-6.3 37.9h54.1l-17.7-24.2s-24.2-13-30.1-13.7"/><path clip-path="url(#b)" fill="#fff" d="M106.2 110.1c5.8.8 30 13.7 30 13.7l17.7 24.2h-54l6.3-37.9m-.1-.3v.2l-6.5 38v.3h54.8l-.3-.4-17.7-24.2c-1-.5-24.3-13-30.1-13.7l-.2-.2z"/><polygon clip-path="url(#b)" fill="#fff" points="66.8,148 71.5,115.4 72,112.3 72.6,107.8 79.7,116.9 86.3,125.3 93.9,117.6 103.4,107.8 103.4,113.3 103.4,115.9 101.4,148"/><polygon clip-path="url(#b)" fill="#231F20" points="70.4,148 72.8,104.6 52.1,126.9 59.3,148"/><path clip-path="url(#b)" fill="#fff" d="M72.8 104.6l-2.4 43.4h-11.1l-7.1-21.1 20.6-22.3zm.3-.6l-.4.5-20.7 22.2-.1.1v.1l7.1 21.1.1.2h11.499999999999998v-.2l2.4-43.4.1-.6z"/><polygon clip-path="url(#b)" fill="#231F20" points="103.4,105.8 103.4,115.9 99.9,148 108.7,148 121.8,125.3 104.9,105.8"/><path clip-path="url(#b)" fill="#fff" d="M104.9 105.8l16.9 19.5-13.1 22.7h-8.8l3.6-32.1v-10.1h1.4zm.1-.3h-1.8v10.299999999999999l-3.6 32.2v.3h9.200000000000001l.1-.1 13.2-22.7.1-.1-.1-.1-17.1-19.8z"/><polygon clip-path="url(#b)" fill="#231F20" points="103.4,115.9 103.4,113.3 90.1,126.3 93.7,126.3"/><path clip-path="url(#b)" fill="#231F20" d="M71.5 115.4l.4-3c.8 1.1 11.2 14.6 11.2 14.6h-3.8l-7.8-11.6z"/><path clip-path="url(#b)" fill="#231F20" d="M83.9 126.3s-8.9-4.3-11.1-4.4c-1.1 1.5-1.3 13.1 1.9 16.9.9-.2 9.2-6.6 9.2-6.6 1.5.9 4.1.6 4.9 0 0 0 3.8 6.4 9 7.7 1.3-1.3 3.6-15 3.4-16.3-.2-1.3-9.8 1.7-12 3.3-.1 0-.4-2.3-5.3-.6"/><path clip-path="url(#b)" fill="#231F20" d="M88.8 132.3c-.8.6-3.4.9-4.9 0v-5.9c4.9-1.8 5.3.6 5.3.6l-.4 5.3z"/><polygon clip-path="url(#b)" fill="#fff" points="86.3,125.3 79.7,116.9 77.3,130.9"/><path clip-path="url(#b)" fill="#231F20" d="M86.3 125.3s-3.4 2.3-8.9 5.9l-.5.3.1-.6c.2-1.7.7-4.3 1.1-7.1.5-2.7.9-5.3 1.3-7l.1-.6.4.5c4 5.3 6.4 8.6 6.4 8.6s-2.7-3.1-6.8-8.3c.1 0 .3-.1.5-.1-.2 1.7-.7 4.3-1.1 7-.5 2.8-.9 5.4-1.3 7.1-.2-.1-.3-.2-.4-.3 5.6-3.4 9.1-5.4 9.1-5.4"/><polygon clip-path="url(#b)" fill="#fff" points="93.9,117.6 86.3,125.3 94.7,130.9"/><path clip-path="url(#b)" fill="#231F20" d="M93.9 117.6s.6 5.4 1.2 13.3v.6l-.5-.4c-.7-.5-1.9-1.3-3.1-2.1-2.1-1.4-4-2.7-5.2-3.6l-.3-.2.2-.2c4.6-4.5 7.7-7.4 7.7-7.4s-2.8 3.1-7.3 7.9v-.4c1.3.8 3.3 2.1 5.3 3.5 1.2.8 2.4 1.6 3.1 2.1-.2.1-.4.2-.5.3-.5-7.9-.6-13.4-.6-13.4"/><path clip-path="url(#b)" fill="#231F20" d="M72.7 102s.1 1 .3 2.7c0 .9 0 2.3-.1 3.7-.2 3.5-.7 6.3-.7 6.3s-.2-2.8 0-6.3c.1-1.4.2-2.8.3-3.7.1-1.7.2-2.7.2-2.7"/><path clip-path="url(#b)" fill="#231F20" d="M103.4 115.9s-.3-2.9-.3-6.4c0-3.5.3-6.4.3-6.4s.3 2.9.3 6.4c.1 3.5-.3 6.4-.3 6.4"/><path clip-path="url(#b)" fill="#231F20" d="M105.7 86.6s-.2 2-.5 6.2c0 2-.4 5.4-.9 9.5-.1.1-.3.5-.6.9-2.5 2.9-6.3 7.4-10.6 12.3l-.1.1h-7.999999999999999l-.1-.1c-1.2-1.4-2.3-2.7-3.4-4l-1.6-1.9-.8-.9c-.3-.3-.5-.6-.8-.8-2.2-2.2-4.2-4-5.8-5.8v-.1c-.2-4.8-.4-8.7-.5-11.3v-3c0-.3.1-.6.1-.8v0c0 .2-.1.4-.1.8 0 .7 0 1.7.1 3 .2 2.6.4 6.5.8 11.3v-.1c1.5 1.7 3.6 3.5 5.9 5.6.3.3.6.6.8.9l.8.9c.5.6 1.1 1.2 1.6 1.9 1.1 1.3 2.2 2.6 3.4 4l-.3-.1h7.5l-.3.1c4.3-4.9 8.2-9.3 10.8-12.2.3-.4.5-.7.6-.8v.1c.6-4.1 1.1-7.4 1.2-9.4.6-4.3.8-6.3.8-6.3"/><path clip-path="url(#b)" fill="#231F20" d="M87.1 93.8s-.2-3.6-.3-9c0 0 .1.1.1.2-.6-.4-1.5-1.1-2.5-1.9-1.3-1-2.6-2-3.8-2.8l-1.7-1.2c-.3-.2-.5-.3-.8-.4 0 0-.1-.1-.2-.1h-.2s-.2.1-.3.2c-.8.7-1.3 1.4-1.7 1.9-.4.5-.6.7-.6.7s.2-.3.5-.8c.4-.5.8-1.3 1.6-2.1.1-.1.2-.2.4-.3h.30000000000000004c.1 0 .1 0 .2.1l.9.4c.6.3 1.2.7 1.8 1.1 1.2.8 2.5 1.7 3.9 2.8 1 .7 1.9 1.5 2.5 1.9l.1.1v.1c0 5.4-.2 9.1-.2 9.1"/><path clip-path="url(#b)" fill="#fff" d="M92.5 105.8c1.6-1.5 1.5-5.3 1.5-6.4h-9.6c-.2 1.6 0 4.3 1.5 6.4h6.6z"/><path clip-path="url(#b)" fill="#231F20" d="M87.1 96.4s.1 0 .3.1c.1 0 .2.1.4.2s.4.1.6.1c.4.1 1 0 1.6-.1.6-.2 1.2-.6 1.5-1.3v.1c-.1-2.5-.2-6-.2-9.9v-1l.2-.1c4-2.4 7.5-4.3 9.3-5.3l.1-.1.1.1c1.5 2 2.1 2.9 2.1 2.9s-.7-.9-2.3-2.7h.2c-1.7 1.1-5.1 3.2-9.1 5.6 0-.1.1-.2.2-.3v.8c0 3.9-.1 7.4-.2 9.9-.4.9-1.1 1.2-1.8 1.4-.6.1-1.2.1-1.7 0l-.6-.2c-.2-.1-.3-.2-.4-.2h-.3"/><path clip-path="url(#b)" fill="#231F20" d="M86.3 96l-.1.1c-.1.1-.2.2-.4.3-.2.1-.4.2-.8.2s-.7-.4-.8-.7c-.2-.7 0-1.2.2-1.6.2-.4.3-.5.3-.5s-.1 1 .1 1.9c.1.2.1.3.3.4.1.1.3.1.5.1s.3 0 .4-.1c.2-.1.3-.1.3-.1"/><path clip-path="url(#b)" fill="#231F20" d="M86 105.8l-5.6-6.4h4.2c-.3 1.6-.1 4.3 1.4 6.4"/><path clip-path="url(#b)" fill="#231F20" d="M94 99.4h3.6l-5.1 6.4c1.6-1.5 1.5-5.3 1.5-6.4"/><path clip-path="url(#b)" fill="#231F20" d="M91.6 95.4s.1 0 .2.1.3.1.5.2.5.1.6.1c.1 0 .1-.3.1-.6 0-.6-.2-1.2-.4-1.7-.1-.2-.2-.4-.2-.5-.1-.1-.1-.2-.1-.2s.1 0 .2.1.3.2.4.4c.3.4.7 1 .8 1.8 0 .2 0 .4-.1.6-.1.2-.3.5-.5.5-.1.1-.2 0-.3 0-.1 0-.2 0-.3-.1-.2-.1-.3-.1-.4-.2l-.4-.4c-.1 0-.1-.1-.1-.1"/><path clip-path="url(#b)" fill="#231F20" d="M80.3 99.4s2.1 2.2 5.8 6.2c0 0-.1 0-.2-.1 1.4 0 3.8-.1 6.5-.1 0 0-.1.1-.2.1.8-1 2-2.5 3.2-4.1.7-.9 1.4-1.8 1.9-2.3.1.3.2.4.3.5-10 .1-17.3-.2-17.3-.2s7.3-.3 17.3-.3h.7l-.4.5c-.4.5-1.1 1.4-1.8 2.3-1.3 1.6-2.5 3.1-3.3 4l-.1.1h-.1c-2.7 0-5.1-.1-6.5-.1h-.1l-.1-.1c-3.7-4.1-5.6-6.4-5.6-6.4"/><path clip-path="url(#b)" fill="#231F20" d="M99.5 101s0-.2-.1-.6c-.1-.4-.2-.9-.3-1.4-.1-.5-.2-1.1-.3-1.4-.1-.4-.2-.6-.2-.6s.2.1.5.4c.3.3.5.8.7 1.4.1.6.1 1.2 0 1.5-.2.5-.3.7-.3.7"/><path clip-path="url(#b)" fill="#231F20" d="M78.3 102.6s-.2-.2-.6-.7c-.1-.2-.3-.5-.4-.9-.1-.4-.2-.8-.2-1.2 0-.9.3-1.6.6-2.1.2-.2.3-.4.4-.5l.2-.2s0 .1-.1.2-.1.4-.2.6c-.1.5-.2 1.2-.2 2v1.1l.2.9c.2.4.3.8.3.8"/><path clip-path="url(#b)" fill="#231F20" d="M99.5 85.5c-.3-.2-3.5 0-4 0-.1 1.2.3 2.6 2 2.6s2-1.8 2-2.6"/><path clip-path="url(#b)" fill="#231F20" d="M80 85.5c.4-.2 3.5 0 4 0 .1 1.2-.3 2.6-2 2.6s-2-1.8-2-2.6"/><path clip-path="url(#b)" fill="#231F20" d="M100.9 87.5v-.4c0-.1 0-.3-.1-.5-.1-.1-.3-.2-.5-.4-.4-.3-.8-.7-1.4-1-.1-.1-.5-.1-.8-.1h-3.4c-.5.2-1 .6-1.4.9v-.1c-.1 1-.2 1.5-.2 1.5s.2-.4.1-1.4v-.2c.3-.3.7-.8 1.4-1.2.1-.1.2-.1.3-.1h.8c.4 0 .8 0 1.2-.1h1.6c.1 0 .5 0 .6.2.5.4 1 .9 1.3 1.3.2.2.3.4.4.6v.5c.1.4.1.5.1.5"/><path clip-path="url(#b)" fill="#231F20" d="M99 84.9v.5c0 .3 0 .7-.2 1.3l-.2.4c-.1.1-.2.2-.3.4-.3.2-.7.4-1 .4h-.6l-.6-.1c-.4-.1-.8-.5-1-.9-.4-.7-.3-1.4-.3-1.9v-.3h.3c2.3-.1 4 .1 3.9.2 0-.1-1.6.1-4 .3.1-.1.2-.1.3-.3 0 .4 0 1 .3 1.5.3.6 1 .8 1.5.8.4 0 .6-.1.8-.2l.3-.2c.1-.1.2-.2.2-.3.2-.4.4-.8.4-1.1.2-.3.2-.5.2-.5"/><path clip-path="url(#b)" fill="#231F20" d="M77.6 87.5s0-.1-.1-.4v-.5l.4-.6c.3-.4.8-.9 1.3-1.3.1-.1.5-.2.6-.2h1.6c.4 0 .8 0 1.2.1h.8c.1 0 .3.1.3.1.7.4 1 .8 1.4 1.2l.1.1v.1c-.1 1-.2 1.5-.2 1.5s.1-.6 0-1.6v.1c-.4-.3-.8-.7-1.4-.9h-3.4c-.3 0-.7 0-.8.1-.6.4-1 .7-1.4 1l-.5.4c-.1.2-.1.3-.1.5.2.2.2.3.2.3"/><path clip-path="url(#b)" fill="#231F20" d="M79.5 84.9s0 .2.1.4c.1.3.2.7.4 1.1.1.1.2.2.2.3.1.1.2.2.3.2.2.1.4.2.8.2.6 0 1.3-.2 1.6-.8.3-.5.3-1.1.3-1.5l.3.3c-2.5-.1-4-.3-4-.2 0-.1 1.6-.3 4-.3h.3v.3c0 .4.1 1.2-.3 1.9-.2.4-.6.8-1 .9-.2.1-.4.1-.6.1h-.6c-.3 0-.7-.2-1-.4-.1-.1-.3-.2-.3-.4-.1-.1-.2-.3-.2-.4-.2-.5-.2-1-.2-1.3-.1-.2-.1-.4-.1-.4"/><path clip-path="url(#b)" fill="#231F20" d="M106.9 58.2l.2.2.6.7c.5.7 1.1 1.9 1.5 3.6.4 1.7.7 3.9.7 6.6 0 1.3 0 2.8-.2 4.4-.1.8-.1 1.6-.3 2.4-.1.8-.2 1.7-.5 2.6l-.2.5-.1-.6c-.1-.4-.3-.9-.9-1.3-.1-.1-.3-.2-.5-.2s-.3 0-.3.1c0 .4 0 .9-.1 1.3-.2 1.8-.4 4-.6 6.3v.2h-1.5999999999999999v-.2c0-1 0-3.5.1-6.1v.1c-.3-.6-1-2.1-1.8-3.6l-.1-.1.1-.1s.1-.1.1-.2c.5-1.5 1-3.3 1.6-5.2.7-1.8 0-4-1.7-5.5-.8-.7-1.8-1.3-2.9-1.7-.6-.2-1.1-.3-1.7-.4-.6-.1-1.2-.1-1.8 0-1.2.1-2.4.5-3.6 1-1.2.4-2.5.9-3.9.8h-.7000000000000001c-1.3-.1-2.4-.5-3.5-.9s-2.2-.7-3.3-.8h-.8c-.2 0-.5 0-.8.1-.5.1-1.1.2-1.6.4-1 .3-2 .8-2.8 1.5-.8.7-1.5 1.5-1.9 2.4-.4.9-.5 1.9-.2 2.9.6 2 1.1 3.8 1.7 5.6v.2c-.7 1.4-1.2 2.4-1.7 3.5v-.1c.1 2.6.1 4.6.2 6.5v.3h-2.2v-.3c.2-1.5 0-3 0-4.2-.1-1.3-.2-2.4-.3-3.6l.2.2c-.7-.2-1.4 0-1.9.3s-.8.8-1 1.2l-.1-.4c-.3-.8-.3-1.6-.4-2.4-.1-.8-.1-1.5-.1-2.3 0-1.5 0-2.9.1-4.2.2-2.6.5-4.8 1-6.6.5-1.8 1.1-3.1 1.7-3.9.3-.4.5-.7.7-.8l.3-.3-.3.3c-.2.2-.4.5-.7.9-.5.8-1.2 2.1-1.6 3.9-.5 1.8-.8 4-.9 6.6-.1 1.3-.1 2.7 0 4.2 0 .7.1 1.5.1 2.3.1.8.1 1.6.4 2.3h-.3c.2-.5.6-1 1.1-1.4.5-.4 1.3-.5 2.2-.3h.1v.2c.1 1.1.2 2.3.3 3.6.1 1.3.2 2.7.1 4.3l-.2-.3h1.6c-.1.1-.1.1-.2.3-.1-1.9-.1-3.9-.2-6.5v-.2c.5-1 1-2.1 1.7-3.5v.2c-.6-1.8-1.2-3.6-1.7-5.6-.3-1.1-.2-2.2.2-3.3.4-1.1 1.2-1.9 2-2.7.9-.7 1.9-1.3 3-1.6.6-.2 1.1-.3 1.7-.4l.9-.1h.9c2.4.2 4.5 1.5 6.8 1.7h.7c1.2.1 2.5-.3 3.7-.7 1.2-.4 2.5-.8 3.8-1 .6-.1 1.3-.1 1.9 0 .6.1 1.2.2 1.8.4 1.2.4 2.3 1 3.1 1.8 1.8 1.5 2.6 4.2 1.8 6.1-.6 1.9-1.1 3.6-1.6 5.2l-.1.3v-.1c.7 1.5 1.4 3 1.7 3.7v.2c-.1 2.6-.1 5.1-.1 6.1l-.2-.2h1.2l-.2.2c.2-2.3.5-4.5.7-6.3 0-.5.1-.9.1-1.3 0-.2.1-.3.3-.4h.4c.2 0 .4.1.6.2.7.4 1 1 1 1.5h-.3c.3-.8.4-1.7.5-2.5l.3-2.4c.1-1.6.2-3 .2-4.3 0-2.7-.2-4.9-.6-6.5-.4-1.7-1-2.9-1.5-3.6-.2-.4-.5-.6-.6-.7-.2-.5-.3-.5-.3-.5"/><path clip-path="url(#b)" fill="#231F20" d="M105.1 92.8h.6c.4-.1 1-.2 1.5-.8.1-.1.2-.3.4-.4l.3-.5c.2-.4.5-.8.5-1.2.2-.9.3-2 .4-3.1.2-2.2.3-4.3.3-5.8v-2.4s0 .2.1.6c.1.4.2 1 .3 1.7.1 1.5.2 3.6 0 5.8-.1 1.1-.2 2.2-.5 3.2-.1.5-.4.9-.7 1.3-.1.2-.3.4-.4.5-.2.1-.3.3-.4.4-.6.5-1.3.6-1.7.6-.5.1-.7.1-.7.1"/><path clip-path="url(#b)" fill="#231F20" d="M68.4 78.6v.2c0 .1-.1.3-.1.5-.1.4-.1 1-.1 1.8 0 1.5.1 3.6.2 5.9.1 1.1.1 2.3.3 3.2.1.9.8 1.5 1.4 1.9 1.2.8 2.2.9 2.2.8 0 .1-1 .2-2.4-.5-.3-.2-.7-.4-1-.8-.3-.3-.6-.8-.7-1.4-.2-1-.3-2.1-.4-3.3-.1-2.3 0-4.4.1-6 .1-.8.2-1.4.3-1.8.1-.2.1-.4.2-.5"/><path clip-path="url(#b)" fill="#231F20" d="M103.4 107.8s-1.9 2.4-4.5 5.1c-2.6 2.7-5 4.6-5 4.6s1.9-2.4 4.5-5.1c2.6-2.6 5-4.6 5-4.6"/><path clip-path="url(#b)" fill="#231F20" d="M79.7 116.9s-1.9-1.8-3.8-4.3c-2-2.5-3.3-4.7-3.3-4.7s1.9 1.8 3.8 4.3c2 2.4 3.3 4.7 3.3 4.7"/><rect x="88.8" y="126.9" transform="matrix(.998 .071 -.071 .998 9.454 -6.006)" clip-path="url(#b)" fill="#fff" width=".2" height="5.4"/><rect x="83.8" y="126.3" clip-path="url(#b)" fill="#fff" width=".2" height="5.9"/><path clip-path="url(#b)" fill="#231F20" d="M87.1 84.7s-.8-.4-2-1.1c-1.2-.7-2.8-1.7-4.5-2.9-.8-.6-1.7-1.2-2.3-1.6l-.2-.1-.2-.1h0c-.1 0-.1.1-.2.2-.3.2-.6.5-.8.7l-1.6 1.6s.3-.8 1.1-2c.2-.3.4-.6.7-1l.2-.3s.1-.1.2-.1l.1-.1c.1 0 .2-.1.2-.1h.5c.1 0 .3.1.4.2 1 .4 1.8.9 2.7 1.6 1.7 1.2 3.2 2.5 4.2 3.5.9 1 1.5 1.6 1.5 1.6"/><path clip-path="url(#b)" fill="#231F20" d="M91.6 84.7s2.4-2.2 5.8-4.2c1.2-.7 2.4-1.3 3.2-1.6l.4-.2.2.3c1.2 1.9 1.9 3.1 1.9 3.1s-1.1-.9-2.6-2.5c.2 0 .3.1.6.1-.7.5-1.8 1.3-3 2-3.4 2-6.5 3-6.5 3"/></svg>