<?xml version="1.0" encoding="utf-8"?>
<!-- Generator: Adobe Illustrator 18.1.1, SVG Export Plug-In . SVG Version: 6.00 Build 0)  -->
<!DOCTYPE svg PUBLIC "-//W3C//DTD SVG 1.1//EN" "http://www.w3.org/Graphics/SVG/1.1/DTD/svg11.dtd">
<svg version="1.1" id="Layer_1" xmlns="http://www.w3.org/2000/svg" xmlns:xlink="http://www.w3.org/1999/xlink" x="0px" y="0px"
	 viewBox="0 0 178.3 131.2" enable-background="new 0 0 178.3 131.2" xml:space="preserve">
<rect x="2.1" y="1.8" fill="#D8505C" width="176.2" height="129.4"/>
<g>
	<defs>
		<polyline id="SVGID_1_" points="-37.2,-664.7 826.8,-662.7 847.5,493 -59.7,490.9 		"/>
	</defs>
	<clipPath id="SVGID_2_">
		<use xlink:href="#SVGID_1_"  overflow="visible"/>
	</clipPath>
	<path clip-path="url(#SVGID_2_)" fill="#FFFFFF" d="M55.2,91.2l0.1-2.6c-0.1-3.2-0.4-8.4-0.4-8.4c-0.6,0.3-3.1-0.6-3.5-2.2
		c-0.4-1.5-0.8-9.1,0-10.7l-0.1-0.2c-0.5-1.9-1.2-14.5,2.9-18.3c4.3-4,6.3-4.3,15.1-3.6h2c8.8-0.8,10.7-0.4,15,3.6
		c4.3,3.9,2.4,17.2,1.8,18.5l0.1,0.7c0.4,1.5,0,9-0.5,10c-0.5,1-1.3,2.5-3.1,2.2c0.1,1.2-1,8.6-1,8.6l-0.6,0.8V92c0,0.9,0,2.7,0,2.7
		l-15.3,16.4L55.2,94.8L55.2,91.2z"/>
	<path clip-path="url(#SVGID_2_)" fill="#231F20" d="M88.2,67.3c0.5-1.3,2.4-14.6-1.8-18.5c-4.3-4-6.3-4.3-15-3.6h-2
		c-8.8-0.8-10.7-0.4-15,3.6c-4.1,3.8-3.4,16.4-2.9,18.3l0.1,0.2l0,0c0.3-0.7,1.1-1.8,2.8-1.5c0,0.7,0.6,5.3,0.3,7.1H56
		c0,0-0.1-3.4-0.2-5.9l1.5-3.2c0,0-1.2-3.6-1.6-5.2c-0.4-1.6,0.4-3.2,0.4-3.2s1.6-3.3,6.4-3.6c2.8-0.1,5.3,1.8,7.7,1.6h0.1
		c2.4,0.2,4.9-1.7,7.7-1.6c4.8,0.4,6.4,3.6,6.4,3.6s0.9,1.6,0.4,3.2c-0.4,1.6-1.6,5.2-1.6,5.2l-0.1,0.2l1.6,3.3L84.6,73h1.1
		c0,0,0.7-6.3,0.7-6.9C86.4,65.5,88,66.1,88.2,67.3"/>
	<path clip-path="url(#SVGID_2_)" d="M75.9,44.9c4.3,0,6.2,1,9.4,3.9c4.3,3.9,2.4,17.2,1.8,18.5l0.1,0.7c0.4,1.5,0,9-0.5,10
		c-0.5,0.9-1.2,2.3-2.7,2.3c-0.1,0-0.3,0-0.4,0c0.1,1.2-1,8.6-1,8.6l-0.6,0.8V92h1.4l4.1,4.7c7.8,2.8,24.4,11.6,24.4,11.6l7,22H86.9
		h-6.6h-1.4H52.1h-3.2H42H14.5l11-24.5l27.1-13l1.5-1.7l0.1-2.6c-0.1-3.2-0.4-8.4-0.4-8.4c-0.1,0-0.2,0-0.3,0
		c-0.8,0-2.9-0.9-3.2-2.2c-0.4-1.5-0.8-9.1,0-10.7l-0.1-0.2c-0.5-1.9-1.2-14.5,2.9-18.3c3.2-2.9,5.1-3.9,9.4-3.9
		c1.5,0,3.4,0.1,5.6,0.3h2C72.5,45,74.4,44.9,75.9,44.9 M75.9,44.1L75.9,44.1c-1.4,0-3.1,0.1-5.7,0.3h-2c-2.6-0.2-4.3-0.3-5.7-0.3
		c-4.7,0-6.8,1.2-10,4.1c-4.4,4-3.7,16.8-3.2,19.1c-0.7,2.4-0.3,9.5,0.1,10.9c0.4,1.6,2.3,2.6,3.5,2.8c0.1,1.6,0.3,5.1,0.4,7.5
		l-0.1,2.2l-1.2,1.3l-27,12.9l-0.1,0.1l-0.1,0.1l-11,24.6l-1.3,1.4h1.9H42h6.8h3.2h26.8h1.4h6.6H119h1.6l-0.9-1.3l-7-22l-0.1-0.2
		l-0.2-0.1c-0.7-0.4-16.4-8.8-24.3-11.6l-3.9-4.6l-0.2-0.3h-0.4h-0.5v-1.3l0.4-0.6l0.1-0.2l0-0.2c0.2-1.1,0.8-5.7,1-7.9
		c1.8-0.2,2.7-1.9,3.1-2.7c0.6-1.3,1-8.9,0.6-10.6L88,67.3c0.6-2.3,2.3-15-2.1-19.1C82.7,45.3,80.6,44.1,75.9,44.1"/>
	<polygon clip-path="url(#SVGID_2_)" fill="#231F20" points="14.5,130.4 25.5,105.8 54.3,92 52.1,130.4 	"/>
	<path clip-path="url(#SVGID_2_)" fill="#FFFFFF" d="M54.3,92l-2.2,38.4H14.5l11-24.5L54.3,92z M54.6,91.7l-0.3,0.2l-28.8,13.8l0,0
		l0,0l-11,24.5l-0.3,0.3h0.5h37.6h0.2l0-0.2L54.5,92L54.6,91.7z"/>
	<path clip-path="url(#SVGID_2_)" fill="#231F20" d="M84.7,95.9l-5.8,34.4H119l-7-22C112,108.4,90,96.6,84.7,95.9"/>
	<path clip-path="url(#SVGID_2_)" fill="#FFFFFF" d="M84.7,95.9c5.3,0.7,27.3,12.4,27.3,12.4l7,22H78.9L84.7,95.9 M84.5,95.7l0,0.2
		l-5.8,34.4l0,0.2h0.2H119h0.4l-0.2-0.3l-7-22l0,0l0,0c-0.9-0.5-22.1-11.8-27.3-12.5L84.5,95.7z"/>
	<polygon clip-path="url(#SVGID_2_)" fill="#FFFFFF" points="48.9,130.4 53.2,100.7 53.6,98 54.2,93.9 60.6,102.1 66.6,109.7 
		73.4,102.8 82.1,93.9 82.1,98.8 82.1,101.2 80.3,130.4 	"/>
	<polygon clip-path="url(#SVGID_2_)" fill="#231F20" points="52.1,130.4 54.3,91 35.6,111.2 42.1,130.4 	"/>
	<path clip-path="url(#SVGID_2_)" fill="#FFFFFF" d="M54.3,91l-2.2,39.4H42.1l-6.5-19.2L54.3,91z M54.6,90.4l-0.4,0.4L35.4,111
		l-0.1,0.1l0,0.1l6.5,19.2l0,0.1h0.1h10.1h0.2l0-0.2L54.5,91L54.6,90.4z"/>
	<polygon clip-path="url(#SVGID_2_)" fill="#231F20" points="82.1,92 82.1,101.2 78.9,130.4 86.9,130.4 98.8,109.7 83.5,92 	"/>
	<path clip-path="url(#SVGID_2_)" fill="#FFFFFF" d="M83.5,92l15.3,17.7l-11.9,20.6h-8l3.2-29.2V92H83.5z M83.6,91.8L83.6,91.8h-1.5
		h-0.2V92v9.2l-3.2,29.1l0,0.2h0.2h8H87l0.1-0.1L99,109.8l0.1-0.1l-0.1-0.1L83.6,91.8L83.6,91.8z"/>
	<polygon clip-path="url(#SVGID_2_)" fill="#231F20" points="82.1,101.2 82.1,98.8 70,110.7 73.3,110.7 	"/>
	<path clip-path="url(#SVGID_2_)" fill="#231F20" d="M53.2,100.7l0.4-2.8c0.8,1,10.1,13.2,10.1,13.2h-3.4L53.2,100.7z"/>
	<path clip-path="url(#SVGID_2_)" fill="#231F20" d="M64.4,110.7c0,0-8.1-3.9-10.1-4c-1,1.4-1.2,11.9,1.7,15.3c0.9-0.2,8.4-6,8.4-6
		c1.4,0.8,3.7,0.5,4.4,0c0,0,3.4,5.8,8.2,7c1.2-1.2,3.2-13.6,3.1-14.8c-0.2-1.2-8.9,1.5-10.9,3C69.2,111.2,68.8,109,64.4,110.7"/>
	<path clip-path="url(#SVGID_2_)" fill="#231F20" d="M68.8,116c-0.7,0.5-3.1,0.8-4.4,0v-5.4c4.4-1.6,4.8,0.5,4.8,0.5L68.8,116z"/>
	<polygon clip-path="url(#SVGID_2_)" fill="#FFFFFF" points="66.6,109.7 60.6,102.1 58.5,114.8 	"/>
	<path clip-path="url(#SVGID_2_)" fill="#231F20" d="M66.6,109.7c0,0-3,2.1-8,5.3l-0.5,0.3l0.1-0.5c0.2-1.5,0.6-3.9,1-6.4
		c0.4-2.5,0.8-4.8,1.1-6.3l0.1-0.5l0.3,0.4C64.4,106.7,66.6,109.7,66.6,109.7s-2.4-2.8-6.2-7.5c0.1,0,0.2-0.1,0.4-0.1
		c-0.2,1.5-0.6,3.9-1,6.3c-0.4,2.5-0.9,4.9-1.1,6.4c-0.2-0.1-0.3-0.2-0.4-0.2C63.4,111.6,66.6,109.7,66.6,109.7"/>
	<polygon clip-path="url(#SVGID_2_)" fill="#FFFFFF" points="73.4,102.8 66.6,109.7 74.2,114.8 	"/>
	<path clip-path="url(#SVGID_2_)" fill="#231F20" d="M73.4,102.8c0,0,0.5,4.9,1.1,12.1l0,0.6l-0.5-0.3c-0.7-0.4-1.7-1.1-2.8-1.9
		c-1.9-1.3-3.6-2.5-4.8-3.3l-0.3-0.2l0.2-0.2C70.7,105.3,73.4,102.8,73.4,102.8s-2.5,2.8-6.6,7.2c0-0.1,0-0.2,0-0.4
		c1.2,0.7,3,1.9,4.8,3.2c1.1,0.7,2.2,1.5,2.8,1.9c-0.2,0.1-0.4,0.2-0.4,0.3C73.6,107.7,73.4,102.8,73.4,102.8"/>
	<path clip-path="url(#SVGID_2_)" fill="#231F20" d="M54.3,88.6c0,0,0.1,0.9,0.3,2.4c0,0,0,0,0,0c0,0.8,0,2-0.1,3.3
		c-0.2,3.2-0.6,5.7-0.6,5.7s-0.2-2.6,0-5.8c0.1-1.3,0.2-2.5,0.3-3.3v0v0C54.2,89.5,54.3,88.6,54.3,88.6"/>
	<path clip-path="url(#SVGID_2_)" fill="#231F20" d="M82.1,101.2c0,0-0.3-2.6-0.3-5.8c0-3.2,0.3-5.8,0.3-5.8s0.3,2.6,0.3,5.8
		C82.4,98.6,82.1,101.2,82.1,101.2"/>
	<path clip-path="url(#SVGID_2_)" fill="#231F20" d="M84.2,74.6c0,0-0.1,1.8-0.5,5.6v0c0,1.8-0.4,4.9-0.9,8.6l0,0l0,0
		c-0.1,0.1-0.3,0.4-0.5,0.8l0,0l0,0c-2.2,2.6-5.8,6.7-9.6,11.2l-0.1,0.1h-0.1c-0.8,0-2.3,0-3.7,0h-3.1h-0.1l-0.1-0.1
		c-1.1-1.2-2.1-2.5-3.1-3.6c-0.5-0.6-1-1.2-1.5-1.7c-0.2-0.3-0.5-0.6-0.7-0.8c-0.2-0.3-0.5-0.5-0.7-0.7c-2-2-3.8-3.6-5.2-5.3l0,0
		l0-0.1c-0.2-4.4-0.3-7.9-0.4-10.3c0-1.2,0-2.1,0-2.8c0-0.3,0.1-0.5,0.1-0.7c0-0.2,0-0.2,0-0.2s0,0.1,0,0.2c0,0.2-0.1,0.4-0.1,0.7
		c0,0.6,0,1.5,0,2.7c0.2,2.4,0.4,5.9,0.7,10.3c0,0,0-0.1,0-0.1c1.4,1.5,3.3,3.2,5.3,5.1c0.3,0.3,0.5,0.5,0.8,0.8
		c0.2,0.3,0.5,0.5,0.7,0.8c0.5,0.6,1,1.1,1.5,1.7c1,1.2,2,2.4,3.1,3.6c-0.1,0-0.1-0.1-0.2-0.1c0.9,0,2,0,3.1,0c1.4,0,2.9,0,3.7,0
		c-0.1,0-0.2,0.1-0.2,0.1c3.9-4.4,7.5-8.5,9.8-11.1c0,0,0,0,0,0c0.2-0.3,0.5-0.6,0.6-0.8c0,0,0,0.1,0,0.1c0.6-3.7,1-6.8,1.1-8.5v0
		C84,76.4,84.2,74.6,84.2,74.6"/>
	<path clip-path="url(#SVGID_2_)" fill="#231F20" d="M67.3,81.1c0,0-0.2-3.3-0.3-8.2c0,0,0.1,0.1,0.1,0.2c-0.5-0.4-1.4-1-2.3-1.7
		c-1.2-0.9-2.4-1.8-3.4-2.6c-0.5-0.4-1-0.7-1.5-1.1c-0.2-0.2-0.5-0.3-0.7-0.4c0,0-0.1-0.1-0.2-0.1l-0.1,0l0,0c0,0,0,0,0,0
		c0,0-0.2,0.1-0.2,0.2c-0.7,0.7-1.2,1.3-1.6,1.7c-0.4,0.4-0.6,0.7-0.6,0.7s0.2-0.3,0.5-0.7c0.3-0.5,0.7-1.1,1.5-1.9
		c0.1-0.1,0.2-0.2,0.4-0.3c0,0,0,0,0.1,0l0,0l0.1,0c0.1,0,0.1,0,0.2,0.1c0.3,0.1,0.6,0.3,0.8,0.4c0.5,0.3,1.1,0.6,1.6,1
		c1.1,0.7,2.3,1.6,3.5,2.5c0.9,0.7,1.7,1.3,2.2,1.8l0.1,0.1l0,0.1C67.5,77.8,67.3,81.1,67.3,81.1"/>
	<path clip-path="url(#SVGID_2_)" fill="#FFFFFF" d="M72.2,92c1.4-1.3,1.4-4.8,1.4-5.8h-8.7c-0.2,1.4,0,3.9,1.3,5.8H72.2z"/>
	<path clip-path="url(#SVGID_2_)" fill="#231F20" d="M67.3,83.5c0,0,0.1,0,0.3,0.1c0.1,0,0.2,0.1,0.4,0.2c0.1,0.1,0.3,0.1,0.5,0.1
		c0.4,0.1,0.9,0,1.4-0.1c0.5-0.2,1.1-0.6,1.3-1.2c0,0,0,0,0,0.1c-0.1-2.3-0.1-5.5-0.1-9v-0.7v-0.2l0.2-0.1c3.6-2.1,6.8-3.9,8.5-4.8
		l0.1,0l0.1,0.1c1.3,1.8,1.9,2.6,1.9,2.6s-0.7-0.8-2.1-2.5c0,0,0.1,0,0.1,0c-1.5,1-4.6,2.9-8.3,5.1c0-0.1,0.1-0.1,0.2-0.3v0.7
		c0,3.5-0.1,6.7-0.1,9v0l0,0c-0.3,0.8-1,1.1-1.6,1.3c-0.6,0.1-1.1,0.1-1.5,0c-0.2-0.1-0.4-0.1-0.5-0.2c-0.1-0.1-0.3-0.1-0.3-0.2
		C67.4,83.5,67.3,83.5,67.3,83.5"/>
	<path clip-path="url(#SVGID_2_)" fill="#231F20" d="M66.6,83.1c0,0,0,0-0.1,0.1c-0.1,0.1-0.2,0.2-0.3,0.3c-0.2,0.1-0.4,0.2-0.7,0.2
		c-0.3,0-0.6-0.3-0.7-0.7c-0.2-0.6,0-1.1,0.2-1.4c0.2-0.3,0.3-0.5,0.3-0.5c0,0-0.1,0.9,0.1,1.7c0.1,0.2,0.1,0.3,0.2,0.3
		c0.1,0.1,0.3,0.1,0.5,0.1c0.2,0,0.3,0,0.4-0.1C66.5,83.2,66.6,83.1,66.6,83.1"/>
	<path clip-path="url(#SVGID_2_)" fill="#231F20" d="M66.3,92l-5.1-5.8h3.8C64.7,87.7,64.9,90.1,66.3,92"/>
	<path clip-path="url(#SVGID_2_)" fill="#231F20" d="M73.6,86.2h3.2L72.2,92C73.6,90.7,73.6,87.2,73.6,86.2"/>
	<path clip-path="url(#SVGID_2_)" fill="#231F20" d="M71.4,82.6c0,0,0.1,0,0.2,0.1c0.1,0.1,0.3,0.1,0.5,0.2c0.2,0.1,0.4,0.1,0.5,0
		c0.1,0,0.1-0.3,0.1-0.5c0-0.6-0.2-1.1-0.3-1.5c-0.1-0.2-0.1-0.3-0.2-0.5c-0.1-0.1-0.1-0.2-0.1-0.2s0.1,0,0.2,0.1
		c0.1,0.1,0.2,0.2,0.4,0.4c0.3,0.3,0.6,0.9,0.7,1.7c0,0.2,0,0.4-0.1,0.6c-0.1,0.2-0.2,0.4-0.5,0.5c-0.1,0-0.2,0-0.3,0
		c-0.1,0-0.2,0-0.2-0.1c-0.1-0.1-0.3-0.1-0.3-0.2c-0.2-0.1-0.3-0.3-0.4-0.4C71.4,82.7,71.4,82.6,71.4,82.6"/>
	<path clip-path="url(#SVGID_2_)" fill="#231F20" d="M61.2,86.2c0,0,1.9,2,5.3,5.7c0,0-0.1,0-0.1-0.1c1.3,0,3.5-0.1,5.9-0.1
		c0,0-0.1,0.1-0.2,0.1c0.7-0.9,1.8-2.3,2.9-3.7c0.7-0.8,1.3-1.6,1.7-2.1c0.1,0.2,0.2,0.4,0.2,0.5C67.8,86.5,61.2,86.2,61.2,86.2
		s6.6-0.2,15.7-0.3l0.6,0l-0.4,0.5c-0.4,0.5-1,1.3-1.7,2.1c-1.2,1.4-2.3,2.8-3,3.7l-0.1,0.1l-0.1,0c-2.4,0-4.6-0.1-5.9-0.1l-0.1,0
		l-0.1-0.1C62.9,88.3,61.2,86.2,61.2,86.2"/>
	<path clip-path="url(#SVGID_2_)" fill="#231F20" d="M78.5,87.7c0,0,0-0.2-0.1-0.6c-0.1-0.3-0.2-0.8-0.3-1.3c-0.1-0.5-0.2-1-0.3-1.3
		c-0.1-0.3-0.2-0.5-0.2-0.5c0,0,0.2,0.1,0.4,0.4c0.3,0.3,0.5,0.8,0.6,1.3c0.1,0.5,0.1,1,0,1.4C78.7,87.5,78.5,87.7,78.5,87.7"/>
	<path clip-path="url(#SVGID_2_)" fill="#231F20" d="M59.3,89.1c0,0-0.2-0.2-0.5-0.6c-0.1-0.2-0.3-0.5-0.4-0.8
		c-0.1-0.3-0.2-0.7-0.2-1.1c0-0.8,0.3-1.5,0.6-1.9c0.1-0.2,0.3-0.4,0.4-0.5c0.1-0.1,0.2-0.2,0.2-0.2s0,0.1-0.1,0.2
		c-0.1,0.1-0.1,0.3-0.2,0.5c-0.1,0.5-0.2,1.1-0.2,1.8c0,0.4,0,0.7,0,1c0.1,0.3,0.1,0.6,0.2,0.8C59.2,88.8,59.3,89.1,59.3,89.1"/>
	<path clip-path="url(#SVGID_2_)" fill="#231F20" d="M78.6,73.6c-0.3-0.2-3.2,0-3.6,0c-0.1,1.1,0.3,2.4,1.8,2.4
		C78.3,76,78.6,74.4,78.6,73.6"/>
	<path clip-path="url(#SVGID_2_)" fill="#231F20" d="M60.9,73.6c0.3-0.2,3.2,0,3.6,0c0.1,1.1-0.3,2.4-1.8,2.4
		C61.1,76,60.8,74.4,60.9,73.6"/>
	<path clip-path="url(#SVGID_2_)" fill="#231F20" d="M79.8,75.5c0,0,0-0.1,0-0.4c0-0.1,0-0.3-0.1-0.4c-0.1-0.1-0.2-0.2-0.4-0.4
		c-0.4-0.3-0.7-0.6-1.2-0.9c-0.1-0.1-0.5,0-0.8,0c-0.3,0-0.7,0-1,0c-0.4,0-0.7,0-1.1,0c-0.2,0-0.3,0-0.5,0c-0.1,0-0.2,0-0.2,0
		c0,0-0.1,0-0.1,0c-0.5,0.2-0.9,0.6-1.3,0.8c0,0,0-0.1,0-0.1C73.1,75,73,75.5,73,75.5s-0.1-0.5-0.1-1.4l0-0.1l0,0
		c0.3-0.3,0.6-0.7,1.2-1.1c0.1-0.1,0.2-0.1,0.3-0.1c0.1,0,0.2,0,0.3,0c0.2,0,0.3,0,0.5,0c0.3,0,0.7,0,1.1-0.1c0.3,0,0.7,0,1,0
		c0.2,0,0.3,0,0.5,0c0.1,0,0.4,0,0.6,0.2c0.5,0.4,0.9,0.8,1.2,1.1c0.2,0.2,0.3,0.3,0.4,0.5c0,0.2,0,0.3,0,0.5
		C79.9,75.3,79.8,75.5,79.8,75.5"/>
	<path clip-path="url(#SVGID_2_)" fill="#231F20" d="M78.1,73.1c0,0,0,0.1,0,0.4c0,0.3,0,0.7-0.2,1.1c-0.1,0.1-0.1,0.2-0.2,0.4
		c-0.1,0.1-0.2,0.2-0.3,0.3c-0.2,0.2-0.6,0.4-0.9,0.4c-0.1,0-0.1,0-0.3,0l-0.3,0c-0.2,0-0.4,0-0.6-0.1c-0.4-0.1-0.7-0.5-0.9-0.8
		c-0.3-0.7-0.3-1.3-0.3-1.7l0-0.3h0.2C76.7,72.8,78.2,73,78.1,73.1c0-0.1-1.4,0.1-3.6,0.3c0.1-0.1,0.1-0.1,0.3-0.3
		c0,0.3,0,0.9,0.3,1.4c0.3,0.5,0.9,0.7,1.4,0.7c0.3,0,0.5-0.1,0.7-0.2c0.1-0.1,0.2-0.1,0.3-0.2c0.1-0.1,0.1-0.2,0.2-0.3
		c0.2-0.4,0.3-0.7,0.4-1C78.1,73.2,78.1,73.1,78.1,73.1"/>
	<path clip-path="url(#SVGID_2_)" fill="#231F20" d="M58.7,75.5c0,0,0-0.1-0.1-0.4c0-0.1,0-0.3,0-0.5c0.1-0.2,0.2-0.4,0.4-0.5
		c0.3-0.3,0.7-0.8,1.2-1.1c0.1-0.1,0.4-0.2,0.6-0.2c0.2,0,0.3,0,0.5,0c0.3,0,0.7,0,1,0c0.4,0,0.7,0,1.1,0.1c0.2,0,0.3,0,0.5,0
		c0.1,0,0.1,0,0.3,0c0.1,0,0.2,0.1,0.3,0.1c0.6,0.4,0.9,0.8,1.2,1.1l0,0l0,0.1c-0.1,0.9-0.1,1.4-0.1,1.4s-0.1-0.5-0.1-1.4
		c0,0,0,0.1,0,0.1c-0.3-0.2-0.8-0.6-1.3-0.8c-0.1,0-0.1,0-0.1,0c-0.1,0-0.2,0-0.2,0c-0.2,0-0.3,0-0.5,0c-0.3,0-0.7,0-1.1,0
		c-0.3,0-0.7,0-1,0c-0.3,0-0.6,0-0.8,0c-0.5,0.3-0.9,0.6-1.2,0.9c-0.2,0.1-0.3,0.3-0.4,0.4c-0.1,0.2-0.1,0.3-0.1,0.4
		C58.7,75.3,58.7,75.5,58.7,75.5"/>
	<path clip-path="url(#SVGID_2_)" fill="#231F20" d="M60.4,73.1c0,0,0,0.2,0.1,0.4c0.1,0.3,0.2,0.6,0.4,1c0.1,0.1,0.1,0.2,0.2,0.3
		c0.1,0.1,0.2,0.1,0.3,0.2c0.2,0.1,0.4,0.2,0.7,0.2c0.5,0,1.2-0.2,1.4-0.7c0.2-0.5,0.3-1,0.3-1.4c0.1,0.1,0.2,0.2,0.3,0.3
		C61.8,73.2,60.4,73,60.4,73.1c0-0.1,1.5-0.3,3.6-0.3h0.2l0,0.3c0,0.4,0.1,1.1-0.3,1.7c-0.2,0.4-0.5,0.7-0.9,0.8
		c-0.2,0.1-0.4,0.1-0.6,0.1l-0.3,0c-0.2,0-0.2,0-0.3,0c-0.3,0-0.7-0.2-0.9-0.4c-0.1-0.1-0.2-0.2-0.3-0.3c-0.1-0.1-0.1-0.2-0.2-0.4
		c-0.2-0.5-0.2-0.9-0.2-1.1C60.4,73.2,60.4,73.1,60.4,73.1"/>
	<path clip-path="url(#SVGID_2_)" fill="#231F20" d="M85.3,48.8c0,0,0.1,0.1,0.2,0.2c0.1,0.1,0.3,0.3,0.6,0.7c0.5,0.6,1,1.7,1.4,3.2
		c0.4,1.5,0.6,3.5,0.7,6c0,1.2,0,2.5-0.1,4c-0.1,0.7-0.1,1.5-0.2,2.2c-0.1,0.8-0.2,1.5-0.5,2.4l-0.2,0.5L87,67.4
		c-0.1-0.4-0.3-0.8-0.8-1.2c-0.1-0.1-0.3-0.1-0.4-0.2c-0.2,0-0.2,0-0.2,0.1c0,0.4,0,0.8-0.1,1.2c-0.2,1.7-0.3,3.6-0.5,5.7l0,0.2
		h-0.2c-0.1,0-0.6,0-1.1,0l-0.2,0l0-0.2c0-0.9,0-3.2,0.1-5.5c0,0,0,0.1,0,0.1c-0.3-0.6-0.9-1.9-1.6-3.3l0-0.1l0-0.1
		c0,0,0.1-0.1,0.1-0.2c0,0,0,0,0,0c0.4-1.4,0.9-3,1.4-4.7c0.7-1.6,0-3.7-1.5-5c-0.7-0.7-1.7-1.2-2.7-1.5c-0.5-0.2-1-0.3-1.6-0.4
		c-0.5-0.1-1.1-0.1-1.6,0c-1.1,0.1-2.2,0.5-3.3,0.9c-1.1,0.4-2.3,0.8-3.6,0.7h0c-0.2,0-0.5,0-0.8,0c-1.1-0.1-2.2-0.5-3.2-0.8
		c-1-0.3-2-0.7-3-0.8c-0.3,0-0.5,0-0.7,0c-0.2,0-0.5,0-0.7,0.1c-0.5,0.1-1,0.2-1.5,0.3c-0.9,0.3-1.8,0.8-2.5,1.4
		c-0.7,0.6-1.4,1.3-1.7,2.2C54.8,57,54.7,58,55,58.8c0.5,1.8,1,3.5,1.5,5.1l0,0.1l0,0.1c-0.6,1.2-1.1,2.2-1.5,3.2c0,0,0-0.1,0-0.1
		c0.1,2.3,0.1,4.2,0.2,5.9l0,0.2l-0.2,0c-0.6,0-1,0-1.5,0l-0.2,0l0-0.2c0.1-1.4,0-2.7,0-3.9C53.1,68,53,66.9,53,65.9
		c0.1,0.1,0.1,0.1,0.1,0.2c-0.7-0.2-1.3,0-1.7,0.2c-0.4,0.3-0.7,0.7-0.9,1.1l-0.2,0.4l-0.1-0.4c-0.2-0.8-0.3-1.5-0.3-2.2
		c-0.1-0.7-0.1-1.4-0.1-2.1c0-1.3,0-2.6,0.1-3.8c0.2-2.4,0.5-4.4,0.9-6c0.4-1.6,1-2.8,1.5-3.5c0.2-0.4,0.5-0.6,0.6-0.8
		c0.2-0.2,0.2-0.2,0.2-0.2s-0.1,0.1-0.2,0.2c-0.2,0.2-0.4,0.4-0.6,0.8c-0.5,0.7-1,1.9-1.5,3.5c-0.4,1.6-0.7,3.6-0.8,6
		c-0.1,1.2-0.1,2.4,0,3.8c0,0.7,0.1,1.4,0.1,2.1c0.1,0.7,0.1,1.5,0.3,2.1c-0.1,0-0.2,0-0.3,0c0.2-0.5,0.5-0.9,1-1.3
		c0.5-0.3,1.2-0.5,2-0.3l0.1,0l0,0.1c0.1,1,0.2,2.1,0.3,3.2c0.1,1.2,0.2,2.4,0.1,3.9c-0.1-0.1-0.1-0.1-0.2-0.2c0.4,0,0.9,0,1.5,0
		c-0.1,0.1-0.1,0.1-0.2,0.2c-0.1-1.7-0.1-3.6-0.2-5.9l0-0.1l0-0.1c0.5-1,0.9-1.9,1.5-3.2c0,0.1,0,0.1,0,0.2
		c-0.5-1.6-1.1-3.3-1.6-5.1c-0.3-1-0.2-2,0.2-3c0.4-1,1.1-1.8,1.8-2.4c0.8-0.7,1.7-1.2,2.7-1.5c0.5-0.2,1-0.3,1.5-0.4
		c0.3,0,0.5-0.1,0.8-0.1c0.3,0,0.5,0,0.8,0c2.2,0.2,4.1,1.4,6.2,1.6c0.3,0,0.5,0,0.7,0l0,0l0,0c1.1,0.1,2.2-0.3,3.3-0.6
		c1.1-0.4,2.2-0.8,3.4-0.9c0.6-0.1,1.2-0.1,1.8,0c0.6,0.1,1.1,0.2,1.7,0.4c1.1,0.4,2.1,0.9,2.9,1.7c1.7,1.4,2.4,3.8,1.6,5.6
		c-0.5,1.7-1,3.3-1.5,4.7l0,0l0,0c0,0.1-0.1,0.2-0.1,0.2v-0.2c0.7,1.4,1.3,2.8,1.6,3.3l0,0.1l0,0.1c-0.1,2.4-0.1,4.6-0.1,5.5
		c-0.1-0.1-0.2-0.2-0.2-0.2c0.5,0,1,0,1.1,0c-0.1,0.1-0.2,0.2-0.2,0.2c0.2-2.1,0.4-4.1,0.6-5.7c0-0.4,0.1-0.8,0.1-1.2
		c0-0.1,0.1-0.3,0.3-0.3c0.1,0,0.2,0,0.3,0c0.2,0,0.4,0.1,0.5,0.2c0.6,0.4,0.9,0.9,0.9,1.4c-0.1,0-0.2,0-0.2,0
		c0.2-0.7,0.4-1.6,0.5-2.3c0.1-0.8,0.2-1.5,0.3-2.2c0.1-1.4,0.2-2.7,0.2-3.9c0-2.4-0.2-4.4-0.6-5.9c-0.4-1.5-0.9-2.6-1.3-3.2
		c-0.2-0.3-0.4-0.5-0.5-0.7C85.4,48.9,85.3,48.8,85.3,48.8"/>
	<path clip-path="url(#SVGID_2_)" fill="#231F20" d="M83.6,80.2c0,0,0.2,0,0.6,0c0.4-0.1,0.9-0.2,1.3-0.7c0.1-0.1,0.2-0.3,0.3-0.4
		c0.1-0.2,0.2-0.3,0.3-0.5c0.2-0.3,0.4-0.7,0.5-1.1c0.2-0.8,0.2-1.8,0.3-2.8c0.2-2,0.2-3.9,0.3-5.2c0-0.7,0-1.2,0-1.6
		c0-0.4,0-0.6,0-0.6s0,0.2,0.1,0.6c0.1,0.4,0.2,0.9,0.2,1.6c0.1,1.4,0.2,3.2,0,5.3c-0.1,1-0.2,2-0.4,2.9c-0.1,0.5-0.4,0.8-0.6,1.2
		c-0.1,0.2-0.2,0.3-0.4,0.5c-0.1,0.1-0.3,0.3-0.4,0.4c-0.5,0.5-1.2,0.5-1.5,0.6C83.8,80.3,83.6,80.2,83.6,80.2"/>
	<path clip-path="url(#SVGID_2_)" fill="#231F20" d="M50.3,67.3c0,0,0,0.1,0,0.2c0,0.1-0.1,0.2-0.1,0.4c-0.1,0.4-0.1,0.9-0.1,1.6
		c0,1.4,0.1,3.3,0.2,5.3c0.1,1,0.1,2,0.2,2.9c0.1,0.8,0.7,1.4,1.3,1.8c1.1,0.8,2,0.8,2,0.7c0,0.1-0.9,0.2-2.2-0.4
		c-0.3-0.2-0.6-0.4-1-0.7c-0.3-0.3-0.6-0.8-0.7-1.2c-0.2-0.9-0.3-1.9-0.3-3c-0.1-2.1,0-4,0.1-5.4c0.1-0.7,0.2-1.2,0.3-1.6
		c0-0.2,0.1-0.3,0.2-0.4C50.3,67.4,50.3,67.3,50.3,67.3"/>
	<path clip-path="url(#SVGID_2_)" fill="#231F20" d="M82.1,93.9c0,0-1.7,2.2-4.1,4.6c-2.4,2.4-4.6,4.2-4.6,4.2s1.7-2.2,4.1-4.6
		C80,95.7,82.1,93.9,82.1,93.9"/>
	<path clip-path="url(#SVGID_2_)" fill="#231F20" d="M60.6,102.1c0,0-1.7-1.6-3.5-3.9c-1.8-2.3-3-4.3-3-4.3s1.7,1.6,3.5,3.9
		C59.4,100.1,60.6,102.1,60.6,102.1"/>
	
		<rect x="68.9" y="111.2" transform="matrix(0.9978 6.632536e-02 -6.632536e-02 0.9978 7.6871 -4.3264)" clip-path="url(#SVGID_2_)" fill="#FFFFFF" width="0.2" height="4.9"/>
	<rect x="64.3" y="110.7" clip-path="url(#SVGID_2_)" fill="#FFFFFF" width="0.2" height="5.4"/>
	<path clip-path="url(#SVGID_2_)" fill="#231F20" d="M67.3,72.9c0,0-0.7-0.4-1.8-1c-1.1-0.6-2.6-1.6-4.1-2.6
		c-0.8-0.5-1.5-1.1-2.1-1.5l-0.2-0.1l-0.1,0l-0.1,0l0,0l0,0h0c0,0,0.2,0,0.1,0l0,0h0c0,0,0.1,0,0.1,0l0,0c0,0,0,0-0.1,0
		c-0.1,0-0.1,0.1-0.2,0.1c-0.3,0.2-0.5,0.5-0.7,0.7c-0.9,0.9-1.5,1.4-1.5,1.4s0.3-0.7,1-1.8c0.2-0.3,0.4-0.6,0.6-0.9
		c0.1-0.1,0.1-0.2,0.2-0.2c0,0,0.1-0.1,0.2-0.1l0.1-0.1c0.1,0,0.1-0.1,0.2-0.1l0.1,0l0,0l0.1,0l0,0l0.1,0l0.1,0
		c0.1,0,0.3,0.1,0.4,0.1c0.9,0.4,1.6,0.9,2.4,1.4c1.6,1.1,2.9,2.3,3.8,3.2C66.8,72.3,67.3,72.9,67.3,72.9"/>
	<path clip-path="url(#SVGID_2_)" fill="#231F20" d="M71.4,72.9c0,0,2.2-2,5.3-3.8c1.1-0.6,2.1-1.2,2.9-1.5l0.4-0.2l0.2,0.3
		c1.1,1.7,1.7,2.8,1.7,2.8s-1-0.8-2.4-2.3c0.2,0,0.3,0.1,0.6,0.1c-0.6,0.5-1.6,1.2-2.7,1.8C74.2,72,71.4,72.9,71.4,72.9"/>
	<path clip-path="url(#SVGID_2_)" fill="#231F20" d="M129.7,46.8c0.6,0,1.1,0.5,1.1,1.1c0,0.6-0.5,1.1-1.1,1.1h-0.4v2.2l0.2,0.2
		c1.2-1,2.8-1.6,4.6-1.6c4,0,7.3,3.2,7.3,7.3c0,4-3.2,7.3-7.3,7.3c-1.6,0-3.1-0.5-4.4-1.5l-0.4,0.5c0,0,0,1.4,0,3.8h0.4
		c0.6,0,1.1,0.5,1.1,1.1c0,0.6-0.5,1.1-1.1,1.1h-0.4c0,1.8,0,3.9-0.1,6.3h0.5c0.6,0,1.1,0.2,1.1,0.4c0,0.2-0.5,0.4-1.1,0.4h-0.5
		c-0.1,9.2-0.2,21.4-0.4,29.7h8.9v2.3l-4.3,0.7v2.3l4.3,0.8v3.9h-10.5v0c-0.1,0-0.3,0-0.4,0c-0.7,0-1.3-0.2-1.5-0.7V76.2h-0.6
		c-0.6,0-1.1-0.2-1.1-0.4c0-0.2,0.5-0.4,1.1-0.4h0.6v-6.3h-0.6c-0.6,0-1.1-0.5-1.1-1.1c0-0.6,0.5-1.1,1.1-1.1h0.6v-3.8l-0.6-0.6
		c-1.2,1-2.8,1.5-4.5,1.5c-4,0-7.3-3.2-7.3-7.3c0-4,3.2-7.3,7.3-7.3c1.7,0,3.3,0.6,4.6,1.6l0.5-0.5v-1.9h-0.6
		c-0.6,0-1.1-0.5-1.1-1.1c0-0.6,0.5-1.1,1.1-1.1H129.7 M127.2,54.9c0.3-0.9,0.7-1.8,1.3-2.5l-1.2-1.2l-1.3,1.4
		C126.5,53.2,126.9,54,127.2,54.9 M133.9,62.7c3.1,0,5.7-2.5,5.7-5.7c0-3.1-2.5-5.7-5.7-5.7c-1.2,0-2.3,0.4-3.2,1l4.7,4.5l-4.6,4.8
		C131.6,62.3,132.7,62.7,133.9,62.7 M120.1,62.7c1.3,0,2.5-0.5,3.4-1.2l-4.5-4.3l4.5-4.6c-1-0.7-2.1-1.2-3.4-1.2
		c-3.1,0-5.7,2.5-5.7,5.7C114.4,60.2,117,62.7,120.1,62.7 M129.6,60.7l3.6-3.8l-3.6-3.5c-0.8,1-1.3,2.2-1.3,3.6
		C128.3,58.4,128.8,59.7,129.6,60.7 M124.8,60.3c0.6-0.9,1-2,1-3.2c0-1.2-0.4-2.3-1-3.3l-3.2,3.3L124.8,60.3 M127.5,62.9l1.2-1.2
		c-0.7-0.8-1.2-1.7-1.5-2.7c-0.3,0.9-0.7,1.7-1.2,2.4l0,0L127.5,62.9 M129.7,46h-5.1c-1,0-1.9,0.8-1.9,1.9c0,1,0.7,1.8,1.7,1.9v0.4
		c-1.3-0.8-2.7-1.2-4.2-1.2c-4.4,0-8.1,3.6-8.1,8.1c0,4.4,3.6,8,8.1,8c1.5,0,3-0.4,4.2-1.2v2.5c-0.9,0.1-1.7,0.9-1.7,1.9
		c0,1,0.7,1.8,1.7,1.9v4.7c-1,0-1.7,0.5-1.7,1.2c0,0.7,0.6,1.1,1.7,1.2v38v0.2l0.1,0.2c0.3,0.8,1.2,1.2,2.3,1.2c0,0,0.1,0,0.1,0
		l0.3,0h10.5h0.8v-0.8v-3.9v-0.7l-0.7-0.1l-3.6-0.7v-0.9l3.6-0.6l0.7-0.1v-0.7v-2.3V105h-0.8h-8.1c0.1-6.5,0.3-15.9,0.4-28.1
		c1-0.1,1.6-0.5,1.6-1.2c0-0.7-0.6-1.1-1.5-1.2l0-4.7c0.8-0.2,1.5-0.9,1.5-1.8c0-0.9-0.6-1.6-1.5-1.8l0-2.3c1.2,0.7,2.6,1.1,4,1.1
		c4.4,0,8.1-3.6,8.1-8c0-4.4-3.6-8.1-8.1-8.1c-1.4,0-2.8,0.4-4,1.1v-0.3c0.8-0.2,1.4-0.9,1.4-1.8C131.5,46.8,130.7,46,129.7,46
		 M132,52.6c0.6-0.3,1.3-0.4,1.9-0.4c2.7,0,4.9,2.2,4.9,4.9c0,2.7-2.2,4.9-4.9,4.9c-0.7,0-1.3-0.1-1.9-0.4l3.9-4.1l0.6-0.6l-0.6-0.6
		L132,52.6z M120.1,61.9c-2.7,0-4.9-2.2-4.9-4.9c0-2.7,2.2-4.9,4.9-4.9c0.8,0,1.5,0.2,2.2,0.5l-3.8,3.9l-0.6,0.6l0.6,0.6l3.8,3.6
		C121.6,61.7,120.8,61.9,120.1,61.9 M127,52.6l0.3-0.3l0.2,0.1c-0.1,0.1-0.2,0.3-0.3,0.4C127.1,52.8,127,52.7,127,52.6 M129.7,59.4
		c-0.4-0.7-0.6-1.5-0.6-2.4c0-0.9,0.2-1.7,0.7-2.4l2.4,2.3L129.7,59.4z M122.6,57.1l1.9-2c0.3,0.6,0.4,1.3,0.4,1.9
		c0,0.7-0.1,1.3-0.4,1.9L122.6,57.1z M127,61.3c0.1-0.1,0.1-0.2,0.2-0.3c0.1,0.2,0.3,0.4,0.4,0.7l-0.1,0.1L127,61.3z"/>
	<path clip-path="url(#SVGID_2_)" fill="#CCC9C7" d="M120.2,49.6c-4,0-7.3,3.2-7.3,7.3c0,4,3.2,7.3,7.3,7.3c4,0,7.3-3.2,7.3-7.3
		C127.5,52.9,124.2,49.6,120.2,49.6 M120.1,62.7c-3.1,0-5.7-2.5-5.7-5.7c0-3.1,2.5-5.7,5.7-5.7c3.1,0,5.7,2.5,5.7,5.7
		C125.8,60.2,123.2,62.7,120.1,62.7"/>
	<path clip-path="url(#SVGID_2_)" fill="#CCC9C7" d="M134.1,49.6c-4,0-7.3,3.2-7.3,7.3c0,4,3.2,7.3,7.3,7.3c4,0,7.3-3.2,7.3-7.3
		C141.4,52.9,138.1,49.6,134.1,49.6 M133.9,62.7c-3.1,0-5.7-2.5-5.7-5.7c0-3.1,2.5-5.7,5.7-5.7c3.1,0,5.7,2.5,5.7,5.7
		C139.6,60.2,137.1,62.7,133.9,62.7"/>
	<path clip-path="url(#SVGID_2_)" fill="#CCC9C7" d="M129.3,63.2l-2,2l-2.1-2V115c0.5,1.1,2.8,0.9,3.2,0
		C128.9,114.1,129.3,63.2,129.3,63.2"/>
	<path clip-path="url(#SVGID_2_)" fill="#CCC9C7" d="M127.1,48.9l-8,8.3l6.2,6l2.1,2l2-2l6-6.3L127.1,48.9z M128.9,61.4l-1.4,1.5
		l-1.5-1.5l-4.5-4.3l5.8-6l6,5.8L128.9,61.4z"/>
	<polygon clip-path="url(#SVGID_2_)" fill="#CCC9C7" points="137.7,115.7 127.2,115.7 127.2,105.8 137.7,105.8 137.7,108.1 
		133.4,108.7 133.4,111 137.7,111.8 	"/>
	<path clip-path="url(#SVGID_2_)" fill="#231F20" d="M137.7,115.7c0,0,0-1.1-0.1-3.9c0,0,0,0.1,0.1,0.1c-0.8-0.1-2.4-0.4-4.3-0.7
		l-0.2,0l0-0.2c0-0.3,0-1.3-0.1-2.3l0-0.2l0.2,0c0.8-0.1,2.5-0.4,4.2-0.7c0,0-0.2,0.2-0.3,0.3c0-0.4,0-1.3,0-2.3
		c0.1,0.1,0.2,0.2,0.4,0.4c-1.6,0-4.2,0-6.9,0c-1.3,0-2.5,0-3.6,0c0.1-0.1,0.3-0.3,0.4-0.4c0,3.9-0.1,7.4-0.1,9.9
		c-0.1-0.1-0.2-0.2-0.3-0.3C133.8,115.6,137.7,115.7,137.7,115.7s-3.9,0.1-10.5,0.3l-0.3,0l0-0.3c-0.1-2.6-0.1-6-0.1-9.9l0-0.4h0.4
		c1.1,0,2.3,0,3.6,0c2.7,0,5.3,0,6.9,0l0.4,0l0,0.4c0,0.9,0,1.8,0,2.3l0,0.3l-0.3,0c-1.8,0.2-3.5,0.5-4.3,0.6
		c0.1-0.1,0.2-0.2,0.2-0.2c0,1,0,1.9,0,2.3c-0.1-0.1-0.1-0.2-0.2-0.2c1.9,0.4,3.5,0.7,4.2,0.9l0.1,0l0,0.1
		C137.7,114.6,137.7,115.7,137.7,115.7"/>
	<polygon clip-path="url(#SVGID_2_)" fill="#CCC9C7" points="129.3,51.4 127.3,50.3 125.2,51.5 125.2,47.8 129.3,47.8 	"/>
	<path clip-path="url(#SVGID_2_)" fill="#CCC9C7" d="M130.7,68c0,0.6-0.5,1.1-1.1,1.1h-5.1c-0.6,0-1.1-0.5-1.1-1.1
		c0-0.6,0.5-1.1,1.1-1.1h5.1C130.3,67,130.7,67.5,130.7,68"/>
	<path clip-path="url(#SVGID_2_)" fill="#231F20" d="M130.7,68c0,0,0-0.3-0.2-0.6c-0.1-0.2-0.3-0.3-0.6-0.4c-0.3,0-0.6,0-1,0
		c-0.8,0-1.7,0.1-2.7,0.1c-0.5,0-1,0-1.6,0c-0.4,0-0.9,0.3-0.8,0.9c0,0.4,0.4,0.8,0.8,0.8c0.5,0,1.1,0,1.6,0c1,0,1.9,0.1,2.7,0.1
		c0.4,0,0.7,0.1,1,0c0.3-0.1,0.5-0.2,0.6-0.4C130.8,68.3,130.7,68,130.7,68c0,0,0.1,0.3-0.2,0.6c-0.1,0.2-0.3,0.4-0.6,0.5
		c-0.3,0.1-0.7,0-1,0.1c-0.8,0-1.7,0.1-2.7,0.1c-0.5,0-1,0-1.6,0c-0.7,0-1.4-0.5-1.3-1.3c0-0.7,0.7-1.3,1.3-1.3c0.5,0,1.1,0,1.6,0
		c1,0,1.9,0.1,2.7,0.1c0.4,0,0.7,0,1,0.1c0.3,0.1,0.5,0.3,0.6,0.5C130.8,67.8,130.7,68,130.7,68"/>
	<path clip-path="url(#SVGID_2_)" fill="#CCC9C7" d="M130.7,75.8c0,0.2-0.5,0.4-1.1,0.4h-5.1c-0.6,0-1.1-0.2-1.1-0.4
		c0-0.2,0.5-0.4,1.1-0.4h5.1C130.3,75.4,130.7,75.5,130.7,75.8"/>
	<path clip-path="url(#SVGID_2_)" fill="#CCC9C7" d="M130.7,47.8c0,0.6-0.5,1.1-1.1,1.1h-5.1c-0.6,0-1.1-0.5-1.1-1.1
		c0-0.6,0.5-1.1,1.1-1.1h5.1C130.3,46.8,130.7,47.2,130.7,47.8"/>
	<path clip-path="url(#SVGID_2_)" fill="#231F20" d="M130.7,47.8c0,0,0-0.3-0.2-0.6c-0.1-0.2-0.3-0.3-0.6-0.4c-0.3,0-0.6,0-1,0
		c-0.8,0-1.7,0.1-2.7,0.1c-0.5,0-1,0-1.6,0c-0.4,0-0.9,0.3-0.8,0.9c0,0.4,0.4,0.8,0.8,0.8c0.5,0,1.1,0,1.6,0c1,0,1.9,0.1,2.7,0.1
		c0.4,0,0.7,0.1,1,0c0.3-0.1,0.5-0.2,0.6-0.4C130.8,48.1,130.7,47.8,130.7,47.8c0,0,0.1,0.3-0.2,0.6c-0.1,0.2-0.3,0.4-0.6,0.5
		c-0.3,0.1-0.7,0-1,0.1c-0.8,0-1.7,0.1-2.7,0.1c-0.5,0-1,0-1.6,0c-0.7,0-1.4-0.5-1.3-1.3c0-0.7,0.7-1.3,1.3-1.3c0.5,0,1.1,0,1.6,0
		c1,0,1.9,0.1,2.7,0.1c0.4,0,0.7,0,1,0.1c0.3,0.1,0.5,0.3,0.6,0.5C130.8,47.6,130.7,47.8,130.7,47.8"/>
	<path clip-path="url(#SVGID_2_)" fill="#231F20" d="M151.3,23.6c0.6,0,1.1,0.5,1.1,1.1s-0.5,1.1-1.1,1.1H151v2.2l0.2,0.2
		c1.2-1,2.8-1.6,4.6-1.6c4,0,7.3,3.2,7.3,7.3c0,4-3.2,7.2-7.3,7.2c-1.6,0-3.1-0.5-4.4-1.5L151,40c0,0,0,1.4,0,3.8h0.4
		c0.6,0,1.1,0.5,1.1,1.1c0,0.6-0.5,1.1-1.1,1.1h-0.4c0,1.8,0,3.9-0.1,6.3h0.5c0.6,0,1.1,0.2,1.1,0.4c0,0.2-0.5,0.4-1.1,0.4h-0.5
		c-0.1,9.2-0.2,21.4-0.4,29.7h8.9v2.3l-4.3,0.7v2.3l4.3,0.8v3.9h-10.5v0c-0.1,0-0.3,0-0.4,0c-0.7,0-1.3-0.2-1.5-0.7V53h-0.6
		c-0.6,0-1.1-0.2-1.1-0.4c0-0.2,0.5-0.4,1.1-0.4h0.6v-6.3h-0.6c-0.6,0-1.1-0.5-1.1-1.1c0-0.6,0.5-1.1,1.1-1.1h0.6V40l-0.6-0.6
		c-1.2,1-2.8,1.5-4.5,1.5c-4,0-7.3-3.2-7.3-7.2c0-4,3.2-7.3,7.3-7.3c1.7,0,3.3,0.6,4.6,1.6l0.5-0.5v-1.9h-0.6
		c-0.6,0-1.1-0.5-1.1-1.1s0.5-1.1,1.1-1.1H151.3 M148.8,31.7c0.3-0.9,0.7-1.8,1.3-2.5l-1.2-1.2l-1.3,1.4
		C148.1,30,148.5,30.8,148.8,31.7 M155.6,39.5c3.1,0,5.7-2.5,5.7-5.7c0-3.1-2.5-5.7-5.7-5.7c-1.2,0-2.3,0.4-3.2,1l4.7,4.5l-4.6,4.8
		C153.3,39.1,154.4,39.5,155.6,39.5 M141.7,39.5c1.3,0,2.5-0.5,3.4-1.2l-4.5-4.3l4.5-4.6c-1-0.7-2.1-1.2-3.4-1.2
		c-3.1,0-5.7,2.5-5.7,5.7C136.1,37,138.6,39.5,141.7,39.5 M151.2,37.5l3.6-3.8l-3.6-3.5c-0.8,1-1.3,2.2-1.3,3.6
		C149.9,35.2,150.4,36.5,151.2,37.5 M146.4,37.1c0.6-0.9,1-2,1-3.2c0-1.2-0.4-2.3-1-3.3l-3.2,3.3L146.4,37.1 M149.1,39.7l1.2-1.2
		c-0.7-0.8-1.2-1.7-1.5-2.7c-0.3,0.9-0.7,1.7-1.2,2.4l0,0L149.1,39.7 M151.3,22.8h-5.1c-1,0-1.9,0.8-1.9,1.9c0,1,0.7,1.8,1.7,1.9
		v0.4c-1.3-0.8-2.7-1.2-4.2-1.2c-4.4,0-8.1,3.6-8.1,8.1c0,4.4,3.6,8,8.1,8c1.5,0,3-0.4,4.2-1.2V43c-0.9,0.1-1.7,0.9-1.7,1.9
		c0,1,0.7,1.8,1.7,1.9v4.7c-1,0-1.7,0.5-1.7,1.2c0,0.7,0.6,1.1,1.7,1.2v38V92l0.1,0.2c0.3,0.8,1.2,1.2,2.3,1.2c0,0,0.1,0,0.1,0
		l0.3,0h10.5h0.8v-0.8v-3.9V88l-0.7-0.1l-3.6-0.7v-0.9l3.6-0.6l0.7-0.1v-0.7v-2.3v-0.8h-0.8h-8.1c0.1-6.5,0.3-15.9,0.4-28.1
		c1-0.1,1.6-0.5,1.6-1.2c0-0.7-0.6-1.1-1.5-1.2l0-4.7c0.8-0.2,1.5-0.9,1.5-1.8c0-0.9-0.6-1.6-1.5-1.8l0-2.3c1.2,0.7,2.6,1.1,4,1.1
		c4.4,0,8.1-3.6,8.1-8c0-4.4-3.6-8.1-8.1-8.1c-1.4,0-2.8,0.4-4,1.1v-0.3c0.8-0.2,1.4-0.9,1.4-1.8C153.2,23.6,152.3,22.8,151.3,22.8
		 M153.7,29.4c0.6-0.3,1.3-0.4,1.9-0.4c2.7,0,4.9,2.2,4.9,4.9c0,2.7-2.2,4.9-4.9,4.9c-0.7,0-1.3-0.1-1.9-0.4l3.9-4.1l0.6-0.6
		l-0.6-0.6L153.7,29.4z M141.7,38.7c-2.7,0-4.9-2.2-4.9-4.9c0-2.7,2.2-4.9,4.9-4.9c0.8,0,1.5,0.2,2.2,0.5l-3.8,3.9l-0.6,0.6l0.6,0.6
		l3.8,3.6C143.2,38.5,142.5,38.7,141.7,38.7 M148.6,29.4l0.3-0.3l0.2,0.1c-0.1,0.1-0.2,0.3-0.3,0.4
		C148.7,29.6,148.7,29.5,148.6,29.4 M151.3,36.2c-0.4-0.7-0.6-1.5-0.6-2.4c0-0.9,0.2-1.7,0.7-2.4l2.4,2.3L151.3,36.2z M144.3,33.9
		l1.9-2c0.3,0.6,0.4,1.3,0.4,1.9c0,0.7-0.1,1.3-0.4,1.9L144.3,33.9z M148.6,38.1c0.1-0.1,0.1-0.2,0.2-0.3c0.1,0.2,0.3,0.4,0.4,0.7
		l-0.1,0.1L148.6,38.1z"/>
	<path clip-path="url(#SVGID_2_)" fill="#CCC9C7" d="M141.8,26.5c-4,0-7.3,3.2-7.3,7.3c0,4,3.2,7.2,7.3,7.2c4,0,7.3-3.2,7.3-7.2
		C149.1,29.7,145.8,26.5,141.8,26.5 M141.7,39.5c-3.1,0-5.7-2.5-5.7-5.7c0-3.1,2.5-5.7,5.7-5.7c3.1,0,5.7,2.5,5.7,5.7
		C147.4,37,144.9,39.5,141.7,39.5"/>
	<path clip-path="url(#SVGID_2_)" fill="#CCC9C7" d="M155.8,26.5c-4,0-7.3,3.2-7.3,7.3c0,4,3.2,7.2,7.3,7.2c4,0,7.3-3.2,7.3-7.2
		C163,29.7,159.8,26.5,155.8,26.5 M155.6,39.5c-3.1,0-5.7-2.5-5.7-5.7c0-3.1,2.5-5.7,5.7-5.7c3.1,0,5.7,2.5,5.7,5.7
		C161.2,37,158.7,39.5,155.6,39.5"/>
	<path clip-path="url(#SVGID_2_)" fill="#CCC9C7" d="M151,40l-2,2l-2.1-2v51.8c0.5,1.1,2.8,0.9,3.2,0C150.5,90.9,151,40,151,40"/>
	<path clip-path="url(#SVGID_2_)" fill="#CCC9C7" d="M148.7,25.7l-8,8.3l6.2,6l2.1,2l2-2l6-6.3L148.7,25.7z M150.5,38.2l-1.4,1.5
		l-1.5-1.5l-4.5-4.3l5.8-6l6,5.8L150.5,38.2z"/>
	<polygon clip-path="url(#SVGID_2_)" fill="#CCC9C7" points="159.3,92.6 148.8,92.6 148.8,82.6 159.3,82.6 159.3,84.9 155,85.6 
		155,87.8 159.3,88.6 	"/>
	<path clip-path="url(#SVGID_2_)" fill="#231F20" d="M159.3,92.6c0,0,0-1.1-0.1-3.9c0,0,0,0.1,0.1,0.1c-0.8-0.1-2.4-0.4-4.3-0.7
		l-0.2,0l0-0.2c0-0.3,0-1.3-0.1-2.3l0-0.2l0.2,0c0.8-0.1,2.5-0.4,4.2-0.7c0,0-0.2,0.2-0.3,0.3c0-0.4,0-1.3,0-2.3
		c0.1,0.1,0.2,0.2,0.4,0.4c-1.6,0-4.2,0-6.9,0c-1.3,0-2.5,0-3.6,0c0.1-0.1,0.3-0.3,0.4-0.4c0,3.9-0.1,7.4-0.1,9.9
		c-0.1-0.1-0.2-0.2-0.3-0.3C155.4,92.4,159.3,92.6,159.3,92.6s-3.9,0.1-10.5,0.3l-0.3,0l0-0.3c-0.1-2.6-0.1-6-0.1-9.9l0-0.4h0.4
		c1.1,0,2.3,0,3.6,0c2.7,0,5.3,0,6.9,0l0.4,0l0,0.4c0,0.9,0,1.8,0,2.3l0,0.3l-0.3,0c-1.8,0.2-3.5,0.5-4.3,0.6
		c0.1-0.1,0.2-0.2,0.2-0.2c0,1,0,1.9,0,2.3c-0.1-0.1-0.1-0.2-0.2-0.2c1.9,0.4,3.5,0.7,4.2,0.9l0.1,0l0,0.1
		C159.3,91.4,159.3,92.6,159.3,92.6"/>
	<polygon clip-path="url(#SVGID_2_)" fill="#CCC9C7" points="151,28.3 149,27.1 146.9,28.3 146.9,24.6 151,24.6 	"/>
	<path clip-path="url(#SVGID_2_)" fill="#CCC9C7" d="M152.4,44.9c0,0.6-0.5,1.1-1.1,1.1h-5.1c-0.6,0-1.1-0.5-1.1-1.1
		c0-0.6,0.5-1.1,1.1-1.1h5.1C151.9,43.8,152.4,44.3,152.4,44.9"/>
	<path clip-path="url(#SVGID_2_)" fill="#231F20" d="M152.4,44.9c0,0,0-0.3-0.2-0.6c-0.1-0.2-0.3-0.3-0.6-0.4c-0.3,0-0.6,0-1,0
		c-0.8,0-1.7,0.1-2.7,0.1c-0.5,0-1,0-1.6,0c-0.4,0-0.9,0.3-0.8,0.9c0,0.4,0.4,0.8,0.8,0.8c0.5,0,1.1,0,1.6,0c1,0,1.9,0.1,2.7,0.1
		c0.4,0,0.7,0.1,1,0c0.3-0.1,0.5-0.2,0.6-0.4C152.4,45.1,152.4,44.8,152.4,44.9c0,0,0.1,0.3-0.2,0.6c-0.1,0.2-0.3,0.4-0.6,0.5
		c-0.3,0.1-0.7,0-1,0.1c-0.8,0-1.7,0.1-2.7,0.1c-0.5,0-1,0-1.6,0c-0.7,0-1.4-0.5-1.3-1.3c0-0.7,0.7-1.3,1.3-1.3c0.5,0,1.1,0,1.6,0
		c1,0,1.9,0.1,2.7,0.1c0.4,0,0.7,0,1,0.1c0.3,0.1,0.5,0.3,0.6,0.5C152.4,44.6,152.4,44.9,152.4,44.9"/>
	<path clip-path="url(#SVGID_2_)" fill="#CCC9C7" d="M152.4,52.6c0,0.2-0.5,0.4-1.1,0.4h-5.1c-0.6,0-1.1-0.2-1.1-0.4
		c0-0.2,0.5-0.4,1.1-0.4h5.1C151.9,52.2,152.4,52.3,152.4,52.6"/>
	<path clip-path="url(#SVGID_2_)" fill="#CCC9C7" d="M152.4,24.6c0,0.6-0.5,1.1-1.1,1.1h-5.1c-0.6,0-1.1-0.5-1.1-1.1
		s0.5-1.1,1.1-1.1h5.1C151.9,23.6,152.4,24,152.4,24.6"/>
	<path clip-path="url(#SVGID_2_)" fill="#231F20" d="M152.4,24.6c0,0,0-0.3-0.2-0.6c-0.1-0.2-0.3-0.3-0.6-0.4c-0.3,0-0.6,0-1,0
		c-0.8,0-1.7,0.1-2.7,0.1c-0.5,0-1,0-1.6,0c-0.4,0-0.9,0.3-0.8,0.9c0,0.4,0.4,0.8,0.8,0.8c0.5,0,1.1,0,1.6,0c1,0,1.9,0.1,2.7,0.1
		c0.4,0,0.7,0.1,1,0c0.3-0.1,0.5-0.2,0.6-0.4C152.4,24.9,152.4,24.6,152.4,24.6c0,0,0.1,0.3-0.2,0.6c-0.1,0.2-0.3,0.4-0.6,0.5
		c-0.3,0.1-0.7,0-1,0.1c-0.8,0-1.7,0.1-2.7,0.1c-0.5,0-1,0-1.6,0c-0.7,0-1.4-0.5-1.3-1.3c0-0.7,0.7-1.3,1.3-1.3c0.5,0,1.1,0,1.6,0
		c1,0,1.9,0.1,2.7,0.1c0.4,0,0.7,0,1,0.1c0.3,0.1,0.5,0.3,0.6,0.5C152.4,24.4,152.4,24.6,152.4,24.6"/>
</g>
</svg>
